<?xml version="1.0" encoding="UTF-8" standalone="no"?>
<!-- Created with Inkscape (http://www.inkscape.org/) -->

<svg
   width="79"
   height="79"
   viewBox="0 0 20.902083 20.902083"
   version="1.1"
   id="svg1"
   xmlns="http://www.w3.org/2000/svg"
   xmlns:svg="http://www.w3.org/2000/svg">
  <defs
     id="defs1" />
  <g
     id="layer1"
     transform="translate(-200.28961,-77.787429)">
    <path
       id="outline_bicho"
       data-name="outline bicho"
       class="cls-2"
       d="m 210.30777,93.63107 c 0.0263,0.01048 0.0471,0.02357 0.0655,0.02357 0.0341,0 0.0707,-0.01048 0.10483,-0.02357 0.0787,-0.02884 0.15726,-0.05766 0.23326,-0.09436 0.12581,-0.0629 0.25161,-0.131045 0.3748,-0.20181 0.0839,-0.0498 0.16511,-0.104835 0.23587,-0.1756 0.0524,-0.05504 0.11794,-0.09698 0.17823,-0.146769 0.0393,-0.03408 0.0839,-0.06553 0.11794,-0.102216 0.0498,-0.05242 0.0917,-0.110079 0.13628,-0.16774 0.0707,-0.08911 0.13891,-0.178222 0.20968,-0.267331 0.0157,-0.02098 0.0341,-0.04193 0.0524,-0.06028 0.0157,-0.02098 0.0341,-0.0236 0.0551,-0.0052 0.0341,0.02622 0.0734,0.03931 0.11794,0.03408 0.0629,-0.0052 0.0943,0.01572 0.1127,0.07338 0.008,0.02622 0.0157,0.05504 0.0263,0.07862 0.0157,0.03669 0.0131,0.07339 -0.003,0.112702 -0.0603,0.141527 -0.11794,0.283057 -0.19656,0.416724 -0.0472,0.08125 -0.097,0.162496 -0.1494,0.243744 -0.0236,0.03669 -0.0498,0.06814 -0.0786,0.102216 -0.0393,0.05242 -0.0812,0.104835 -0.12318,0.154632 -0.0105,0.0131 -0.021,0.02357 -0.0314,0.03669 -0.0131,0.0131 -0.0288,0.02622 -0.0393,0.04193 -0.0524,0.07077 -0.10222,0.141528 -0.15726,0.212293 -0.0629,0.08125 -0.11008,0.172981 -0.15987,0.25947 -0.0288,0.0498 -0.0472,0.104835 -0.0707,0.157254 -0.0314,0.06553 -0.0524,0.128426 -0.0472,0.204432 0.005,0.06814 0.0131,0.125803 0.0812,0.159874 0.0288,0.01572 0.0524,0.03145 0.0865,0.02622 0.008,0 0.0157,0.0052 0.0236,0.0078 0,0.0078 0,0.01572 0,0.01834 -0.0367,0.08125 -0.021,0.157252 0.0131,0.230642 0.0288,0.0681 0.0576,0.1389 0.0917,0.20443 0.0341,0.0629 0.0734,0.12318 0.1258,0.17035 0.0367,0.0341 0.0734,0.0367 0.11794,0.0131 0.0157,-0.008 0.0315,-0.0131 0.0472,-0.021 0.0157,0.0446 0.005,0.0786 -0.008,0.11532 -0.021,0.055 -0.0131,0.10484 0.0366,0.13891 0.005,0.005 0.0105,0.0131 0.0131,0.0183 0,0.005 0,0.008 0,0.0105 -0.003,0.005 -0.005,0.0105 -0.008,0.0131 -0.0602,0.0655 -0.0629,0.13628 -0.0367,0.21229 0.0236,0.0734 0.1127,0.11532 0.1887,0.0891 0.0288,-0.0105 0.0577,-0.0183 0.0865,-0.0262 0.0629,-0.0157 0.0865,-0.005 0.11008,0.0498 0.0262,0.0655 0.0419,0.13629 0.0446,0.20967 0,0.0131 -0.005,0.0288 -0.005,0.0419 -0.005,0.0655 0.0183,0.11794 0.0576,0.17036 0.0472,0.0629 0.0839,0.12843 0.0629,0.21229 0,0.005 0,0.0131 0.003,0.0236 0.0498,-0.0341 0.0366,-0.0996 0.076,-0.13891 0.0341,0.0315 0.0288,0.0708 0.0315,0.11008 0.0314,-0.0131 0.0367,-0.0367 0.0341,-0.0577 0,-0.0262 0,-0.055 -0.0157,-0.076 -0.0315,-0.0524 -0.0393,-0.10746 -0.0446,-0.16774 -0.008,-0.0655 -0.0366,-0.13104 -0.0602,-0.19394 -0.0157,-0.0472 -0.0341,-0.0944 -0.0498,-0.14153 -0.005,-0.0183 -0.008,-0.0367 -0.0183,-0.0524 -0.0157,-0.0236 -0.0131,-0.0446 0,-0.0681 0.0105,-0.0183 0.021,-0.0393 0.021,-0.0577 0.005,-0.11532 -0.0472,-0.20705 -0.16512,-0.23588 -0.0419,-0.0105 -0.0419,-0.0131 -0.0393,-0.055 0.005,-0.076 -0.0288,-0.1258 -0.0943,-0.15987 -0.005,-0.003 -0.0131,-0.005 -0.0183,-0.008 -0.0419,-0.0183 -0.0576,-0.0603 -0.0787,-0.0944 -0.005,-0.008 0.003,-0.0262 0.008,-0.0393 0.005,-0.0157 0.021,-0.0288 0.021,-0.0419 -0.005,-0.0419 0,-0.0839 -0.0288,-0.12057 -0.0288,-0.0315 -0.0551,-0.0681 -0.0787,-0.10483 -0.0236,-0.0367 -0.0341,-0.08125 -0.0812,-0.09698 -0.008,-0.0026 -0.0131,-0.01572 -0.0183,-0.02357 -0.0105,-0.01048 -0.021,-0.02357 -0.0341,-0.02883 -0.0603,-0.03145 -0.10746,-0.08387 -0.17299,-0.104835 0,0 0,-0.0026 -0.003,-0.0078 0.0263,-0.04717 0.0655,-0.08125 0.1127,-0.107457 0.0341,-0.01834 0.0551,-0.04717 0.0682,-0.07862 0.021,-0.05242 0.0419,-0.107457 0.0655,-0.159876 0.021,-0.04193 0.0446,-0.08125 0.0682,-0.120562 0.0131,-0.02357 0.0288,-0.04456 0.0419,-0.06814 0.0288,-0.06028 0.0446,-0.128425 0.0865,-0.183463 0.0236,-0.03145 0.0419,-0.06553 0.0603,-0.09959 0.0524,-0.09435 0.076,-0.204432 0.14677,-0.290921 0.0105,-0.0131 0.0131,-0.02884 0.0183,-0.04456 0.008,-0.01572 0.0131,-0.03407 0.021,-0.0498 0.0812,-0.144149 0.13367,-0.301404 0.19133,-0.453419 0.021,-0.05766 0.0393,-0.11794 0.0576,-0.17822 0.0105,-0.03932 0.0131,-0.08125 0.0263,-0.117943 0.0288,-0.08387 0.021,-0.159873 -0.0183,-0.233258 -0.0105,-0.01572 -0.0183,-0.03408 -0.0236,-0.05242 -0.0105,-0.03145 -0.008,-0.06028 0.0183,-0.08649 0.0131,-0.0131 0.021,-0.03145 0.0288,-0.0498 0.0314,-0.07601 0.021,-0.149391 0,-0.222776 -0.0131,-0.0498 -0.021,-0.09959 -0.0341,-0.149391 -0.0157,-0.06814 -0.0288,-0.138908 -0.0577,-0.20181 -0.0183,-0.03932 -0.021,-0.07077 -0.005,-0.110079 0.0288,-0.07077 0.0576,-0.141527 0.0865,-0.214914 0.0236,-0.06028 0.0419,-0.120563 0.0629,-0.180842 0.021,-0.0629 0.0446,-0.123182 0.0655,-0.186086 0.0105,-0.03145 0.021,-0.06029 0.0314,-0.09174 0.0315,-0.09435 0.0603,-0.191324 0.0917,-0.28568 0.008,-0.02622 0.0131,-0.05504 0.0236,-0.08125 0.0682,-0.159876 0.0996,-0.330235 0.1494,-0.495353 0.021,-0.07077 0.0419,-0.138908 0.0655,-0.20967 0.0288,-0.09435 0.0577,-0.191327 0.0917,-0.28568 0.0183,-0.05242 0.0393,-0.102216 0.0602,-0.154635 0.0262,0.01048 0.0471,0.01834 0.0681,0.02357 0.021,0.0078 0.0446,0.0131 0.0655,0.01834 0.0472,0.0131 0.0892,0.01048 0.12842,-0.02883 0.0105,-0.01048 0.0288,-0.0131 0.0419,-0.0131 0.0446,0 0.10222,0.06814 0.1127,0.123184 0.0131,0.06553 -0.008,0.128425 -0.008,0.193946 0,0.0498 -0.0131,0.09959 -0.0105,0.146772 0.008,0.107457 -0.0262,0.209673 -0.0471,0.314509 -0.0183,0.08911 -0.0524,0.178222 -0.0812,0.264711 -0.0367,0.110077 -0.076,0.220156 -0.0892,0.335477 -0.005,0.04456 -0.008,0.08649 -0.0131,0.131045 -0.0105,0.11794 0.0131,0.225397 0.11008,0.301403 0.0157,0.0131 0.0341,0.02622 0.0498,0.03932 0.0105,0.01048 0.0236,0.02357 0.0262,0.03669 0.0105,0.04193 0.0157,0.08125 0.021,0.123181 0.0105,0.09173 0.0341,0.178223 0.0812,0.256848 0.0419,0.07339 0.0996,0.133667 0.19132,0.149394 0.003,0 0.008,0 0.0105,0 0.0314,0.01048 0.0393,0.02098 0.0314,0.05504 -0.005,0.02357 -0.0131,0.04456 -0.0157,0.06814 -0.008,0.03932 -0.005,0.07338 0.0366,0.09435 0.021,0.01048 0.021,0.02622 0.0105,0.04456 -0.008,0.01572 -0.021,0.02883 -0.0288,0.04456 -0.0419,0.07077 -0.0393,0.141531 0,0.207054 0.0288,0.04717 0.076,0.08125 0.14154,0.06814 0.005,0 0.0131,0.0026 0.0236,0.0052 0.0105,0.08911 0.0236,0.175601 0.0263,0.264712 0,0.05504 0.0131,0.102216 0.0419,0.146772 0.021,0.03145 0.021,0.04455 -0.008,0.07338 -0.005,0.0078 -0.0105,0.01572 -0.021,0.02883 0.0288,0 0.0498,0 0.0682,-0.02098 0.0105,-0.01048 0.021,-0.01834 0.0341,-0.02622 0.0315,-0.01572 0.0603,-0.01048 0.0917,0 0.0446,0.01834 0.0603,0.01048 0.0839,-0.03145 -0.003,0 -0.005,-0.0026 -0.0105,-0.0026 -0.0577,0.0052 -0.0577,0.0052 -0.0629,-0.05242 -0.005,-0.0498 -0.0183,-0.09959 -0.0367,-0.146769 -0.0315,-0.08125 -0.0576,-0.165118 -0.0839,-0.246368 -0.0105,-0.03406 0,-0.04456 0.0288,-0.05766 0.021,-0.0078 0.0393,-0.0131 0.0603,-0.02358 0.0707,-0.02884 0.11008,-0.08125 0.12056,-0.152013 0.005,-0.03669 -0.003,-0.07077 -0.0367,-0.09698 -0.0393,-0.02883 -0.0812,-0.05504 -0.12842,-0.06553 -0.0314,-0.0078 -0.0393,-0.02357 -0.0236,-0.04456 0.0314,-0.04456 0.0131,-0.07862 -0.0157,-0.107458 -0.021,-0.02357 -0.0498,-0.04193 -0.0787,-0.06028 -0.0288,-0.02098 -0.0551,-0.04193 -0.0603,-0.08125 0.021,-0.01572 0.0393,-0.02882 0.0576,-0.04455 0.0393,-0.03408 0.0629,-0.08125 0.0524,-0.128426 -0.0183,-0.06553 -0.0419,-0.133664 -0.0917,-0.186083 -0.0263,-0.02622 -0.0629,-0.04456 -0.0865,-0.07338 -0.0551,-0.06814 -0.12055,-0.112698 -0.21229,-0.120562 -0.0393,-0.0026 -0.0655,-0.05242 -0.0446,-0.07862 0.0236,-0.02883 0.0446,-0.06814 0.0917,-0.0629 0.021,0 0.0419,0 0.0498,-0.02357 0.0105,-0.03145 0.0262,-0.06028 0.008,-0.09698 -0.0131,-0.0236 -0.021,-0.05242 -0.0183,-0.07863 0.005,-0.0498 -0.005,-0.102213 0.0157,-0.149391 0,-0.0052 0,-0.0131 0,-0.02098 0,-0.06028 -0.003,-0.120562 0.003,-0.178222 0.0105,-0.110077 0.0183,-0.217534 0.0131,-0.327614 -0.005,-0.112698 -0.008,-0.225397 -0.0105,-0.338096 0,-0.06814 0,-0.133666 -0.0105,-0.199187 -0.0131,-0.08911 -0.0393,-0.178223 -0.0917,-0.254229 -0.0183,-0.02622 -0.0419,-0.04456 -0.0629,-0.07077 -0.0263,-0.03145 -0.0524,-0.06553 -0.0419,-0.107457 0.0183,-0.07077 -0.0105,-0.123182 -0.0498,-0.172979 -0.0629,-0.08125 -0.15464,-0.133666 -0.23063,-0.20181 -0.008,-0.0078 -0.0236,-0.01048 -0.0341,-0.01833 -0.005,0.01048 -0.008,0.01572 -0.008,0.02098 0,0.04717 0,0.09174 -0.0263,0.133667 -0.005,0.0078 0,0.02098 -0.003,0.03145 0,0.0131 0,0.02883 -0.005,0.04193 -0.0393,0.112699 -0.0734,0.230641 -0.14153,0.332855 -0.005,0.0078 -0.0131,0.01574 -0.0131,0.0236 -0.005,0.04193 -0.0288,0.05242 -0.0655,0.05242 -0.0263,0 -0.0524,0.0078 -0.0629,0.04193 0.0341,0.03145 0.0655,0.02882 0.0996,-0.0053 0,0.0026 0.003,0.0078 0.005,0.01048 -0.0157,0.02622 -0.0288,0.05242 -0.0446,0.08125 -0.0236,-0.01048 -0.0393,-0.02098 -0.0576,-0.02883 -0.0183,0.01572 -0.0341,0.03145 -0.0576,0.05504 0,-0.01572 -0.003,-0.02098 -0.003,-0.02622 -0.008,-0.07338 0.021,-0.136286 0.0682,-0.191327 0.0236,-0.02622 0.0498,-0.04979 0.0786,-0.07338 0.008,-0.0078 0.0263,-0.0078 0.0367,-0.0078 0.0393,0 0.0498,-0.01572 0.0367,-0.05242 -0.0367,0.0026 -0.0734,0.0052 -0.11794,0.01048 0.0183,-0.03669 0.0446,-0.0498 0.0707,-0.06553 0.021,-0.0131 0.0314,-0.02883 0.0314,-0.05504 0.005,-0.05504 0.021,-0.104836 0.0629,-0.149391 0.0446,-0.04717 0.0734,-0.102216 0.0551,-0.170359 -0.005,-0.01834 0,-0.03408 0.0183,-0.04456 0.0419,-0.02098 0.0471,-0.03145 0.0446,-0.07601 0,-0.05242 0,-0.104835 0,-0.157254 0.008,-0.110077 0.0131,-0.222776 0,-0.332855 -0.005,-0.02622 -0.008,-0.06028 0,-0.08387 0.0314,-0.07601 0.008,-0.141528 -0.0131,-0.209671 -0.0183,-0.05766 -0.0603,-0.102216 -0.10484,-0.14153 -0.0157,-0.0131 -0.0315,-0.02884 -0.0236,-0.05504 0.0262,-0.0996 0.0367,-0.20181 0.0812,-0.298784 0.003,-0.0052 0.0105,-0.01048 0.0183,-0.01834 0,0.0078 0.003,0.0131 0.003,0.01574 -0.008,0.05504 -0.005,0.05504 0.0498,0.05766 0.0655,0.0053 0.12318,-0.01833 0.18346,-0.03669 0.0524,-0.01572 0.097,-0.04193 0.13105,-0.08125 0.0314,-0.03408 0.0655,-0.05504 0.10483,-0.07077 0.021,-0.0078 0.0446,-0.01834 0.0629,-0.03145 0.0183,-0.01048 0.0314,-0.02622 0.0446,-0.04193 0.0367,-0.03932 0.076,-0.07338 0.1258,-0.08911 0.0105,-0.0026 0.0315,0 0.0367,0.0078 0.0183,0.03145 0.0393,0.01572 0.0603,0.0053 0.0314,-0.01572 0.0629,-0.03408 0.0943,-0.05242 0.12057,-0.07338 0.24112,-0.149391 0.36168,-0.222778 0.0393,-0.02357 0.076,-0.04717 0.1127,-0.07338 0.0996,-0.07601 0.1992,-0.154632 0.29879,-0.230638 0.0236,-0.01572 0.0498,-0.02883 0.076,-0.03669 0.0576,-0.01834 0.0655,-0.02622 0.0734,-0.08911 0.005,-0.03932 0.0157,-0.07601 0.0288,-0.112698 0.005,-0.02098 0.0236,-0.02622 0.0419,-0.01574 0.0157,0.01048 0.0315,0.0236 0.0471,0.03145 0.1258,0.05766 0.25685,0.09435 0.401,0.07862 0.021,0 0.0498,-0.01572 0.0629,-0.03407 0.0236,-0.02883 0.0367,-0.06553 0.0524,-0.09959 0.0131,-0.03408 0.0157,-0.03932 0.0551,-0.03669 0.0341,0 0.0682,0.0053 0.0996,0.0078 0.0419,0.0052 0.0707,-0.01574 0.0917,-0.05242 0.008,-0.0131 0.0157,-0.02622 0.0236,-0.04717 0.021,0.0131 0.0393,0.0236 0.0551,0.03408 0.0551,0.03931 0.1127,0.0629 0.18346,0.05504 0.076,-0.01048 0.13105,-0.06553 0.13367,-0.14153 0,-0.02883 0,-0.06028 -0.003,-0.08911 0,-0.04193 0.005,-0.05504 0.0419,-0.05766 0.0393,-0.0026 0.0786,-0.0026 0.11532,0 0.0603,0.0078 0.11794,0.0236 0.1756,0.03408 0.0157,0.0026 0.0366,0.0078 0.0498,0 0.0131,-0.0078 0.021,-0.02883 0.0315,-0.04456 0.0105,0.0052 0.0183,0.01572 0.0314,0.01572 0.0288,0.0026 0.0603,0 0.0891,0.0052 0.0288,0.0053 0.0551,0.01834 0.0812,0.02622 0,-0.0026 0.005,-0.0078 0.008,-0.01048 -0.021,-0.02098 -0.0419,-0.03932 -0.0603,-0.06028 -0.0236,-0.0236 -0.0183,-0.04456 0.0131,-0.05766 0.0157,-0.0052 0.0341,-0.0026 0.0524,0 0.0105,0 0.021,0 0.0314,0.0026 -0.0183,-0.0236 -0.0419,-0.02883 -0.0682,-0.02622 -0.0261,0 -0.0524,0.0053 -0.0786,0.01048 -0.0288,0.0078 -0.0551,0 -0.0812,-0.0131 -0.021,-0.0131 -0.0498,-0.02357 -0.0734,-0.02357 -0.0943,0 -0.19132,-0.01048 -0.28567,0.01572 -0.021,0.0052 -0.0446,0.0078 -0.0682,0.0131 -0.021,0.0053 -0.0341,0 -0.0446,-0.01834 -0.005,-0.0078 -0.008,-0.01574 -0.0105,-0.0236 -0.0498,-0.08649 -0.17298,-0.123182 -0.25161,-0.02098 -0.0288,0.03932 -0.0551,0.07862 -0.0812,0.120563 -0.0157,0.02357 -0.0341,0.03932 -0.0603,0.03145 -0.0498,-0.01834 -0.0812,0.0078 -0.1127,0.04193 -0.0105,0.01048 -0.0183,0.0236 -0.0262,0.03408 -0.0236,0.03145 -0.0446,0.03145 -0.0682,0 -0.0288,-0.04193 -0.0682,-0.05766 -0.12057,-0.04717 -0.008,0 -0.0131,0 -0.021,0 -0.14415,0.0078 -0.26996,0.06028 -0.37741,0.162496 -0.0472,0.04456 -0.0865,0.03669 -0.10746,-0.02357 -0.008,-0.01834 -0.0157,-0.03145 -0.0367,-0.02883 -0.0393,0.0078 -0.0812,0.0078 -0.11532,0.02622 -0.0707,0.03669 -0.14415,0.07338 -0.19395,0.133667 -0.0341,0.03932 -0.0707,0.07601 -0.10745,0.11008 -0.0341,0.03145 -0.0603,0.07077 -0.0917,0.104835 -0.0655,0.07077 -0.13367,0.14153 -0.20181,0.207051 -0.0602,0.05766 -0.1258,0.112701 -0.19394,0.162498 -0.0629,0.0498 -0.13367,0.08911 -0.20181,0.136286 -0.0183,0.0131 -0.0341,0.02622 -0.0524,0.03932 -0.0393,0.02622 -0.0734,0.06027 -0.12055,0.06814 -0.0577,0.01048 -0.1127,0.01833 -0.15464,-0.03408 -0.0236,-0.02883 -0.0576,-0.03932 -0.0996,-0.03408 -0.0577,0.0078 -0.0707,-0.01048 -0.0655,-0.06814 0.0105,-0.12056 0.0263,-0.243744 0.0288,-0.364306 0,-0.05766 -0.0105,-0.120562 -0.0288,-0.1756 -0.021,-0.07077 -0.0551,-0.138908 -0.0812,-0.209673 -0.008,-0.02098 -0.0183,-0.04193 -0.0288,-0.06028 -0.021,-0.03669 -0.0393,-0.07338 -0.0629,-0.107458 -0.0105,-0.01572 -0.021,-0.03408 -0.0341,-0.04193 -0.0393,-0.02622 -0.0812,-0.04717 -0.12318,-0.06814 -0.0341,-0.01833 -0.0393,-0.03145 -0.0105,-0.06028 0.0892,-0.08387 0.0865,-0.191324 0.0944,-0.296162 0,-0.01048 -0.005,-0.02357 -0.008,-0.03669 -0.0263,-0.07338 -0.076,-0.131045 -0.13104,-0.180844 -0.0288,-0.02622 -0.0471,-0.05504 -0.0629,-0.08911 -0.0131,-0.03145 -0.008,-0.03932 0.0183,-0.0629 0.021,-0.01572 0.0446,-0.03408 0.0551,-0.05766 0.021,-0.04456 0.0551,-0.06553 0.097,-0.07862 0.0341,-0.01048 0.0707,-0.01834 0.10221,-0.03669 0.0603,-0.03669 0.1258,-0.06552 0.19133,-0.09435 0.0262,-0.01048 0.0524,-0.02358 0.0787,-0.03408 0.0368,-0.01834 0.0812,-0.02884 0.10746,-0.05504 0.0655,-0.06553 0.14939,-0.08649 0.22802,-0.11532 0.0682,-0.02622 0.14153,-0.03931 0.21229,-0.06029 0.0498,-0.01572 0.097,-0.03408 0.13105,-0.08125 0.008,-0.01048 0.0236,-0.01834 0.0367,-0.02357 0.0944,-0.02622 0.18347,-0.05504 0.26471,-0.112699 0.0183,-0.0131 0.0393,-0.02622 0.0551,-0.04193 0.021,-0.02357 0.0446,-0.03932 0.076,-0.04717 0.0183,-0.0052 0.0366,-0.01048 0.0576,-0.01834 0.0787,-0.02883 0.15726,-0.06028 0.20967,-0.136286 0.0105,-0.01572 0.0367,-0.02622 0.0603,-0.03145 0.0498,-0.01572 0.0996,-0.02622 0.14939,-0.04193 0.0576,-0.01833 0.0943,-0.06553 0.13367,-0.107457 0.0183,-0.02098 0.0393,-0.03145 0.0682,-0.03932 0.0734,-0.01572 0.14678,-0.03145 0.21753,-0.05504 0.0603,-0.02098 0.12057,-0.0498 0.1363,-0.123184 0,-0.0052 0.005,-0.0078 0.0105,-0.0131 0.0367,0 0.076,0 0.1127,-0.0078 0.0812,-0.0131 0.15726,-0.04718 0.2254,-0.09435 0.0183,-0.0131 0.0393,-0.03408 0.0471,-0.05766 0.0131,-0.03408 0.0341,-0.04456 0.0655,-0.05242 0.0943,-0.02621 0.1887,-0.05504 0.28305,-0.08125 0.0471,-0.01311 0.0812,-0.03932 0.0996,-0.08387 0.0131,-0.02883 0.0341,-0.04193 0.0655,-0.05242 0.0892,-0.02621 0.17823,-0.05504 0.26472,-0.08649 0.0498,-0.01835 0.097,-0.04456 0.1258,-0.09698 0.008,-0.01573 0.0341,-0.02358 0.0524,-0.02883 0.0629,-0.01835 0.12842,-0.03408 0.19132,-0.05242 0.17036,-0.04718 0.27519,-0.162497 0.34335,-0.31713 0.0288,-0.0629 0,-0.09698 -0.0655,-0.09173 -0.008,0 -0.0183,0 -0.0263,0.0052 -0.0576,0.01572 -0.11269,0.03408 -0.17036,0.05242 -0.021,0.0078 -0.0446,0.01835 -0.0629,0.03145 -0.0551,0.03408 -0.11007,0.07077 -0.15987,0.110078 -0.0446,0.03408 -0.0839,0.07338 -0.12056,0.112699 -0.0341,0.03669 -0.0341,0.04193 -0.0787,0.02883 -0.0471,-0.01573 -0.0917,-0.01311 -0.13366,0.0131 -0.0892,0.05504 -0.1756,0.112699 -0.24375,0.193947 -0.0315,0.03669 -0.0367,0.03932 -0.0839,0.02358 -0.0367,-0.0131 -0.076,-0.01048 -0.11009,0.0052 -0.0471,0.02358 -0.0917,0.05242 -0.13104,0.08387 -0.0446,0.03669 -0.0839,0.07862 -0.12318,0.120562 -0.0288,0.02884 -0.0419,0.03145 -0.0787,0.01311 -0.0157,-0.0078 -0.0367,-0.01835 -0.0551,-0.01311 -0.0367,0.0078 -0.0734,0.01835 -0.10483,0.03669 -0.0655,0.03932 -0.11795,0.09435 -0.16251,0.154633 -0.0367,0.04718 -0.0341,0.04718 -0.0839,0.02358 -0.0419,-0.02097 -0.0812,-0.02097 -0.12056,0.0078 -0.0446,0.03145 -0.0917,0.0629 -0.13628,0.09698 -0.0263,0.02098 -0.0498,0.04717 -0.0707,0.07338 -0.0367,0.04717 -0.0498,0.05766 -0.10746,0.03669 -0.0288,-0.01048 -0.0576,-0.0078 -0.0812,0.0131 -0.0498,0.04456 -0.10222,0.08911 -0.14939,0.138909 -0.0314,0.03408 -0.0682,0.0498 -0.11271,0.0498 -0.0157,0 -0.0341,0 -0.0446,0.0078 -0.0498,0.03669 -0.0996,0.07338 -0.1494,0.115318 -0.0367,0.03145 -0.076,0.05504 -0.1258,0.05504 -0.0419,0 -0.076,0.01572 -0.10746,0.04193 -0.0367,0.03145 -0.0734,0.0629 -0.1127,0.09435 -0.0419,0.03145 -0.0865,0.06553 -0.14415,0.05766 -0.0105,0 -0.021,0.0026 -0.0314,0.0052 -0.076,0.01834 -0.14415,0.0498 -0.20442,0.102216 -0.0157,0.0131 -0.0341,0.02098 -0.0524,0.02883 -0.0236,0.0131 -0.0471,0.02622 -0.0707,0.03669 -0.0471,0.02622 -0.0943,0.05242 -0.15201,0.03669 -0.0131,-0.0026 -0.0314,0 -0.0472,0.0078 -0.0419,0.01572 -0.0734,0.04193 -0.097,0.08125 -0.005,0.01048 -0.0261,0.02622 -0.0366,0.02357 -0.0157,-0.0026 -0.0314,-0.01834 -0.0367,-0.03145 -0.005,-0.01048 0.003,-0.03145 0.0105,-0.04193 0.0288,-0.03669 0.0263,-0.07601 0.0131,-0.115321 -0.0183,-0.05766 -0.0707,-0.07077 -0.11794,-0.02883 -0.0183,0.01572 -0.0314,0.03408 -0.0419,0.05504 -0.0131,0.02357 -0.021,0.0498 -0.0288,0.07601 -0.005,0.02098 -0.0157,0.03408 -0.0367,0.04456 -0.076,0.03145 -0.13628,0.08649 -0.18608,0.149391 -0.0419,0.05242 -0.0943,0.05766 -0.1494,0.04456 -0.0551,-0.0131 -0.0629,-0.06028 -0.0682,-0.104835 0,-0.0078 0,-0.01572 0,-0.02098 -0.0105,-0.02883 -0.0131,-0.0629 -0.0288,-0.08911 -0.0498,-0.07862 -0.12319,-0.120562 -0.21754,-0.144152 -0.12581,-0.02882 -0.24375,-0.07862 -0.35906,-0.133664 -0.0446,-0.02098 -0.0865,-0.04193 -0.13367,-0.04456 -0.0603,-0.0052 -0.1258,-0.01572 -0.18346,0.01834 -0.0263,0.01572 -0.0498,0.03408 -0.0734,0.05504 -0.0577,0.04718 -0.12319,0.03932 -0.17036,-0.01572 -0.021,-0.02622 -0.0263,-0.05504 -0.0263,-0.08911 0,-0.06553 0,-0.131044 -0.0262,-0.191324 -0.0183,-0.03932 -0.021,-0.08125 0.008,-0.120565 0.0105,-0.01572 0.0157,-0.03669 0.021,-0.05504 0.0105,-0.03145 0.005,-0.06028 -0.005,-0.08649 -0.0157,-0.03669 -0.0472,-0.04717 -0.0839,-0.02883 -0.0446,0.02357 -0.076,0.05766 -0.0839,0.110076 -0.005,0.03145 -0.0183,0.03932 -0.0472,0.03669 -0.0288,-0.0026 -0.0393,-0.01834 -0.0315,-0.04718 0.0157,-0.07338 0.005,-0.136288 -0.0682,-0.172981 -0.005,-0.0026 -0.0105,-0.0078 -0.0157,-0.0131 -0.0472,-0.07077 -0.0682,-0.152013 -0.0944,-0.230641 0,0 0,-0.0026 0,-0.0052 -0.0105,-0.08649 -0.0472,-0.159876 -0.10484,-0.225398 -0.0157,-0.01572 -0.0314,-0.03408 -0.0366,-0.05504 -0.0157,-0.06814 -0.0314,-0.136288 -0.0419,-0.204431 -0.008,-0.04193 -0.0157,-0.07862 -0.0524,-0.110078 -0.0393,-0.03408 -0.0603,-0.07862 -0.0551,-0.136288 0,-0.02097 -0.005,-0.04456 -0.0105,-0.06553 -0.003,-0.01572 -0.0131,-0.03145 -0.0131,-0.04456 0.005,-0.04193 -0.0157,-0.07077 -0.0446,-0.09435 -0.0315,-0.02621 -0.0419,-0.06028 -0.0419,-0.102215 0,-0.06028 -0.005,-0.120562 -0.0105,-0.178222 -0.003,-0.04456 -0.0183,-0.07601 -0.0682,-0.08911 -0.0393,-0.01048 -0.0471,-0.03669 -0.0419,-0.07862 0.003,-0.02621 0.0105,-0.05504 0.008,-0.07862 -0.0131,-0.06814 -0.0314,-0.133667 -0.0446,-0.19919 -0.0105,-0.04193 -0.0367,-0.06552 -0.0787,-0.07601 -0.0551,-0.0131 -0.0551,-0.01572 -0.0471,-0.07338 0.008,-0.07601 0.008,-0.152012 -0.0157,-0.225398 -0.0183,-0.05504 -0.0419,-0.107457 -0.1127,-0.117941 -0.0315,-0.0052 -0.0419,-0.02097 -0.0366,-0.05504 0.0131,-0.08125 0,-0.159876 -0.0183,-0.235882 -0.0157,-0.06814 -0.0393,-0.136287 -0.11795,-0.159875 -0.0236,-0.0053 -0.0341,-0.02358 -0.0315,-0.0498 0.008,-0.09698 -0.0131,-0.188705 -0.0314,-0.283058 -0.0131,-0.0629 -0.0446,-0.112699 -0.1127,-0.133666 -0.0288,-0.0078 -0.0393,-0.02883 -0.0341,-0.05766 0.0105,-0.06814 0.005,-0.133667 -0.0131,-0.19919 -0.0105,-0.03408 -0.0183,-0.06814 -0.0262,-0.102214 -0.021,-0.110078 -0.0812,-0.199189 -0.14415,-0.288301 -0.0157,-0.02097 -0.0341,-0.03408 -0.0629,-0.02882 -0.0314,0.0052 -0.0446,0.02882 -0.0524,0.05504 -0.0105,0.04193 -0.0183,0.08387 -0.0288,0.125804 -0.021,0.08649 -0.0131,0.167737 0.0236,0.246365 0.0393,0.08911 0.0865,0.170359 0.14939,0.243744 0.0131,0.01572 0.0236,0.04193 0.0183,0.06029 -0.0105,0.04193 -0.003,0.07601 0.0105,0.112698 0.0367,0.09435 0.0891,0.178222 0.14415,0.25947 0.0157,0.02097 0.0341,0.04193 0.0236,0.07077 -0.0262,0.0629 -0.008,0.117941 0.0263,0.170359 0.0471,0.07338 0.0944,0.14677 0.14415,0.217535 0.0157,0.02358 0.0263,0.04456 0.0105,0.07338 -0.008,0.01573 -0.0131,0.03932 -0.008,0.05766 0.0236,0.112699 0.0629,0.214915 0.15726,0.285679 0.021,0.01573 0.0314,0.03408 0.0183,0.05766 -0.0183,0.03145 -0.0131,0.06028 -0.005,0.09173 0.0236,0.09435 0.0839,0.167738 0.14153,0.241123 0.0236,0.03145 0.0341,0.05766 0.0315,0.09435 -0.005,0.05504 0,0.110078 0.0288,0.157254 0.0262,0.04456 0.0576,0.08649 0.0865,0.131046 0.0105,0.01572 0.0183,0.03669 0.0157,0.05242 -0.0131,0.09698 0.0236,0.178221 0.0734,0.256848 0.0236,0.03669 0.0446,0.07338 0.0393,0.123184 0,0.01573 0.008,0.03408 0.0131,0.0498 0.003,0.0131 0.008,0.02621 0.0131,0.03932 0.0105,0.03408 0.021,0.07077 0.0367,0.102215 0.0157,0.03408 0.0367,0.06553 0.0576,0.0996 0.0157,0.02358 0.0183,0.04717 0.021,0.07338 0.003,0.03408 0.0105,0.07077 0.0263,0.09959 0.0341,0.0629 0.0786,0.123182 0.11531,0.186084 0.0471,0.08125 0.10222,0.159876 0.10222,0.25947 0,0.02357 0.0131,0.04718 0.0236,0.06814 0.0183,0.04193 0.0393,0.08387 0.0603,0.128423 0.021,0.0498 0.0472,0.09435 0.0603,0.149394 0.008,0.03669 0.0366,0.06814 0.0551,0.102213 0.0183,0.03669 0.0368,0.07338 0.0263,0.115321 -0.008,0.03408 -0.0157,0.06814 -0.005,0.104835 0.005,0.02357 -0.003,0.04193 -0.0288,0.0498 -0.0314,0.01048 -0.0655,0.02098 -0.097,0.02622 -0.0341,0.0052 -0.0682,0.0052 -0.0996,0.01048 -0.097,0.0131 -0.18084,0.04456 -0.22803,0.138908 0,0.0052 -0.008,0.0078 -0.0105,0.0131 -0.0419,0.05766 -0.0682,0.120562 -0.0603,0.193947 0,0.02622 -0.008,0.03669 -0.0341,0.03407 -0.0183,0 -0.0367,-0.01048 -0.0551,-0.01572 -0.0446,-0.01048 -0.0891,-0.02357 -0.13629,-0.01048 -0.0419,0.0131 -0.0839,0.02357 -0.12318,0.03932 -0.097,0.04455 -0.1992,0.08387 -0.29093,0.138908 -0.12317,0.06814 -0.21229,0.178219 -0.29353,0.288299 -0.0288,0.03931 -0.0551,0.08387 -0.0865,0.123184 -0.0288,0.03669 -0.0524,0.03932 -0.0812,0.0078 -0.0341,-0.03932 -0.076,-0.05504 -0.12842,-0.04456 -0.0263,0.0053 -0.0471,-0.0052 -0.0682,-0.02096 -0.0524,-0.03932 -0.076,-0.09435 -0.0891,-0.154635 -0.0183,-0.07601 -0.0341,-0.15201 -0.0498,-0.230638 -0.0105,-0.05504 -0.0236,-0.11008 -0.0341,-0.165118 -0.0263,-0.144149 -0.0263,-0.290921 -0.0263,-0.43769 0,-0.05242 0.008,-0.104838 0.005,-0.157257 -0.003,-0.04717 -0.0105,-0.09435 0,-0.141527 0.005,-0.02622 0,-0.05242 -0.008,-0.07862 -0.021,-0.07601 -0.0341,-0.157255 -0.0917,-0.220156 -0.0341,-0.03669 -0.0288,-0.04193 -0.076,-0.02098 -0.0498,0.02098 -0.0839,0 -0.0891,-0.05242 -0.005,-0.03932 -0.008,-0.08125 -0.0183,-0.11794 -0.0288,-0.09698 -0.0787,-0.186085 -0.15463,-0.256849 -0.0393,-0.03669 -0.0734,-0.06553 -0.13367,-0.04717 -0.0262,0.0078 -0.0446,-0.0078 -0.0446,-0.03669 0,-0.0131 0.005,-0.02883 0.003,-0.04193 -0.005,-0.03669 0.003,-0.07862 -0.0367,-0.102216 -0.0498,-0.03145 -0.0524,-0.03408 -0.0341,-0.09435 0.0157,-0.05504 0.0236,-0.112699 0.0131,-0.167738 -0.008,-0.04193 -0.0314,-0.07077 -0.0707,-0.08911 -0.0472,-0.02097 -0.0917,-0.02097 -0.13891,0 -0.0261,0.01311 -0.0498,0.0078 -0.0655,-0.01573 -0.0603,-0.102216 -0.15725,-0.165118 -0.24113,-0.243745 -0.0157,-0.01573 -0.0393,-0.02621 -0.0602,-0.02621 -0.0367,-0.0026 -0.0603,-0.02097 -0.0812,-0.0498 -0.0263,-0.03932 -0.0603,-0.07077 -0.1127,-0.07338 0.0393,0.01835 0.0786,0.03669 0.0602,0.09697 -0.0419,0.0052 -0.0839,0.0078 -0.1258,0.01048 0,0.0052 0,0.0078 0,0.0131 0.0183,0.0052 0.0367,0.01048 0.0524,0.01572 0.0183,0.0078 0.0341,0.01573 0.0498,0.02621 0.0263,0.01835 0.0524,0.04193 0.0812,0.0629 -0.0105,0.02097 -0.0131,0.04456 0.0131,0.06028 0.0524,0.03145 0.10746,0.05766 0.15987,0.09174 0.0341,0.02097 0.0707,0.04717 0.0996,0.07601 0.0341,0.03408 0.0314,0.04456 -0.005,0.07862 -0.0236,0.02097 -0.0446,0.04193 -0.0655,0.06553 -0.0524,0.05766 -0.0498,0.138908 0.005,0.193946 0.0419,0.04193 0.0917,0.06814 0.15463,0.07077 0.0262,0 0.0576,0 0.0786,0.02097 -0.005,0.02884 -0.0105,0.05242 -0.0105,0.07862 0,0.01573 0.005,0.03145 0.0157,0.04193 0.021,0.02097 0.0446,0.03932 0.0682,0.05766 0.0183,0.0131 0.0419,0.02097 0.0551,0.03932 0.0157,0.02358 -0.0131,0.04456 -0.021,0.06814 -0.0157,0.04717 -0.0341,0.102215 0.005,0.141529 0.0498,0.0498 0.10746,0.09435 0.16774,0.128425 0.0707,0.03932 0.1494,0.07077 0.23326,0.07862 0.0341,0.0026 0.0419,0.02357 0.0263,0.05242 -0.0158,0.02883 -0.0315,0.06028 -0.0524,0.08649 -0.0341,0.04456 -0.0367,0.0629 -0.0105,0.110076 0.0157,0.02883 0.0288,0.06028 0.0367,0.09173 0.0131,0.05504 0.0183,0.115321 0.0288,0.170359 0.0157,0.08387 0.0263,0.16774 0.0471,0.248988 0.0498,0.183464 0.10484,0.366925 0.15988,0.550388 0.008,0.02358 0.0157,0.04193 0.0471,0.03932 0.0105,0 0.0236,0 0.0288,0.0078 0.0341,0.04456 0.0446,0.09697 0.0367,0.152013 0,0.01572 -0.008,0.02883 0,0.04193 0.0105,0.02098 0.0157,0.04193 0.0263,0.0629 0.021,0.0498 0.0498,0.09698 0.0366,0.154635 -0.003,0.0131 0.003,0.02883 0.005,0.04193 0.0236,0.09698 0.0734,0.175601 0.14677,0.241122 0.0288,0.02357 0.0472,0.02098 0.0707,-0.01048 0.005,-0.0078 0.0105,-0.01572 0.0157,-0.02357 0.005,0.0131 0,0.02622 0,0.03669 -0.0262,0.08387 -0.0839,0.154635 -0.12319,0.23326 -0.021,0.03932 -0.0498,0.0629 -0.097,0.06029 -0.097,0 -0.18084,0.03932 -0.25423,0.102213 -0.0183,0.0131 -0.0315,0.02883 -0.0262,0.05504 0.0131,0.0026 0.0236,0.0078 0.0366,0.01048 -0.021,0.01834 -0.0419,0.02622 -0.0629,0.03408 -0.0131,0.0052 -0.0288,0.0078 -0.0367,0.01834 -0.0577,0.05766 -0.11794,0.11794 -0.17298,0.17822 -0.0682,0.07601 -0.13628,0.152013 -0.20444,0.228019 -0.021,0.02098 -0.0341,0.04193 -0.0183,0.07601 0.0157,0.03408 0.003,0.05242 -0.0314,0.07338 -0.0105,0.0052 -0.0236,0.0131 -0.0262,0.02357 -0.0105,0.03145 -0.0263,0.06553 -0.0263,0.09698 0,0.05242 -0.0131,0.09959 -0.0393,0.14153 -0.0288,0.04456 -0.0341,0.08387 -0.0236,0.131044 0,0.0131 0,0.02883 0,0.04193 -0.0551,-0.0131 -0.0577,-0.07862 -0.11795,-0.08649 0.0131,-0.03145 0.021,-0.06027 0.0341,-0.08649 0.0263,-0.05766 0.0551,-0.115321 0.0839,-0.172979 0.008,-0.0131 0.0157,-0.02884 0.0236,-0.04193 0.0157,-0.02622 0.0341,-0.0498 0.0498,-0.07601 0.008,-0.01048 0.021,-0.02883 0.0183,-0.03408 -0.008,-0.01048 -0.0236,-0.01834 -0.0366,-0.02357 -0.008,-0.0026 -0.0183,0 -0.0263,0 -0.0603,0 -0.12056,-0.0078 -0.18084,0 -0.0576,0.0052 -0.11532,0.0131 -0.17298,0.02883 -0.0236,0.0078 -0.0498,0.02882 -0.0655,0.05242 -0.0341,0.04979 -0.076,0.07338 -0.13367,0.07862 -0.0446,0.0052 -0.0943,0.0078 -0.13628,0.02622 -0.1127,0.04718 -0.20968,0.115318 -0.29355,0.204429 -0.0682,0.07338 -0.14153,0.138908 -0.20967,0.209673 -0.0891,0.09435 -0.1756,0.191325 -0.26209,0.285677 -0.0367,0.03932 -0.0707,0.08125 -0.10484,0.123184 -0.0288,0.03669 -0.0629,0.06814 -0.0891,0.107458 -0.0419,0.06553 -0.0917,0.120562 -0.16512,0.152013 -0.0576,0.02357 -0.0707,0.07338 -0.0261,0.112698 0.0314,0.02883 0.0314,0.06553 0.0288,0.102216 0,0.0131 -0.0131,0.02883 -0.0263,0.03669 -0.0236,0.01833 -0.0471,0.0131 -0.0682,-0.0026 -0.0446,-0.03145 -0.0944,-0.04456 -0.14939,-0.0498 -0.0551,-0.0026 -0.11009,0.01834 -0.1625,0 -0.005,0 -0.0131,0 -0.021,0.0026 -0.0707,0.0052 -0.12843,0.03669 -0.19133,0.06814 -0.0288,0.0131 -0.0472,0.03145 -0.0602,0.05766 -0.0157,0.03669 -0.0288,0.07339 -0.0157,0.112702 0.005,0.0131 0.005,0.02622 0.008,0.03931 -0.0366,0.03669 -0.0786,0.02883 -0.11793,0.02098 -0.0419,-0.0078 -0.0812,-0.0078 -0.12057,0.0053 -0.0262,0.0078 -0.0393,0.02098 -0.0471,0.04718 -0.0157,0.04456 -0.0183,0.04717 -0.0629,0.02883 -0.0419,-0.01834 -0.0865,-0.02622 -0.13367,-0.02883 -0.0472,0 -0.0812,0.01834 -0.10222,0.05766 -0.0341,0.06028 -0.0419,0.120565 -0.008,0.180844 0.0105,0.02098 0.0236,0.03932 0.0314,0.06028 0.0105,0.02098 0.005,0.04456 -0.0157,0.05504 -0.0787,0.04456 -0.15725,0.09435 -0.24113,0.131045 -0.0472,0.02357 -0.0917,0.0498 -0.13104,0.08387 -0.0419,0.03669 -0.0419,0.03669 -0.0786,0 -0.005,-0.0026 -0.0105,-0.0052 -0.0157,-0.01048 0.003,0.0629 0.005,0.06553 0.0524,0.08125 0.0498,0.01572 0.0682,0.03932 0.0682,0.09698 0,0.02883 0.0131,0.04193 0.0446,0.05504 0,-0.02622 -0.003,-0.04456 -0.005,-0.06814 0.021,-0.0078 0.0419,-0.0131 0.0603,-0.02357 0.0314,-0.01572 0.0655,-0.02883 0.0943,-0.0498 0.0419,-0.03408 0.0786,-0.07862 0.12056,-0.115321 0.0367,-0.03407 0.0787,-0.0629 0.11794,-0.09435 0.0157,0.0131 0.0288,0.02357 0.0419,0.03407 0.0157,0.0078 0.0315,0.01834 0.0472,0.02098 0.0786,0.01048 0.14153,-0.01834 0.19133,-0.08387 0.0236,-0.03408 0.0341,-0.07076 0.0393,-0.110077 0.005,-0.03932 0.0131,-0.04456 0.0524,-0.03932 0.0315,0.0026 0.0551,-0.0078 0.0734,-0.03408 0.0157,-0.0236 0.0288,-0.04717 0.0419,-0.07077 0.021,-0.03669 0.0315,-0.03932 0.0734,-0.02098 0.0341,0.01572 0.0734,0.02883 0.11007,0.03145 0.097,0.01048 0.18347,-0.02883 0.26471,-0.07601 0.0734,-0.04456 0.14154,-0.104835 0.2123,-0.157254 0.0131,-0.0078 0.0288,-0.01572 0.0419,-0.01572 0.0341,0 0.0707,0.0026 0.10484,0 0.0734,0 0.13891,-0.03145 0.1887,-0.08125 0.10222,-0.102216 0.18871,-0.214914 0.25161,-0.345959 0.076,-0.162496 0.1494,-0.330236 0.24637,-0.482248 0.0315,-0.0498 0.0629,-0.09959 0.10221,-0.14415 0.0341,-0.03932 0.0682,-0.07862 0.10222,-0.11794 0.0261,-0.03145 0.0551,-0.0629 0.076,-0.09698 0.0419,-0.07077 0.10483,-0.104838 0.18608,-0.110079 0.0393,-0.0026 0.0734,0.01834 0.076,0.0498 0.003,0.06028 0.0367,0.08911 0.0865,0.112699 0.0393,0.01572 0.076,0.03408 0.11794,0.05242 -0.021,0.0498 -0.0367,0.09959 -0.0577,0.144149 -0.0393,0.08387 -0.0786,0.165118 -0.11795,0.246366 -0.0472,0.09698 -0.0943,0.196568 -0.14415,0.29354 -0.0419,0.07862 -0.0891,0.154635 -0.12842,0.235883 -0.0655,0.131045 -0.12842,0.264711 -0.19133,0.395756 -0.0419,0.08911 -0.0865,0.178223 -0.1258,0.267331 -0.0446,0.0996 -0.0865,0.199191 -0.12843,0.301407 -0.0314,0.07601 -0.0629,0.152012 -0.0917,0.228019 -0.0105,0.02622 -0.0236,0.03931 -0.0524,0.04456 -0.0236,0.0052 -0.0471,0.01833 -0.0655,0.03145 -0.0707,0.04718 -0.13891,0.09435 -0.20968,0.14415 -0.0471,0.03408 -0.0996,0.06553 -0.14152,0.104835 -0.0472,0.04456 -0.0812,0.0996 -0.0812,0.16774 0,0.02622 -0.0131,0.04456 -0.0341,0.05504 -0.0183,0.01048 -0.0366,0.01572 -0.0551,0.02357 -0.0865,0.02883 -0.14678,0.08387 -0.18609,0.167739 -0.0157,0.03408 -0.0367,0.06553 -0.0551,0.09698 -0.0263,0.0498 -0.0551,0.09697 -0.076,0.146771 -0.0839,0.188705 -0.15201,0.382652 -0.21753,0.576598 -0.005,0.01572 -0.008,0.03408 -0.0105,0.05242 -0.005,0.02098 -0.008,0.04193 -0.0131,0.0629 -0.0157,0.04717 -0.0341,0.09435 -0.0498,0.14153 -0.0157,0.04455 -0.0341,0.08911 -0.0393,0.133667 -0.008,0.06028 -0.021,0.11794 -0.0472,0.172978 -0.0183,0.03932 -0.0367,0.08125 -0.0393,0.120562 -0.0105,0.120562 -0.0629,0.2254 -0.11008,0.332855 -0.0105,0.02098 -0.0183,0.03669 -0.005,0.05766 0.0341,0.05766 0.0288,0.120562 0.0288,0.186083 -0.0131,0 -0.0263,0 -0.0341,-0.0052 -0.0341,-0.01834 -0.0682,-0.02357 -0.10745,-0.02357 -0.0183,0 -0.0341,-0.0053 -0.0524,-0.0053 -0.0498,0 -0.10222,-0.0026 -0.15202,-0.0052 -0.005,0 -0.0105,0 -0.0157,0.0052 -0.0603,0.02622 -0.12319,0.03408 -0.18609,0.0498 -0.0629,0.01574 -0.11531,0.0498 -0.12842,0.120562 -0.003,0.02098 -0.0131,0.03408 -0.0341,0.03669 -0.0446,0.0052 -0.0892,0.02098 -0.13628,0.0052 -0.0603,-0.01834 -0.12056,-0.0078 -0.16512,0.04717 -0.008,0.0078 -0.0131,0.01572 -0.021,0.02357 -0.0131,0.01572 -0.0262,0.01572 -0.0419,0.01048 -0.0131,-0.0052 -0.0288,-0.0131 -0.0446,-0.01834 -0.0865,-0.03408 -0.16249,-0.0053 -0.23063,0.05504 -0.0288,0.02622 -0.0524,0.05242 -0.0524,0.09435 0,0.01048 -0.0131,0.02883 -0.0236,0.03145 -0.0341,0.01048 -0.0576,0.03145 -0.0865,0.0498 -0.0682,0.03931 -0.14154,0.07076 -0.20968,0.110077 -0.0524,0.02884 -0.10483,0.05504 -0.13891,0.107457 -0.008,0.01048 -0.0263,0.01574 -0.0393,0.02357 -0.0341,0.01834 -0.0734,0.03145 -0.10484,0.05242 -0.0262,0.01574 -0.0419,0.04193 -0.0367,0.08649 0.021,-0.01834 0.0315,-0.03408 0.0472,-0.04456 0.0157,-0.0078 0.0341,-0.01048 0.0551,-0.01834 0,0.05766 -0.0524,0.09698 -0.0367,0.157255 0.0105,-0.0131 0.0183,-0.02098 0.0236,-0.03145 0.021,-0.04456 0.0602,-0.06553 0.10221,-0.08125 0.0341,-0.0131 0.0682,-0.02357 0.10222,-0.02883 0.0602,-0.0131 0.11269,-0.04193 0.14939,-0.09173 0.0524,-0.07338 0.1258,-0.11532 0.20181,-0.157254 0.0472,-0.02883 0.0892,-0.01574 0.11793,0.02882 0.0157,0.02357 0.0288,0.04718 0.0419,0.07077 0.0288,0.05504 0.10483,0.09173 0.16512,0.07601 0.0787,-0.01834 0.14938,-0.09959 0.15986,-0.178222 0,-0.01572 0.005,-0.03145 0.0105,-0.04718 0.0131,0 0.021,-0.0052 0.0288,-0.0026 0.0498,0.0078 0.0812,-0.01834 0.10746,-0.05766 0.008,-0.0131 0.0131,-0.02883 0.021,-0.04193 0.0157,-0.02883 0.0314,-0.05504 0.076,-0.06814 0.005,0.01834 0.008,0.03408 0.0131,0.04979 0.0131,0.03932 0.0419,0.06028 0.0839,0.05766 0.0367,0 0.076,-0.0026 0.11007,-0.01048 0.12581,-0.02883 0.24375,-0.08649 0.35907,-0.14415 0.0576,-0.02883 0.10746,-0.07338 0.13105,-0.138908 0.003,-0.0078 0.0131,-0.01572 0.021,-0.02622 0.021,0.01574 0.0367,0.03145 0.0576,0.03932 0.021,0.0078 0.0446,0.0052 0.0682,0.01048 0.0288,0.0078 0.0524,0 0.076,-0.0131 0.0734,-0.04456 0.13105,-0.104838 0.15988,-0.183464 0.0419,-0.115321 0.0917,-0.230639 0.10746,-0.351201 0.008,-0.06028 0.0236,-0.123184 0.0315,-0.183464 0.0105,-0.07077 0.0183,-0.144149 0.0261,-0.214914 0.005,-0.04718 0,-0.09435 0.005,-0.14153 0.003,-0.04717 0.0157,-0.09435 0.0157,-0.141528 0,-0.110079 0.021,-0.217536 0.0419,-0.324994 0.021,-0.110076 0.0576,-0.217534 0.0917,-0.322372 0.0262,-0.07862 0.0551,-0.157254 0.0865,-0.23588 0.008,-0.02098 0.021,-0.04456 0.0393,-0.05504 0.0393,-0.02883 0.0812,-0.05242 0.12581,-0.07339 0.0393,-0.02098 0.0865,-0.0131 0.11532,0.02098 0.0236,0.02883 0.0524,0.04717 0.089,0.05242 0.0707,0.0078 0.0656,0.0078 0.0656,0.09173 0,0.03145 -0.008,0.0629 -0.0131,0.09435 0,0.0131 -0.005,0.0236 -0.005,0.03669 -0.008,0.110076 -0.0131,0.217534 -0.0183,0.327613 -0.003,0.0498 -0.0105,0.09959 -0.008,0.146772 0.003,0.05504 0.0131,0.110076 0.021,0.167737 0.008,0.07601 0.0105,0.152013 0.021,0.225397 0.0157,0.09173 0.0367,0.180842 0.0629,0.269953 0.0183,0.07077 0.0472,0.138908 0.0682,0.209673 0.0341,0.115321 0.0917,0.222778 0.14677,0.327613 0.0105,0.02098 0.0183,0.04193 0.0314,0.06028 0.0446,0.06553 0.0917,0.125804 0.13104,0.193947 0.0393,0.06814 0.0996,0.120562 0.1494,0.178222 0.0446,0.0498 0.097,0.08911 0.14676,0.133667 0.0262,0.02098 0.0603,0.03145 0.0812,0.05504 0.0314,0.03408 0.0655,0.0498 0.11009,0.0498 0.0105,0 0.0314,0.0131 0.0314,0.01834 0,0.02883 0.0183,0.03408 0.0367,0.04456 0.0446,0.02622 0.097,0.04193 0.13104,0.08387 0.005,0.0052 0.0158,0.0078 0.0236,0.0131 0.0734,0.03145 0.15201,0.05242 0.21754,0.104838 0.021,0.01572 0.0524,0.02096 0.0786,0.02882 0.0263,0.0078 0.0551,0.01048 0.0812,0.01833 0.021,0.0052 0.0419,0.01574 0.0603,0.02622 0.0472,0.02622 0.0892,0.0629 0.15201,0.04979 0.0131,0 0.0263,0.0053 0.0393,0.01048 0.0288,0.01572 0.0577,0.03145 0.0892,0.04717 0.021,0.01048 0.0419,0.01834 0.0655,0.0078 0.0105,-0.0052 0.0288,0 0.0393,0.0026 0.10746,0.05242 0.22016,0.09698 0.34596,0.08649 -0.0131,-0.01048 -0.0263,-0.02357 -0.0393,-0.03407 0.0157,-0.02622 0.0314,-0.01834 0.0471,-0.01048 0.0576,0.02622 0.11532,0.0498 0.17298,0.07601 0.0314,0.0131 0.0602,0.01572 0.0943,0.0052 0.003,-0.02098 0.005,-0.03932 0.0314,-0.04193 0.0131,0 0.0262,-0.01572 0.0419,-0.02357 0.0105,-0.0052 0.0262,-0.01048 0.0341,-0.0052 0.008,0.0052 0.0131,0.02098 0.0131,0.03145 0,0.01572 -0.008,0.02883 -0.0131,0.05242 0.0314,-0.0052 0.0576,-0.0078 0.0891,-0.01048 -0.0105,-0.01572 -0.0183,-0.02622 -0.0288,-0.04193 0.0314,-0.0131 0.0577,-0.02357 0.0839,-0.03145 0.0183,-0.0052 0.0367,0 0.0419,0.02098 0.005,0.01834 -0.0105,0.02357 -0.0262,0.02883 -0.005,0 -0.0105,0.0052 -0.0236,0.0131 0.0498,0.02622 0.0943,0 0.14154,0.0078 -0.0183,-0.04718 -0.0183,-0.04718 0.0288,-0.05504 0.0236,0.05766 0.0288,0.06028 0.0812,0.0236 0,-0.0053 -0.005,-0.0131 -0.005,-0.01834 0.003,-0.01048 0.008,-0.02622 0.0131,-0.02883 0.0105,-0.0026 0.0263,0.0026 0.0367,0.0078 0.005,0 0.005,0.01572 0.0105,0.01572 0.0105,0.0052 0.0262,0.01048 0.0366,0.01048 0.0183,0 0.021,-0.01572 0.0157,-0.03145 0,-0.0052 0,-0.01048 0,-0.01834 z m -1.00904,-8.14054 c 0,0 0.008,-0.0052 0.0105,-0.0052 0,-0.01048 0,-0.02098 -0.0263,-0.02357 0.005,0.01048 0.0105,0.02098 0.0157,0.02883 z m 4.7019,1.703593 c 0,0 -0.008,-0.01572 -0.008,-0.01572 -0.005,0 -0.0131,0 -0.0183,0.0052 0,0 0,0.01048 0,0.0131 0.008,0 0.0157,0 0.0262,0 z m -0.75482,1.847737 c 0,0 -0.0131,-0.0131 -0.0157,-0.0131 0,0 -0.008,0 -0.0105,0 0,0.0052 0,0.0078 0,0.0131 0.005,0 0.008,0 0.0263,0 z"
       style="fill:none;stroke:#ffffff;stroke-width:0.26209;stroke-miterlimit:10" />
  </g>
</svg>
