<?xml version="1.0" encoding="UTF-8" standalone="no"?>
<!-- Created with Inkscape (http://www.inkscape.org/) -->

<svg
   width="79"
   height="79"
   viewBox="0 0 20.902084 20.902083"
   version="1.1"
   id="svg1"
   xmlns="http://www.w3.org/2000/svg"
   xmlns:svg="http://www.w3.org/2000/svg">
  <defs
     id="defs1" />
  <g
     id="layer1"
     transform="translate(-206.63964,-65.616679)">
    <g
       id="g20"
       transform="matrix(0.2836187,0,0,0.2836187,205.88915,42.307529)">
      <path
         class="cls-3"
         d="m 46.93,100.67 c 0.6,0.12 1.21,0.26 1.83,0.41 1.57,0.41 3.78,1.11 6.24,2.36 6.88,3.49 10.39,8.71 10.39,8.71 0.98,1.45 2.35,3.85 3.24,7.19 0.54,0.13 1.56,0.44 2.49,1.3 0.31,0.29 1.89,1.73 1.74,3.84 -0.12,1.81 -1.42,2.93 -1.97,3.41 -0.91,0.78 -1.85,1.13 -2.42,1.29 -0.47,1.64 -1.06,3.04 -1.65,4.21 -0.11,0.21 -0.77,1.51 -1.69,2.85 -3.76,5.43 -9.61,8.27 -11.15,8.97 -1.21,0.55 -2.17,0.9 -2.82,1.13 -4.06,1.44 -7.3,1.83 -8.12,1.92 -1.87,0.2 -4.37,0.32 -7.33,0 -2.03,-0.25 -4.9,-0.75 -8.23,-1.8 -0.95,-0.3 -2,-0.63 -3.16,-1.13 -5.45,-2.35 -8.75,-6.28 -9.82,-7.64 -2.57,-3.27 -3.83,-6.53 -4.47,-8.75 -0.49,-0.13 -1.29,-0.41 -2.07,-1.07 -0.19,-0.16 -1.84,-1.6 -1.84,-3.68 0,-2.01 1.56,-3.95 3.87,-4.67 0.75,-2.92 1.87,-5.08 2.73,-6.49 4.2,-6.88 10.82,-9.67 13.41,-10.72 0.65,-0.26 2.64,-1.04 5.45,-1.64 0.36,-0.08 0.75,-0.15 1.16,-0.23"
         id="path2"
         style="fill:none;stroke:#ffffff;stroke-width:1.79px;stroke-miterlimit:10" />
      <g
         id="g6">
        <path
           class="cls-3"
           d="m 64.04,132.8 c -0.76,-6.21 -2.34,-12.29 -3.47,-18.45 -0.03,-0.17 -0.12,-0.67 -0.5,-1.09 -0.66,-0.71 -1.75,-0.69 -2.13,-0.69 -1.71,0.02 -8.7,-0.01 -18.3,0 -9.71,-0.03 -16.8,0 -18.53,0 -0.35,0 -1.3,0 -1.92,0.63 -0.45,0.45 -0.52,1.03 -0.56,1.23 -2.05,10.07 -3.5,17.46 -3.61,18.36 -0.03,0.21 -0.08,0.67 0.16,1.13 0.07,0.13 0.21,0.35 0.68,0.7 0.32,0.24 0.82,0.56 1.52,0.81 0.81,0.29 1.44,0.46 1.5,0.47 5.79,1.32 9.14,1.69 9.14,1.69 2.54,0.28 4.48,0.37 6.05,0.44 0.95,0.04 2.79,0.11 5.47,0.1 3.92,-0.01 7.2,-0.02 11.53,-0.5 4.55,-0.67 7.93,-1.31 9.1,-1.65 0.6,-0.18 1.37,-0.48 1.53,-0.55 0.61,-0.25 1.06,-0.47 1.52,-0.81 0.47,-0.35 0.61,-0.57 0.68,-0.7 0.25,-0.47 0.18,-0.94 0.16,-1.13 z"
           id="path3"
           style="fill:none;stroke:#ffffff;stroke-width:1.79px;stroke-miterlimit:10" />
        <g
           id="g4">
          <ellipse
             class="cls-5"
             cx="29.049999"
             cy="126.78"
             rx="0.81"
             ry="3.03"
             id="ellipse3"
             style="fill:#ffffff;stroke-width:0px" />
          <path
             class="cls-5"
             d="m 29.07,119.99 c -3.59,0 -6.49,2.91 -6.49,6.49 0,3.58 2.91,6.49 6.49,6.49 3.58,0 6.49,-2.91 6.49,-6.49 0,-3.58 -2.91,-6.49 -6.49,-6.49 z m -0.02,12.16 c -3.01,0 -5.45,-2.44 -5.45,-5.45 0,-3.01 2.44,-5.45 5.45,-5.45 3.01,0 5.45,2.44 5.45,5.45 0,3.01 -2.44,5.45 -5.45,5.45 z"
             id="path4"
             style="fill:#ffffff;stroke-width:0px" />
        </g>
        <g
           id="g5">
          <ellipse
             class="cls-5"
             cx="50.59"
             cy="126.78"
             rx="0.81"
             ry="3.03"
             id="ellipse4"
             style="fill:#ffffff;stroke-width:0px" />
          <path
             class="cls-5"
             d="m 44.07,126.48 c 0,3.59 2.91,6.49 6.49,6.49 3.59,0 6.49,-2.91 6.49,-6.49 0,-3.58 -2.91,-6.49 -6.49,-6.49 -3.59,0 -6.49,2.91 -6.49,6.49 z m 1.06,0.22 c 0,-3.01 2.44,-5.45 5.45,-5.45 3.01,0 5.45,2.44 5.45,5.45 0,3.01 -2.44,5.45 -5.45,5.45 -3.01,0 -5.45,-2.44 -5.45,-5.45 z"
             id="path5"
             style="fill:#ffffff;stroke-width:0px" />
        </g>
        <circle
           class="cls-5"
           cx="38.139999"
           cy="134.3"
           r="0.56"
           id="circle5"
           style="fill:#ffffff;stroke-width:0px" />
        <circle
           class="cls-5"
           cx="40.919998"
           cy="134.3"
           r="0.56"
           id="circle6"
           style="fill:#ffffff;stroke-width:0px" />
      </g>
      <g
         id="g13">
        <g
           id="g8">
          <circle
             class="cls-5"
             cx="37.860001"
             cy="145.17999"
             r="1.02"
             id="circle7"
             style="fill:#ffffff;stroke-width:0px" />
          <circle
             class="cls-5"
             cx="37.810001"
             cy="145.13"
             r="0.97000003"
             id="circle8"
             style="fill:#ffffff;stroke-width:0px" />
        </g>
        <g
           id="g10">
          <circle
             class="cls-5"
             cx="39.830002"
             cy="145.22"
             r="0.56999999"
             id="circle9"
             style="fill:#ffffff;stroke-width:0px" />
          <circle
             class="cls-5"
             cx="39.799999"
             cy="145.19"
             r="0.54000002"
             id="circle10"
             style="fill:#ffffff;stroke-width:0px" />
        </g>
        <g
           id="g12">
          <circle
             class="cls-5"
             cx="41.209999"
             cy="145.22"
             r="0.56999999"
             id="circle11"
             style="fill:#ffffff;stroke-width:0px" />
          <circle
             class="cls-5"
             cx="41.18"
             cy="145.19"
             r="0.54000002"
             id="circle12"
             style="fill:#ffffff;stroke-width:0px" />
        </g>
      </g>
      <g
         id="g19">
        <g
           id="g14">
          <path
             class="cls-5"
             d="m 48.68,101.56 c 0,0.86 -1.31,1.63 -1.71,1.87 -0.14,0.08 -0.64,0.37 -1.8,0.69 -2.05,0.57 -3.84,0.58 -5.08,0.59 -0.06,0 -0.25,0 -0.51,0 -0.97,-0.02 -5.95,-0.13 -8.02,-1.93 -0.71,-0.62 -0.73,-1.14 -0.73,-1.25 0,-0.8 0.86,-1.41 1.17,-1.64 0.5,-0.36 1,-0.51 1.32,-0.59 v 0.61 h -0.04 c -0.09,0.03 -0.22,0.08 -0.36,0.18 -0.07,0.05 -0.3,0.22 -0.39,0.51 0,0 -0.1,0.28 0,0.63 0.12,0.4 0.88,1.18 3.67,1.61 1.02,0.16 1.95,0.21 3.71,0.2 3.7,-0.04 5.52,-0.32 6.64,-1.24 0.25,-0.21 0.72,-0.61 0.66,-1.08 -0.06,-0.47 -0.63,-0.75 -0.8,-0.82 0,-0.15 0.01,-0.3 0.02,-0.45 0.32,0.14 0.78,0.39 1.24,0.79 0.6,0.52 1,0.87 1.01,1.34 z"
             id="path13"
             style="fill:#ffffff;stroke-width:0px" />
          <path
             class="cls-5"
             d="m 46.55,101.78 c -1.12,0.92 -2.94,1.21 -6.64,1.24 -1.77,0.02 -2.69,-0.04 -3.71,-0.2 -2.78,-0.43 -3.55,-1.21 -3.67,-1.61 -0.1,-0.35 0,-0.63 0,-0.63 0.1,-0.29 0.32,-0.45 0.39,-0.51 0.14,-0.1 0.27,-0.15 0.36,-0.18 h 0.04 v 1.21 c 0.01,0.05 0.03,0.13 0.08,0.21 0.11,0.18 0.28,0.27 0.37,0.32 0.58,0.29 0.97,0.39 0.97,0.39 0.54,0.14 0.81,0.21 1.24,0.28 0.6,0.1 1.13,0.16 1.65,0.2 0.56,0.04 1.07,0.05 2.07,0.06 1.64,0.02 2.15,0 2.46,-0.02 0.6,-0.04 0.99,-0.09 1.27,-0.13 0.18,-0.03 0.34,-0.06 0.49,-0.09 0.2,-0.04 0.44,-0.09 0.81,-0.19 0.41,-0.11 1,-0.28 1.35,-0.51 0.09,-0.06 0.21,-0.15 0.29,-0.3 0.04,-0.08 0.06,-0.16 0.07,-0.21 v -1.23 c 0.17,0.08 0.74,0.35 0.8,0.82 0.06,0.47 -0.41,0.87 -0.66,1.08 z"
             id="path14"
             style="fill:#ffffff;stroke-width:0px" />
        </g>
        <g
           id="g18">
          <rect
             class="cls-3"
             x="33.32"
             y="89.610001"
             width="13.1"
             height="11.49"
             id="rect14"
             style="fill:none;stroke:#ffffff;stroke-width:1.79px;stroke-miterlimit:10" />
          <path
             class="cls-5"
             d="m 46.41,101.1 c 0,0 -0.02,0.12 -0.07,0.21 -0.08,0.15 -0.2,0.24 -0.29,0.3 -0.35,0.23 -0.93,0.4 -1.35,0.51 -0.37,0.1 -0.6,0.15 -0.81,0.19 -0.15,0.03 -0.31,0.06 -0.49,0.09 -0.29,0.05 -0.67,0.1 -1.27,0.13 -0.31,0.02 -0.82,0.05 -2.46,0.02 -1,-0.01 -1.51,-0.02 -2.07,-0.06 -0.52,-0.04 -1.05,-0.09 -1.65,-0.2 -0.42,-0.07 -0.69,-0.14 -1.24,-0.28 0,0 -0.39,-0.1 -0.97,-0.39 -0.09,-0.05 -0.26,-0.13 -0.37,-0.32 -0.05,-0.08 -0.07,-0.16 -0.08,-0.21 h 13.1 z"
             id="path15"
             style="fill:#ffffff;stroke-width:0px" />
          <rect
             class="cls-5"
             x="36.889999"
             y="93.550003"
             width="1.96"
             height="2.46"
             id="rect15"
             style="fill:#ffffff;stroke-width:0px" />
          <rect
             class="cls-5"
             x="40.889999"
             y="93.550003"
             width="1.96"
             height="2.46"
             id="rect16"
             style="fill:#ffffff;stroke-width:0px" />
          <rect
             class="cls-5"
             x="38.200001"
             y="97.470001"
             width="2.03"
             height="1.34"
             id="rect17"
             style="fill:#ffffff;stroke-width:0px" />
          <rect
             class="cls-5"
             x="40.240002"
             y="97.470001"
             width="1.34"
             height="1.34"
             id="rect18"
             style="fill:#ffffff;stroke-width:0px" />
        </g>
      </g>
    </g>
  </g>
</svg>
