<?xml version="1.0" encoding="UTF-8" standalone="no"?>
<!-- Created with Inkscape (http://www.inkscape.org/) -->

<svg
   width="79"
   height="79"
   viewBox="0 0 20.902084 20.902084"
   version="1.1"
   id="svg1"
   xmlns="http://www.w3.org/2000/svg"
   xmlns:svg="http://www.w3.org/2000/svg">
  <defs
     id="defs1" />
  <g
     id="layer1"
     transform="translate(-128.32296,-121.70819)">
    <path
       class="cls-5"
       d="m 132.47022,127.56363 5.18802,3.01918 c 0.94271,0.5446 0.1146,1.97457 -0.82805,1.42997 l -5.18802,-3.01918 c -0.93951,-0.5446 -0.11459,-1.97138 0.82805,-1.42997 m 12.57992,0.0159 -5.24535,2.97141 c -0.9427,0.5446 -0.11784,1.97457 0.82486,1.43316 l 5.24535,-2.97459 c 0.94271,-0.54461 0.11785,-1.97458 -0.82168,-1.42998 m -6.30588,13.17867 c -0.45542,0 -0.82486,-0.36944 -0.82486,-0.82486 v -6.032 c 0,-0.45543 0.36944,-0.82486 0.82486,-0.82486 0.45543,0 0.82805,0.36943 0.82805,0.82486 v 6.032 c 0,0.45542 -0.36944,0.82486 -0.82805,0.82486 m 7.15622,-5.47785 -2.51916,-1.42996 c -0.93951,-0.5446 -1.76756,0.88855 -0.82486,1.42996 l 2.51916,1.42997 c 0.94271,0.54461 1.76757,-0.88537 0.82486,-1.42997 m -14.22008,0.0509 2.45229,-1.48093 c 0.94269,-0.5446 1.77074,0.88537 0.82803,1.42996 l -2.45228,1.47775 c -0.94269,0.5446 -1.76755,-0.88537 -0.82804,-1.42678 m 6.23263,-10.94613 v 2.89497 c 0,0.45861 0.36944,0.82486 0.82486,0.82486 0.45543,0 0.82486,-0.36943 0.82486,-0.82486 v -2.89497 c 0,-0.45543 -0.36943,-0.82486 -0.82486,-0.82486 -0.45542,0 -0.82486,0.36943 -0.82486,0.82486"
       id="path83"
       style="fill:#ffffff;stroke-width:0px" />
  </g>
</svg>
