<?xml version="1.0" encoding="UTF-8" standalone="no"?>
<!-- Created with Inkscape (http://www.inkscape.org/) -->

<svg
   width="79"
   height="79"
   viewBox="0 0 20.902084 20.902083"
   version="1.1"
   id="svg1"
   xmlns="http://www.w3.org/2000/svg"
   xmlns:svg="http://www.w3.org/2000/svg">
  <defs
     id="defs1" />
  <g
     id="layer1"
     transform="translate(-139.43547,-51.858347)">
    <path
       class="cls-5"
       d="m 154.71633,59.216943 c -0.0839,0 -0.16541,0.01677 -0.24212,0.05034 l -4.83768,-5.127735 h 0.71439 l 3.25788,3.454451 c -0.15822,0.294863 -0.0479,0.659247 0.24691,0.817466 0.29487,0.158218 0.65925,0.04795 0.81747,-0.246918 0.15822,-0.294864 0.0479,-0.659246 -0.24692,-0.817465 -0.0887,-0.04795 -0.18699,-0.07191 -0.28767,-0.07191 -0.0695,0 -0.13904,0.01199 -0.20377,0.03596 l -2.98938,-3.171574 h 0.72158 l 1.575,1.670888 c -0.15823,0.294864 -0.0479,0.659246 0.24692,0.817466 0.29486,0.158219 0.65924,0.04795 0.81746,-0.246917 0.15822,-0.294864 0.0479,-0.659246 -0.24692,-0.817466 -0.0887,-0.04795 -0.18699,-0.07191 -0.28767,-0.07191 -0.0695,0 -0.13665,0.01199 -0.20137,0.03596 l -1.71884,-1.817123 h -2.85274 l -2.55787,2.706505 v 1.908219 l -0.82945,-0.877397 c 0.13425,-0.306849 -0.003,-0.664041 -0.30924,-0.798288 -0.30685,-0.134246 -0.66405,0.0024 -0.79829,0.309247 -0.13425,0.306849 0.003,0.66404 0.30925,0.798287 0.15821,0.06952 0.34041,0.06952 0.49623,-0.0024 l 7.70959,8.169859 v 2.54349 h -0.45548 v -2.243834 l -6.37672,-6.760271 c 0.16541,-0.290066 0.0647,-0.659244 -0.22534,-0.824656 -0.29006,-0.16541 -0.65924,-0.06473 -0.82465,0.225343 -0.16542,0.290068 -0.0647,0.659246 0.22533,0.824656 0.0911,0.05274 0.19658,0.07911 0.30206,0.07911 0.0647,0 0.12706,-0.0096 0.18698,-0.02877 l 6.28322,6.659585 v 0.731162 l -5.58321,-5.92128 c 0.0408,-0.0839 0.0623,-0.175001 0.0647,-0.268494 0,-0.333219 -0.27088,-0.606507 -0.60411,-0.606507 -0.33322,0 -0.6065,0.270891 -0.6065,0.60411 0,0.333219 0.26849,0.60411 0.60171,0.606507 0.0767,0 0.15343,-0.01439 0.22774,-0.04315 l 5.89726,6.252052 v 0.714383 h -3.3298 v -0.94452 c 0.31165,-0.119864 0.46747,-0.467466 0.34761,-0.779108 -0.11986,-0.311645 -0.46747,-0.467466 -0.77912,-0.347604 -0.31163,0.119864 -0.46745,0.467466 -0.34759,0.779108 0.0623,0.160618 0.18698,0.287671 0.34759,0.347604 v 0.942123 h -0.66643 v -1.886643 c 0.31404,-0.117465 0.47226,-0.465069 0.3548,-0.779111 -0.11747,-0.314039 -0.46508,-0.472257 -0.77911,-0.354793 -0.31404,0.117467 -0.47226,0.465069 -0.3548,0.779111 0.0623,0.163012 0.19178,0.292465 0.3548,0.354793 v 1.886643 h -0.62809 v -2.862329 c 0.31405,-0.117464 0.47226,-0.465066 0.3548,-0.779107 -0.11747,-0.314041 -0.46507,-0.472262 -0.77911,-0.354795 -0.31404,0.117465 -0.47226,0.465068 -0.35479,0.779109 0.0623,0.163016 0.19177,0.292468 0.35479,0.354793 v 3.128426 l 3.59349,2.176698 h 2.52671 l 2.00171,-2.119165 v -3.900341 l -5.04143,-5.341092 v -2.852691 l 1.07157,-1.133904 3.78767,4.013009 c -0.036,0.07911 -0.0551,0.165412 -0.0551,0.254111 0,0.333219 0.27088,0.604108 0.60411,0.604108 0.33322,0 0.60411,-0.270891 0.60411,-0.604108 0,-0.333221 -0.27089,-0.60411 -0.60411,-0.60411 v 0 m -0.57295,-1.685272 c 0.19418,0 0.35,0.155822 0.35,0.35 0,0.194179 -0.15582,0.35 -0.35,0.35 -0.19417,0 -0.35,-0.155823 -0.35,-0.35 0,0 0,0 0,0 0,-0.191782 0.15583,-0.347603 0.34761,-0.347603 0,0 0,0 0,0 m -0.37158,-1.781163 c 0.19418,0 0.35,0.153424 0.3524,0.347603 0,0.194178 -0.15342,0.349999 -0.34761,0.352396 -0.19417,0 -0.35,-0.153424 -0.35239,-0.347602 0,0 0,0 0,-0.0024 0,-0.191782 0.15582,-0.347603 0.3476,-0.347603 m -8.71403,1.800342 c -0.19419,0 -0.35,-0.155823 -0.35,-0.35 0,-0.19418 0.15581,-0.35 0.35,-0.35 0.19417,0 0.35,0.15582 0.35,0.35 0,0 0,0 0,0 0,0.191782 -0.15583,0.347603 -0.34761,0.347603 0,0 0,0 0,0 m 0.60411,1.956165 c -0.19418,0 -0.35,-0.155822 -0.35,-0.350002 0,-0.194175 0.15582,-0.349999 0.35,-0.349999 0.19418,0 0.35,0.155824 0.35,0.349999 0,0 0,0 0,0 0,0.191783 -0.15582,0.347604 -0.3476,0.347604 0,0 0,0 0,0 m 0.3428,1.778765 c -0.19417,0 -0.34999,-0.155821 -0.34999,-0.349999 0,-0.194177 0.15582,-0.350001 0.34999,-0.350001 0.19419,0 0.35,0.155824 0.35,0.350001 0,0.191781 -0.15581,0.349999 -0.34759,0.349999 0,0 0,0 0,0 m 0.0743,3.744519 c 0,-0.19418 0.15342,-0.349999 0.34761,-0.352398 0.19417,0 0.35,0.153426 0.35239,0.347604 0,0.194178 -0.15342,0.349999 -0.3476,0.352396 0,0 0,0 -0.003,0 -0.19178,0 -0.34759,-0.155821 -0.34759,-0.347602 0,0 0,0 0,0 m 1.54383,-8.469517 v 3.015753 l -0.75274,-0.798288 v -2.191095 l 2.24143,-2.373286 0.36439,0.385958 -1.85308,1.960958 m 0.60651,10.394517 c 0,-0.191783 0.15821,-0.347604 0.34999,-0.347604 0.19179,0 0.34761,0.158221 0.34761,0.350001 0,0.191781 -0.15582,0.347602 -0.34761,0.347602 -0.19178,0 -0.3476,-0.155821 -0.3476,-0.347602 0,0 0,0 0,0 m -1.09554,-0.937329 c 0,-0.194177 0.15582,-0.349998 0.34759,-0.349998 0.19419,0 0.35001,0.155821 0.35001,0.347601 0,0.194178 -0.15582,0.350002 -0.34761,0.350002 0,0 0,0 0,0 -0.19178,0 -0.34999,-0.155824 -0.34999,-0.347605 0,0 0,0 0,0 m 5.02225,4.463685 h -2.22465 l -0.95412,-0.577728 h 3.72535 z m 0.95411,-1.006837 h -4.84246 l -0.94931,-0.575342 h 6.33356 z m -4.24762,-12.964424 v 3.197943 c 1.68048,1.778767 3.35857,3.559929 5.03905,5.341092 v 3.406505 h -0.46508 v -2.716094 l -5.39383,-5.722258 v -3.293788 l 1.71883,-1.819519 0.30925,0.328424 -1.20582,1.280136 z m 5.83972,3.65582 c -0.19177,0 -0.3476,-0.155823 -0.3476,-0.347604 0,-0.191781 0.15583,-0.347602 0.3476,-0.347602 0.19179,0 0.34761,0.155821 0.34761,0.347602 v 0 c 0,0.191781 -0.15582,0.347604 -0.34761,0.347604"
       id="path1"
       style="fill:#ffffff;stroke-width:0px" />
  </g>
</svg>
