<?xml version="1.0" encoding="UTF-8" standalone="no"?>
<!-- Created with Inkscape (http://www.inkscape.org/) -->

<svg
   width="79"
   height="79"
   viewBox="0 0 20.902083 20.902083"
   version="1.1"
   id="svg1"
   xmlns="http://www.w3.org/2000/svg"
   xmlns:svg="http://www.w3.org/2000/svg">
  <defs
     id="defs1" />
  <g
     id="g2"
     transform="matrix(0.23562018,0,0,0.23562018,1.146672,1.0886738)">
    <path
       class="cls-5"
       d="m 50.98,61.46 c -1.08,0 -1.95,0.87 -1.95,1.95 v 0 c 0,0.14 0.01,0.27 0.04,0.41 l -5.01,4.7 -2.21,-2.21 4.86,-4.57 c 0.97,0.47 2.14,0.06 2.6,-0.91 0.47,-0.97 0.06,-2.14 -0.91,-2.6 -0.97,-0.47 -2.14,-0.06 -2.6,0.91 -0.13,0.27 -0.19,0.56 -0.19,0.85 0,0.09 0,0.18 0,0.27 l -5.07,4.77 -0.7,-0.69 V 30.27 c 1.32,-0.5 2,-1.97 1.5,-3.29 -0.5,-1.32 -1.97,-2 -3.29,-1.5 -1.32,0.5 -2,1.97 -1.5,3.29 0.26,0.69 0.81,1.24 1.5,1.5 v 34.74 l 1.19,1.27 -1.3,1.22 -3.42,-3.41 V 33.48 c 1.34,-0.43 2.08,-1.87 1.65,-3.22 -0.43,-1.34 -1.87,-2.08 -3.22,-1.65 -1.34,0.43 -2.08,1.87 -1.65,3.22 0.23,0.7 0.74,1.27 1.42,1.56 v 31.46 l 3.91,3.9 -1.56,1.47 -5.68,-5.63 V 36.84 c 1.32,-0.5 2,-1.97 1.5,-3.29 -0.5,-1.32 -1.97,-2 -3.29,-1.5 -1.32,0.5 -2,1.97 -1.5,3.29 0.26,0.69 0.81,1.24 1.5,1.5 v 28.5 L 38.53,76.23 50.25,65.22 c 0.24,0.1 0.49,0.15 0.74,0.15 1.08,0.05 1.99,-0.78 2.05,-1.86 0.05,-1.08 -0.78,-1.99 -1.86,-2.05 -0.06,0 -0.12,0 -0.19,0 m -3.43,-2.32 c 0.48,0.01 0.86,0.41 0.85,0.9 -0.01,0.48 -0.41,0.86 -0.9,0.85 -0.47,-0.01 -0.85,-0.4 -0.85,-0.87 0,-0.48 0.38,-0.87 0.86,-0.87 0.01,0 0.02,0 0.03,0 M 37.46,27.91 c 0,-0.82 0.66,-1.48 1.48,-1.48 0.82,0 1.48,0.66 1.48,1.48 0,0.82 -0.66,1.48 -1.48,1.48 -0.81,0 -1.48,-0.66 -1.48,-1.47 0,0 0,0 0,0 m -5.24,3.14 c 0,-0.82 0.66,-1.48 1.48,-1.48 0.82,0 1.48,0.66 1.48,1.48 0,0.82 -0.66,1.48 -1.48,1.48 -0.81,0 -1.48,-0.66 -1.48,-1.47 0,0 0,0 0,0 m 8.31,36.53 2.21,2.2 -1.3,1.22 -2.21,-2.2 z m -2.63,2.47 2.21,2.2 -1.56,1.47 -2.21,-2.21 1.56,-1.47 z M 26.99,34.49 c 0,-0.82 0.66,-1.48 1.48,-1.48 0.82,0 1.48,0.66 1.48,1.48 0,0.82 -0.66,1.48 -1.48,1.48 0,0 0,0 0,0 -0.81,0 -1.47,-0.66 -1.47,-1.47 0,0 0,0 0,0 m 23.97,29.83 c -0.48,0 -0.87,-0.39 -0.87,-0.87 0,-0.48 0.39,-0.87 0.87,-0.87 0.48,0 0.87,0.39 0.87,0.87 v 0 c 0,0.48 -0.38,0.87 -0.87,0.87 0,0 0,0 0,0"
       id="path1"
       style="fill:#ffffff;stroke-width:0px" />
    <path
       class="cls-5"
       d="M 27.48,26.41 28.82,25.12 39.96,14.3 V 3.24 h -6.02 v 9.04 H 31.52 V 8.31 c 1.32,-0.5 1.99,-1.98 1.49,-3.3 -0.5,-1.32 -1.98,-1.99 -3.3,-1.49 -1.32,0.5 -1.99,1.98 -1.49,3.3 0.26,0.68 0.8,1.23 1.49,1.49 v 3.97 h -2.27 v 1.79 h 0.04 V 26.4 Z M 29.14,5.92 c 0,-0.82 0.66,-1.48 1.48,-1.48 0.82,0 1.48,0.66 1.48,1.48 0,0.82 -0.66,1.48 -1.48,1.48 0,0 0,0 0,0 -0.81,0 -1.47,-0.66 -1.47,-1.47 0,0 0,0 0,0 m 9.01,-0.87 v 8.46 l -2.38,2.32 V 5.07 l 2.38,-0.02 z m -4.21,9.04 v 3.51 l -4.64,4.52 v -8.02 h 4.64 z"
       id="path2"
       style="fill:#ffffff;stroke-width:0px" />
  </g>
</svg>
