<?xml version="1.0" encoding="UTF-8" standalone="no"?>
<!-- Created with Inkscape (http://www.inkscape.org/) -->

<svg
   width="79"
   height="79"
   viewBox="0 0 20.902083 20.902083"
   version="1.1"
   id="svg1"
   xmlns="http://www.w3.org/2000/svg"
   xmlns:svg="http://www.w3.org/2000/svg">
  <defs
     id="defs1" />
  <g
     id="g2"
     transform="matrix(0.23522315,0,0,0.23522315,1.1598939,1.158927)">
    <path
       class="cls-5"
       d="m 55.03,49.31 c -1.39,0 -2.51,1.13 -2.51,2.52 0,0.35 0.07,0.69 0.21,1.01 L 37.27,68.3 33.3,64.33 V 45.35 h 5.29 c 0.45,1.31 1.89,2.01 3.2,1.56 1.31,-0.45 2.01,-1.89 1.56,-3.2 -0.45,-1.31 -1.89,-2.01 -3.2,-1.56 -0.69,0.24 -1.24,0.76 -1.51,1.44 h -5.32 v -2.5 H 43.5 c 0.46,1.31 1.89,1.99 3.2,1.53 1.31,-0.46 1.99,-1.89 1.53,-3.2 -0.46,-1.31 -1.89,-1.99 -3.2,-1.53 -0.67,0.24 -1.21,0.75 -1.49,1.41 H 33.32 v -2.4 h 15.42 c 0.49,1.3 1.95,1.95 3.24,1.45 1.3,-0.49 1.95,-1.95 1.45,-3.24 -0.5,-1.29 -1.95,-1.95 -3.24,-1.45 -0.67,0.26 -1.2,0.78 -1.45,1.45 H 33.32 V 30.62 L 37.1,26.51 35.78,25.3 21.41,40.96 v 24.47 l 9.37,9.37 v 0 l 1.26,1.26 h 11.9 l 6.98,-6.98 c 1.26,0.58 2.75,0.03 3.33,-1.23 0.58,-1.26 0.03,-2.75 -1.23,-3.33 -1.26,-0.58 -2.75,-0.03 -3.33,1.23 -0.15,0.33 -0.23,0.69 -0.23,1.06 0,0.34 0.07,0.69 0.21,1 l -6.47,6.47 h -3.02 l 12.1,-12.1 c 1.25,0.6 2.75,0.07 3.35,-1.18 0.6,-1.25 0.07,-2.75 -1.18,-3.35 -1.25,-0.6 -2.75,-0.07 -3.35,1.18 -0.31,0.65 -0.33,1.39 -0.05,2.06 l -13.4,13.4 h -3.84 l 0.82,-0.82 1.26,-1.26 18.09,-18.09 c 1.27,0.57 2.75,0 3.32,-1.26 0.57,-1.27 0,-2.75 -1.26,-3.32 -0.32,-0.15 -0.68,-0.22 -1.03,-0.22 M 40.95,43.08 c 0.8,0 1.46,0.65 1.46,1.45 0,0.8 -0.65,1.46 -1.45,1.46 -0.8,0 -1.46,-0.65 -1.46,-1.45 0,0 0,0 0,0 0,-0.8 0.65,-1.45 1.45,-1.45 m 4.9,-4.28 c 0.8,0 1.46,0.65 1.46,1.45 0,0.8 -0.65,1.46 -1.45,1.46 -0.8,0 -1.46,-0.65 -1.46,-1.45 0,0 0,0 0,0 0,-0.8 0.65,-1.45 1.45,-1.45 m 5.24,-4.24 c 0.8,0 1.46,0.65 1.46,1.45 0,0.8 -0.65,1.46 -1.45,1.46 -0.8,0 -1.46,-0.65 -1.46,-1.45 0,0 0,0 0,0 0,-0.8 0.65,-1.45 1.45,-1.45 m 2.27,23.92 c 0.8,0 1.46,0.65 1.46,1.45 0,0.8 -0.65,1.46 -1.45,1.46 -0.8,0 -1.46,-0.65 -1.46,-1.45 0,0 0,0 0,0 0,-0.8 0.65,-1.45 1.45,-1.45 m -1.4,6.89 c 0.8,0 1.45,0.65 1.45,1.45 0,0.8 -0.65,1.45 -1.45,1.45 -0.8,0 -1.45,-0.65 -1.45,-1.45 0,0 0,0 0,0 0,-0.8 0.65,-1.45 1.45,-1.45 0,0 0,0 0,0 m -19.94,8.2 -8.85,-8.86 V 41.72 l 3.08,-3.35 v 26.78 0 l 7.11,7.11 z M 28.05,64.42 V 36.41 l 3.48,-3.79 V 65.14 L 35.99,69.63 34.62,71 28.05,64.41 Z M 55,53.34 c -0.8,0 -1.46,-0.65 -1.46,-1.45 0,-0.8 0.65,-1.46 1.45,-1.46 0.8,0 1.46,0.65 1.46,1.45 0,0 0,0 0,0 0,0.8 -0.65,1.45 -1.45,1.45"
       id="path1"
       style="fill:#ffffff;stroke-width:0px" />
    <path
       class="cls-5"
       d="m 22.64,35.41 8.12,-8.84 v 0 -0.02 l 3.35,-3.65 -1.32,-1.21 -1.98,2.16 v -9.07 h 22.03 c 0.49,1.3 1.95,1.95 3.24,1.45 1.3,-0.49 1.95,-1.95 1.45,-3.24 -0.5,-1.29 -1.95,-1.95 -3.24,-1.45 -0.67,0.26 -1.2,0.78 -1.45,1.45 H 24.29 l 2.1,-2.29 h 19.74 c 0.49,1.3 1.95,1.95 3.24,1.45 1.3,-0.49 1.95,-1.95 1.45,-3.24 -0.5,-1.29 -1.95,-1.95 -3.24,-1.45 -0.67,0.26 -1.2,0.78 -1.45,1.45 h -18.1 l 2.34,-2.55 h 8.94 c 0.49,1.3 1.95,1.95 3.25,1.46 1.3,-0.49 1.95,-1.95 1.46,-3.25 C 43.53,3.27 42.07,2.62 40.77,3.11 40.1,3.37 39.57,3.9 39.31,4.57 H 29.59 L 21.3,13.6 c 0.02,7.05 0.03,14.11 0.03,21.19 v 2.05 c 0.44,-0.48 0.88,-0.96 1.32,-1.44 M 55.2,12.43 c 0.8,0 1.46,0.65 1.46,1.45 0,0.8 -0.65,1.46 -1.45,1.46 -0.8,0 -1.46,-0.65 -1.46,-1.45 0,0 0,0 0,0 0,-0.8 0.65,-1.45 1.45,-1.45 M 48.49,8.36 c 0.8,0 1.45,0.65 1.45,1.45 0,0.8 -0.65,1.45 -1.45,1.45 -0.8,0 -1.45,-0.65 -1.45,-1.45 0,-0.8 0.65,-1.45 1.45,-1.45 v 0 M 41.66,4.05 c 0.8,0 1.46,0.65 1.46,1.45 0,0.8 -0.65,1.46 -1.45,1.46 -0.8,0 -1.46,-0.65 -1.46,-1.45 0,0 0,0 0,0 0,-0.8 0.65,-1.45 1.45,-1.45 M 23.08,14.8 h 2.03 v 15.3 l -2.03,2.2 V 14.77 Z m 5.91,11.07 -2.09,2.27 V 14.79 h 2.09 v 11.07 z"
       id="path2"
       style="fill:#ffffff;stroke-width:0px" />
  </g>
</svg>
