<?xml version="1.0" encoding="UTF-8" standalone="no"?>
<!-- Created with Inkscape (http://www.inkscape.org/) -->

<svg
   width="79"
   height="79"
   viewBox="0 0 20.902083 20.902082"
   version="1.1"
   id="svg1"
   xmlns="http://www.w3.org/2000/svg"
   xmlns:svg="http://www.w3.org/2000/svg">
  <defs
     id="defs1" />
  <g
     id="layer1"
     transform="translate(-142.61047,-144.7271)">
    <g
       id="g76"
       transform="matrix(0.28366553,0,0,0.28366553,141.85813,54.38079)">
      <path
         class="cls-3"
         d="m 46.93,336.97 c 0.6,0.12 1.21,0.26 1.83,0.41 1.57,0.41 3.78,1.11 6.24,2.36 6.88,3.49 10.39,8.71 10.39,8.71 0.98,1.45 2.35,3.85 3.24,7.19 0.54,0.13 1.56,0.44 2.49,1.3 0.31,0.29 1.89,1.73 1.74,3.84 -0.12,1.81 -1.42,2.93 -1.97,3.41 -0.91,0.78 -1.85,1.13 -2.42,1.29 -0.47,1.64 -1.06,3.04 -1.65,4.21 -0.11,0.21 -0.77,1.51 -1.69,2.85 -3.76,5.43 -9.61,8.27 -11.15,8.97 -1.21,0.55 -2.17,0.9 -2.82,1.13 -4.06,1.44 -7.3,1.83 -8.12,1.92 -1.87,0.2 -4.37,0.32 -7.33,0 -2.03,-0.25 -4.9,-0.75 -8.23,-1.8 -0.95,-0.3 -2,-0.63 -3.16,-1.13 -5.45,-2.35 -8.75,-6.28 -9.82,-7.64 -2.57,-3.27 -3.83,-6.53 -4.47,-8.75 -0.49,-0.13 -1.29,-0.41 -2.07,-1.07 -0.19,-0.16 -1.84,-1.6 -1.84,-3.68 0,-2.01 1.56,-3.95 3.87,-4.67 0.75,-2.92 1.87,-5.08 2.73,-6.49 4.2,-6.88 10.82,-9.67 13.41,-10.72 0.65,-0.26 2.64,-1.04 5.45,-1.64 0.36,-0.08 0.75,-0.15 1.16,-0.23"
         id="path40"
         style="fill:none;stroke:#ffffff;stroke-width:1.79px;stroke-miterlimit:10" />
      <g
         id="g47">
        <path
           class="cls-3"
           d="m 64.04,369.11 c -0.76,-6.21 -2.34,-12.29 -3.47,-18.45 -0.03,-0.17 -0.12,-0.67 -0.5,-1.09 -0.66,-0.71 -1.75,-0.69 -2.13,-0.69 -1.71,0.02 -8.7,-0.01 -18.3,0 -9.71,-0.03 -16.8,0 -18.53,0 -0.35,0 -1.3,0 -1.92,0.63 -0.45,0.45 -0.52,1.03 -0.56,1.23 -2.05,10.07 -3.5,17.46 -3.61,18.36 -0.03,0.21 -0.08,0.67 0.16,1.13 0.07,0.13 0.21,0.35 0.68,0.7 0.32,0.24 0.82,0.56 1.52,0.81 0.81,0.29 1.44,0.46 1.5,0.47 5.79,1.32 9.14,1.69 9.14,1.69 2.54,0.28 4.48,0.37 6.05,0.44 0.95,0.04 2.79,0.11 5.47,0.1 3.92,-0.01 7.2,-0.02 11.53,-0.5 4.55,-0.67 7.93,-1.31 9.1,-1.65 0.6,-0.18 1.37,-0.48 1.53,-0.55 0.61,-0.25 1.06,-0.47 1.52,-0.81 0.47,-0.35 0.61,-0.57 0.68,-0.7 0.25,-0.47 0.18,-0.94 0.16,-1.13 z"
           id="path41"
           style="fill:none;stroke:#ffffff;stroke-width:1.79px;stroke-miterlimit:10" />
        <g
           id="g42">
          <ellipse
             class="cls-5"
             cx="29.049999"
             cy="363.09"
             rx="0.81"
             ry="3.03"
             id="ellipse41"
             style="fill:#ffffff;stroke-width:0px" />
          <path
             class="cls-5"
             d="m 29.07,356.29 c -3.59,0 -6.49,2.91 -6.49,6.49 0,3.58 2.91,6.49 6.49,6.49 3.58,0 6.49,-2.91 6.49,-6.49 0,-3.58 -2.91,-6.49 -6.49,-6.49 z m -0.02,12.16 c -3.01,0 -5.45,-2.44 -5.45,-5.45 0,-3.01 2.44,-5.45 5.45,-5.45 3.01,0 5.45,2.44 5.45,5.45 0,3.01 -2.44,5.45 -5.45,5.45 z"
             id="path42"
             style="fill:#ffffff;stroke-width:0px" />
        </g>
        <g
           id="g43">
          <ellipse
             class="cls-5"
             cx="50.59"
             cy="363.09"
             rx="0.81"
             ry="3.03"
             id="ellipse42"
             style="fill:#ffffff;stroke-width:0px" />
          <path
             class="cls-5"
             d="m 44.07,362.79 c 0,3.59 2.91,6.49 6.49,6.49 3.59,0 6.49,-2.91 6.49,-6.49 0,-3.59 -2.91,-6.49 -6.49,-6.49 -3.59,0 -6.49,2.91 -6.49,6.49 z m 1.06,0.22 c 0,-3.01 2.44,-5.45 5.45,-5.45 3.01,0 5.45,2.44 5.45,5.45 0,3.01 -2.44,5.45 -5.45,5.45 -3.01,0 -5.45,-2.44 -5.45,-5.45 z"
             id="path43"
             style="fill:#ffffff;stroke-width:0px" />
        </g>
        <circle
           class="cls-5"
           cx="38.139999"
           cy="370.60999"
           r="0.56"
           id="circle43"
           style="fill:#ffffff;stroke-width:0px" />
        <circle
           class="cls-5"
           cx="40.919998"
           cy="370.60999"
           r="0.56"
           id="circle44"
           style="fill:#ffffff;stroke-width:0px" />
        <path
           class="cls-5"
           d="m 26.14,357.98 c 0,0 -0.24,-0.03 -0.69,-0.21 -0.25,-0.1 -1.08,-0.43 -1.77,-1.2 -0.77,-0.84 -0.86,-1.63 -1.01,-1.6 -0.16,0.04 -0.3,1.1 0.22,1.86 0.88,1.27 3.24,1.2 3.25,1.14 z"
           id="path44"
           style="fill:#ffffff;stroke-width:0px" />
        <path
           class="cls-5"
           d="m 25,359.1 c 0,0 -0.27,-0.03 -0.79,-0.24 -0.28,-0.11 -1.22,-0.49 -2.01,-1.36 -0.87,-0.96 -0.97,-1.85 -1.14,-1.81 -0.19,0.05 -0.35,1.25 0.25,2.11 0.99,1.44 3.68,1.36 3.69,1.3 z"
           id="path45"
           style="fill:#ffffff;stroke-width:0px" />
        <path
           class="cls-5"
           d="m 53.88,357.98 c 0,0 0.24,-0.03 0.69,-0.21 0.25,-0.1 1.08,-0.43 1.77,-1.2 0.77,-0.84 0.86,-1.63 1.01,-1.6 0.16,0.04 0.3,1.1 -0.22,1.86 -0.88,1.27 -3.24,1.2 -3.25,1.14 z"
           id="path46"
           style="fill:#ffffff;stroke-width:0px" />
        <path
           class="cls-5"
           d="m 55.02,359.1 c 0,0 0.27,-0.03 0.79,-0.24 0.28,-0.11 1.22,-0.49 2.01,-1.36 0.87,-0.96 0.97,-1.85 1.14,-1.81 0.19,0.05 0.35,1.25 -0.25,2.11 -0.99,1.44 -3.68,1.36 -3.69,1.3 z"
           id="path47"
           style="fill:#ffffff;stroke-width:0px" />
      </g>
      <g
         id="g53">
        <g
           id="g48">
          <circle
             class="cls-5"
             cx="37.860001"
             cy="381.48001"
             r="1.02"
             id="circle47"
             style="fill:#ffffff;stroke-width:0px" />
          <circle
             class="cls-5"
             cx="37.810001"
             cy="381.42999"
             r="0.97000003"
             id="circle48"
             style="fill:#ffffff;stroke-width:0px" />
        </g>
        <g
           id="g50">
          <circle
             class="cls-5"
             cx="39.830002"
             cy="381.51999"
             r="0.56999999"
             id="circle49"
             style="fill:#ffffff;stroke-width:0px" />
          <circle
             class="cls-5"
             cx="39.799999"
             cy="381.48999"
             r="0.54000002"
             id="circle50"
             style="fill:#ffffff;stroke-width:0px" />
        </g>
        <g
           id="g52">
          <circle
             class="cls-5"
             cx="41.209999"
             cy="381.51999"
             r="0.56999999"
             id="circle51"
             style="fill:#ffffff;stroke-width:0px" />
          <circle
             class="cls-5"
             cx="41.18"
             cy="381.48999"
             r="0.54000002"
             id="circle52"
             style="fill:#ffffff;stroke-width:0px" />
        </g>
      </g>
      <g
         id="g59">
        <g
           id="g54">
          <path
             class="cls-5"
             d="m 48.68,337.86 c 0,0.86 -1.31,1.63 -1.71,1.87 -0.14,0.08 -0.64,0.37 -1.8,0.69 -2.05,0.57 -3.84,0.58 -5.08,0.59 -0.06,0 -0.25,0 -0.51,0 -0.97,-0.02 -5.95,-0.13 -8.02,-1.93 -0.71,-0.62 -0.73,-1.14 -0.73,-1.25 0,-0.8 0.86,-1.41 1.17,-1.64 0.5,-0.36 1,-0.51 1.32,-0.59 v 0.61 h -0.04 c -0.09,0.03 -0.22,0.08 -0.36,0.18 -0.07,0.05 -0.3,0.22 -0.39,0.51 0,0 -0.1,0.28 0,0.63 0.12,0.4 0.88,1.18 3.67,1.61 1.02,0.16 1.95,0.21 3.71,0.2 3.7,-0.04 5.52,-0.32 6.64,-1.24 0.25,-0.21 0.72,-0.61 0.66,-1.08 -0.06,-0.47 -0.63,-0.75 -0.8,-0.82 0,-0.15 0.01,-0.3 0.02,-0.45 0.32,0.14 0.78,0.39 1.24,0.79 0.6,0.52 1,0.87 1.01,1.34 z"
             id="path53"
             style="fill:#ffffff;stroke-width:0px" />
          <path
             class="cls-5"
             d="m 46.55,338.08 c -1.12,0.92 -2.94,1.21 -6.64,1.24 -1.77,0.02 -2.69,-0.04 -3.71,-0.2 -2.78,-0.43 -3.55,-1.21 -3.67,-1.61 -0.1,-0.35 0,-0.63 0,-0.63 0.1,-0.29 0.32,-0.45 0.39,-0.51 0.14,-0.1 0.27,-0.15 0.36,-0.18 h 0.04 v 1.21 c 0.01,0.05 0.03,0.13 0.08,0.21 0.11,0.18 0.28,0.27 0.37,0.32 0.58,0.29 0.97,0.39 0.97,0.39 0.54,0.14 0.81,0.21 1.24,0.28 0.6,0.1 1.13,0.16 1.65,0.2 0.56,0.04 1.07,0.05 2.07,0.06 1.64,0.02 2.15,0 2.46,-0.02 0.6,-0.04 0.99,-0.09 1.27,-0.13 0.18,-0.03 0.34,-0.06 0.49,-0.09 0.2,-0.04 0.44,-0.09 0.81,-0.19 0.41,-0.11 1,-0.28 1.35,-0.51 0.09,-0.06 0.21,-0.15 0.29,-0.3 0.04,-0.08 0.06,-0.16 0.07,-0.21 v -1.23 c 0.17,0.08 0.74,0.35 0.8,0.82 0.06,0.47 -0.41,0.87 -0.66,1.08 z"
             id="path54"
             style="fill:#ffffff;stroke-width:0px" />
        </g>
        <g
           id="g58">
          <rect
             class="cls-3"
             x="33.32"
             y="325.92001"
             width="13.1"
             height="11.49"
             id="rect54"
             style="fill:none;stroke:#ffffff;stroke-width:1.79px;stroke-miterlimit:10" />
          <path
             class="cls-5"
             d="m 46.41,337.41 c 0,0 -0.02,0.12 -0.07,0.21 -0.08,0.15 -0.2,0.24 -0.29,0.3 -0.35,0.23 -0.93,0.4 -1.35,0.51 -0.37,0.1 -0.6,0.15 -0.81,0.19 -0.15,0.03 -0.31,0.06 -0.49,0.09 -0.29,0.05 -0.67,0.1 -1.27,0.13 -0.31,0.02 -0.82,0.05 -2.46,0.02 -1,-0.01 -1.51,-0.02 -2.07,-0.06 -0.52,-0.04 -1.05,-0.09 -1.65,-0.2 -0.42,-0.07 -0.69,-0.14 -1.24,-0.28 0,0 -0.39,-0.1 -0.97,-0.39 -0.09,-0.05 -0.26,-0.13 -0.37,-0.32 -0.05,-0.08 -0.07,-0.16 -0.08,-0.21 h 13.1 z"
             id="path55"
             style="fill:#ffffff;stroke-width:0px" />
          <rect
             class="cls-5"
             x="36.889999"
             y="329.85001"
             width="1.96"
             height="2.46"
             id="rect55"
             style="fill:#ffffff;stroke-width:0px" />
          <rect
             class="cls-5"
             x="40.889999"
             y="329.85001"
             width="1.96"
             height="2.46"
             id="rect56"
             style="fill:#ffffff;stroke-width:0px" />
          <rect
             class="cls-5"
             x="38.200001"
             y="333.76999"
             width="2.03"
             height="1.34"
             id="rect57"
             style="fill:#ffffff;stroke-width:0px" />
          <rect
             class="cls-5"
             x="40.240002"
             y="333.76999"
             width="1.34"
             height="1.34"
             id="rect58"
             style="fill:#ffffff;stroke-width:0px" />
        </g>
      </g>
      <g
         id="g75">
        <path
           class="cls-6"
           d="m 58.97,342.42 c 0,0 -0.02,-0.25 0.08,-0.38 0.1,-0.13 0.39,-0.16 0.39,-0.16 0,0 0.35,-0.67 0.73,-1.13 0.38,-0.46 1.19,-1.15 1.77,-1.11 0.58,0.04 0.77,0.29 0.96,0.62 0.19,0.32 0.2,0.71 0.17,0.93 -0.03,0.22 -0.09,0.48 -0.37,0.64 -0.28,0.16 -0.42,0.22 -0.84,0.41 -0.42,0.19 -1.78,0.52 -1.78,0.52 l -0.13,-0.44 0.74,-0.46 c 0,0 0.13,0 0.39,-0.08 0.26,-0.08 1.11,-0.43 1.28,-0.59 0.17,-0.16 0.22,-0.47 0.22,-0.47 0,0 -0.2,-0.06 -0.53,0.15 -0.33,0.21 -0.68,0.36 -0.89,0.56 -0.21,0.2 -1.22,0.89 -1.22,0.89 0,0 0.16,0.36 0.1,0.55 -0.06,0.18 -0.17,0.26 -0.27,0.32 -0.11,0.05 -0.19,-0.19 -0.19,-0.19 0,0 -0.17,0.06 -0.42,0.15 -0.26,0.09 -0.81,0.29 -0.99,0.3 -0.18,0 -0.99,0.2 -1.15,0.31 -0.16,0.11 -0.56,0.54 -0.61,0.71 -0.05,0.17 -0.17,0.27 -0.04,0.31 0.13,0.03 0.87,-0.13 1.18,-0.26 0.31,-0.12 0.7,-0.33 0.91,-0.48 0.21,-0.15 0.36,-0.29 0.44,-0.44 0.08,-0.14 0.13,-0.4 0.13,-0.4 L 59.6,343 c 0,0 0.12,0 0.07,0.13 -0.05,0.13 -0.22,0.55 -0.44,0.84 -0.22,0.29 -0.5,0.46 -0.65,0.59 -0.16,0.13 -0.89,0.66 -1.59,0.72 -0.7,0.07 -0.76,-0.08 -0.94,-0.24 -0.18,-0.16 -0.38,-0.35 -0.41,-0.64 -0.03,-0.28 0.02,-0.74 0.5,-1.17 0.48,-0.43 0.92,-0.51 1.35,-0.59 0.43,-0.09 1.48,-0.22 1.48,-0.22 z"
           id="path59"
           style="fill:#ffffff;fill-rule:evenodd;stroke-width:0px" />
        <path
           class="cls-6"
           d="m 59.66,343.13 c 0,0 -0.05,0.33 0,0.59 0.05,0.26 -0.02,0.57 0,0.97 0.02,0.4 -0.05,0.59 -0.08,0.94 -0.03,0.34 -0.1,0.56 -0.2,0.91 -0.11,0.35 -0.25,0.61 -0.32,0.65 -0.07,0.04 -0.07,0.12 -0.25,0 -0.18,-0.11 -0.32,-0.25 -0.47,-0.26 -0.16,0 -0.41,-0.01 -0.54,-0.04 -0.13,-0.03 -0.23,-0.08 -0.09,-0.21 0.13,-0.13 0.67,-0.78 0.78,-1.05 0.11,-0.26 0.41,-0.92 0.47,-1.11 0.06,-0.18 0.07,-0.35 0.07,-0.35 0,0 0.25,-0.22 0.35,-0.47 0.11,-0.25 0.29,-0.59 0.29,-0.59 z"
           id="path60"
           style="fill:#ffffff;fill-rule:evenodd;stroke-width:0px" />
        <path
           class="cls-6"
           d="m 60.1,342.74 c 0,0 0.43,-0.08 0.69,-0.16 0.26,-0.08 0.94,-0.29 0.94,-0.29 0,0 0.31,0.07 0.62,-0.03 0.31,-0.1 0.68,-0.29 0.79,-0.37 0.11,-0.08 0.21,-0.32 0.35,-0.23 0.14,0.09 0.34,0.41 0.34,0.65 0,0.24 0.02,0.33 -0.29,0.49 -0.31,0.16 -0.61,0.27 -1,0.35 -0.39,0.08 -0.7,0.14 -1.16,0.11 -0.46,-0.04 -0.83,-0.12 -0.95,-0.18 -0.12,-0.06 -0.41,-0.24 -0.41,-0.24 l 0.06,-0.1 z"
           id="path61"
           style="fill:#ffffff;fill-rule:evenodd;stroke-width:0px" />
        <g
           id="g74">
          <path
             class="cls-6"
             d="m 58.97,342.4 c 0,0 0.05,0.05 0.09,0.07 0.04,0.02 0.09,0.04 0.12,0.07 0.22,0.2 0.34,0.36 0.45,0.64 0,0.02 0.04,0.04 0.06,0.03 0.02,0 0.04,-0.04 0.03,-0.06 -0.12,-0.3 -0.24,-0.46 -0.47,-0.67 -0.03,-0.03 -0.07,-0.05 -0.11,-0.07 -0.03,-0.02 -0.06,-0.03 -0.07,-0.05 -0.01,-0.02 -0.04,-0.03 -0.06,-0.01 -0.02,0.01 -0.03,0.04 -0.01,0.06 z"
             id="path62"
             style="fill:#ffffff;fill-rule:evenodd;stroke-width:0px" />
          <path
             class="cls-6"
             d="m 59.02,342.3 c -0.03,-0.11 0.04,-0.21 0.14,-0.28 0.1,-0.07 0.22,-0.11 0.32,-0.07 0.21,0.08 0.45,0.37 0.52,0.65 0.05,0.18 0.03,0.35 -0.12,0.47 -0.02,0.02 -0.04,0.04 -0.07,0.06 -0.02,0.01 -0.03,0.03 -0.05,0.03 -0.02,0 -0.04,0.03 -0.03,0.06 0.01,0.03 0.03,0.04 0.06,0.03 0.03,0 0.05,-0.02 0.08,-0.04 0.03,-0.02 0.05,-0.05 0.08,-0.07 0.18,-0.14 0.22,-0.35 0.16,-0.56 -0.08,-0.31 -0.35,-0.62 -0.58,-0.71 -0.12,-0.05 -0.29,0 -0.41,0.08 -0.12,0.09 -0.2,0.23 -0.17,0.38 0,0.02 0.03,0.04 0.06,0.03 0.02,0 0.04,-0.03 0.03,-0.06 z"
             id="path63"
             style="fill:#ffffff;fill-rule:evenodd;stroke-width:0px" />
          <path
             class="cls-6"
             d="m 59.46,341.89 c 0.44,-0.77 1.04,-1.61 1.85,-2.02 0.44,-0.22 0.82,-0.22 1.11,-0.05 0.29,0.17 0.5,0.5 0.6,0.93 0,0.02 0.03,0.04 0.06,0.03 0.03,-0.01 0.04,-0.03 0.03,-0.06 -0.11,-0.46 -0.33,-0.81 -0.64,-0.99 -0.31,-0.18 -0.72,-0.19 -1.2,0.04 -0.83,0.41 -1.44,1.27 -1.89,2.06 -0.01,0.02 0,0.05 0.02,0.06 0.02,0.01 0.05,0 0.06,-0.02 z"
             id="path64"
             style="fill:#ffffff;fill-rule:evenodd;stroke-width:0px" />
          <path
             class="cls-6"
             d="m 60.01,342.33 c 0.66,-0.36 1.18,-0.89 1.8,-1.3 0.32,-0.21 0.75,-0.37 1.13,-0.19 0.02,0.01 0.05,0 0.06,-0.02 0.01,-0.02 0,-0.05 -0.02,-0.06 -0.4,-0.2 -0.87,-0.03 -1.22,0.19 -0.62,0.4 -1.14,0.93 -1.8,1.29 -0.02,0.01 -0.03,0.04 -0.02,0.06 0.01,0.02 0.04,0.03 0.06,0.02 z"
             id="path65"
             style="fill:#ffffff;fill-rule:evenodd;stroke-width:0px" />
          <path
             class="cls-6"
             d="m 62.53,340.86 c 0,0 0.01,-0.04 0.04,-0.04 0.02,0 0.05,0 0.06,0.03 0,0.01 0,0.03 0,0.05 0,0.02 -0.03,0.05 -0.03,0.06 -0.04,0.18 -0.19,0.27 -0.36,0.37 -0.31,0.2 -1.15,0.52 -1.49,0.6 -0.02,0 -0.05,-0.01 -0.05,-0.04 0,-0.02 0.01,-0.05 0.04,-0.05 0.34,-0.07 1.15,-0.39 1.46,-0.58 0.08,-0.05 0.15,-0.09 0.21,-0.14 0.05,-0.05 0.1,-0.1 0.11,-0.17 0,-0.01 0.03,-0.07 0.03,-0.07 z"
             id="path66"
             style="fill:#ffffff;fill-rule:evenodd;stroke-width:0px" />
          <path
             class="cls-6"
             d="m 60.12,342.78 c 0.14,0 0.31,-0.07 0.45,-0.11 0.39,-0.09 0.74,-0.18 1.12,-0.33 0.24,-0.1 0.46,-0.2 0.69,-0.33 0.12,-0.07 0.28,-0.11 0.38,-0.2 0.28,-0.23 0.4,-0.66 0.37,-1.01 0,-0.03 -0.02,-0.04 -0.05,-0.04 -0.03,0 -0.04,0.02 -0.04,0.05 0.03,0.32 -0.08,0.72 -0.34,0.93 -0.1,0.08 -0.26,0.12 -0.37,0.19 -0.22,0.13 -0.44,0.23 -0.68,0.32 -0.37,0.15 -0.72,0.24 -1.1,0.33 -0.14,0.03 -0.29,0.1 -0.43,0.11 -0.03,0 -0.05,0.02 -0.04,0.05 0,0.03 0.02,0.05 0.05,0.04 z"
             id="path67"
             style="fill:#ffffff;fill-rule:evenodd;stroke-width:0px" />
          <path
             class="cls-6"
             d="m 56.31,345.19 c 0,0 -0.03,-0.09 -0.03,-0.1 -0.03,-0.12 -0.04,-0.21 -0.03,-0.33 0.03,-0.31 0.23,-0.65 0.47,-0.85 0.34,-0.29 0.75,-0.4 1.18,-0.48 0.22,-0.04 0.44,-0.11 0.67,-0.12 0.09,0 0.2,-0.07 0.28,-0.11 0.17,-0.07 0.45,-0.18 0.63,-0.22 0.02,0 0.05,0 0.06,0.03 0.01,0.03 0,0.05 -0.03,0.06 -0.18,0.04 -0.45,0.14 -0.62,0.22 -0.09,0.04 -0.21,0.11 -0.31,0.11 -0.22,0.02 -0.44,0.08 -0.66,0.12 -0.41,0.08 -0.81,0.18 -1.13,0.46 -0.22,0.19 -0.41,0.5 -0.44,0.79 -0.01,0.11 0,0.19 0.02,0.3 0,0.01 0.03,0.09 0.04,0.15 0,0.03 0,0.06 0,0.07 0,0.02 -0.01,0.02 -0.02,0.03 0,0 -0.02,0.01 -0.04,0.01 0,0 -0.03,-0.01 -0.06,-0.03 -0.08,-0.06 -0.25,-0.2 -0.28,-0.23 -0.11,-0.08 -0.24,-0.18 -0.31,-0.3 -0.24,-0.42 -0.12,-1.05 0.19,-1.4 0.63,-0.72 1.42,-0.75 2.3,-0.89 0.22,-0.03 0.57,-0.14 0.77,-0.1 0.03,0 0.04,0.03 0.04,0.05 0,0.03 -0.03,0.04 -0.05,0.04 -0.19,-0.03 -0.53,0.07 -0.74,0.1 -0.86,0.13 -1.62,0.16 -2.24,0.86 -0.29,0.32 -0.41,0.91 -0.18,1.29 0.06,0.11 0.19,0.2 0.29,0.27 0.03,0.02 0.15,0.12 0.24,0.19 z"
             id="path68"
             style="fill:#ffffff;fill-rule:evenodd;stroke-width:0px" />
          <path
             class="cls-6"
             d="m 59.51,343.24 c -0.22,0.63 -0.56,1.03 -1.14,1.41 -0.28,0.18 -0.57,0.37 -0.89,0.47 -0.14,0.05 -0.4,0.12 -0.64,0.15 -0.15,0.01 -0.29,0 -0.39,-0.05 -0.02,-0.01 -0.05,0 -0.06,0.02 -0.01,0.02 0,0.05 0.02,0.06 0.11,0.07 0.27,0.08 0.44,0.06 0.25,-0.02 0.51,-0.1 0.66,-0.15 0.33,-0.1 0.63,-0.3 0.91,-0.49 0.6,-0.39 0.95,-0.8 1.18,-1.46 0,-0.02 0,-0.05 -0.03,-0.06 -0.02,0 -0.05,0 -0.06,0.03 z"
             id="path69"
             style="fill:#ffffff;fill-rule:evenodd;stroke-width:0px" />
          <path
             class="cls-6"
             d="m 56.43,344.82 c 0,0 -0.03,0.04 -0.06,0.03 -0.02,0 -0.04,-0.03 -0.03,-0.06 0.01,-0.03 0.04,-0.06 0.08,-0.07 0.06,-0.01 0.15,0 0.18,0 0.25,-0.02 0.5,-0.1 0.73,-0.19 0.39,-0.14 0.71,-0.31 1.05,-0.55 0.1,-0.07 0.23,-0.13 0.31,-0.22 0.14,-0.16 0.22,-0.36 0.3,-0.55 0.01,-0.02 0.04,-0.03 0.06,-0.02 0.02,0.01 0.03,0.04 0.02,0.06 -0.09,0.2 -0.17,0.41 -0.31,0.57 -0.08,0.1 -0.22,0.16 -0.32,0.23 -0.35,0.24 -0.67,0.41 -1.07,0.56 -0.24,0.09 -0.5,0.17 -0.76,0.19 -0.03,0 -0.09,0 -0.15,0 -0.01,0 -0.02,0 -0.03,0 0,0 0,0 0,0 z"
             id="path70"
             style="fill:#ffffff;fill-rule:evenodd;stroke-width:0px" />
          <path
             class="cls-6"
             d="m 57.67,346.82 0.08,0.04 c 0.08,0.04 0.16,0.04 0.25,0.03 0.1,0 0.19,-0.02 0.29,0 0.12,0.02 0.24,0.09 0.35,0.16 0.1,0.06 0.2,0.12 0.3,0.13 0.03,0 0.04,0.02 0.04,0.05 0,0.03 -0.02,0.04 -0.05,0.04 -0.12,-0.01 -0.23,-0.08 -0.34,-0.14 -0.1,-0.06 -0.2,-0.13 -0.31,-0.14 -0.09,-0.01 -0.18,0 -0.27,0 -0.1,0 -0.2,0 -0.29,-0.04 -0.01,0 -0.09,-0.03 -0.12,-0.06 -0.02,-0.02 -0.03,-0.04 -0.03,-0.06 0,0 0,-0.01 0,-0.02 0,0 0.01,-0.02 0.03,-0.04 0.06,-0.07 0.2,-0.23 0.22,-0.25 0.15,-0.19 0.3,-0.38 0.43,-0.58 0.33,-0.51 0.53,-1.1 0.73,-1.67 0,-0.02 0.03,-0.04 0.06,-0.03 0.02,0 0.04,0.03 0.03,0.06 -0.2,0.57 -0.4,1.18 -0.74,1.69 -0.13,0.2 -0.28,0.4 -0.43,0.59 -0.02,0.02 -0.16,0.18 -0.22,0.25 z"
             id="path71"
             style="fill:#ffffff;fill-rule:evenodd;stroke-width:0px" />
          <path
             class="cls-6"
             d="m 59.56,343.33 c 0.12,0.31 0.06,0.64 0.05,0.96 0,0.18 0.01,0.37 0,0.55 0,0.28 -0.06,0.56 -0.1,0.83 -0.04,0.25 -0.04,0.51 -0.14,0.75 -0.02,0.05 -0.13,0.38 -0.24,0.59 -0.02,0.05 -0.05,0.09 -0.07,0.12 0,0 -0.01,0.02 -0.02,0.02 -0.02,0 -0.04,0.03 -0.03,0.06 0.01,0.03 0.03,0.04 0.06,0.03 0.02,0 0.04,-0.01 0.06,-0.03 0.03,-0.03 0.06,-0.08 0.1,-0.15 0.11,-0.2 0.22,-0.54 0.24,-0.59 0.1,-0.24 0.11,-0.51 0.14,-0.77 0.04,-0.28 0.09,-0.56 0.1,-0.84 0,-0.18 -0.02,-0.37 0,-0.55 0.01,-0.33 0.07,-0.68 -0.06,-0.99 0,-0.02 -0.04,-0.04 -0.06,-0.03 -0.02,0 -0.04,0.04 -0.03,0.06 z"
             id="path72"
             style="fill:#ffffff;fill-rule:evenodd;stroke-width:0px" />
          <path
             class="cls-6"
             d="m 60.11,342.9 c 0.26,0.22 0.66,0.34 1.08,0.39 0.63,0.07 1.33,-0.02 1.77,-0.2 0.13,-0.05 0.28,-0.1 0.41,-0.16 0.14,-0.06 0.27,-0.14 0.37,-0.27 0.02,-0.02 0.01,-0.05 0,-0.06 -0.02,-0.02 -0.05,-0.01 -0.06,0 -0.08,0.11 -0.2,0.18 -0.33,0.24 -0.14,0.06 -0.28,0.1 -0.41,0.15 -0.43,0.18 -1.11,0.27 -1.72,0.2 -0.4,-0.05 -0.78,-0.16 -1.03,-0.37 -0.02,-0.02 -0.05,-0.01 -0.07,0 -0.02,0.02 -0.01,0.05 0,0.07 z"
             id="path73"
             style="fill:#ffffff;fill-rule:evenodd;stroke-width:0px" />
          <path
             class="cls-6"
             d="m 63.79,342.49 c 0,0 0,-0.02 0,-0.04 0,-0.05 0,-0.12 -0.01,-0.14 -0.02,-0.08 -0.11,-0.36 -0.21,-0.51 -0.02,-0.03 -0.04,-0.06 -0.06,-0.07 -0.01,0 -0.02,-0.02 -0.03,-0.02 -0.07,0 -0.13,0.05 -0.2,0.11 -0.07,0.07 -0.15,0.14 -0.21,0.18 -0.34,0.19 -0.82,0.4 -1.22,0.37 -0.03,0 -0.04,-0.02 -0.04,-0.05 0,-0.03 0.02,-0.04 0.05,-0.04 0.38,0.02 0.84,-0.18 1.17,-0.36 0.08,-0.04 0.16,-0.14 0.24,-0.2 0.07,-0.05 0.14,-0.09 0.21,-0.09 0.02,0 0.05,0 0.08,0.03 0.03,0.02 0.06,0.06 0.09,0.11 0.1,0.16 0.2,0.45 0.22,0.54 0,0.03 0.02,0.14 0,0.2 0,0.05 -0.04,0.08 -0.07,0.09 -0.02,0 -0.05,0 -0.06,-0.03 0,-0.02 0,-0.05 0.03,-0.05 z"
             id="path74"
             style="fill:#ffffff;fill-rule:evenodd;stroke-width:0px" />
        </g>
      </g>
    </g>
  </g>
</svg>
