<?xml version="1.0" encoding="UTF-8" standalone="no"?>
<!-- Created with Inkscape (http://www.inkscape.org/) -->

<svg
   width="79"
   height="79"
   viewBox="0 0 20.902083 20.902083"
   version="1.1"
   id="svg1"
   xmlns="http://www.w3.org/2000/svg"
   xmlns:svg="http://www.w3.org/2000/svg">
  <defs
     id="defs1" />
  <g
     id="layer1"
     transform="translate(-54.768804,-98.689599)">
    <g
       id="Layer_2"
       data-name="Layer 2"
       transform="matrix(0.2638526,0,0,0.2638526,54.797668,36.214418)">
      <g
         id="folhas">
        <g
           id="g40">
          <circle
             class="cls-2"
             cx="39.5"
             cy="276.39001"
             r="27.889999"
             id="circle27"
             style="fill:none;stroke:#ffffff;stroke-miterlimit:10" />
          <g
             id="g30">
            <circle
               class="cls-2"
               cx="39.5"
               cy="276.39001"
               r="21.4"
               id="circle28"
               style="fill:none;stroke:#ffffff;stroke-miterlimit:10" />
            <g
               class="cls-1"
               id="g29"
               style="opacity:0.2">
              <circle
                 class="cls-2"
                 cx="39.5"
                 cy="276.39001"
                 r="21.4"
                 id="circle29"
                 style="fill:none;stroke:#ffffff;stroke-miterlimit:10" />
            </g>
          </g>
          <g
             id="g34">
            <path
               class="cls-5"
               d="m 38.71,300.23 c 0,0 -0.04,0 -0.06,0.01 l -1.19,-1.27 h 0.18 l 0.8,0.85 c 0,0 -0.02,0.05 -0.02,0.07 0,0.08 0.07,0.15 0.15,0.15 0.08,0 0.15,-0.07 0.15,-0.15 0,-0.08 -0.07,-0.15 -0.15,-0.15 -0.02,0 -0.03,0 -0.05,0 l -0.74,-0.78 h 0.18 l 0.39,0.41 c 0,0 -0.02,0.05 -0.02,0.07 0,0.08 0.07,0.15 0.15,0.15 0.08,0 0.15,-0.07 0.15,-0.15 0,-0.08 -0.07,-0.15 -0.15,-0.15 -0.02,0 -0.03,0 -0.05,0 -0.14,-0.15 -0.28,-0.3 -0.42,-0.45 h -0.7 l -0.63,0.67 v 0.47 l -0.2,-0.22 c 0,0 0.01,-0.04 0.01,-0.06 0,-0.08 -0.07,-0.15 -0.15,-0.15 -0.08,0 -0.15,0.07 -0.15,0.15 0,0.08 0.07,0.15 0.15,0.15 0.02,0 0.04,0 0.06,-0.01 l 1.9,2.02 v 0.63 h -0.11 v -0.55 c -0.52,-0.56 -1.05,-1.11 -1.57,-1.67 0.01,-0.02 0.02,-0.05 0.02,-0.07 0,-0.08 -0.07,-0.15 -0.15,-0.15 -0.08,0 -0.15,0.07 -0.15,0.15 0,0.08 0.07,0.15 0.15,0.15 0.02,0 0.03,0 0.05,0 l 1.55,1.64 v 0.18 l -1.38,-1.46 c 0,0 0.02,-0.04 0.02,-0.07 0,-0.08 -0.07,-0.15 -0.15,-0.15 -0.08,0 -0.15,0.07 -0.15,0.15 0,0.08 0.07,0.15 0.15,0.15 0.02,0 0.04,0 0.06,-0.01 l 1.45,1.54 v 0.18 h -0.82 v -0.23 c 0.06,-0.02 0.1,-0.08 0.1,-0.14 0,-0.08 -0.07,-0.15 -0.15,-0.15 -0.08,0 -0.15,0.07 -0.15,0.15 0,0.06 0.04,0.12 0.1,0.14 v 0.23 h -0.16 v -0.47 c 0.06,-0.02 0.1,-0.08 0.1,-0.14 0,-0.08 -0.07,-0.15 -0.15,-0.15 -0.08,0 -0.15,0.07 -0.15,0.15 0,0.06 0.04,0.12 0.1,0.14 v 0.47 h -0.15 v -0.71 c 0.06,-0.02 0.1,-0.08 0.1,-0.14 0,-0.08 -0.07,-0.15 -0.15,-0.15 -0.08,0 -0.15,0.07 -0.15,0.15 0,0.06 0.04,0.12 0.1,0.14 v 0.77 c 0.3,0.18 0.59,0.36 0.89,0.54 h 0.62 c 0.16,-0.17 0.33,-0.35 0.49,-0.52 v -0.96 c -0.41,-0.44 -0.83,-0.88 -1.24,-1.32 v -0.71 l 0.26,-0.28 0.93,0.99 c 0,0 -0.01,0.04 -0.01,0.06 0,0.08 0.07,0.15 0.15,0.15 0.08,0 0.15,-0.07 0.15,-0.15 0,-0.08 -0.07,-0.15 -0.15,-0.15 m -0.14,-0.41 c 0,0 0.09,0.04 0.09,0.09 0,0.05 -0.04,0.09 -0.09,0.09 -0.05,0 -0.09,-0.04 -0.09,-0.09 0,-0.05 0.04,-0.09 0.09,-0.09 m -0.09,-0.44 c 0,0 0.09,0.04 0.09,0.09 0,0.05 -0.04,0.09 -0.09,0.09 -0.05,0 -0.09,-0.04 -0.09,-0.09 0,-0.05 0.04,-0.09 0.09,-0.09 m -2.15,0.44 c 0,0 -0.09,-0.04 -0.09,-0.09 0,-0.05 0.04,-0.09 0.09,-0.09 0.05,0 0.09,0.04 0.09,0.09 0,0.05 -0.04,0.09 -0.09,0.09 m 0.15,0.48 c 0,0 -0.09,-0.04 -0.09,-0.09 0,-0.05 0.04,-0.09 0.09,-0.09 0.05,0 0.09,0.04 0.09,0.09 0,0.05 -0.04,0.09 -0.09,0.09 m 0.09,0.44 c 0,0 -0.09,-0.04 -0.09,-0.09 0,-0.05 0.04,-0.09 0.09,-0.09 0.05,0 0.09,0.04 0.09,0.09 0,0.05 -0.04,0.09 -0.09,0.09 m 0.02,0.92 c 0,0 0.04,-0.09 0.09,-0.09 0.05,0 0.09,0.04 0.09,0.09 0,0.05 -0.04,0.09 -0.09,0.09 -0.05,0 -0.09,-0.04 -0.09,-0.09 m 0.38,-2.09 v 0.74 l -0.19,-0.2 v -0.54 l 0.55,-0.59 0.09,0.09 c -0.15,0.16 -0.3,0.32 -0.46,0.48 m 0.15,2.56 c 0,0 0.04,-0.09 0.09,-0.09 0.05,0 0.09,0.04 0.09,0.09 0,0.05 -0.04,0.09 -0.09,0.09 -0.05,0 -0.09,-0.04 -0.09,-0.09 m -0.27,-0.23 c 0,0 0.04,-0.09 0.09,-0.09 0.05,0 0.09,0.04 0.09,0.09 0,0.05 -0.04,0.09 -0.09,0.09 -0.05,0 -0.09,-0.04 -0.09,-0.09 m 1.24,1.1 h -0.55 l -0.24,-0.14 h 0.92 l -0.14,0.14 v 0 z m 0.23,-0.25 h -1.19 l -0.23,-0.14 h 1.56 l -0.13,0.14 z m -1.04,-3.19 v 0.79 c 0.41,0.44 0.83,0.88 1.24,1.32 v 0.84 h -0.11 v -0.67 c -0.44,-0.47 -0.89,-0.94 -1.33,-1.41 v -0.81 l 0.42,-0.45 0.08,0.08 z m 1.44,0.9 c 0,0 -0.09,-0.04 -0.09,-0.09 0,-0.05 0.04,-0.09 0.09,-0.09 0.05,0 0.09,0.04 0.09,0.09 0,0.05 -0.04,0.09 -0.09,0.09"
               id="path30"
               style="fill:#ffffff;stroke-width:0px" />
            <path
               class="cls-5"
               d="m 40.93,301.52 c -0.08,0 -0.15,0.07 -0.15,0.15 0,0.02 0,0.04 0.01,0.06 l -0.92,0.92 -0.23,-0.23 v -1.13 h 0.31 c 0.02,0.06 0.08,0.1 0.14,0.1 0.08,0 0.15,-0.07 0.15,-0.15 0,-0.08 -0.07,-0.15 -0.15,-0.15 -0.06,0 -0.12,0.04 -0.14,0.09 h -0.31 v -0.15 h 0.6 c 0.02,0.06 0.08,0.1 0.14,0.1 0.08,0 0.15,-0.07 0.15,-0.15 0,-0.08 -0.07,-0.15 -0.15,-0.15 -0.06,0 -0.12,0.04 -0.14,0.09 h -0.61 v -0.14 h 0.92 c 0.02,0.06 0.08,0.1 0.14,0.1 0.08,0 0.15,-0.07 0.15,-0.15 0,-0.08 -0.07,-0.15 -0.15,-0.15 -0.06,0 -0.12,0.04 -0.14,0.1 h -0.92 v -0.27 l 0.22,-0.24 -0.08,-0.07 -0.85,0.93 v 1.45 c 0.19,0.19 0.37,0.37 0.56,0.56 v 0 l 0.07,0.07 h 0.71 c 0.14,-0.14 0.28,-0.28 0.41,-0.41 0.02,0 0.04,0.01 0.06,0.01 0.08,0 0.15,-0.07 0.15,-0.15 0,-0.08 -0.07,-0.15 -0.15,-0.15 -0.08,0 -0.15,0.07 -0.15,0.15 0,0.02 0,0.04 0.01,0.06 L 40.21,303 h -0.18 l 0.72,-0.72 c 0,0 0.04,0.01 0.06,0.01 0.08,0 0.15,-0.07 0.15,-0.15 0,-0.08 -0.07,-0.15 -0.15,-0.15 -0.08,0 -0.15,0.07 -0.15,0.15 0,0.02 0,0.04 0.01,0.06 l -0.79,0.79 h -0.23 l 0.05,-0.05 0.07,-0.07 1.07,-1.07 c 0,0 0.04,0.01 0.06,0.01 0.08,0 0.15,-0.07 0.15,-0.15 0,-0.08 -0.07,-0.15 -0.15,-0.15 m -0.83,-0.37 c 0,0 0.09,0.04 0.09,0.09 0,0.05 -0.04,0.09 -0.09,0.09 -0.05,0 -0.09,-0.04 -0.09,-0.09 0,-0.05 0.04,-0.09 0.09,-0.09 m 0.29,-0.25 c 0,0 0.09,0.04 0.09,0.09 0,0.05 -0.04,0.09 -0.09,0.09 -0.05,0 -0.09,-0.04 -0.09,-0.09 0,-0.05 0.04,-0.09 0.09,-0.09 m 0.31,-0.25 c 0,0 0.09,0.04 0.09,0.09 0,0.05 -0.04,0.09 -0.09,0.09 -0.05,0 -0.09,-0.04 -0.09,-0.09 0,-0.05 0.04,-0.09 0.09,-0.09 m 0.13,1.42 c 0,0 0.09,0.04 0.09,0.09 0,0.05 -0.04,0.09 -0.09,0.09 -0.05,0 -0.09,-0.04 -0.09,-0.09 0,-0.05 0.04,-0.09 0.09,-0.09 m -0.08,0.41 c 0,0 0.09,0.04 0.09,0.09 0,0.05 -0.04,0.09 -0.09,0.09 -0.05,0 -0.09,-0.04 -0.09,-0.09 0,-0.05 0.04,-0.09 0.09,-0.09 m -1.18,0.49 -0.52,-0.52 v -1.37 l 0.18,-0.2 v 1.59 0 l 0.42,0.42 z m -0.24,-0.55 v -1.66 l 0.21,-0.22 v 1.93 l 0.27,0.27 -0.08,0.08 -0.39,-0.39 v 0 z m 1.6,-0.66 c 0,0 -0.09,-0.04 -0.09,-0.09 0,-0.05 0.04,-0.09 0.09,-0.09 0.05,0 0.09,0.04 0.09,0.09 0,0.05 -0.04,0.09 -0.09,0.09"
               id="path31"
               style="fill:#ffffff;stroke-width:0px" />
            <path
               class="cls-5"
               d="m 39.01,300.69 0.48,-0.52 v 0 c 0,0 0.2,-0.22 0.2,-0.22 l -0.08,-0.07 -0.12,0.13 v -0.54 h 1.31 c 0.02,0.06 0.08,0.1 0.14,0.1 0.08,0 0.15,-0.07 0.15,-0.15 0,-0.08 -0.07,-0.15 -0.15,-0.15 -0.06,0 -0.12,0.04 -0.14,0.1 h -1.69 l 0.12,-0.14 h 1.17 c 0.02,0.06 0.08,0.1 0.14,0.1 0.08,0 0.15,-0.07 0.15,-0.15 0,-0.08 -0.07,-0.15 -0.15,-0.15 -0.06,0 -0.12,0.04 -0.14,0.1 h -1.07 l 0.14,-0.15 H 40 c 0.02,0.06 0.08,0.1 0.14,0.1 0.08,0 0.15,-0.07 0.15,-0.15 0,-0.08 -0.07,-0.15 -0.15,-0.15 -0.06,0 -0.12,0.04 -0.14,0.09 h -0.58 c -0.16,0.18 -0.33,0.36 -0.49,0.54 0,0.42 0,0.84 0,1.26 v 0.12 c 0,0 0.05,-0.06 0.08,-0.09 m 1.93,-1.36 c 0,0 0.09,0.04 0.09,0.09 0,0.05 -0.04,0.09 -0.09,0.09 -0.05,0 -0.09,-0.04 -0.09,-0.09 0,-0.05 0.04,-0.09 0.09,-0.09 m -0.4,-0.24 c 0,0 0.09,0.04 0.09,0.09 0,0.05 -0.04,0.09 -0.09,0.09 -0.05,0 -0.09,-0.04 -0.09,-0.09 0,-0.05 0.04,-0.09 0.09,-0.09 m -0.4,-0.26 c 0,0 0.09,0.04 0.09,0.09 0,0.05 -0.04,0.09 -0.09,0.09 -0.05,0 -0.09,-0.04 -0.09,-0.09 0,-0.05 0.04,-0.09 0.09,-0.09 m -1.1,0.64 h 0.12 v 0.91 l -0.12,0.13 z m 0.35,0.66 -0.12,0.13 v -0.79 h 0.12 z"
               id="path32"
               style="fill:#ffffff;stroke-width:0px" />
            <path
               class="cls-5"
               d="m 42.7,302.26 c -0.06,0 -0.11,0.05 -0.11,0.11 0,0 0,0.02 0,0.02 l -0.29,0.27 -0.13,-0.13 0.28,-0.27 c 0,0 0.03,0.01 0.05,0.01 0.06,0 0.11,-0.05 0.11,-0.11 0,-0.06 -0.05,-0.11 -0.11,-0.11 -0.06,0 -0.11,0.05 -0.11,0.11 0,0 0,0.01 0,0.02 l -0.3,0.28 -0.04,-0.04 v -1.99 c 0.06,-0.02 0.1,-0.08 0.1,-0.14 0,-0.08 -0.07,-0.15 -0.15,-0.15 -0.08,0 -0.15,0.07 -0.15,0.15 0,0.06 0.04,0.12 0.1,0.14 v 2.03 c 0,0 0.05,0.05 0.07,0.07 l -0.08,0.07 -0.2,-0.2 v -1.79 c 0.06,-0.02 0.1,-0.08 0.1,-0.14 0,-0.08 -0.07,-0.15 -0.15,-0.15 -0.08,0 -0.15,0.07 -0.15,0.15 0,0.06 0.04,0.11 0.09,0.14 v 1.83 c 0.08,0.08 0.15,0.15 0.23,0.23 l -0.09,0.09 -0.33,-0.33 v -1.62 c 0.06,-0.02 0.1,-0.08 0.1,-0.14 0,-0.08 -0.07,-0.15 -0.15,-0.15 -0.08,0 -0.15,0.07 -0.15,0.15 0,0.06 0.04,0.12 0.1,0.14 v 1.66 l 0.64,0.63 c 0.23,-0.21 0.46,-0.43 0.68,-0.64 0.01,0 0.03,0 0.04,0 0.06,0 0.11,-0.05 0.11,-0.11 0,-0.06 -0.05,-0.11 -0.11,-0.11 m -0.2,-0.14 c 0,0 0.05,0.02 0.05,0.05 0,0.03 -0.02,0.05 -0.05,0.05 -0.03,0 -0.05,-0.02 -0.05,-0.05 0,-0.03 0.02,-0.05 0.05,-0.05 m -0.59,-1.82 c 0,0 0.04,-0.09 0.09,-0.09 0.05,0 0.09,0.04 0.09,0.09 0,0.05 -0.04,0.09 -0.09,0.09 -0.05,0 -0.09,-0.04 -0.09,-0.09 m -0.31,0.18 c 0,0 0.04,-0.09 0.09,-0.09 0.05,0 0.09,0.04 0.09,0.09 0,0.05 -0.04,0.09 -0.09,0.09 -0.05,0 -0.09,-0.04 -0.09,-0.09 m 0.48,2.13 0.13,0.13 -0.08,0.07 -0.13,-0.13 z m -0.15,0.14 0.13,0.13 -0.09,0.09 -0.13,-0.13 z m -0.64,-2.07 c 0,0 0.04,-0.09 0.09,-0.09 0.05,0 0.09,0.04 0.09,0.09 0,0.05 -0.04,0.09 -0.09,0.09 -0.05,0 -0.09,-0.04 -0.09,-0.09 m 1.4,1.74 c 0,0 -0.05,-0.02 -0.05,-0.05 0,-0.03 0.02,-0.05 0.05,-0.05 0.03,0 0.05,0.02 0.05,0.05 0,0.03 -0.02,0.05 -0.05,0.05"
               id="path33"
               style="fill:#ffffff;stroke-width:0px" />
            <path
               class="cls-5"
               d="m 41.33,300.21 c 0,0 0.05,-0.05 0.08,-0.07 l 0.65,-0.63 v -0.64 h -0.35 v 0.53 h -0.14 v -0.23 c 0.06,-0.02 0.1,-0.08 0.1,-0.14 0,-0.08 -0.07,-0.15 -0.15,-0.15 -0.08,0 -0.15,0.07 -0.15,0.15 0,0.06 0.04,0.12 0.1,0.14 v 0.23 h -0.13 v 0.11 0 0.72 0 z m 0.1,-1.2 c 0,0 0.04,-0.09 0.09,-0.09 0.05,0 0.09,0.04 0.09,0.09 0,0.05 -0.04,0.09 -0.09,0.09 -0.05,0 -0.09,-0.04 -0.09,-0.09 m 0.52,-0.05 v 0.49 l -0.14,0.14 v -0.63 z m -0.24,0.53 v 0.2 l -0.27,0.26 v -0.47 h 0.27 z"
               id="path34"
               style="fill:#ffffff;stroke-width:0px" />
          </g>
          <path
             class="cls-5"
             d="m 68.96,276.48 c 0,0 -0.03,-0.77 0.65,-0.78 0.68,-0.01 0.63,0.75 0.63,0.75 0,0 0.12,0.83 -0.64,0.85 -0.76,0.03 -0.64,-0.83 -0.64,-0.83 v 0 z m 0.56,3.13 c 0.76,-0.03 0.64,-0.85 0.64,-0.85 0,0 0.04,-0.76 -0.63,-0.75 -0.67,0 -0.65,0.78 -0.65,0.78 0,0 -0.12,0.85 0.64,0.83 v 0 z m -0.31,2.29 c 0.76,0 0.67,-0.83 0.67,-0.83 0,0 0.07,-0.75 -0.6,-0.77 -0.67,-0.02 -0.67,0.75 -0.67,0.75 0,0 -0.15,0.85 0.61,0.85 v 0 z m -0.51,2.26 c 0.76,0.1 0.77,-0.74 0.77,-0.74 0,0 0.16,-0.74 -0.5,-0.84 -0.66,-0.1 -0.76,0.66 -0.76,0.66 0,0 -0.26,0.82 0.5,0.92 v 0 z m -0.71,2.17 c 0.75,0.15 0.81,-0.68 0.81,-0.68 0,0 0.21,-0.73 -0.45,-0.87 -0.66,-0.14 -0.8,0.61 -0.8,0.61 0,0 -0.31,0.8 0.44,0.95 z m -0.84,2.16 c 0.73,0.22 0.88,-0.6 0.88,-0.6 0,0 0.28,-0.7 -0.36,-0.91 -0.64,-0.21 -0.86,0.53 -0.86,0.53 0,0 -0.39,0.77 0.34,0.99 z m -1.05,2.07 c 0.7,0.29 0.94,-0.51 0.94,-0.51 0,0 0.35,-0.67 -0.26,-0.94 -0.61,-0.27 -0.91,0.44 -0.91,0.44 0,0 -0.46,0.72 0.24,1.02 v 0 z m -1.2,1.98 c 0.66,0.37 0.99,-0.4 0.99,-0.4 0,0 0.43,-0.63 -0.15,-0.97 -0.58,-0.34 -0.96,0.33 -0.96,0.33 0,0 -0.55,0.67 0.12,1.04 z m -1.32,1.88 c 0.62,0.45 1.03,-0.28 1.03,-0.28 0,0 0.5,-0.57 -0.04,-0.98 -0.54,-0.41 -0.99,0.21 -0.99,0.21 0,0 -0.62,0.6 0,1.04 z m -1.46,1.78 c 0.58,0.49 1.05,-0.2 1.05,-0.2 0,0 0.54,-0.53 0.04,-0.98 -0.5,-0.45 -1,0.14 -1,0.14 0,0 -0.66,0.55 -0.08,1.04 z m -1.62,1.65 c 0.52,0.56 1.06,-0.07 1.06,-0.07 0,0 0.6,-0.46 0.16,-0.97 -0.44,-0.51 -1.01,0.01 -1.01,0.01 0,0 -0.73,0.46 -0.21,1.02 v 0 z m -1.69,1.59 c 0.52,0.56 1.06,-0.07 1.06,-0.07 0,0 0.6,-0.46 0.16,-0.97 -0.44,-0.51 -1.01,0.01 -1.01,0.01 0,0 -0.73,0.46 -0.21,1.02 v 0 z m -1.77,1.46 c 0.52,0.56 1.06,-0.07 1.06,-0.07 0,0 0.6,-0.46 0.16,-0.97 -0.44,-0.51 -1.01,0.01 -1.01,0.01 0,0 -0.73,0.46 -0.21,1.02 v 0 z m -1.89,1.33 c 0.52,0.56 1.06,-0.07 1.06,-0.07 0,0 0.6,-0.46 0.16,-0.97 -0.44,-0.51 -1.01,0.01 -1.01,0.01 0,0 -0.73,0.46 -0.21,1.02 v 0 z m -2.07,1 c 0.41,0.64 1.06,0.12 1.06,0.12 0,0 0.67,-0.35 0.33,-0.92 -0.34,-0.57 -1,-0.17 -1,-0.17 0,0 -0.8,0.33 -0.39,0.97 z m -2.09,0.97 c 0.34,0.68 1.04,0.22 1.04,0.22 0,0 0.7,-0.28 0.42,-0.89 -0.29,-0.61 -0.97,-0.26 -0.97,-0.26 0,0 -0.82,0.25 -0.48,0.93 v 0 z m -2.18,0.77 c 0.26,0.72 1,0.35 1,0.35 0,0 0.73,-0.19 0.52,-0.83 -0.21,-0.64 -0.94,-0.38 -0.94,-0.38 0,0 -0.85,0.14 -0.59,0.86 z m -2.22,0.63 c 0.21,0.73 0.98,0.41 0.98,0.41 0,0 0.74,-0.15 0.57,-0.8 -0.17,-0.65 -0.91,-0.43 -0.91,-0.43 0,0 -0.86,0.09 -0.64,0.82 z m -2.24,0.47 c 0.17,0.74 0.96,0.46 0.96,0.46 0,0 0.75,-0.1 0.61,-0.76 -0.14,-0.66 -0.89,-0.49 -0.89,-0.49 0,0 -0.86,0.04 -0.69,0.78 v 0 z m -2.33,0.24 c 0.1,0.75 0.91,0.55 0.91,0.55 0,0 0.76,-0.03 0.68,-0.7 -0.07,-0.67 -0.84,-0.57 -0.84,-0.57 0,0 -0.86,-0.04 -0.76,0.72 z m -2.27,0.13 c 0.04,0.76 0.86,0.62 0.86,0.62 0,0 0.76,0.03 0.74,-0.64 -0.02,-0.67 -0.79,-0.63 -0.79,-0.63 0,0 -0.85,-0.11 -0.81,0.65 z m -2.31,-0.03 c 0.04,0.76 0.86,0.62 0.86,0.62 0,0 0.76,0.03 0.74,-0.64 -0.02,-0.67 -0.79,-0.63 -0.79,-0.63 0,0 -0.85,-0.11 -0.81,0.65 z m -2.28,-0.27 c -0.04,0.76 0.8,0.71 0.8,0.71 0,0 0.75,0.1 0.8,-0.57 0.05,-0.67 -0.72,-0.71 -0.72,-0.71 0,0 -0.84,-0.19 -0.87,0.57 v 0 z m -2.26,-0.42 c -0.07,0.76 0.76,0.75 0.76,0.75 0,0 0.74,0.14 0.83,-0.53 0.09,-0.67 -0.68,-0.74 -0.68,-0.74 0,0 -0.83,-0.23 -0.9,0.52 v 0 z m -2.23,-0.57 c -0.12,0.75 0.71,0.79 0.71,0.79 0,0 0.73,0.19 0.86,-0.47 0.12,-0.66 -0.63,-0.78 -0.63,-0.78 0,0 -0.81,-0.29 -0.93,0.47 v 0 z m -2.16,-0.78 c -0.2,0.73 0.63,0.86 0.63,0.86 0,0 0.71,0.26 0.9,-0.38 0.19,-0.65 -0.55,-0.85 -0.55,-0.85 0,0 -0.78,-0.37 -0.98,0.37 z m -2.2,-0.88 c -0.2,0.73 0.62,0.86 0.62,0.86 0,0 0.71,0.26 0.9,-0.38 0.19,-0.65 -0.55,-0.85 -0.55,-0.85 0,0 -0.78,-0.37 -0.98,0.37 v 0 z m -1.96,-1.15 c -0.28,0.71 0.52,0.93 0.52,0.93 0,0 0.67,0.34 0.94,-0.27 0.27,-0.62 -0.45,-0.9 -0.45,-0.9 0,0 -0.73,-0.46 -1.01,0.25 v 0 z m -1.95,-1.27 c -0.39,0.65 0.37,1 0.37,1 0,0 0.61,0.45 0.97,-0.12 0.36,-0.57 -0.3,-0.96 -0.3,-0.96 0,0 -0.65,-0.57 -1.04,0.09 v 0 z m -1.8,-1.44 c -0.47,0.6 0.23,1.04 0.23,1.04 0,0 0.55,0.52 0.98,0 0.43,-0.52 -0.17,-1 -0.17,-1 0,0 -0.57,-0.65 -1.04,-0.05 z m -1.76,-1.5 c -0.49,0.58 0.21,1.04 0.21,1.04 0,0 0.53,0.54 0.98,0.03 0.44,-0.51 -0.14,-1 -0.14,-1 0,0 -0.55,-0.66 -1.04,-0.08 z m -1.58,-1.63 c -0.54,0.54 0.11,1.06 0.11,1.06 0,0 0.49,0.58 0.97,0.12 0.49,-0.46 -0.06,-1.01 -0.06,-1.01 0,0 -0.49,-0.71 -1.03,-0.17 v 0 z m -1.56,-1.73 c -0.54,0.54 0.11,1.06 0.11,1.06 0,0 0.49,0.58 0.97,0.12 0.49,-0.46 -0.06,-1.01 -0.06,-1.01 0,0 -0.49,-0.71 -1.03,-0.17 v 0 z m -1.31,-1.87 c -0.58,0.49 0.03,1.06 0.03,1.06 0,0 0.44,0.62 0.96,0.2 0.52,-0.42 0.02,-1.01 0.02,-1.01 0,0 -0.43,-0.74 -1.01,-0.25 z m -1.15,-2.04 c -0.65,0.4 -0.14,1.06 -0.14,1.06 0,0 0.34,0.68 0.92,0.34 0.58,-0.34 0.18,-0.99 0.18,-0.99 0,0 -0.31,-0.8 -0.96,-0.4 v 0 z m -1.08,-2.03 c -0.65,0.4 -0.14,1.06 -0.14,1.06 0,0 0.34,0.68 0.92,0.34 0.58,-0.34 0.18,-0.99 0.18,-0.99 0,0 -0.31,-0.8 -0.96,-0.4 v 0 z m -0.98,-2.1 c -0.65,0.4 -0.14,1.06 -0.14,1.06 0,0 0.34,0.68 0.92,0.34 0.58,-0.34 0.18,-0.99 0.18,-0.99 0,0 -0.31,-0.8 -0.96,-0.4 v 0 z m -0.61,-2.19 c -0.7,0.3 -0.28,1.03 -0.28,1.03 0,0 0.24,0.72 0.86,0.47 0.62,-0.25 0.32,-0.96 0.32,-0.96 0,0 -0.2,-0.84 -0.9,-0.53 v 0 z m -0.5,-2.28 c -0.73,0.21 -0.41,0.98 -0.41,0.98 0,0 0.15,0.74 0.8,0.57 0.65,-0.17 0.44,-0.91 0.44,-0.91 0,0 -0.09,-0.86 -0.82,-0.64 v 0 z m -0.38,-2.3 c -0.74,0.16 -0.47,0.95 -0.47,0.95 0,0 0.1,0.75 0.76,0.62 0.66,-0.13 0.5,-0.88 0.5,-0.88 0,0 -0.03,-0.86 -0.78,-0.7 v 0 z m -0.14,-2.33 c -0.76,0.06 -0.6,0.88 -0.6,0.88 0,0 -0.01,0.76 0.66,0.72 0.67,-0.04 0.61,-0.8 0.61,-0.8 0,0 0.09,-0.86 -0.67,-0.8 z m -0.06,-2.26 c -0.76,0.05 -0.61,0.87 -0.61,0.87 0,0 -0.02,0.76 0.65,0.73 0.67,-0.03 0.62,-0.79 0.62,-0.79 0,0 0.1,-0.85 -0.66,-0.81 z m 0.2,-2.3 c -0.76,-0.01 -0.68,0.82 -0.68,0.82 0,0 -0.08,0.75 0.59,0.78 0.67,0.03 0.69,-0.74 0.69,-0.74 0,0 0.17,-0.84 -0.59,-0.86 v 0 z m 0.27,-2.27 c -0.76,-0.01 -0.68,0.82 -0.68,0.82 0,0 -0.08,0.75 0.59,0.78 0.67,0.03 0.69,-0.74 0.69,-0.74 0,0 0.17,-0.84 -0.59,-0.86 v 0 z m 0.55,-2.27 c -0.76,-0.09 -0.76,0.74 -0.76,0.74 0,0 -0.16,0.74 0.51,0.84 0.67,0.1 0.76,-0.67 0.76,-0.67 0,0 0.25,-0.82 -0.5,-0.91 z m 0.67,-2.2 c -0.75,-0.14 -0.81,0.69 -0.81,0.69 0,0 -0.2,0.73 0.45,0.87 0.66,0.14 0.8,-0.62 0.8,-0.62 0,0 0.3,-0.8 -0.45,-0.94 z m 0.89,-2.15 c -0.72,-0.25 -0.91,0.56 -0.91,0.56 0,0 -0.32,0.69 0.31,0.93 0.63,0.24 0.88,-0.49 0.88,-0.49 0,0 0.42,-0.75 -0.29,-1 v 0 z m 1.04,-2.04 c -0.69,-0.33 -0.96,0.46 -0.96,0.46 0,0 -0.39,0.65 0.22,0.96 0.6,0.3 0.93,-0.39 0.93,-0.39 0,0 0.5,-0.7 -0.19,-1.03 z m 1.14,-2 c -0.67,-0.37 -0.98,0.4 -0.98,0.4 0,0 -0.42,0.63 0.16,0.97 0.58,0.34 0.95,-0.34 0.95,-0.34 0,0 0.54,-0.67 -0.13,-1.04 v 0 z m 1.34,-1.87 c -0.62,-0.44 -1.02,0.29 -1.02,0.29 0,0 -0.49,0.58 0.05,0.98 0.54,0.4 0.98,-0.23 0.98,-0.23 0,0 0.61,-0.61 -0.01,-1.04 z m 1.43,-1.8 c -0.62,-0.44 -1.02,0.29 -1.02,0.29 0,0 -0.49,0.58 0.05,0.98 0.54,0.4 0.98,-0.23 0.98,-0.23 0,0 0.61,-0.61 -0.01,-1.04 z m 1.63,-1.66 c -0.55,-0.52 -1.05,0.14 -1.05,0.14 0,0 -0.57,0.5 -0.09,0.98 0.48,0.47 1.01,-0.08 1.01,-0.08 0,0 0.69,-0.51 0.14,-1.03 v 0 z m 1.68,-1.53 c -0.53,-0.55 -1.06,0.09 -1.06,0.09 0,0 -0.59,0.47 -0.14,0.97 0.46,0.5 1.01,-0.04 1.01,-0.04 0,0 0.72,-0.48 0.19,-1.03 v 0 z m 1.84,-1.39 c -0.49,-0.59 -1.06,0.02 -1.06,0.02 0,0 -0.62,0.43 -0.21,0.96 0.42,0.53 1.01,0.04 1.01,0.04 0,0 0.75,-0.43 0.26,-1.01 z m 1.91,-1.33 c -0.49,-0.59 -1.06,0.02 -1.06,0.02 0,0 -0.62,0.43 -0.21,0.96 0.41,0.53 1.01,0.04 1.01,0.04 0,0 0.75,-0.43 0.26,-1.01 z m 2.04,-1.09 c -0.43,-0.63 -1.06,-0.08 -1.06,-0.08 0,0 -0.66,0.37 -0.29,0.93 0.37,0.56 1,0.13 1,0.13 0,0 0.78,-0.35 0.35,-0.98 z m 2.06,-0.96 c -0.37,-0.67 -1.05,-0.18 -1.05,-0.18 0,0 -0.69,0.3 -0.38,0.9 0.31,0.6 0.98,0.23 0.98,0.23 0,0 0.81,-0.28 0.45,-0.94 z m 2.22,-0.76 c -0.3,-0.7 -1.03,-0.28 -1.03,-0.28 0,0 -0.72,0.24 -0.46,0.86 0.25,0.62 0.96,0.32 0.96,0.32 0,0 0.84,-0.2 0.53,-0.9 z m 2.18,-0.63 c -0.25,-0.72 -1,-0.36 -1,-0.36 0,0 -0.74,0.18 -0.53,0.83 0.21,0.64 0.93,0.39 0.93,0.39 0,0 0.85,-0.14 0.6,-0.85 v 0 z m 2.27,-0.46 c -0.21,-0.73 -0.98,-0.41 -0.98,-0.41 0,0 -0.74,0.14 -0.57,0.79 0.17,0.65 0.91,0.44 0.91,0.44 0,0 0.86,-0.09 0.65,-0.82 v 0 z m 2.3,-0.2 c -0.12,-0.75 -0.92,-0.53 -0.92,-0.53 0,0 -0.76,0.05 -0.67,0.72 0.09,0.67 0.85,0.55 0.85,0.55 0,0 0.86,0.02 0.74,-0.73 v 0 z m 2.31,-0.12 c -0.09,-0.76 -0.9,-0.57 -0.9,-0.57 0,0 -0.76,0.02 -0.69,0.69 0.06,0.67 0.83,0.58 0.83,0.58 0,0 0.86,0.05 0.77,-0.71 v 0 z m 2.3,0.04 c -0.05,-0.76 -0.87,-0.61 -0.87,-0.61 0,0 -0.76,-0.02 -0.73,0.65 0.03,0.67 0.79,0.63 0.79,0.63 0,0 0.85,0.1 0.81,-0.66 v 0 z m 2.28,0.22 c -0.02,-0.76 -0.85,-0.64 -0.85,-0.64 0,0 -0.76,-0.05 -0.75,0.63 0,0.67 0.77,0.65 0.77,0.65 0,0 0.85,0.13 0.83,-0.63 z m 2.28,0.41 c 0.03,-0.76 -0.8,-0.7 -0.8,-0.7 0,0 -0.75,-0.09 -0.79,0.58 -0.04,0.67 0.73,0.7 0.73,0.7 0,0 0.84,0.18 0.87,-0.58 z m 2.23,0.59 c 0.05,-0.76 -0.78,-0.72 -0.78,-0.72 0,0 -0.75,-0.12 -0.81,0.55 -0.06,0.67 0.71,0.72 0.71,0.72 0,0 0.84,0.21 0.88,-0.55 z m 2.17,0.84 c 0.16,-0.74 -0.66,-0.83 -0.66,-0.83 0,0 -0.72,-0.23 -0.88,0.42 -0.16,0.65 0.59,0.82 0.59,0.82 0,0 0.79,0.33 0.96,-0.41 v 0 z m 2.09,1 c 0.29,-0.7 -0.51,-0.94 -0.51,-0.94 0,0 -0.67,-0.35 -0.94,0.26 -0.27,0.61 0.43,0.91 0.43,0.91 0,0 0.72,0.47 1.02,-0.24 v 0 z m 2.01,1.09 c 0.32,-0.69 -0.47,-0.95 -0.47,-0.95 0,0 -0.66,-0.38 -0.95,0.23 -0.3,0.6 0.4,0.93 0.4,0.93 0,0 0.71,0.49 1.02,-0.2 v 0 z m 1.94,1.28 c 0.4,-0.65 -0.36,-1 -0.36,-1 0,0 -0.61,-0.45 -0.97,0.11 -0.37,0.57 0.29,0.97 0.29,0.97 0,0 0.64,0.57 1.04,-0.08 z m 1.85,1.37 c 0.42,-0.63 -0.32,-1.02 -0.32,-1.02 0,0 -0.59,-0.48 -0.98,0.08 -0.39,0.55 0.25,0.98 0.25,0.98 0,0 0.62,0.6 1.04,-0.04 v 0 z m 1.73,1.54 c 0.46,-0.61 -0.26,-1.03 -0.26,-1.03 0,0 -0.56,-0.51 -0.98,0.02 -0.42,0.53 0.19,0.99 0.19,0.99 0,0 0.58,0.63 1.04,0.03 v 0 z m 1.62,1.62 c 0.49,-0.58 -0.2,-1.04 -0.2,-1.04 0,0 -0.53,-0.54 -0.98,-0.04 -0.45,0.5 0.14,1 0.14,1 0,0 0.55,0.66 1.04,0.08 z m 1.49,1.76 c 0.53,-0.55 -0.13,-1.06 -0.13,-1.06 0,0 -0.5,-0.57 -0.97,-0.1 -0.47,0.47 0.08,1.01 0.08,1.01 0,0 0.51,0.7 1.03,0.15 z m 1.33,1.87 c 0.57,-0.51 -0.06,-1.06 -0.06,-1.06 0,0 -0.46,-0.61 -0.96,-0.17 -0.51,0.44 0,1.01 0,1.01 0,0 0.46,0.73 1.02,0.22 z m 1.22,1.98 c 0.6,-0.47 0,-1.06 0,-1.06 0,0 -0.41,-0.63 -0.95,-0.23 -0.54,0.41 -0.06,1.01 -0.06,1.01 0,0 0.41,0.76 1,0.29 z m 1.03,2.04 c 0.6,-0.47 0,-1.06 0,-1.06 0,0 -0.41,-0.63 -0.95,-0.23 -0.54,0.41 -0.06,1.01 -0.06,1.01 0,0 0.41,0.76 1,0.29 z m 0.8,2.2 c 0.68,-0.34 0.23,-1.04 0.23,-1.04 0,0 -0.27,-0.71 -0.88,-0.42 -0.61,0.28 -0.27,0.97 -0.27,0.97 0,0 0.24,0.83 0.92,0.49 z m 0.75,2.17 c 0.68,-0.34 0.23,-1.04 0.23,-1.04 0,0 -0.27,-0.71 -0.88,-0.42 -0.61,0.28 -0.27,0.97 -0.27,0.97 0,0 0.24,0.83 0.92,0.49 z m 0.47,2.26 c 0.73,-0.23 0.39,-0.99 0.39,-0.99 0,0 -0.16,-0.74 -0.81,-0.55 -0.65,0.19 -0.41,0.92 -0.41,0.92 0,0 0.11,0.85 0.84,0.62 z m 0.26,2.3 c 0.75,-0.11 0.54,-0.91 0.54,-0.91 0,0 -0.04,-0.76 -0.71,-0.68 -0.67,0.08 -0.56,0.84 -0.56,0.84 0,0 -0.03,0.86 0.72,0.75 v 0 z m 0.25,2.25 c 0.75,-0.11 0.54,-0.91 0.54,-0.91 0,0 -0.04,-0.76 -0.71,-0.68 -0.67,0.08 -0.56,0.84 -0.56,0.84 0,0 -0.03,0.86 0.72,0.75 v 0 z"
             id="path35"
             style="fill:#ffffff;stroke-width:0px" />
          <g
             id="g38">
            <path
               class="cls-5"
               d="m 16.58,286.74 c 0.37,0.27 0.69,0.64 0.93,0.94 0.12,0.15 0.21,0.29 0.28,0.38 0.07,0.1 0.11,0.16 0.11,0.16 0,0 -0.17,0.08 -0.45,0.1 -0.28,0.02 -0.66,-0.01 -1.07,-0.26 -0.41,-0.25 -0.74,-0.69 -0.97,-1.06 -0.05,-0.09 -0.1,-0.19 -0.14,-0.27 -0.04,-0.08 -0.07,-0.16 -0.1,-0.22 -0.05,-0.13 -0.08,-0.2 -0.08,-0.2 0,0 0.19,-0.03 0.47,0 0.14,0.02 0.3,0.06 0.48,0.12 0.18,0.07 0.36,0.16 0.55,0.29 v 0 z m 1.26,3.16 c -0.2,-0.05 -0.38,-0.07 -0.54,-0.07 -0.16,0 -0.29,0.01 -0.37,0.03 -0.09,0.02 -0.14,0.03 -0.14,0.03 0,0 0.04,0.08 0.12,0.21 0.08,0.13 0.19,0.3 0.33,0.49 0.29,0.38 0.71,0.81 1.19,1.03 0.24,0.12 0.47,0.17 0.67,0.19 0.2,0.02 0.39,0 0.54,-0.03 0.3,-0.06 0.48,-0.17 0.48,-0.17 0,0 -0.05,-0.06 -0.14,-0.16 -0.04,-0.05 -0.1,-0.11 -0.16,-0.17 -0.06,-0.07 -0.13,-0.14 -0.2,-0.21 -0.3,-0.3 -0.69,-0.67 -1.14,-0.92 -0.22,-0.12 -0.44,-0.2 -0.63,-0.25 v 0 z m 2.27,3.46 c -0.22,0 -0.43,0.04 -0.59,0.08 -0.33,0.08 -0.53,0.2 -0.53,0.2 0,0 0.06,0.07 0.18,0.19 0.06,0.06 0.13,0.13 0.22,0.2 0.08,0.07 0.18,0.16 0.28,0.24 0.42,0.33 1.02,0.67 1.61,0.77 0.3,0.04 0.56,0.03 0.78,-0.01 0.22,-0.05 0.41,-0.13 0.55,-0.22 0.15,-0.08 0.25,-0.17 0.33,-0.24 0.07,-0.07 0.11,-0.11 0.11,-0.11 0,0 -0.07,-0.05 -0.2,-0.12 -0.06,-0.04 -0.14,-0.08 -0.22,-0.12 -0.08,-0.05 -0.18,-0.1 -0.28,-0.16 -0.42,-0.21 -0.94,-0.48 -1.49,-0.61 -0.27,-0.07 -0.52,-0.09 -0.75,-0.09 z m 3.45,2.92 c -0.14,0 -0.27,0.01 -0.39,0.03 -0.24,0.03 -0.46,0.1 -0.64,0.16 -0.17,0.06 -0.31,0.13 -0.41,0.19 -0.09,0.06 -0.14,0.09 -0.14,0.09 0,0 0.08,0.08 0.23,0.19 0.07,0.06 0.16,0.12 0.27,0.19 0.1,0.07 0.22,0.15 0.35,0.22 0.51,0.3 1.22,0.58 1.86,0.59 0.65,0.01 1.1,-0.23 1.39,-0.45 0.14,-0.11 0.25,-0.23 0.32,-0.31 0.07,-0.08 0.1,-0.14 0.1,-0.14 0,0 -0.09,-0.04 -0.23,-0.09 -0.07,-0.03 -0.16,-0.06 -0.26,-0.1 -0.05,-0.02 -0.1,-0.04 -0.16,-0.06 -0.05,-0.02 -0.11,-0.04 -0.17,-0.06 -0.48,-0.16 -1.09,-0.37 -1.69,-0.43 -0.15,-0.02 -0.3,-0.02 -0.43,-0.02 z m 3.62,2.43 c -0.14,0.03 -0.28,0.08 -0.4,0.13 -0.12,0.05 -0.24,0.1 -0.34,0.16 -0.1,0.06 -0.2,0.11 -0.28,0.17 -0.17,0.11 -0.3,0.22 -0.38,0.3 -0.08,0.08 -0.13,0.14 -0.13,0.14 0,0 0.11,0.06 0.29,0.14 0.09,0.04 0.2,0.09 0.33,0.14 0.13,0.05 0.27,0.1 0.42,0.15 0.62,0.19 1.43,0.3 2.12,0.14 0.34,-0.07 0.62,-0.21 0.84,-0.36 0.22,-0.15 0.38,-0.32 0.5,-0.48 0.12,-0.16 0.2,-0.3 0.25,-0.41 0.05,-0.1 0.07,-0.17 0.07,-0.17 0,0 -0.1,-0.02 -0.27,-0.04 -0.17,-0.01 -0.4,-0.05 -0.67,-0.07 -0.14,-0.01 -0.28,-0.03 -0.43,-0.04 -0.04,0 -0.08,0 -0.12,0 -0.04,0 -0.08,0 -0.12,0 -0.08,0 -0.16,0 -0.24,-0.01 -0.16,0 -0.33,0 -0.49,0 -0.08,0 -0.17,0 -0.25,0.02 -0.08,0 -0.16,0.01 -0.24,0.02 -0.16,0.02 -0.32,0.05 -0.46,0.09 v 0 z m -9.76,-12.34 c -0.07,0.43 0.05,0.91 0.19,1.27 0.07,0.18 0.14,0.33 0.2,0.43 0.06,0.1 0.09,0.16 0.09,0.16 0,0 0.15,-0.13 0.29,-0.36 0.15,-0.23 0.3,-0.57 0.34,-0.98 0.03,-0.41 -0.04,-0.84 -0.12,-1.16 -0.02,-0.08 -0.04,-0.16 -0.06,-0.22 -0.02,-0.07 -0.03,-0.13 -0.05,-0.17 -0.03,-0.1 -0.05,-0.15 -0.05,-0.15 0,0 -0.17,0.08 -0.37,0.27 -0.1,0.09 -0.2,0.22 -0.29,0.37 -0.08,0.15 -0.16,0.33 -0.19,0.55 z m 1.92,3.26 c -0.01,0.48 0.17,0.99 0.37,1.36 0.05,0.09 0.1,0.18 0.14,0.26 0.05,0.08 0.09,0.14 0.13,0.19 0.07,0.11 0.12,0.17 0.12,0.17 0,0 0.14,-0.16 0.28,-0.43 0.07,-0.14 0.13,-0.3 0.18,-0.49 0.05,-0.19 0.07,-0.4 0.07,-0.63 -0.01,-0.46 -0.15,-0.92 -0.28,-1.27 -0.07,-0.17 -0.13,-0.32 -0.17,-0.43 -0.05,-0.1 -0.08,-0.16 -0.08,-0.16 0,0 -0.04,0.03 -0.11,0.09 -0.07,0.06 -0.16,0.15 -0.25,0.26 -0.09,0.12 -0.19,0.27 -0.26,0.44 -0.07,0.18 -0.12,0.39 -0.13,0.63 v 0 z m 2.28,3.02 c 0.12,0.51 0.47,0.99 0.8,1.31 0.08,0.08 0.16,0.16 0.23,0.22 0.08,0.06 0.14,0.11 0.2,0.16 0.12,0.09 0.19,0.13 0.19,0.13 0,0 0.02,-0.05 0.05,-0.15 0.03,-0.09 0.06,-0.23 0.09,-0.39 0.02,-0.16 0.04,-0.36 0.02,-0.56 -0.01,-0.21 -0.04,-0.44 -0.12,-0.67 -0.14,-0.46 -0.41,-0.88 -0.63,-1.21 -0.06,-0.08 -0.11,-0.15 -0.16,-0.22 -0.05,-0.07 -0.09,-0.12 -0.13,-0.17 -0.07,-0.1 -0.12,-0.15 -0.12,-0.15 0,0 -0.16,0.17 -0.29,0.47 -0.07,0.15 -0.13,0.33 -0.16,0.54 -0.03,0.21 -0.03,0.44 0.03,0.7 v 0 z m 3.08,2.67 c 0.2,0.53 0.65,0.99 1.06,1.28 0.05,0.04 0.1,0.07 0.15,0.11 0.05,0.03 0.1,0.06 0.14,0.09 0.09,0.06 0.17,0.1 0.24,0.14 0.07,0.04 0.13,0.06 0.16,0.08 0.04,0.02 0.06,0.03 0.06,0.03 0,0 0.02,-0.06 0.03,-0.17 0.02,-0.1 0.03,-0.26 0.03,-0.43 0,-0.37 -0.07,-0.83 -0.29,-1.31 -0.23,-0.48 -0.57,-0.88 -0.84,-1.18 -0.07,-0.07 -0.13,-0.15 -0.19,-0.21 -0.06,-0.06 -0.11,-0.11 -0.16,-0.16 -0.09,-0.09 -0.14,-0.14 -0.14,-0.14 0,0 -0.04,0.05 -0.09,0.14 -0.05,0.09 -0.12,0.23 -0.17,0.4 -0.06,0.17 -0.1,0.37 -0.1,0.6 0,0.11 0,0.23 0.02,0.36 0.02,0.12 0.06,0.25 0.11,0.38 v 0 z m 3.44,2.09 c 0.04,0.06 0.09,0.13 0.14,0.18 0.05,0.06 0.1,0.11 0.16,0.17 0.11,0.11 0.23,0.21 0.36,0.3 0.06,0.04 0.13,0.09 0.19,0.13 0.03,0.02 0.07,0.04 0.1,0.06 0.03,0.02 0.07,0.03 0.1,0.05 0.13,0.07 0.26,0.13 0.39,0.18 0.25,0.09 0.47,0.17 0.64,0.21 0.16,0.04 0.26,0.05 0.26,0.05 0,0 0,-0.07 -0.01,-0.18 -0.01,-0.11 -0.04,-0.28 -0.09,-0.46 -0.05,-0.19 -0.12,-0.4 -0.23,-0.62 -0.1,-0.22 -0.24,-0.45 -0.42,-0.67 -0.36,-0.44 -0.81,-0.77 -1.17,-1.02 -0.09,-0.06 -0.17,-0.12 -0.25,-0.17 -0.08,-0.05 -0.15,-0.09 -0.2,-0.12 -0.11,-0.07 -0.18,-0.11 -0.18,-0.11 0,0 -0.03,0.06 -0.06,0.17 -0.03,0.11 -0.07,0.27 -0.08,0.46 0,0.09 -0.01,0.2 0,0.31 0,0.11 0.02,0.22 0.05,0.34 0.03,0.12 0.06,0.24 0.12,0.37 0.05,0.12 0.12,0.25 0.21,0.37 v 0 z M 15.73,284.55 c 0.13,0.61 0.46,1.1 0.73,1.41 0.07,0.08 0.14,0.15 0.2,0.21 0.06,0.06 0.12,0.11 0.16,0.14 0.09,0.08 0.15,0.12 0.15,0.12 0,0 0.01,-0.07 0.02,-0.19 0,-0.06 0,-0.13 0.01,-0.22 0,-0.08 0,-0.18 0,-0.28 0,-0.41 -0.02,-0.93 -0.14,-1.46 -0.12,-0.54 -0.31,-1.01 -0.47,-1.38 -0.04,-0.09 -0.08,-0.18 -0.11,-0.25 -0.03,-0.07 -0.06,-0.14 -0.09,-0.19 -0.05,-0.11 -0.09,-0.17 -0.09,-0.17 0,0 -0.04,0.06 -0.1,0.17 -0.03,0.05 -0.06,0.12 -0.1,0.2 -0.03,0.08 -0.07,0.17 -0.1,0.27 -0.04,0.1 -0.07,0.22 -0.09,0.34 -0.01,0.06 -0.02,0.12 -0.04,0.19 0,0.07 -0.01,0.13 -0.02,0.2 0,0.07 0,0.14 -0.01,0.21 0,0.07 0,0.14 0,0.22 0,0.07 0.01,0.15 0.02,0.23 0.01,0.07 0.03,0.15 0.04,0.23 v 0 z m 46.69,2.19 c -0.37,0.27 -0.69,0.64 -0.93,0.94 -0.12,0.15 -0.21,0.29 -0.28,0.38 -0.07,0.1 -0.11,0.16 -0.11,0.16 0,0 0.17,0.08 0.45,0.1 0.28,0.02 0.66,-0.01 1.07,-0.26 0.41,-0.25 0.74,-0.69 0.97,-1.06 0.05,-0.09 0.1,-0.19 0.14,-0.27 0.04,-0.08 0.07,-0.16 0.1,-0.22 0.05,-0.13 0.08,-0.2 0.08,-0.2 0,0 -0.19,-0.03 -0.47,0 -0.14,0.02 -0.3,0.06 -0.48,0.12 -0.18,0.07 -0.36,0.16 -0.55,0.29 v 0 z m -1.89,3.41 c -0.44,0.24 -0.84,0.61 -1.14,0.92 -0.08,0.08 -0.14,0.15 -0.2,0.21 -0.06,0.06 -0.11,0.12 -0.16,0.17 -0.09,0.1 -0.14,0.16 -0.14,0.16 0,0 0.18,0.11 0.48,0.17 0.15,0.03 0.33,0.05 0.54,0.03 0.2,-0.02 0.43,-0.07 0.67,-0.19 0.48,-0.23 0.9,-0.66 1.19,-1.03 0.15,-0.19 0.26,-0.36 0.33,-0.49 0.08,-0.13 0.12,-0.21 0.12,-0.21 0,0 -0.05,-0.02 -0.14,-0.03 -0.09,-0.02 -0.22,-0.03 -0.37,-0.03 -0.16,0 -0.34,0.02 -0.54,0.07 -0.2,0.05 -0.42,0.13 -0.63,0.25 v 0 z m -2.38,3.3 c -0.54,0.13 -1.07,0.4 -1.49,0.61 -0.1,0.05 -0.2,0.11 -0.28,0.16 -0.09,0.05 -0.16,0.09 -0.22,0.12 -0.12,0.07 -0.2,0.12 -0.2,0.12 0,0 0.04,0.05 0.11,0.11 0.07,0.07 0.18,0.15 0.33,0.24 0.15,0.08 0.33,0.16 0.55,0.22 0.22,0.05 0.48,0.06 0.78,0.01 0.59,-0.1 1.19,-0.44 1.61,-0.77 0.11,-0.08 0.2,-0.16 0.28,-0.24 0.08,-0.08 0.16,-0.14 0.22,-0.2 0.12,-0.12 0.18,-0.19 0.18,-0.19 0,0 -0.2,-0.13 -0.53,-0.2 -0.16,-0.04 -0.37,-0.07 -0.59,-0.08 -0.22,0 -0.48,0.02 -0.75,0.09 z m -3.14,2.85 c -0.61,0.06 -1.21,0.27 -1.69,0.43 -0.06,0.02 -0.12,0.04 -0.17,0.06 -0.06,0.02 -0.11,0.04 -0.16,0.06 -0.1,0.04 -0.19,0.07 -0.26,0.1 -0.14,0.06 -0.23,0.09 -0.23,0.09 0,0 0.03,0.05 0.1,0.14 0.07,0.09 0.17,0.2 0.32,0.31 0.28,0.22 0.74,0.46 1.39,0.45 0.65,-0.01 1.35,-0.29 1.86,-0.59 0.13,-0.07 0.24,-0.15 0.35,-0.22 0.1,-0.07 0.2,-0.14 0.27,-0.19 0.14,-0.12 0.23,-0.19 0.23,-0.19 0,0 -0.05,-0.04 -0.14,-0.09 -0.09,-0.05 -0.23,-0.12 -0.41,-0.19 -0.17,-0.06 -0.39,-0.12 -0.64,-0.16 -0.12,-0.02 -0.25,-0.03 -0.39,-0.03 -0.14,0 -0.28,0 -0.43,0.02 z m -3.65,2.32 c -0.08,-0.01 -0.16,-0.02 -0.24,-0.02 -0.08,0 -0.17,-0.01 -0.25,-0.02 -0.17,0 -0.33,0 -0.49,0 -0.08,0 -0.16,0 -0.24,0.01 -0.04,0 -0.08,0 -0.12,0 -0.04,0 -0.08,0 -0.12,0 -0.15,0 -0.3,0.02 -0.43,0.04 -0.27,0.02 -0.5,0.06 -0.67,0.07 -0.17,0.02 -0.27,0.04 -0.27,0.04 0,0 0.02,0.07 0.07,0.17 0.05,0.1 0.13,0.25 0.25,0.41 0.12,0.16 0.28,0.33 0.5,0.48 0.22,0.15 0.5,0.29 0.84,0.36 0.69,0.16 1.5,0.05 2.12,-0.14 0.16,-0.05 0.3,-0.1 0.42,-0.15 0.13,-0.05 0.24,-0.09 0.33,-0.14 0.18,-0.08 0.29,-0.14 0.29,-0.14 0,0 -0.04,-0.05 -0.13,-0.14 -0.09,-0.08 -0.21,-0.19 -0.38,-0.3 -0.08,-0.06 -0.18,-0.11 -0.28,-0.17 -0.1,-0.06 -0.22,-0.11 -0.34,-0.16 -0.12,-0.05 -0.26,-0.09 -0.4,-0.13 -0.14,-0.04 -0.3,-0.07 -0.46,-0.09 v 0 z m 10.03,-12.79 c -0.09,-0.15 -0.19,-0.27 -0.29,-0.37 -0.19,-0.19 -0.37,-0.27 -0.37,-0.27 0,0 -0.02,0.06 -0.05,0.15 -0.02,0.05 -0.03,0.11 -0.05,0.17 -0.02,0.07 -0.04,0.14 -0.06,0.22 -0.08,0.32 -0.15,0.75 -0.12,1.16 0.04,0.42 0.19,0.75 0.34,0.98 0.15,0.23 0.29,0.36 0.29,0.36 0,0 0.04,-0.06 0.09,-0.16 0.06,-0.1 0.13,-0.25 0.2,-0.43 0.14,-0.36 0.26,-0.83 0.19,-1.27 -0.03,-0.22 -0.1,-0.4 -0.19,-0.55 z m -1.87,3.18 c -0.08,-0.18 -0.17,-0.33 -0.26,-0.44 -0.09,-0.12 -0.18,-0.21 -0.25,-0.26 -0.07,-0.06 -0.11,-0.09 -0.11,-0.09 0,0 -0.03,0.06 -0.08,0.16 -0.05,0.1 -0.11,0.25 -0.17,0.43 -0.13,0.35 -0.27,0.81 -0.28,1.27 0,0.23 0.02,0.44 0.07,0.63 0.05,0.19 0.11,0.35 0.18,0.49 0.14,0.27 0.28,0.43 0.28,0.43 0,0 0.05,-0.06 0.12,-0.17 0.04,-0.05 0.08,-0.12 0.13,-0.19 0.05,-0.08 0.09,-0.16 0.14,-0.26 0.2,-0.37 0.38,-0.88 0.37,-1.36 0,-0.24 -0.06,-0.45 -0.13,-0.63 v 0 z m -2.11,2.95 c -0.03,-0.21 -0.09,-0.39 -0.16,-0.54 -0.14,-0.3 -0.29,-0.47 -0.29,-0.47 0,0 -0.05,0.05 -0.12,0.15 -0.04,0.05 -0.08,0.1 -0.13,0.17 -0.05,0.07 -0.1,0.14 -0.16,0.22 -0.22,0.32 -0.49,0.74 -0.63,1.21 -0.08,0.23 -0.11,0.46 -0.12,0.67 -0.01,0.21 0,0.4 0.02,0.56 0.02,0.16 0.06,0.3 0.09,0.39 0.03,0.09 0.05,0.15 0.05,0.15 0,0 0.07,-0.05 0.19,-0.13 0.06,-0.04 0.13,-0.09 0.2,-0.16 0.07,-0.06 0.15,-0.14 0.23,-0.22 0.33,-0.32 0.68,-0.8 0.8,-1.31 0.06,-0.26 0.06,-0.49 0.03,-0.7 v 0 z m -3,2.99 c 0.02,-0.13 0.03,-0.25 0.02,-0.36 0,-0.23 -0.05,-0.43 -0.1,-0.6 -0.06,-0.17 -0.12,-0.3 -0.17,-0.4 -0.05,-0.09 -0.09,-0.14 -0.09,-0.14 0,0 -0.06,0.05 -0.14,0.14 -0.05,0.04 -0.1,0.09 -0.16,0.16 -0.06,0.06 -0.12,0.13 -0.19,0.21 -0.27,0.31 -0.62,0.71 -0.84,1.18 -0.23,0.48 -0.3,0.95 -0.29,1.31 0,0.18 0.01,0.33 0.03,0.43 0.02,0.11 0.03,0.17 0.03,0.17 0,0 0.02,0 0.06,-0.03 0.04,-0.02 0.09,-0.04 0.16,-0.08 0.07,-0.04 0.15,-0.08 0.24,-0.14 0.04,-0.03 0.09,-0.06 0.14,-0.09 0.05,-0.03 0.1,-0.07 0.15,-0.11 0.41,-0.29 0.85,-0.75 1.06,-1.28 0.05,-0.13 0.09,-0.26 0.11,-0.38 v 0 z m -3.33,2.1 c 0.05,-0.13 0.09,-0.25 0.12,-0.37 0.02,-0.12 0.04,-0.23 0.05,-0.34 0,-0.11 0,-0.21 0,-0.31 -0.02,-0.19 -0.05,-0.35 -0.08,-0.46 -0.03,-0.11 -0.06,-0.17 -0.06,-0.17 0,0 -0.07,0.04 -0.18,0.11 -0.06,0.04 -0.13,0.08 -0.2,0.12 -0.08,0.05 -0.16,0.11 -0.25,0.17 -0.36,0.25 -0.82,0.58 -1.17,1.02 -0.18,0.22 -0.31,0.45 -0.42,0.67 -0.1,0.22 -0.18,0.43 -0.23,0.62 -0.05,0.19 -0.07,0.35 -0.09,0.46 -0.01,0.12 -0.01,0.18 -0.01,0.18 0,0 0.1,-0.02 0.26,-0.05 0.16,-0.03 0.39,-0.11 0.64,-0.21 0.12,-0.05 0.25,-0.12 0.39,-0.18 0.03,-0.02 0.07,-0.03 0.1,-0.05 0.03,-0.02 0.06,-0.04 0.1,-0.06 0.06,-0.04 0.13,-0.08 0.19,-0.13 0.13,-0.09 0.25,-0.19 0.36,-0.3 0.06,-0.05 0.11,-0.11 0.16,-0.17 0.05,-0.06 0.09,-0.12 0.14,-0.18 0.09,-0.13 0.15,-0.25 0.21,-0.37 v 0 z m 12.24,-12.71 c 0.01,-0.08 0.02,-0.15 0.02,-0.23 0,-0.07 0,-0.15 0,-0.22 0,-0.07 0,-0.14 -0.01,-0.21 0,-0.07 -0.01,-0.14 -0.02,-0.2 -0.01,-0.07 -0.02,-0.13 -0.04,-0.19 -0.02,-0.12 -0.05,-0.24 -0.09,-0.34 -0.03,-0.1 -0.07,-0.19 -0.1,-0.27 -0.04,-0.08 -0.07,-0.15 -0.1,-0.2 -0.06,-0.11 -0.1,-0.17 -0.1,-0.17 0,0 -0.03,0.06 -0.09,0.17 -0.03,0.05 -0.06,0.12 -0.09,0.19 -0.03,0.07 -0.07,0.16 -0.11,0.25 -0.16,0.37 -0.35,0.84 -0.47,1.38 -0.12,0.54 -0.14,1.06 -0.14,1.46 0,0.1 0,0.19 0,0.28 0,0.08 0,0.16 0.01,0.22 0,0.12 0.02,0.19 0.02,0.19 0,0 0.06,-0.04 0.15,-0.12 0.05,-0.04 0.1,-0.09 0.16,-0.14 0.06,-0.06 0.13,-0.13 0.2,-0.21 0.28,-0.31 0.6,-0.8 0.73,-1.41 0.02,-0.08 0.03,-0.15 0.04,-0.23 v 0 z"
               id="path36"
               style="fill:#ffffff;stroke-width:0px" />
            <g
               class="cls-7"
               id="g37"
               style="opacity:0.6">
              <path
                 class="cls-5"
                 d="m 16.58,286.74 c 0.37,0.27 0.69,0.64 0.93,0.94 0.12,0.15 0.21,0.29 0.28,0.38 0.07,0.1 0.11,0.16 0.11,0.16 0,0 -0.17,0.08 -0.45,0.1 -0.28,0.02 -0.66,-0.01 -1.07,-0.26 -0.41,-0.25 -0.74,-0.69 -0.97,-1.06 -0.05,-0.09 -0.1,-0.19 -0.14,-0.27 -0.04,-0.08 -0.07,-0.16 -0.1,-0.22 -0.05,-0.13 -0.08,-0.2 -0.08,-0.2 0,0 0.19,-0.03 0.47,0 0.14,0.02 0.3,0.06 0.48,0.12 0.18,0.07 0.36,0.16 0.55,0.29 v 0 z m 1.26,3.16 c -0.2,-0.05 -0.38,-0.07 -0.54,-0.07 -0.16,0 -0.29,0.01 -0.37,0.03 -0.09,0.02 -0.14,0.03 -0.14,0.03 0,0 0.04,0.08 0.12,0.21 0.08,0.13 0.19,0.3 0.33,0.49 0.29,0.38 0.71,0.81 1.19,1.03 0.24,0.12 0.47,0.17 0.67,0.19 0.2,0.02 0.39,0 0.54,-0.03 0.3,-0.06 0.48,-0.17 0.48,-0.17 0,0 -0.05,-0.06 -0.14,-0.16 -0.04,-0.05 -0.1,-0.11 -0.16,-0.17 -0.06,-0.07 -0.13,-0.14 -0.2,-0.21 -0.3,-0.3 -0.69,-0.67 -1.14,-0.92 -0.22,-0.12 -0.44,-0.2 -0.63,-0.25 v 0 z m 2.27,3.46 c -0.22,0 -0.43,0.04 -0.59,0.08 -0.33,0.08 -0.53,0.2 -0.53,0.2 0,0 0.06,0.07 0.18,0.19 0.06,0.06 0.13,0.13 0.22,0.2 0.08,0.07 0.18,0.16 0.28,0.24 0.42,0.33 1.02,0.67 1.61,0.77 0.3,0.04 0.56,0.03 0.78,-0.01 0.22,-0.05 0.41,-0.13 0.55,-0.22 0.15,-0.08 0.25,-0.17 0.33,-0.24 0.07,-0.07 0.11,-0.11 0.11,-0.11 0,0 -0.07,-0.05 -0.2,-0.12 -0.06,-0.04 -0.14,-0.08 -0.22,-0.12 -0.08,-0.05 -0.18,-0.1 -0.28,-0.16 -0.42,-0.21 -0.94,-0.48 -1.49,-0.61 -0.27,-0.07 -0.52,-0.09 -0.75,-0.09 z m 3.45,2.92 c -0.14,0 -0.27,0.01 -0.39,0.03 -0.24,0.03 -0.46,0.1 -0.64,0.16 -0.17,0.06 -0.31,0.13 -0.41,0.19 -0.09,0.06 -0.14,0.09 -0.14,0.09 0,0 0.08,0.08 0.23,0.19 0.07,0.06 0.16,0.12 0.27,0.19 0.1,0.07 0.22,0.15 0.35,0.22 0.51,0.3 1.22,0.58 1.86,0.59 0.65,0.01 1.1,-0.23 1.39,-0.45 0.14,-0.11 0.25,-0.23 0.32,-0.31 0.07,-0.08 0.1,-0.14 0.1,-0.14 0,0 -0.09,-0.04 -0.23,-0.09 -0.07,-0.03 -0.16,-0.06 -0.26,-0.1 -0.05,-0.02 -0.1,-0.04 -0.16,-0.06 -0.05,-0.02 -0.11,-0.04 -0.17,-0.06 -0.48,-0.16 -1.09,-0.37 -1.69,-0.43 -0.15,-0.02 -0.3,-0.02 -0.43,-0.02 z m 3.62,2.43 c -0.14,0.03 -0.28,0.08 -0.4,0.13 -0.12,0.05 -0.24,0.1 -0.34,0.16 -0.1,0.06 -0.2,0.11 -0.28,0.17 -0.17,0.11 -0.3,0.22 -0.38,0.3 -0.08,0.08 -0.13,0.14 -0.13,0.14 0,0 0.11,0.06 0.29,0.14 0.09,0.04 0.2,0.09 0.33,0.14 0.13,0.05 0.27,0.1 0.42,0.15 0.62,0.19 1.43,0.3 2.12,0.14 0.34,-0.07 0.62,-0.21 0.84,-0.36 0.22,-0.15 0.38,-0.32 0.5,-0.48 0.12,-0.16 0.2,-0.3 0.25,-0.41 0.05,-0.1 0.07,-0.17 0.07,-0.17 0,0 -0.1,-0.02 -0.27,-0.04 -0.17,-0.01 -0.4,-0.05 -0.67,-0.07 -0.14,-0.01 -0.28,-0.03 -0.43,-0.04 -0.04,0 -0.08,0 -0.12,0 -0.04,0 -0.08,0 -0.12,0 -0.08,0 -0.16,0 -0.24,-0.01 -0.16,0 -0.33,0 -0.49,0 -0.08,0 -0.17,0 -0.25,0.02 -0.08,0 -0.16,0.01 -0.24,0.02 -0.16,0.02 -0.32,0.05 -0.46,0.09 v 0 z m -9.76,-12.34 c -0.07,0.43 0.05,0.91 0.19,1.27 0.07,0.18 0.14,0.33 0.2,0.43 0.06,0.1 0.09,0.16 0.09,0.16 0,0 0.15,-0.13 0.29,-0.36 0.15,-0.23 0.3,-0.57 0.34,-0.98 0.03,-0.41 -0.04,-0.84 -0.12,-1.16 -0.02,-0.08 -0.04,-0.16 -0.06,-0.22 -0.02,-0.07 -0.03,-0.13 -0.05,-0.17 -0.03,-0.1 -0.05,-0.15 -0.05,-0.15 0,0 -0.17,0.08 -0.37,0.27 -0.1,0.09 -0.2,0.22 -0.29,0.37 -0.08,0.15 -0.16,0.33 -0.19,0.55 z m 1.92,3.26 c -0.01,0.48 0.17,0.99 0.37,1.36 0.05,0.09 0.1,0.18 0.14,0.26 0.05,0.08 0.09,0.14 0.13,0.19 0.07,0.11 0.12,0.17 0.12,0.17 0,0 0.14,-0.16 0.28,-0.43 0.07,-0.14 0.13,-0.3 0.18,-0.49 0.05,-0.19 0.07,-0.4 0.07,-0.63 -0.01,-0.46 -0.15,-0.92 -0.28,-1.27 -0.07,-0.17 -0.13,-0.32 -0.17,-0.43 -0.05,-0.1 -0.08,-0.16 -0.08,-0.16 0,0 -0.04,0.03 -0.11,0.09 -0.07,0.06 -0.16,0.15 -0.25,0.26 -0.09,0.12 -0.19,0.27 -0.26,0.44 -0.07,0.18 -0.12,0.39 -0.13,0.63 v 0 z m 2.28,3.02 c 0.12,0.51 0.47,0.99 0.8,1.31 0.08,0.08 0.16,0.16 0.23,0.22 0.08,0.06 0.14,0.11 0.2,0.16 0.12,0.09 0.19,0.13 0.19,0.13 0,0 0.02,-0.05 0.05,-0.15 0.03,-0.09 0.06,-0.23 0.09,-0.39 0.02,-0.16 0.04,-0.36 0.02,-0.56 -0.01,-0.21 -0.04,-0.44 -0.12,-0.67 -0.14,-0.46 -0.41,-0.88 -0.63,-1.21 -0.06,-0.08 -0.11,-0.15 -0.16,-0.22 -0.05,-0.07 -0.09,-0.12 -0.13,-0.17 -0.07,-0.1 -0.12,-0.15 -0.12,-0.15 0,0 -0.16,0.17 -0.29,0.47 -0.07,0.15 -0.13,0.33 -0.16,0.54 -0.03,0.21 -0.03,0.44 0.03,0.7 v 0 z m 3.08,2.67 c 0.2,0.53 0.65,0.99 1.06,1.28 0.05,0.04 0.1,0.07 0.15,0.11 0.05,0.03 0.1,0.06 0.14,0.09 0.09,0.06 0.17,0.1 0.24,0.14 0.07,0.04 0.13,0.06 0.16,0.08 0.04,0.02 0.06,0.03 0.06,0.03 0,0 0.02,-0.06 0.03,-0.17 0.02,-0.1 0.03,-0.26 0.03,-0.43 0,-0.37 -0.07,-0.83 -0.29,-1.31 -0.23,-0.48 -0.57,-0.88 -0.84,-1.18 -0.07,-0.07 -0.13,-0.15 -0.19,-0.21 -0.06,-0.06 -0.11,-0.11 -0.16,-0.16 -0.09,-0.09 -0.14,-0.14 -0.14,-0.14 0,0 -0.04,0.05 -0.09,0.14 -0.05,0.09 -0.12,0.23 -0.17,0.4 -0.06,0.17 -0.1,0.37 -0.1,0.6 0,0.11 0,0.23 0.02,0.36 0.02,0.12 0.06,0.25 0.11,0.38 v 0 z m 3.44,2.09 c 0.04,0.06 0.09,0.13 0.14,0.18 0.05,0.06 0.1,0.11 0.16,0.17 0.11,0.11 0.23,0.21 0.36,0.3 0.06,0.04 0.13,0.09 0.19,0.13 0.03,0.02 0.07,0.04 0.1,0.06 0.03,0.02 0.07,0.03 0.1,0.05 0.13,0.07 0.26,0.13 0.39,0.18 0.25,0.09 0.47,0.17 0.64,0.21 0.16,0.04 0.26,0.05 0.26,0.05 0,0 0,-0.07 -0.01,-0.18 -0.01,-0.11 -0.04,-0.28 -0.09,-0.46 -0.05,-0.19 -0.12,-0.4 -0.23,-0.62 -0.1,-0.22 -0.24,-0.45 -0.42,-0.67 -0.36,-0.44 -0.81,-0.77 -1.17,-1.02 -0.09,-0.06 -0.17,-0.12 -0.25,-0.17 -0.08,-0.05 -0.15,-0.09 -0.2,-0.12 -0.11,-0.07 -0.18,-0.11 -0.18,-0.11 0,0 -0.03,0.06 -0.06,0.17 -0.03,0.11 -0.07,0.27 -0.08,0.46 0,0.09 -0.01,0.2 0,0.31 0,0.11 0.02,0.22 0.05,0.34 0.03,0.12 0.06,0.24 0.12,0.37 0.05,0.12 0.12,0.25 0.21,0.37 v 0 z M 15.73,284.55 c 0.13,0.61 0.46,1.1 0.73,1.41 0.07,0.08 0.14,0.15 0.2,0.21 0.06,0.06 0.12,0.11 0.16,0.14 0.09,0.08 0.15,0.12 0.15,0.12 0,0 0.01,-0.07 0.02,-0.19 0,-0.06 0,-0.13 0.01,-0.22 0,-0.08 0,-0.18 0,-0.28 0,-0.41 -0.02,-0.93 -0.14,-1.46 -0.12,-0.54 -0.31,-1.01 -0.47,-1.38 -0.04,-0.09 -0.08,-0.18 -0.11,-0.25 -0.03,-0.07 -0.06,-0.14 -0.09,-0.19 -0.05,-0.11 -0.09,-0.17 -0.09,-0.17 0,0 -0.04,0.06 -0.1,0.17 -0.03,0.05 -0.06,0.12 -0.1,0.2 -0.03,0.08 -0.07,0.17 -0.1,0.27 -0.04,0.1 -0.07,0.22 -0.09,0.34 -0.01,0.06 -0.02,0.12 -0.04,0.19 0,0.07 -0.01,0.13 -0.02,0.2 0,0.07 0,0.14 -0.01,0.21 0,0.07 0,0.14 0,0.22 0,0.07 0.01,0.15 0.02,0.23 0.01,0.07 0.03,0.15 0.04,0.23 v 0 z m 46.69,2.19 c -0.37,0.27 -0.69,0.64 -0.93,0.94 -0.12,0.15 -0.21,0.29 -0.28,0.38 -0.07,0.1 -0.11,0.16 -0.11,0.16 0,0 0.17,0.08 0.45,0.1 0.28,0.02 0.66,-0.01 1.07,-0.26 0.41,-0.25 0.74,-0.69 0.97,-1.06 0.05,-0.09 0.1,-0.19 0.14,-0.27 0.04,-0.08 0.07,-0.16 0.1,-0.22 0.05,-0.13 0.08,-0.2 0.08,-0.2 0,0 -0.19,-0.03 -0.47,0 -0.14,0.02 -0.3,0.06 -0.48,0.12 -0.18,0.07 -0.36,0.16 -0.55,0.29 v 0 z m -1.89,3.41 c -0.44,0.24 -0.84,0.61 -1.14,0.92 -0.08,0.08 -0.14,0.15 -0.2,0.21 -0.06,0.06 -0.11,0.12 -0.16,0.17 -0.09,0.1 -0.14,0.16 -0.14,0.16 0,0 0.18,0.11 0.48,0.17 0.15,0.03 0.33,0.05 0.54,0.03 0.2,-0.02 0.43,-0.07 0.67,-0.19 0.48,-0.23 0.9,-0.66 1.19,-1.03 0.15,-0.19 0.26,-0.36 0.33,-0.49 0.08,-0.13 0.12,-0.21 0.12,-0.21 0,0 -0.05,-0.02 -0.14,-0.03 -0.09,-0.02 -0.22,-0.03 -0.37,-0.03 -0.16,0 -0.34,0.02 -0.54,0.07 -0.2,0.05 -0.42,0.13 -0.63,0.25 v 0 z m -2.38,3.3 c -0.54,0.13 -1.07,0.4 -1.49,0.61 -0.1,0.05 -0.2,0.11 -0.28,0.16 -0.09,0.05 -0.16,0.09 -0.22,0.12 -0.12,0.07 -0.2,0.12 -0.2,0.12 0,0 0.04,0.05 0.11,0.11 0.07,0.07 0.18,0.15 0.33,0.24 0.15,0.08 0.33,0.16 0.55,0.22 0.22,0.05 0.48,0.06 0.78,0.01 0.59,-0.1 1.19,-0.44 1.61,-0.77 0.11,-0.08 0.2,-0.16 0.28,-0.24 0.08,-0.08 0.16,-0.14 0.22,-0.2 0.12,-0.12 0.18,-0.19 0.18,-0.19 0,0 -0.2,-0.13 -0.53,-0.2 -0.16,-0.04 -0.37,-0.07 -0.59,-0.08 -0.22,0 -0.48,0.02 -0.75,0.09 z m -3.14,2.85 c -0.61,0.06 -1.21,0.27 -1.69,0.43 -0.06,0.02 -0.12,0.04 -0.17,0.06 -0.06,0.02 -0.11,0.04 -0.16,0.06 -0.1,0.04 -0.19,0.07 -0.26,0.1 -0.14,0.06 -0.23,0.09 -0.23,0.09 0,0 0.03,0.05 0.1,0.14 0.07,0.09 0.17,0.2 0.32,0.31 0.28,0.22 0.74,0.46 1.39,0.45 0.65,-0.01 1.35,-0.29 1.86,-0.59 0.13,-0.07 0.24,-0.15 0.35,-0.22 0.1,-0.07 0.2,-0.14 0.27,-0.19 0.14,-0.12 0.23,-0.19 0.23,-0.19 0,0 -0.05,-0.04 -0.14,-0.09 -0.09,-0.05 -0.23,-0.12 -0.41,-0.19 -0.17,-0.06 -0.39,-0.12 -0.64,-0.16 -0.12,-0.02 -0.25,-0.03 -0.39,-0.03 -0.14,0 -0.28,0 -0.43,0.02 z m -3.65,2.32 c -0.08,-0.01 -0.16,-0.02 -0.24,-0.02 -0.08,0 -0.17,-0.01 -0.25,-0.02 -0.17,0 -0.33,0 -0.49,0 -0.08,0 -0.16,0 -0.24,0.01 -0.04,0 -0.08,0 -0.12,0 -0.04,0 -0.08,0 -0.12,0 -0.15,0 -0.3,0.02 -0.43,0.04 -0.27,0.02 -0.5,0.06 -0.67,0.07 -0.17,0.02 -0.27,0.04 -0.27,0.04 0,0 0.02,0.07 0.07,0.17 0.05,0.1 0.13,0.25 0.25,0.41 0.12,0.16 0.28,0.33 0.5,0.48 0.22,0.15 0.5,0.29 0.84,0.36 0.69,0.16 1.5,0.05 2.12,-0.14 0.16,-0.05 0.3,-0.1 0.42,-0.15 0.13,-0.05 0.24,-0.09 0.33,-0.14 0.18,-0.08 0.29,-0.14 0.29,-0.14 0,0 -0.04,-0.05 -0.13,-0.14 -0.09,-0.08 -0.21,-0.19 -0.38,-0.3 -0.08,-0.06 -0.18,-0.11 -0.28,-0.17 -0.1,-0.06 -0.22,-0.11 -0.34,-0.16 -0.12,-0.05 -0.26,-0.09 -0.4,-0.13 -0.14,-0.04 -0.3,-0.07 -0.46,-0.09 v 0 z m 10.03,-12.79 c -0.09,-0.15 -0.19,-0.27 -0.29,-0.37 -0.19,-0.19 -0.37,-0.27 -0.37,-0.27 0,0 -0.02,0.06 -0.05,0.15 -0.02,0.05 -0.03,0.11 -0.05,0.17 -0.02,0.07 -0.04,0.14 -0.06,0.22 -0.08,0.32 -0.15,0.75 -0.12,1.16 0.04,0.42 0.19,0.75 0.34,0.98 0.15,0.23 0.29,0.36 0.29,0.36 0,0 0.04,-0.06 0.09,-0.16 0.06,-0.1 0.13,-0.25 0.2,-0.43 0.14,-0.36 0.26,-0.83 0.19,-1.27 -0.03,-0.22 -0.1,-0.4 -0.19,-0.55 z m -1.87,3.18 c -0.08,-0.18 -0.17,-0.33 -0.26,-0.44 -0.09,-0.12 -0.18,-0.21 -0.25,-0.26 -0.07,-0.06 -0.11,-0.09 -0.11,-0.09 0,0 -0.03,0.06 -0.08,0.16 -0.05,0.1 -0.11,0.25 -0.17,0.43 -0.13,0.35 -0.27,0.81 -0.28,1.27 0,0.23 0.02,0.44 0.07,0.63 0.05,0.19 0.11,0.35 0.18,0.49 0.14,0.27 0.28,0.43 0.28,0.43 0,0 0.05,-0.06 0.12,-0.17 0.04,-0.05 0.08,-0.12 0.13,-0.19 0.05,-0.08 0.09,-0.16 0.14,-0.26 0.2,-0.37 0.38,-0.88 0.37,-1.36 0,-0.24 -0.06,-0.45 -0.13,-0.63 v 0 z m -2.11,2.95 c -0.03,-0.21 -0.09,-0.39 -0.16,-0.54 -0.14,-0.3 -0.29,-0.47 -0.29,-0.47 0,0 -0.05,0.05 -0.12,0.15 -0.04,0.05 -0.08,0.1 -0.13,0.17 -0.05,0.07 -0.1,0.14 -0.16,0.22 -0.22,0.32 -0.49,0.74 -0.63,1.21 -0.08,0.23 -0.11,0.46 -0.12,0.67 -0.01,0.21 0,0.4 0.02,0.56 0.02,0.16 0.06,0.3 0.09,0.39 0.03,0.09 0.05,0.15 0.05,0.15 0,0 0.07,-0.05 0.19,-0.13 0.06,-0.04 0.13,-0.09 0.2,-0.16 0.07,-0.06 0.15,-0.14 0.23,-0.22 0.33,-0.32 0.68,-0.8 0.8,-1.31 0.06,-0.26 0.06,-0.49 0.03,-0.7 v 0 z m -3,2.99 c 0.02,-0.13 0.03,-0.25 0.02,-0.36 0,-0.23 -0.05,-0.43 -0.1,-0.6 -0.06,-0.17 -0.12,-0.3 -0.17,-0.4 -0.05,-0.09 -0.09,-0.14 -0.09,-0.14 0,0 -0.06,0.05 -0.14,0.14 -0.05,0.04 -0.1,0.09 -0.16,0.16 -0.06,0.06 -0.12,0.13 -0.19,0.21 -0.27,0.31 -0.62,0.71 -0.84,1.18 -0.23,0.48 -0.3,0.95 -0.29,1.31 0,0.18 0.01,0.33 0.03,0.43 0.02,0.11 0.03,0.17 0.03,0.17 0,0 0.02,0 0.06,-0.03 0.04,-0.02 0.09,-0.04 0.16,-0.08 0.07,-0.04 0.15,-0.08 0.24,-0.14 0.04,-0.03 0.09,-0.06 0.14,-0.09 0.05,-0.03 0.1,-0.07 0.15,-0.11 0.41,-0.29 0.85,-0.75 1.06,-1.28 0.05,-0.13 0.09,-0.26 0.11,-0.38 v 0 z m -3.33,2.1 c 0.05,-0.13 0.09,-0.25 0.12,-0.37 0.02,-0.12 0.04,-0.23 0.05,-0.34 0,-0.11 0,-0.21 0,-0.31 -0.02,-0.19 -0.05,-0.35 -0.08,-0.46 -0.03,-0.11 -0.06,-0.17 -0.06,-0.17 0,0 -0.07,0.04 -0.18,0.11 -0.06,0.04 -0.13,0.08 -0.2,0.12 -0.08,0.05 -0.16,0.11 -0.25,0.17 -0.36,0.25 -0.82,0.58 -1.17,1.02 -0.18,0.22 -0.31,0.45 -0.42,0.67 -0.1,0.22 -0.18,0.43 -0.23,0.62 -0.05,0.19 -0.07,0.35 -0.09,0.46 -0.01,0.12 -0.01,0.18 -0.01,0.18 0,0 0.1,-0.02 0.26,-0.05 0.16,-0.03 0.39,-0.11 0.64,-0.21 0.12,-0.05 0.25,-0.12 0.39,-0.18 0.03,-0.02 0.07,-0.03 0.1,-0.05 0.03,-0.02 0.06,-0.04 0.1,-0.06 0.06,-0.04 0.13,-0.08 0.19,-0.13 0.13,-0.09 0.25,-0.19 0.36,-0.3 0.06,-0.05 0.11,-0.11 0.16,-0.17 0.05,-0.06 0.09,-0.12 0.14,-0.18 0.09,-0.13 0.15,-0.25 0.21,-0.37 v 0 z m 12.24,-12.71 c 0.01,-0.08 0.02,-0.15 0.02,-0.23 0,-0.07 0,-0.15 0,-0.22 0,-0.07 0,-0.14 -0.01,-0.21 0,-0.07 -0.01,-0.14 -0.02,-0.2 -0.01,-0.07 -0.02,-0.13 -0.04,-0.19 -0.02,-0.12 -0.05,-0.24 -0.09,-0.34 -0.03,-0.1 -0.07,-0.19 -0.1,-0.27 -0.04,-0.08 -0.07,-0.15 -0.1,-0.2 -0.06,-0.11 -0.1,-0.17 -0.1,-0.17 0,0 -0.03,0.06 -0.09,0.17 -0.03,0.05 -0.06,0.12 -0.09,0.19 -0.03,0.07 -0.07,0.16 -0.11,0.25 -0.16,0.37 -0.35,0.84 -0.47,1.38 -0.12,0.54 -0.14,1.06 -0.14,1.46 0,0.1 0,0.19 0,0.28 0,0.08 0,0.16 0.01,0.22 0,0.12 0.02,0.19 0.02,0.19 0,0 0.06,-0.04 0.15,-0.12 0.05,-0.04 0.1,-0.09 0.16,-0.14 0.06,-0.06 0.13,-0.13 0.2,-0.21 0.28,-0.31 0.6,-0.8 0.73,-1.41 0.02,-0.08 0.03,-0.15 0.04,-0.23 v 0 z"
                 id="path37"
                 style="fill:#ffffff;stroke-width:0px" />
            </g>
          </g>
          <g
             id="g39">
            <path
               class="cls-2"
               d="m 39.5,244.3 c -17.72,0 -32.09,14.37 -32.09,32.09 0,17.72 14.37,32.09 32.09,32.09 17.72,0 32.09,-14.37 32.09,-32.09 0,-17.72 -14.37,-32.09 -32.09,-32.09 z"
               id="path38"
               style="fill:none;stroke:#ffffff;stroke-miterlimit:10" />
            <circle
               class="cls-2"
               cx="39.5"
               cy="276.39001"
               r="32.09"
               id="circle38"
               style="fill:none;stroke:#ffffff;stroke-miterlimit:10" />
          </g>
        </g>
      </g>
    </g>
  </g>
</svg>
