<?xml version="1.0" encoding="UTF-8"?>
<svg id="Layer_1" data-name="Layer 1" xmlns="http://www.w3.org/2000/svg" viewBox="0 0 305.52 77.4">
  <defs>
    <style>
      .cls-1, .cls-2 {
        fill: none;
        stroke: #fff;
        stroke-miterlimit: 10;
      }

      .cls-3 {
        fill: #fff;
        stroke-width: 0px;
      }

      .cls-2 {
        stroke-linecap: round;
        stroke-width: 1.5px;
      }
    </style>
  </defs>
  <g id="Layer_1-2" data-name="Layer 1-2">
    <g>
      <path class="cls-1" d="m158.95,9.7c.5.1,1.01.22,1.52.34,1.31.34,3.15.92,5.19,1.96,5.73,2.9,8.65,7.25,8.65,7.25.82,1.21,1.96,3.2,2.7,5.98.45.11,1.3.37,2.07,1.08.26.24,1.57,1.44,1.45,3.2-.1,1.51-1.18,2.44-1.64,2.84-.76.65-1.54.94-2.01,1.07-.39,1.36-.88,2.53-1.37,3.5-.09.17-.64,1.26-1.41,2.37-3.13,4.52-8,6.88-9.28,7.46-1.01.46-1.81.75-2.35.94-3.38,1.2-6.07,1.52-6.76,1.6-1.56.17-3.64.27-6.1,0-1.69-.21-4.08-.62-6.85-1.5-.79-.25-1.66-.52-2.63-.94-4.54-1.96-7.28-5.23-8.17-6.36-2.14-2.72-3.19-5.43-3.72-7.28-.41-.11-1.07-.34-1.72-.89-.16-.13-1.53-1.33-1.53-3.06s1.3-3.29,3.22-3.89c.62-2.43,1.56-4.23,2.27-5.4,3.5-5.73,9-8.05,11.16-8.92.54-.22,2.2-.87,4.54-1.36.3-.07.62-.12.97-.19"/>
      <g>
        <path class="cls-1" d="m173.18,36.44c-.63-5.17-1.95-10.23-2.89-15.35-.02-.14-.1-.56-.42-.91-.55-.59-1.46-.57-1.77-.57-1.42.02-7.24,0-15.23,0-8.08-.02-13.98,0-15.42,0-.29,0-1.08,0-1.6.52-.37.37-.43.86-.47,1.02-1.71,8.38-2.91,14.53-3,15.28-.02.17-.07.56.13.94.06.11.17.29.57.58.27.2.68.47,1.26.67.67.24,1.2.38,1.25.39,4.82,1.1,7.61,1.41,7.61,1.41,2.11.23,3.73.31,5.03.37.79.03,2.32.09,4.55.08,3.26,0,5.99-.02,9.59-.42,3.79-.56,6.6-1.09,7.57-1.37.5-.15,1.14-.4,1.27-.46.51-.21.88-.39,1.26-.67.39-.29.51-.47.57-.58.21-.39.15-.78.13-.94h-.02Z"/>
        <g>
          <ellipse class="cls-3" cx="144.08" cy="31.43" rx=".67" ry="2.52"/>
          <path class="cls-3" d="m144.09,25.78c-2.99,0-5.4,2.42-5.4,5.4s2.42,5.4,5.4,5.4,5.4-2.42,5.4-5.4-2.42-5.4-5.4-5.4Zm-.02,10.12c-2.5,0-4.54-2.03-4.54-4.54s2.03-4.54,4.54-4.54,4.54,2.03,4.54,4.54-2.03,4.54-4.54,4.54Z"/>
        </g>
        <g>
          <ellipse class="cls-3" cx="162" cy="31.43" rx=".67" ry="2.52"/>
          <path class="cls-3" d="m156.57,31.18c0,2.99,2.42,5.4,5.4,5.4s5.4-2.42,5.4-5.4-2.42-5.4-5.4-5.4-5.4,2.42-5.4,5.4Zm.88.18c0-2.5,2.03-4.54,4.54-4.54s4.54,2.03,4.54,4.54-2.03,4.54-4.54,4.54-4.54-2.03-4.54-4.54Z"/>
        </g>
        <circle class="cls-3" cx="151.63" cy="37.69" r=".47"/>
        <circle class="cls-3" cx="153.94" cy="37.69" r=".47"/>
      </g>
      <g>
        <g>
          <circle class="cls-3" cx="151.41" cy="46.74" r=".85"/>
          <circle class="cls-3" cx="151.37" cy="46.7" r=".81"/>
        </g>
        <g>
          <circle class="cls-3" cx="153.04" cy="46.78" r=".47"/>
          <circle class="cls-3" cx="153.01" cy="46.75" r=".45"/>
        </g>
        <g>
          <circle class="cls-3" cx="154.19" cy="46.78" r=".47"/>
          <circle class="cls-3" cx="154.17" cy="46.75" r=".45"/>
        </g>
      </g>
      <g>
        <g>
          <path class="cls-3" d="m160.4,10.44c0,.72-1.09,1.36-1.42,1.56-.12.07-.53.31-1.5.57-1.71.47-3.2.48-4.23.49h-.42c-.81-.02-4.95-.11-6.67-1.61-.59-.52-.61-.95-.61-1.04,0-.67.72-1.17.97-1.36.42-.3.83-.42,1.1-.49v.51h-.03c-.07.02-.18.07-.3.15-.06.04-.25.18-.32.42,0,0-.08.23,0,.52.1.33.73.98,3.05,1.34.85.13,1.62.17,3.09.17,3.08-.03,4.59-.27,5.53-1.03.21-.17.6-.51.55-.9s-.52-.62-.67-.68c0-.12,0-.25.02-.37.27.12.65.32,1.03.66.5.43.83.72.84,1.12v-.02Z"/>
          <path class="cls-3" d="m158.64,10.62c-.93.77-2.45,1.01-5.53,1.03-1.47.02-2.24-.03-3.09-.17-2.31-.36-2.95-1.01-3.05-1.34-.08-.29,0-.52,0-.52.08-.24.27-.37.32-.42.12-.08.22-.12.3-.15h.03v1.01s.02.11.07.17c.09.15.23.22.31.27.48.24.81.32.81.32.45.12.67.17,1.03.23.5.08.94.13,1.37.17.47.03.89.04,1.72.05,1.36.02,1.79,0,2.05-.02.5-.03.82-.07,1.06-.11.15-.02.28-.05.41-.07.17-.03.37-.07.67-.16.34-.09.83-.23,1.12-.42.07-.05.17-.12.24-.25.03-.07.05-.13.06-.17v-1.02c.14.07.62.29.67.68.05.39-.34.72-.55.9h-.02Z"/>
        </g>
        <g>
          <rect class="cls-1" x="147.62" y=".5" width="10.9" height="9.56"/>
          <path class="cls-3" d="m158.52,10.06s-.02.1-.06.17c-.07.12-.17.2-.24.25-.29.19-.77.33-1.12.42-.31.08-.5.12-.67.16-.12.02-.26.05-.41.07-.24.04-.56.08-1.06.11-.26.02-.68.04-2.05.02-.83,0-1.26-.02-1.72-.05-.43-.03-.87-.07-1.37-.17-.35-.06-.57-.12-1.03-.23,0,0-.32-.08-.81-.32-.07-.04-.22-.11-.31-.27-.04-.07-.06-.13-.07-.17h10.92Z"/>
          <rect class="cls-3" x="150.6" y="3.78" width="1.63" height="2.05"/>
          <rect class="cls-3" x="153.93" y="3.78" width="1.63" height="2.05"/>
          <rect class="cls-3" x="151.69" y="7.03" width="1.69" height="1.12"/>
          <rect class="cls-3" x="153.38" y="7.03" width="1.12" height="1.12"/>
        </g>
      </g>
    </g>
  </g>
  <g>
    <path class="cls-3" d="m76.62,71.85c.1-.66.14-.99.24-1.65-.34-.05-.5-.07-.84-.12.15-.99.22-1.48.37-2.47-.33-.05-.5-.07-.84-.12.1-.66.15-.99.25-1.65-.33-.05-.5-.08-.83-.13.15-.99.22-1.48.37-2.47-.33-.05-.5-.08-.83-.13.15-.99.23-1.48.38-2.47-.33-.05-.5-.08-.83-.13.1-.66.15-.99.26-1.64-.33-.05-.49-.08-.82-.13.15-.99.23-1.48.39-2.47-.33-.05-.49-.08-.82-.13.1-.66.16-.99.26-1.64.98.16,1.47.23,2.45.38-.1.66-.15.99-.25,1.65.33.05.49.08.82.12-.15.99-.22,1.48-.37,2.47.33.05.49.07.82.12-.1.66-.15.99-.25,1.65.33.05.5.07.83.12-.15.99-.22,1.48-.37,2.47.33.05.5.07.83.12-.15.99-.22,1.48-.36,2.47.33.05.5.07.83.12-.1.66-.14.99-.24,1.65.33.05.5.07.84.12.09-.66.14-.99.24-1.65.33.05.5.07.83.12.14-.99.21-1.48.35-2.47.33.05.5.07.83.12.14-.99.21-1.48.35-2.47.33.05.5.07.83.12.09-.66.14-.99.23-1.65.33.05.49.07.82.11.14-.99.2-1.48.34-2.47.33.04.49.07.82.11.09-.66.13-.99.22-1.65.98.13,1.47.2,2.45.33-.09.66-.13.99-.21,1.65-.33-.04-.49-.06-.82-.11-.13.99-.2,1.49-.33,2.48-.33-.04-.49-.07-.82-.11-.09.66-.13.99-.22,1.65-.33-.04-.5-.07-.83-.11-.13.99-.2,1.49-.33,2.48-.33-.04-.5-.07-.83-.11-.14.99-.2,1.48-.34,2.47-.33-.05-.5-.07-.83-.11-.09.66-.14.99-.23,1.65-.33-.05-.5-.07-.84-.12-.14.99-.21,1.48-.35,2.47-.34-.05-.5-.07-.84-.12-.09.66-.14.99-.23,1.65-1.01-.14-1.52-.22-2.53-.37Z"/>
    <path class="cls-3" d="m91.53,73.82c.04-.33.06-.5.1-.83-1.01-.12-1.52-.18-2.53-.3.04-.33.06-.5.1-.83-.34-.04-.51-.06-.84-.1.04-.33.06-.5.1-.83-.34-.04-.5-.06-.84-.11.04-.33.06-.5.1-.83-.34-.04-.5-.06-.84-.11.08-.66.13-.99.21-1.65-.33-.04-.5-.06-.84-.11.34-2.64.51-3.96.85-6.6.33.04.5.06.83.11.08-.66.13-.99.21-1.65.33.04.49.06.82.1.04-.33.06-.5.1-.83.33.04.49.06.82.1.04-.33.06-.5.1-.83.33.04.49.06.82.1.04-.33.06-.5.1-.83.98.12,1.48.18,2.46.3.04-.33.06-.5.1-.83,1.64.19,2.46.29,4.1.46-.04.33-.05.5-.09.83.99.11,1.48.16,2.46.26-.03.33-.05.5-.09.83.33.03.49.05.82.09-.03.33-.05.5-.09.83.33.03.49.05.82.08-.03.33-.05.5-.08.83.33.03.5.05.83.08-.07.66-.1.99-.16,1.66.33.03.5.05.83.08-.26,2.65-.39,3.98-.65,6.63-.34-.03-.5-.05-.84-.08-.07.66-.1.99-.16,1.66-.34-.03-.5-.05-.84-.08-.03.33-.05.5-.08.83-.34-.03-.51-.05-.84-.09-.03.33-.05.5-.09.83-.34-.03-.51-.05-.84-.09-.03.33-.05.5-.09.83-1.01-.11-1.52-.16-2.54-.27-.04.33-.05.5-.09.83-1.69-.19-2.54-.28-4.23-.48Zm3.66-2.09c.04-.33.06-.5.09-.83.67.07,1.01.11,1.68.18.04-.33.05-.5.09-.83.34.04.5.05.84.09.04-.33.05-.5.09-.83.34.04.5.05.84.09.07-.66.1-.99.17-1.66.33.03.5.05.84.09.14-1.32.2-1.99.34-3.31-.33-.03-.5-.05-.83-.09l.17-1.66c-.33-.03-.5-.05-.83-.09.04-.33.05-.5.09-.83-.33-.04-.5-.05-.83-.09.04-.33.05-.5.09-.83-.66-.07-.99-.11-1.65-.18.04-.33.06-.5.09-.83-.99-.11-1.48-.17-2.47-.28-.04.33-.06.5-.1.83-.66-.08-.99-.12-1.65-.19-.04.33-.06.5-.1.83-.33-.04-.5-.06-.83-.1-.04.33-.06.5-.1.83-.33-.04-.5-.06-.83-.1-.08.66-.12.99-.2,1.65-.33-.04-.5-.06-.83-.1-.16,1.32-.25,1.98-.41,3.3.33.04.5.06.83.1-.08.66-.12.99-.2,1.65.33.04.5.06.84.1-.04.33-.06.5-.1.83.34.04.5.06.84.1-.04.33-.06.5-.1.83.67.08,1.01.12,1.68.2-.04.33-.06.5-.1.83,1.01.12,1.52.17,2.53.29Z"/>
    <path class="cls-3" d="m104.05,75.14c.62-6.63.93-9.95,1.55-16.58.98.09,1.48.14,2.46.22-.59,6.63-.88,9.95-1.47,16.58-1.02-.09-1.53-.14-2.54-.23Z"/>
    <path class="cls-3" d="m109.66,75.63c.55-6.64.82-9.95,1.37-16.59,2.96.24,4.43.35,7.39.56l-.06.83c.99.07,1.48.1,2.47.16-.02.33-.03.5-.05.83.33.02.49.03.82.05-.02.33-.03.5-.05.83.33.02.5.03.83.05-.02.33-.03.5-.05.83.33.02.5.03.83.05-.04.66-.06,1-.1,1.66.33.02.5.03.83.05-.15,2.66-.22,3.99-.37,6.65-.34-.02-.5-.03-.84-.05-.04.66-.06,1-.1,1.66-.34-.02-.51-.03-.84-.05-.02.33-.03.5-.05.83-.34-.02-.51-.03-.84-.05-.02.33-.03.5-.05.83-.34-.02-.51-.03-.85-.05-.02.33-.03.5-.05.83-1.02-.06-1.53-.1-2.54-.17-.02.33-.03.5-.06.83-3.06-.21-4.58-.32-7.64-.57Zm6.96-1.98c.02-.33.03-.5.06-.83.67.05,1.01.07,1.69.11.02-.33.03-.5.05-.83.34.02.51.03.84.06.02-.33.03-.5.05-.83.34.02.5.03.84.05.04-.66.06-1,.1-1.66.34.02.5.03.84.05.08-1.33.12-1.99.2-3.32-.33-.02-.5-.03-.83-.05.04-.66.06-1,.1-1.66-.33-.02-.5-.03-.83-.05.02-.33.03-.5.05-.83-.33-.02-.5-.03-.83-.05.02-.33.03-.5.05-.83-.66-.04-.99-.07-1.65-.11.02-.33.03-.5.06-.83-1.65-.11-2.48-.18-4.13-.3-.36,4.65-.54,6.97-.9,11.62,1.69.13,2.53.19,4.22.31Z"/>
    <path class="cls-3" d="m136.94,77.17c.01-.33.02-.5.03-.83-.68-.02-1.02-.03-1.7-.05.01-.33.02-.5.03-.83-.34-.01-.51-.02-.85-.03.01-.33.02-.5.03-.83-.34-.01-.51-.02-.85-.03.02-.67.04-1,.06-1.66,1.01.04,1.52.05,2.53.09-.01.33-.02.5-.03.83.34.01.51.02.84.03-.01.33-.02.5-.03.83,1.69.05,2.54.07,4.23.11,0-.33.01-.5.02-.83.34,0,.51.01.84.02.02-1,.03-1.5.05-2.5-.34,0-.5-.01-.84-.02,0-.33.01-.5.02-.83-.34,0-.5-.01-.84-.02,0-.33.01-.5.02-.83-1.01-.02-1.51-.04-2.51-.07,0-.33.01-.5.02-.83-1-.03-1.51-.04-2.51-.08.01-.33.02-.5.03-.83-.33-.01-.5-.02-.83-.03.01-.33.02-.5.03-.83-.33-.01-.5-.02-.83-.03.06-1.66.09-2.5.15-4.16.33.01.5.02.83.03.01-.33.02-.5.03-.83.33.01.5.02.83.03.01-.33.02-.5.03-.83.33.01.49.02.82.03.01-.33.02-.5.03-.83,2.3.07,3.46.1,5.76.15,0,.33-.01.5-.02.83.33,0,.49,0,.82.02,0,.33,0,.5-.02.83.33,0,.5,0,.83.01-.01.67-.02,1-.03,1.66-.99-.02-1.49-.03-2.49-.05,0-.33.01-.5.02-.83-1.65-.04-2.48-.06-4.13-.11-.01.33-.02.5-.03.83-.33,0-.5-.02-.83-.03-.03,1-.05,1.5-.08,2.5.67.02,1,.03,1.66.05,0,.33-.01.5-.02.83,1,.03,1.5.04,2.5.07,0,.33-.01.5-.02.83.67.02,1,.02,1.67.04,0,.33-.01.5-.02.83.67.01,1,.02,1.67.03-.01.67-.02,1-.03,1.66.34,0,.5,0,.84.01-.03,1.66-.04,2.5-.06,4.16-.34,0-.51,0-.85-.01,0,.33,0,.5-.01.83-.34,0-.51,0-.85-.02,0,.33,0,.5-.02.83-.68-.01-1.02-.02-1.7-.03,0,.33-.01.5-.02.83-1.7-.04-2.55-.06-4.25-.11Z"/>
    <path class="cls-3" d="m151.74,77.4c0-2.33,0-3.5.01-5.83-.34,0-.5,0-.84,0v-1.67c-.33,0-.5,0-.83,0,0-.67,0-1,0-1.66-.33,0-.5,0-.84,0,0-.67,0-1,.01-1.67-.33,0-.5,0-.83,0,0-.67,0-1,.01-1.66-.33,0-.5,0-.83,0,0-.67.01-1,.02-1.67-.33,0-.5,0-.83,0,0-.67.01-1,.02-1.66-.33,0-.49,0-.82-.01,0-.33,0-.5.01-.83,1.32.02,1.98.02,3.29.03,0,.67,0,1-.01,1.67.33,0,.5,0,.83,0,0,.67,0,1,0,1.66.33,0,.5,0,.83,0v1.67c.33,0,.49,0,.83,0,0,.67,0,1,0,1.66.33,0,.5,0,.83,0,0,.67,0,1,0,1.67.33,0,.5,0,.84,0,0-.67,0-1,0-1.67.33,0,.5,0,.83,0,0-.67,0-1,0-1.66.33,0,.5,0,.83,0,0-.67,0-1,0-1.67.33,0,.5,0,.83,0,0-.67,0-1-.01-1.66.33,0,.5,0,.83,0,0-.67,0-1-.01-1.67,1.32-.01,1.98-.02,3.29-.04,0,.33,0,.5.01.83-.33,0-.49,0-.82.01l.02,1.66c-.33,0-.5,0-.83,0,0,.67.01,1,.02,1.67-.33,0-.5,0-.83,0,0,.67,0,1,.02,1.66-.33,0-.5,0-.83,0,0,.67,0,1,.01,1.67-.33,0-.5,0-.84,0,0,.67,0,1,.01,1.66-.34,0-.5,0-.84,0,0,.67,0,1,0,1.67-.34,0-.5,0-.84,0,0,2.33.01,3.5.02,5.83-1.02,0-1.53,0-2.55,0Z"/>
    <path class="cls-3" d="m166.59,77.22c0-.33-.01-.5-.02-.83-.68.02-1.02.03-1.7.04,0-.33-.01-.5-.02-.83-.34,0-.51.01-.85.02,0-.33-.01-.5-.02-.83-.34,0-.51.01-.85.02-.01-.67-.02-1-.03-1.66,1.01-.02,1.52-.03,2.53-.06,0,.33.01.5.02.83.34,0,.51-.01.84-.02,0,.33.01.5.02.83,1.69-.04,2.54-.07,4.23-.13-.01-.33-.02-.5-.03-.83.34-.01.51-.02.84-.03-.04-1-.05-1.5-.09-2.5-.34.01-.5.02-.84.03-.01-.33-.02-.5-.03-.83-.34.01-.5.02-.84.03-.01-.33-.02-.5-.03-.83-1.01.03-1.51.05-2.51.08,0-.33-.01-.5-.02-.83-1,.03-1.51.04-2.51.06,0-.33-.01-.5-.02-.83-.33,0-.5.01-.84.02,0-.33-.01-.5-.02-.83-.33,0-.5.01-.83.02-.03-1.66-.05-2.5-.08-4.16.33,0,.5,0,.83-.02,0-.33-.01-.5-.02-.83.33,0,.5-.01.83-.02,0-.33-.01-.5-.02-.83.33,0,.49-.01.82-.02,0-.33-.01-.5-.02-.83,2.3-.06,3.46-.09,5.76-.18.01.33.02.5.03.83.33-.01.49-.02.82-.03.01.33.02.5.03.83.33-.01.5-.02.83-.03.03.67.04,1,.07,1.66-.99.04-1.49.06-2.48.09-.01-.33-.02-.5-.03-.83-1.65.06-2.48.08-4.13.13,0,.33.01.5.02.83-.33,0-.5.01-.83.02.02,1,.04,1.5.06,2.5.67-.02,1-.03,1.66-.04,0,.33.01.5.02.83,1-.03,1.5-.04,2.5-.08.01.33.02.5.03.83.67-.02,1-.03,1.67-.06.01.33.02.5.03.83.67-.02,1-.04,1.67-.06.03.67.04,1,.07,1.66.34-.01.5-.02.84-.03.07,1.66.1,2.5.17,4.16-.34.01-.51.02-.85.03.01.33.02.5.03.83-.34.01-.51.02-.85.03.01.33.02.5.03.83-.68.03-1.02.04-1.7.06.01.33.02.5.03.83-1.7.06-2.55.08-4.25.13Z"/>
    <path class="cls-3" d="m181.43,76.62c-.31-5.65-.46-8.48-.77-14.13-2.31.13-3.47.18-5.79.28-.04-1-.06-1.5-.11-2.49,5.59-.24,8.39-.4,13.98-.8.07,1,.11,1.49.18,2.49-2.31.16-3.47.24-5.78.38.34,5.65.51,8.48.84,14.13-1.02.06-1.53.09-2.55.15Z"/>
    <path class="cls-3" d="m191.59,75.96c-.49-6.64-.74-9.96-1.23-16.6,3.94-.29,5.91-.46,9.85-.83.09.99.14,1.49.23,2.49-2.97.28-4.45.41-7.42.64l.33,4.15c3-.24,4.49-.37,7.48-.65.09.99.14,1.49.23,2.49-3.01.28-4.51.41-7.52.65.16,1.99.24,2.99.39,4.98,3.04-.24,4.56-.37,7.59-.66.09.99.14,1.49.23,2.49-4.07.38-6.1.55-10.17.86Z"/>
    <path class="cls-3" d="m204.83,74.81c-.66-6.63-.99-9.94-1.65-16.57,1.64-.16,2.46-.25,4.1-.43.11.99.16,1.49.27,2.48.33-.04.49-.05.82-.09.07.66.11.99.18,1.66.33-.04.5-.05.83-.09.11.99.17,1.49.28,2.48.33-.04.5-.06.83-.09.11.99.17,1.49.28,2.48.33-.04.5-.06.83-.09.15,1.32.23,1.98.38,3.31.34-.04.5-.06.84-.1-.15-1.32-.23-1.98-.38-3.31.33-.04.5-.06.83-.1-.12-.99-.18-1.49-.29-2.48.33-.04.5-.06.83-.1-.12-.99-.18-1.49-.3-2.48.33-.04.5-.06.83-.1-.08-.66-.12-.99-.2-1.65.33-.04.49-.06.82-.1-.12-.99-.18-1.49-.3-2.48,1.64-.2,2.46-.3,4.09-.52.87,6.6,1.3,9.9,2.16,16.51-1.01.13-1.52.2-2.53.33-.62-4.95-.94-7.43-1.56-12.39-.33.04-.5.06-.83.1l.21,1.65c-.33.04-.5.06-.83.1.16,1.32.24,1.98.41,3.3-.33.04-.5.06-.83.1.16,1.32.24,1.98.4,3.31-.34.04-.5.06-.84.1.12.99.18,1.49.3,2.48-.34.04-.51.06-.84.1.08.66.12.99.19,1.65-1.01.12-1.52.18-2.54.29-.07-.66-.11-.99-.19-1.65-.34.04-.51.06-.84.09-.11-.99-.17-1.49-.28-2.48-.34.04-.5.06-.84.09-.15-1.32-.22-1.99-.36-3.31-.33.04-.5.05-.83.09-.14-1.32-.21-1.99-.36-3.31-.33.04-.5.05-.83.09-.07-.66-.11-.99-.18-1.65-.33.04-.5.05-.83.09.52,4.97.78,7.45,1.3,12.42-1.02.11-1.52.16-2.54.26Z"/>
    <path class="cls-3" d="m227.21,72.09c-.05-.33-.07-.49-.12-.82-.67.1-1.01.14-1.68.24-.05-.33-.07-.49-.12-.82-.34.05-.5.07-.84.12-.05-.33-.07-.49-.11-.82-.34.05-.5.07-.84.12l-.23-1.65c1.01-.14,1.51-.21,2.51-.35.05.33.07.49.12.82.34-.05.5-.07.84-.12.05.33.07.49.12.82,1.68-.24,2.52-.36,4.2-.62-.05-.33-.07-.49-.12-.82.34-.05.5-.08.84-.13-.15-.99-.23-1.48-.38-2.47-.33.05-.5.08-.83.13-.05-.33-.07-.49-.12-.82-.33.05-.5.08-.83.13-.05-.33-.07-.49-.12-.82-1,.15-1.5.22-2.49.37-.05-.33-.07-.49-.12-.82-1,.14-1.49.22-2.49.36-.05-.33-.07-.49-.12-.82-.33.05-.5.07-.83.12-.05-.33-.07-.49-.11-.82-.33.05-.5.07-.83.11-.23-1.65-.34-2.47-.56-4.12.33-.04.49-.07.82-.11-.05-.33-.07-.49-.11-.82.33-.05.49-.07.82-.11-.05-.33-.07-.49-.12-.82.33-.05.49-.07.82-.12-.05-.33-.07-.49-.12-.82,2.29-.32,3.43-.49,5.72-.84.05.33.08.49.13.82.33-.05.49-.08.82-.13.05.33.08.49.13.82.33-.05.49-.08.82-.13.1.66.15.99.26,1.64-.99.15-1.48.23-2.46.38-.05-.33-.07-.49-.12-.82-1.64.25-2.46.37-4.1.61.05.33.07.49.12.82-.33.05-.49.07-.82.12.14.99.21,1.48.35,2.47.66-.09.99-.14,1.65-.24.05.33.07.49.12.82.99-.14,1.49-.22,2.48-.37.05.33.07.49.12.82.66-.1.99-.15,1.66-.25.05.33.08.49.13.82.66-.1,1-.15,1.66-.26.1.66.15.99.26,1.64.33-.05.5-.08.83-.13.26,1.64.39,2.47.65,4.11-.34.05-.5.08-.84.13.05.33.08.49.13.82-.34.05-.5.08-.84.13.05.33.08.49.13.82-.67.1-1.01.16-1.68.26.05.33.07.49.12.82-1.69.26-2.53.38-4.22.62Z"/>
  </g>
  <path class="cls-2" d="m90.45,52.96c2.18-10.1,14.58-18.74,32.11-23.42"/>
  <path class="cls-2" d="m182.95,29.54c17.53,4.68,29.93,13.32,32.11,23.42"/>
</svg>