<svg id="coffee" fill="#ffffff" enable-background="new 0 0 512 512" height="512" viewBox="0 0 512 512" width="512" xmlns="http://www.w3.org/2000/svg"><g><path d="m82.546 178.717c7.031 4.687 16.572 2.821 21.291-4.258 4.704-7.055 2.797-16.587-4.258-21.291-5.858-3.906-9.219-10.184-9.219-17.226s3.36-13.32 9.219-17.226c14.334-9.556 22.892-25.546 22.892-42.774s-8.558-33.218-22.892-42.774c-7.054-4.703-16.587-2.797-21.291 4.258s-2.797 16.587 4.258 21.291c5.858 3.906 9.219 10.184 9.219 17.226s-3.36 13.32-9.219 17.226c-14.334 9.556-22.892 25.546-22.892 42.774s8.558 33.218 22.892 42.774z"/><path d="m187.546 178.717c7.031 4.687 16.572 2.821 21.291-4.258 4.704-7.055 2.797-16.587-4.258-21.291-5.858-3.906-9.219-10.184-9.219-17.226s3.36-13.32 9.219-17.226c14.334-9.556 22.892-25.546 22.892-42.774s-8.558-33.218-22.892-42.774c-7.054-4.703-16.586-2.797-21.291 4.258-4.704 7.055-2.797 16.587 4.258 21.291 5.858 3.906 9.219 10.184 9.219 17.226s-3.36 13.32-9.219 17.226c-14.334 9.556-22.892 25.546-22.892 42.774s8.558 33.218 22.892 42.774z"/><path d="m292.546 178.717c7.031 4.687 16.572 2.821 21.291-4.258 4.704-7.055 2.797-16.587-4.258-21.291-5.858-3.906-9.219-10.184-9.219-17.226s3.36-13.32 9.219-17.226c14.334-9.556 22.892-25.546 22.892-42.774s-8.558-33.218-22.892-42.774c-7.054-4.703-16.587-2.797-21.291 4.258s-2.797 16.587 4.258 21.291c5.858 3.906 9.219 10.184 9.219 17.226s-3.36 13.32-9.219 17.226c-14.334 9.556-22.892 25.546-22.892 42.774s8.558 33.218 22.892 42.774z"/><path d="m467 241.411h-45.383c.253-4.986.383-9.986.383-15 0-8.284-6.716-15-15-15h-392c-8.284 0-15 6.716-15 15 0 51.724 13.488 102.042 40.089 149.557 21.898 39.115 48.049 67.922 66.131 85.2 13.66 13.054 31.864 20.243 51.258 20.243h107.044c19.394 0 37.598-7.189 51.258-20.243 3.058-2.922 6.351-6.182 9.81-9.757h21.41c90.981 0 165-74.019 165-165 0-24.813-20.187-45-45-45zm-171.947 198.068c-8.052 7.695-18.895 11.932-30.531 11.932h-107.044c-11.637 0-22.479-4.237-30.531-11.932-27.79-26.555-90.708-97.338-96.515-198.068h361.137c-5.808 100.73-68.726 171.513-96.516 198.068zm56.679-18.16c10.185-13.072 20.589-28.223 30.178-45.351 18.819-33.614 31.066-68.632 36.626-104.557h48.464c8.271 0 15 6.729 15 15 0 72.855-58.012 132.406-130.268 134.908z"/></g></svg>