<?xml version="1.0" encoding="UTF-8" standalone="no"?>
<svg
   version="1.1"
   id="svg2697"
   xml:space="preserve"
   width="682.66669"
   height="682.66669"
   viewBox="0 0 682.66669 682.66669"
   xmlns="http://www.w3.org/2000/svg"
   xmlns:svg="http://www.w3.org/2000/svg"><defs
     id="defs2701"><clipPath
       clipPathUnits="userSpaceOnUse"
       id="clipPath2715"><path
         d="M 0,512 H 512 V 0 H 0 Z"
         id="path2713" /></clipPath></defs><g
     id="g2703"
     transform="matrix(1.3333333,0,0,-1.3333333,0,682.66667)"><g
       id="g2705"
       transform="translate(75,316)"><path
         d="M 0,0 V -240"
         style="fill:none;stroke:#ffffff;stroke-width:30;stroke-linecap:round;stroke-linejoin:round;stroke-miterlimit:10;stroke-dasharray:none;stroke-opacity:1"
         id="path2707" /></g><g
       id="g2709"><g
         id="g2711"
         clip-path="url(#clipPath2715)"><g
           id="g2717"
           transform="translate(497,76)"><path
             d="M 0,0 V 390 L -56.487,284.099 C -58.729,279.896 -60,275.096 -60,270 c 0,-9.823 4.721,-18.543 12.019,-24.016 L 0,210"
             style="fill:none;stroke:#ffffff;stroke-width:30;stroke-linecap:round;stroke-linejoin:round;stroke-miterlimit:10;stroke-dasharray:none;stroke-opacity:1"
             id="path2719" /></g><g
           id="g2721"
           transform="translate(437,196)"><path
             d="m 0,0 c 0,-82.843 -68.157,-150 -151,-150 -82.843,0 -151,67.157 -151,150 0,82.843 68.157,150 151,150 C -68.157,150 0,82.843 0,0 Z"
             style="fill:none;stroke:#ffffff;stroke-width:30;stroke-linecap:round;stroke-linejoin:round;stroke-miterlimit:10;stroke-dasharray:none;stroke-opacity:1"
             id="path2723" /></g><g
           id="g2725"
           transform="translate(286,106)"><path
             d="m 0,0 c -49.629,0 -91,40.371 -91,90 0,49.629 41.371,90 91,90 49.629,0 91,-40.371 91,-90 C 91,40.371 49.629,0 0,0 Z"
             style="fill:none;stroke:#ffffff;stroke-width:30;stroke-linecap:round;stroke-linejoin:round;stroke-miterlimit:10;stroke-dasharray:none;stroke-opacity:1"
             id="path2727" /></g><g
           id="g2729"
           transform="translate(75,466)"><path
             d="M 0,0 V -90"
             style="fill:none;stroke:#ffffff;stroke-width:30;stroke-linecap:round;stroke-linejoin:round;stroke-miterlimit:10;stroke-dasharray:none;stroke-opacity:1"
             id="path2731" /></g><g
           id="g2733"
           transform="translate(75,316)"><path
             d="M 0,0 V 0 C -33.137,0 -60,26.863 -60,60 H 60 C 60,26.863 33.137,0 0,0 Z"
             style="fill:none;stroke:#ffffff;stroke-width:30;stroke-linecap:round;stroke-linejoin:round;stroke-miterlimit:10;stroke-dasharray:none;stroke-opacity:1"
             id="path2735" /></g><g
           id="g2737"
           transform="translate(15,466)"><path
             d="M 0,0 V -90"
             style="fill:none;stroke:#ffffff;stroke-width:30;stroke-linecap:round;stroke-linejoin:round;stroke-miterlimit:10;stroke-dasharray:none;stroke-opacity:1"
             id="path2739" /></g><g
           id="g2741"
           transform="translate(135,466)"><path
             d="M 0,0 V -90"
             style="fill:none;stroke:#ffffff;stroke-width:30;stroke-linecap:round;stroke-linejoin:round;stroke-miterlimit:10;stroke-dasharray:none;stroke-opacity:1"
             id="path2743" /></g></g></g></g></svg>
