<?xml version="1.0" encoding="utf-8"?>
<!-- Generator: Adobe Illustrator 23.1.0, SVG Export Plug-In . SVG Version: 6.00 Build 0)  -->
<svg version="1.1" id="Camada_1" xmlns="http://www.w3.org/2000/svg" xmlns:xlink="http://www.w3.org/1999/xlink" x="0px" y="0px"
	 viewBox="0 0 332.2 114" style="enable-background:new 0 0 332.2 114;" xml:space="preserve">
<style type="text/css">
	.st0{fill:#FFFFFF;}
</style>
<g>
	<g>
		<path class="st0" d="M157.6,51c0-2.9-2.6-4.6-5.4-4.6h-4.8c-3,0-5.4,2.4-5.4,5.4v12.6c0,3,2.4,5.5,5.4,5.5h4.8
			c3,0,5.4-1.3,5.4-4.6h4.6c0,4.1-2.8,9.1-9.7,9.1h-5.4c-5.5,0-9.7-4.4-9.7-9.9V51.9c0-5.5,4.5-10,10-10h4.8c5.4,0,10,3.9,10,9.1
			H157.6z"/>
		<path class="st0" d="M175.1,60.6V65c0,3,2.8,4.9,5.7,4.9h5c2.2,0,3.8-0.9,4.4-3.3h4.9c-1.1,4.4-4.5,7.8-9.2,7.8h-5.5
			c-5.5,0-9.9-4.1-9.9-9.6V51.8c0-5.5,4.5-9.9,10-9.9h4.9c5.5,0,10.1,4.5,10.1,10v8.7H175.1z M190.9,51.6c0-3-2.5-5.2-5.4-5.2h-4.9
			c-3,0-5.4,2.3-5.4,5.2v4.6h15.8V51.6z"/>
		<path class="st0" d="M221.2,74.4h-10c-4.3,0-7.7-3.5-7.6-7.8h4.6c0.1,1.9,1.5,3.3,3.5,3.3h9.7c1.9,0,3.3-1.5,3.3-3.4v-3
			c0-1.9-1.4-3.3-3.3-3.3H212c-4.5,0-7.7-3.4-7.7-7.9v-2.5c0-4.6,3.6-7.9,8.1-7.9h7.5c4.4,0,8,3.8,8,8h-4.6c0-1.8-1.4-3.5-3.6-3.5
			h-7.4c-1.9,0-3.3,1.4-3.3,3.3v2.8c0,1.9,1.4,3.3,3.3,3.3h9.4c4.5,0,7.5,3.3,7.5,7.8v2.9C229.1,71,225.7,74.4,221.2,74.4"/>
		<path class="st0" d="M237.7,29.3h5.4v5.4h-5.4V29.3z M238.1,42.5h4.6V74h-4.6V42.5z"/>
		<path class="st0" d="M257.2,42.5v22.3c0,3,2.3,5.2,5.2,5.2h5.5c2.9,0,5.4-1.7,5.4-4.8V42.5h4.6V74h-4.6v-2.3
			c-1.6,1.6-3,2.8-6.2,2.8h-4.8c-5.5,0-9.8-4.4-9.8-9.9V42.5H257.2z"/>
		<path class="st0" d="M301.9,46.4h-4.9c-2.8,0-5.3,1.9-5.3,4.9V74h-4.6V42.5h4.6v2.3c1.6-1.6,3.1-2.9,6.1-2.9h4.3
			c1.6,0,4.7,1.2,7,3.7c2.5-2.7,4.4-3.7,7.8-3.7h3.8c5.4,0,9.7,4.4,9.7,9.8V74h-4.6V51.7c0-3-2-5.3-4.9-5.3h-4.1
			c-3.1,0-5.4,2.2-5.4,5.2V74h-4.7V51.6C306.8,48.7,304.6,46.6,301.9,46.4"/>
	</g>
	<path class="st0" d="M32.6,64.7l-14.1-8.1V40.3L49.2,58v16.2L32.6,64.7z M36.5,9.3l14.1-8.1l47.3,27.3L50.5,55.8L19.9,38.1L33.9,30
		l16.6,9.6l19.2-11.1L36.5,9.3z M33.9,10.8l30.7,17.7l-14.1,8.1L33.9,27l-16.6,9.6L3.2,28.5L33.9,10.8z M1.9,30.7L16,38.8V58
		l16.6,9.6l0,16.2L1.9,66.1V30.7z M1.9,69.1l33.3,19.2l0-19.2l14,8.1v35.4L1.9,85.4V69.1z M51.8,112.7V77.2l30.7-17.7v16.2
		l-16.6,9.6v19.2L51.8,112.7z M99.1,85.3l-30.7,17.7V86.8l30.7-17.7V85.3z M85.1,74.3V59.5l12.8,7.4L85.1,74.3z M99.1,46.9
		L51.8,74.3l0-16.2l47.3-27.3V46.9z"/>
</g>
</svg>
