<?xml version="1.0" encoding="UTF-8"?>
<svg id="Layer_1" data-name="Layer 1" xmlns="http://www.w3.org/2000/svg" viewBox="0 0 980 980">
  <defs>
    <style>
      .cls-1 {
        stroke-width: 0px;
      }
    </style>
  </defs>
  <path class="cls-1" d="m480.74,603.96c79.35.19,154.92-7.26,229.15-26.03,48.42-12.24,95.28-28.69,138.61-54,30.04-17.54,57.11-38.61,77.44-67.38,27.38-38.75,28.4-86.29,2.6-126.1-12.2-18.83-28.03-34.24-45.71-47.83-30.23-23.25-63.96-40.09-99.41-53.63-78.4-29.93-160.1-43.48-243.5-47.83-72.29-3.78-144.21,0-215.54,12.86-52.91,9.53-104.36,23.96-153.58,45.94-41.42,18.5-78.15,43.17-108.58,77.33-33.85,38-37.54,91.39-12.3,131.96,15.44,24.82,36.28,44.19,60.05,60.64,37.59,26.02,79.15,43.69,122.56,57.25,81.76,25.54,165.8,35.65,248.23,36.82Zm-23.61,145.69c22.2,3.31,43.85,3.42,65.61-.03v-112.13h-65.61v112.16Zm-81.83-118.89c-.14,1.45-.26,2.1-.26,2.74-.01,35.67.05,71.33-.11,107-.02,3.55,1.79,4.29,4.42,4.53,11.61,1.06,23.22,2.05,34.83,3.02,3.73.31,7.47.46,11.35.69v-112.93c-16.75-1.68-33.28-3.35-50.23-5.05Zm-80.73-13.16c-.24,2.58-.5,4.21-.52,5.85-.28,28.29-.57,56.59-.74,84.88-.03,5.65.47,11.31.7,16.96.16,3.95,1.58,6.34,6.03,7.02,7.71,1.18,15.31,3.11,22.98,4.57,6.6,1.26,13.25,2.32,20.45,3.56v-114.27c-16.2-2.84-32.2-5.65-48.91-8.58Zm261.83,131.6c15.03-1.4,29.42-2.79,43.82-4.06,3.68-.32,4.87-1.87,4.85-5.7-.16-34.47-.09-68.94-.11-103.41,0-1.44-.18-2.88-.32-5.04-16.38,1.57-32.33,3.11-48.24,4.64v113.57Zm82.03-123.26v114.47c16.08-2.94,31.69-5.8,47.79-8.74v-114.53c-16.01,2.95-31.92,5.88-47.79,8.8Zm213.72,43.91c10.62-7.16,20.43-13.66,30.06-20.42,1.01-.71,1.34-2.93,1.33-4.45-.16-32.82-.41-65.63-.69-98.44-.02-2.03-.47-4.07-.84-6.97-10.52,6.25-20.29,11.92-29.87,17.91-1.13.71-1.69,3.11-1.68,4.72.11,32.48.31,64.96.58,97.45.03,3.06.64,6.12,1.1,10.21Zm-34.95-94.99c-9.92,3.99-18.78,7.76-27.8,11.08-3.4,1.25-4.39,3.01-4.41,6.54-.17,34.15-.53,68.3-.82,102.45-.02,1.96,0,3.92,0,6.54,2.75-.79,5.02-1.22,7.1-2.09,7.37-3.07,14.62-6.42,22.03-9.37,3.15-1.26,4.05-3.08,4.02-6.39-.17-20.82-.11-41.65-.11-62.47,0-15.15,0-30.3,0-46.28Zm-556.1,148.78c.55-1.11.82-1.4.81-1.69-.28-36.78-.56-73.57-.95-110.35-.01-1-.97-2.6-1.82-2.87-9.45-3.02-18.96-5.82-28.36-8.66-.44.98-.7,1.28-.7,1.58-.06,36.61-.13,73.22-.08,109.84,0,.99,1.01,2.57,1.89,2.86,9.74,3.23,19.55,6.26,29.2,9.3Zm-98.09-148.87c0,2.94-.01,5.05,0,7.17.21,33.14.59,66.29.46,99.43-.02,5.84,1.87,8.53,7.14,10.4,7.9,2.81,15.55,6.34,23.58,9.69.36-1.4.65-2.01.65-2.63.04-36.14.07-72.28,0-108.42,0-1.06-.85-2.71-1.73-3.09-9.73-4.19-19.54-8.18-30.08-12.54Zm-64.69-34.91c0,10.76-.06,20.72.01,30.68.17,23.13.34,46.25.65,69.38.07,5.22.82,10.73,5.33,13.99,7.88,5.69,16.2,10.76,24.79,16.39.27-1.4.49-2.01.49-2.62.02-35.61.04-71.22-.04-106.83,0-1.27-.7-3.12-1.68-3.71-9.51-5.72-19.15-11.23-29.55-17.26Zm623.14,182.74c10.46-2.86,19.86-5.42,29.69-8.11-.71-38,1.07-75.83-1.43-114.55-10.1,2.98-19.01,5.5-27.82,8.36-.97.32-1.87,2.55-1.87,3.9.02,32.46.13,64.93.34,97.39.03,4.09.67,8.18,1.1,13.02ZM31.53,484.45c.76,21.24,1.18,44.37,2.53,67.44,1.49,25.59,15.46,45.67,30.99,65.18v-5.22c0-28.97-.2-57.94.15-86.91.08-6.82-1.4-12.02-6.72-16.51-9.37-7.92-18.35-16.29-26.94-23.97Zm915.47,1.85c-8.94,8.02-18.81,16.97-28.81,25.79-2.59,2.29-3.46,4.82-3.44,8.27.17,30.83.16,61.67.2,92.5,0,1.43,0,2.85,0,4.81.99-.62,1.45-.77,1.72-1.09,13.8-16.29,23.87-34.76,28.24-55.55,5.35-25.47,1.55-51.43,2.09-74.72Z"/>
  <path class="cls-1" d="m733,980c-10.07-2.06-20.48-3.1-30.14-6.37-25.39-8.6-44.83-25.68-61.64-46-12.15-14.68-22.3-30.69-30.84-47.71-1.71-3.4-3.22-6.98-4.23-10.64-2.22-7.97.54-14.05,7.73-18.06,5.89-3.28,12.21-2.33,17.55,3.55,3.31,3.64,6.04,7.94,8.43,12.28,11.37,20.65,24.28,40.12,41.13,56.84,32.56,32.32,79.99,28.64,110.37.51,13.11-12.14,23.4-26.38,32.08-41.85,5.37-9.58,10.32-19.38,15.43-29.1.51-.97.78-2.07,1.41-3.77h-5.88c-17.49,0-34.99.04-52.48-.02-9.63-.03-18.03-14.69-13.03-22.86,4.04-6.61,8.92-10.82,17.93-10.59,26.47.67,52.97.3,79.46.17,3.47-.02,6.11.79,8.19,3.58,17.27,23.24,34.9,46.22,51.69,69.8,6.65,9.34,5.12,15.32-2.54,20.78-7.58,5.41-16.81,4.31-23.09-3.42-8.82-10.85-17.21-22.06-25.81-33.09-1.71-2.2-3.54-4.3-5.86-7.1-1.82,3.14-3.41,5.59-4.71,8.18-11.3,22.59-24.41,43.95-41.97,62.32-16.57,17.34-35.14,31.73-58.74,38.1-7.98,2.15-16.3,3.03-24.47,4.49h-6Z"/>
  <path class="cls-1" d="m233,0c5.41.85,10.87,1.44,16.21,2.59,20.77,4.47,38.4,15.06,53.74,29.31,20.67,19.2,37.45,41.52,50.35,66.65,1.96,3.82,3.51,7.92,4.72,12.04,2.21,7.5-1.29,14.93-8.24,18.32-6.89,3.36-13.99,1.55-18.63-5.5-6.67-10.15-12.87-20.62-19.34-30.9-8.9-14.15-18.74-27.55-31.4-38.66-30.38-26.64-69.86-27.95-101.4-2.67-25.9,20.75-42.28,48.34-54.97,79.3,2.31.11,4.04.26,5.77.26,17.5.02,35,.1,52.5-.03,7.41-.06,9.81,5.97,13.32,10.52,3.09,4.01,2.51,8.38-.23,12.55-4.29,6.52-9.12,10.64-18.08,10.33-25.97-.9-51.97-.73-77.97-.89-5.42-.03-9.44-2.09-12.7-6.52-15.12-20.51-30.43-40.88-45.6-61.36-1.67-2.26-3.03-4.79-4.28-7.32-3.86-7.78-2.56-13.95,3.87-19.1,4.71-3.77,14.63-3.57,19.6.82,3.23,2.85,6.17,6.1,8.81,9.5,8.57,11.05,16.94,22.26,25.81,33.97,1.11-1.89,2.13-3.5,3.02-5.16,11.35-21.17,23.52-41.78,39.17-60.17,19.11-22.46,42.39-38.29,71.28-45.24,5.46-1.31,11.11-1.79,16.68-2.65,2.67,0,5.33,0,8,0Z"/>
</svg>