<?xml version="1.0" encoding="UTF-8" standalone="no"?>
<svg
   width="16.272984"
   height="19.066229"
   viewBox="0 0 16.272984 19.066229"
   fill="none"
   version="1.1"
   id="svg1"
   xmlns="http://www.w3.org/2000/svg"
   xmlns:svg="http://www.w3.org/2000/svg">
  <g
     id="coin-flip"
     transform="translate(-3.9694024,-3.176371)">
    <path
       id="Ellipse 8"
       d="M 12.623,11.8858 C 11.193,13.3864 9.60217,14.4112 8.2157,14.8773 6.79243,15.3558 5.79076,15.1925 5.26416,14.6907 4.73756,14.1888 4.52627,13.1961 4.93575,11.7515 5.33465,10.3442 6.28186,8.70598 7.71192,7.20542 9.14198,5.70485 10.7328,4.67996 12.1193,4.21385 c 1.4232,-0.47847 2.4249,-0.31517 2.9515,0.18669 0.5266,0.50186 0.7379,1.49452 0.3284,2.93915 -0.3989,1.40728 -1.3461,3.04551 -2.7762,4.54611 z"
       stroke="#000000"
       stroke-width="1.5" />
    <path
       id="Subtract"
       fill-rule="evenodd"
       clip-rule="evenodd"
       d="m 5.83906,16.7255 c 2.21362,0.8888 5.62974,-0.2152 8.33494,-2.8798 2.7006,-2.66 3.837,-6.03247 2.9631,-8.23292 0.2429,0.11749 0.4612,0.27013 0.6507,0.45923 1.6753,1.67159 0.4625,5.55899 -2.7089,8.68269 -3.1714,3.1238 -7.10044,4.301 -8.77572,2.6294 C 6.11089,17.1923 5.95666,16.9712 5.83906,16.7255 Z"
       fill="#000000" />
    <path
       id="Vector 17"
       d="M 18.568,21.4926 C 19.4433,20.3045 20,16 18.8111,13"
       stroke="#000000"
       stroke-width="1.5"
       stroke-linecap="round"
       stroke-linejoin="round" />
    <path
       id="Vector 18"
       d="m 14,21 c 0.4203,-0.6196 0.7746,-2 0.5,-3"
       stroke="#000000"
       stroke-width="1.5"
       stroke-linecap="round"
       stroke-linejoin="round" />
    <path
       id="Vector 19"
       d="m 9,21 c 0,0 0.5,-0.5 0.5,-1"
       stroke="#000000"
       stroke-width="1.5"
       stroke-linecap="round"
       stroke-linejoin="round" />
  </g>
</svg>
