<svg id="dizzy-void" xmlns="http://www.w3.org/2000/svg" viewBox="0 0 817.22 721.6"><defs><style>.cls-1,.cls-2{fill:#fff;}.cls-2{fill-rule:evenodd;}</style></defs><circle class="cls-1" cx="388.7" cy="677.7" r="12.4"/><circle class="cls-1" cx="388.1" cy="677.1" r="11.7"/><circle class="cls-1" cx="412.5" cy="678.2" r="6.9"/><circle class="cls-1" cx="412.1" cy="677.8" r="6.5"/><circle class="cls-1" cx="429.3" cy="678.2" r="6.9"/><circle class="cls-1" cx="428.9" cy="677.8" r="6.5"/><path class="cls-2" d="M282.3,372.4a78.7,78.7,0,1,1-78.7,78.7A78.65,78.65,0,0,1,282.3,372.4Zm65.9,81.3a66.1,66.1,0,1,0-66.1,66.1A66.11,66.11,0,0,0,348.2,453.7Z" transform="translate(-0.1)"/><path class="cls-2" d="M488.1,139.2H338V8.6H488.2V139.2Zm-184,5.43a13.52,13.52,0,0,0-.56,3.87c0,1.3.3,7.6,8.9,15.1,25.1,21.8,85.5,23.2,97.2,23.4h6.1c15,0,36.7-.2,61.6-7.1,14-3.8,20.1-7.4,21.8-8.4,4.9-2.8,20.8-12.1,20.7-22.5a4.14,4.14,0,0,0-.2-1.6c-.6-3.7-3.4-6.8-7.5-10.5-1.4-1.3-2.9-2.6-4.6-4a63.06,63.06,0,0,0-10.9-7.5V0H329.4V122.8a42.74,42.74,0,0,0-11.7,5.9,54.44,54.44,0,0,0-6.8,5.5l-.16.16A402.18,402.18,0,0,0,245.4,154.2c-27.7,11.2-111.9,45.2-164.6,131.6a293.5,293.5,0,0,0-33,77.5C19.6,373,.2,397.3.1,423.2c0,26.3,19.8,44.5,23.8,47.9a67.28,67.28,0,0,0,24.4,13.2,315.2,315.2,0,0,0,54.2,105.2c18.5,23.6,58.7,67.2,120.7,93.9,13.8,6,26.5,10,37.6,13.5l1.1.3a578.93,578.93,0,0,0,100.6,22,424,424,0,0,0,45,2.4,417.44,417.44,0,0,0,44.8-2.4c18-2,54.8-7.7,99.3-23.5,7.3-2.6,19.4-6.9,34.5-13.8,26.6-12.2,93.3-47.4,136.8-110.2a315.53,315.53,0,0,0,20.8-35,301.82,301.82,0,0,0,19.6-49.5,80.38,80.38,0,0,0,28.6-15.9c7.1-6.1,23.7-20.5,25.3-44.2,1.2-17.9-6.8-35.7-22.4-49.9a70.15,70.15,0,0,0-29.6-16.1A294.25,294.25,0,0,0,726,275.2c-.5-.7-44.2-64.7-127.6-107a383.51,383.51,0,0,0-76.5-28.9c-3.2-.8-6.4-1.6-9.6-2.3a39.27,39.27,0,0,1,5.06,5.25,11.79,11.79,0,0,1,2.44,5.25,378,378,0,0,1,74.7,28.3c81.4,41.2,124,103.5,124.4,104.1a282.78,282.78,0,0,1,38.7,85.8l.7,2.5,2.5.6a63.57,63.57,0,0,1,28.3,14.7c13.7,12.6,20.7,27.9,19.7,43.1-1.4,20.1-16.1,32.9-22.4,38.3a71.65,71.65,0,0,1-27.6,14.8l-2.3.7-.7,2.3A287.72,287.72,0,0,1,715.9,567c-42.3,61.1-107.4,95.4-133.4,107.3-14.7,6.7-26.7,11-33.8,13.5-43.7,15.5-79.8,21.1-97.4,23a402.7,402.7,0,0,1-87.8,0,562.78,562.78,0,0,1-99-21.7l-1.1-.3c-11-3.5-23.4-7.4-36.8-13.2-60.2-26-99.3-68.4-117.3-91.3A306.88,306.88,0,0,1,55.9,479.7l-.7-2.3-2.3-.6a60.1,60.1,0,0,1-23.4-12.1c-3.5-3-20.8-18.9-20.8-41.4,0-22.8,18.1-44.4,43.9-52.5l2.3-.7.6-2.3a288,288,0,0,1,32.6-77.5c51.2-84,133.5-117.3,160.5-128.2A387.45,387.45,0,0,1,304.06,144.63Z" transform="translate(-0.1)"/><circle class="cls-1" cx="392" cy="545.9" r="6.7"/><circle class="cls-1" cx="425.7" cy="545.9" r="6.7"/><path class="cls-2" d="M710.4,527.2c.3,2.5,1.2,9.3-2.4,16.1-1.2,2.2-3.3,5.3-9.5,9.9s-12,7.4-19.4,10.4-14,5.4-19,6.8c-13.6,4-53.2,11.7-110.8,20.2-52.9,5.8-93.4,5.9-140.3,6.1h-5.6c-21.9,0-41.8-.4-61-1.2-17.7-.8-42-1.8-73.6-5.3-.4,0-41.6-4.7-111.2-20.6a171.52,171.52,0,0,1-18.7-5.9,74.68,74.68,0,0,1-19.5-10.5c-6.2-4.6-8.3-7.7-9.4-9.9-3.6-6.8-2.7-13.6-2.4-16.2,1.4-11.5,19.8-105.2,43.8-222.8l.1-.6c.6-3.1,2-10.5,7.9-16.4,8.6-8.7,20.9-8.9,26-8.9h26.9c38.1-.1,109.1-.2,198.1,0,58.3-.1,108.6,0,146.9,0,38.8,0,64.5.1,74.8,0,5-.1,19.8-.3,29,9.7a30.29,30.29,0,0,1,7.2,15.2c4.9,26.8,10.6,53.8,16.1,79.9C694.3,430.2,704.5,478.7,710.4,527.2Zm-10.1,12.2a18.38,18.38,0,0,0,1.5-11.1v-.1c-5.9-48.1-16.1-96.5-25.9-143.3-5.5-26.2-11.2-53.3-16.1-80-.4-2-1.3-7-5-11-6.6-7.1-18.1-7-22.5-6.9-10.5.1-36.2.1-75,0-38.3,0-88.6-.1-146.9,0-89-.2-159.9-.1-198.1,0H185.8l-.4-.1c-4.1,0-13.8.1-20,6.4-4,4.1-5.1,9.4-5.5,12l-.1.7c-23.9,117.4-42.3,210.9-43.7,222.2-.2,2-.8,6.7,1.5,11.1.4.8,1.6,3,7,7a70.15,70.15,0,0,0,17.3,9.3,174,174,0,0,0,17.7,5.6c69.1,15.8,109.9,20.4,110.3,20.4,31.3,3.4,55.4,4.5,73,5.3,20.6.9,42.2,1.3,66,1.2,46.7-.2,87.1-.3,139.3-6,57.1-8.4,96.1-16,109.5-19.9,4.6-1.3,11-3.7,18.1-6.5,6.8-2.8,12-5.3,17.5-9.3S699.9,540.2,700.3,539.4Z" transform="translate(-0.1)"/><path class="cls-2" d="M542.7,372.4A78.7,78.7,0,1,1,464,451.1,78.65,78.65,0,0,1,542.7,372.4ZM609,453.8a66.1,66.1,0,1,0-66.1,66.1A66.11,66.11,0,0,0,609,453.8Z" transform="translate(-0.1)"/><rect class="cls-1" x="376.9" y="52" width="23.8" height="29.8"/><rect class="cls-1" x="425.4" y="52" width="23.8" height="29.8"/><rect class="cls-1" x="392.8" y="99.4" width="24.6" height="16.2"/><rect class="cls-1" x="417.5" y="99.4" width="16.2" height="16.2"/><path class="cls-1" d="M320.14,460.37a27.51,27.51,0,0,0-10.88-19.78,32.34,32.34,0,0,0-14.93-6.18,33.59,33.59,0,0,0-9,0,27.81,27.81,0,0,0-10,3.52,21.73,21.73,0,0,0-9.84,11.75,17.42,17.42,0,0,0-.95,4.94,17,17,0,0,0,14.49,17.65,18,18,0,0,0,7.46-.27,14.41,14.41,0,0,0,5.64-2.9c2.18-1.91,3.61-4.83,3.49-7.15a9.41,9.41,0,0,0-1.11-3.75,7.58,7.58,0,0,0-3.49-3.81,6.57,6.57,0,0,0-3.75-.78,8,8,0,0,0-2.7.45,5.82,5.82,0,0,0-4,3.52,3.31,3.31,0,0,0-.18,1.41,3.23,3.23,0,0,0,.16,1.34,5,5,0,0,0,.88,1.6l.33.42-.28-.05a14.94,14.94,0,0,1-2.12-.43,4.3,4.3,0,0,1-1.72-1.17,6.66,6.66,0,0,1-2-5.4,11,11,0,0,1,3.08-6.92,14.68,14.68,0,0,1,7.79-4,21.31,21.31,0,0,1,5.48-.16c7.75.9,14,5.83,16.16,12.81a19,19,0,0,1-.13,11.32c-2.37,7.47-8.71,13.25-17.24,15.69a33.15,33.15,0,0,1-12.91,1A34.87,34.87,0,0,1,267,481.82a29.91,29.91,0,0,1-8.23-5.7,28.16,28.16,0,0,1-7.64-12.66c-2.5-8.77-.56-18.61,5.24-26.55a36.65,36.65,0,0,1,7.53-7.55,43.34,43.34,0,0,1,18.65-7.7,42.7,42.7,0,0,1,6.92-.62,46.81,46.81,0,0,1,12.31,1.33,6.12,6.12,0,0,0,4.11-.46,4.76,4.76,0,0,0-.61-8.94,51.14,51.14,0,0,0-7.54-1.48,57,57,0,0,0-6.29-.44,58.6,58.6,0,0,0-24.05,4.59c-1.16.5-3.85,1.81-4.9,2.4a46.86,46.86,0,0,0-16.61,15.09,41.29,41.29,0,0,0-6.35,15.49,37.92,37.92,0,0,0-.61,6.15,37.1,37.1,0,0,0,5.78,20.73,38.18,38.18,0,0,0,5.61,6.95,37.39,37.39,0,0,0,6,5,46.63,46.63,0,0,0,32.53,7.31c9.67-1.43,18.38-6.13,24.1-13a30.67,30.67,0,0,0,7.26-19.64C320.2,461.53,320.16,460.75,320.14,460.37Z" transform="translate(-0.1)"/><path class="cls-1" d="M508.68,466.64A27.44,27.44,0,0,0,528,478.25a32.41,32.41,0,0,0,16-2.18,33.42,33.42,0,0,0,7.74-4.51,27.75,27.75,0,0,0,6.89-8.09,21.74,21.74,0,0,0,2.58-15.1,17.4,17.4,0,0,0-1.67-4.75,16.94,16.94,0,0,0-21.4-7.95,18.14,18.14,0,0,0-6.32,4,14.31,14.31,0,0,0-3.4,5.35c-.93,2.75-.69,6,.59,7.93a9.25,9.25,0,0,0,2.84,2.68,7.58,7.58,0,0,0,4.93,1.53,6.54,6.54,0,0,0,3.64-1.21,8.1,8.1,0,0,0,2.11-1.75,5.84,5.84,0,0,0,1.68-5.06,3.3,3.3,0,0,0-.55-1.3,3.39,3.39,0,0,0-.81-1.09,5.2,5.2,0,0,0-1.57-.94l-.5-.19.27-.1a16.11,16.11,0,0,1,2-.7,4.44,4.44,0,0,1,2.08.15,6.66,6.66,0,0,1,4.41,3.68,11,11,0,0,1,.83,7.53,14.69,14.69,0,0,1-4.71,7.37,21.61,21.61,0,0,1-4.66,2.91c-7.14,3.12-15,2-20.41-2.94a18.92,18.92,0,0,1-5.58-9.84c-1.72-7.65.85-15.83,7-22.24a33.38,33.38,0,0,1,10.67-7.33,34.79,34.79,0,0,1,11.06-2.77,30,30,0,0,1,10,.78,28.23,28.23,0,0,1,13,7.09c6.58,6.32,9.85,15.8,8.84,25.58a36.43,36.43,0,0,1-2.7,10.32,43.33,43.33,0,0,1-12.23,16,41.8,41.8,0,0,1-5.67,4,46.28,46.28,0,0,1-11.3,5.06,6.08,6.08,0,0,0-3.32,2.47,4.75,4.75,0,0,0,5,7.41,50,50,0,0,0,7.27-2.52,53.51,53.51,0,0,0,5.65-2.78,58.66,58.66,0,0,0,18.47-16.08c.75-1,2.41-3.5,3-4.54a46.86,46.86,0,0,0,6.75-21.4,41.14,41.14,0,0,0-2.32-16.58,37.51,37.51,0,0,0-18-20.62,38.29,38.29,0,0,0-8.34-3.18,37.34,37.34,0,0,0-7.71-1.26,46.69,46.69,0,0,0-31.79,10.06c-7.63,6.11-12.79,14.55-14.27,23.36a30.6,30.6,0,0,0,3.61,20.62C508,465.67,508.46,466.33,508.68,466.64Z" transform="translate(-0.1)"/></svg>