<svg id="Layer_1" data-name="Layer 1" xmlns="http://www.w3.org/2000/svg" viewBox="0 0 219.25 39.6"><defs><style>.cls-1{fill:white;}</style></defs><path class="cls-1" d="M2.1,35.45c0-2.75,1.1-6,4.1-6a4,4,0,0,1,3.9,4.15v8.5c0,2.4,1.5,3.65,4.5,2.2L32.1,35.9c2.1-1,3.9-1.8,3.4-3.65s-2-2.1-3.75-1.3l-10.6,4.9c-4.75,2.2-8-1-8.1-4.6L13,29.35c-.05-1.85-.85-2.1-2.85-2.55L7,26.05A4.67,4.67,0,0,1,3.6,21.5c0-8.7,8.9-13.45,17.7-13.45,8.65,0,17.2,3.7,17.2,12.7,0,3.55-1.35,6-4.3,6-2,0-4.9-1.9-2.2-5.95l2.2-3.3a1.56,1.56,0,0,0-.05-2.15c-.8-.55-1.85-.5-3.5-.15L9.1,19.85C7,20.3,6.45,21.25,6.6,22.3s.8,1.55,2.4,1.85l25.45,4.6a4.76,4.76,0,0,1,4.25,4.9c0,7-9.05,14-20.5,14C6.2,47.6,2.1,41.25,2.1,35.45Z" transform="translate(-2.1 -8.05)"/><path class="cls-1" d="M63.35,35.25c2.85,0,4.75-.6,5.05-3.15l2.15-17.7c.35-2.75-1-4.5-3.1-4.1s-3.9,4.2-4.65,5.75l-6,12.4A6.65,6.65,0,0,1,50.5,32.4a5.43,5.43,0,0,1-5.35-5.55c0-2.15,1.5-4.1,3.8-6l10-8c4.35-3.45,6.15-4.75,9.4-4.75,3,0,5,2.15,5.7,5.55l4.55,24.05c1,5.6-.65,9.9-5.8,9.9-4.1,0-6-2.6-6-5.65V39.4c0-2.75-1.45-3.1-3.2-1.6L58.7,42c-2.3,2-6,5.65-10.1,5.65-2.9,0-6.15-1.65-6.15-6.35,0-4,3.6-5.65,8-5.75Z" transform="translate(-2.1 -8.05)"/><path class="cls-1" d="M110.55,29.1c2,1.3,3.15,2.7,2.2,4.45-1.15,2.05-4,1.4-7.5-.15l-13.7-5.9c-3.1-1.15-4.75,1.65-3,4.3l5,7.65c3,4.55.4,8.2-4.35,8.2-3.5,0-5.6-2.3-5.15-6.2l3-24.8c.6-5,3.5-7.75,8-7.75h17.4c3.35,0,6.45,1.6,6.45,5.3,0,4.3-2.35,5.7-5.3,5.7-1.75,0-5.55-1.8-8-2.9l-9-4.1c-3.1-1.4-4.65-.4-5.3.85s-.35,2.6,1.45,3.75Z" transform="translate(-2.1 -8.05)"/><path class="cls-1" d="M123.1,16.4l5.65-6.5a5.18,5.18,0,0,1,3.95-1.75,4.77,4.77,0,0,1,5,4.75c0,2.8-1.7,4.1-4.1,5l-5.5,1.9a1.19,1.19,0,0,0-.95,1.15c0,.85.85.85,1.3.8l3.4-.4c5.05-.6,6.75,3.65,3.45,7.45l-9.55,10.9c-.8.9-1,1.3-1,1.8a1.37,1.37,0,0,0,1.8,1.45l6-2.6c2.1-.9,4.55-.6,4.85,2.3.35,3.35-3.65,5-7.5,5-5.7,0-8.35-3.8-7-8.8l4.05-14.8a3.36,3.36,0,0,0,.15-.9c0-1.15-.9-1.55-2.5-1.55H122.4a1.44,1.44,0,0,1-1.65-1.6C120.75,19.2,121.85,17.85,123.1,16.4Z" transform="translate(-2.1 -8.05)"/><path class="cls-1" d="M173.65,47.65c-2,0-4.65-.95-7.4-4.3l-12.35-15a6.05,6.05,0,0,1-1.6-3.15c0-1.3,1-1.65,2.9-1.4l15.2,1.95c5.35.7,7.1-1.7,7.1-4.3,0-2.45-1.9-4.35-5.55-4.35H156.3c-5.15,0-8,3.05-8,6.6a7.61,7.61,0,0,0,.65,2.9l5.1,12c2,4.6,1.35,9-4.35,9-3.1,0-6.55-2.4-6.55-9.55,0-17,7.15-29.95,22.35-29.95,12.35,0,15.3,7.8,15.3,12.3,0,3.4-1.25,6.45-8.3,9l-8.2,2.9c-1.2.4-2.15,1-2.15,2.2s.8,1.55,2.7,1.55l9.85.1c3.3.05,5.8,2.1,5.8,5.2S178.85,47.65,173.65,47.65Z" transform="translate(-2.1 -8.05)"/><path class="cls-1" d="M205.75,35.25c2.85,0,4.75-.6,5.05-3.15L213,14.4c.35-2.75-1-4.5-3.1-4.1s-3.9,4.2-4.65,5.75l-6,12.4a6.65,6.65,0,0,1-6.25,3.95,5.43,5.43,0,0,1-5.35-5.55c0-2.15,1.5-4.1,3.8-6l10.05-8c4.35-3.45,6.15-4.75,9.4-4.75,3,0,5,2.15,5.7,5.55l4.55,24.05c1,5.6-.65,9.9-5.8,9.9-4.1,0-6.05-2.6-6.05-5.65V39.4c0-2.75-1.45-3.1-3.2-1.6L201.1,42c-2.3,2-6,5.65-10.1,5.65-2.9,0-6.15-1.65-6.15-6.35,0-4,3.6-5.65,8-5.75Z" transform="translate(-2.1 -8.05)"/></svg>