<svg width="52" height="34" viewBox="0 0 52 34" fill="none" xmlns="http://www.w3.org/2000/svg">
<g clip-path="url(#clip0)">
<path d="M19.841 11.3804C19.6757 11.3804 19.5221 11.4158 19.3686 11.4747L10.015 1.57864H11.4086L17.7152 8.24669C17.6207 8.41162 17.5735 8.60012 17.5735 8.8004C17.5735 9.44835 18.0931 9.96672 18.7427 9.96672C19.3922 9.96672 19.9119 9.44835 19.9119 8.8004C19.9119 8.15244 19.3922 7.63408 18.7427 7.63408C18.601 7.63408 18.471 7.65764 18.3529 7.70476L12.566 1.57864H13.9596L17.0066 4.80663C16.9121 4.97157 16.8649 5.16006 16.8649 5.37212C16.8649 6.02008 17.3845 6.53844 18.0341 6.53844C18.6836 6.53844 19.2033 6.02008 19.2033 5.37212C19.2033 4.72417 18.6836 4.2058 18.0341 4.2058C17.8923 4.2058 17.7624 4.22936 17.6443 4.27649C16.5342 3.11017 15.424 1.93207 14.3257 0.765747C12.4833 0.765747 10.6409 0.765747 8.81036 0.765747C7.15694 2.50934 5.51533 4.24114 3.86191 5.98473C3.86191 7.20996 3.86191 8.43518 3.86191 9.66041L2.24392 7.95216C2.30298 7.81079 2.33841 7.64586 2.33841 7.48092C2.33841 6.83297 1.81876 6.3146 1.1692 6.3146C0.519646 6.3146 0 6.84475 0 7.48092C0 8.12888 0.519646 8.64724 1.1692 8.64724C1.34635 8.64724 1.5117 8.6119 1.65342 8.54121L16.5578 24.3042V29.2169H15.672V24.8933C11.5739 20.5461 7.464 16.1871 3.34227 11.8399C3.43675 11.6632 3.4958 11.4629 3.4958 11.2508C3.4958 10.6029 2.97615 10.0845 2.3266 10.0845C1.67704 10.0845 1.15739 10.6029 1.15739 11.2508C1.15739 11.8988 1.67704 12.4172 2.3266 12.4172C2.45651 12.4172 2.57461 12.3936 2.69271 12.3583L14.8453 25.2113V26.6251L4.05087 15.2093C4.13354 15.0561 4.16898 14.8794 4.16898 14.6909C4.16898 14.0429 3.64933 13.5246 2.99977 13.5246C2.35022 13.5246 1.83057 14.0429 1.83057 14.6909C1.83057 15.3389 2.35022 15.8572 2.99977 15.8572C3.1533 15.8572 3.30684 15.8219 3.43675 15.7748L14.8453 27.8385V29.2169H8.397V27.3908C8.83398 27.2259 9.14104 26.8018 9.14104 26.307C9.14104 25.659 8.62139 25.1407 7.97184 25.1407C7.32228 25.1407 6.80263 25.659 6.80263 26.307C6.80263 26.8018 7.12151 27.2259 7.55848 27.4026V29.2169H6.25937V25.5766C6.69634 25.4116 7.01522 24.9875 7.01522 24.4927C7.01522 23.8447 6.49557 23.3264 5.84601 23.3264C5.19646 23.3264 4.67681 23.8447 4.67681 24.4927C4.67681 24.9875 4.99568 25.4116 5.43266 25.5766V29.2169H4.23984V23.6916C4.67681 23.5267 4.99568 23.1025 4.99568 22.6077C4.99568 21.9598 4.47604 21.4414 3.82648 21.4414C3.17692 21.4414 2.65728 21.9598 2.65728 22.6077C2.65728 23.1025 2.97615 23.5267 3.41313 23.6916V29.7353C5.72791 31.1372 8.05451 32.5391 10.3693 33.9293C11.9991 33.9293 13.6289 33.9293 15.2587 33.9293C16.546 32.5627 17.8333 31.2079 19.1324 29.8413C19.1324 27.3319 19.1324 24.8226 19.1324 22.3132C15.8846 18.8732 12.6368 15.4449 9.38905 12.0048V6.49132L11.4558 4.30005L18.7899 12.052C18.7191 12.2051 18.6836 12.37 18.6836 12.535C18.6836 13.1829 19.2033 13.7013 19.8528 13.7013C20.5024 13.7013 21.022 13.1829 21.022 12.535C21.0102 11.8988 20.4906 11.3804 19.841 11.3804ZM18.7427 8.12888C19.1206 8.12888 19.4159 8.43518 19.4159 8.8004C19.4159 9.17739 19.1088 9.47191 18.7427 9.47191C18.3647 9.47191 18.0695 9.16561 18.0695 8.8004C18.0577 8.4234 18.3647 8.12888 18.7427 8.12888ZM18.0223 4.68882C18.4002 4.68882 18.6954 4.99513 18.6954 5.36034C18.6954 5.73733 18.3884 6.03186 18.0223 6.03186C17.6443 6.03186 17.3491 5.72555 17.3491 5.36034C17.3491 4.99513 17.6443 4.68882 18.0223 4.68882ZM1.1692 8.15244C0.791279 8.15244 0.496025 7.84613 0.496025 7.48092C0.496025 7.10393 0.803089 6.80941 1.1692 6.80941C1.54713 6.80941 1.84238 7.11571 1.84238 7.48092C1.84238 7.85791 1.54713 8.15244 1.1692 8.15244ZM2.33841 11.9341C1.96048 11.9341 1.66523 11.6278 1.66523 11.2626C1.66523 10.8856 1.97229 10.5911 2.33841 10.5911C2.71633 10.5911 3.01158 10.8974 3.01158 11.2626C3.01158 11.6278 2.70452 11.9341 2.33841 11.9341ZM3.01158 15.3742C2.63366 15.3742 2.33841 15.0679 2.33841 14.7027C2.33841 14.3257 2.64547 14.0312 3.01158 14.0312C3.38951 14.0312 3.68476 14.3375 3.68476 14.7027C3.68476 15.0679 3.3777 15.3742 3.01158 15.3742ZM3.1533 22.596C3.1533 22.219 3.46037 21.9244 3.82648 21.9244C4.20441 21.9244 4.49966 22.2307 4.49966 22.596C4.49966 22.973 4.1926 23.2675 3.82648 23.2675C3.44856 23.2675 3.1533 22.973 3.1533 22.596ZM6.12946 6.2557V12.0755L4.67681 10.5204V6.30282L9.01113 1.72001L9.71974 2.46221C8.5151 3.72278 7.32228 4.98335 6.12946 6.2557ZM7.31047 26.307C7.31047 25.93 7.61753 25.6355 7.98365 25.6355C8.36157 25.6355 8.65683 25.9418 8.65683 26.307C8.65683 26.684 8.34976 26.9785 7.98365 26.9785C7.60572 26.9785 7.31047 26.684 7.31047 26.307ZM5.18465 24.4927C5.18465 24.1157 5.49171 23.8212 5.85782 23.8212C6.23575 23.8212 6.531 24.1275 6.531 24.4927C6.531 24.8697 6.22394 25.1642 5.85782 25.1642C5.49171 25.1642 5.18465 24.8579 5.18465 24.4927ZM14.8926 33.1046H10.5937L8.7395 31.9854H15.9437L14.8926 33.1046ZM16.735 31.149H7.36952L5.53895 30.0416H17.7861L16.735 31.149ZM8.55053 6.16145C8.55053 8.22313 8.55053 10.273 8.55053 12.3347C11.7983 15.7748 15.0461 19.203 18.2939 22.6431V29.2169H17.3963V23.9743C13.9241 20.2987 10.4402 16.623 6.96798 12.9473V6.58557L10.2866 3.07483L10.8889 3.711L8.55053 6.16145ZM19.841 13.2183C19.4631 13.2183 19.1678 12.912 19.1678 12.5468C19.1678 12.1698 19.4749 11.8752 19.841 11.8752C20.2189 11.8752 20.5142 12.1815 20.5142 12.5468C20.526 12.912 20.2189 13.2183 19.841 13.2183Z" fill="#FEFCFB"/>
<path d="M37.2489 21.4886C36.5994 21.4886 36.0797 22.0069 36.0797 22.6549C36.0797 22.8198 36.1151 22.9847 36.186 23.1261L28.9936 30.3008L27.1513 28.4629V19.6507H29.6078C29.7731 20.0984 30.1983 20.4283 30.7061 20.4283C31.3557 20.4283 31.8753 19.9099 31.8753 19.2619C31.8753 18.614 31.3557 18.0956 30.7061 18.0956C30.2219 18.0956 29.7967 18.3902 29.6196 18.826H27.1513V17.6715H31.8871C32.0525 18.131 32.4776 18.4491 32.9855 18.4491C33.635 18.4491 34.1547 17.9307 34.1547 17.2827C34.1547 16.6348 33.635 16.1164 32.9855 16.1164C32.5012 16.1164 32.0761 16.4109 31.9107 16.8351H27.1513V15.7276H34.3318C34.4972 16.1635 34.9223 16.4816 35.4183 16.4816C36.0679 16.4816 36.5875 15.9633 36.5875 15.3153C36.5875 14.6674 36.0679 14.149 35.4183 14.149C34.9223 14.149 34.4972 14.4671 34.3318 14.903H27.1513V12.8177L28.8992 10.9092L28.285 10.3437L21.6123 17.6244C21.6123 21.4061 21.6123 25.1878 21.6123 28.9813C23.065 30.4303 24.5176 31.8794 25.9702 33.3285L26.5607 33.9175C28.4031 33.9175 30.2455 33.9175 32.0997 33.9175C33.1862 32.8337 34.2609 31.7616 35.3475 30.6777C35.501 30.7484 35.6664 30.7838 35.8435 30.7838C36.4931 30.7838 37.0127 30.2654 37.0127 29.6175C37.0127 28.9695 36.4931 28.4511 35.8435 28.4511C35.1939 28.4511 34.6743 28.9695 34.6743 29.6175C34.6743 29.7824 34.7097 29.9355 34.7688 30.0769L31.7572 33.0811H30.3518L35.9852 27.4615C36.1388 27.5322 36.3041 27.5793 36.4931 27.5793C37.1426 27.5793 37.6623 27.061 37.6623 26.413C37.6623 25.7651 37.1426 25.2467 36.4931 25.2467C35.8435 25.2467 35.3239 25.7651 35.3239 26.413C35.3239 26.5662 35.3593 26.7193 35.4183 26.8607L29.1708 33.0811H27.3875L27.7654 32.7041C27.9662 32.5038 28.1551 32.3153 28.3559 32.115L36.7765 23.7152C36.9182 23.7859 37.0836 23.8212 37.2489 23.8212C37.8985 23.8212 38.4181 23.3028 38.4181 22.6549C38.4181 22.0187 37.8985 21.4886 37.2489 21.4886ZM30.7061 18.6022C31.084 18.6022 31.3793 18.9085 31.3793 19.2737C31.3793 19.6507 31.0722 19.9452 30.7061 19.9452C30.3282 19.9452 30.0329 19.6389 30.0329 19.2737C30.0329 18.8967 30.34 18.6022 30.7061 18.6022ZM32.9855 16.6112C33.3634 16.6112 33.6586 16.9175 33.6586 17.2827C33.6586 17.6597 33.3516 17.9543 32.9855 17.9543C32.6075 17.9543 32.3123 17.6479 32.3123 17.2827C32.3123 16.9175 32.6193 16.6112 32.9855 16.6112ZM35.4302 14.6438C35.8081 14.6438 36.1033 14.9501 36.1033 15.3153C36.1033 15.6923 35.7963 15.9868 35.4302 15.9868C35.0522 15.9868 34.757 15.6805 34.757 15.3153C34.757 14.9501 35.0522 14.6438 35.4302 14.6438ZM36.4813 25.7415C36.8592 25.7415 37.1544 26.0478 37.1544 26.413C37.1544 26.79 36.8474 27.0845 36.4813 27.0845C36.1033 27.0845 35.8081 26.7782 35.8081 26.413C35.8081 26.0478 36.1151 25.7415 36.4813 25.7415ZM35.8317 28.9342C36.2096 28.9342 36.5049 29.2405 36.5049 29.6057C36.5049 29.9827 36.1978 30.2772 35.8317 30.2772C35.4538 30.2772 35.1585 29.9709 35.1585 29.6057C35.1585 29.2405 35.4538 28.9342 35.8317 28.9342ZM26.5607 32.7394L22.439 28.6278V17.9425L23.868 16.3874V28.8163L27.1749 32.115L26.5607 32.7394ZM24.7066 28.4747V15.4802L26.3245 13.7249V28.8163L28.4031 30.8898L27.7654 31.526L24.7066 28.4747ZM37.2489 23.3264C36.871 23.3264 36.5757 23.0201 36.5757 22.6549C36.5757 22.2779 36.8828 21.9834 37.2489 21.9834C37.6268 21.9834 37.9221 22.2897 37.9221 22.6549C37.9221 23.0319 37.6268 23.3264 37.2489 23.3264Z" fill="#FEFCFB"/>
<path d="M22.1912 15.0443L25.9704 10.9446H25.9822V10.9328L27.5412 9.23631L26.927 8.67082L26.0059 9.67221V5.47817H36.2452C36.4106 5.91406 36.8357 6.23215 37.3318 6.23215C37.9813 6.23215 38.501 5.71379 38.501 5.06583C38.501 4.41788 37.9813 3.89951 37.3318 3.89951C36.8357 3.89951 36.4106 4.2176 36.2452 4.6535H22.9588L23.9391 3.59321H33.1274C33.2927 4.0291 33.7179 4.34719 34.2139 4.34719C34.8635 4.34719 35.3831 3.82883 35.3831 3.18087C35.3831 2.53291 34.8635 2.01455 34.2139 2.01455C33.7179 2.01455 33.2927 2.33264 33.1274 2.76853H24.7067L25.7933 1.59043H29.9504C30.1158 2.03811 30.5409 2.3562 31.0488 2.3562C31.6983 2.3562 32.218 1.83784 32.218 1.18988C32.218 0.541924 31.6983 0.0235596 31.0488 0.0235596C30.5528 0.0235596 30.1276 0.329866 29.9622 0.765763C28.4506 0.765763 26.9389 0.765763 25.439 0.765763C24.1517 2.1677 22.8644 3.55786 21.5889 4.9598C21.6007 8.23492 21.6007 11.51 21.6007 14.7969C21.6007 14.8912 21.6007 15.657 21.6007 15.7512C21.7778 15.492 21.9786 15.2682 22.1912 15.0443ZM37.3318 4.38253C37.7097 4.38253 38.0049 4.68884 38.0049 5.05405C38.0049 5.43104 37.6979 5.72557 37.3318 5.72557C36.9538 5.72557 36.6586 5.41926 36.6586 5.05405C36.6586 4.68884 36.9538 4.38253 37.3318 4.38253ZM34.2139 2.49757C34.5918 2.49757 34.8871 2.80388 34.8871 3.16909C34.8871 3.54608 34.58 3.84061 34.2139 3.84061C33.836 3.84061 33.5407 3.5343 33.5407 3.16909C33.5289 2.7921 33.836 2.49757 34.2139 2.49757ZM31.037 0.4948C31.4149 0.4948 31.7101 0.801106 31.7101 1.16632C31.7101 1.54331 31.4031 1.83784 31.037 1.83784C30.659 1.83784 30.3638 1.53153 30.3638 1.16632C30.3638 0.789325 30.659 0.4948 31.037 0.4948ZM22.392 5.47817H23.3368V12.5703L22.392 13.5953V5.47817ZM25.1437 10.6147L24.1753 11.675V5.47817H25.1437V10.6147Z" fill="#FEFCFB"/>
<path d="M51.114 27.2612C50.618 27.2612 50.2164 27.6618 50.2164 28.1566C50.2164 28.2155 50.2283 28.2862 50.2401 28.3451L47.9489 30.4775L46.9332 29.4761L49.1535 27.3908C49.2716 27.4497 49.4016 27.4851 49.5433 27.4851C50.0393 27.4851 50.4408 27.0845 50.4408 26.5897C50.4408 26.0949 50.0393 25.6944 49.5433 25.6944C49.0472 25.6944 48.6457 26.0949 48.6457 26.5897C48.6457 26.6368 48.6457 26.6722 48.6575 26.7193L46.3427 28.8988L46.0239 28.5807V13.0298C46.4608 12.8648 46.7797 12.4407 46.7797 11.9459C46.7797 11.298 46.2601 10.7796 45.6105 10.7796C44.9609 10.7796 44.4413 11.298 44.4413 11.9459C44.4413 12.4407 44.7602 12.8648 45.1972 13.0298V28.8752C45.3743 29.0637 45.5633 29.264 45.7404 29.4525L45.1499 30.0062L43.5792 28.4629V14.4906C44.0398 14.3375 44.3822 13.9016 44.3822 13.3832C44.3822 12.7352 43.8626 12.2169 43.213 12.2169C42.5635 12.2169 42.0438 12.7352 42.0438 13.3832C42.0438 13.8662 42.3391 14.2786 42.7525 14.4553C42.7525 19.2384 42.7525 24.0215 42.7525 28.8046C43.3548 29.3936 43.9453 29.9944 44.5476 30.5835L43.8272 31.255L41.2408 28.6867V16.0339C41.6777 15.869 41.9966 15.4449 41.9966 14.9501C41.9966 14.3021 41.477 13.7838 40.8274 13.7838C40.1779 13.7838 39.6582 14.3021 39.6582 14.9501C39.6582 15.4449 39.9771 15.869 40.4141 16.0339V29.0284C42.0793 30.6895 43.7445 32.3389 45.4097 34C47.1931 32.3271 48.9882 30.6542 50.7715 28.9695C50.8778 29.0166 50.9959 29.0402 51.114 29.0402C51.61 29.0402 52.0116 28.6396 52.0116 28.1448C51.9998 27.6618 51.5982 27.2612 51.114 27.2612ZM49.5433 26.1892C49.7677 26.1892 49.9448 26.3659 49.9448 26.5897C49.9448 26.8136 49.7677 26.9903 49.5433 26.9903C49.3189 26.9903 49.1417 26.8136 49.1417 26.5897C49.1535 26.3777 49.3307 26.1892 49.5433 26.1892ZM44.9373 11.9459C44.9373 11.5689 45.2444 11.2744 45.6105 11.2744C45.9884 11.2744 46.2837 11.5807 46.2837 11.9459C46.2837 12.3229 45.9766 12.6174 45.6105 12.6174C45.2444 12.6174 44.9373 12.3229 44.9373 11.9459ZM42.5399 13.3832C42.5399 13.0062 42.8469 12.7117 43.213 12.7117C43.591 12.7117 43.8862 13.018 43.8862 13.3832C43.8862 13.7602 43.5792 14.0547 43.213 14.0547C42.8469 14.0665 42.5399 13.7602 42.5399 13.3832ZM46.3309 30.0416L47.3466 31.0429L46.7561 31.5967L45.7404 30.5953L46.3309 30.0416ZM45.1263 31.1725L46.142 32.1739L45.4215 32.8454L44.4059 31.844L45.1263 31.1725ZM40.1542 14.9383C40.1542 14.5613 40.4613 14.2668 40.8274 14.2668C41.2053 14.2668 41.5006 14.5731 41.5006 14.9383C41.5006 15.3153 41.1935 15.6098 40.8274 15.6098C40.4495 15.6216 40.1542 15.3153 40.1542 14.9383ZM51.114 28.5454C50.8896 28.5454 50.7125 28.3687 50.7125 28.1448C50.7125 27.921 50.8896 27.7443 51.114 27.7443C51.3384 27.7443 51.5156 27.921 51.5156 28.1448C51.5038 28.3687 51.3266 28.5454 51.114 28.5454Z" fill="#FEFCFB"/>
<path d="M40.3667 11.2862C40.5675 11.0859 40.7682 10.8974 40.969 10.6971L46.071 5.74912C46.071 4.06444 46.071 2.39153 46.071 0.706848H45.2443H44.1578H43.331C43.331 2.08523 43.331 3.45182 43.331 4.8302H42.2209V3.01593C42.6579 2.85099 42.9767 2.42688 42.9767 1.93207C42.9767 1.28412 42.4571 0.765753 41.8075 0.765753C41.158 0.765753 40.6383 1.28412 40.6383 1.93207C40.6383 2.42688 40.9572 2.85099 41.3942 3.01593V4.8302H41.2052H40.3785H40.3667V5.65487H40.3785C40.3667 7.52805 40.3667 9.41302 40.3667 11.2862ZM41.1226 1.93207C41.1226 1.55508 41.4296 1.26056 41.7957 1.26056C42.1737 1.26056 42.4689 1.56686 42.4689 1.93207C42.4689 2.30907 42.1618 2.60359 41.7957 2.60359C41.4178 2.60359 41.1226 2.29728 41.1226 1.93207ZM45.2443 1.53152V5.38391L44.1578 6.4442V1.53152H45.2443ZM43.3192 5.65487V7.25709L41.1934 9.31877V5.65487H43.3192Z" fill="#FEFCFB"/>
</g>
<defs>
<clipPath id="clip0">
<rect width="52" height="34" fill="white"/>
</clipPath>
</defs>
</svg>
