<?xml version="1.0" encoding="UTF-8" standalone="no"?>
<svg
   width="20.5"
   height="14"
   viewBox="0 0 20.5 14"
   fill="none"
   version="1.1"
   id="svg1"
   sodipodi:docname="slots.svg"
   inkscape:version="1.4 (e7c3feb100, 2024-10-09)"
   xmlns:inkscape="http://www.inkscape.org/namespaces/inkscape"
   xmlns:sodipodi="http://sodipodi.sourceforge.net/DTD/sodipodi-0.dtd"
   xmlns="http://www.w3.org/2000/svg"
   xmlns:svg="http://www.w3.org/2000/svg">
  <defs
     id="defs1" />
  <sodipodi:namedview
     id="namedview1"
     pagecolor="#ffffff"
     bordercolor="#000000"
     borderopacity="0.25"
     inkscape:showpageshadow="2"
     inkscape:pageopacity="0.0"
     inkscape:pagecheckerboard="0"
     inkscape:deskcolor="#d1d1d1"
     inkscape:zoom="33.458333"
     inkscape:cx="9.4894147"
     inkscape:cy="6.5006227"
     inkscape:window-width="1854"
     inkscape:window-height="1011"
     inkscape:window-x="0"
     inkscape:window-y="0"
     inkscape:window-maximized="1"
     inkscape:current-layer="svg1" />
  <g
     id="slots"
     transform="translate(-2.5,-5.5)">
    <rect
       id="Rectangle 1"
       x="8"
       y="6"
       width="7"
       height="13"
       stroke="#000000"
       stroke-linejoin="round" />
    <rect
       id="Rectangle 2"
       x="3"
       y="7"
       width="5"
       height="11"
       stroke="#000000"
       stroke-linejoin="round" />
    <rect
       id="Rectangle 3"
       x="15"
       y="7"
       width="5"
       height="11"
       stroke="#000000"
       stroke-linejoin="round" />
    <path
       id="Vector 20"
       d="M 3,9 H 8"
       stroke="#000000" />
    <path
       id="Vector 24"
       d="m 15,9 h 5"
       stroke="#000000" />
    <path
       id="Vector 22"
       d="m 8,10 h 7"
       stroke="#000000" />
    <path
       id="Vector 21"
       d="M 3,15 H 8"
       stroke="#000000" />
    <path
       id="Vector 25"
       d="m 15,15 h 5"
       stroke="#000000" />
    <path
       id="Vector 23"
       d="m 8,16 h 7"
       stroke="#000000" />
    <path
       id="Vector 26"
       d="m 22,11 v 3"
       stroke="#000000"
       stroke-linecap="round" />
    <path
       id="Vector 27"
       d="M 22,14 H 20"
       stroke="#000000"
       stroke-linecap="round" />
    <circle
       id="Ellipse 9"
       cx="22"
       cy="10"
       r="1"
       fill="#000000" />
    <path
       id="Vector 28"
       d="m 10,13 1.5,1 1.5,-1 -1.5,-1 z"
       stroke="#000000"
       stroke-linecap="round"
       stroke-linejoin="round" />
    <path
       id="Vector 35"
       d="M 8,18 6.5,17 5,18"
       stroke="#000000"
       stroke-linecap="round"
       stroke-linejoin="round" />
    <path
       id="Vector 29"
       d="m 15,12 1.5,1 1.5,-1 -1.5,-1 z"
       stroke="#000000"
       stroke-linecap="round"
       stroke-linejoin="round" />
    <path
       id="Vector 30"
       d="M 5,12 6.5,13 8,12 6.5,11 Z"
       stroke="#000000"
       stroke-linecap="round"
       stroke-linejoin="round" />
    <path
       id="Vector 37"
       d="m 10,6 c 0,1 0,1.5 1.5,1.5 C 13,7.5 13,7 13,6"
       stroke="#000000"
       stroke-linecap="round"
       stroke-linejoin="round" />
    <path
       id="Vector 39"
       d="M 18,18 C 18,17.3333 18,17 16.5,17 15,17 15,17.3333 15,18"
       stroke="#000000"
       stroke-linecap="round"
       stroke-linejoin="round" />
    <path
       id="Vector 38"
       d="M 10.2238,18.6461 V 18.1798 L 12.5,17.5 l 0.8715,1.4493"
       stroke="#000000"
       stroke-linecap="round"
       stroke-linejoin="round" />
  </g>
</svg>
