<?xml version="1.0"?>
<svg xmlns="http://www.w3.org/2000/svg" id="line" fill="white" viewBox="0 0 64 64"><path d="M27.00006,18.00064h9.99985a.99972.99972,0,0,0,1-1v-2a2.99805,2.99805,0,0,0-2.5-2.94942V6.00082a2.00226,2.00226,0,0,0-2-2h-3a2.00226,2.00226,0,0,0-2,2v6.05044a2.99805,2.99805,0,0,0-2.5,2.94942v2A.99973.99973,0,0,0,27.00006,18.00064ZM30.5,6.00082h3v5.99991h-3ZM28,15.00068a1.001,1.001,0,0,1,1-1h5.99991a1.001,1.001,0,0,1,1,1v1H28Z"/><path d="M33.65425,20.06213a1.00021,1.00021,0,0,0-.59276,1.28416l9.48032,25.73984a1.00011,1.00011,0,1,0,1.87693-.69139L34.93841,20.65489A1.00077,1.00077,0,0,0,33.65425,20.06213Z"/><path d="M29.06155,20.65489,19.58123,46.39474a1.00028,1.00028,0,0,0,1.87692.69133l9.48033-25.73978A1.00033,1.00033,0,0,0,29.06155,20.65489Z"/><path d="M18.09492,14.03585c.24981-.55663-.80529-1.85861-1.09953-2.49025a2.99924,2.99924,0,0,0-3.64057-1.30589l-3.02443-5.2379a1.9986,1.9986,0,0,0-2.7314-.7329l-2.59762,1.5A2.00244,2.00244,0,0,0,4.268,8.50078l3.02529,5.24028a2.99941,2.99941,0,0,0-.69036,3.804l1,1.73191a1.00171,1.00171,0,0,0,1.36619.3662l8.66-4.99992A1,1,0,0,0,18.09492,14.03585ZM6.00038,7.50129,8.598,6.00082l3.00008,5.19658L9.00033,12.69719ZM8.8353,17.4108l-.5-.86522a1.00147,1.00147,0,0,1,.36621-1.36619l4.763-2.75032.43322-.25012a1.0034,1.0034,0,0,1,1.36521.3662l.5.86571Z"/><path d="M15.762,18.10122a.99935.99935,0,0,0,.1289,1.40818l7.68934,6.39981a.9999.9999,0,0,0,1.27928-1.53709l-7.68934-6.3998A.99875.99875,0,0,0,15.762,18.10122Z"/><path d="M18.12519,44.20044,14.05592,20.57091a.99988.99988,0,1,0-1.97067.33984l4.06927,23.62952a.99988.99988,0,1,0,1.97067-.33983Z"/><path d="M58.99957,5.76889,56.402,4.2694a1.99955,1.99955,0,0,0-2.73238.73143l-3.02449,5.23882a2.99923,2.99923,0,0,0-3.64045,1.30552l-1,1.73191a1.00665,1.00665,0,0,0,.36621,1.36619l8.66,4.99992a1.00159,1.00159,0,0,0,1.36619-.3662l1-1.7324a2.99889,2.99889,0,0,0-.69042-3.80359L59.732,8.49981A2.00207,2.00207,0,0,0,58.99957,5.76889Zm-3.33491,10.7762-.5.86571L48.237,13.41086l.5-.86619a1.00427,1.00427,0,0,1,1.36522-.36523l5.19621,3A1.001,1.001,0,0,1,55.66466,16.54509Zm-.66509-3.84784-2.59792-1.49961L55.401,6.00131l2.5986,1.49949Z"/><path d="M39.78111,26.14065a.99445.99445,0,0,0,.63867-.23144l7.68933-6.39981a.99989.99989,0,1,0-1.27927-1.53708l-7.68934,6.3998A1.00644,1.00644,0,0,0,39.78111,26.14065Z"/><path d="M51.0993,19.75549a.99928.99928,0,0,0-1.15525.81542L45.87477,44.20044a.99988.99988,0,0,0,1.97068.33983l4.06927-23.62952A1,1,0,0,0,51.0993,19.75549Z"/><path d="M32,48.00018c-7.3202,0-15.09938,2.103-15.09938,5.99991S24.67978,60,32,60s15.09938-2.103,15.09938-5.99991S39.32018,48.00018,32,48.00018ZM32,58c-7.996,0-13.09941-2.3691-13.09941-3.99994S24.004,50.00015,32,50.00015s13.09941,2.36911,13.09941,3.99994S39.996,58,32,58Z"/></svg>
