<?xml version="1.0" encoding="utf-8"?>
<svg version="1.1" id="star-struck-void" xmlns="http://www.w3.org/2000/svg" xmlns:xlink="http://www.w3.org/1999/xlink" x="0px"
	 y="0px" viewBox="0 0 817.3 721.6" style="enable-background:new 0 0 817.3 721.6;" xml:space="preserve">
<style type="text/css">
	.st0{fill:#FFFFFF;}
</style>
<g id="star-struck-void-layer">
	<g>
		<path class="st0" d="M817.2,427.1c-1.6,23.7-18.2,38.1-25.3,44.2c-8.3,7.2-17.9,12.5-28.6,15.9c-5.2,17.3-11.7,33.9-19.6,49.5
			c-1.5,3-9.6,18.8-20.8,35c-43.5,62.8-110.2,98-136.8,110.2c-15.1,6.9-27.2,11.2-34.5,13.8c-44.5,15.8-81.3,21.5-99.3,23.5
			c-14.8,1.6-29.8,2.4-44.8,2.4v0c-15,0-30-0.8-45-2.4c-34-4.3-67.8-11.7-100.6-22l-1.1-0.3c-11.1-3.5-23.8-7.5-37.6-13.5
			c-62-26.7-102.2-70.3-120.7-93.9c-24.5-31.3-42.8-66.7-54.2-105.2c-9.1-2.7-17.3-7.2-24.4-13.2c-4-3.4-23.8-21.6-23.8-47.9
			c0.1-25.9,19.5-50.2,47.7-59.9c7.4-27.7,18.5-53.8,33-77.5c52.7-86.4,136.9-120.4,164.6-131.6c13.8-5.6,36.4-13.6,65.6-19.9
			c-2.9,2.8-5.7,6.3-6.8,10.3c-24.5,5.8-43.5,12.6-55.6,17.5c-27,10.9-109.3,44.2-160.5,128.2c-14.4,23.7-25.4,49.7-32.6,77.5
			l-0.6,2.3l-2.3,0.7c-25.8,8.1-43.9,29.7-43.9,52.5c0,22.5,17.3,38.4,20.8,41.4c6.7,5.7,14.6,9.7,23.4,12.1l2.3,0.6l0.7,2.3
			c11.1,38.4,29.1,73.6,53.4,104.6c18,22.9,57.1,65.3,117.3,91.3c13.4,5.8,25.8,9.7,36.8,13.2l1.1,0.3c32.3,10.2,65.6,17.5,99,21.7
			c29.2,3.2,58.8,3.2,87.8,0c17.6-1.9,53.7-7.5,97.4-23c7.1-2.5,19.1-6.8,33.8-13.5c26-11.9,91.1-46.2,133.4-107.3
			c10.9-15.7,18.8-31.1,20.2-34c8-15.8,14.6-32.8,19.7-50.3l0.7-2.3l2.3-0.7c10.4-3,19.7-7.9,27.6-14.8c6.3-5.4,21-18.2,22.4-38.3
			c1-15.2-6-30.5-19.7-43.1c-7.8-7.1-17.6-12.2-28.3-14.7l-2.5-0.6l-0.7-2.5c-8.3-31.2-21.3-60-38.7-85.8
			c-0.4-0.6-43-62.9-124.4-104.1c-23.7-12-48.8-21.5-74.7-28.3c0,0,0,0,0,0c-0.6-3.7-3.4-6.8-7.5-10.5c3.2,0.7,6.4,1.5,9.6,2.3
			c26.5,6.9,52.2,16.6,76.5,28.9c83.4,42.3,127.1,106.3,127.6,107c17.4,25.9,30.6,54.8,39.2,85.9c11.2,3,21.4,8.5,29.6,16.1
			C810.4,391.4,818.4,409.2,817.2,427.1z"/>
		<g>
			<path class="st0" d="M403.4,596.7c-21.9,0-41.8-0.4-61-1.2c-17.7-0.8-42-1.8-73.6-5.3c-0.4,0-41.6-4.7-111.2-20.6
				c-1.1-0.2-9-2.3-18.7-5.9c-7.1-2.6-13.7-6.1-19.5-10.5c-6.2-4.6-8.3-7.7-9.4-9.9c-3.6-6.8-2.7-13.6-2.4-16.2
				c1.4-11.5,19.8-105.2,43.8-222.8l0.1-0.6c0.6-3.1,2-10.5,7.9-16.4c8.6-8.7,20.9-8.9,26-8.9h2c5.3,0,13.7,0,24.9,0
				c38.1-0.1,109.1-0.2,198.1,0c58.3-0.1,108.6,0,146.9,0c38.8,0,64.5,0.1,74.8,0c5-0.1,19.8-0.3,29,9.7c5.4,5.9,6.7,12.6,7.2,15.2
				c4.9,26.8,10.6,53.8,16.1,79.9c9.9,47,20.1,95.5,26,144l-4.2,0.5l4.2-0.5c0.3,2.5,1.2,9.3-2.4,16.1c-1.2,2.2-3.3,5.3-9.5,9.9
				c-6.2,4.6-12,7.4-19.4,10.4c-7.5,3-14,5.4-19,6.8c-13.6,4-53.2,11.7-110.8,20.2c-52.9,5.8-93.4,5.9-140.3,6.1
				C407.1,596.7,405.2,596.7,403.4,596.7L403.4,596.7z M185.4,286.9c-4.1,0-13.8,0.1-20,6.4c-4,4.1-5.1,9.4-5.5,12l-0.1,0.7
				c-23.9,117.4-42.3,210.9-43.7,222.2c-0.2,2-0.8,6.7,1.5,11.1c0.4,0.8,1.6,3,7,7c5.2,3.8,11,7,17.3,9.3c9.2,3.4,16.7,5.4,17.7,5.6
				c69.1,15.8,109.9,20.4,110.3,20.4c31.3,3.4,55.4,4.5,73,5.3c20.6,0.9,42.2,1.3,66,1.2c46.7-0.2,87.1-0.3,139.3-6
				c57.1-8.4,96.1-16,109.5-19.9c4.6-1.3,11-3.7,18.1-6.5c6.8-2.8,12-5.3,17.5-9.3c5.4-4,6.6-6.2,7-7c2.3-4.4,1.8-9.1,1.5-11.1v-0.1
				c-5.9-48.1-16.1-96.5-25.9-143.3c-5.5-26.2-11.2-53.3-16.1-80c-0.4-2-1.3-7-5-11c-6.6-7.1-18.1-7-22.5-6.9
				c-10.5,0.1-36.2,0.1-75,0c-38.3,0-88.6-0.1-146.9,0c-89-0.2-159.9-0.1-198.1,0c-12.4,0-21.4,0-26.5,0L185.4,286.9L185.4,286.9z"
				/>
			<g>
				<path class="st0" d="M282.3,372.4c-43.5,0-78.7,35.2-78.7,78.7s35.2,78.7,78.7,78.7s78.7-35.2,78.7-78.7
					S325.8,372.4,282.3,372.4L282.3,372.4z M282.1,519.8c-36.5,0-66.1-29.6-66.1-66.1s29.6-66.1,66.1-66.1s66.1,29.6,66.1,66.1
					S318.6,519.8,282.1,519.8L282.1,519.8z"/>
				<path class="st0" d="M464,451.1c0,43.5,35.2,78.7,78.7,78.7s78.7-35.2,78.7-78.7s-35.2-78.7-78.7-78.7S464,407.7,464,451.1
					L464,451.1z M476.8,453.8c0-36.5,29.6-66.1,66.1-66.1s66.1,29.6,66.1,66.1c0,36.5-29.6,66.1-66.1,66.1
					C506.4,519.8,476.8,490.3,476.8,453.8z"/>
			</g>
			<circle class="st0" cx="392.1" cy="545.9" r="6.7"/>
			<circle class="st0" cx="425.8" cy="545.9" r="6.7"/>
			<g>
				<g>
					<path class="st0" d="M259.8,451.7c11.4-6,19.8-18.1,22.1-32.9c2.4,14.7,10.7,26.9,22.1,32.9c2.2,1.2,7.8,2.9,7.8,2.9
						s-5.5,1.8-7.8,2.9c-11.4,6-19.8,18.1-22.1,32.9c-2.4-14.7-10.7-26.9-22.1-32.9c-2.2-1.2-7.8-2.9-7.8-2.9
						S257.5,452.8,259.8,451.7L259.8,451.7z"/>
					<path class="st0" d="M245.1,429.1c3.6-1.9,6.2-5.7,6.9-10.3c0.7,4.6,3.4,8.4,6.9,10.3c0.7,0.4,2.4,0.9,2.4,0.9
						s-1.7,0.6-2.4,0.9c-3.6,1.9-6.2,5.7-6.9,10.3c-0.7-4.6-3.4-8.4-6.9-10.3c-0.7-0.4-2.4-0.9-2.4-0.9S244.4,429.5,245.1,429.1
						L245.1,429.1z"/>
				</g>
				<g>
					<path class="st0" d="M565.3,451.7c-11.4-6-19.8-18.1-22.1-32.9c-2.3,14.7-10.7,26.9-22.1,32.9c-2.2,1.2-7.8,2.9-7.8,2.9
						s5.5,1.8,7.8,2.9c11.4,6,19.8,18.1,22.1,32.9c2.3-14.7,10.7-26.9,22.1-32.9c2.2-1.2,7.8-2.9,7.8-2.9S567.6,452.9,565.3,451.7z"
						/>
					<path class="st0" d="M580,429.2c-3.6-1.9-6.2-5.7-6.9-10.3c-0.7,4.6-3.3,8.4-6.9,10.3c-0.7,0.4-2.4,0.9-2.4,0.9
						s1.7,0.6,2.4,0.9c3.6,1.9,6.2,5.7,6.9,10.3c0.7-4.6,3.3-8.4,6.9-10.3c0.7-0.4,2.4-0.9,2.4-0.9S580.7,429.5,580,429.2z"/>
				</g>
			</g>
		</g>
		<g>
			<g>
				<circle class="st0" cx="388.8" cy="677.7" r="12.4"/>
				<circle class="st0" cx="388.2" cy="677.1" r="11.7"/>
			</g>
			<g>
				<circle class="st0" cx="412.6" cy="678.2" r="6.9"/>
				<circle class="st0" cx="412.2" cy="677.8" r="6.5"/>
			</g>
			<g>
				<circle class="st0" cx="429.4" cy="678.2" r="6.9"/>
				<circle class="st0" cx="429" cy="677.8" r="6.5"/>
			</g>
		</g>
		<g>
			<g>
				<path class="st0" d="M519.8,149c0-0.6,0-1.1-0.2-1.6c-0.6-3.7-3.4-6.8-7.5-10.5c-1.4-1.3-2.9-2.6-4.6-4
					c-3.9-3.3-7.7-5.8-10.9-7.5V0H329.4v122.8c-3.4,1.1-7.5,2.9-11.7,5.9c-1.6,1.1-4.2,3-6.8,5.5c-2.9,2.8-5.7,6.3-6.8,10.3
					c-0.4,1.3-0.6,2.6-0.6,4c0,1.3,0.3,7.6,8.9,15.1c25.1,21.8,85.5,23.2,97.2,23.4c3.1,0,5.3,0,6.1,0c15,0,36.7-0.2,61.6-7.1
					c14-3.8,20.1-7.4,21.8-8.4C504,168.7,519.9,159.4,519.8,149L519.8,149z M488.1,139.2H338V8.6h150.2V139.2z"/>
			</g>
			<g>
				<rect x="377" y="52" class="st0" width="23.8" height="29.8"/>
				<rect x="425.5" y="52" class="st0" width="23.8" height="29.8"/>
				<rect x="392.9" y="99.4" class="st0" width="24.6" height="16.2"/>
				<rect x="417.6" y="99.4" class="st0" width="16.2" height="16.2"/>
			</g>
		</g>
	</g>
</g>
</svg>
