<?xml version="1.0" encoding="UTF-8"?>
<svg id="star-struck-void" data-name="Layer 2" xmlns="http://www.w3.org/2000/svg" viewBox="0 0 817.28 721.56">
  <defs>
    <style>
      .cls-1 {
        fill: #fff;
        stroke-width: 0px;
      }
    </style>
  </defs>
  <g id="Layer_1-2" data-name="Layer 1">
    <g>
      <path class="cls-1" d="M407.33,721.56c-14.99,0-30.02-.81-44.98-2.44-33.98-4.26-67.8-11.67-100.57-22.04l-1.07-.34c-11.14-3.52-23.78-7.52-37.59-13.48-61.95-26.72-102.21-70.28-120.7-93.86-24.52-31.28-42.75-66.67-54.22-105.23-9.11-2.73-17.31-7.15-24.4-13.15C19.8,467.63-.04,449.4,0,423.13c.06-25.89,19.54-50.24,47.68-59.94,7.39-27.71,18.47-53.77,32.96-77.5,52.71-86.36,136.92-120.43,164.59-131.63,13.99-5.67,36.92-13.76,66.73-20.1,4.68-.99,9.47-1.93,14.24-2.78l1.5,8.43c-4.68.83-9.37,1.75-13.96,2.72-29.2,6.2-51.62,14.12-65.3,19.66-27.03,10.94-109.26,44.21-160.5,128.15-14.44,23.66-25.4,49.72-32.58,77.45l-.6,2.31-2.27.71c-25.82,8.05-43.89,29.65-43.94,52.53-.04,22.5,17.29,38.4,20.77,41.36,6.7,5.68,14.57,9.74,23.39,12.06l2.35.62.67,2.33c11.11,38.39,29.08,73.59,53.41,104.62,17.98,22.94,57.15,65.31,117.35,91.28,13.42,5.79,25.83,9.71,36.79,13.18l1.07.34c32.29,10.21,65.59,17.51,98.99,21.7,29.24,3.18,58.81,3.18,87.81,0,17.63-1.93,53.71-7.5,97.41-23.01,7.13-2.53,19.07-6.77,33.81-13.52,26.01-11.92,91.07-46.22,133.36-107.27,10.9-15.73,18.77-31.07,20.23-33.99,7.97-15.84,14.6-32.77,19.69-50.33l.66-2.28,2.28-.65c10.43-2.95,19.73-7.93,27.65-14.78,6.29-5.44,21.02-18.17,22.37-38.34,1.04-15.21-5.97-30.52-19.74-43.11-7.79-7.13-17.58-12.22-28.29-14.72l-2.5-.58-.66-2.48c-8.29-31.18-21.3-60.05-38.66-85.8-.42-.62-43.01-62.86-124.35-104.11-23.7-12.02-48.84-21.54-74.72-28.27-7.22-1.78-14.61-3.44-21.91-4.9l1.69-8.39c7.42,1.49,14.93,3.17,22.32,5,26.53,6.91,52.25,16.64,76.49,28.94,83.42,42.3,127.15,106.32,127.58,106.97,17.44,25.87,30.61,54.78,39.17,85.94,11.17,3.01,21.36,8.55,29.62,16.11,15.73,14.38,23.72,32.14,22.5,50-1.6,23.74-18.22,38.1-25.31,44.24-8.29,7.17-17.91,12.5-28.63,15.86-5.15,17.26-11.74,33.92-19.6,49.55-1.51,3-9.62,18.81-20.84,35.01-43.5,62.79-110.18,97.97-136.83,110.18-15.09,6.91-27.25,11.23-34.51,13.81-44.52,15.8-81.35,21.47-99.34,23.45-14.81,1.63-29.77,2.44-44.76,2.44Z"/>
      <g>
        <path class="cls-1" d="M403.44,596.74c-21.86,0-41.83-.41-60.96-1.25-17.74-.78-42.05-1.84-73.6-5.31-.41-.05-41.64-4.68-111.23-20.57-1.06-.24-8.98-2.35-18.72-5.9-7.13-2.6-13.7-6.11-19.52-10.45-6.18-4.6-8.29-7.73-9.45-9.94-3.57-6.8-2.73-13.6-2.42-16.16,1.42-11.49,19.85-105.21,43.85-222.84l.12-.62c.59-3.13,1.98-10.46,7.86-16.42,8.6-8.72,20.94-8.92,25.98-8.92h1.97c5.3,0,13.7-.02,24.85-.04,38.15-.08,109.15-.22,198.1.03,58.28-.07,108.6,0,146.93.05,38.83.05,64.48.09,74.81-.04,4.95-.07,19.78-.26,29.01,9.67,5.44,5.85,6.68,12.64,7.15,15.2,4.89,26.78,10.57,53.8,16.07,79.93,9.88,46.96,20.09,95.51,26.01,144.01l-4.25.52,4.25-.46c.31,2.54,1.15,9.3-2.42,16.1-1.16,2.21-3.28,5.33-9.45,9.93-6.18,4.6-11.99,7.39-19.37,10.39-7.48,3.04-14.03,5.4-18.95,6.83-13.64,3.96-53.19,11.73-110.8,20.16-52.85,5.82-93.38,5.94-140.31,6.09-1.86,0-3.7,0-5.53,0ZM185.42,286.92c-4.05,0-13.83.15-19.96,6.37-4.04,4.1-5.05,9.44-5.54,12l-.14.74c-23.95,117.44-42.35,210.88-43.74,222.18-.25,2-.83,6.7,1.5,11.13.43.83,1.58,3.02,6.99,7.05,5.15,3.84,10.98,6.96,17.33,9.27,9.22,3.36,16.71,5.37,17.7,5.6,69.06,15.77,109.86,20.36,110.26,20.4,31.27,3.44,55.41,4.5,73.03,5.27,20.59.9,42.21,1.31,66.03,1.23,46.73-.15,87.05-.27,139.3-6.02,57.06-8.36,96.14-16.02,109.5-19.89,4.57-1.33,11-3.65,18.09-6.53,6.77-2.75,12.05-5.27,17.49-9.33,5.4-4.03,6.56-6.22,6.99-7.05,2.33-4.43,1.75-9.08,1.51-11.07v-.07c-5.88-48.13-16.06-96.5-25.9-143.28-5.51-26.18-11.2-53.26-16.09-80.03-.36-2.01-1.28-7.01-5.02-11.03-6.64-7.14-18.14-7-22.52-6.94-10.5.13-36.18.1-75.04.05-38.32-.05-88.65-.12-146.93-.05-88.96-.25-159.94-.1-198.08-.03-12.36.03-21.35.04-26.46.04h-.3Z"/>
        <g>
          <path class="cls-1" d="M282.29,372.41c-43.47,0-78.71,35.24-78.71,78.71s35.24,78.71,78.71,78.71,78.71-35.24,78.71-78.71-35.24-78.71-78.71-78.71ZM282.09,519.84c-36.5,0-66.08-29.59-66.08-66.08s29.59-66.08,66.08-66.08,66.08,29.59,66.08,66.08-29.59,66.08-66.08,66.08Z"/>
          <path class="cls-1" d="M464,451.12c0,43.47,35.24,78.71,78.71,78.71,43.47,0,78.71-35.24,78.71-78.71,0-43.47-35.24-78.71-78.71-78.71-43.47,0-78.71,35.24-78.71,78.71ZM476.82,453.76c0-36.5,29.59-66.08,66.08-66.08s66.08,29.59,66.08,66.08c0,36.5-29.59,66.08-66.08,66.08-36.5,0-66.08-29.59-66.08-66.08Z"/>
        </g>
        <circle class="cls-1" cx="392.11" cy="545.89" r="6.73"/>
        <circle class="cls-1" cx="425.8" cy="545.89" r="6.73"/>
        <g>
          <g>
            <path class="cls-1" d="M259.76,451.66c11.42-5.96,19.76-18.15,22.11-32.85,2.35,14.7,10.68,26.89,22.11,32.85,2.22,1.16,7.76,2.94,7.76,2.94,0,0-5.53,1.78-7.76,2.94-11.42,5.96-19.76,18.15-22.11,32.86-2.35-14.7-10.68-26.89-22.11-32.86-2.22-1.16-7.76-2.94-7.76-2.94,0,0,5.53-1.78,7.76-2.94Z"/>
            <path class="cls-1" d="M245.08,429.1c3.58-1.87,6.19-5.69,6.92-10.29.74,4.61,3.35,8.42,6.92,10.29.7.36,2.43.92,2.43.92,0,0-1.73.56-2.43.92-3.58,1.87-6.19,5.69-6.92,10.29-.74-4.61-3.35-8.42-6.92-10.29-.7-.36-2.43-.92-2.43-.92,0,0,1.73-.56,2.43-.92Z"/>
          </g>
          <g>
            <path class="cls-1" d="M565.33,451.74c-11.42-5.96-19.76-18.15-22.11-32.85-2.35,14.7-10.68,26.89-22.11,32.85-2.22,1.16-7.76,2.94-7.76,2.94,0,0,5.53,1.78,7.76,2.94,11.42,5.96,19.76,18.15,22.11,32.86,2.35-14.7,10.68-26.89,22.11-32.86,2.22-1.16,7.76-2.94,7.76-2.94,0,0-5.53-1.78-7.76-2.94Z"/>
            <path class="cls-1" d="M580.01,429.18c-3.58-1.87-6.19-5.69-6.92-10.29-.74,4.61-3.35,8.42-6.92,10.29-.7.36-2.43.92-2.43.92,0,0,1.73.56,2.43.92,3.58,1.87,6.19,5.69,6.92,10.29.74-4.61,3.35-8.42,6.92-10.29.7-.36,2.43-.92,2.43-.92,0,0-1.73-.56-2.43-.92Z"/>
          </g>
        </g>
      </g>
      <g>
        <g>
          <circle class="cls-1" cx="388.82" cy="677.7" r="12.37"/>
          <circle class="cls-1" cx="388.18" cy="677.07" r="11.74"/>
        </g>
        <g>
          <circle class="cls-1" cx="412.59" cy="678.17" r="6.88"/>
          <circle class="cls-1" cx="412.24" cy="677.82" r="6.53"/>
        </g>
        <g>
          <circle class="cls-1" cx="429.39" cy="678.17" r="6.88"/>
          <circle class="cls-1" cx="429.03" cy="677.82" r="6.53"/>
        </g>
      </g>
      <g>
        <g>
          <path class="cls-1" d="M519.84,149.01c.08,10.41-15.83,19.73-20.74,22.63-1.69,1-7.79,4.51-21.82,8.36-24.9,6.86-46.57,7.06-61.56,7.11-.78,0-3.02.01-6.12-.04-11.72-.19-72.13-1.58-97.22-23.42-8.62-7.5-8.88-13.77-8.9-15.11-.08-9.67,10.41-17.15,14.22-19.85,6.11-4.35,12.12-6.22,15.97-7.11v7.34h-.51c-1.08.33-2.69.96-4.36,2.17-.9.66-3.59,2.69-4.76,6.15,0,0-1.16,3.43.08,7.64,1.45,4.88,10.71,14.29,44.44,19.5,12.37,1.9,23.61,2.58,45.01,2.38,44.84-.46,66.9-3.91,80.49-15.07,3.07-2.53,8.79-7.35,8.02-13.05-.77-5.73-7.58-9.03-9.7-9.95.07-1.82.14-3.63.2-5.45,3.89,1.75,9.4,4.7,15.03,9.56,7.32,6.32,12.16,10.51,12.2,16.22Z"/>
          <path class="cls-1" d="M494.09,151.67c-13.6,11.16-35.65,14.61-80.49,15.07-21.4.2-32.64-.48-45.01-2.38-33.72-5.21-42.99-14.62-44.44-19.5-1.24-4.21-.08-7.64-.08-7.64,1.16-3.46,3.85-5.49,4.76-6.15,1.67-1.22,3.28-1.84,4.36-2.17h.51v14.62c.14.64.42,1.59,1.01,2.58,1.33,2.23,3.33,3.29,4.45,3.85,7.02,3.54,11.7,4.74,11.7,4.74,6.57,1.69,9.85,2.53,14.98,3.4,7.23,1.24,13.72,1.91,20,2.38,6.79.49,12.97.59,25.05.74,19.91.26,26.04-.05,29.79-.3,7.31-.46,11.96-1.08,15.41-1.63,2.17-.34,4.13-.7,5.93-1.07,2.45-.51,5.34-1.15,9.77-2.34,4.99-1.34,12.07-3.4,16.31-6.16,1.13-.74,2.56-1.84,3.5-3.69.52-1.01.72-1.93.82-2.51v-14.85c2.12.92,8.94,4.22,9.7,9.95.77,5.7-4.95,10.52-8.02,13.05Z"/>
        </g>
        <g>
          <path class="cls-1" d="M496.69,147.81h-167.28V0h167.28v147.81ZM337.97,139.25h150.16V8.56h-150.16v130.69Z"/>
          <path class="cls-1" d="M492.41,143.53c-.1.59-.3,1.5-.82,2.51-.94,1.84-2.36,2.95-3.5,3.69-4.25,2.76-11.33,4.82-16.31,6.16-4.43,1.19-7.32,1.83-9.77,2.34-1.8.37-3.76.72-5.93,1.07-3.46.55-8.1,1.16-15.41,1.63-3.74.25-9.88.56-29.79.3-12.08-.15-18.25-.25-25.05-.74-6.29-.46-12.78-1.13-20-2.38-5.12-.87-8.4-1.71-14.98-3.4,0,0-4.67-1.2-11.7-4.74-1.12-.56-3.13-1.63-4.45-3.85-.59-1-.87-1.94-1.01-2.58h158.72Z"/>
          <rect class="cls-1" x="377.05" y="51.98" width="23.79" height="29.79"/>
          <rect class="cls-1" x="425.54" y="51.98" width="23.79" height="29.79"/>
          <rect class="cls-1" x="392.92" y="99.44" width="24.65" height="16.25"/>
          <rect class="cls-1" x="417.57" y="99.44" width="16.25" height="16.25"/>
        </g>
      </g>
    </g>
  </g>
</svg>