<?xml version="1.0" encoding="UTF-8"?>
<svg id="Layer_1" data-name="Layer 1" xmlns="http://www.w3.org/2000/svg" fill="currentColor" viewBox="0 0 107.64 128.33">
  <defs>
    <style>
      .cls-1 {
        stroke-width: 0px;
      }
    </style>
  </defs>
  <path class="cls-1" d="m47.56,93.51c4.23,1.39,8.31,1.36,12.52,0,5.66,9.81,11.31,19.59,16.96,29.37-9.57,7.22-34.21,7.28-46.47.07,5.64-9.78,11.29-19.56,17-29.45Z"/>
  <path class="cls-1" d="m84.31,29.85c13.84,10.04,21.58,23.38,23.33,40.42h-1.48c-10.41,0-20.83-.02-31.24.03-1.11,0-1.56-.3-1.84-1.38-.96-3.7-2.98-6.79-5.85-9.5,5.67-9.82,11.34-19.63,17.07-29.57Z"/>
  <path class="cls-1" d="m23.33,29.85c5.71,9.9,11.36,19.68,16.82,29.13-1.67,2.63-3.24,5.05-4.75,7.51-.37.6-.69,1.31-.74,2-.13,1.7-1.12,1.81-2.51,1.81-10.13-.05-20.25-.03-30.38-.03H0c1.72-17.05,9.49-30.36,23.33-40.42Z"/>
  <path class="cls-1" d="m107.62,78.55c-1.74,17.06-9.47,30.39-23.31,40.43-5.72-9.91-11.37-19.69-16.83-29.15,1.67-2.62,3.24-5.04,4.74-7.5.37-.6.69-1.31.74-2,.13-1.69,1.11-1.82,2.51-1.81,10.07.05,20.15.03,30.22.03h1.92Z"/>
  <path class="cls-1" d="m23.34,118.95C9.48,108.92,1.73,95.61,0,78.55h1.6c10.36,0,20.72.02,31.09-.03,1.07,0,1.57.23,1.86,1.35.86,3.35,2.62,6.22,5.04,8.69.26.27.51.55.8.87-5.67,9.82-11.32,19.6-17.05,29.52Z"/>
  <path class="cls-1" d="m30.56,25.5c3.58-1.28,7.11-2.55,10.77-3.86.99,1.72,1.88,3.28,2.79,4.84,4.76,8.22,14.69,8.19,19.44-.05.86-1.49,1.71-2.97,2.75-4.77,3.58,1.27,7.17,2.55,10.9,3.88-.36.66-.54,1.04-.75,1.4-5.22,9.05-10.46,18.09-15.65,27.16-.52.91-.97,1.14-2,.84-3.37-.97-6.78-.95-10.16.05-.72.21-1.18.2-1.62-.57-5.41-9.44-10.85-18.86-16.28-28.28-.04-.08-.05-.18-.18-.64Z"/>
  <path class="cls-1" d="m41.96,74.42c0-6.63,5.29-11.93,11.9-11.91,6.53.02,11.78,5.29,11.81,11.87.02,6.6-5.32,11.95-11.91,11.93-6.52-.02-11.8-5.34-11.81-11.88Z"/>
  <path class="cls-1" d="m53.96,0c3.53,0,7.06-.01,10.59,0,2.53.01,3.62,1.86,2.37,4.04-3.58,6.24-7.18,12.48-10.79,18.7-1.22,2.11-3.38,2.11-4.6,0-3.62-6.22-7.21-12.46-10.79-18.7C39.47,1.87,40.56.02,43.08,0c3.63-.02,7.25,0,10.88,0Z"/>
</svg>