<?xml version="1.0" encoding="utf-8"?>
<!-- Generator: Adobe Illustrator 28.0.0, SVG Export Plug-In . SVG Version: 6.00 Build 0)  -->
<svg version="1.1" id="Layer_2_00000179624116914347235780000011401999818640851085_"
	 xmlns="http://www.w3.org/2000/svg" xmlns:xlink="http://www.w3.org/1999/xlink" x="0px" y="0px" viewBox="0 0 341.8 306.2"
	 style="enable-background:new 0 0 341.8 306.2;" xml:space="preserve">
<style type="text/css">
	.st0{fill-rule:evenodd;clip-rule:evenodd;fill:#FFFFFF;}
	.st1{fill:#FFFFFF;}
</style>
<g id="Layer_1-2">
	<g>
		<polygon class="st0" points="10.6,278.5 22.5,278.5 22.5,280 12.3,280 12.3,288.2 19.7,288.2 19.7,289.7 12.3,289.7 12.3,299.3 
			23,299.3 23,300.9 10.6,300.9 		"/>
		<path class="st0" d="M35.1,287.2l-1.1,0.9c-1.1-1.4-2.4-2.1-3.9-2.1c-1,0-1.7,0.2-2.3,0.8c-0.6,0.5-0.9,1.2-0.9,1.9
			c0,0.9,0.5,1.6,1.4,2.2c0.5,0.3,1.4,0.7,2.7,1.1c1.6,0.6,2.7,1.1,3.3,1.6c0.9,0.7,1.3,1.7,1.3,2.9c0,1.3-0.5,2.4-1.5,3.3
			c-1,0.9-2.3,1.3-3.9,1.3c-2.2,0-4-1-5.4-3.1l1.2-0.7c1.1,1.7,2.5,2.5,4.3,2.5c1.2,0,2.2-0.4,2.9-1.1c0.5-0.6,0.8-1.2,0.8-2
			c0-0.9-0.3-1.6-1-2.1c-0.5-0.4-1.4-0.8-2.4-1.1c-1.8-0.6-3.1-1.2-4-1.9c-0.9-0.7-1.3-1.6-1.3-2.8s0.5-2.2,1.4-3
			c0.9-0.7,2-1.1,3.4-1.1C32.2,284.7,33.8,285.6,35.1,287.2L35.1,287.2z"/>
		<path class="st0" d="M48.8,288.8l-1.4,0.4c-0.2-0.6-0.4-1.1-0.8-1.6c-0.7-1-1.7-1.6-2.9-1.6c-1.5,0-2.6,0.7-3.4,2.2
			c-0.7,1.3-1,2.8-1,4.7c0,1.7,0.3,3.1,0.8,4.3c0.7,1.6,1.9,2.4,3.5,2.4c1.3,0,2.5-0.6,3.4-1.9c0.2-0.3,0.5-0.8,0.8-1.3l1.3,0.6
			c-0.3,0.8-0.7,1.4-1.2,2c-1.1,1.3-2.5,2-4.2,2c-2.1,0-3.7-1-4.8-2.9c-0.8-1.5-1.2-3.2-1.2-5.2c0-2.1,0.5-4,1.4-5.6
			c0.5-0.9,1.2-1.5,2-2c0.8-0.5,1.7-0.7,2.7-0.7c1.5,0,2.8,0.6,3.7,1.7C48.1,287,48.5,287.8,48.8,288.8L48.8,288.8z"/>
		<path class="st0" d="M57.3,286.1c-1.6,0-2.8,0.8-3.7,2.5c-0.5,1.1-0.8,2.6-0.8,4.5c0,2.1,0.4,3.8,1.2,5c0.8,1.2,1.9,1.8,3.4,1.8
			c1.8,0,3.1-0.9,3.9-2.6c0.5-1.1,0.7-2.6,0.7-4.4c0-2-0.4-3.6-1.1-4.8C60,286.7,58.8,286.1,57.3,286.1L57.3,286.1z M57.6,284.7
			c2.1,0,3.7,1,4.8,2.9c0.8,1.3,1.2,3.1,1.2,5.2c0,2.4-0.5,4.3-1.3,5.7c-1.1,1.7-2.7,2.6-4.7,2.6c-2.2,0-3.8-0.9-4.9-2.8
			c-0.8-1.3-1.2-3.1-1.2-5.4c0-2.6,0.6-4.6,1.7-6.1C54.1,285.4,55.6,284.7,57.6,284.7L57.6,284.7z"/>
		<rect x="67.1" y="278.5" class="st1" width="1.5" height="22.4"/>
		<path class="st0" d="M81.8,291.6c-1.7,0.4-3.1,0.8-4.3,1.3c-1.1,0.4-1.8,0.8-2.3,1.3c-0.8,0.7-1.2,1.6-1.2,2.7
			c0,0.8,0.3,1.4,0.8,2c0.6,0.6,1.3,1,2.2,1c1.6,0,3.2-0.9,4.8-2.6V291.6z M74.1,288.5l-1.1-0.7c1.1-2,2.8-3.1,5.3-3.1
			c0.9,0,1.8,0.2,2.5,0.5c0.8,0.4,1.3,0.8,1.8,1.4c0.5,0.7,0.7,1.6,0.8,2.6c0,0.5,0,1.1,0,2v3.9c0,2.7,0.2,4.6,0.4,5.8h-1.6
			c-0.1-0.6-0.2-1.5-0.3-2.5c-0.6,0.6-1.1,1.1-1.5,1.4c-1,0.8-2.2,1.3-3.5,1.3c-1.4,0-2.5-0.4-3.3-1.3c-0.8-0.8-1.2-1.8-1.2-3
			c0-2.4,1.6-4.1,4.7-5.2c0.8-0.3,2-0.6,3.6-0.9c0.6-0.1,0.9-0.2,1.1-0.2c0-1-0.1-1.8-0.3-2.4c-0.2-0.7-0.7-1.2-1.3-1.5
			c-0.6-0.3-1.3-0.5-2-0.5c-1.1,0-2.1,0.3-3,1C74.8,287.5,74.4,287.9,74.1,288.5L74.1,288.5z"/>
		<path class="st0" d="M105.4,288.3c-1.3-1.5-2.7-2.2-4-2.2c-1.6,0-2.8,0.8-3.7,2.5c-0.6,1.1-0.9,2.5-0.9,4.2c0,2.1,0.4,3.8,1.2,5.1
			c0.8,1.2,1.8,1.9,3.2,1.9c1,0,1.9-0.4,2.9-1c0.5-0.4,0.9-0.8,1.3-1.2V297v-1.2L105.4,288.3L105.4,288.3z M107,278.5v18.4
			c0,1.6,0.1,2.9,0.2,4h-1.4c0-0.1-0.1-0.5-0.1-1c0-0.2-0.1-0.6-0.1-1.2c-1.3,1.6-2.8,2.4-4.3,2.4c-1,0-1.9-0.3-2.7-0.8
			c-0.8-0.5-1.5-1.2-2-2.2c-0.8-1.5-1.1-3.3-1.1-5.4c0-2.1,0.4-3.8,1.2-5.1c0.5-0.9,1.2-1.6,2.1-2.1s1.7-0.8,2.6-0.8
			c1.5,0,2.8,0.7,4.2,2.2v-8.5L107,278.5L107,278.5z"/>
		<path class="st0" d="M112.3,291.5h8.2c-0.1-1.2-0.3-2.2-0.6-3.1c-0.3-0.7-0.8-1.3-1.4-1.7c-0.6-0.4-1.2-0.6-1.9-0.6
			c-1.6,0-2.8,0.9-3.6,2.6C112.6,289.5,112.4,290.4,112.3,291.5L112.3,291.5z M122.1,292.9h-9.8c0.1,1.3,0.2,2.3,0.4,3.2
			c0.3,1.1,0.9,2,1.7,2.8c0.7,0.6,1.5,0.9,2.4,0.9c1.4,0,2.6-0.7,3.7-2c0.2-0.3,0.5-0.6,0.7-1l1.1,0.7c-0.3,0.6-0.7,1.1-1,1.5
			c-1.1,1.5-2.6,2.2-4.5,2.2c-2.4,0-4.1-1.1-5.1-3.5c-0.6-1.4-0.9-3-0.9-4.8s0.3-3.5,0.9-4.7c1.1-2.3,2.7-3.4,4.9-3.4
			c2.4,0,4,1.3,5,3.9C121.9,289.8,122.1,291.2,122.1,292.9L122.1,292.9z"/>
		<polygon class="st0" points="134.8,278.5 146.7,278.5 146.7,280 136.5,280 136.5,288.2 143.9,288.2 143.9,289.7 136.5,289.7 
			136.5,299.3 147.1,299.3 147.1,300.9 134.8,300.9 		"/>
		<path class="st0" d="M151.9,285v2.1v0.7c1.8-2.1,3.6-3.1,5.4-3.1c0.9,0,1.8,0.3,2.5,1c0.7,0.6,1.1,1.4,1.2,2.4
			c0.1,0.4,0.1,1,0.1,1.7v11.2h-1.5v-11.1c0-1-0.1-1.8-0.3-2.4c-0.2-0.5-0.6-0.9-1.1-1.2c-0.4-0.2-0.8-0.3-1.3-0.3
			c-1.6,0-3.3,1-5.1,3.1v11.8h-1.5V285L151.9,285L151.9,285z"/>
		<path class="st0" d="M169.9,299.6c-1.1,0.3-1.8,0.6-2.3,0.8c-1,0.6-1.4,1.3-1.4,2.2c0,0.8,0.5,1.4,1.4,1.8c0.8,0.3,1.8,0.5,3,0.5
			c1.8,0,3.2-0.3,4.1-1c0.9-0.6,1.3-1.2,1.3-2c0-0.6-0.3-1.1-0.9-1.4c-0.5-0.3-1.5-0.5-3.2-0.7C170.7,299.6,170.1,299.6,169.9,299.6
			z M170.5,286c-1.2,0-2.1,0.4-2.8,1.3c-0.7,0.8-1.1,1.8-1.1,2.9c0,1.2,0.4,2.3,1.3,3c0.8,0.7,1.7,1,2.7,1c1.4,0,2.5-0.6,3.3-1.7
			c0.5-0.7,0.7-1.5,0.7-2.5c0-1.3-0.4-2.4-1.3-3.1C172.5,286.3,171.6,286,170.5,286L170.5,286z M177.4,284.4v1.5
			c-1.2,0-2.1,0.2-2.8,0.5c1,1,1.4,2.3,1.5,3.7c0,1.5-0.5,2.9-1.6,3.9c-1,1-2.2,1.5-3.6,1.5c-0.8,0-1.6-0.1-2.5-0.4
			c-1.1,0.4-1.7,1-1.7,1.7c0,0.5,0.5,0.8,1.5,1c0.3,0,1.5,0.2,3.6,0.4c1.5,0.2,2.6,0.3,3.1,0.4c0.6,0.1,1,0.3,1.4,0.5
			c0.9,0.6,1.3,1.4,1.3,2.5c0,1.5-0.8,2.7-2.3,3.5c-1.3,0.7-2.9,1-4.9,1c-1.8,0-3.2-0.3-4.2-0.9c-1-0.6-1.5-1.4-1.5-2.4
			c0-1.8,1.2-3,3.6-3.7c-0.6-0.1-1.1-0.2-1.5-0.4c-1-0.4-1.5-1-1.5-1.8c0-1,0.7-1.8,2.2-2.4c-1.5-1.1-2.3-2.6-2.3-4.5
			c0-1.6,0.6-3,1.8-4c1-0.9,2.2-1.4,3.7-1.4c1.2,0,2.2,0.3,3.1,0.9C174.8,284.9,176,284.5,177.4,284.4L177.4,284.4z"/>
		<path class="st0" d="M179.9,291.5h8.2c-0.1-1.2-0.3-2.2-0.6-3.1c-0.3-0.7-0.8-1.3-1.4-1.7c-0.6-0.4-1.2-0.6-1.9-0.6
			c-1.6,0-2.8,0.9-3.6,2.6C180.2,289.5,180,290.5,179.9,291.5L179.9,291.5z M189.8,292.9h-9.9c0.1,1.3,0.2,2.3,0.4,3.2
			c0.3,1.1,0.9,2,1.7,2.8c0.7,0.6,1.5,0.9,2.4,0.9c1.4,0,2.6-0.7,3.6-2c0.2-0.3,0.5-0.6,0.7-1l1.1,0.7c-0.3,0.6-0.7,1.1-1,1.5
			c-1.1,1.5-2.6,2.2-4.5,2.2c-2.4,0-4.1-1.1-5.1-3.5c-0.6-1.4-0.9-3-0.9-4.8c0-1.9,0.3-3.5,0.9-4.7c1.1-2.3,2.7-3.4,4.9-3.4
			c2.4,0,4,1.3,5,3.9C189.6,289.8,189.8,291.2,189.8,292.9L189.8,292.9z"/>
		<path class="st0" d="M195,285v2.8c1.8-2.1,3.6-3.1,5.4-3.1c0.9,0,1.8,0.3,2.5,1c0.7,0.6,1.1,1.4,1.2,2.4c0.1,0.4,0.1,1,0.1,1.7
			v11.2h-1.5v-11.1c0-1-0.1-1.8-0.3-2.4c-0.2-0.5-0.6-0.9-1.1-1.2c-0.4-0.2-0.8-0.3-1.3-0.3c-1.6,0-3.3,1-5.1,3.1v11.8h-1.5V285
			L195,285L195,285z"/>
		<path class="st0" d="M210.6,278.5v9.2c1.7-2.1,3.5-3.1,5.3-3.1c1.1,0,1.9,0.3,2.7,1c0.7,0.6,1.1,1.7,1.2,3.2c0,0.4,0,1.1,0,2.3
			v9.8h-1.5v-10.1c0-1.3-0.1-2.2-0.1-2.8c-0.1-0.6-0.4-1.1-0.9-1.5c-0.5-0.4-1-0.6-1.6-0.6c-1.1,0-2.2,0.5-3.4,1.5
			c-0.6,0.5-1.1,1-1.6,1.6v11.8H209v-22.4L210.6,278.5L210.6,278.5z"/>
		<path class="st0" d="M232.9,291.6c-1.7,0.4-3.1,0.8-4.3,1.3c-1.1,0.4-1.8,0.8-2.4,1.3c-0.8,0.7-1.2,1.6-1.2,2.7
			c0,0.8,0.3,1.4,0.8,2c0.6,0.6,1.3,1,2.2,1c1.6,0,3.2-0.9,4.8-2.6L232.9,291.6L232.9,291.6z M225.2,288.5l-1.1-0.7
			c1.1-2,2.8-3.1,5.3-3.1c0.9,0,1.8,0.2,2.5,0.5c0.8,0.4,1.3,0.8,1.8,1.4c0.5,0.7,0.7,1.6,0.8,2.6c0,0.5,0,1.1,0,2v3.9
			c0,2.7,0.2,4.6,0.4,5.8h-1.6c-0.1-0.6-0.2-1.5-0.3-2.5c-0.6,0.6-1.1,1.1-1.5,1.4c-1,0.8-2.2,1.3-3.5,1.3c-1.4,0-2.5-0.4-3.3-1.3
			c-0.8-0.8-1.2-1.8-1.2-3c0-2.4,1.6-4.1,4.7-5.2c0.9-0.3,2-0.6,3.6-0.9c0.6-0.1,0.9-0.2,1.1-0.2c0-1-0.1-1.8-0.3-2.4
			c-0.2-0.7-0.7-1.2-1.3-1.5c-0.6-0.3-1.3-0.5-2-0.5c-1.1,0-2.1,0.3-3,1C225.9,287.5,225.5,288,225.2,288.5L225.2,288.5z"/>
		<path class="st0" d="M245.9,284.6v1.5c-0.8,0-1.5,0.2-2.1,0.5c-1.9,1.1-2.9,3-3.1,5.7v8.5h-1.5V285h1.5v4.2c0.3-1.1,0.8-2,1.4-2.7
			c1-1.2,2.1-1.8,3.4-1.8L245.9,284.6L245.9,284.6z"/>
		<path class="st0" d="M250,279.4v2.3h-1.7v-2.3H250z M249.9,285v15.9h-1.5V285H249.9z"/>
		<path class="st0" d="M263,291.6c-1.7,0.4-3.1,0.8-4.3,1.3c-1.1,0.4-1.8,0.8-2.4,1.3c-0.8,0.7-1.2,1.6-1.2,2.7c0,0.8,0.3,1.4,0.8,2
			c0.6,0.6,1.3,1,2.3,1c1.6,0,3.2-0.9,4.8-2.6V291.6z M255.3,288.5l-1.1-0.7c1.1-2,2.8-3.1,5.3-3.1c0.9,0,1.8,0.2,2.5,0.5
			c0.8,0.4,1.3,0.8,1.8,1.4c0.5,0.7,0.7,1.6,0.8,2.6c0,0.5,0,1.1,0,2v3.9c0,2.7,0.2,4.6,0.4,5.8h-1.5c-0.1-0.6-0.2-1.5-0.3-2.5
			c-0.5,0.6-1,1.1-1.5,1.4c-1,0.8-2.2,1.3-3.5,1.3c-1.4,0-2.5-0.4-3.3-1.3c-0.8-0.8-1.2-1.8-1.2-3c0-2.4,1.6-4.1,4.7-5.2
			c0.9-0.3,2-0.6,3.6-0.9c0.6-0.1,1-0.2,1.1-0.2c0-1-0.1-1.8-0.3-2.4c-0.2-0.7-0.7-1.2-1.3-1.5c-0.6-0.3-1.3-0.5-2-0.5
			c-1.1,0-2.1,0.3-3,1C256,287.5,255.6,288,255.3,288.5L255.3,288.5z"/>
		<path class="st0" d="M15.3,241.2v14.7c0,1,0.1,1.7,0.1,2.1c0.1,0.7,0.4,1.2,0.9,1.6c0.4,0.3,1,0.5,1.6,0.5c1,0,1.7-0.4,2.2-1.1
			c0.4-0.5,0.6-1.6,0.6-3.1v-14.7h5.6v14.7c0,1.3-0.1,2.2-0.2,3c-0.1,0.7-0.4,1.4-0.8,2c-1.4,2.2-3.9,3.3-7.4,3.3
			c-2.9,0-5-0.8-6.5-2.4c-0.8-0.9-1.3-2-1.5-3.2c-0.1-0.9-0.2-1.9-0.2-3.1v-14L15.3,241.2L15.3,241.2z"/>
		<path class="st0" d="M35,247.8v1.8c1.8-1.6,3.6-2.4,5.4-2.4c0.7,0,1.3,0.2,1.9,0.5s1,0.8,1.3,1.4c0.4,0.9,0.7,2.3,0.7,4.3v10.2
			h-5.1v-10.2c0-1.4-0.6-2.1-1.7-2.1c-0.8,0-1.6,0.4-2.5,1.2v11.1H30v-15.8L35,247.8L35,247.8z"/>
		<path class="st0" d="M52.8,241.2v4.5h-5.1v-4.5H52.8z M52.8,247.8v15.8h-5.1v-15.8H52.8z"/>
		<path class="st0" d="M69.7,247.8L65,263.6h-5.7l-5.1-15.8h5.6l1.6,6.3c0.5,1.9,0.8,3.8,1,5.5c0.1-1.6,0.4-3.5,0.9-5.8l1.2-6
			L69.7,247.8L69.7,247.8z"/>
		<path class="st0" d="M75.6,254h4.7c0-0.7-0.1-1.4-0.3-1.8c-0.4-0.9-1.1-1.3-2-1.3c-1,0-1.7,0.5-2.1,1.5
			C75.7,252.8,75.6,253.4,75.6,254L75.6,254z M80.2,258.6l4.7,0.4c-0.8,3.4-3.2,5.1-7.1,5.1c-2.6,0-4.6-0.8-5.9-2.4
			c-1.2-1.4-1.7-3.3-1.7-5.7c0-2.6,0.6-4.6,1.7-6.1c0.7-0.9,1.6-1.6,2.7-2c1-0.4,2.1-0.6,3.2-0.6c2.1,0,3.8,0.7,5.1,2
			c1,1,1.6,2.3,1.9,3.9c0.1,0.4,0.1,1.6,0.2,3.6h-9.4c0,0.9,0.1,1.6,0.2,2.1c0.1,0.5,0.4,0.9,0.9,1.2c0.4,0.2,0.8,0.4,1.3,0.4
			C79.1,260.4,79.9,259.8,80.2,258.6L80.2,258.6z"/>
		<path class="st0" d="M98.8,247.4v4.8c-0.4-0.1-0.8-0.1-1.1-0.1c-1.2,0-2.3,0.4-3.2,1.1c-0.6,0.4-1.1,1-1.5,1.8v8.7h-5.1v-15.8H93
			v1.4c0,0,0,0.1,0,0.4c0,0.1,0,0.2,0,0.4c0,0.2,0,0.6,0,1.1c0.4-0.9,1-1.6,1.5-2.1c1.1-1.1,2.3-1.6,3.5-1.6
			C98.2,247.4,98.4,247.4,98.8,247.4L98.8,247.4z"/>
		<path class="st0" d="M112.7,251.6L108,252c-0.1-0.9-0.6-1.4-1.4-1.4c-0.5,0-0.9,0.2-1.2,0.5c-0.2,0.2-0.3,0.5-0.3,0.9
			c0,0.7,0.3,1.1,1,1.4c0.2,0.1,1.1,0.3,2.8,0.6c2.9,0.6,4.4,2.2,4.4,4.7c0,1.6-0.6,2.9-1.8,3.9c-1.2,1-2.8,1.4-5.1,1.4
			c-3.6,0-5.6-1.6-5.9-4.8l4.7-0.3c0.1,1.2,0.7,1.8,1.8,1.8c0.6,0,1-0.2,1.3-0.6c0.2-0.2,0.2-0.5,0.2-0.8c0-0.8-0.6-1.4-1.9-1.6
			c-1.3-0.2-2.2-0.4-2.7-0.6c-0.6-0.2-1-0.4-1.4-0.7c-1.3-0.9-2-2.2-2-3.9c0-1.6,0.6-2.9,1.8-3.9c1.1-0.9,2.6-1.3,4.5-1.3
			c1.2,0,2.3,0.2,3.2,0.6c0.9,0.4,1.6,0.9,2.1,1.7C112.3,250.1,112.5,250.8,112.7,251.6L112.7,251.6z"/>
		<path class="st0" d="M121,241.2v4.5H116v-4.5H121z M121,247.8v15.8H116v-15.8H121z"/>
		<path class="st0" d="M133.6,252.8c-0.6-0.9-1.3-1.4-2.2-1.4c-0.9,0-1.6,0.6-2.1,1.8c-0.2,0.7-0.4,1.5-0.4,2.6
			c0,1.6,0.3,2.9,0.8,3.7c0.4,0.7,1,1,1.6,1c0.9,0,1.6-0.5,2.1-1.5V252.8z M138.7,241.2v22.4h-4.4L134,262c-1.3,1.4-2.7,2.1-4.2,2.1
			c-2.1,0-3.7-1-4.8-2.9c-0.8-1.5-1.2-3.3-1.2-5.4c0-2.4,0.5-4.3,1.4-5.7c0.6-0.9,1.2-1.5,2.1-2c0.8-0.5,1.7-0.7,2.6-0.7
			c1.4,0,2.7,0.7,3.9,2v-8.1L138.7,241.2L138.7,241.2z"/>
		<path class="st0" d="M151,256.5c-0.9,0.1-1.7,0.3-2.6,0.7c-1.1,0.4-1.7,1.1-1.7,2c0,0.5,0.2,0.8,0.5,1c0.3,0.2,0.6,0.3,1,0.3
			c0.9,0,1.8-0.4,2.8-1.1L151,256.5L151,256.5z M147,252.7l-4.9-0.6c0.2-1.3,0.6-2.2,1.3-2.9c1.2-1.3,3.2-2,5.9-2
			c2.7,0,4.6,0.6,5.7,1.8c0.6,0.7,1,1.5,1.1,2.4c0.1,0.6,0.1,1.4,0.1,2.4v4c0,3,0.1,4.9,0.2,5.8h-4.9l-0.2-1.3
			c-1.5,1.2-3.1,1.7-4.7,1.7c-1.5,0-2.7-0.4-3.6-1.1c-1-0.8-1.5-1.9-1.5-3.3c0-1.7,0.8-3.1,2.3-4.1c1.2-0.8,3.5-1.5,7-2.2l0.4-0.1
			v-0.4c0-0.8-0.1-1.3-0.4-1.5c-0.3-0.3-0.8-0.4-1.4-0.4C147.9,250.9,147.2,251.5,147,252.7L147,252.7z"/>
		<path class="st0" d="M168.7,252.8c-0.6-0.9-1.3-1.4-2.2-1.4c-0.9,0-1.6,0.6-2.1,1.8c-0.2,0.7-0.4,1.5-0.4,2.6
			c0,1.6,0.3,2.9,0.8,3.7c0.4,0.7,1,1,1.6,1c0.9,0,1.6-0.5,2.1-1.5V252.8z M173.7,241.2v22.4h-4.4l-0.2-1.6
			c-1.3,1.4-2.7,2.1-4.2,2.1c-2.1,0-3.7-1-4.8-2.9c-0.8-1.5-1.2-3.3-1.2-5.4c0-2.4,0.5-4.3,1.4-5.7c0.6-0.9,1.2-1.5,2.1-2
			c0.8-0.5,1.7-0.7,2.6-0.7c1.4,0,2.7,0.7,3.9,2v-8.1L173.7,241.2L173.7,241.2z"/>
		<path class="st0" d="M181.8,254h4.7c0-0.7-0.1-1.4-0.3-1.8c-0.4-0.9-1.1-1.3-2-1.3c-1,0-1.7,0.5-2.1,1.5
			C181.9,252.8,181.8,253.4,181.8,254L181.8,254z M186.4,258.6l4.7,0.4c-0.8,3.4-3.2,5.1-7.1,5.1c-2.6,0-4.6-0.8-5.9-2.4
			c-1.2-1.4-1.7-3.3-1.7-5.7c0-2.6,0.6-4.6,1.7-6.1c0.7-0.9,1.6-1.6,2.7-2c1-0.4,2.1-0.6,3.2-0.6c2.1,0,3.8,0.7,5.1,2
			c1,1,1.6,2.3,1.9,3.9c0.1,0.4,0.1,1.6,0.2,3.6h-9.4c0,0.9,0.1,1.6,0.2,2.1c0.1,0.5,0.4,0.9,0.9,1.2c0.4,0.2,0.8,0.4,1.3,0.4
			C185.3,260.5,186.1,259.8,186.4,258.6L186.4,258.6z"/>
		<path class="st0" d="M211.8,252.8c-0.6-0.9-1.3-1.4-2.2-1.4c-0.9,0-1.6,0.6-2.1,1.8c-0.2,0.7-0.4,1.5-0.4,2.6
			c0,1.6,0.3,2.9,0.8,3.7c0.4,0.7,1,1,1.6,1c0.9,0,1.6-0.5,2.1-1.5V252.8L211.8,252.8z M216.8,241.2v22.4h-4.4l-0.2-1.6
			c-1.3,1.4-2.7,2.1-4.2,2.1c-2.1,0-3.7-1-4.8-2.9c-0.8-1.5-1.2-3.3-1.2-5.4c0-2.4,0.5-4.3,1.4-5.7c0.6-0.9,1.2-1.5,2.1-2
			c0.8-0.5,1.7-0.7,2.6-0.7c1.4,0,2.7,0.7,3.9,2v-8.1L216.8,241.2L216.8,241.2z"/>
		<path class="st0" d="M227.1,250.9c-1.5,0-2.3,1.6-2.3,4.6c0,1.6,0.1,2.7,0.4,3.5c0.4,1,1,1.4,1.9,1.4c1.1,0,1.8-0.7,2.1-2.1
			c0.2-0.8,0.3-1.9,0.3-3.2C229.5,252.3,228.7,250.9,227.1,250.9L227.1,250.9z M227.4,247.3c2.8,0,4.9,1.1,6.2,3.2
			c0.9,1.4,1.3,3.1,1.3,5.1c0,2.7-0.7,4.8-2.1,6.3c-1.4,1.5-3.3,2.2-5.7,2.2c-2.8,0-4.8-1-6.1-2.9c-1-1.5-1.5-3.3-1.5-5.5
			c0-1.4,0.2-2.7,0.7-3.8c0.4-1.2,1.1-2.1,1.9-2.8C223.4,247.9,225.2,247.3,227.4,247.3L227.4,247.3z"/>
		<path class="st0" d="M270.7,241.2v22.4h-5.6v-14.9c0,0,0-0.2,0-0.5c0-0.2,0-0.4,0-0.4l0-1.5v-0.9c-0.1,0.3-0.2,1-0.5,2l-0.2,0.9
			l-3.7,15.4h-4.4l-3.6-14.9c-0.3-1.4-0.5-2.5-0.7-3.4v0.8v1.7v15.7h-5.6v-22.4h8.9l2.8,11.3c0.4,1.6,0.6,2.8,0.7,3.8
			c0.1-0.8,0.3-1.9,0.6-3.3l0.1-0.5l2.3-11.3L270.7,241.2L270.7,241.2z"/>
		<path class="st0" d="M279.6,241.2v4.5h-5.1v-4.5H279.6z M279.6,247.8v15.8h-5.1v-15.8H279.6z"/>
		<path class="st0" d="M288.1,247.8v1.8c1.8-1.6,3.6-2.4,5.4-2.4c0.7,0,1.3,0.2,1.9,0.5c0.6,0.4,1,0.8,1.3,1.4
			c0.4,0.9,0.7,2.3,0.7,4.3v10.2h-5.1v-10.2c0-1.4-0.6-2.1-1.7-2.1c-0.8,0-1.6,0.4-2.5,1.2v11.1H283v-15.8L288.1,247.8L288.1,247.8z
			"/>
		<path class="st0" d="M305.8,241.2v8.4c0.4-0.5,1-1,1.7-1.4c1.2-0.7,2.4-1,3.4-1c0.8,0,1.4,0.2,2,0.5c0.6,0.3,1.1,0.8,1.4,1.4
			c0.4,0.9,0.7,2.2,0.7,3.9v10.5H310v-10.1c0-0.6-0.1-1-0.2-1.3c-0.3-0.6-0.8-0.8-1.5-0.8c-0.8,0-1.6,0.4-2.4,1.3v11h-5.1v-22.4
			L305.8,241.2L305.8,241.2z"/>
		<path class="st0" d="M325.3,250.9c-1.5,0-2.3,1.6-2.3,4.6c0,1.6,0.1,2.7,0.5,3.5c0.4,1,1,1.4,1.9,1.4c1.1,0,1.8-0.7,2.1-2.1
			c0.2-0.8,0.3-1.9,0.3-3.2C327.8,252.3,327,250.9,325.3,250.9L325.3,250.9z M325.6,247.3c2.8,0,4.9,1.1,6.2,3.2
			c0.9,1.4,1.3,3.1,1.3,5.1c0,2.7-0.7,4.8-2.1,6.3c-1.4,1.5-3.3,2.2-5.7,2.2c-2.8,0-4.8-1-6.1-2.9c-1-1.5-1.5-3.3-1.5-5.5
			c0-1.4,0.2-2.7,0.7-3.8c0.4-1.2,1.1-2.1,1.9-2.8C321.6,247.9,323.4,247.3,325.6,247.3L325.6,247.3z"/>
		<g>
			<path class="st1" d="M0,0v169.6h170.9V0H0z M79.1,37.4c0-2.8,2.3-5.2,5.2-5.2c2.9,0,5.2,2.3,5.2,5.2v18.1c0,2.9-2.3,5.2-5.2,5.2
				c-2.9,0-5.2-2.3-5.2-5.2V37.4z M60.3,105.4l-15.8,8.9c-5.9,3.4-11.1-5.5-5.2-8.9h0l15.8-8.9C61,93.1,66.2,102,60.3,105.4z
				 M72.4,84.8l-33-18.5c-5.9-3.4-0.7-12.3,5.2-8.9h0l33,18.5C83.5,79.3,78.3,88.2,72.4,84.8z M89.5,134.4c0,2.8-2.3,5.1-5.2,5.1
				s-5.2-2.3-5.2-5.1V96.8c0-2.9,2.3-5.2,5.2-5.2s5.2,2.3,5.2,5.2V134.4z M123.5,114.6L123.5,114.6l-15.4-9.2
				c-5.9-3.4-0.7-12.3,5.2-8.9l15.4,9.2C134.6,109.1,129.4,118,123.5,114.6z M128.9,66.1L128.9,66.1L96.3,85
				c-5.9,3.4-11.1-5.5-5.2-8.9l32.6-18.8C129.6,53.8,134.8,62.8,128.9,66.1z"/>
		</g>
		<g>
			<path class="st1" d="M170.9,0.3v169.3h170.8V0.3H170.9z M266.9,38.8l35,25.5c5.2,3.8-0.5,11.7-5.8,7.9l-35-25.5
				C255.9,42.9,261.7,35,266.9,38.8z M213.5,64.2l35.1-25.4v0c5.2-3.8,11,4.1,5.8,7.9l-35.1,25.4C214,75.9,208.2,68,213.5,64.2z
				 M221.4,122.2l-13.6-40.8h0c-2-6.1,7.4-9.2,9.4-3l13.6,40.8C232.8,125.3,223.4,128.3,221.4,122.2z M279.1,133.4h-43
				c-2.7,0-4.9-2.2-4.9-4.9s2.2-4.9,4.9-4.9h43c2.7,0,4.9,2.2,4.9,4.9C284.1,131.2,281.9,133.4,279.1,133.4z M307.7,81.5l-13.4,41
				c-2,6.1-11.4,3.1-9.4-3l13.4-41C300.3,72.4,309.7,75.4,307.7,81.5z"/>
		</g>
	</g>
</g>
</svg>
