<?xml version="1.0" encoding="UTF-8"?>
<svg id="Layer_2" data-name="Layer 2" xmlns="http://www.w3.org/2000/svg" viewBox="0 0 341.83 306.25">
  <defs>
    <style>
      .cls-1 {
        fill: #7e3b41;
      }

      .cls-1, .cls-2, .cls-3, .cls-4, .cls-5, .cls-6, .cls-7 {
        stroke-width: 0px;
      }

      .cls-2 {
        fill: #a95153;
      }

      .cls-3, .cls-6 {
        fill: #9b9ca0;
      }

      .cls-4, .cls-5 {
        fill: #fff;
      }

      .cls-5, .cls-6 {
        fill-rule: evenodd;
      }

      .cls-7 {
        fill: #ce7046;
      }
    </style>
  </defs>
  <g id="Layer_1-2" data-name="Layer 1">
    <g>
      <polygon class="cls-6" points="10.62 278.46 22.47 278.46 22.47 279.99 12.34 279.99 12.34 288.19 19.74 288.19 19.74 289.72 12.34 289.72 12.34 299.33 22.95 299.33 22.95 300.86 10.62 300.86 10.62 278.46"/>
      <path class="cls-6" d="m35.07,287.24l-1.11.87c-1.08-1.41-2.39-2.12-3.92-2.12-.96,0-1.74.25-2.33.75-.6.52-.89,1.16-.89,1.92,0,.91.47,1.65,1.42,2.22.51.3,1.41.68,2.71,1.15,1.64.59,2.73,1.12,3.27,1.58.86.72,1.29,1.68,1.29,2.89,0,1.29-.49,2.38-1.47,3.28-.98.89-2.28,1.33-3.9,1.33-2.23,0-4.02-1.05-5.39-3.15l1.22-.74c1.1,1.7,2.54,2.54,4.32,2.54,1.2,0,2.16-.38,2.88-1.13.54-.58.81-1.23.81-1.95,0-.93-.33-1.64-.99-2.12-.55-.39-1.36-.76-2.43-1.1-1.76-.56-3.08-1.18-3.95-1.87-.88-.69-1.32-1.61-1.32-2.77s.48-2.2,1.44-3c.88-.72,2.03-1.08,3.44-1.08,1.99,0,3.63.84,4.91,2.51Z"/>
      <path class="cls-6" d="m48.84,288.79l-1.39.44c-.19-.6-.44-1.13-.76-1.59-.74-1.04-1.69-1.56-2.86-1.56-1.45,0-2.58.74-3.39,2.23-.68,1.28-1.03,2.84-1.03,4.69,0,1.67.27,3.11.81,4.3.74,1.63,1.91,2.44,3.52,2.44,1.34,0,2.46-.64,3.36-1.94.23-.33.48-.77.76-1.33l1.27.64c-.32.75-.73,1.43-1.24,2.02-1.12,1.3-2.51,1.95-4.15,1.95-2.14,0-3.74-.96-4.79-2.89-.83-1.51-1.24-3.24-1.24-5.2,0-2.14.47-4,1.42-5.56.52-.85,1.18-1.51,2-1.98.83-.48,1.72-.72,2.68-.72,1.53,0,2.78.56,3.74,1.69.53.62.96,1.41,1.29,2.36Z"/>
      <path class="cls-6" d="m57.32,286.06c-1.61,0-2.83.83-3.65,2.48-.55,1.1-.83,2.59-.83,4.45,0,2.14.39,3.8,1.16,4.97.8,1.23,1.93,1.84,3.37,1.84,1.82,0,3.11-.88,3.87-2.64.5-1.14.74-2.61.74-4.41,0-2-.38-3.59-1.14-4.76-.83-1.28-2-1.92-3.52-1.92Zm.26-1.35c2.07,0,3.66.96,4.78,2.89.77,1.32,1.16,3.07,1.16,5.23,0,2.36-.45,4.27-1.35,5.71-1.08,1.73-2.66,2.59-4.74,2.59-2.15,0-3.79-.94-4.91-2.81-.8-1.33-1.21-3.13-1.21-5.38,0-2.56.57-4.58,1.7-6.07,1.1-1.44,2.63-2.17,4.58-2.17Z"/>
      <rect class="cls-3" x="67.09" y="278.47" width="1.54" height="22.4"/>
      <path class="cls-6" d="m81.79,291.61c-1.71.39-3.14.82-4.3,1.26-1.06.4-1.84.83-2.35,1.26-.8.7-1.21,1.59-1.21,2.66,0,.78.26,1.44.78,1.99.6.65,1.34.97,2.25.97,1.58,0,3.18-.88,4.83-2.64v-5.5Zm-7.7-3.09l-1.14-.72c1.06-2.05,2.83-3.07,5.31-3.07.93,0,1.76.18,2.51.53.76.35,1.34.83,1.75,1.44.46.71.72,1.57.78,2.58.02.5.03,1.15.03,1.95v3.86c.02,2.66.16,4.58.41,5.78h-1.55c-.14-.65-.25-1.47-.33-2.48-.55.59-1.05,1.07-1.5,1.44-1.02.84-2.18,1.26-3.47,1.26-1.38,0-2.48-.43-3.31-1.28-.77-.79-1.16-1.78-1.16-2.97,0-2.41,1.55-4.14,4.66-5.2.85-.28,2.04-.59,3.59-.92.57-.12.95-.2,1.12-.25-.01-1.02-.1-1.8-.28-2.36-.22-.68-.66-1.19-1.31-1.54-.58-.33-1.26-.49-2.02-.49-1.14,0-2.12.34-2.96,1.02-.46.37-.84.85-1.14,1.43Z"/>
      <path class="cls-6" d="m105.43,288.3c-1.33-1.48-2.68-2.22-4.03-2.22-1.58,0-2.79.83-3.65,2.49-.58,1.12-.88,2.53-.88,4.25,0,2.1.41,3.79,1.22,5.07.79,1.24,1.85,1.85,3.16,1.85.96,0,1.92-.35,2.88-1.05.47-.35.91-.77,1.31-1.25v-.48s0-1.16,0-1.16v-7.51Zm1.54-9.83v18.43c-.01,1.6.06,2.92.22,3.97h-1.44c-.02-.12-.07-.45-.13-.98-.02-.16-.06-.56-.12-1.18-1.33,1.6-2.78,2.39-4.33,2.39-1,0-1.91-.26-2.73-.77-.82-.51-1.47-1.24-1.97-2.18-.76-1.47-1.14-3.26-1.14-5.38,0-2.07.41-3.77,1.22-5.12.54-.9,1.23-1.6,2.07-2.12.84-.52,1.71-.79,2.61-.79,1.46,0,2.85.73,4.2,2.2v-8.47s1.54,0,1.54,0Z"/>
      <path class="cls-6" d="m112.31,291.53h8.22c-.05-1.18-.27-2.2-.64-3.07-.33-.74-.79-1.32-1.37-1.74-.58-.43-1.22-.64-1.92-.64-1.61,0-2.82.88-3.62,2.64-.35.79-.57,1.72-.66,2.81Zm9.84,1.4h-9.85c.09,1.28.24,2.34.45,3.18.3,1.13.87,2.05,1.7,2.77.67.58,1.48.87,2.43.87,1.41,0,2.63-.68,3.65-2.03.22-.27.46-.62.71-1.05l1.07.71c-.34.6-.68,1.12-1.01,1.54-1.14,1.45-2.62,2.18-4.46,2.18-2.38,0-4.09-1.15-5.14-3.45-.63-1.37-.94-2.96-.94-4.77s.29-3.47.88-4.74c1.05-2.26,2.69-3.4,4.93-3.4,2.38,0,4.04,1.3,4.98,3.89.4,1.12.6,2.55.61,4.3Z"/>
      <polygon class="cls-6" points="134.81 278.47 146.66 278.47 146.66 280 136.53 280 136.53 288.2 143.94 288.2 143.94 289.73 136.53 289.73 136.53 299.34 147.14 299.34 147.14 300.87 134.81 300.87 134.81 278.47"/>
      <path class="cls-6" d="m151.94,284.97v2.12s0,.66,0,.66c1.81-2.1,3.62-3.15,5.44-3.15.94,0,1.77.32,2.5.95.66.57,1.07,1.38,1.22,2.43.05.38.08.95.08,1.71v11.19s-1.54,0-1.54,0v-11.09c0-1.02-.11-1.81-.33-2.38-.2-.5-.55-.89-1.06-1.17-.39-.21-.8-.31-1.26-.31-1.64,0-3.33,1.04-5.06,3.12v11.83s-1.54,0-1.54,0v-15.9s1.54,0,1.54,0Z"/>
      <path class="cls-6" d="m169.93,299.61c-1.05.28-1.8.56-2.26.84-.96.58-1.44,1.3-1.44,2.17,0,.78.47,1.38,1.41,1.8.75.33,1.75.49,2.99.49,1.79,0,3.17-.32,4.15-.97.85-.57,1.27-1.25,1.27-2.05,0-.62-.3-1.1-.91-1.44-.47-.26-1.54-.49-3.21-.69-1.2-.13-1.87-.18-2-.15Zm.56-13.6c-1.16,0-2.1.42-2.83,1.26-.71.81-1.06,1.79-1.06,2.94,0,1.25.42,2.26,1.27,3.05.76.7,1.66,1.05,2.71,1.05,1.42,0,2.51-.56,3.26-1.69.46-.7.69-1.53.69-2.48,0-1.31-.43-2.36-1.29-3.15-.73-.66-1.65-.98-2.76-.98Zm6.89-1.62v1.54c-1.17,0-2.09.18-2.76.54.97,1.03,1.45,2.26,1.46,3.69,0,1.55-.52,2.85-1.55,3.89-1.01,1.02-2.23,1.53-3.64,1.53-.76,0-1.58-.15-2.46-.44-1.14.42-1.7.97-1.7,1.66,0,.48.5.83,1.49,1.05.28.05,1.47.2,3.59.44,1.52.18,2.55.32,3.09.44.55.12,1.01.3,1.39.53.87.56,1.31,1.39,1.31,2.51,0,1.51-.78,2.67-2.33,3.49-1.29.67-2.92,1-4.88,1-1.8,0-3.2-.31-4.22-.94-.98-.6-1.47-1.42-1.47-2.44,0-1.79,1.2-3.01,3.6-3.66-.61-.11-1.1-.23-1.49-.38-.99-.36-1.49-.96-1.49-1.79,0-1.03.74-1.84,2.22-2.44-1.54-1.12-2.31-2.6-2.31-4.45,0-1.63.58-2.97,1.75-4.02,1-.92,2.23-1.38,3.69-1.38,1.16,0,2.2.3,3.14.9.97-.75,2.17-1.18,3.59-1.28Z"/>
      <path class="cls-6" d="m179.93,291.54h8.22c-.06-1.18-.27-2.2-.64-3.07-.33-.74-.79-1.32-1.37-1.74-.58-.43-1.22-.64-1.92-.64-1.61,0-2.82.88-3.62,2.64-.35.79-.57,1.72-.66,2.81Zm9.84,1.4h-9.85c.09,1.28.24,2.34.45,3.18.3,1.13.86,2.05,1.7,2.77.67.58,1.48.87,2.43.87,1.41,0,2.63-.68,3.65-2.03.22-.27.46-.62.71-1.05l1.07.71c-.34.6-.68,1.12-1.01,1.54-1.14,1.45-2.62,2.18-4.46,2.18-2.38,0-4.1-1.15-5.14-3.45-.63-1.37-.94-2.96-.94-4.77,0-1.89.29-3.47.88-4.74,1.05-2.26,2.69-3.4,4.93-3.4,2.38,0,4.04,1.3,4.98,3.89.4,1.12.6,2.55.61,4.3Z"/>
      <path class="cls-6" d="m195.04,284.97v2.77c1.81-2.1,3.62-3.15,5.44-3.15.94,0,1.77.32,2.5.95.66.57,1.07,1.38,1.22,2.43.05.38.08.95.08,1.71v11.19s-1.54,0-1.54,0v-11.09c0-1.02-.11-1.81-.33-2.38-.2-.5-.55-.89-1.06-1.16-.39-.21-.81-.31-1.26-.31-1.64,0-3.33,1.04-5.06,3.12v11.83s-1.54,0-1.54,0v-15.9s1.54,0,1.54,0Z"/>
      <path class="cls-6" d="m210.56,278.48v9.25c1.7-2.09,3.46-3.13,5.29-3.13,1.05,0,1.94.32,2.68.97.72.63,1.12,1.72,1.22,3.25.02.37.03,1.14.03,2.3v9.76s-1.54,0-1.54,0v-10.09c0-1.33-.05-2.25-.13-2.76-.12-.63-.42-1.14-.91-1.53-.46-.37-1.01-.56-1.65-.56-1.05,0-2.19.51-3.42,1.53-.62.51-1.14,1.04-1.57,1.59v11.81s-1.54,0-1.54,0v-22.4s1.54,0,1.54,0Z"/>
      <path class="cls-6" d="m232.95,291.62c-1.71.39-3.14.82-4.3,1.26-1.06.41-1.84.83-2.35,1.26-.81.7-1.21,1.59-1.21,2.66,0,.78.26,1.44.78,1.99.59.65,1.34.97,2.25.97,1.58,0,3.19-.88,4.83-2.64v-5.5Zm-7.7-3.09l-1.14-.72c1.06-2.05,2.83-3.07,5.31-3.07.93,0,1.76.18,2.51.53.76.35,1.34.83,1.75,1.44.46.71.72,1.57.78,2.58.02.5.03,1.15.03,1.95v3.86c.02,2.66.16,4.58.41,5.78h-1.55c-.14-.65-.25-1.47-.33-2.48-.55.59-1.05,1.07-1.5,1.44-1.03.84-2.18,1.26-3.47,1.26-1.38,0-2.48-.43-3.31-1.28-.77-.79-1.16-1.78-1.16-2.97,0-2.41,1.55-4.14,4.66-5.2.85-.28,2.04-.59,3.59-.92.57-.12.95-.2,1.12-.25-.01-1.02-.11-1.8-.28-2.36-.22-.68-.66-1.19-1.31-1.54-.58-.33-1.26-.49-2.02-.49-1.14,0-2.12.34-2.96,1.02-.46.37-.84.85-1.14,1.43Z"/>
      <path class="cls-6" d="m245.89,284.65v1.49c-.8.02-1.49.19-2.07.49-1.88,1.09-2.91,2.99-3.07,5.69v8.55s-1.54,0-1.54,0v-15.9s1.54,0,1.54,0v4.18c.33-1.09.79-2,1.37-2.71.99-1.2,2.13-1.8,3.41-1.8h.36Z"/>
      <path class="cls-6" d="m249.96,279.42v2.28h-1.72v-2.28h1.72Zm-.08,5.56v15.9s-1.54,0-1.54,0v-15.9s1.54,0,1.54,0Z"/>
      <path class="cls-6" d="m263.03,291.62c-1.71.39-3.14.81-4.3,1.26-1.06.4-1.84.83-2.35,1.26-.8.7-1.21,1.59-1.21,2.66,0,.78.26,1.44.78,1.99.59.65,1.34.97,2.25.97,1.58,0,3.18-.88,4.83-2.64v-5.5Zm-7.7-3.09l-1.14-.72c1.06-2.05,2.83-3.07,5.31-3.07.93,0,1.76.18,2.51.53.76.35,1.34.83,1.75,1.44.46.71.72,1.57.78,2.58.02.5.03,1.15.03,1.95v3.86c.02,2.66.16,4.58.41,5.78h-1.55c-.14-.65-.25-1.47-.33-2.48-.55.59-1.05,1.07-1.5,1.44-1.02.84-2.18,1.26-3.47,1.26-1.38,0-2.48-.43-3.31-1.28-.77-.79-1.16-1.78-1.16-2.97,0-2.41,1.55-4.14,4.66-5.2.85-.28,2.04-.59,3.59-.92.57-.12.95-.2,1.12-.25-.01-1.02-.1-1.8-.28-2.36-.22-.68-.66-1.19-1.31-1.54-.58-.33-1.26-.49-2.02-.49-1.14,0-2.12.34-2.96,1.02-.46.37-.84.85-1.14,1.43Z"/>
      <path class="cls-6" d="m15.31,241.21v14.67c.01.98.05,1.69.1,2.12.11.69.41,1.23.91,1.62.43.33.97.49,1.62.49.97,0,1.71-.36,2.22-1.08.37-.51.56-1.56.56-3.15v-14.67s5.6,0,5.6,0v14.67c0,1.26-.08,2.24-.23,2.95-.15.7-.43,1.35-.83,1.95-1.44,2.18-3.92,3.26-7.42,3.26-2.85,0-5.01-.81-6.46-2.43-.84-.93-1.34-2.01-1.5-3.25-.11-.86-.17-1.91-.17-3.13v-14.03s5.6,0,5.6,0Z"/>
      <path class="cls-6" d="m35.03,247.8v1.79c1.79-1.56,3.59-2.35,5.41-2.35.66,0,1.29.18,1.88.53.59.35,1.04.8,1.32,1.35.44.9.66,2.34.66,4.33v10.16s-5.07,0-5.07,0v-10.16c0-1.42-.56-2.13-1.69-2.13-.79,0-1.63.41-2.51,1.23v11.06s-5.07,0-5.07,0v-15.8s5.07,0,5.07,0Z"/>
      <path class="cls-6" d="m52.77,241.21v4.5s-5.07,0-5.07,0v-4.5s5.07,0,5.07,0Zm0,6.6v15.8s-5.07,0-5.07,0v-15.8s5.07,0,5.07,0Z"/>
      <path class="cls-6" d="m69.67,247.81l-4.71,15.8h-5.69s-5.13-15.8-5.13-15.8h5.57s1.6,6.3,1.6,6.3c.46,1.94.79,3.78.99,5.55.11-1.6.4-3.54.86-5.84l1.24-6h5.26Z"/>
      <path class="cls-6" d="m75.55,254.01h4.68c-.01-.74-.12-1.36-.33-1.84-.39-.86-1.05-1.3-2-1.3-.98,0-1.67.5-2.07,1.51-.18.45-.27.99-.28,1.62Zm4.68,4.59l4.71.38c-.78,3.38-3.16,5.07-7.13,5.07-2.63,0-4.6-.8-5.9-2.41-1.16-1.42-1.74-3.33-1.74-5.71,0-2.55.57-4.57,1.7-6.05.71-.92,1.62-1.6,2.74-2.03,1-.39,2.06-.59,3.17-.59,2.14,0,3.84.66,5.09,1.97.99,1.03,1.62,2.32,1.88,3.89.05.37.13,1.59.22,3.64h-9.44c.01.9.09,1.6.23,2.12.14.5.44.9.89,1.2.37.24.79.36,1.26.36,1.22,0,1.99-.61,2.3-1.82Z"/>
      <path class="cls-6" d="m98.8,247.4v4.79c-.39-.1-.76-.15-1.12-.15-1.22,0-2.3.35-3.22,1.05-.58.43-1.09,1.03-1.5,1.82v8.7s-5.07,0-5.07,0v-15.8s5.07,0,5.07,0v1.41s0,.14-.02.36c-.01.11-.02.24-.02.38,0,.18.01.55.03,1.13.45-.89.96-1.6,1.52-2.13,1.11-1.07,2.29-1.61,3.52-1.61.19,0,.46.02.81.05Z"/>
      <path class="cls-6" d="m112.67,251.65l-4.66.38c-.1-.95-.58-1.43-1.44-1.43-.51,0-.91.16-1.21.49-.2.23-.3.51-.3.85,0,.66.32,1.13.98,1.41.18.08,1.11.28,2.79.62,2.95.58,4.43,2.16,4.43,4.74,0,1.6-.6,2.9-1.8,3.9-1.15.96-2.84,1.44-5.08,1.44-3.64,0-5.6-1.61-5.9-4.84l4.73-.29c.13,1.18.72,1.77,1.75,1.77.58,0,1.02-.21,1.31-.64.17-.24.25-.5.25-.77,0-.83-.64-1.36-1.92-1.59-1.26-.23-2.16-.43-2.71-.59-.55-.16-1.04-.38-1.45-.66-1.34-.85-2.02-2.17-2.02-3.95,0-1.59.62-2.89,1.85-3.92,1.06-.89,2.55-1.33,4.46-1.33,1.2,0,2.26.2,3.17.61.93.39,1.62.95,2.07,1.66.34.54.57,1.25.69,2.13Z"/>
      <path class="cls-6" d="m121.04,241.21v4.5s-5.07,0-5.07,0v-4.5h5.07Zm0,6.6v15.8s-5.07,0-5.07,0v-15.8s5.07,0,5.07,0Z"/>
      <path class="cls-6" d="m133.64,252.75c-.58-.94-1.31-1.41-2.18-1.41-.95,0-1.64.59-2.07,1.76-.23.67-.35,1.54-.35,2.61,0,1.64.28,2.89.83,3.74.42.66.96.98,1.64.98.86,0,1.57-.49,2.13-1.46v-6.22Zm5.07-11.53v22.4s-4.43,0-4.43,0l-.25-1.62c-1.26,1.38-2.67,2.07-4.23,2.07-2.13,0-3.74-.97-4.84-2.9-.83-1.47-1.24-3.28-1.24-5.45,0-2.36.47-4.27,1.41-5.73.55-.85,1.23-1.52,2.05-2,.83-.48,1.69-.72,2.6-.72,1.44,0,2.73.68,3.87,2.03v-8.07s5.07,0,5.07,0Z"/>
      <path class="cls-6" d="m151.01,256.46c-.85.12-1.71.34-2.6.67-1.15.43-1.72,1.09-1.72,1.99,0,.45.18.79.53,1.03.28.19.6.28.98.28.88,0,1.82-.36,2.81-1.08v-2.89Zm-4.05-3.71l-4.93-.61c.21-1.26.64-2.23,1.29-2.92,1.22-1.31,3.19-1.97,5.9-1.97,2.66,0,4.55.6,5.69,1.79.64.67,1,1.47,1.09,2.4.05.57.08,1.36.08,2.36v4.04c0,2.96.08,4.89.23,5.78h-4.89s-.2-1.3-.2-1.3c-1.47,1.16-3.05,1.74-4.74,1.74-1.52,0-2.74-.38-3.65-1.13-.99-.83-1.49-1.92-1.49-3.27,0-1.71.76-3.06,2.28-4.05,1.19-.78,3.53-1.53,7.01-2.25l.38-.08v-.41c.01-.77-.13-1.28-.41-1.54-.34-.3-.82-.44-1.44-.44-1.26,0-1.99.62-2.2,1.87Z"/>
      <path class="cls-6" d="m168.67,252.75c-.58-.94-1.31-1.41-2.18-1.41-.95,0-1.64.59-2.07,1.76-.23.67-.35,1.54-.35,2.61,0,1.64.28,2.89.83,3.74.42.66.96.98,1.64.98.86,0,1.57-.49,2.13-1.46v-6.22Zm5.07-11.53v22.4s-4.43,0-4.43,0l-.25-1.62c-1.26,1.38-2.67,2.07-4.23,2.07-2.13,0-3.74-.97-4.84-2.9-.83-1.47-1.24-3.28-1.24-5.45,0-2.36.47-4.27,1.4-5.73.55-.85,1.23-1.52,2.05-2,.83-.48,1.69-.72,2.6-.72,1.44,0,2.73.68,3.87,2.03v-8.07s5.07,0,5.07,0Z"/>
      <path class="cls-6" d="m181.76,254.02h4.68c-.01-.74-.12-1.36-.33-1.84-.39-.86-1.05-1.3-2-1.3-.98,0-1.67.5-2.07,1.51-.18.45-.27.99-.28,1.62Zm4.68,4.59l4.71.38c-.78,3.38-3.16,5.07-7.13,5.07-2.63,0-4.6-.8-5.9-2.41-1.16-1.42-1.74-3.33-1.74-5.71,0-2.55.57-4.57,1.7-6.05.71-.92,1.62-1.6,2.74-2.03,1-.39,2.06-.59,3.17-.59,2.14,0,3.84.66,5.09,1.97.99,1.03,1.62,2.32,1.88,3.89.05.37.13,1.59.22,3.64h-9.44c.01.9.09,1.6.23,2.12.14.5.44.9.89,1.2.37.24.79.36,1.26.36,1.22,0,1.99-.61,2.3-1.82Z"/>
      <path class="cls-6" d="m211.75,252.76c-.58-.94-1.31-1.41-2.18-1.41-.95,0-1.64.59-2.07,1.76-.23.67-.35,1.54-.35,2.61,0,1.64.28,2.89.83,3.74.42.66.96.98,1.64.98.86,0,1.57-.49,2.13-1.46v-6.22Zm5.07-11.53v22.4s-4.43,0-4.43,0l-.25-1.62c-1.26,1.38-2.67,2.07-4.23,2.07-2.13,0-3.74-.97-4.84-2.9-.83-1.47-1.24-3.28-1.24-5.45,0-2.36.47-4.27,1.4-5.73.55-.85,1.23-1.52,2.05-2,.83-.48,1.69-.72,2.6-.72,1.44,0,2.73.68,3.87,2.03v-8.07s5.07,0,5.07,0Z"/>
      <path class="cls-6" d="m227.11,250.89c-1.53,0-2.3,1.55-2.3,4.64,0,1.59.15,2.74.45,3.46.41.96,1.04,1.44,1.88,1.44,1.06,0,1.76-.69,2.1-2.07.2-.78.3-1.85.3-3.23,0-2.83-.81-4.25-2.43-4.25Zm.25-3.63c2.79,0,4.85,1.07,6.2,3.2.87,1.37,1.31,3.06,1.31,5.07,0,2.7-.69,4.81-2.07,6.32-1.36,1.48-3.26,2.21-5.72,2.21-2.8,0-4.84-.96-6.12-2.87-.98-1.47-1.47-3.29-1.47-5.48,0-1.4.22-2.67.66-3.82.44-1.16,1.06-2.1,1.87-2.82,1.36-1.2,3.14-1.8,5.34-1.8Z"/>
      <path class="cls-6" d="m270.71,241.23v22.4s-5.6,0-5.6,0v-14.85s-.01-.19-.03-.46c-.01-.22-.02-.37-.02-.44l.05-1.53v-.95c-.07.32-.22.98-.46,2l-.2.85-3.7,15.37h-4.4s-3.62-14.85-3.62-14.85c-.31-1.39-.53-2.52-.68-3.38v.79s0,1.71,0,1.71v15.73s-5.6,0-5.6,0v-22.4s8.89,0,8.89,0l2.76,11.32c.37,1.59.6,2.84.68,3.76.1-.78.29-1.88.56-3.3l.08-.46,2.33-11.32h8.96Z"/>
      <path class="cls-6" d="m279.6,241.23v4.5h-5.08v-4.5h5.08Zm0,6.6v15.8s-5.07,0-5.07,0v-15.8s5.07,0,5.07,0Z"/>
      <path class="cls-6" d="m288.07,247.82v1.79c1.79-1.56,3.59-2.35,5.41-2.35.66,0,1.29.18,1.88.53.6.35,1.04.8,1.32,1.35.44.9.66,2.34.66,4.33v10.16s-5.07,0-5.07,0v-10.16c0-1.42-.56-2.13-1.69-2.13-.79,0-1.63.41-2.51,1.23v11.06s-5.07,0-5.07,0v-15.8s5.07,0,5.07,0Z"/>
      <path class="cls-6" d="m305.81,241.23v8.45c.44-.53,1.01-.98,1.72-1.38,1.24-.69,2.39-1.03,3.44-1.03.76,0,1.44.18,2.05.53.62.34,1.07.8,1.37,1.38.44.88.66,2.19.66,3.95v10.5s-5.08,0-5.08,0v-10.12c0-.6-.08-1.04-.25-1.33-.32-.56-.82-.84-1.5-.84-.82,0-1.62.42-2.41,1.26v11.03s-5.07,0-5.07,0v-22.4s5.07,0,5.07,0Z"/>
      <path class="cls-6" d="m325.33,250.89c-1.53,0-2.3,1.55-2.3,4.64,0,1.59.15,2.74.45,3.46.41.96,1.04,1.44,1.88,1.44,1.06,0,1.76-.69,2.1-2.07.2-.78.3-1.85.3-3.23,0-2.83-.81-4.25-2.43-4.25Zm.25-3.63c2.79,0,4.86,1.07,6.2,3.2.87,1.37,1.31,3.06,1.31,5.07,0,2.7-.69,4.81-2.07,6.32-1.36,1.48-3.26,2.21-5.72,2.21-2.8,0-4.84-.96-6.12-2.87-.98-1.47-1.47-3.29-1.47-5.48,0-1.4.22-2.67.66-3.82.44-1.16,1.06-2.1,1.87-2.82,1.36-1.2,3.14-1.8,5.34-1.8Z"/>
      <rect class="cls-2" width="170.92" height="169.61"/>
      <path class="cls-4" d="m89.48,37.4v18.07c0,2.85-2.33,5.15-5.19,5.15s-5.19-2.31-5.19-5.15v-18.07c0-2.84,2.32-5.15,5.19-5.15s5.19,2.31,5.19,5.15Zm33.98,77.19l-15.42-9.23c-5.92-3.39-.71-12.31,5.21-8.92l15.41,9.24c5.91,3.39.72,12.31-5.21,8.91Zm-84.17-9.22l15.83-8.92c5.92-3.39,11.11,5.54,5.19,8.93l-15.83,8.91c-5.92,3.39-11.1-5.53-5.18-8.92Zm39.79,29.03v-37.63c0-2.85,2.33-5.15,5.19-5.15s5.19,2.31,5.19,5.15v37.63c0,2.84-2.32,5.15-5.19,5.15-2.87,0-5.19-2.31-5.19-5.15ZM44.62,57.33l32.97,18.54c5.93,3.4.74,12.32-5.18,8.94l-32.97-18.55c-5.92-3.39-.74-12.32,5.17-8.93Zm84.28,8.8l-32.6,18.84c-5.92,3.39-11.12-5.53-5.2-8.92l32.61-18.83c5.93-3.4,11.11,5.53,5.2,8.91Z"/>
      <rect class="cls-1" x="170.91" width="170.92" height="169.61"/>
      <rect class="cls-7" x="170.91" y=".3" width="170.76" height="169.32"/>
      <path class="cls-5" d="m207.79,81.37c-2-6.13,7.36-9.16,9.36-3.03l13.62,40.84c2,6.14-7.37,9.16-9.37,3.03l-13.62-40.84Zm40.77-42.58c5.24-3.79,11.03,4.13,5.79,7.92l-35.08,25.38c-5.25,3.79-11.03-4.14-5.79-7.93l35.08-25.38Zm18.37-.02l34.99,25.5c5.24,3.79-.55,11.72-5.79,7.92l-34.99-25.5c-5.25-3.79.55-11.71,5.79-7.92Zm40.73,42.78l-13.36,41.02c-2,6.13-11.37,3.11-9.37-3.03l13.37-41.01c2-6.14,11.36-3.1,9.36,3.02Zm-28.53,51.84h-43.02c-2.72,0-4.92-2.2-4.92-4.9s2.2-4.9,4.92-4.9h43.02c2.72,0,4.92,2.19,4.92,4.9s-2.2,4.9-4.92,4.9Z"/>
    </g>
  </g>
</svg>