<?xml version="1.0" encoding="UTF-8"?>
<svg id="Layer_2" data-name="Layer 2" xmlns="http://www.w3.org/2000/svg" xmlns:xlink="http://www.w3.org/1999/xlink" viewBox="0 0 202.15 272.74">
  <defs>
    <style>
      .cls-1 {
        fill: #72cee7;
      }

      .cls-1, .cls-2, .cls-3, .cls-4, .cls-5, .cls-6, .cls-7, .cls-8, .cls-9, .cls-10, .cls-11, .cls-12, .cls-13, .cls-14 {
        stroke-width: 0px;
      }

      .cls-1, .cls-8, .cls-10, .cls-14 {
        fill-rule: evenodd;
      }

      .cls-2 {
        fill: url(#linear-gradient);
      }

      .cls-3 {
        fill: url(#linear-gradient-6);
      }

      .cls-15 {
        clip-path: url(#clippath-2);
      }

      .cls-4 {
        fill: url(#linear-gradient-5);
      }

      .cls-5 {
        fill: none;
      }

      .cls-16 {
        clip-path: url(#clippath-1);
      }

      .cls-17 {
        clip-path: url(#clippath-4);
      }

      .cls-6, .cls-8 {
        fill: #fff;
      }

      .cls-7 {
        fill: url(#linear-gradient-2);
      }

      .cls-9 {
        fill: url(#linear-gradient-3);
      }

      .cls-18 {
        clip-path: url(#clippath);
      }

      .cls-10 {
        fill: #00b0bd;
      }

      .cls-19 {
        clip-path: url(#clippath-3);
      }

      .cls-11 {
        fill: #81a13d;
      }

      .cls-20 {
        clip-path: url(#clippath-5);
      }

      .cls-12 {
        fill: #fced00;
      }

      .cls-13 {
        fill: url(#linear-gradient-4);
      }

      .cls-14 {
        fill: #00679a;
      }
    </style>
    <clipPath id="clippath">
      <rect class="cls-5" x="13.51" y="22.2" width="13.69" height="70.59"/>
    </clipPath>
    <linearGradient id="linear-gradient" x1="4713.45" y1="3188.94" x2="4714.61" y2="3188.94" gradientTransform="translate(193166.45 285573.91) rotate(-90) scale(60.57 -60.57)" gradientUnits="userSpaceOnUse">
      <stop offset="0" stop-color="#a0c536"/>
      <stop offset="1" stop-color="#81a13d"/>
    </linearGradient>
    <clipPath id="clippath-1">
      <path class="cls-5" d="m173.42,25.46v37.45c-.23,3.49-.22,6.17-.92,9.74-1.75,8.91-6.14,16.87-12.32,23.05-8.13,8.13-19.37,13.16-31.78,13.16-6.02,0-11.9-1.2-17.32-3.46-5.44-2.27-10.43-5.6-14.64-9.86-.46-.46-.97-.85-1.52-1.15v17.82c3.41,2.37,7.06,4.36,10.87,5.95,6.57,2.74,13.63,4.29,20.83,4.51h3.59c15.51-.47,29.52-6.95,39.76-17.19,8.23-8.23,14.03-18.89,16.23-30.81.29-1.55.66-5.25.83-8.34V25.46h-13.61Z"/>
    </clipPath>
    <linearGradient id="linear-gradient-2" x1="4702.36" y1="3167.29" x2="4703.53" y2="3167.29" gradientTransform="translate(264312.53 392329.39) rotate(-90) scale(83.41 -83.41)" gradientUnits="userSpaceOnUse">
      <stop offset="0" stop-color="#ed1651"/>
      <stop offset="1" stop-color="#bd1f40"/>
    </linearGradient>
    <clipPath id="clippath-2">
      <path class="cls-5" d="m173.15,19.73h13.64V3.44c-7.15.05-13.6,6.55-13.64,16.28"/>
    </clipPath>
    <linearGradient id="linear-gradient-3" x1="4846.25" y1="3444.17" x2="4847.42" y2="3444.17" gradientTransform="translate(48938.71 68627.67) rotate(-90) scale(14.16 -14.16)" xlink:href="#linear-gradient-2"/>
    <clipPath id="clippath-3">
      <path class="cls-5" d="m118.31,80.48c-2.59-1.09-4.85-2.59-6.77-4.51-1.92-1.92-3.42-4.18-4.51-6.77-1.09-2.59-1.63-5.34-1.63-8.25s.54-5.63,1.63-8.17c1.09-2.54,2.59-4.77,4.51-6.69,1.92-1.92,4.18-3.42,6.77-4.51,2.59-1.09,5.34-1.64,8.24-1.64h21.01v21.01c0,2.9-.54,5.65-1.63,8.25-1.09,2.59-2.59,4.85-4.51,6.77-1.92,1.92-4.15,3.42-6.69,4.51-2.54,1.09-5.26,1.63-8.17,1.63s-5.65-.54-8.24-1.63m29.25-60.57h0v6.19h-21.01c-4.77,0-9.28.91-13.53,2.72-4.25,1.81-7.99,4.3-11.21,7.47-3.21,3.16-5.73,6.85-7.55,11.05-1.82,4.2-2.72,8.74-2.72,13.62s.91,9.28,2.72,13.53c1.81,4.25,4.33,7.99,7.55,11.2,3.22,3.22,6.95,5.73,11.21,7.55,4.25,1.82,8.76,2.73,13.53,2.73s9.29-.91,13.54-2.73c4.25-1.81,7.96-4.33,11.12-7.55,3.17-3.22,5.66-6.95,7.47-11.2,1.81-4.25,2.72-8.77,2.72-13.53V3.44c-7.3.02-13.89,6.6-13.85,16.46"/>
    </clipPath>
    <linearGradient id="linear-gradient-4" x1="4703.81" y1="3170.02" x2="4704.97" y2="3170.02" gradientTransform="translate(252499.75 374578.12) rotate(-90) scale(79.61 -79.61)" xlink:href="#linear-gradient-2"/>
    <clipPath id="clippath-4">
      <path class="cls-5" d="m49.46,58.02c0-2.9.55-5.63,1.63-8.17,1.09-2.54,2.59-4.77,4.51-6.69,1.92-1.92,4.15-3.42,6.69-4.51,2.54-1.09,5.26-1.63,8.17-1.63s5.65.54,8.25,1.63c2.59,1.09,4.85,2.59,6.77,4.51,1.92,1.92,3.42,4.15,4.51,6.69,1.09,2.54,1.63,5.27,1.63,8.17s-.55,5.65-1.63,8.25c-1.09,2.59-2.59,4.85-4.51,6.77-1.92,1.92-4.18,3.42-6.77,4.51-2.59,1.09-5.34,1.64-8.25,1.64h-21.01v-21.16Zm7.47-32.13c-4.25,1.82-7.96,4.3-11.13,7.47-3.16,3.16-5.66,6.85-7.47,11.05-1.81,4.2-2.72,8.74-2.72,13.62v41.93h0v16.47c7.27-.02,13.85-6.56,13.85-16.37h0v-7.02h21.01c4.88,0,9.42-.91,13.62-2.72,4.2-1.81,7.91-4.33,11.13-7.55,3.22-3.22,5.73-6.95,7.55-11.2,1.44-3.38,2.31-6.92,2.61-10.62v-5.88c-.3-3.76-1.16-7.31-2.61-10.65-1.82-4.2-4.33-7.88-7.55-11.05-3.21-3.16-6.92-5.65-11.13-7.47-4.2-1.81-8.74-2.72-13.62-2.72s-9.28.91-13.54,2.72"/>
    </clipPath>
    <linearGradient id="linear-gradient-5" x1="4703.52" y1="3169.64" x2="4704.69" y2="3169.64" gradientTransform="translate(254448.42 377595.81) rotate(-90) scale(80.25 -80.25)" xlink:href="#linear-gradient"/>
    <clipPath id="clippath-5">
      <path class="cls-5" d="m13.51,16.47h13.69C27.25,6.6,20.72.02,13.51,0v16.47Z"/>
    </clipPath>
    <linearGradient id="linear-gradient-6" x1="4846.64" y1="3446.52" x2="4847.81" y2="3446.52" gradientTransform="translate(48708.72 68484.02) rotate(-90) scale(14.13 -14.13)" xlink:href="#linear-gradient"/>
  </defs>
  <g id="Foreground">
    <g>
      <path class="cls-6" d="m3.27,205.29c0-.53.26-.8.78-.8.21,0,.38.07.52.2.14.13.21.33.21.6v10.74c0,.32-.08.53-.23.66-.16.12-.32.18-.5.18-.52,0-.78-.27-.78-.8v-10.77Z"/>
      <path class="cls-6" d="m8.71,205.26c0-.25.06-.44.17-.58s.27-.21.47-.21c.36,0,.65.17.87.51l6.54,9.16h.02v-8.84c0-.25.08-.44.23-.59.15-.14.32-.21.53-.21.23,0,.41.07.56.21.15.14.23.34.23.59v10.83c0,.24-.07.44-.19.57-.13.14-.29.2-.49.2-.32,0-.6-.16-.86-.48l-6.52-9.16-.04-.04v8.91c0,.24-.08.42-.23.54-.15.13-.33.19-.54.19s-.38-.07-.53-.2c-.15-.13-.22-.32-.22-.57v-10.84Z"/>
      <path class="cls-6" d="m27.91,205.13c.34.22.51.49.51.8,0,.18-.07.33-.2.45-.14.13-.31.2-.51.22-.23-.05-.51-.16-.86-.33-.35-.17-.63-.29-.83-.36-.2-.08-.43-.11-.71-.11-.56,0-1.02.16-1.37.48-.35.32-.57.75-.64,1.29.04.7.53,1.24,1.47,1.64.19.08.53.2,1.02.36.49.16.91.32,1.26.46.35.15.68.32,1,.54.32.22.57.47.76.76.31.53.47,1.1.47,1.72s-.16,1.25-.48,1.83c-.32.58-.8,1.06-1.44,1.43-.64.37-1.4.55-2.28.55-.64,0-1.26-.08-1.84-.25-.58-.16-1.02-.36-1.31-.59-.23-.16-.35-.38-.37-.66,0-.21.06-.38.19-.52.13-.14.29-.21.5-.21.11,0,.25.05.44.14.81.53,1.67.8,2.59.8.42,0,.81-.11,1.17-.33.36-.22.64-.52.85-.88.21-.36.31-.75.31-1.16s-.12-.79-.37-1.08c-.24-.29-.55-.53-.92-.71-.37-.18-.85-.37-1.43-.56-.58-.19-.94-.32-1.08-.38-.45-.21-.82-.43-1.12-.66-.3-.22-.53-.51-.71-.85-.18-.34-.27-.76-.28-1.26,0-.61.18-1.17.54-1.66.36-.49.83-.87,1.4-1.14.58-.27,1.17-.4,1.78-.4,1.02,0,1.85.21,2.5.63"/>
      <path class="cls-6" d="m34.31,206h-2.4c-.21,0-.38-.07-.5-.2-.12-.14-.2-.31-.21-.5.02-.19.09-.36.22-.49.13-.14.31-.21.53-.21h6.24c.25,0,.44.07.57.2.13.13.19.3.19.5s-.06.37-.18.5c-.12.13-.29.2-.51.2h-2.42v10.1c0,.23-.08.42-.23.56-.16.14-.34.21-.55.21s-.38-.07-.52-.21c-.15-.14-.22-.33-.22-.56v-10.1Z"/>
      <path class="cls-6" d="m41.57,205.29c0-.53.26-.8.78-.8.21,0,.38.07.52.2.14.13.21.33.21.6v10.74c0,.32-.08.53-.23.66-.16.12-.32.18-.5.18-.52,0-.78-.27-.78-.8v-10.77Z"/>
      <path class="cls-6" d="m49.09,206h-2.4c-.21,0-.38-.07-.5-.2-.12-.14-.19-.31-.21-.5.02-.19.09-.36.22-.49.13-.14.31-.21.53-.21h6.24c.25,0,.44.07.56.2.13.13.19.3.19.5s-.06.37-.18.5c-.12.13-.29.2-.5.2h-2.42v10.1c0,.23-.08.42-.24.56-.16.14-.34.21-.55.21s-.38-.07-.53-.21c-.15-.14-.23-.33-.23-.56v-10.1Z"/>
      <path class="cls-6" d="m56.35,205.26c0-.23.07-.42.22-.56.15-.14.32-.21.53-.21s.39.07.54.21c.15.14.23.32.23.56v7.3c0,.64.15,1.18.43,1.64.29.45.69.79,1.21,1.02.52.23,1.1.35,1.75.35.65-.02,1.21-.16,1.7-.41.48-.26.85-.61,1.11-1.06.26-.45.39-.96.39-1.54v-7.3c0-.23.07-.42.21-.56.14-.14.31-.21.51-.21.22,0,.41.07.56.21.15.14.23.32.23.56v6.81c0,.98-.17,1.83-.52,2.54-.34.72-.87,1.28-1.57,1.66-.71.39-1.59.59-2.65.59-.82,0-1.54-.11-2.16-.34-.62-.23-1.13-.55-1.52-.97-.4-.42-.7-.92-.9-1.5-.2-.58-.29-1.23-.29-1.95v-6.84Z"/>
      <path class="cls-6" d="m71.97,206h-2.39c-.21,0-.38-.07-.5-.2-.13-.14-.19-.31-.21-.5.02-.19.09-.36.22-.49.13-.14.31-.21.53-.21h6.24c.25,0,.44.07.57.2.13.13.19.3.19.5s-.06.37-.18.5c-.12.13-.29.2-.5.2h-2.42v10.1c0,.23-.08.42-.24.56-.16.14-.34.21-.55.21s-.38-.07-.52-.21c-.15-.14-.22-.33-.22-.56v-10.1Z"/>
      <path class="cls-6" d="m80.38,210.67c0,.75.12,1.49.35,2.23.23.74.63,1.37,1.2,1.89.57.52,1.33.77,2.28.77.53,0,1.02-.1,1.48-.3.46-.2.86-.51,1.21-.92.35-.41.63-.92.83-1.53.2-.61.3-1.32.31-2.14,0-.8-.1-1.51-.3-2.13-.19-.62-.47-1.13-.82-1.54-.34-.41-.75-.71-1.21-.91-.47-.2-.97-.3-1.5-.3-.71,0-1.36.18-1.94.56-.58.38-1.04.94-1.38,1.68-.34.74-.51,1.62-.51,2.64m-1.64.03c0-1.09.22-2.11.65-3.07.43-.95,1.07-1.71,1.9-2.28.83-.57,1.81-.86,2.93-.86.86,0,1.62.17,2.3.49.68.33,1.25.78,1.71,1.35.46.58.81,1.23,1.06,1.98.24.74.37,1.53.39,2.38,0,1.11-.22,2.13-.66,3.07-.44.94-1.07,1.69-1.9,2.25-.83.56-1.8.83-2.9.83-1.02,0-1.95-.26-2.78-.77-.84-.52-1.5-1.24-1.97-2.18-.48-.94-.72-2.01-.72-3.21"/>
      <path class="cls-6" d="m98.81,205.9v5.03h2.18c.78,0,1.41-.24,1.91-.73.49-.48.74-1.09.74-1.83s-.24-1.38-.73-1.82c-.49-.44-1.1-.66-1.84-.66h-2.25Zm-1.52-.5c0-.29.08-.5.24-.62.16-.12.33-.18.51-.18h3.09c.54,0,1.06.08,1.54.25.48.16.91.41,1.28.73.37.32.67.72.89,1.2.22.48.33,1.02.34,1.64,0,.52-.1,1.01-.29,1.47-.2.46-.47.87-.81,1.22-.35.35-.76.63-1.23.83-.47.2-.97.3-1.49.3h-2.54v3.91c0,.22-.08.4-.23.54-.15.13-.33.2-.54.2s-.38-.07-.53-.21c-.15-.14-.22-.33-.22-.56v-10.7Z"/>
      <path class="cls-6" d="m109.42,210.67c0,.75.12,1.49.35,2.23.23.74.63,1.37,1.2,1.89.57.52,1.33.77,2.28.77.53,0,1.02-.1,1.48-.3.46-.2.86-.51,1.21-.92.35-.41.63-.92.82-1.53.2-.61.31-1.32.31-2.14,0-.8-.1-1.51-.29-2.13-.2-.62-.47-1.13-.82-1.54-.34-.41-.75-.71-1.21-.91-.47-.2-.96-.3-1.5-.3-.71,0-1.36.18-1.94.56-.58.38-1.04.94-1.38,1.68-.34.74-.51,1.62-.51,2.64m-1.64.03c0-1.09.22-2.11.65-3.07.43-.95,1.06-1.71,1.9-2.28.83-.57,1.81-.86,2.93-.86.86,0,1.62.17,2.3.49.68.33,1.25.78,1.71,1.35.46.58.81,1.23,1.05,1.98.24.74.37,1.53.39,2.38,0,1.11-.22,2.13-.66,3.07-.44.94-1.07,1.69-1.9,2.25-.83.56-1.8.83-2.9.83-1.02,0-1.95-.26-2.78-.77-.84-.52-1.49-1.24-1.97-2.18-.48-.94-.72-2.01-.72-3.21"/>
      <path class="cls-6" d="m122.12,205.4c0-.29.08-.5.24-.62.16-.12.33-.18.51-.18h2.98c.58,0,1.16.13,1.74.4.57.27,1.05.68,1.42,1.23.38.55.56,1.22.56,2-.05.59-.17,1.09-.37,1.49-.2.41-.47.73-.82.97-.34.24-.75.41-1.22.52-.47.11-1.02.16-1.64.16l3.98,4.27c.21.19.32.41.32.66,0,.15-.07.28-.21.38-.14.1-.31.15-.51.15-.3,0-.54-.1-.71-.3l-4.76-5.1v4.71c0,.24-.08.42-.22.54-.15.13-.33.19-.54.19s-.38-.07-.53-.2c-.15-.13-.22-.32-.22-.57v-10.7Zm1.52.5v4.33h2.17c.59,0,1.04-.1,1.37-.29.32-.19.55-.45.66-.76.12-.32.19-.7.2-1.15,0-.43-.1-.8-.31-1.13-.21-.33-.49-.57-.84-.74-.35-.17-.74-.26-1.16-.26h-2.1Z"/>
      <path class="cls-6" d="m135.19,206h-2.4c-.21,0-.38-.07-.5-.2-.13-.14-.2-.31-.21-.5.02-.19.09-.36.22-.49.13-.14.31-.21.53-.21h6.24c.25,0,.44.07.57.2.13.13.19.3.19.5s-.06.37-.18.5c-.12.13-.29.2-.51.2h-2.42v10.1c0,.23-.08.42-.24.56-.16.14-.34.21-.55.21s-.38-.07-.53-.21c-.15-.14-.22-.33-.22-.56v-10.1Z"/>
      <path class="cls-6" d="m142.45,205.26c0-.23.07-.42.22-.56.15-.14.32-.21.53-.21s.39.07.54.21c.15.14.23.32.23.56v7.3c0,.64.14,1.18.43,1.64.29.45.69.79,1.21,1.02.52.23,1.1.35,1.75.35.65-.02,1.21-.16,1.7-.41.48-.26.85-.61,1.11-1.06.26-.45.39-.96.39-1.54v-7.3c0-.23.07-.42.21-.56.14-.14.31-.21.51-.21.22,0,.41.07.55.21.15.14.23.32.23.56v6.81c0,.98-.17,1.83-.52,2.54-.34.72-.87,1.28-1.58,1.66-.71.39-1.59.59-2.65.59-.82,0-1.54-.11-2.16-.34-.61-.23-1.13-.55-1.53-.97-.4-.42-.7-.92-.9-1.5-.2-.58-.29-1.23-.29-1.95v-6.84Z"/>
      <path class="cls-6" d="m165.27,206c.12.11.18.28.18.49,0,.18-.07.33-.22.46-.14.13-.32.2-.54.21-.22-.01-.42-.09-.6-.22-.47-.36-.92-.64-1.35-.84-.43-.2-.98-.3-1.63-.3-.72,0-1.33.15-1.84.44-.51.3-.92.68-1.23,1.17-.31.48-.54,1-.68,1.54-.14.55-.22,1.09-.23,1.63,0,.69.11,1.4.33,2.15.22.75.61,1.39,1.16,1.94.56.55,1.3.85,2.24.9.67,0,1.3-.14,1.9-.41.59-.28,1.06-.7,1.43-1.28.36-.58.54-1.29.54-2.14v-.53h-2.22c-.43,0-.67-.22-.71-.67.04-.49.25-.73.64-.73h2.79c.68,0,1.02.38,1.02,1.13v.28c0,.82-.12,1.65-.35,2.48-.24.83-.74,1.57-1.52,2.22-.78.65-1.92.97-3.41.97-.96,0-1.79-.19-2.49-.57-.7-.38-1.27-.88-1.71-1.49-.43-.61-.75-1.26-.96-1.96-.2-.7-.31-1.36-.32-1.99,0-.86.12-1.67.35-2.44.23-.77.58-1.44,1.04-2.01.46-.58,1.04-1.04,1.73-1.37.7-.33,1.49-.51,2.38-.54.91,0,1.75.14,2.52.41.77.27,1.35.63,1.75,1.1"/>
      <path class="cls-6" d="m169.56,205.26c0-.23.07-.42.22-.56.15-.14.32-.21.53-.21s.39.07.54.21c.15.14.22.32.22.56v7.3c0,.64.15,1.18.44,1.64.29.45.69.79,1.21,1.02.51.23,1.1.35,1.75.35.65-.02,1.21-.16,1.69-.41.48-.26.85-.61,1.11-1.06.26-.45.39-.96.39-1.54v-7.3c0-.23.07-.42.21-.56.14-.14.31-.21.51-.21.22,0,.41.07.56.21.15.14.23.32.23.56v6.81c0,.98-.17,1.83-.52,2.54-.35.72-.87,1.28-1.58,1.66-.71.39-1.59.59-2.64.59-.82,0-1.54-.11-2.16-.34-.61-.23-1.13-.55-1.53-.97-.4-.42-.7-.92-.9-1.5-.2-.58-.29-1.23-.29-1.95v-6.84Z"/>
      <path class="cls-6" d="m186,201.48l2.28.96c.15.05.26.13.34.26.08.13.12.26.12.4,0,.16-.06.3-.17.42-.11.12-.27.18-.48.2-.16-.04-.3-.07-.42-.11l-1.66-.66-1.64.63c-.11.04-.27.09-.51.14-.18,0-.33-.06-.43-.18-.1-.12-.16-.27-.16-.43,0-.34.14-.56.42-.66l2.32-.96Zm-2.9,3.96c0-.26.06-.46.2-.61.13-.15.28-.22.45-.22h4.7c.2,0,.36.07.48.2.12.14.17.3.17.5s-.06.37-.18.5c-.12.13-.29.2-.51.2h-3.79v4h3.46c.21,0,.38.07.5.2.12.13.18.3.18.5s-.06.36-.19.5c-.13.13-.3.2-.53.2h-3.43v3.95h3.83c.21,0,.36.07.48.21.12.14.17.31.17.52,0,.18-.06.34-.19.47-.13.13-.32.2-.56.2h-4.49c-.32,0-.52-.09-.61-.28-.1-.18-.14-.36-.14-.53v-10.52Z"/>
      <path class="cls-6" d="m198.4,205.13c.34.22.51.49.51.8,0,.18-.07.33-.2.45-.14.13-.31.2-.51.22-.23-.05-.51-.16-.87-.33-.35-.17-.63-.29-.83-.36-.2-.08-.44-.11-.71-.11-.56,0-1.02.16-1.37.48-.35.32-.57.75-.64,1.29.04.7.53,1.24,1.47,1.64.19.08.53.2,1.02.36.49.16.91.32,1.26.46.35.15.68.32,1,.54.32.22.57.47.76.76.31.53.47,1.1.47,1.72s-.16,1.25-.48,1.83c-.32.58-.8,1.06-1.44,1.43-.64.37-1.4.55-2.29.55-.64,0-1.25-.08-1.83-.25-.58-.16-1.02-.36-1.31-.59-.23-.16-.35-.38-.37-.66,0-.21.06-.38.19-.52.13-.14.29-.21.5-.21.11,0,.25.05.44.14.81.53,1.67.8,2.59.8.42,0,.81-.11,1.17-.33.36-.22.64-.52.85-.88.21-.36.31-.75.31-1.16s-.12-.79-.36-1.08c-.24-.29-.55-.53-.92-.71-.37-.18-.85-.37-1.43-.56-.58-.19-.94-.32-1.08-.38-.45-.21-.82-.43-1.12-.66-.3-.22-.53-.51-.71-.85-.18-.34-.27-.76-.28-1.26,0-.61.18-1.17.54-1.66.36-.49.83-.87,1.41-1.14.58-.27,1.17-.4,1.78-.4,1.01,0,1.85.21,2.5.63"/>
      <path class="cls-6" d="m19.93,259.24c0-.25.06-.46.19-.61.13-.15.28-.22.45-.22h4.7c.2,0,.36.07.47.2.12.14.18.3.18.5s-.06.37-.18.5c-.12.13-.28.2-.5.2h-3.79v4h3.46c.21,0,.38.07.5.2.12.13.19.3.19.5s-.06.36-.19.5c-.13.14-.3.2-.53.2h-3.43v3.95h3.83c.21,0,.36.07.48.21.11.14.17.32.17.53,0,.18-.06.34-.19.47-.13.13-.31.2-.56.2h-4.49c-.32,0-.52-.09-.61-.27-.09-.18-.14-.36-.14-.53v-10.52Z"/>
      <path class="cls-6" d="m37.88,232.15c0-.53.27-.8.8-.8h3.15c1.12,0,2.09.27,2.91.81.82.54,1.45,1.27,1.88,2.2.43.92.64,1.93.64,3.03-.01,1.19-.23,2.25-.63,3.18-.41.92-1.01,1.65-1.81,2.17-.79.52-1.74.78-2.86.78h-3.29c-.27,0-.48-.08-.6-.23-.13-.15-.19-.3-.19-.44v-10.7Zm1.52.5v9.57h2.4c.36,0,.75-.06,1.17-.19.42-.13.83-.37,1.24-.73.41-.35.75-.86,1.02-1.52.26-.66.4-1.49.4-2.49,0-.73-.1-1.37-.29-1.95-.19-.57-.46-1.06-.82-1.46-.35-.4-.78-.7-1.28-.92-.5-.21-1.05-.32-1.66-.32h-2.19Z"/>
      <path class="cls-6" d="m51.89,237.42c0,.75.12,1.49.35,2.23.23.74.63,1.37,1.2,1.88.57.52,1.33.78,2.28.78.53,0,1.02-.1,1.48-.31.46-.2.86-.51,1.21-.92.35-.41.63-.92.82-1.54.2-.61.3-1.32.31-2.13,0-.8-.1-1.51-.29-2.13-.2-.62-.47-1.13-.82-1.53-.35-.41-.75-.71-1.21-.91-.47-.2-.96-.31-1.5-.31-.71,0-1.36.18-1.95.57-.58.38-1.04.94-1.38,1.67-.34.74-.51,1.62-.51,2.64m-1.64.03c0-1.09.22-2.11.65-3.07.43-.95,1.06-1.72,1.9-2.29.83-.57,1.81-.86,2.93-.86.86,0,1.62.17,2.3.5.68.32,1.25.78,1.71,1.35.46.58.81,1.23,1.06,1.98.24.74.37,1.53.39,2.38,0,1.11-.22,2.13-.65,3.07-.44.94-1.07,1.69-1.9,2.25-.83.56-1.8.84-2.9.84-1.02,0-1.95-.26-2.78-.77-.84-.52-1.5-1.25-1.97-2.18-.48-.94-.72-2.01-.72-3.21"/>
      <path class="cls-8" d="m138.3,241.94c-.09,0-.13,0-.2.03-.06.02-.12.04-.15.07"/>
      <path class="cls-8" d="m137.43,240.13c-.13.02-.22.09-.27.13-.09.07-.2.1-.28.14"/>
      <path class="cls-6" d="m68.44,232.99c0-.41.12-.75.37-1.02.24-.27.59-.41,1.03-.41h3.33c1.28,0,2.3.25,3.09.75.78.5,1.4,1.1,1.86,1.81.63,1,.94,2.18.94,3.55,0,.78-.14,1.54-.41,2.27-.27.73-.66,1.38-1.17,1.95-.51.57-1.11,1.02-1.81,1.35-.7.33-1.48.5-2.31.5h-3.44c-.43,0-.79-.13-1.06-.38-.27-.25-.41-.59-.41-1.02v-9.33Zm2.84,1.12v7.05h1.61c.94,0,1.71-.32,2.33-.98.25-.26.44-.63.58-1.11.14-.48.21-.99.21-1.52,0-1.06-.23-1.86-.68-2.41-.59-.7-1.38-1.04-2.35-1.04h-1.68Z"/>
      <path class="cls-6" d="m82.23,236.44v-3.5c0-.46.14-.81.43-1.05.28-.23.59-.35.94-.35h4.48c.4,0,.73.11.97.34.24.22.36.54.36.95,0,.36-.11.66-.32.9-.21.24-.55.36-1.01.36h-3v2.2h2.8c.42,0,.75.12.99.37.24.25.36.55.36.91s-.12.65-.36.91c-.24.26-.57.38-.98.38h-2.8v2.27h3.01c.49,0,.85.12,1.08.36.23.24.35.53.35.87,0,.39-.12.71-.35.96-.23.25-.59.37-1.08.37h-4.37c-.47,0-.84-.14-1.09-.4-.25-.26-.38-.59-.38-.96v-5.9Z"/>
      <path class="cls-6" d="m92.07,234.98c.05-1.66.89-2.79,2.52-3.4.65-.2,1.33-.31,2.04-.31.46,0,.95.06,1.48.17.53.11.98.31,1.36.59.39.28.58.65.58,1.11,0,.37-.12.67-.36.89-.24.22-.56.35-.95.37-.22-.03-.58-.12-1.09-.26-.51-.14-.91-.21-1.21-.21-.34,0-.64.07-.9.22-.26.15-.41.37-.45.67,0,.3.08.51.26.63.18.12.52.27,1.06.45.5.17,1,.33,1.5.49.49.16.95.37,1.38.63.43.26.79.62,1.08,1.09.29.47.44,1.07.44,1.79,0,1.06-.3,1.93-.89,2.61-.91.98-2.18,1.47-3.79,1.47-1.33,0-2.46-.25-3.41-.77-.55-.29-.85-.71-.89-1.24.05-.39.19-.73.42-1.02.23-.3.55-.44.95-.44.27.02.56.08.89.19.32.11.65.23.97.34.33.11.63.17.9.19.12,0,.21,0,.28.02.39,0,.74-.1,1.05-.29.3-.18.46-.45.46-.8s-.14-.63-.43-.83c-.29-.2-.66-.36-1.11-.5-.07-.02-.35-.11-.83-.25-.48-.14-.91-.29-1.28-.45-.38-.16-.71-.34-1-.57-.36-.28-.61-.63-.77-1.03-.16-.4-.24-.92-.24-1.54"/>
      <path class="cls-6" d="m106.78,234.03v3.32h1.64c.47,0,.88-.15,1.23-.45.35-.3.52-.7.52-1.18,0-.51-.16-.93-.48-1.23-.32-.31-.77-.46-1.37-.46h-1.54Zm-2.83-1.11c0-.35.12-.66.37-.94.25-.28.62-.42,1.09-.42h3.25c.96,0,1.77.19,2.44.56.67.38,1.18.88,1.51,1.51.34.64.51,1.34.51,2.11-.02.77-.19,1.47-.51,2.08-.32.62-.78,1.1-1.39,1.45-.6.35-1.31.53-2.13.53h-2.33v2.54c0,.49-.14.85-.41,1.1-.28.25-.63.38-1.06.38-.91-.05-1.36-.55-1.36-1.5v-9.4Z"/>
      <path class="cls-6" d="m121.6,233.85c-.7,0-1.27.18-1.73.53-.46.35-.8.81-1.02,1.39-.22.58-.33,1.21-.33,1.89,0,1.05.26,1.94.77,2.67.52.73,1.29,1.09,2.31,1.09.69,0,1.27-.17,1.73-.52.46-.35.8-.81,1.02-1.38.22-.57.33-1.19.33-1.86s-.11-1.31-.33-1.89c-.22-.58-.56-1.04-1.02-1.39-.46-.35-1.04-.53-1.73-.53m0-2.57c.92,0,1.75.15,2.51.45.75.3,1.4.73,1.94,1.29.54.56.95,1.23,1.24,2.02.29.79.44,1.66.44,2.63s-.15,1.81-.44,2.6c-.29.78-.7,1.45-1.24,2.01-.54.56-1.19.99-1.94,1.28-.75.3-1.58.44-2.5.44s-1.74-.15-2.5-.44c-.75-.3-1.41-.73-1.95-1.29-.54-.56-.96-1.23-1.24-2.01-.29-.78-.43-1.65-.43-2.58s.14-1.82.43-2.62c.29-.79.7-1.47,1.24-2.02.54-.56,1.19-1,1.94-1.3.75-.3,1.59-.45,2.51-.45"/>
      <path class="cls-6" d="m133.38,234.11v2.71h1.78c.41,0,.77-.12,1.07-.37.31-.24.46-.56.46-.96s-.14-.71-.42-.98c-.28-.27-.61-.4-1.01-.4h-1.89Zm-2.83-1.19c0-.35.13-.66.37-.94.25-.28.61-.42,1.1-.42h3.32c.89,0,1.64.16,2.28.49.63.33,1.1.79,1.43,1.39.32.6.49,1.29.49,2.09-.03.7-.21,1.28-.54,1.75-.33.47-.71.82-1.15,1.05-.43.23-.84.38-1.22.43l2.56,2.66c.32.32.49.69.49,1.11,0,.39-.16.71-.47.95-.31.23-.7.35-1.18.35-.42-.05-.79-.26-1.1-.64l-3.51-4.33h-.04v3.49c0,.49-.13.85-.41,1.1-.28.25-.63.38-1.06.38-.91-.05-1.36-.55-1.36-1.5v-9.4Z"/>
      <path class="cls-6" d="m144.34,242.35v-8.24h-1.55c-.47,0-.83-.11-1.09-.34-.25-.22-.38-.53-.38-.92,0-.86.49-1.3,1.47-1.3h6c.98,0,1.47.43,1.47,1.3,0,.39-.13.7-.38.92-.25.22-.62.34-1.09.34h-1.59v8.24c0,.47-.13.84-.39,1.09-.26.25-.6.38-1.03.38s-.76-.13-1.03-.38c-.27-.26-.41-.62-.41-1.09"/>
      <path class="cls-6" d="m158.71,233.85c-.7,0-1.27.18-1.73.53-.46.35-.8.81-1.02,1.39-.22.58-.33,1.21-.33,1.89,0,1.05.26,1.94.77,2.67.51.73,1.29,1.09,2.3,1.09.7,0,1.27-.17,1.73-.52.47-.35.8-.81,1.02-1.38.22-.57.33-1.19.33-1.86s-.11-1.31-.33-1.89c-.22-.58-.55-1.04-1.02-1.39-.46-.35-1.03-.53-1.73-.53m0-2.57c.92,0,1.75.15,2.51.45.75.3,1.4.73,1.94,1.29.54.56.95,1.23,1.24,2.02.29.79.44,1.66.44,2.63s-.15,1.81-.44,2.6c-.29.78-.7,1.45-1.24,2.01-.54.56-1.19.99-1.94,1.28-.75.3-1.58.44-2.5.44s-1.74-.15-2.5-.44c-.75-.3-1.41-.73-1.95-1.29-.54-.56-.96-1.23-1.24-2.01-.29-.78-.43-1.65-.43-2.58s.14-1.82.43-2.62c.29-.79.7-1.47,1.24-2.02.54-.56,1.19-1,1.94-1.3.76-.3,1.59-.45,2.51-.45"/>
      <path class="cls-6" d="m142.16,271.58l1.14-2.17c.18-.31.42-.48.71-.48.19,0,.35.06.49.18.13.12.2.28.2.49,0,.17-.04.34-.11.5l-1.12,2.13c-.18.33-.44.5-.79.5-.18,0-.34-.06-.47-.18-.13-.12-.2-.28-.21-.48.02-.21.07-.37.16-.49"/>
      <path class="cls-6" d="m152.98,259.1c0-.53.26-.8.78-.8.21,0,.38.06.52.2.14.13.21.33.21.6v10.74c0,.32-.08.53-.23.65-.16.12-.32.18-.5.18-.52,0-.78-.27-.78-.81v-10.77Z"/>
      <path class="cls-6" d="m159.57,268.93c.24,0,.45.09.63.26.18.17.27.38.27.61s-.09.44-.27.61c-.18.17-.39.26-.63.26s-.44-.09-.62-.27c-.18-.17-.27-.38-.27-.61s.09-.43.27-.61c.17-.17.38-.26.63-.26"/>
      <path class="cls-6" d="m170.22,259.71v5.03h2.19c.78,0,1.41-.24,1.91-.73.49-.48.74-1.09.74-1.83s-.24-1.37-.73-1.82c-.49-.44-1.1-.66-1.84-.66h-2.26Zm-1.52-.5c0-.29.08-.5.24-.62.16-.12.33-.18.51-.18h3.09c.54,0,1.06.08,1.54.25.48.17.91.41,1.28.73.38.32.67.72.89,1.19.21.48.33,1.03.33,1.64,0,.52-.09,1.01-.29,1.47-.19.47-.46.87-.81,1.22-.35.35-.76.63-1.23.83-.47.2-.97.3-1.5.3h-2.54v3.91c0,.23-.07.4-.23.54-.15.14-.33.2-.54.2s-.38-.07-.53-.2c-.15-.14-.22-.33-.22-.56v-10.7Z"/>
      <path class="cls-6" d="m180.84,268.93c.24,0,.45.09.63.26.18.17.27.38.27.61s-.09.44-.27.61c-.18.17-.39.26-.63.26s-.44-.09-.62-.27c-.18-.17-.27-.38-.27-.61s.09-.43.26-.61c.18-.17.39-.26.63-.26"/>
      <path class="cls-6" d="m36.87,266.48v-6.77c0-.28.06-.54.18-.75.12-.21.29-.37.5-.48.21-.11.47-.17.75-.17.43,0,.77.13,1.02.38.25.25.38.59.38,1.02v7.24c0,.95-.14,1.68-.42,2.2-.62,1.14-1.73,1.71-3.34,1.71-.76,0-1.47-.16-2.14-.49-.67-.33-1.01-.84-1.01-1.53,0-.23.05-.45.16-.64.1-.2.25-.36.45-.47.19-.12.41-.18.65-.18.16,0,.31.03.45.08.14.05.3.13.48.24.18.1.34.18.47.24.13.06.27.09.42.1.13-.05.24-.07.31-.07.46-.07.68-.62.68-1.65"/>
      <path class="cls-6" d="m45.57,259.77v5.91c0,.78.25,1.39.75,1.83.49.44,1.1.66,1.82.66s1.36-.22,1.85-.66c.49-.44.74-1.05.74-1.84v-5.91c0-.46.13-.82.38-1.08.26-.26.59-.38,1.02-.38.43.02.77.15,1.04.4.27.25.4.61.4,1.06v5.9c0,1.06-.23,1.97-.69,2.75-.46.78-1.1,1.38-1.91,1.8-.82.42-1.76.62-2.81.62-1.06-.01-2-.23-2.82-.64-.82-.41-1.45-1.01-1.91-1.78-.45-.78-.68-1.69-.68-2.75v-5.9c0-.47.13-.83.39-1.08.26-.25.61-.38,1.04-.38s.77.13,1.02.38c.25.26.38.62.38,1.08"/>
      <path class="cls-6" d="m56.16,260.5c-.05-.14-.11-.29-.16-.45-.05-.15-.08-.3-.08-.43,0-.37.15-.69.44-.95.29-.25.64-.38,1.03-.38.35,0,.66.11.91.34.25.23.44.52.56.87l2.43,6.29,2.43-6.24c.29-.82.81-1.23,1.54-1.23.25,0,.48.05.69.17.22.11.39.27.52.47.13.2.19.42.19.65,0,.13-.08.45-.24.94l-3.65,8.87c-.18.43-.38.74-.59.94-.21.2-.5.29-.87.29-.39,0-.69-.1-.91-.29-.21-.19-.43-.52-.63-.97l-3.58-8.91Z"/>
      <path class="cls-6" d="m69.41,263.3v-3.5c0-.46.14-.81.42-1.04.28-.23.6-.35.94-.35h4.48c.4,0,.73.11.97.34.24.23.36.55.36.95,0,.36-.11.66-.32.9-.21.24-.55.36-1.01.36h-3v2.2h2.8c.42,0,.75.12.99.37.23.25.35.55.35.91s-.12.65-.37.91c-.24.26-.57.38-.98.38h-2.8v2.27h3c.49,0,.85.12,1.09.36.23.24.35.53.35.87,0,.39-.12.71-.35.95-.23.25-.59.37-1.08.37h-4.37c-.47,0-.84-.13-1.09-.4-.25-.26-.38-.59-.38-.96v-5.9Z"/>
      <path class="cls-6" d="m79.62,259.77c0-.41.12-.75.37-1.02.25-.28.58-.41.99-.41.3,0,.55.07.75.2.21.13.44.33.72.6l5.26,6.4h.04v-5.8c0-.39.12-.72.34-1.01.23-.28.57-.43,1.02-.43.48,0,.84.14,1.09.4.25.26.37.61.37,1.03v9.4c0,.45-.13.81-.39,1.11-.26.28-.61.43-1.05.43-.32,0-.58-.08-.79-.23-.21-.15-.43-.37-.65-.64l-5.26-6.4v5.87c0,.44-.14.79-.41,1.03-.28.25-.65.37-1.12.37-.4-.02-.72-.16-.95-.43-.23-.27-.34-.62-.34-1.04v-9.44Z"/>
      <path class="cls-6" d="m95.66,269.21v-8.24h-1.55c-.47,0-.83-.11-1.09-.34-.25-.23-.38-.53-.38-.92,0-.86.49-1.29,1.47-1.29h6c.98,0,1.47.43,1.47,1.29,0,.39-.12.7-.38.92-.26.23-.62.34-1.09.34h-1.59v8.24c0,.47-.13.84-.39,1.09-.26.25-.6.38-1.03.38s-.76-.13-1.03-.38c-.27-.26-.41-.62-.41-1.09"/>
      <path class="cls-6" d="m106.96,259.77v5.91c0,.78.25,1.39.75,1.83.49.44,1.1.66,1.82.66s1.36-.22,1.85-.66c.49-.44.74-1.05.74-1.84v-5.91c0-.46.13-.82.39-1.08.26-.26.59-.38,1.02-.38.43.02.77.15,1.04.4.27.25.4.61.4,1.06v5.9c0,1.06-.23,1.97-.69,2.75-.46.78-1.1,1.38-1.91,1.8-.82.42-1.76.62-2.81.62-1.07-.01-2-.23-2.82-.64-.82-.41-1.46-1.01-1.91-1.78-.45-.78-.68-1.69-.68-2.75v-5.9c0-.47.13-.83.39-1.08.26-.25.61-.38,1.04-.38s.77.13,1.02.38c.25.26.38.62.38,1.08"/>
      <path class="cls-6" d="m118.34,259.84c0-.41.12-.75.37-1.03.24-.27.59-.41,1.03-.41h3.33c1.28,0,2.31.25,3.09.75.78.5,1.4,1.1,1.86,1.81.63,1,.94,2.18.94,3.55,0,.78-.14,1.54-.41,2.27-.27.73-.66,1.38-1.17,1.95-.51.57-1.11,1.02-1.81,1.34-.7.33-1.47.49-2.31.49h-3.44c-.43,0-.79-.12-1.06-.38-.27-.26-.41-.6-.41-1.02v-9.33Zm2.84,1.12v7.05h1.61c.94,0,1.71-.33,2.32-.98.25-.26.44-.63.58-1.11.13-.48.2-.98.2-1.52,0-1.06-.22-1.86-.68-2.4-.59-.7-1.38-1.04-2.35-1.04h-1.68Z"/>
      <path class="cls-6" d="m132.13,263.3v-3.5c0-.46.14-.81.42-1.04.28-.23.6-.35.94-.35h4.48c.4,0,.72.11.97.34.24.23.36.55.36.95,0,.36-.11.66-.32.9-.21.24-.55.36-1.01.36h-3.01v2.2h2.8c.42,0,.75.12.99.37.24.25.36.55.36.91s-.12.65-.36.91c-.25.26-.57.38-.98.38h-2.8v2.27h3.01c.49,0,.85.12,1.08.36.23.24.35.53.35.87,0,.39-.12.71-.35.95-.23.25-.59.37-1.08.37h-4.37c-.47,0-.84-.13-1.09-.4-.25-.26-.38-.59-.38-.96v-5.9Z"/>
      <rect class="cls-11" y="222.3" width="202.15" height="2.04"/>
      <rect class="cls-11" y="248.44" width="202.15" height="2.04"/>
      <g class="cls-18">
        <rect class="cls-2" x="13.51" y="22.2" width="13.69" height="70.59"/>
      </g>
      <path class="cls-10" d="m155.35,173.87c-14.6,9.22-31.63,14.93-49.92,15.93-1.91.1-3.84.16-5.78.16-2.19,0-4.48-2.6-6.63-2.73-1.45-3.44-2.51-6.68-2.88-16.73.28-.58.46-1.01.78-1.58,16.26-11.52,6.11-2.44,8.99-13.68l.13-.27c.96-1.33,1.22-1.61,2.67-1.07,1.15-1.07,1.61,1.49,3.48,1.55l.36-.15c.39-.35,1.04-.4,1.5-.66.47-.27.87-.45,1.43-.67,1-.39,1.95-.73,2.96-1.12.47-.18,1.03-.31,1.5-.54.48-.23.65-.69,1.12-.92.68-.34,1.45-.49,2.24-.53.37-.01.73,0,1.1.03,1.22.1,2.2.07,3.29-.47l.09-.15c.16-.38.44-.56.63-.78.26-.3.42-.59.81-.74.16-.07.31-.02.45-.07.15-.05.21-.23.35-.29.1-.04.35-.07.45,0,.16.11.08.28.18.42.03-.06.07-.1.11-.13.91-.59.74.19.63.97-.04.24-.08.17-.08.45,0,.21-.11.52-.24.75-.13.25-.11.42-.27.66.3-.36.59-.82,1.06-.87.07-.08.73-.06.83.05.17.19-.23.4-.32.56-.16.28-.28.56-.44.84-.16.28-.36.39-.55.62-.41.5-.56.95-1.1,1.37-.52.4-1.1.62-1.67.97-1.82,1.09-1.67,1.11-3.91.8-1.21-.17-3.46-.12-4.62.59-2.13,1.29-7.78,7.04-6.82,8.2.24.29,6.42,1.89,9.17.95.87-.3.11-2.29.11-2.8-.01-1.87-.22-2.84,2.17-4.6.86-.63,1.29-.9,2.36-1.12,2.68-.56,6.49.12,7.78,5.09.22.27.45.59.67.9.39-.81.81-1.65,1.3-2.57.43-.8.97-1.57,1.3-2.24-.21-.82-.43-1.79-.61-2.76-.18-1.01-.32-2.04-.65-2.93-.24-.67-.53-1.38-.85-2.07-.18-.4-.32-.84-.61-1.13-.3-.29-.74-.31-1.16-.49-.52-.21-.89-.5-1.23-.63-.25-.09-.5-.02-.75-.13-.1-.04-.89-.34-.88-.35-.43-.35-1.01-.64-1.13-1.16-.14-.58-1.21-.71-1.76-.99-1.09-.55-1.74-1.51-2.69-1.44-1.57.11-2.4-.33-3.4-1.51-.29-.35-.7-.88-1.22-1.36-.56-.52-1.24-.99-1.98-1.48-.63-.42-1.23-.96-1.83-1.42-.91-.71-1.81-1.35-2.77-1.98-1.28-.83-2.58-1.94-3.79-2.72-.77-.51-1.67-1.29-2.55-1.91-.56-.39-1.08-.62-1.68-.98-.24-.14-.48-.35-.72-.48-.5-.26-1.02-.41-1.52-.61-.34-.13-.68-.26-1-.38-.6-.21-1.33-.52-2.2-.55-.79-.03-1.64.11-2.35.17-.81.07-1.23.18-1.4.09-.46-.22-.26-.55-.1-.82.04-.08.36-.22.76-.31.23-.05.47-.02.74-.09.28-.07.59-.21.86-.28.63-.15,1.15-.25,1.17-.44-.33-.05-.77-.04-1.31-.13-.4-.07-.85-.24-1.29-.35-.46-.13-.89-.2-1.15-.37-.24-.15-.22-.31-.2-.49.03-.23.37-.44.81-.43.33.01.8.24,1.2.33.42.09.85.01,1.21.06.53.07.88.23.93.09.06-.21-.61-.44-1.34-.81-.37-.19-.76-.53-1.1-.69-.42-.2-.77-.28-.86-.39-.29-.35-.19-.79.35-.92.13-.03.5-.07.85.11.21.1.46.3.72.44.31.16.65.25.94.43.39.23.71.53.95.65.2.1.36.04.43-.07.13-.2-.22-.39-.69-.74-.3-.23-.64-.61-.97-.82-.3-.2-.59-.23-.77-.42-.16-.16-.08-.31-.05-.45.08-.3.33-.35.68-.33.51.04,1.21.31,1.81.88.27.26.73.65,1.17.92.31.19.57.28.9.42.47.19.88.23,1.25.24.38.02.73,0,.85-.2.21-.42-.12-1.04,0-1.56.11-.45,1.11-.87,1.49-.41.23.27-.22.71-.1,1.12.09.32.39.66.54,1.08.15.42.13.91.23,1.29.19.72.23.63.38,1.43.05.28.62.74,1.34,1.3.62.48,1.36,1.04,1.97,1.37,1.76.93,2.59,1.17,4.03,1.84.58-.1.82-.05,1.09.02.5.12.9.49,2.38,1.31.79.44,1.52.77,2.25,1.16.88.49,1.77,1.03,2.79,1.51,1.06.5,1.99.94,2.96,1.21.53.14,1.03.17,1.69.26,1.61.22,3.39.16,4.74,1.05.21.13.93.55.9,1.04-.04.51.62-.05.98-.1.27-.04.73.32,1.02.17.29-.15-.13-.48.12-.73.38-.37,1.42-.67,1.8-.67.98,0,1.73.66,2.04.84.26.15.73.07.85.45,1.45-.44,2.94-.81,3.62-1.01-.84-.7.41-.32.97-.87-.17-.04-.25-.64-.23-2.09,0-.35.31-.59.52-.45h0c-.01-.37-.11-2.25.24-3.3.12-.36-.43-.49-.5-.55-.13-.06-.22-.12-.29-.32.15.04.29.09.44.12.38.08.53.03.88-.03-.08,0-.21-.08-.28-.15.37-.04.97-.53.3-.85.37-.04.71-.12,1.08-.19-.22-.1-.51-.01-.75-.01-.26,0-.46.03-.71.05.43-.23.99-.3,1.48-.26.06,0,.13.01.16,0-.06,0-.11,0-.17-.02-.27-.06-.53-.25-.8-.29-.25-.04-.46-.09-.72-.07.35-.12.35-.08.59-.08.21,0,.46.03.66.1.15.05.29.14.56.13.15,0,.31-.05.47-.06-.2-.02-.47-.07-.61-.1.68-.01.64-.08.93-.11.23-.03.46-.19.7-.21h.04c-.14-.03-.3-.02-.45-.05-.16-.02-.33-.04-.46-.13.37.12,1.07.03,1.6-.04-.21-.05-.29-.07-.51-.35,1.08.53,2.35-.19,4.09,1.25,2.26,1.87,2.84,3.92,2.16,6.2-.06.21-.13.39-.23.52.79.14.26,1.61.16,2.18-.69,1.14-1.01.11-1.06.1-.05.24-.28.49-.36.77-.14.5-.13,1.04-.17,1.43,1.02-.1,1.76-.87,2.41-1.27.48-.29.7-.61,1.31-.48.36.07.68.68,1.07.63.32-.04.48-.57,1.13-.5.47.05.82.26,1.15.57.28.25.19.67.5.7.31.03.37-.92.56-1.12.2-.2.65.2,1.18-.21.31-.24.2-.46.64-.64.34-.14.89-.16,1.27-.25.35-.08.69-.1,1.04-.19.29-.08.52-.33.81-.42.36-.12.78.03,1.15-.06.38-.09.87-.36,1.16-.61.27-.23.71-.29,1.03-.53.38-.28.6-.71.96-1.05.39-.38.9-.69,1.2-1.05.52-.61,1.15-1.07,1.72-1.61,2.35-1.58,4.43-3.16,6.71-4.86.82-.62.83-3.15.53-3.89-.31-.75,0-.84.08-1.59.02-.21-.09-.36-.15-.57-.05-.17.03-.31-.06-.46-.16-.25-.38-.28-.45-.39-.04-.05-.05-.15-.03-.36.04-.34.99-.3,1.53.26.42.44.42,1.37.65,1.62.45.48,1.27.31,1.74-.21.34-.37.41-.91.57-1.36.13-.36.38-.66.46-.8.13-.22.24-.41.44-.5.27-.13.61-.09.72.24.03.12.06.16.04.29-.02.18-.16.37-.23.58-.06.16-.04.33-.09.49-.05.16-.19.3-.24.44-.06.14-.02.29-.02.4.02.26.12.27.34.37.17.08.2-.05.48-.33.26-.26.35-.37.76-.71.12-.1.34-.2.46-.29.32-.23.42-.37.64-.43.45-.12,1.13.11.94.54-.07.14-.36.38-.64.66-.22.21-.4.45-.64.66-.16.13-.24.26-.37.36-.19.14-.68.36-.6.52.02.04.24.09.47.02.21-.06.42-.25.73-.36.26-.1.54-.13.82-.22.24-.08.32-.18.52-.25.28-.09.65-.14.74-.12.36.1.49.57.36.86-.02.06-.14.2-.3.26-.63.27-.63.19-1.35.59-.21.1-.4.13-.58.24-.19.12-.38.3-.5.37.91-.06,1.51.19,2.3.08.28-.04.61-.08,1.01.09.28.26.31.45.12.69-.26.05.29.07-1.47.23-.41.03-.8.13-1.05.13-.17,0-.48.06-.75.14-.19.06-.32.14-.53.22l-.05.02-.98.03-1.61,1.61c-.41.23-.76.4-1.04.69-.35.39-1.64,1.87-1.9,2.25l-.03.05c-3.71,4.03-4.18,6.52-9.26,10.59-.34.64-2.27,1.72-2.93,1.89-.12.04-.08.27-.24.9-.29,1.12-.67,1.49-1.6,2.08-1.12.71-2.58,1.39-3.8.76-.2.81-.54,1.41-1.29,2.15-.33.32-.67.62-.9,1.03-.12.23-.15.47-.24.72-.22.59-.45,1.21-.59,1.76-.89,3.3-2.02,13.84-.94,13.5.32,1-1.2,3.2-1.48,4.68l.9,3.31Z"/>
      <path class="cls-1" d="m67.43,184.88c-10.18-3.3-19.67-8.11-28.21-14.19l-.4-1.99c-2.15-1.53-3.91-3.98-6.51-7.94.26-.92-.77-1-1.44-1.59-.85-.75-1.01-1.54-1.44-2.63-.22-.57-.34-1.13-.63-1.66-.32-.59-1.05-1.41-1.5-1.89-1.27-1.35-2.82-2.8-3.9-4.25.33-.69.73-1.3,1.32-2.05-.41-.69-.67-1.18-1.04-1.8-.43-.71-.72-1.39-1.12-2.13-.35-.65-.86-1.66-1.34-2.17-.51-.54-.81-.93-1.39-1.39-.49-.38-1.33-.92-1.71-1.44-.43-.58-.71-1.25-.63-1.98.03-.29.05-.31.15-.72-.15-.25-.25-.36-.51-.6-.17-.16-.38-.35-.42-.56-.06-.41.21-.91.31-1.42.07-.13.18-.26.32-.35.13-.09.36-.11.49-.16.14-.05.03-.11.26-.25.11-.07.26-.06.38-.15.12-.1.23-.31.39-.37.24-.09.38.07.53-.03.16-.09.11-.44.56-.62.26-.11.58.04.91.04.32,0,.77-.09,1.01-.08.92.02.83.63.95,1.38.1.62.53,1.35.44,1.88-.03.17-.33.73-.41.9-.1.23-.39.74-.41.99-.03.38-.04.67.03.88.09.29.29.45.44.72.12.19.22.25.39.53.49.8.86,1.36,1.47,2.07.53.64,1.03,1.51,1.64,2.13.58.59.95.96,1.74,1.65.24-.11.57-.15.78-.05.21.1.29.26.48.45.32.33.73.74.95.99,1.07,1.17,1.71,1.88,2.66,2.9.3.32.57.69.97,1.1.27.29.7.58.98.85.13.13.34.25.56.54.36.44.74.79,1.13,1.26.34.41.85,1.07,1.18,1.48.77.96,1.33,1.66,1.97,2.76.62,1.05,3.21,3.73,3.53,3.49.48-.37,1.36-.73,1.93-.99.69-.33,2.11.28,2.75.48,1.16.36,1.81.89,2.78,1.55-.27-.76-.34-1.76-.52-2.49-.36.14-.76-.02-1.04-.15-.3-.13-.55-.3-.79-.51-.4-.33-.93-1.15-1.12-1.94-.12-.51-.14-1.07.22-1.16.18-.04.3,0,.65.05-.31-.44-.5-.79-.56-1.22-.06-.44-.13-.8-.18-1.17-.03-.21,0-.4-.01-.63,0-.24-.05-.53-.03-.82.04-.62.21-1.35.57-1.97.31-.52.64-.84.99-1.33.38-.53,1.05-.99,1.6-1.33.58-.36,1.18-.38,1.83-.5.41-.07.93-.28,1.35-.2.24.05.58.04.82.12.28.08.51.17.77.25.45.15.93.32,1.35.53.3.15.55.48.81.68.27.2.66.52.84.8.28.44.55,1.08.72,1.56.24.64.4,1.53.27,2.51.28-.24.52-.27.72-.09.1.09.33.51.4,1.02.06.45-.02.97-.01,1.33.01.88-.07,1.09-.56,1.7-.29.37-.56.56-1,.63.12.54.23,1.18.32,1.65.12.61.1,1.5.16,2.13.47-1.88.45-2.5,1.07-3.57.62-1.09.57-1.63,1.65-1.76.51-.06,1.34-.32,1.88-.15.36.11.5.49.75.43.15-.04.21-.35.3-.47.11-.16.37-.47.37-.79,0-.29-.15-.46-.16-.63,0-.22.15-.43.32-.73.31-.54-.17-.57-.21-1.22-.04-.57.17-1.03.16-1.43-.01-.4-.24-.75-.2-1.32.17-1.95,1.95-3.32,2.87-4.89.67-1.14,1.04-2.43,1.38-3.64.27-.97.49-1.6.88-2.57.18-.45.26-1.26.48-1.68.07-.12.29-.01.35-.12.13-.24.28-.78.38-1.01.35-.8.69-1.61.95-2.53.57-1.95.7-3.14,1-4.76.16-.91.51-2.09.23-2.98-.12-.39-.37-.71-.64-.85-.21-.12-.34-.49-.44-.69-.24-.45-.54-.56-.8-.83-.16-.16-.19-.52-.3-.84-.16-.49-.3-.8-.23-1.03.07-.23.35-.37.55-.44.2-.07.44.06.68-.12.24-.18.05-.5.46-.66.72-.28.81.17.96.11.2-.08.59-.24.88-.26.22,0,.35.12.56.07.29-.07.5-.17.74-.16.43.02,1.37.8,1.65,1.07.7.68.3,1.02.1,1.66.25.94.36,1.57.23,2.34-.13.79-.66,1.19-.74,1.94-.12,1.04-.45,1.62-.52,2.59-.11,1.42-.23,2.06-.45,3.28-.15.86-.31,2.04-.37,2.69-.06.65-.1,1.42-.23,2.41.58.32,1.08.26,1.63.96.04.04.04.16.02.33l-1.58,3.98-2.77,7.9.1.41c-.04.19-.08.4-.14.63-.23.88-.2,1.95-.09,2.82.23,1.79,1,2.74,1.21,4.38.12.96-.71,1.95-1.25,2.92-.14.24-.91,1.43-1.09,1.66-.86,1.11-1.75,2.23-2.03,2.73-.03.06-.07.17-.12.31l-.49.49-.25,2.86-.24,5.21-1.38,10.94Z"/>
      <path class="cls-10" d="m162.75,168.73c-1.81,1.37-3.66,2.69-5.55,3.94l.34-4.43c.44-.89.91-1.77,1.52-2.63.35-.5.65-1.23,1.08-1.68.44-.47.64-.78.86-1.33.14-.36.36-.63.61-.93.27-.32.32-.92.49-1.3.18-.42.05-1.67,1.08-1.3.09-.29.3-.52.39-.82.08-.29.09-.6.14-.84.05-.26.13-.43.21-.53.24-.27.45-.42.78-.66-.06-.23-.07-.51,0-.79.11-.43.2-.79.37-1.11.35-.68.22-1.03.28-1.63.07-.73.83-.74,1.04-.17.24.63.08,1.55.09,2.32.11-.43.28-1.01.35-1.36.04-.26.02-.81.16-1,.25-.36.69-.17.82.15.08.21.08.97.07,1.22-.04.87-.14,1.58-.31,2.46-.08.38-.12.82-.18,1.21-.06.47-.06.78.05,1.25.09.41.08,1.02.56,1.17.27.08,1.05-.21,1.31-.35.8-.45,1.97-.79,2.34-.03.38.75-1.07,1.38-1.71,1.55-.21.05-.49.12-.73.23-.25.12-.48.29-.74.45-.52.32-1.03.68-1.4.99-.54.46-.97.64-1.67.76-.3.05-.44.04-.67.2-.18.13-.39.29-.49.48-.2.34-.39.61-.53.91-.3.66-.55,1.28-.81,2.17-.07.23-.12.43-.18.62l.03.83Z"/>
      <path class="cls-14" d="m159.93,170.8c-2.1,1.49-4.27,2.9-6.48,4.24l.57-6.58c-.03-.46-.05-.92-.06-1.39-.02-1.33.31-4.32.62-6.7.19-1.44.45-2.61.39-3.18-.1-1.08.28-1.9-.23-2.85-.33-.61-.83-1.83-.99-2.22-.16-.38-.4-.83-.74-1.13-.47-.42-.83-.82-1.24-1.27-.29-.31-.79-.74-1.07-1.16-.09-.14-.15-.42-.05-.6.13-.25.42-.36.78-.11.3.21.7.59.97.93.12.15.76.82,1.18,1.02.11.05.24,0,.3-.02.19-.06.38-.25.38-.45,0-.19-.17-.4-.29-.66-.23-.52-.64-1.09-.73-1.28-.24-.58-.85-1.28-.8-1.87.02-.26.14-.3.23-.38.17-.13.45-.11.66.05.31.23.48.51.55.72.19.64.65,1.47,1,2,.08.13.17.4.28.6.05.1.19.13.3.06.06-.03.19-.06.22-.15.04-.08,0-.38-.02-.52-.08-.33-.27-.88-.29-1.18-.04-.79-.09-1.17-.19-2.02-.03-.28-.11-.66.17-.87.3-.23.77-.07.97.25.19.32.18,1.3.34,1.96.08.32.12.66.15,1.05.02.37.08.66.13.93.05.27.42.37.48.1.04-.16.04-1.05.09-1.83.01-.21.1-.37.11-.55.01-.24-.05-.47-.04-.62.08-.65.22-.97.67-.89.44.08.54.55.54,1.04,0,.39.03.6.1,1.06.04.25.04.43.05.66.02.24-.02.51-.03.75,0,.44-.13.88,0,1.31.14.45.27.84.5,1.22.33.52.74,1.01,1.52.79.3-.09.41-.25.59-.37.22-.16.49-.29.86-.41.43-.15.9-.09,1.25.17.25.19.48.38.59.63.11.25.09.55.04.65-.18.3-.6.08-1.02,0-.23-.04-.44.05-.68.11-.44.11-.72.59-.9.84-.3.42-.66.64-.91.89-.21.21-.3.47-.65.7-.2.14-.48.34-.64.63-.17.28-.2.64-.23.96-.03.47-.09,1.03-.09,1.5,0,.63-.09,1.11-.11,1.78,0,.36-.03.94-.05,1.41-.02.38.06.72.06,1.11,0,.68.08,1.19.21,1.88.06.3.1.61.18.99.07.35.08.87.14,1.21.11.65.08,1.05.16,1.75.02.18.04.38.06.59l.15,2.71Z"/>
      <path class="cls-14" d="m102.58,145.43c.08-.07.13-.11.13-.11l1-.59-.17.35.11-.03.72-.55-.38.47c.39-.08,1.01-.4,1.41-.57l-.18.45.49-.68.14.69c.16-.04.27-.29.47-.63.06.4.18.86.18.86l.26-1.31v1.14s.19-.91.19-.91l.14.97.36-1.23.24,1.53.27-.45c.11.46.31,1.13.82.61-.02.25-.08.47.08.66l.45-1.01-.25,1.11.39-.85-.08.98.62-1.12-.11,1.55c.12-.13.24-.25.36-.38-.02.56.25.8.49,1.23l.3.59c.26.39.46.82.6,1.28.27-.2.57-.4.91-.66.58-.44,1.14-.74,1.91-1.24.66-.44,1.3-.84,2.01-1.29.6-.38,1.24-.77,1.81-1.15.55-.37,1.05-.7,1.54-1.12.3-.27.32-.58.65-.86.3-.25.47-.17,1.1-.64.4-.31.7-.62,1.04-.97.18-.19.66-.58.93-.82.28-.23.67-.79.7-1.24.04-.49.11-.77.26-1.22.14-.42.28-1.08.41-1.7.11-.45.23-.88.15-1.2-.09-.32-.32-.63-.42-.87-.11-.27-1.13-.42-.58-.98.36-.36,1.06-.3,1.49-.14.54.19.65.32.91.81.11.2.22.49.24.82.02.24-.02.44.04.63.11.35.38.64.62.79.68.43,1.84.26,2.8-.08.48-.17.85-.39,1.22-.56.47-.23,1.03-.48,1.5-.74.45-.26,1.26-.67,1.78-.7.53-.04.84.15.68.72-.09.34-.7.51-1.11.75-.41.23-.73.41-1.12.68-.15.1-.5.41-.81.54-.3.14-.62.2-.52.44.08.18.24.24.49.13.41-.17.91-.47,1.38-.59.4-.1.74-.2,1.13-.29.33-.07.68-.21,1.15-.45.47-.23,1.29-.36,1.46.3.21.8-.95.85-1.46,1.08-.59.26-1.15.66-1.75.84-.26.08-.67.18-1.02.29-.38.13-.74.15-.64.49.06.2.71.01,1.44-.16.59-.15,1.21-.25,1.59-.33.8-.17,1.49-.45,1.83.05.09.13.13.27.05.52-.07.25-1.28.58-1.79.67-.94.17-1.72.5-2.66.64-.2.03-.6,0-.71.18-.05.07-.14.29-.05.41.13.18.34.32,1.07.5.91.22,2.04.29,2.28.62.24.33.22.82-.51.84-.64.01-1.37-.27-2.01-.36-.52-.08-1.07-.3-1.61-.36-.65-.06-1.33.27-1.94.43-.44.11-.92.26-1.47.38-.4.08-.85.1-1.21.31-.38.24-.57.56-.92.86-.29.25-.68.5-.96.77-.76.71-1.4,1.45-1.94,1.95-1.73,1.6-3.44,3.3-5.27,4.89-.46.4-1.09.75-1.55,1.13-.39.32-.95.6-1.33.91-.41.33-.85.57-1.24.88-.39.33-.75.74-1.23,1.02l-.28.15-.03.14c-.39,1.48-.34,3.55-.92,5,.41,1.32,1.87.44,2.82,1.58,1.21-.54,1.83-.01,3.59-.18.89-.09,2.89-.89,3.61-.35.14.1.61-.25.78-.18.48-.16.95-.33,1.43-.49,3.68-2.77,6.96-3.54,11.14-4.87.54-.45.89-.87,1.29-1.27.28-.28.85-.96,1.11-1.31.11-.16,1.04-.67,1.41-.72.47-.07.2.28.73-.06.59-.38.92-.43.96.05,0,.07.18.07.36.07.5.02.36.2.13.58-.1.17-2.03,1.77-.92,1.58.79-.13,1.29-.32,2.23-.92,1.25-.53,1.56.5.78,1.05-1.29.49-2.19.89-3.17,1.82-.9.86-1.61,1.13-3.12,1.26-.23.02-.33.04-.53.16-.29.18-.55.39-.87.54-1.72.83-4.33,4.56-7.19,6.6-2.16,1.03-2.89,1.48-5.2,2.16.27,1.39.54,2.17-.75,2.26-1.58.11-3.15.82-4.92.54-.2.38-.4.76-.6,1.14-1.27,2.42-2.29,3.41-1.74,6.08.31,1.59,0,2.82-.64,4.02-.25.48-.55,1.98-.98,2.78.35,1.16.66,2.4.96,3.73-4.65.63-5.64.97-14.22.97s-24.19-2.15-35.18-6.08l2.65-6.09c.72-2.02,1.11-4.07,1.06-6.16-.05-2.11-.04-2.83-.07-4.9-.03-1.84.07-4.31.13-6.23.03-1.14.05-2.9-.58-5.15-.43-.63-.77-1.21-1.08-1.77-.58-.24-4.27-11.72-4.21-13.79-.12-.33-.36-.59-.44-.9-.14-.57-.04-1.06-.21-1.61-.4-1.4-.83-2.78-1.11-4.28-.26-1.37-.48-4.54-.59-7.07-.07-1.53-.02-2.8-.18-3.37-.3-1.1-.05-2.02-.76-2.92-.45-.58-1.2-1.75-1.44-2.12-.24-.37-.57-.79-.98-1.04-.56-.35-1.01-.7-1.52-1.09-.36-.26-.95-.62-1.33-1.01-.12-.13-.23-.41-.16-.61.08-.29.36-.45.79-.25.35.16.84.48,1.18.78.15.13.93.71,1.41.84.12.03.25-.05.31-.07.18-.1.35-.33.32-.54-.03-.21-.26-.39-.42-.64-.33-.49-.87-1.01-.99-1.2-.35-.55-1.12-1.18-1.18-1.8-.03-.27.08-.34.17-.43.15-.16.45-.2.69-.07.36.19.59.44.7.65.32.63.94,1.4,1.41,1.9.11.11.25.39.4.58.08.1.22.09.32,0,.06-.05.18-.1.2-.2.02-.09-.06-.4-.11-.54-.14-.33-.44-.86-.51-1.17-.18-.81-.31-1.2-.57-2.06-.09-.28-.23-.66.01-.94.27-.29.78-.22,1.05.08.26.29.43,1.32.71,1.98.14.32.24.67.35,1.06.09.38.2.67.31.94.1.27.51.3.51.01.01-.18-.15-1.09-.24-1.92-.02-.22.04-.41.02-.6-.03-.25-.14-.48-.15-.63-.04-.69.05-1.05.53-1.04.47,0,.66.47.75.97.08.4.14.62.3,1.08.08.25.12.44.17.68.07.25.07.53.11.78.08.46.03.95.24,1.37.23.44.43.83.74,1.17.44.48.96.91,1.72.54.29-.14.38-.33.55-.5.2-.2.46-.39.82-.58.42-.23.92-.26,1.33-.06.3.15.57.31.73.55.16.24.2.55.16.66-.13.35-.61.19-1.06.2-.25,0-.45.12-.68.24-.43.2-.64.75-.77,1.04-.23.49-.57.78-.78,1.09-.18.26-.23.55-.55.85-.19.18-.44.44-.55.77-.12.32-.09.71-.06,1.04.05.49.09,1.08.18,1.58.12.65.11,1.17.21,1.87.06.38.14.98.2,1.47.04.4.19.73.27,1.14.12.71.3,1.22.56,1.92.12.3.22.62.37.99.13.35.24.89.36,1.23.23.66.27,1.08.49,1.78.19.63.42,1.53.46,2.18.03.35.05.66.09,1.06.05.51.08.8.09,1.31.02.43.05.83.11,1.16.05.22.07.41.29.61.39.37.7.84,1,1.32.35.56.67,1.19,1,1.96.32.74.68,1.49,1.11,2.37.33.7.59,1.38,1.11,2.13.26.38.75,1.2,1.1,1.5.01-.08.09-.13.18-.11.38.48.56.66.95,1.05.5.48,1.09.99,1.67,1.64.25-.38.59-.92,1.11-1.37.17-.1-.8.36-1.44.2l.02-.1c.16-.04.31-.08.46-.14.38-.14.49-.28.76-.53-.07.05-.24.04-.34.01.22-.14.49-.18.7-.34.19-.15.37-.31.57-.45.29-.23.53-.5.79-.76l.03-.05c-.24.04-.45.29-.65.42-.23.15-.4.29-.6.46.21-.42.6-.76,1-1.01.11-.07.27-.15.29-.2-.03.03-.1.06-.16.08-.28.1-.63.07-.89.18-.25.1-.47.18-.68.34.24-.32.26-.28.47-.41.19-.12.43-.24.65-.29.17-.04.35-.03.58-.2.14-.09.24-.23.38-.33-.19.1-.46.2-.6.26.59-.4.52-.44.75-.65.22-.2.32-.55.61-.69-.23.08-.45.27-.69.35-.14.04-.3.07-.32.06.61-.18,1.05-.7,1.51-1.11-.32.17-.28.13-.79.1.86-.55,1.26-.8,1.88-1.71.56-.82,1.35-1.43,2.17-1.94.84-.53,1.56-.79,2.66-1.01,1.1-.23,3.32.04,4.05.35.97.42,1.75.57,2.46.99.41.19.82.36,1.3.4-.48.06-.5.1-.75,0,.06.05.13.11.19.18.39.3.79.62,1.29.75.04.01.08.02.12.03-.03-.01-.07-.02-.12-.03-.13-.02-.29-.03-.41-.07-.16-.05-.3-.13-.45-.19l.04.04c.21.15.34.41.54.55.27.19.19.23.85.59-.16-.05-.45-.14-.66-.22.15.09.27.22.43.3.26.15.45.13.63.16.67.11.78.26,1.2.7-.89-.59-.83-.31-1.66-.51-.06-.02-.12-.04-.18-.04.06.02.12.04.18.07.51.21.82.78,1.11,1.23-.44-.33-.61-.55-1.25-.56l.06.17c.39.76.53,1.66,1.11,2.28-.43-.27-.43-.2-.59-.58.12.66.2,1.41.55,1.98.02.04.04.08.04.11-.02-.04-.1-.15-.18-.25-.23-.3-.24-.51-.41-.79.15.32.03.76.09,1.1.07.36,0,.36.24,1.14-.08-.15-.24-.43-.34-.64.04,1.64-.57,2.18-.69,3.61-.13.82-.24,1.43-.38,2.04-.24,1.05-.58,2.09-1.25,4.18-.11,1.08.12.73.34,1.23.31.69,2.76.28,3.21.04.54-.29,1.2-.64,1.92-1.04l-.09-.11c-.77-.87-1.36-1.92-.5-2.15-.07-.48-.13-.96-.2-1.44-.44-3.65-.13-5.2,2.01-8.16.39-.29.73-.64,1.13-.89.52-.32,1.06-.62,1.6-.86"/>
      <path class="cls-10" d="m39.47,170.88c.13-.33,0,.05.12-.26.14-.34.33-.64.46-.99.11-.29.03-.63.13-.94.11-.38.5-.65.65-1.01.15-.38.22-.96.18-1.35-.03-.36.18-.78.17-1.19,0-.5-.23-.94-.31-1.44-.09-.56-.04-1.18-.17-1.65-.2-.81-.21-1.61-.33-2.42.08-2.93,0-5.65-.07-8.61-.03-1.07-2.16-2.6-2.96-2.79-.82-.19-.7-.51-1.3-1.03-.17-.15-.36-.14-.57-.21-.17-.06-.25-.21-.43-.23-.32-.02-.47.15-.6.14-.07,0-.16-.05-.32-.19-.27-.24.34-1.02,1.15-1.14.62-.08,1.41.47,1.76.43.68-.09,1.02-.89.87-1.59-.11-.51-.53-.9-.81-1.31-.23-.33-.33-.72-.4-.87-.11-.24-.2-.45-.16-.68.05-.31.3-.57.63-.47.12.04.17.05.27.14.14.13.22.36.35.55.1.15.25.23.36.37.1.14.14.34.23.47.09.13.23.19.33.26.23.13.3.06.52-.06.18-.1.08-.2.02-.6-.06-.38-.1-.52-.14-1.07-.02-.16.03-.41.03-.57,0-.41-.06-.58.03-.8.17-.45.77-.89,1.02-.47.08.14.1.54.17.94.05.31.14.61.17.93.02.21.08.36.08.53,0,.25-.1.8.08.82.04,0,.22-.15.3-.39.08-.22.04-.51.13-.83.07-.28.22-.54.31-.82.08-.25.04-.38.1-.59.09-.29.27-.64.34-.7.3-.25.78-.06.94.21.04.06.08.24.04.41-.16.7-.22.65-.31,1.5-.04.23-.13.42-.15.63-.02.23.02.49,0,.65.5-.8,1.07-1.16,1.45-1.89.14-.25.3-.56.69-.8.38-.08.56,0,.65.31-.11.25.23-.2-.69,1.38-.22.36-.38.75-.52.97-.1.14-.25.44-.33.72-.07.19-.07.35-.13.58l-.02.05-.56.84.39,2.34c-.05.49-.12.88-.04,1.29.11.53.59,2.52.76,2.97l.02.05c1.17,5.56,2.99,7.46,3.37,14.21.34.67.09,2.96-.17,3.62-.04.12.18.23.61.74.77.92.85,1.46.79,2.6-.06,1.23-.26,2.62-1.22,3.38-2.9-1.68-5.36-3.25-8.01-5.13"/>
      <g class="cls-16">
        <rect class="cls-7" x="94.92" y="25.46" width="92.11" height="97.2"/>
      </g>
      <g class="cls-15">
        <rect class="cls-9" x="173.15" y="3.44" width="13.64" height="16.28"/>
      </g>
      <g class="cls-19">
        <rect class="cls-13" x="91.55" y="3.44" width="69.86" height="92.52"/>
      </g>
      <g class="cls-17">
        <rect class="cls-4" x="35.6" y="23.16" width="69.76" height="93.25"/>
      </g>
      <path class="cls-12" d="m97.42,80.31c-1.22-1.83-2.27-3.78-3.15-5.85-1.81-4.25-2.72-8.76-2.72-13.54,0-.43,0-.86.02-1.28.03-.37.05-.73.05-1.11.25-3.98,1.13-7.72,2.65-11.23,1.38-3.19,3.16-6.08,5.35-8.67,1.21,1.79,2.25,3.71,3.13,5.74,1.82,4.2,2.72,8.74,2.72,13.62,0,.44,0,.88-.02,1.32-.02.32-.04.65-.05.98-.25,3.93-1.13,7.67-2.65,11.24-1.38,3.22-3.15,6.15-5.33,8.78"/>
      <g class="cls-20">
        <rect class="cls-3" x="13.51" y="0" width="13.73" height="16.47"/>
      </g>
    </g>
  </g>
</svg>