<?xml version="1.0" encoding="utf-8"?>
<svg version="1.1" id="Layer_2_00000140693013580063464210000012917889999912950410_"
	 xmlns="http://www.w3.org/2000/svg" xmlns:xlink="http://www.w3.org/1999/xlink" x="0px" y="0px" viewBox="0 0 202.1 272.7"
	 style="enable-background:new 0 0 202.1 272.7;" xml:space="preserve">
<style type="text/css">
	.st0{fill:#FFFFFF;}
	.st1{fill-rule:evenodd;clip-rule:evenodd;fill:#FFFFFF;}
	.st2{clip-path:url(#SVGID_00000074432521704012764330000001492987284577290635_);}
	.st3{clip-path:url(#SVGID_00000116932040350048766480000015320737370274458795_);}
	.st4{clip-path:url(#SVGID_00000085935701985531816280000003584979408684168379_);}
	.st5{clip-path:url(#SVGID_00000020380989818734068510000006971986142432598437_);}
	.st6{clip-path:url(#SVGID_00000059994821689849729610000002557214159518530697_);}
	.st7{clip-path:url(#SVGID_00000153667879424605272130000015799192663075262348_);}
</style>
<g id="Foreground">
	<g>
		<path class="st0" d="M3.3,205.3c0-0.5,0.3-0.8,0.8-0.8c0.2,0,0.4,0.1,0.5,0.2c0.1,0.1,0.2,0.3,0.2,0.6V216c0,0.3-0.1,0.5-0.2,0.7
			c-0.2,0.1-0.3,0.2-0.5,0.2c-0.5,0-0.8-0.3-0.8-0.8L3.3,205.3L3.3,205.3z"/>
		<path class="st0" d="M8.7,205.3c0-0.2,0.1-0.4,0.2-0.6s0.3-0.2,0.5-0.2c0.4,0,0.6,0.2,0.9,0.5l6.5,9.2h0v-8.8
			c0-0.2,0.1-0.4,0.2-0.6c0.1-0.1,0.3-0.2,0.5-0.2c0.2,0,0.4,0.1,0.6,0.2s0.2,0.3,0.2,0.6v10.8c0,0.2-0.1,0.4-0.2,0.6
			c-0.1,0.1-0.3,0.2-0.5,0.2c-0.3,0-0.6-0.2-0.9-0.5l-6.5-9.2l0,0v8.9c0,0.2-0.1,0.4-0.2,0.5c-0.1,0.1-0.3,0.2-0.5,0.2
			s-0.4-0.1-0.5-0.2c-0.1-0.1-0.2-0.3-0.2-0.6L8.7,205.3L8.7,205.3z"/>
		<path class="st0" d="M27.9,205.1c0.3,0.2,0.5,0.5,0.5,0.8c0,0.2-0.1,0.3-0.2,0.4c-0.1,0.1-0.3,0.2-0.5,0.2
			c-0.2-0.1-0.5-0.2-0.9-0.3s-0.6-0.3-0.8-0.4c-0.2-0.1-0.4-0.1-0.7-0.1c-0.6,0-1,0.2-1.4,0.5c-0.4,0.3-0.6,0.8-0.6,1.3
			c0,0.7,0.5,1.2,1.5,1.6c0.2,0.1,0.5,0.2,1,0.4s0.9,0.3,1.3,0.5c0.4,0.1,0.7,0.3,1,0.5c0.3,0.2,0.6,0.5,0.8,0.8
			c0.3,0.5,0.5,1.1,0.5,1.7s-0.2,1.2-0.5,1.8s-0.8,1.1-1.4,1.4c-0.6,0.4-1.4,0.6-2.3,0.6c-0.6,0-1.3-0.1-1.8-0.2
			c-0.6-0.2-1-0.4-1.3-0.6c-0.2-0.2-0.4-0.4-0.4-0.7c0-0.2,0.1-0.4,0.2-0.5c0.1-0.1,0.3-0.2,0.5-0.2c0.1,0,0.2,0.1,0.4,0.1
			c0.8,0.5,1.7,0.8,2.6,0.8c0.4,0,0.8-0.1,1.2-0.3s0.6-0.5,0.9-0.9c0.2-0.4,0.3-0.8,0.3-1.2s-0.1-0.8-0.4-1.1
			c-0.2-0.3-0.5-0.5-0.9-0.7c-0.4-0.2-0.9-0.4-1.4-0.6s-0.9-0.3-1.1-0.4c-0.5-0.2-0.8-0.4-1.1-0.7c-0.3-0.2-0.5-0.5-0.7-0.9
			c-0.2-0.3-0.3-0.8-0.3-1.3c0-0.6,0.2-1.2,0.5-1.7s0.8-0.9,1.4-1.1c0.6-0.3,1.2-0.4,1.8-0.4C26.4,204.5,27.3,204.7,27.9,205.1"/>
		<path class="st0" d="M34.3,206h-2.4c-0.2,0-0.4-0.1-0.5-0.2c-0.1-0.1-0.2-0.3-0.2-0.5c0-0.2,0.1-0.4,0.2-0.5
			c0.1-0.1,0.3-0.2,0.5-0.2h6.2c0.2,0,0.4,0.1,0.6,0.2c0.1,0.1,0.2,0.3,0.2,0.5s-0.1,0.4-0.2,0.5s-0.3,0.2-0.5,0.2h-2.4v10.1
			c0,0.2-0.1,0.4-0.2,0.6c-0.2,0.1-0.3,0.2-0.5,0.2s-0.4-0.1-0.5-0.2c-0.2-0.1-0.2-0.3-0.2-0.6L34.3,206L34.3,206z"/>
		<path class="st0" d="M41.6,205.3c0-0.5,0.3-0.8,0.8-0.8c0.2,0,0.4,0.1,0.5,0.2c0.1,0.1,0.2,0.3,0.2,0.6V216c0,0.3-0.1,0.5-0.2,0.7
			c-0.2,0.1-0.3,0.2-0.5,0.2c-0.5,0-0.8-0.3-0.8-0.8V205.3L41.6,205.3z"/>
		<path class="st0" d="M49.1,206h-2.4c-0.2,0-0.4-0.1-0.5-0.2c-0.1-0.1-0.2-0.3-0.2-0.5c0-0.2,0.1-0.4,0.2-0.5
			c0.1-0.1,0.3-0.2,0.5-0.2H53c0.2,0,0.4,0.1,0.6,0.2c0.1,0.1,0.2,0.3,0.2,0.5s-0.1,0.4-0.2,0.5S53.2,206,53,206h-2.4v10.1
			c0,0.2-0.1,0.4-0.2,0.6s-0.3,0.2-0.5,0.2s-0.4-0.1-0.5-0.2c-0.2-0.1-0.2-0.3-0.2-0.6L49.1,206L49.1,206z"/>
		<path class="st0" d="M56.3,205.3c0-0.2,0.1-0.4,0.2-0.6s0.3-0.2,0.5-0.2s0.4,0.1,0.5,0.2s0.2,0.3,0.2,0.6v7.3
			c0,0.6,0.2,1.2,0.4,1.6c0.3,0.4,0.7,0.8,1.2,1c0.5,0.2,1.1,0.4,1.8,0.4c0.7,0,1.2-0.2,1.7-0.4c0.5-0.3,0.8-0.6,1.1-1.1
			s0.4-1,0.4-1.5v-7.3c0-0.2,0.1-0.4,0.2-0.6s0.3-0.2,0.5-0.2c0.2,0,0.4,0.1,0.6,0.2c0.2,0.1,0.2,0.3,0.2,0.6v6.8
			c0,1-0.2,1.8-0.5,2.5c-0.3,0.7-0.9,1.3-1.6,1.7c-0.7,0.4-1.6,0.6-2.7,0.6c-0.8,0-1.5-0.1-2.2-0.3s-1.1-0.6-1.5-1
			c-0.4-0.4-0.7-0.9-0.9-1.5s-0.3-1.2-0.3-1.9L56.3,205.3L56.3,205.3z"/>
		<path class="st0" d="M72,206h-2.4c-0.2,0-0.4-0.1-0.5-0.2c-0.1-0.1-0.2-0.3-0.2-0.5c0-0.2,0.1-0.4,0.2-0.5
			c0.1-0.1,0.3-0.2,0.5-0.2h6.2c0.2,0,0.4,0.1,0.6,0.2c0.1,0.1,0.2,0.3,0.2,0.5s-0.1,0.4-0.2,0.5s-0.3,0.2-0.5,0.2h-2.4v10.1
			c0,0.2-0.1,0.4-0.2,0.6c-0.2,0.1-0.3,0.2-0.6,0.2s-0.4-0.1-0.5-0.2c-0.2-0.1-0.2-0.3-0.2-0.6L72,206L72,206z"/>
		<path class="st0" d="M80.4,210.7c0,0.8,0.1,1.5,0.3,2.2c0.2,0.7,0.6,1.4,1.2,1.9s1.3,0.8,2.3,0.8c0.5,0,1-0.1,1.5-0.3
			c0.5-0.2,0.9-0.5,1.2-0.9s0.6-0.9,0.8-1.5c0.2-0.6,0.3-1.3,0.3-2.1c0-0.8-0.1-1.5-0.3-2.1c-0.2-0.6-0.5-1.1-0.8-1.5
			c-0.3-0.4-0.8-0.7-1.2-0.9c-0.5-0.2-1-0.3-1.5-0.3c-0.7,0-1.4,0.2-1.9,0.6s-1,0.9-1.4,1.7C80.5,208.8,80.4,209.6,80.4,210.7
			 M78.7,210.7c0-1.1,0.2-2.1,0.7-3.1c0.4-0.9,1.1-1.7,1.9-2.3c0.8-0.6,1.8-0.9,2.9-0.9c0.9,0,1.6,0.2,2.3,0.5
			c0.7,0.3,1.2,0.8,1.7,1.4c0.5,0.6,0.8,1.2,1.1,2c0.2,0.7,0.4,1.5,0.4,2.4c0,1.1-0.2,2.1-0.7,3.1s-1.1,1.7-1.9,2.2
			s-1.8,0.8-2.9,0.8c-1,0-1.9-0.3-2.8-0.8c-0.8-0.5-1.5-1.2-2-2.2C79,212.9,78.7,211.9,78.7,210.7"/>
		<path class="st0" d="M98.8,205.9v5h2.2c0.8,0,1.4-0.2,1.9-0.7c0.5-0.5,0.7-1.1,0.7-1.8s-0.2-1.4-0.7-1.8c-0.5-0.4-1.1-0.7-1.8-0.7
			L98.8,205.9L98.8,205.9z M97.3,205.4c0-0.3,0.1-0.5,0.2-0.6c0.2-0.1,0.3-0.2,0.5-0.2h3.1c0.5,0,1.1,0.1,1.5,0.2
			c0.5,0.2,0.9,0.4,1.3,0.7c0.4,0.3,0.7,0.7,0.9,1.2s0.3,1,0.3,1.6c0,0.5-0.1,1-0.3,1.5c-0.2,0.5-0.5,0.9-0.8,1.2
			c-0.3,0.4-0.8,0.6-1.2,0.8s-1,0.3-1.5,0.3h-2.5v3.9c0,0.2-0.1,0.4-0.2,0.5c-0.2,0.1-0.3,0.2-0.5,0.2s-0.4-0.1-0.5-0.2
			s-0.2-0.3-0.2-0.6L97.3,205.4L97.3,205.4z"/>
		<path class="st0" d="M109.4,210.7c0,0.8,0.1,1.5,0.3,2.2c0.2,0.7,0.6,1.4,1.2,1.9s1.3,0.8,2.3,0.8c0.5,0,1-0.1,1.5-0.3
			c0.5-0.2,0.9-0.5,1.2-0.9s0.6-0.9,0.8-1.5c0.2-0.6,0.3-1.3,0.3-2.1c0-0.8-0.1-1.5-0.3-2.1c-0.2-0.6-0.5-1.1-0.8-1.5
			c-0.3-0.4-0.8-0.7-1.2-0.9c-0.5-0.2-1-0.3-1.5-0.3c-0.7,0-1.4,0.2-1.9,0.6s-1,0.9-1.4,1.7C109.6,208.8,109.4,209.6,109.4,210.7
			 M107.8,210.7c0-1.1,0.2-2.1,0.7-3.1c0.4-0.9,1.1-1.7,1.9-2.3c0.8-0.6,1.8-0.9,2.9-0.9c0.9,0,1.6,0.2,2.3,0.5
			c0.7,0.3,1.2,0.8,1.7,1.4c0.5,0.6,0.8,1.2,1.1,2c0.2,0.7,0.4,1.5,0.4,2.4c0,1.1-0.2,2.1-0.7,3.1s-1.1,1.7-1.9,2.2
			s-1.8,0.8-2.9,0.8c-1,0-1.9-0.3-2.8-0.8c-0.8-0.5-1.5-1.2-2-2.2C108,212.9,107.8,211.9,107.8,210.7"/>
		<path class="st0" d="M122.1,205.4c0-0.3,0.1-0.5,0.2-0.6c0.2-0.1,0.3-0.2,0.5-0.2h3c0.6,0,1.2,0.1,1.7,0.4c0.6,0.3,1,0.7,1.4,1.2
			c0.4,0.6,0.6,1.2,0.6,2c-0.1,0.6-0.2,1.1-0.4,1.5c-0.2,0.4-0.5,0.7-0.8,1c-0.3,0.2-0.8,0.4-1.2,0.5s-1,0.2-1.6,0.2l4,4.3
			c0.2,0.2,0.3,0.4,0.3,0.7c0,0.1-0.1,0.3-0.2,0.4s-0.3,0.1-0.5,0.1c-0.3,0-0.5-0.1-0.7-0.3l-4.8-5.1v4.7c0,0.2-0.1,0.4-0.2,0.5
			c-0.2,0.1-0.3,0.2-0.5,0.2s-0.4-0.1-0.5-0.2c-0.2-0.1-0.2-0.3-0.2-0.6L122.1,205.4L122.1,205.4z M123.6,205.9v4.3h2.2
			c0.6,0,1-0.1,1.4-0.3c0.3-0.2,0.6-0.4,0.7-0.8c0.1-0.3,0.2-0.7,0.2-1.1c0-0.4-0.1-0.8-0.3-1.1s-0.5-0.6-0.8-0.7s-0.7-0.3-1.2-0.3
			L123.6,205.9L123.6,205.9z"/>
		<path class="st0" d="M135.2,206h-2.4c-0.2,0-0.4-0.1-0.5-0.2c-0.1-0.1-0.2-0.3-0.2-0.5c0-0.2,0.1-0.4,0.2-0.5
			c0.1-0.1,0.3-0.2,0.5-0.2h6.2c0.2,0,0.4,0.1,0.6,0.2c0.1,0.1,0.2,0.3,0.2,0.5s-0.1,0.4-0.2,0.5s-0.3,0.2-0.5,0.2h-2.4v10.1
			c0,0.2-0.1,0.4-0.2,0.6s-0.3,0.2-0.6,0.2s-0.4-0.1-0.5-0.2s-0.2-0.3-0.2-0.6L135.2,206L135.2,206z"/>
		<path class="st0" d="M142.4,205.3c0-0.2,0.1-0.4,0.2-0.6s0.3-0.2,0.5-0.2s0.4,0.1,0.5,0.2s0.2,0.3,0.2,0.6v7.3
			c0,0.6,0.1,1.2,0.4,1.6c0.3,0.4,0.7,0.8,1.2,1c0.5,0.2,1.1,0.4,1.8,0.4c0.6,0,1.2-0.2,1.7-0.4c0.5-0.3,0.9-0.6,1.1-1.1
			s0.4-1,0.4-1.5v-7.3c0-0.2,0.1-0.4,0.2-0.6s0.3-0.2,0.5-0.2c0.2,0,0.4,0.1,0.6,0.2c0.1,0.1,0.2,0.3,0.2,0.6v6.8
			c0,1-0.2,1.8-0.5,2.5c-0.3,0.7-0.9,1.3-1.6,1.7c-0.7,0.4-1.6,0.6-2.6,0.6c-0.8,0-1.5-0.1-2.2-0.3c-0.6-0.2-1.1-0.6-1.5-1
			s-0.7-0.9-0.9-1.5s-0.3-1.2-0.3-1.9L142.4,205.3L142.4,205.3z"/>
		<path class="st0" d="M165.3,206c0.1,0.1,0.2,0.3,0.2,0.5c0,0.2-0.1,0.3-0.2,0.5c-0.1,0.1-0.3,0.2-0.5,0.2c-0.2,0-0.4-0.1-0.6-0.2
			c-0.5-0.4-0.9-0.6-1.4-0.8c-0.4-0.2-1-0.3-1.6-0.3c-0.7,0-1.3,0.1-1.8,0.4c-0.5,0.3-0.9,0.7-1.2,1.2c-0.3,0.5-0.5,1-0.7,1.5
			c-0.1,0.6-0.2,1.1-0.2,1.6c0,0.7,0.1,1.4,0.3,2.1s0.6,1.4,1.2,1.9c0.6,0.6,1.3,0.9,2.2,0.9c0.7,0,1.3-0.1,1.9-0.4
			c0.6-0.3,1.1-0.7,1.4-1.3c0.4-0.6,0.5-1.3,0.5-2.1v-0.5h-2.2c-0.4,0-0.7-0.2-0.7-0.7c0-0.5,0.2-0.7,0.6-0.7h2.8c0.7,0,1,0.4,1,1.1
			v0.3c0,0.8-0.1,1.6-0.4,2.5c-0.2,0.8-0.7,1.6-1.5,2.2s-1.9,1-3.4,1c-1,0-1.8-0.2-2.5-0.6c-0.7-0.4-1.3-0.9-1.7-1.5
			c-0.4-0.6-0.8-1.3-1-2c-0.2-0.7-0.3-1.4-0.3-2c0-0.9,0.1-1.7,0.4-2.4c0.2-0.8,0.6-1.4,1-2c0.5-0.6,1-1,1.7-1.4
			c0.7-0.3,1.5-0.5,2.4-0.5c0.9,0,1.8,0.1,2.5,0.4S164.9,205.6,165.3,206"/>
		<path class="st0" d="M169.6,205.3c0-0.2,0.1-0.4,0.2-0.6s0.3-0.2,0.5-0.2s0.4,0.1,0.5,0.2s0.2,0.3,0.2,0.6v7.3
			c0,0.6,0.1,1.2,0.4,1.6c0.3,0.4,0.7,0.8,1.2,1c0.5,0.2,1.1,0.4,1.8,0.4c0.6,0,1.2-0.2,1.7-0.4c0.5-0.3,0.9-0.6,1.1-1.1
			s0.4-1,0.4-1.5v-7.3c0-0.2,0.1-0.4,0.2-0.6s0.3-0.2,0.5-0.2c0.2,0,0.4,0.1,0.6,0.2s0.2,0.3,0.2,0.6v6.8c0,1-0.2,1.8-0.5,2.5
			c-0.4,0.7-0.9,1.3-1.6,1.7c-0.7,0.4-1.6,0.6-2.6,0.6c-0.8,0-1.5-0.1-2.2-0.3c-0.6-0.2-1.1-0.6-1.5-1s-0.7-0.9-0.9-1.5
			s-0.3-1.2-0.3-1.9L169.6,205.3L169.6,205.3z"/>
		<path class="st0" d="M186,201.5l2.3,1c0.1,0.1,0.3,0.1,0.3,0.3c0.1,0.1,0.1,0.3,0.1,0.4c0,0.2-0.1,0.3-0.2,0.4s-0.3,0.2-0.5,0.2
			c-0.2,0-0.3-0.1-0.4-0.1l-1.7-0.7l-1.6,0.6c-0.1,0-0.3,0.1-0.5,0.1c-0.2,0-0.3-0.1-0.4-0.2c-0.1-0.1-0.2-0.3-0.2-0.4
			c0-0.3,0.1-0.6,0.4-0.7L186,201.5L186,201.5z M183.1,205.4c0-0.3,0.1-0.5,0.2-0.6c0.1-0.1,0.3-0.2,0.4-0.2h4.7
			c0.2,0,0.4,0.1,0.5,0.2c0.1,0.1,0.2,0.3,0.2,0.5s-0.1,0.4-0.2,0.5s-0.3,0.2-0.5,0.2h-3.8v4h3.5c0.2,0,0.4,0.1,0.5,0.2
			c0.1,0.1,0.2,0.3,0.2,0.5s-0.1,0.4-0.2,0.5c-0.1,0.1-0.3,0.2-0.5,0.2h-3.4v3.9h3.8c0.2,0,0.4,0.1,0.5,0.2s0.2,0.3,0.2,0.5
			c0,0.2-0.1,0.3-0.2,0.5s-0.3,0.2-0.6,0.2h-4.5c-0.3,0-0.5-0.1-0.6-0.3c-0.1-0.2-0.1-0.4-0.1-0.5V205.4L183.1,205.4z"/>
		<path class="st0" d="M198.4,205.1c0.3,0.2,0.5,0.5,0.5,0.8c0,0.2-0.1,0.3-0.2,0.4c-0.1,0.1-0.3,0.2-0.5,0.2
			c-0.2-0.1-0.5-0.2-0.9-0.3c-0.4-0.2-0.6-0.3-0.8-0.4c-0.2-0.1-0.4-0.1-0.7-0.1c-0.6,0-1,0.2-1.4,0.5c-0.4,0.3-0.6,0.8-0.6,1.3
			c0,0.7,0.5,1.2,1.5,1.6c0.2,0.1,0.5,0.2,1,0.4s0.9,0.3,1.3,0.5c0.4,0.1,0.7,0.3,1,0.5c0.3,0.2,0.6,0.5,0.8,0.8
			c0.3,0.5,0.5,1.1,0.5,1.7s-0.2,1.2-0.5,1.8c-0.3,0.6-0.8,1.1-1.4,1.4s-1.4,0.6-2.3,0.6c-0.6,0-1.2-0.1-1.8-0.2
			c-0.6-0.2-1-0.4-1.3-0.6c-0.2-0.2-0.4-0.4-0.4-0.7c0-0.2,0.1-0.4,0.2-0.5s0.3-0.2,0.5-0.2c0.1,0,0.2,0.1,0.4,0.1
			c0.8,0.5,1.7,0.8,2.6,0.8c0.4,0,0.8-0.1,1.2-0.3s0.6-0.5,0.9-0.9s0.3-0.8,0.3-1.2s-0.1-0.8-0.4-1.1c-0.2-0.3-0.6-0.5-0.9-0.7
			c-0.4-0.2-0.9-0.4-1.4-0.6c-0.6-0.2-0.9-0.3-1.1-0.4c-0.4-0.2-0.8-0.4-1.1-0.7c-0.3-0.2-0.5-0.5-0.7-0.9c-0.2-0.3-0.3-0.8-0.3-1.3
			c0-0.6,0.2-1.2,0.5-1.7s0.8-0.9,1.4-1.1s1.2-0.4,1.8-0.4C196.9,204.5,197.8,204.7,198.4,205.1"/>
		<path class="st0" d="M19.9,259.2c0-0.2,0.1-0.5,0.2-0.6c0.1-0.1,0.3-0.2,0.5-0.2h4.7c0.2,0,0.4,0.1,0.5,0.2
			c0.1,0.1,0.2,0.3,0.2,0.5s-0.1,0.4-0.2,0.5s-0.3,0.2-0.5,0.2h-3.8v4h3.5c0.2,0,0.4,0.1,0.5,0.2s0.2,0.3,0.2,0.5s-0.1,0.4-0.2,0.5
			c-0.1,0.1-0.3,0.2-0.5,0.2h-3.4v4h3.8c0.2,0,0.4,0.1,0.5,0.2c0.1,0.1,0.2,0.3,0.2,0.5c0,0.2-0.1,0.3-0.2,0.5
			c-0.1,0.1-0.3,0.2-0.6,0.2h-4.5c-0.3,0-0.5-0.1-0.6-0.3s-0.1-0.4-0.1-0.5L19.9,259.2L19.9,259.2z"/>
		<path class="st0" d="M37.9,232.1c0-0.5,0.3-0.8,0.8-0.8h3.2c1.1,0,2.1,0.3,2.9,0.8s1.5,1.3,1.9,2.2c0.4,0.9,0.6,1.9,0.6,3
			c0,1.2-0.2,2.2-0.6,3.2c-0.4,0.9-1,1.6-1.8,2.2c-0.8,0.5-1.7,0.8-2.9,0.8h-3.3c-0.3,0-0.5-0.1-0.6-0.2c-0.1-0.1-0.2-0.3-0.2-0.4
			V232.1L37.9,232.1z M39.4,232.6v9.6h2.4c0.4,0,0.8-0.1,1.2-0.2s0.8-0.4,1.2-0.7c0.4-0.4,0.8-0.9,1-1.5c0.3-0.7,0.4-1.5,0.4-2.5
			c0-0.7-0.1-1.4-0.3-1.9c-0.2-0.6-0.5-1.1-0.8-1.5c-0.3-0.4-0.8-0.7-1.3-0.9c-0.5-0.2-1-0.3-1.7-0.3L39.4,232.6L39.4,232.6z"/>
		<path class="st0" d="M51.9,237.4c0,0.8,0.1,1.5,0.3,2.2c0.2,0.7,0.6,1.4,1.2,1.9c0.6,0.5,1.3,0.8,2.3,0.8c0.5,0,1-0.1,1.5-0.3
			c0.5-0.2,0.9-0.5,1.2-0.9s0.6-0.9,0.8-1.5c0.2-0.6,0.3-1.3,0.3-2.1c0-0.8-0.1-1.5-0.3-2.1c-0.2-0.6-0.5-1.1-0.8-1.5
			c-0.3-0.4-0.8-0.7-1.2-0.9c-0.5-0.2-1-0.3-1.5-0.3c-0.7,0-1.4,0.2-2,0.6c-0.6,0.4-1,0.9-1.4,1.7C52,235.5,51.9,236.4,51.9,237.4
			 M50.2,237.4c0-1.1,0.2-2.1,0.7-3.1c0.4-0.9,1.1-1.7,1.9-2.3c0.8-0.6,1.8-0.9,2.9-0.9c0.9,0,1.6,0.2,2.3,0.5
			c0.7,0.3,1.2,0.8,1.7,1.4c0.5,0.6,0.8,1.2,1.1,2c0.2,0.7,0.4,1.5,0.4,2.4c0,1.1-0.2,2.1-0.7,3.1c-0.4,0.9-1.1,1.7-1.9,2.2
			s-1.8,0.8-2.9,0.8c-1,0-2-0.3-2.8-0.8c-0.8-0.5-1.5-1.2-2-2.2C50.5,239.7,50.3,238.6,50.2,237.4"/>
		<path class="st1" d="M138.3,241.9c-0.1,0-0.1,0-0.2,0c-0.1,0-0.1,0-0.1,0.1"/>
		<path class="st1" d="M137.4,240.1c-0.1,0-0.2,0.1-0.3,0.1c-0.1,0.1-0.2,0.1-0.3,0.1"/>
		<path class="st0" d="M68.4,233c0-0.4,0.1-0.8,0.4-1c0.2-0.3,0.6-0.4,1-0.4h3.3c1.3,0,2.3,0.2,3.1,0.8c0.8,0.5,1.4,1.1,1.9,1.8
			c0.6,1,0.9,2.2,0.9,3.6c0,0.8-0.1,1.5-0.4,2.3c-0.3,0.7-0.7,1.4-1.2,1.9c-0.5,0.6-1.1,1-1.8,1.4s-1.5,0.5-2.3,0.5h-3.4
			c-0.4,0-0.8-0.1-1.1-0.4s-0.4-0.6-0.4-1L68.4,233L68.4,233z M71.3,234.1v7.1h1.6c0.9,0,1.7-0.3,2.3-1c0.2-0.3,0.4-0.6,0.6-1.1
			s0.2-1,0.2-1.5c0-1.1-0.2-1.9-0.7-2.4c-0.6-0.7-1.4-1-2.3-1L71.3,234.1L71.3,234.1z"/>
		<path class="st0" d="M82.2,236.4v-3.5c0-0.5,0.1-0.8,0.4-1.1c0.3-0.2,0.6-0.4,0.9-0.4h4.5c0.4,0,0.7,0.1,1,0.3
			c0.2,0.2,0.4,0.5,0.4,0.9c0,0.4-0.1,0.7-0.3,0.9c-0.2,0.2-0.6,0.4-1,0.4h-3v2.2h2.8c0.4,0,0.8,0.1,1,0.4s0.4,0.6,0.4,0.9
			s-0.1,0.6-0.4,0.9c-0.2,0.3-0.6,0.4-1,0.4h-2.8v2.3h3c0.5,0,0.8,0.1,1.1,0.4s0.3,0.5,0.3,0.9c0,0.4-0.1,0.7-0.3,1
			c-0.2,0.2-0.6,0.4-1.1,0.4h-4.4c-0.5,0-0.8-0.1-1.1-0.4s-0.4-0.6-0.4-1L82.2,236.4L82.2,236.4z"/>
		<path class="st0" d="M92.1,235c0.1-1.7,0.9-2.8,2.5-3.4c0.7-0.2,1.3-0.3,2-0.3c0.5,0,0.9,0.1,1.5,0.2c0.5,0.1,1,0.3,1.4,0.6
			c0.4,0.3,0.6,0.6,0.6,1.1c0,0.4-0.1,0.7-0.4,0.9s-0.6,0.4-0.9,0.4c-0.2,0-0.6-0.1-1.1-0.3c-0.5-0.1-0.9-0.2-1.2-0.2
			c-0.3,0-0.6,0.1-0.9,0.2s-0.4,0.4-0.4,0.7c0,0.3,0.1,0.5,0.3,0.6c0.2,0.1,0.5,0.3,1.1,0.4c0.5,0.2,1,0.3,1.5,0.5
			c0.5,0.2,0.9,0.4,1.4,0.6c0.4,0.3,0.8,0.6,1.1,1.1s0.4,1.1,0.4,1.8c0,1.1-0.3,1.9-0.9,2.6c-0.9,1-2.2,1.5-3.8,1.5
			c-1.3,0-2.5-0.2-3.4-0.8c-0.6-0.3-0.8-0.7-0.9-1.2c0.1-0.4,0.2-0.7,0.4-1c0.2-0.3,0.6-0.4,0.9-0.4c0.3,0,0.6,0.1,0.9,0.2
			c0.3,0.1,0.7,0.2,1,0.3c0.3,0.1,0.6,0.2,0.9,0.2c0.1,0,0.2,0,0.3,0c0.4,0,0.7-0.1,1.1-0.3c0.3-0.2,0.5-0.4,0.5-0.8
			s-0.1-0.6-0.4-0.8s-0.7-0.4-1.1-0.5c-0.1,0-0.3-0.1-0.8-0.2s-0.9-0.3-1.3-0.4c-0.4-0.2-0.7-0.3-1-0.6c-0.4-0.3-0.6-0.6-0.8-1
			C92.2,236.1,92.1,235.6,92.1,235"/>
		<path class="st0" d="M106.8,234v3.3h1.6c0.5,0,0.9-0.1,1.2-0.4c0.3-0.3,0.5-0.7,0.5-1.2c0-0.5-0.2-0.9-0.5-1.2
			c-0.3-0.3-0.8-0.5-1.4-0.5L106.8,234L106.8,234z M103.9,232.9c0-0.4,0.1-0.7,0.4-0.9s0.6-0.4,1.1-0.4h3.2c1,0,1.8,0.2,2.4,0.6
			c0.7,0.4,1.2,0.9,1.5,1.5c0.3,0.6,0.5,1.3,0.5,2.1c0,0.8-0.2,1.5-0.5,2.1c-0.3,0.6-0.8,1.1-1.4,1.4c-0.6,0.4-1.3,0.5-2.1,0.5h-2.3
			v2.5c0,0.5-0.1,0.9-0.4,1.1c-0.3,0.2-0.6,0.4-1.1,0.4c-0.9-0.1-1.4-0.6-1.4-1.5L103.9,232.9L103.9,232.9z"/>
		<path class="st0" d="M121.6,233.9c-0.7,0-1.3,0.2-1.7,0.5c-0.5,0.4-0.8,0.8-1,1.4c-0.2,0.6-0.3,1.2-0.3,1.9c0,1.1,0.3,1.9,0.8,2.7
			c0.5,0.7,1.3,1.1,2.3,1.1c0.7,0,1.3-0.2,1.7-0.5c0.5-0.4,0.8-0.8,1-1.4c0.2-0.6,0.3-1.2,0.3-1.9s-0.1-1.3-0.3-1.9s-0.6-1-1-1.4
			S122.3,233.8,121.6,233.9 M121.6,231.3c0.9,0,1.8,0.1,2.5,0.4c0.8,0.3,1.4,0.7,1.9,1.3s0.9,1.2,1.2,2c0.3,0.8,0.4,1.7,0.4,2.6
			s-0.2,1.8-0.4,2.6c-0.3,0.8-0.7,1.4-1.2,2s-1.2,1-1.9,1.3c-0.8,0.3-1.6,0.4-2.5,0.4s-1.7-0.1-2.5-0.4c-0.8-0.3-1.4-0.7-1.9-1.3
			c-0.5-0.6-1-1.2-1.2-2c-0.3-0.8-0.4-1.6-0.4-2.6s0.1-1.8,0.4-2.6c0.3-0.8,0.7-1.5,1.2-2c0.5-0.6,1.2-1,1.9-1.3
			S120.7,231.3,121.6,231.3"/>
		<path class="st0" d="M133.4,234.1v2.7h1.8c0.4,0,0.8-0.1,1.1-0.4c0.3-0.2,0.5-0.6,0.5-1s-0.1-0.7-0.4-1c-0.3-0.3-0.6-0.4-1-0.4
			L133.4,234.1L133.4,234.1z M130.6,232.9c0-0.4,0.1-0.7,0.4-0.9c0.2-0.3,0.6-0.4,1.1-0.4h3.3c0.9,0,1.6,0.2,2.3,0.5
			c0.6,0.3,1.1,0.8,1.4,1.4c0.3,0.6,0.5,1.3,0.5,2.1c0,0.7-0.2,1.3-0.5,1.8c-0.3,0.5-0.7,0.8-1.1,1.1c-0.4,0.2-0.8,0.4-1.2,0.4
			l2.6,2.7c0.3,0.3,0.5,0.7,0.5,1.1c0,0.4-0.2,0.7-0.5,0.9c-0.3,0.2-0.7,0.4-1.2,0.4c-0.4-0.1-0.8-0.3-1.1-0.6l-3.5-4.3h0v3.5
			c0,0.5-0.1,0.9-0.4,1.1s-0.6,0.4-1.1,0.4c-0.9-0.1-1.4-0.6-1.4-1.5L130.6,232.9L130.6,232.9z"/>
		<path class="st0" d="M144.3,242.4v-8.2h-1.6c-0.5,0-0.8-0.1-1.1-0.3c-0.2-0.2-0.4-0.5-0.4-0.9c0-0.9,0.5-1.3,1.5-1.3h6
			c1,0,1.5,0.4,1.5,1.3c0,0.4-0.1,0.7-0.4,0.9s-0.6,0.3-1.1,0.3h-1.6v8.2c0,0.5-0.1,0.8-0.4,1.1s-0.6,0.4-1,0.4s-0.8-0.1-1-0.4
			C144.5,243.2,144.3,242.8,144.3,242.4"/>
		<path class="st0" d="M158.7,233.9c-0.7,0-1.3,0.2-1.7,0.5c-0.5,0.4-0.8,0.8-1,1.4s-0.3,1.2-0.3,1.9c0,1.1,0.3,1.9,0.8,2.7
			c0.5,0.7,1.3,1.1,2.3,1.1c0.7,0,1.3-0.2,1.7-0.5c0.5-0.4,0.8-0.8,1-1.4s0.3-1.2,0.3-1.9s-0.1-1.3-0.3-1.9s-0.6-1-1-1.4
			C160,234,159.4,233.8,158.7,233.9 M158.7,231.3c0.9,0,1.8,0.1,2.5,0.4c0.8,0.3,1.4,0.7,1.9,1.3c0.5,0.6,0.9,1.2,1.2,2
			c0.3,0.8,0.4,1.7,0.4,2.6s-0.1,1.8-0.4,2.6c-0.3,0.8-0.7,1.4-1.2,2c-0.5,0.6-1.2,1-1.9,1.3c-0.8,0.3-1.6,0.4-2.5,0.4
			s-1.7-0.1-2.5-0.4c-0.8-0.3-1.4-0.7-1.9-1.3s-1-1.2-1.2-2c-0.3-0.8-0.4-1.6-0.4-2.6s0.1-1.8,0.4-2.6c0.3-0.8,0.7-1.5,1.2-2
			c0.5-0.6,1.2-1,1.9-1.3C157,231.4,157.8,231.3,158.7,231.3"/>
		<path class="st0" d="M142.2,271.6l1.1-2.2c0.2-0.3,0.4-0.5,0.7-0.5c0.2,0,0.4,0.1,0.5,0.2c0.1,0.1,0.2,0.3,0.2,0.5
			c0,0.2,0,0.3-0.1,0.5l-1.1,2.1c-0.2,0.3-0.4,0.5-0.8,0.5c-0.2,0-0.3-0.1-0.5-0.2s-0.2-0.3-0.2-0.5
			C142,271.9,142.1,271.7,142.2,271.6"/>
		<path class="st0" d="M153,259.1c0-0.5,0.3-0.8,0.8-0.8c0.2,0,0.4,0.1,0.5,0.2c0.1,0.1,0.2,0.3,0.2,0.6v10.7c0,0.3-0.1,0.5-0.2,0.6
			c-0.2,0.1-0.3,0.2-0.5,0.2c-0.5,0-0.8-0.3-0.8-0.8L153,259.1L153,259.1z"/>
		<path class="st0" d="M159.6,268.9c0.2,0,0.4,0.1,0.6,0.3c0.2,0.2,0.3,0.4,0.3,0.6s-0.1,0.4-0.3,0.6c-0.2,0.2-0.4,0.3-0.6,0.3
			s-0.4-0.1-0.6-0.3c-0.2-0.2-0.3-0.4-0.3-0.6s0.1-0.4,0.3-0.6C159.1,269,159.3,268.9,159.6,268.9"/>
		<path class="st0" d="M170.2,259.7v5h2.2c0.8,0,1.4-0.2,1.9-0.7c0.5-0.5,0.7-1.1,0.7-1.8s-0.2-1.4-0.7-1.8
			c-0.5-0.4-1.1-0.7-1.8-0.7L170.2,259.7L170.2,259.7z M168.7,259.2c0-0.3,0.1-0.5,0.2-0.6s0.3-0.2,0.5-0.2h3.1
			c0.5,0,1.1,0.1,1.5,0.2s0.9,0.4,1.3,0.7c0.4,0.3,0.7,0.7,0.9,1.2c0.2,0.5,0.3,1,0.3,1.6c0,0.5-0.1,1-0.3,1.5
			c-0.2,0.5-0.5,0.9-0.8,1.2c-0.4,0.4-0.8,0.6-1.2,0.8c-0.5,0.2-1,0.3-1.5,0.3h-2.5v3.9c0,0.2-0.1,0.4-0.2,0.5
			c-0.1,0.1-0.3,0.2-0.5,0.2s-0.4-0.1-0.5-0.2c-0.1-0.1-0.2-0.3-0.2-0.6L168.7,259.2L168.7,259.2z"/>
		<path class="st0" d="M180.8,268.9c0.2,0,0.4,0.1,0.6,0.3c0.2,0.2,0.3,0.4,0.3,0.6s-0.1,0.4-0.3,0.6c-0.2,0.2-0.4,0.3-0.6,0.3
			s-0.4-0.1-0.6-0.3c-0.2-0.2-0.3-0.4-0.3-0.6s0.1-0.4,0.3-0.6C180.4,269,180.6,268.9,180.8,268.9"/>
		<path class="st0" d="M36.9,266.5v-6.8c0-0.3,0.1-0.5,0.2-0.8s0.3-0.4,0.5-0.5c0.2-0.1,0.5-0.2,0.8-0.2c0.4,0,0.8,0.1,1,0.4
			s0.4,0.6,0.4,1v7.2c0,1-0.1,1.7-0.4,2.2c-0.6,1.1-1.7,1.7-3.3,1.7c-0.8,0-1.5-0.2-2.1-0.5s-1-0.8-1-1.5c0-0.2,0-0.5,0.2-0.6
			c0.1-0.2,0.2-0.4,0.5-0.5c0.2-0.1,0.4-0.2,0.7-0.2c0.2,0,0.3,0,0.5,0.1s0.3,0.1,0.5,0.2c0.2,0.1,0.3,0.2,0.5,0.2s0.3,0.1,0.4,0.1
			c0.1,0,0.2-0.1,0.3-0.1C36.6,268.1,36.9,267.5,36.9,266.5"/>
		<path class="st0" d="M45.6,259.8v5.9c0,0.8,0.2,1.4,0.8,1.8c0.5,0.4,1.1,0.7,1.8,0.7s1.4-0.2,1.8-0.7c0.5-0.4,0.7-1,0.7-1.8v-5.9
			c0-0.5,0.1-0.8,0.4-1.1c0.3-0.3,0.6-0.4,1-0.4c0.4,0,0.8,0.1,1,0.4s0.4,0.6,0.4,1.1v5.9c0,1.1-0.2,2-0.7,2.8s-1.1,1.4-1.9,1.8
			c-0.8,0.4-1.8,0.6-2.8,0.6c-1.1,0-2-0.2-2.8-0.6s-1.5-1-1.9-1.8c-0.5-0.8-0.7-1.7-0.7-2.8v-5.9c0-0.5,0.1-0.8,0.4-1.1
			s0.6-0.4,1-0.4s0.8,0.1,1,0.4C45.5,258.9,45.6,259.3,45.6,259.8"/>
		<path class="st0" d="M56.2,260.5c0-0.1-0.1-0.3-0.2-0.5c0-0.1-0.1-0.3-0.1-0.4c0-0.4,0.2-0.7,0.4-1c0.3-0.2,0.6-0.4,1-0.4
			c0.3,0,0.7,0.1,0.9,0.3s0.4,0.5,0.6,0.9l2.4,6.3l2.4-6.2c0.3-0.8,0.8-1.2,1.5-1.2c0.2,0,0.5,0,0.7,0.2c0.2,0.1,0.4,0.3,0.5,0.5
			s0.2,0.4,0.2,0.6c0,0.1-0.1,0.5-0.2,0.9l-3.7,8.9c-0.2,0.4-0.4,0.7-0.6,0.9s-0.5,0.3-0.9,0.3c-0.4,0-0.7-0.1-0.9-0.3
			c-0.2-0.2-0.4-0.5-0.6-1L56.2,260.5L56.2,260.5z"/>
		<path class="st0" d="M69.4,263.3v-3.5c0-0.5,0.1-0.8,0.4-1s0.6-0.4,0.9-0.4h4.5c0.4,0,0.7,0.1,1,0.3s0.4,0.5,0.4,1
			c0,0.4-0.1,0.7-0.3,0.9s-0.6,0.4-1,0.4h-3v2.2h2.8c0.4,0,0.8,0.1,1,0.4c0.2,0.2,0.3,0.5,0.3,0.9s-0.1,0.6-0.4,0.9
			c-0.2,0.3-0.6,0.4-1,0.4h-2.8v2.3h3c0.5,0,0.8,0.1,1.1,0.4c0.2,0.2,0.3,0.5,0.3,0.9c0,0.4-0.1,0.7-0.3,1c-0.2,0.2-0.6,0.4-1.1,0.4
			h-4.4c-0.5,0-0.8-0.1-1.1-0.4c-0.2-0.3-0.4-0.6-0.4-1L69.4,263.3L69.4,263.3z"/>
		<path class="st0" d="M79.6,259.8c0-0.4,0.1-0.8,0.4-1c0.2-0.3,0.6-0.4,1-0.4c0.3,0,0.6,0.1,0.8,0.2c0.2,0.1,0.4,0.3,0.7,0.6
			l5.3,6.4h0v-5.8c0-0.4,0.1-0.7,0.3-1c0.2-0.3,0.6-0.4,1-0.4c0.5,0,0.8,0.1,1.1,0.4c0.2,0.3,0.4,0.6,0.4,1v9.4
			c0,0.5-0.1,0.8-0.4,1.1c-0.3,0.3-0.6,0.4-1.1,0.4c-0.3,0-0.6-0.1-0.8-0.2c-0.2-0.1-0.4-0.4-0.7-0.6l-5.3-6.4v5.9
			c0,0.4-0.1,0.8-0.4,1c-0.3,0.2-0.7,0.4-1.1,0.4c-0.4,0-0.7-0.2-0.9-0.4c-0.2-0.3-0.3-0.6-0.3-1L79.6,259.8L79.6,259.8z"/>
		<path class="st0" d="M95.7,269.2V261h-1.6c-0.5,0-0.8-0.1-1.1-0.3c-0.2-0.2-0.4-0.5-0.4-0.9c0-0.9,0.5-1.3,1.5-1.3h6
			c1,0,1.5,0.4,1.5,1.3c0,0.4-0.1,0.7-0.4,0.9c-0.3,0.2-0.6,0.3-1.1,0.3h-1.6v8.2c0,0.5-0.1,0.8-0.4,1.1s-0.6,0.4-1,0.4
			s-0.8-0.1-1-0.4C95.8,270,95.7,269.7,95.7,269.2"/>
		<path class="st0" d="M107,259.8v5.9c0,0.8,0.2,1.4,0.8,1.8c0.5,0.4,1.1,0.7,1.8,0.7s1.4-0.2,1.8-0.7s0.7-1,0.7-1.8v-5.9
			c0-0.5,0.1-0.8,0.4-1.1c0.3-0.3,0.6-0.4,1-0.4c0.4,0,0.8,0.1,1,0.4c0.3,0.2,0.4,0.6,0.4,1.1v5.9c0,1.1-0.2,2-0.7,2.8
			s-1.1,1.4-1.9,1.8c-0.8,0.4-1.8,0.6-2.8,0.6c-1.1,0-2-0.2-2.8-0.6s-1.5-1-1.9-1.8c-0.4-0.8-0.7-1.7-0.7-2.8v-5.9
			c0-0.5,0.1-0.8,0.4-1.1s0.6-0.4,1-0.4s0.8,0.1,1,0.4C106.8,258.9,107,259.3,107,259.8"/>
		<path class="st0" d="M118.3,259.8c0-0.4,0.1-0.8,0.4-1c0.2-0.3,0.6-0.4,1-0.4h3.3c1.3,0,2.3,0.2,3.1,0.8s1.4,1.1,1.9,1.8
			c0.6,1,0.9,2.2,0.9,3.5c0,0.8-0.1,1.5-0.4,2.3c-0.3,0.7-0.7,1.4-1.2,2c-0.5,0.6-1.1,1-1.8,1.3c-0.7,0.3-1.5,0.5-2.3,0.5h-3.4
			c-0.4,0-0.8-0.1-1.1-0.4s-0.4-0.6-0.4-1L118.3,259.8L118.3,259.8z M121.2,261v7h1.6c0.9,0,1.7-0.3,2.3-1c0.2-0.3,0.4-0.6,0.6-1.1
			c0.1-0.5,0.2-1,0.2-1.5c0-1.1-0.2-1.9-0.7-2.4c-0.6-0.7-1.4-1-2.3-1H121.2z"/>
		<path class="st0" d="M132.1,263.3v-3.5c0-0.5,0.1-0.8,0.4-1s0.6-0.4,0.9-0.4h4.5c0.4,0,0.7,0.1,1,0.3c0.2,0.2,0.4,0.5,0.4,1
			c0,0.4-0.1,0.7-0.3,0.9s-0.6,0.4-1,0.4h-3v2.2h2.8c0.4,0,0.8,0.1,1,0.4s0.4,0.5,0.4,0.9s-0.1,0.6-0.4,0.9c-0.2,0.3-0.6,0.4-1,0.4
			H135v2.3h3c0.5,0,0.9,0.1,1.1,0.4s0.4,0.5,0.4,0.9c0,0.4-0.1,0.7-0.4,1c-0.2,0.2-0.6,0.4-1.1,0.4h-4.4c-0.5,0-0.8-0.1-1.1-0.4
			c-0.2-0.3-0.4-0.6-0.4-1L132.1,263.3L132.1,263.3z"/>
		<rect y="222.3" class="st0" width="202.1" height="2"/>
		<rect y="248.4" class="st0" width="202.1" height="2"/>
		<g>
			<defs>
				<rect id="SVGID_1_" x="13.5" y="22.2" width="13.7" height="70.6"/>
			</defs>
			<use xlink:href="#SVGID_1_"  style="overflow:visible;fill:#FFFFFF;"/>
			<clipPath id="SVGID_00000036234615353769649800000002950571734008463792_">
				<use xlink:href="#SVGID_1_"  style="overflow:visible;"/>
			</clipPath>
			<g style="clip-path:url(#SVGID_00000036234615353769649800000002950571734008463792_);">
				<rect x="13.5" y="22.2" class="st0" width="13.7" height="70.6"/>
			</g>
		</g>
		<path class="st1" d="M155.4,173.9c-14.6,9.2-31.6,14.9-49.9,15.9c-1.9,0.1-3.8,0.2-5.8,0.2c-2.2,0-4.5-2.6-6.6-2.7
			c-1.4-3.4-2.5-6.7-2.9-16.7c0.3-0.6,0.5-1,0.8-1.6c16.3-11.5,6.1-2.4,9-13.7l0.1-0.3c1-1.3,1.2-1.6,2.7-1.1
			c1.2-1.1,1.6,1.5,3.5,1.6l0.4-0.1c0.4-0.4,1-0.4,1.5-0.7c0.5-0.3,0.9-0.4,1.4-0.7c1-0.4,1.9-0.7,3-1.1c0.5-0.2,1-0.3,1.5-0.5
			c0.5-0.2,0.7-0.7,1.1-0.9c0.7-0.3,1.4-0.5,2.2-0.5c0.4,0,0.7,0,1.1,0c1.2,0.1,2.2,0.1,3.3-0.5l0.1-0.1c0.2-0.4,0.4-0.6,0.6-0.8
			c0.3-0.3,0.4-0.6,0.8-0.7c0.2-0.1,0.3,0,0.4-0.1c0.2-0.1,0.2-0.2,0.3-0.3c0.1,0,0.3-0.1,0.4,0c0.2,0.1,0.1,0.3,0.2,0.4
			c0-0.1,0.1-0.1,0.1-0.1c0.9-0.6,0.7,0.2,0.6,1c0,0.2-0.1,0.2-0.1,0.4c0,0.2-0.1,0.5-0.2,0.8c-0.1,0.2-0.1,0.4-0.3,0.7
			c0.3-0.4,0.6-0.8,1.1-0.9c0.1-0.1,0.7-0.1,0.8,0.1c0.2,0.2-0.2,0.4-0.3,0.6c-0.2,0.3-0.3,0.6-0.4,0.8s-0.4,0.4-0.6,0.6
			c-0.4,0.5-0.6,0.9-1.1,1.4c-0.5,0.4-1.1,0.6-1.7,1c-1.8,1.1-1.7,1.1-3.9,0.8c-1.2-0.2-3.5-0.1-4.6,0.6c-2.1,1.3-7.8,7-6.8,8.2
			c0.2,0.3,6.4,1.9,9.2,0.9c0.9-0.3,0.1-2.3,0.1-2.8c0-1.9-0.2-2.8,2.2-4.6c0.9-0.6,1.3-0.9,2.4-1.1c2.7-0.6,6.5,0.1,7.8,5.1
			c0.2,0.3,0.4,0.6,0.7,0.9c0.4-0.8,0.8-1.6,1.3-2.6c0.4-0.8,1-1.6,1.3-2.2c-0.2-0.8-0.4-1.8-0.6-2.8c-0.2-1-0.3-2-0.6-2.9
			c-0.2-0.7-0.5-1.4-0.9-2.1c-0.2-0.4-0.3-0.8-0.6-1.1c-0.3-0.3-0.7-0.3-1.2-0.5c-0.5-0.2-0.9-0.5-1.2-0.6c-0.2-0.1-0.5,0-0.8-0.1
			c-0.1,0-0.9-0.3-0.9-0.4c-0.4-0.4-1-0.6-1.1-1.2c-0.1-0.6-1.2-0.7-1.8-1c-1.1-0.6-1.7-1.5-2.7-1.4c-1.6,0.1-2.4-0.3-3.4-1.5
			c-0.3-0.4-0.7-0.9-1.2-1.4c-0.6-0.5-1.2-1-2-1.5c-0.6-0.4-1.2-1-1.8-1.4c-0.9-0.7-1.8-1.4-2.8-2c-1.3-0.8-2.6-1.9-3.8-2.7
			c-0.8-0.5-1.7-1.3-2.6-1.9c-0.6-0.4-1.1-0.6-1.7-1c-0.2-0.1-0.5-0.4-0.7-0.5c-0.5-0.3-1-0.4-1.5-0.6c-0.3-0.1-0.7-0.3-1-0.4
			c-0.6-0.2-1.3-0.5-2.2-0.6c-0.8,0-1.6,0.1-2.3,0.2c-0.8,0.1-1.2,0.2-1.4,0.1c-0.5-0.2-0.3-0.6-0.1-0.8c0-0.1,0.4-0.2,0.8-0.3
			c0.2-0.1,0.5,0,0.7-0.1c0.3-0.1,0.6-0.2,0.9-0.3c0.6-0.2,1.2-0.2,1.2-0.4c-0.3-0.1-0.8,0-1.3-0.1c-0.4-0.1-0.8-0.2-1.3-0.3
			c-0.5-0.1-0.9-0.2-1.2-0.4c-0.2-0.2-0.2-0.3-0.2-0.5c0-0.2,0.4-0.4,0.8-0.4c0.3,0,0.8,0.2,1.2,0.3c0.4,0.1,0.8,0,1.2,0.1
			c0.5,0.1,0.9,0.2,0.9,0.1c0.1-0.2-0.6-0.4-1.3-0.8c-0.4-0.2-0.8-0.5-1.1-0.7c-0.4-0.2-0.8-0.3-0.9-0.4c-0.3-0.3-0.2-0.8,0.3-0.9
			c0.1,0,0.5-0.1,0.8,0.1c0.2,0.1,0.5,0.3,0.7,0.4c0.3,0.2,0.7,0.2,0.9,0.4c0.4,0.2,0.7,0.5,0.9,0.7c0.2,0.1,0.4,0,0.4-0.1
			c0.1-0.2-0.2-0.4-0.7-0.7c-0.3-0.2-0.6-0.6-1-0.8c-0.3-0.2-0.6-0.2-0.8-0.4c-0.2-0.2-0.1-0.3-0.1-0.4c0.1-0.3,0.3-0.3,0.7-0.3
			c0.5,0,1.2,0.3,1.8,0.9c0.3,0.3,0.7,0.7,1.2,0.9c0.3,0.2,0.6,0.3,0.9,0.4c0.5,0.2,0.9,0.2,1.2,0.2c0.4,0,0.7,0,0.8-0.2
			c0.2-0.4-0.1-1,0-1.6c0.1-0.4,1.1-0.9,1.5-0.4c0.2,0.3-0.2,0.7-0.1,1.1c0.1,0.3,0.4,0.7,0.5,1.1s0.1,0.9,0.2,1.3
			c0.2,0.7,0.2,0.6,0.4,1.4c0.1,0.3,0.6,0.7,1.3,1.3c0.6,0.5,1.4,1,2,1.4c1.8,0.9,2.6,1.2,4,1.8c0.6-0.1,0.8-0.1,1.1,0
			c0.5,0.1,0.9,0.5,2.4,1.3c0.8,0.4,1.5,0.8,2.2,1.2c0.9,0.5,1.8,1,2.8,1.5c1.1,0.5,2,0.9,3,1.2c0.5,0.1,1,0.2,1.7,0.3
			c1.6,0.2,3.4,0.2,4.7,1.1c0.2,0.1,0.9,0.6,0.9,1c0,0.5,0.6-0.1,1-0.1c0.3,0,0.7,0.3,1,0.2c0.3-0.1-0.1-0.5,0.1-0.7
			c0.4-0.4,1.4-0.7,1.8-0.7c1,0,1.7,0.7,2,0.8c0.3,0.1,0.7,0.1,0.9,0.4c1.4-0.4,2.9-0.8,3.6-1c-0.8-0.7,0.4-0.3,1-0.9
			c-0.2,0-0.2-0.6-0.2-2.1c0-0.4,0.3-0.6,0.5-0.4l0,0c0-0.4-0.1-2.2,0.2-3.3c0.1-0.4-0.4-0.5-0.5-0.6c-0.1-0.1-0.2-0.1-0.3-0.3
			c0.1,0,0.3,0.1,0.4,0.1c0.4,0.1,0.5,0,0.9,0c-0.1,0-0.2-0.1-0.3-0.1c0.4,0,1-0.5,0.3-0.9c0.4,0,0.7-0.1,1.1-0.2
			c-0.2-0.1-0.5,0-0.8,0c-0.3,0-0.5,0-0.7,0.1c0.4-0.2,1-0.3,1.5-0.3c0.1,0,0.1,0,0.2,0c-0.1,0-0.1,0-0.2,0
			c-0.3-0.1-0.5-0.2-0.8-0.3c-0.2,0-0.5-0.1-0.7-0.1c0.4-0.1,0.4-0.1,0.6-0.1c0.2,0,0.5,0,0.7,0.1c0.1,0.1,0.3,0.1,0.6,0.1
			c0.1,0,0.3-0.1,0.5-0.1c-0.2,0-0.5-0.1-0.6-0.1c0.7,0,0.6-0.1,0.9-0.1c0.2,0,0.5-0.2,0.7-0.2h0c-0.1,0-0.3,0-0.4-0.1
			c-0.2,0-0.3,0-0.5-0.1c0.4,0.1,1.1,0,1.6,0c-0.2-0.1-0.3-0.1-0.5-0.3c1.1,0.5,2.4-0.2,4.1,1.3c2.3,1.9,2.8,3.9,2.2,6.2
			c-0.1,0.2-0.1,0.4-0.2,0.5c0.8,0.1,0.3,1.6,0.2,2.2c-0.7,1.1-1,0.1-1.1,0.1c-0.1,0.2-0.3,0.5-0.4,0.8c-0.1,0.5-0.1,1-0.2,1.4
			c1-0.1,1.8-0.9,2.4-1.3c0.5-0.3,0.7-0.6,1.3-0.5c0.4,0.1,0.7,0.7,1.1,0.6c0.3,0,0.5-0.6,1.1-0.5c0.5,0.1,0.8,0.3,1.1,0.6
			c0.3,0.2,0.2,0.7,0.5,0.7s0.4-0.9,0.6-1.1c0.2-0.2,0.6,0.2,1.2-0.2c0.3-0.2,0.2-0.5,0.6-0.6c0.3-0.1,0.9-0.2,1.3-0.2
			c0.4-0.1,0.7-0.1,1-0.2c0.3-0.1,0.5-0.3,0.8-0.4c0.4-0.1,0.8,0,1.1-0.1c0.4-0.1,0.9-0.4,1.2-0.6c0.3-0.2,0.7-0.3,1-0.5
			c0.4-0.3,0.6-0.7,1-1.1c0.4-0.4,0.9-0.7,1.2-1.1c0.5-0.6,1.1-1.1,1.7-1.6c2.4-1.6,4.4-3.2,6.7-4.9c0.8-0.6,0.8-3.2,0.5-3.9
			c-0.3-0.8,0-0.8,0.1-1.6c0-0.2-0.1-0.4-0.1-0.6c-0.1-0.2,0-0.3-0.1-0.5c-0.2-0.2-0.4-0.3-0.4-0.4c0-0.1-0.1-0.2,0-0.4
			c0-0.3,1-0.3,1.5,0.3c0.4,0.4,0.4,1.4,0.6,1.6c0.4,0.5,1.3,0.3,1.7-0.2c0.3-0.4,0.4-0.9,0.6-1.4c0.1-0.4,0.4-0.7,0.5-0.8
			c0.1-0.2,0.2-0.4,0.4-0.5c0.3-0.1,0.6-0.1,0.7,0.2c0,0.1,0.1,0.2,0,0.3c0,0.2-0.2,0.4-0.2,0.6c-0.1,0.2,0,0.3-0.1,0.5
			c-0.1,0.2-0.2,0.3-0.2,0.4c-0.1,0.1,0,0.3,0,0.4c0,0.3,0.1,0.3,0.3,0.4c0.2,0.1,0.2-0.1,0.5-0.3c0.3-0.3,0.4-0.4,0.8-0.7
			c0.1-0.1,0.3-0.2,0.5-0.3c0.3-0.2,0.4-0.4,0.6-0.4c0.4-0.1,1.1,0.1,0.9,0.5c-0.1,0.1-0.4,0.4-0.6,0.7c-0.2,0.2-0.4,0.4-0.6,0.7
			c-0.2,0.1-0.2,0.3-0.4,0.4c-0.2,0.1-0.7,0.4-0.6,0.5c0,0,0.2,0.1,0.5,0c0.2-0.1,0.4-0.2,0.7-0.4c0.3-0.1,0.5-0.1,0.8-0.2
			c0.2-0.1,0.3-0.2,0.5-0.2c0.3-0.1,0.6-0.1,0.7-0.1c0.4,0.1,0.5,0.6,0.4,0.9c0,0.1-0.1,0.2-0.3,0.3c-0.6,0.3-0.6,0.2-1.4,0.6
			c-0.2,0.1-0.4,0.1-0.6,0.2c-0.2,0.1-0.4,0.3-0.5,0.4c0.9-0.1,1.5,0.2,2.3,0.1c0.3,0,0.6-0.1,1,0.1c0.3,0.3,0.3,0.4,0.1,0.7
			c-0.3,0.1,0.3,0.1-1.5,0.2c-0.4,0-0.8,0.1-1.1,0.1c-0.2,0-0.5,0.1-0.8,0.1c-0.2,0.1-0.3,0.1-0.5,0.2l-0.1,0l-1,0l-1.6,1.6
			c-0.4,0.2-0.8,0.4-1,0.7c-0.4,0.4-1.6,1.9-1.9,2.2l0,0.1c-3.7,4-4.2,6.5-9.3,10.6c-0.3,0.6-2.3,1.7-2.9,1.9
			c-0.1,0-0.1,0.3-0.2,0.9c-0.3,1.1-0.7,1.5-1.6,2.1c-1.1,0.7-2.6,1.4-3.8,0.8c-0.2,0.8-0.5,1.4-1.3,2.1c-0.3,0.3-0.7,0.6-0.9,1
			c-0.1,0.2-0.1,0.5-0.2,0.7c-0.2,0.6-0.4,1.2-0.6,1.8c-0.9,3.3-2,13.8-0.9,13.5c0.3,1-1.2,3.2-1.5,4.7L155.4,173.9L155.4,173.9z"/>
		<path class="st1" d="M67.4,184.9c-10.2-3.3-19.7-8.1-28.2-14.2l-0.4-2c-2.2-1.5-3.9-4-6.5-7.9c0.3-0.9-0.8-1-1.4-1.6
			c-0.9-0.8-1-1.5-1.4-2.6c-0.2-0.6-0.3-1.1-0.6-1.7c-0.3-0.6-1-1.4-1.5-1.9c-1.3-1.4-2.8-2.8-3.9-4.2c0.3-0.7,0.7-1.3,1.3-2.1
			c-0.4-0.7-0.7-1.2-1-1.8c-0.4-0.7-0.7-1.4-1.1-2.1c-0.4-0.6-0.9-1.7-1.3-2.2c-0.5-0.5-0.8-0.9-1.4-1.4c-0.5-0.4-1.3-0.9-1.7-1.4
			c-0.4-0.6-0.7-1.2-0.6-2c0-0.3,0-0.3,0.1-0.7c-0.1-0.2-0.2-0.4-0.5-0.6c-0.2-0.2-0.4-0.4-0.4-0.6c-0.1-0.4,0.2-0.9,0.3-1.4
			c0.1-0.1,0.2-0.3,0.3-0.4c0.1-0.1,0.4-0.1,0.5-0.2c0.1-0.1,0-0.1,0.3-0.2c0.1-0.1,0.3-0.1,0.4-0.1c0.1-0.1,0.2-0.3,0.4-0.4
			c0.2-0.1,0.4,0.1,0.5,0c0.2-0.1,0.1-0.4,0.6-0.6c0.3-0.1,0.6,0,0.9,0c0.3,0,0.8-0.1,1-0.1c0.9,0,0.8,0.6,1,1.4
			c0.1,0.6,0.5,1.4,0.4,1.9c0,0.2-0.3,0.7-0.4,0.9c-0.1,0.2-0.4,0.7-0.4,1c0,0.4,0,0.7,0,0.9c0.1,0.3,0.3,0.4,0.4,0.7
			c0.1,0.2,0.2,0.2,0.4,0.5c0.5,0.8,0.9,1.4,1.5,2.1c0.5,0.6,1,1.5,1.6,2.1c0.6,0.6,1,1,1.7,1.6c0.2-0.1,0.6-0.1,0.8-0.1
			c0.2,0.1,0.3,0.3,0.5,0.4c0.3,0.3,0.7,0.7,1,1c1.1,1.2,1.7,1.9,2.7,2.9c0.3,0.3,0.6,0.7,1,1.1c0.3,0.3,0.7,0.6,1,0.9
			c0.1,0.1,0.3,0.2,0.6,0.5c0.4,0.4,0.7,0.8,1.1,1.3c0.3,0.4,0.8,1.1,1.2,1.5c0.8,1,1.3,1.7,2,2.8c0.6,1.1,3.2,3.7,3.5,3.5
			c0.5-0.4,1.4-0.7,1.9-1c0.7-0.3,2.1,0.3,2.8,0.5c1.2,0.4,1.8,0.9,2.8,1.6c-0.3-0.8-0.3-1.8-0.5-2.5c-0.4,0.1-0.8,0-1-0.1
			c-0.3-0.1-0.5-0.3-0.8-0.5c-0.4-0.3-0.9-1.1-1.1-1.9c-0.1-0.5-0.1-1.1,0.2-1.2c0.2,0,0.3,0,0.7,0.1c-0.3-0.4-0.5-0.8-0.6-1.2
			c-0.1-0.4-0.1-0.8-0.2-1.2c0-0.2,0-0.4,0-0.6c0-0.2,0-0.5,0-0.8c0-0.6,0.2-1.4,0.6-2c0.3-0.5,0.6-0.8,1-1.3c0.4-0.5,1-1,1.6-1.3
			c0.6-0.4,1.2-0.4,1.8-0.5c0.4-0.1,0.9-0.3,1.3-0.2c0.2,0.1,0.6,0,0.8,0.1c0.3,0.1,0.5,0.2,0.8,0.2c0.5,0.1,0.9,0.3,1.3,0.5
			c0.3,0.1,0.5,0.5,0.8,0.7c0.3,0.2,0.7,0.5,0.8,0.8c0.3,0.4,0.5,1.1,0.7,1.6c0.2,0.6,0.4,1.5,0.3,2.5c0.3-0.2,0.5-0.3,0.7-0.1
			c0.1,0.1,0.3,0.5,0.4,1c0.1,0.4,0,1,0,1.3c0,0.9-0.1,1.1-0.6,1.7c-0.3,0.4-0.6,0.6-1,0.6c0.1,0.5,0.2,1.2,0.3,1.6
			c0.1,0.6,0.1,1.5,0.2,2.1c0.5-1.9,0.5-2.5,1.1-3.6c0.6-1.1,0.6-1.6,1.7-1.8c0.5-0.1,1.3-0.3,1.9-0.1c0.4,0.1,0.5,0.5,0.8,0.4
			c0.2,0,0.2-0.4,0.3-0.5c0.1-0.2,0.4-0.5,0.4-0.8c0-0.3-0.2-0.5-0.2-0.6c0-0.2,0.2-0.4,0.3-0.7c0.3-0.5-0.2-0.6-0.2-1.2
			c0-0.6,0.2-1,0.2-1.4c0-0.4-0.2-0.8-0.2-1.3c0.2-1.9,1.9-3.3,2.9-4.9c0.7-1.1,1-2.4,1.4-3.6c0.3-1,0.5-1.6,0.9-2.6
			c0.2-0.4,0.3-1.3,0.5-1.7c0.1-0.1,0.3,0,0.3-0.1c0.1-0.2,0.3-0.8,0.4-1c0.3-0.8,0.7-1.6,0.9-2.5c0.6-1.9,0.7-3.1,1-4.8
			c0.2-0.9,0.5-2.1,0.2-3c-0.1-0.4-0.4-0.7-0.6-0.8c-0.2-0.1-0.3-0.5-0.4-0.7c-0.2-0.4-0.5-0.6-0.8-0.8c-0.2-0.2-0.2-0.5-0.3-0.8
			c-0.2-0.5-0.3-0.8-0.2-1c0.1-0.2,0.3-0.4,0.6-0.4c0.2-0.1,0.4,0.1,0.7-0.1s0.1-0.5,0.5-0.7c0.7-0.3,0.8,0.2,1,0.1
			c0.2-0.1,0.6-0.2,0.9-0.3c0.2,0,0.3,0.1,0.6,0.1c0.3-0.1,0.5-0.2,0.7-0.2c0.4,0,1.4,0.8,1.7,1.1c0.7,0.7,0.3,1,0.1,1.7
			c0.2,0.9,0.4,1.6,0.2,2.3c-0.1,0.8-0.7,1.2-0.7,1.9c-0.1,1-0.4,1.6-0.5,2.6c-0.1,1.4-0.2,2.1-0.4,3.3c-0.2,0.9-0.3,2-0.4,2.7
			c-0.1,0.6-0.1,1.4-0.2,2.4c0.6,0.3,1.1,0.3,1.6,1c0,0,0,0.2,0,0.3l-1.6,4l-2.8,7.9l0.1,0.4c0,0.2-0.1,0.4-0.1,0.6
			c-0.2,0.9-0.2,1.9-0.1,2.8c0.2,1.8,1,2.7,1.2,4.4c0.1,1-0.7,1.9-1.2,2.9c-0.1,0.2-0.9,1.4-1.1,1.7c-0.9,1.1-1.8,2.2-2,2.7
			c0,0.1-0.1,0.2-0.1,0.3l-0.5,0.5l-0.2,2.9l-0.2,5.2L67.4,184.9L67.4,184.9z"/>
		<path class="st1" d="M162.8,168.7c-1.8,1.4-3.7,2.7-5.6,3.9l0.3-4.4c0.4-0.9,0.9-1.8,1.5-2.6c0.4-0.5,0.6-1.2,1.1-1.7
			c0.4-0.5,0.6-0.8,0.9-1.3c0.1-0.4,0.4-0.6,0.6-0.9c0.3-0.3,0.3-0.9,0.5-1.3c0.2-0.4,0.1-1.7,1.1-1.3c0.1-0.3,0.3-0.5,0.4-0.8
			c0.1-0.3,0.1-0.6,0.1-0.8c0.1-0.3,0.1-0.4,0.2-0.5c0.2-0.3,0.4-0.4,0.8-0.7c-0.1-0.2-0.1-0.5,0-0.8c0.1-0.4,0.2-0.8,0.4-1.1
			c0.4-0.7,0.2-1,0.3-1.6c0.1-0.7,0.8-0.7,1-0.2c0.2,0.6,0.1,1.6,0.1,2.3c0.1-0.4,0.3-1,0.4-1.4c0-0.3,0-0.8,0.2-1
			c0.2-0.4,0.7-0.2,0.8,0.1c0.1,0.2,0.1,1,0.1,1.2c0,0.9-0.1,1.6-0.3,2.5c-0.1,0.4-0.1,0.8-0.2,1.2c-0.1,0.5-0.1,0.8,0.1,1.2
			c0.1,0.4,0.1,1,0.6,1.2c0.3,0.1,1.1-0.2,1.3-0.4c0.8-0.4,2-0.8,2.3,0c0.4,0.8-1.1,1.4-1.7,1.6c-0.2,0.1-0.5,0.1-0.7,0.2
			c-0.2,0.1-0.5,0.3-0.7,0.4c-0.5,0.3-1,0.7-1.4,1c-0.5,0.5-1,0.6-1.7,0.8c-0.3,0.1-0.4,0-0.7,0.2c-0.2,0.1-0.4,0.3-0.5,0.5
			c-0.2,0.3-0.4,0.6-0.5,0.9c-0.3,0.7-0.6,1.3-0.8,2.2c-0.1,0.2-0.1,0.4-0.2,0.6L162.8,168.7L162.8,168.7z"/>
		<path class="st1" d="M159.9,170.8c-2.1,1.5-4.3,2.9-6.5,4.2l0.6-6.6c0-0.5-0.1-0.9-0.1-1.4c0-1.3,0.3-4.3,0.6-6.7
			c0.2-1.4,0.4-2.6,0.4-3.2c-0.1-1.1,0.3-1.9-0.2-2.9c-0.3-0.6-0.8-1.8-1-2.2c-0.2-0.4-0.4-0.8-0.7-1.1c-0.5-0.4-0.8-0.8-1.2-1.3
			c-0.3-0.3-0.8-0.7-1.1-1.2c-0.1-0.1-0.1-0.4-0.1-0.6c0.1-0.2,0.4-0.4,0.8-0.1c0.3,0.2,0.7,0.6,1,0.9c0.1,0.1,0.8,0.8,1.2,1
			c0.1,0.1,0.2,0,0.3,0c0.2-0.1,0.4-0.2,0.4-0.4c0-0.2-0.2-0.4-0.3-0.7c-0.2-0.5-0.6-1.1-0.7-1.3c-0.2-0.6-0.9-1.3-0.8-1.9
			c0-0.3,0.1-0.3,0.2-0.4c0.2-0.1,0.4-0.1,0.7,0.1c0.3,0.2,0.5,0.5,0.6,0.7c0.2,0.6,0.6,1.5,1,2c0.1,0.1,0.2,0.4,0.3,0.6
			c0.1,0.1,0.2,0.1,0.3,0.1c0.1,0,0.2-0.1,0.2-0.1c0-0.1,0-0.4,0-0.5c-0.1-0.3-0.3-0.9-0.3-1.2c0-0.8-0.1-1.2-0.2-2
			c0-0.3-0.1-0.7,0.2-0.9c0.3-0.2,0.8-0.1,1,0.2c0.2,0.3,0.2,1.3,0.3,2c0.1,0.3,0.1,0.7,0.1,1.1c0,0.4,0.1,0.7,0.1,0.9
			c0.1,0.3,0.4,0.4,0.5,0.1c0-0.2,0-1.1,0.1-1.8c0-0.2,0.1-0.4,0.1-0.6c0-0.2-0.1-0.5,0-0.6c0.1-0.6,0.2-1,0.7-0.9
			c0.4,0.1,0.5,0.6,0.5,1c0,0.4,0,0.6,0.1,1.1c0,0.2,0,0.4,0.1,0.7c0,0.2,0,0.5,0,0.8c0,0.4-0.1,0.9,0,1.3c0.1,0.4,0.3,0.8,0.5,1.2
			c0.3,0.5,0.7,1,1.5,0.8c0.3-0.1,0.4-0.2,0.6-0.4c0.2-0.2,0.5-0.3,0.9-0.4c0.4-0.1,0.9-0.1,1.2,0.2c0.2,0.2,0.5,0.4,0.6,0.6
			s0.1,0.6,0,0.6c-0.2,0.3-0.6,0.1-1,0c-0.2,0-0.4,0.1-0.7,0.1c-0.4,0.1-0.7,0.6-0.9,0.8c-0.3,0.4-0.7,0.6-0.9,0.9
			c-0.2,0.2-0.3,0.5-0.6,0.7c-0.2,0.1-0.5,0.3-0.6,0.6c-0.2,0.3-0.2,0.6-0.2,1c0,0.5-0.1,1-0.1,1.5c0,0.6-0.1,1.1-0.1,1.8
			c0,0.4,0,0.9-0.1,1.4c0,0.4,0.1,0.7,0.1,1.1c0,0.7,0.1,1.2,0.2,1.9c0.1,0.3,0.1,0.6,0.2,1c0.1,0.4,0.1,0.9,0.1,1.2
			c0.1,0.6,0.1,1.1,0.2,1.8c0,0.2,0,0.4,0.1,0.6L159.9,170.8L159.9,170.8z"/>
		<path class="st1" d="M102.6,145.4c0.1-0.1,0.1-0.1,0.1-0.1l1-0.6l-0.2,0.4l0.1,0l0.7-0.6L104,145c0.4-0.1,1-0.4,1.4-0.6l-0.2,0.4
			l0.5-0.7l0.1,0.7c0.2,0,0.3-0.3,0.5-0.6c0.1,0.4,0.2,0.9,0.2,0.9l0.3-1.3v1.1l0.2-0.9l0.1,1l0.4-1.2l0.2,1.5l0.3-0.4
			c0.1,0.5,0.3,1.1,0.8,0.6c0,0.2-0.1,0.5,0.1,0.7l0.4-1l-0.2,1.1l0.4-0.9l-0.1,1l0.6-1.1l-0.1,1.6c0.1-0.1,0.2-0.2,0.4-0.4
			c0,0.6,0.2,0.8,0.5,1.2l0.3,0.6c0.3,0.4,0.5,0.8,0.6,1.3c0.3-0.2,0.6-0.4,0.9-0.7c0.6-0.4,1.1-0.7,1.9-1.2c0.7-0.4,1.3-0.8,2-1.3
			c0.6-0.4,1.2-0.8,1.8-1.1c0.6-0.4,1.1-0.7,1.5-1.1c0.3-0.3,0.3-0.6,0.7-0.9c0.3-0.2,0.5-0.2,1.1-0.6c0.4-0.3,0.7-0.6,1-1
			c0.2-0.2,0.7-0.6,0.9-0.8c0.3-0.2,0.7-0.8,0.7-1.2c0-0.5,0.1-0.8,0.3-1.2c0.1-0.4,0.3-1.1,0.4-1.7c0.1-0.4,0.2-0.9,0.2-1.2
			c-0.1-0.3-0.3-0.6-0.4-0.9c-0.1-0.3-1.1-0.4-0.6-1c0.4-0.4,1.1-0.3,1.5-0.1c0.5,0.2,0.7,0.3,0.9,0.8c0.1,0.2,0.2,0.5,0.2,0.8
			c0,0.2,0,0.4,0,0.6c0.1,0.4,0.4,0.6,0.6,0.8c0.7,0.4,1.8,0.3,2.8-0.1c0.5-0.2,0.9-0.4,1.2-0.6c0.5-0.2,1-0.5,1.5-0.7
			c0.4-0.3,1.3-0.7,1.8-0.7c0.5,0,0.8,0.1,0.7,0.7c-0.1,0.3-0.7,0.5-1.1,0.8c-0.4,0.2-0.7,0.4-1.1,0.7c-0.1,0.1-0.5,0.4-0.8,0.5
			c-0.3,0.1-0.6,0.2-0.5,0.4c0.1,0.2,0.2,0.2,0.5,0.1c0.4-0.2,0.9-0.5,1.4-0.6c0.4-0.1,0.7-0.2,1.1-0.3c0.3-0.1,0.7-0.2,1.1-0.4
			c0.5-0.2,1.3-0.4,1.5,0.3c0.2,0.8-0.9,0.9-1.5,1.1c-0.6,0.3-1.1,0.7-1.8,0.8c-0.3,0.1-0.7,0.2-1,0.3c-0.4,0.1-0.7,0.1-0.6,0.5
			c0.1,0.2,0.7,0,1.4-0.2c0.6-0.1,1.2-0.2,1.6-0.3c0.8-0.2,1.5-0.4,1.8,0.1c0.1,0.1,0.1,0.3,0.1,0.5c-0.1,0.2-1.3,0.6-1.8,0.7
			c-0.9,0.2-1.7,0.5-2.7,0.6c-0.2,0-0.6,0-0.7,0.2c-0.1,0.1-0.1,0.3-0.1,0.4c0.1,0.2,0.3,0.3,1.1,0.5c0.9,0.2,2,0.3,2.3,0.6
			s0.2,0.8-0.5,0.8c-0.6,0-1.4-0.3-2-0.4c-0.5-0.1-1.1-0.3-1.6-0.4c-0.6-0.1-1.3,0.3-1.9,0.4c-0.4,0.1-0.9,0.3-1.5,0.4
			c-0.4,0.1-0.8,0.1-1.2,0.3c-0.4,0.2-0.6,0.6-0.9,0.9c-0.3,0.2-0.7,0.5-1,0.8c-0.8,0.7-1.4,1.4-1.9,1.9c-1.7,1.6-3.4,3.3-5.3,4.9
			c-0.5,0.4-1.1,0.8-1.6,1.1c-0.4,0.3-0.9,0.6-1.3,0.9c-0.4,0.3-0.8,0.6-1.2,0.9c-0.4,0.3-0.8,0.7-1.2,1l-0.3,0.1l0,0.1
			c-0.4,1.5-0.3,3.6-0.9,5c0.4,1.3,1.9,0.4,2.8,1.6c1.2-0.5,1.8,0,3.6-0.2c0.9-0.1,2.9-0.9,3.6-0.4c0.1,0.1,0.6-0.2,0.8-0.2
			c0.5-0.2,0.9-0.3,1.4-0.5c3.7-2.8,7-3.5,11.1-4.9c0.5-0.4,0.9-0.9,1.3-1.3c0.3-0.3,0.9-1,1.1-1.3c0.1-0.2,1-0.7,1.4-0.7
			c0.5-0.1,0.2,0.3,0.7-0.1c0.6-0.4,0.9-0.4,1,0.1c0,0.1,0.2,0.1,0.4,0.1c0.5,0,0.4,0.2,0.1,0.6c-0.1,0.2-2,1.8-0.9,1.6
			c0.8-0.1,1.3-0.3,2.2-0.9c1.2-0.5,1.6,0.5,0.8,1.1c-1.3,0.5-2.2,0.9-3.2,1.8c-0.9,0.9-1.6,1.1-3.1,1.3c-0.2,0-0.3,0-0.5,0.2
			c-0.3,0.2-0.6,0.4-0.9,0.5c-1.7,0.8-4.3,4.6-7.2,6.6c-2.2,1-2.9,1.5-5.2,2.2c0.3,1.4,0.5,2.2-0.8,2.3c-1.6,0.1-3.2,0.8-4.9,0.5
			c-0.2,0.4-0.4,0.8-0.6,1.1c-1.3,2.4-2.3,3.4-1.7,6.1c0.3,1.6,0,2.8-0.6,4c-0.2,0.5-0.6,2-1,2.8c0.3,1.2,0.7,2.4,1,3.7
			c-4.7,0.6-5.6,1-14.2,1s-24.2-2.1-35.2-6.1l2.7-6.1c0.7-2,1.1-4.1,1.1-6.2c-0.1-2.1,0-2.8-0.1-4.9c0-1.8,0.1-4.3,0.1-6.2
			c0-1.1,0.1-2.9-0.6-5.1c-0.4-0.6-0.8-1.2-1.1-1.8c-0.6-0.2-4.3-11.7-4.2-13.8c-0.1-0.3-0.4-0.6-0.4-0.9c-0.1-0.6,0-1.1-0.2-1.6
			c-0.4-1.4-0.8-2.8-1.1-4.3c-0.3-1.4-0.5-4.5-0.6-7.1c-0.1-1.5,0-2.8-0.2-3.4c-0.3-1.1,0-2-0.8-2.9c-0.5-0.6-1.2-1.8-1.4-2.1
			c-0.2-0.4-0.6-0.8-1-1c-0.6-0.3-1-0.7-1.5-1.1c-0.4-0.3-1-0.6-1.3-1c-0.1-0.1-0.2-0.4-0.2-0.6c0.1-0.3,0.4-0.4,0.8-0.2
			c0.3,0.2,0.8,0.5,1.2,0.8c0.2,0.1,0.9,0.7,1.4,0.8c0.1,0,0.2-0.1,0.3-0.1c0.2-0.1,0.3-0.3,0.3-0.5s-0.3-0.4-0.4-0.6
			c-0.3-0.5-0.9-1-1-1.2c-0.3-0.6-1.1-1.2-1.2-1.8c0-0.3,0.1-0.3,0.2-0.4c0.2-0.2,0.5-0.2,0.7-0.1c0.4,0.2,0.6,0.4,0.7,0.7
			c0.3,0.6,0.9,1.4,1.4,1.9c0.1,0.1,0.2,0.4,0.4,0.6c0.1,0.1,0.2,0.1,0.3,0c0.1-0.1,0.2-0.1,0.2-0.2c0-0.1-0.1-0.4-0.1-0.5
			c-0.1-0.3-0.4-0.9-0.5-1.2c-0.2-0.8-0.3-1.2-0.6-2.1c-0.1-0.3-0.2-0.7,0-0.9c0.3-0.3,0.8-0.2,1,0.1c0.3,0.3,0.4,1.3,0.7,2
			c0.1,0.3,0.2,0.7,0.3,1.1c0.1,0.4,0.2,0.7,0.3,0.9c0.1,0.3,0.5,0.3,0.5,0c0-0.2-0.2-1.1-0.2-1.9c0-0.2,0-0.4,0-0.6
			c0-0.2-0.1-0.5-0.2-0.6c0-0.7,0-1.1,0.5-1c0.5,0,0.7,0.5,0.8,1c0.1,0.4,0.1,0.6,0.3,1.1c0.1,0.2,0.1,0.4,0.2,0.7
			c0.1,0.2,0.1,0.5,0.1,0.8c0.1,0.5,0,0.9,0.2,1.4c0.2,0.4,0.4,0.8,0.7,1.2c0.4,0.5,1,0.9,1.7,0.5c0.3-0.1,0.4-0.3,0.6-0.5
			c0.2-0.2,0.5-0.4,0.8-0.6c0.4-0.2,0.9-0.3,1.3-0.1c0.3,0.2,0.6,0.3,0.7,0.6c0.2,0.2,0.2,0.6,0.2,0.7c-0.1,0.3-0.6,0.2-1.1,0.2
			c-0.2,0-0.4,0.1-0.7,0.2c-0.4,0.2-0.6,0.8-0.8,1c-0.2,0.5-0.6,0.8-0.8,1.1c-0.2,0.3-0.2,0.6-0.6,0.8c-0.2,0.2-0.4,0.4-0.6,0.8
			c-0.1,0.3-0.1,0.7-0.1,1c0.1,0.5,0.1,1.1,0.2,1.6c0.1,0.7,0.1,1.2,0.2,1.9c0.1,0.4,0.1,1,0.2,1.5c0,0.4,0.2,0.7,0.3,1.1
			c0.1,0.7,0.3,1.2,0.6,1.9c0.1,0.3,0.2,0.6,0.4,1c0.1,0.4,0.2,0.9,0.4,1.2c0.2,0.7,0.3,1.1,0.5,1.8c0.2,0.6,0.4,1.5,0.5,2.2
			c0,0.4,0.1,0.7,0.1,1.1c0.1,0.5,0.1,0.8,0.1,1.3c0,0.4,0.1,0.8,0.1,1.2c0.1,0.2,0.1,0.4,0.3,0.6c0.4,0.4,0.7,0.8,1,1.3
			c0.3,0.6,0.7,1.2,1,2c0.3,0.7,0.7,1.5,1.1,2.4c0.3,0.7,0.6,1.4,1.1,2.1c0.3,0.4,0.8,1.2,1.1,1.5c0-0.1,0.1-0.1,0.2-0.1
			c0.4,0.5,0.6,0.7,0.9,1.1c0.5,0.5,1.1,1,1.7,1.6c0.2-0.4,0.6-0.9,1.1-1.4c0.2-0.1-0.8,0.4-1.4,0.2l0-0.1c0.2,0,0.3-0.1,0.5-0.1
			c0.4-0.1,0.5-0.3,0.8-0.5c-0.1,0.1-0.2,0-0.3,0c0.2-0.1,0.5-0.2,0.7-0.3c0.2-0.1,0.4-0.3,0.6-0.4c0.3-0.2,0.5-0.5,0.8-0.8l0-0.1
			c-0.2,0-0.4,0.3-0.7,0.4c-0.2,0.1-0.4,0.3-0.6,0.5c0.2-0.4,0.6-0.8,1-1c0.1-0.1,0.3-0.1,0.3-0.2c0,0-0.1,0.1-0.2,0.1
			c-0.3,0.1-0.6,0.1-0.9,0.2c-0.2,0.1-0.5,0.2-0.7,0.3c0.2-0.3,0.3-0.3,0.5-0.4c0.2-0.1,0.4-0.2,0.7-0.3c0.2,0,0.3,0,0.6-0.2
			c0.1-0.1,0.2-0.2,0.4-0.3c-0.2,0.1-0.5,0.2-0.6,0.3c0.6-0.4,0.5-0.4,0.8-0.6c0.2-0.2,0.3-0.6,0.6-0.7c-0.2,0.1-0.4,0.3-0.7,0.4
			c-0.1,0-0.3,0.1-0.3,0.1c0.6-0.2,1.1-0.7,1.5-1.1c-0.3,0.2-0.3,0.1-0.8,0.1c0.9-0.6,1.3-0.8,1.9-1.7c0.6-0.8,1.3-1.4,2.2-1.9
			c0.8-0.5,1.6-0.8,2.7-1c1.1-0.2,3.3,0,4.1,0.4c1,0.4,1.8,0.6,2.5,1c0.4,0.2,0.8,0.4,1.3,0.4c-0.5,0.1-0.5,0.1-0.8,0
			c0.1,0.1,0.1,0.1,0.2,0.2c0.4,0.3,0.8,0.6,1.3,0.8c0,0,0.1,0,0.1,0c0,0-0.1,0-0.1,0c-0.1,0-0.3,0-0.4-0.1
			c-0.2-0.1-0.3-0.1-0.4-0.2l0,0c0.2,0.1,0.3,0.4,0.5,0.6c0.3,0.2,0.2,0.2,0.8,0.6c-0.2-0.1-0.4-0.1-0.7-0.2
			c0.2,0.1,0.3,0.2,0.4,0.3c0.3,0.1,0.4,0.1,0.6,0.2c0.7,0.1,0.8,0.3,1.2,0.7c-0.9-0.6-0.8-0.3-1.7-0.5c-0.1,0-0.1,0-0.2,0
			c0.1,0,0.1,0,0.2,0.1c0.5,0.2,0.8,0.8,1.1,1.2c-0.4-0.3-0.6-0.6-1.2-0.6l0.1,0.2c0.4,0.8,0.5,1.7,1.1,2.3
			c-0.4-0.3-0.4-0.2-0.6-0.6c0.1,0.7,0.2,1.4,0.6,2c0,0,0,0.1,0,0.1c0,0-0.1-0.1-0.2-0.2c-0.2-0.3-0.2-0.5-0.4-0.8
			c0.2,0.3,0,0.8,0.1,1.1c0.1,0.4,0,0.4,0.2,1.1c-0.1-0.1-0.2-0.4-0.3-0.6c0,1.6-0.6,2.2-0.7,3.6c-0.1,0.8-0.2,1.4-0.4,2
			c-0.2,1.1-0.6,2.1-1.2,4.2c-0.1,1.1,0.1,0.7,0.3,1.2c0.3,0.7,2.8,0.3,3.2,0c0.5-0.3,1.2-0.6,1.9-1l-0.1-0.1
			c-0.8-0.9-1.4-1.9-0.5-2.1c-0.1-0.5-0.1-1-0.2-1.4c-0.4-3.6-0.1-5.2,2-8.2c0.4-0.3,0.7-0.6,1.1-0.9
			C101.5,145.9,102.1,145.6,102.6,145.4"/>
		<path class="st1" d="M39.5,170.9c0.1-0.3,0,0.1,0.1-0.3c0.1-0.3,0.3-0.6,0.5-1c0.1-0.3,0-0.6,0.1-0.9c0.1-0.4,0.5-0.6,0.7-1
			c0.2-0.4,0.2-1,0.2-1.4c0-0.4,0.2-0.8,0.2-1.2c0-0.5-0.2-0.9-0.3-1.4c-0.1-0.6,0-1.2-0.2-1.6c-0.2-0.8-0.2-1.6-0.3-2.4
			c0.1-2.9,0-5.6-0.1-8.6c0-1.1-2.2-2.6-3-2.8c-0.8-0.2-0.7-0.5-1.3-1c-0.2-0.1-0.4-0.1-0.6-0.2c-0.2-0.1-0.2-0.2-0.4-0.2
			c-0.3,0-0.5,0.1-0.6,0.1c-0.1,0-0.2-0.1-0.3-0.2c-0.3-0.2,0.3-1,1.2-1.1c0.6-0.1,1.4,0.5,1.8,0.4c0.7-0.1,1-0.9,0.9-1.6
			c-0.1-0.5-0.5-0.9-0.8-1.3c-0.2-0.3-0.3-0.7-0.4-0.9c-0.1-0.2-0.2-0.4-0.2-0.7c0-0.3,0.3-0.6,0.6-0.5c0.1,0,0.2,0.1,0.3,0.1
			c0.1,0.1,0.2,0.4,0.3,0.6c0.1,0.1,0.2,0.2,0.4,0.4c0.1,0.1,0.1,0.3,0.2,0.5s0.2,0.2,0.3,0.3c0.2,0.1,0.3,0.1,0.5-0.1
			c0.2-0.1,0.1-0.2,0-0.6c-0.1-0.4-0.1-0.5-0.1-1.1c0-0.2,0-0.4,0-0.6c0-0.4-0.1-0.6,0-0.8c0.2-0.4,0.8-0.9,1-0.5
			c0.1,0.1,0.1,0.5,0.2,0.9c0,0.3,0.1,0.6,0.2,0.9c0,0.2,0.1,0.4,0.1,0.5c0,0.2-0.1,0.8,0.1,0.8c0,0,0.2-0.1,0.3-0.4
			c0.1-0.2,0-0.5,0.1-0.8c0.1-0.3,0.2-0.5,0.3-0.8c0.1-0.2,0-0.4,0.1-0.6c0.1-0.3,0.3-0.6,0.3-0.7c0.3-0.2,0.8-0.1,0.9,0.2
			c0,0.1,0.1,0.2,0,0.4c-0.2,0.7-0.2,0.6-0.3,1.5c0,0.2-0.1,0.4-0.2,0.6c0,0.2,0,0.5,0,0.6c0.5-0.8,1.1-1.2,1.5-1.9
			c0.1-0.2,0.3-0.6,0.7-0.8c0.4-0.1,0.6,0,0.7,0.3c-0.1,0.2,0.2-0.2-0.7,1.4c-0.2,0.4-0.4,0.8-0.5,1c-0.1,0.1-0.2,0.4-0.3,0.7
			c-0.1,0.2-0.1,0.4-0.1,0.6l0,0.1l-0.6,0.8l0.4,2.3c0,0.5-0.1,0.9,0,1.3c0.1,0.5,0.6,2.5,0.8,3l0,0.1c1.2,5.6,3,7.5,3.4,14.2
			c0.3,0.7,0.1,3-0.2,3.6c0,0.1,0.2,0.2,0.6,0.7c0.8,0.9,0.8,1.5,0.8,2.6c-0.1,1.2-0.3,2.6-1.2,3.4
			C44.5,174.3,42.1,172.7,39.5,170.9"/>
		<g>
			<defs>
				<path id="SVGID_00000116932498889281310370000008978312101621795005_" d="M173.4,25.5v37.5c-0.2,3.5-0.2,6.2-0.9,9.7
					c-1.8,8.9-6.1,16.9-12.3,23c-8.1,8.1-19.4,13.2-31.8,13.2c-6,0-11.9-1.2-17.3-3.5c-5.4-2.3-10.4-5.6-14.6-9.9
					c-0.5-0.5-1-0.8-1.5-1.2v17.8c3.4,2.4,7.1,4.4,10.9,5.9c6.6,2.7,13.6,4.3,20.8,4.5h3.6c15.5-0.5,29.5-6.9,39.8-17.2
					c8.2-8.2,14-18.9,16.2-30.8c0.3-1.6,0.7-5.2,0.8-8.3V25.5H173.4z"/>
			</defs>
			<use xlink:href="#SVGID_00000116932498889281310370000008978312101621795005_"  style="overflow:visible;fill:#FFFFFF;"/>
			<clipPath id="SVGID_00000083811330212938378700000017251088267038346884_">
				<use xlink:href="#SVGID_00000116932498889281310370000008978312101621795005_"  style="overflow:visible;"/>
			</clipPath>
			<g style="clip-path:url(#SVGID_00000083811330212938378700000017251088267038346884_);">
				<rect x="94.9" y="25.5" class="st0" width="92.1" height="97.2"/>
			</g>
		</g>
		<g>
			<defs>
				<path id="SVGID_00000157303970590601879660000016034101435078234798_" d="M173.1,19.7h13.6V3.4C179.6,3.5,173.2,10,173.1,19.7"
					/>
			</defs>
			<use xlink:href="#SVGID_00000157303970590601879660000016034101435078234798_"  style="overflow:visible;fill:#FFFFFF;"/>
			<clipPath id="SVGID_00000047748912640451672210000011519618031313276567_">
				<use xlink:href="#SVGID_00000157303970590601879660000016034101435078234798_"  style="overflow:visible;"/>
			</clipPath>
			<g style="clip-path:url(#SVGID_00000047748912640451672210000011519618031313276567_);">
				<rect x="173.1" y="3.4" class="st0" width="13.6" height="16.3"/>
			</g>
		</g>
		<g>
			<defs>
				<path id="SVGID_00000002383923706947807590000008446228738632160144_" d="M118.3,80.5c-2.6-1.1-4.8-2.6-6.8-4.5
					c-1.9-1.9-3.4-4.2-4.5-6.8c-1.1-2.6-1.6-5.3-1.6-8.2s0.5-5.6,1.6-8.2c1.1-2.5,2.6-4.8,4.5-6.7c1.9-1.9,4.2-3.4,6.8-4.5
					c2.6-1.1,5.3-1.6,8.2-1.6h21v21c0,2.9-0.5,5.7-1.6,8.2c-1.1,2.6-2.6,4.8-4.5,6.8s-4.1,3.4-6.7,4.5c-2.5,1.1-5.3,1.6-8.2,1.6
					S120.9,81.6,118.3,80.5 M147.6,19.9L147.6,19.9v6.2h-21c-4.8,0-9.3,0.9-13.5,2.7s-8,4.3-11.2,7.5c-3.2,3.2-5.7,6.8-7.6,11
					s-2.7,8.7-2.7,13.6s0.9,9.3,2.7,13.5s4.3,8,7.6,11.2c3.2,3.2,6.9,5.7,11.2,7.6c4.2,1.8,8.8,2.7,13.5,2.7s9.3-0.9,13.5-2.7
					c4.2-1.8,8-4.3,11.1-7.6c3.2-3.2,5.7-6.9,7.5-11.2s2.7-8.8,2.7-13.5V3.4C154.1,3.5,147.5,10,147.6,19.9"/>
			</defs>
			<use xlink:href="#SVGID_00000002383923706947807590000008446228738632160144_"  style="overflow:visible;fill:#FFFFFF;"/>
			<clipPath id="SVGID_00000171710012797053595470000015955078341586556548_">
				<use xlink:href="#SVGID_00000002383923706947807590000008446228738632160144_"  style="overflow:visible;"/>
			</clipPath>
			<g style="clip-path:url(#SVGID_00000171710012797053595470000015955078341586556548_);">
				<rect x="91.6" y="3.4" class="st0" width="69.9" height="92.5"/>
			</g>
		</g>
		<g>
			<defs>
				<path id="SVGID_00000008831098748744357860000002855428173702849155_" d="M49.5,58c0-2.9,0.5-5.6,1.6-8.2
					c1.1-2.5,2.6-4.8,4.5-6.7s4.2-3.4,6.7-4.5c2.5-1.1,5.3-1.6,8.2-1.6s5.7,0.5,8.2,1.6c2.6,1.1,4.8,2.6,6.8,4.5
					c1.9,1.9,3.4,4.2,4.5,6.7c1.1,2.5,1.6,5.3,1.6,8.2s-0.6,5.7-1.6,8.2c-1.1,2.6-2.6,4.8-4.5,6.8c-1.9,1.9-4.2,3.4-6.8,4.5
					c-2.6,1.1-5.3,1.6-8.2,1.6h-21L49.5,58L49.5,58z M56.9,25.9c-4.2,1.8-8,4.3-11.1,7.5c-3.2,3.2-5.7,6.8-7.5,11s-2.7,8.7-2.7,13.6
					V100l0,0v16.5c7.3,0,13.9-6.6,13.9-16.4l0,0v-7h21c4.9,0,9.4-0.9,13.6-2.7c4.2-1.8,7.9-4.3,11.1-7.6s5.7-6.9,7.6-11.2
					c1.4-3.4,2.3-6.9,2.6-10.6v-5.9c-0.3-3.8-1.2-7.3-2.6-10.7c-1.8-4.2-4.3-7.9-7.6-11c-3.2-3.2-6.9-5.6-11.1-7.5
					c-4.2-1.8-8.7-2.7-13.6-2.7S61.2,24.1,56.9,25.9"/>
			</defs>
			<use xlink:href="#SVGID_00000008831098748744357860000002855428173702849155_"  style="overflow:visible;fill:#FFFFFF;"/>
			<clipPath id="SVGID_00000036956262787004712840000008374699974256295305_">
				<use xlink:href="#SVGID_00000008831098748744357860000002855428173702849155_"  style="overflow:visible;"/>
			</clipPath>
			<g style="clip-path:url(#SVGID_00000036956262787004712840000008374699974256295305_);">
				<rect x="35.6" y="23.2" class="st0" width="69.8" height="93.2"/>
			</g>
		</g>
		<path class="st0" d="M97.4,80.3c-1.2-1.8-2.3-3.8-3.2-5.8c-1.8-4.2-2.7-8.8-2.7-13.5c0-0.4,0-0.9,0-1.3c0-0.4,0.1-0.7,0.1-1.1
			c0.2-4,1.1-7.7,2.7-11.2c1.4-3.2,3.2-6.1,5.3-8.7c1.2,1.8,2.2,3.7,3.1,5.7c1.8,4.2,2.7,8.7,2.7,13.6c0,0.4,0,0.9,0,1.3
			c0,0.3,0,0.7-0.1,1c-0.2,3.9-1.1,7.7-2.7,11.2C101.4,74.7,99.6,77.7,97.4,80.3"/>
		<g>
			<defs>
				<path id="SVGID_00000097474079555466508630000007833195482006581893_" d="M13.5,16.5h13.7C27.2,6.6,20.7,0,13.5,0V16.5z"/>
			</defs>
			<use xlink:href="#SVGID_00000097474079555466508630000007833195482006581893_"  style="overflow:visible;fill:#FFFFFF;"/>
			<clipPath id="SVGID_00000008147276768594084500000013543492186014716548_">
				<use xlink:href="#SVGID_00000097474079555466508630000007833195482006581893_"  style="overflow:visible;"/>
			</clipPath>
			<g style="clip-path:url(#SVGID_00000008147276768594084500000013543492186014716548_);">
				<rect x="13.5" class="st0" width="13.7" height="16.5"/>
			</g>
		</g>
	</g>
</g>
</svg>
