<?xml version="1.0" encoding="utf-8"?>
<svg version="1.1" id="Layer_1" xmlns="http://www.w3.org/2000/svg" xmlns:xlink="http://www.w3.org/1999/xlink" x="0px" y="0px"
	 viewBox="0 0 1608.3 415.9" style="enable-background:new 0 0 1608.3 415.9;" xml:space="preserve">
<style type="text/css">
	.st0{fill:#FFFFFF;}
</style>
<g>
	<path class="st0" d="M792.4,56.6c11.3,0,21.7,0,33.3,0c0,30,0,59.7,0,89.9c12.9,0,24.7,0,37.6,0c0-29.8,0-59.4,0-89.8
		c11.8,0,22.5,0,33.9,0c0,70.5,0,140.6,0,211.4c-10.9,0-21.7,0-33.5,0c0-30,0-59.6,0-89.8c-12.9,0-24.7,0-37.6,0
		c0,29.8,0,59.5,0,89.8c-11.8,0-22.6,0-33.7,0C792.4,197.6,792.4,127.8,792.4,56.6z"/>
	<path class="st0" d="M1064.1,56.6c0,29.9,0,59.3,0,89.6c12.9,0,24.9,0,37.8,0c0-29.7,0-59,0-89.3c11.6,0,22.4,0,33.9,0
		c0,70,0,140.1,0,211.1c-10.5,0-21.2,0-33.3,0c0-29.6,0-59.2,0-89.4c-13.1,0-24.8,0-37.8,0c0,29.6,0,59.2,0,89.6
		c-11.6,0-22.1,0-33.3,0c0-70.4,0-140.7,0-211.5C1042.3,56.6,1052.8,56.6,1064.1,56.6z"/>
	<path class="st0" d="M1158.2,162.5c0-19.2-0.2-38.4,0-57.6c0.5-42.8,41.2-65.9,78.8-44.9c15.9,8.9,22.2,23.9,22.5,40.7
		c0.7,41,1.7,82.1-0.2,123.1c-1.8,40.2-41.9,60.7-77.7,41.4c-17.1-9.2-23-24.9-23.3-43.2C1157.9,202.2,1158.2,182.3,1158.2,162.5z
		 M1226.2,163c0-15.2,0.1-30.5-0.1-45.7c-0.1-7.2,0.5-15-1.8-21.6c-1.7-4.6-7.3-9.1-12.2-10.9c-6.4-2.3-13.9-0.6-17.1,6.4
		c-2.3,4.9-3.2,10.8-3.2,16.3c-0.3,27.5-0.2,55-0.1,82.5c0,12.2,0,24.5,0.8,36.7c0.5,7.3,4.9,12.3,12.5,13.3c7.3,1,14.6,0.4,18-7.1
		c2.1-4.6,3-10.2,3.1-15.3C1226.5,199.5,1226.2,181.2,1226.2,163z"/>
	<path class="st0" d="M738.5,181c-5.7-0.3-9.6-0.6-14.2-0.9c0-9.6,0-19.1,0-29.2c15,0,30,0,44.8,0c0,28,2.1,55.9-0.6,83.3
		c-2.5,25.1-21.9,37.6-49.6,37.1c-26.1-0.5-42.6-13.8-46.9-38.4c-1.2-7.1-1.6-14.5-1.6-21.7c-0.2-32.5-0.1-64.9-0.1-97.4
		c0-3,0.1-6,0.1-8.9c1.1-47.4,35.7-56.3,67-49.2c14.6,3.3,25.6,12.7,29.1,27.2c3.4,14.2,3.7,29.1,5.5,44.6c-12.4,0-22.2,0-33.5,0
		c0-8.2,0.2-16,0-23.8c-0.4-13.1-5.7-19-16.5-19.3c-11.3-0.2-17.6,6-17.7,19.2c-0.3,39.4-0.3,78.9,0,118.3
		c0.1,12.6,6.2,18.5,17.3,18.4c11.1,0,16.5-5.8,16.8-18.8C738.8,208.2,738.5,195,738.5,181z"/>
	<path class="st0" d="M1348.1,56.6c10.9,0,20.7,0,31.9,0c0,3.4,0,6.6,0,9.8c0,48.4,0,96.7,0,145.1c0,3.3-0.1,6.6-0.2,9.9
		c-1.5,40.9-37.2,62.7-74.6,45.3c-17.3-8-24.4-23.2-24.9-41.1c-0.8-30.1-0.5-60.3-0.5-90.4c-0.1-25.8,0-51.6,0-78.3
		c11.3,0,21.9,0,33.9,0c0,4.1,0,8,0,11.9c0,50.4-0.1,100.7,0,151.1c0,14.4,5.4,20.6,17,20.6c8.9,0,14.7-4,16.3-12.8
		c0.8-4.2,1-8.5,1-12.8c0.1-49,0-98.1,0-147.1C1348.1,64.2,1348.1,60.7,1348.1,56.6z"/>
	<path class="st0" d="M1397,204.7c11.6,0,21.2,0,32.5,0c0,6.4-0.3,12.6,0.1,18.7c0.8,11.5,6.3,16.8,16.7,16.8
		c10.5,0,16.2-5.3,17.3-16.5c1.4-14.7-4.9-26.5-14.7-36.6c-9.3-9.5-19.3-18.2-28.6-27.7c-19.3-19.8-26-43.4-20.2-70.3
		c4.8-22.7,20.9-35,46.1-35.7c25.2-0.7,42.4,10.8,48.1,33c2.2,8.4,2.4,17.4,3.6,26.9c-11.6,0-21.4,0-31.5,0
		c-0.8-6.1-1.2-12-2.5-17.7c-1.7-8-7.3-11.3-15.3-11.4c-8-0.1-13.5,3.3-15.5,11.2c-3.9,15.2,1,28.3,11.2,39.3
		c9.2,10,19.5,19,29.1,28.5c19.2,19,27.4,41.7,22.7,68.7c-4.4,25.2-20.8,38.9-47.2,39.3c-27.6,0.5-45.1-12.1-50-37.1
		C1397.2,225,1397.6,215.2,1397,204.7z"/>
	<path class="st0" d="M1550.8,238.1c19.1,0,37.6,0,56.8,0c0,10.2,0,19.6,0,29.9c-29.9,0-59.9,0-90.5,0c0-70.3,0-140.3,0-211.2
		c30.2,0,60.1,0,90.7,0c0,9.7,0,19.2,0,29.7c-19.2,0-37.9,0-57.3,0c0,19.8,0,38.6,0,58.7c14.6,0,29.3,0,44.7,0c0,10.8,0,20.2,0,30.5
		c-14.6,0-29.1,0-44.4,0C1550.8,196.7,1550.8,216.6,1550.8,238.1z"/>
	<path class="st0" d="M947.7,86.4c-12.6,0-23.5,0-34.9,0c0-10.3,0-19.7,0-29.7c34.2,0,68,0,102.5,0c0,9.9,0,19.5,0,30
		c-11.3,0-22.2,0-34,0c0,60.9,0,120.9,0,181.6c-11.5,0-22,0-33.6,0C947.7,208,947.7,147.9,947.7,86.4z"/>
	<path class="st0" d="M600.4,237.9c0,10.8,0,20,0,30.1c-29.2,0-58.2,0-87.9,0c0-70,0-140,0-211c10.4,0,21.1,0,33.1,0
		c0,59.9,0,120,0,180.9C564.4,237.9,581.8,237.9,600.4,237.9z"/>
	<path class="st0" d="M164.5,341.9c66.7,0,132,0,198.7,0c-1.6,2.6-2.4,4.5-3.7,6c-29.5,31.8-65.5,52.5-107.9,62
		c-3,0.7-7.5-0.1-9.8-2c-25.2-20.6-50.1-41.5-75-62.3C166,345,165.7,344,164.5,341.9z"/>
	<path class="st0" d="M250.4,73.8c-68.4,0-133.9,0-201.2,0c13.9-17.1,29.4-29.7,46.4-40.6c20-12.8,41.7-21.9,65-26.8
		c3.2-0.7,7.8-0.7,10.1,1.1C196.8,28.8,222.7,50.6,250.4,73.8z"/>
	<path class="st0" d="M192.2,1c6.6-0.3,13.1-1.3,19.5-0.8c36.4,3.1,71.3,11.6,102.9,31c5.9,3.6,9.1,7.6,9.6,14.7
		c2.3,30.4,5.2,60.7,7.8,91c0.1,1.5,0,3.1,0,3.8C285.9,94.6,239.6,48.3,192.2,1z"/>
	<path class="st0" d="M220.5,415c-5.7,0.3-12.1,1.4-18.5,0.9c-36.5-2.9-71.4-11.5-103.1-30.7c-6.3-3.8-9.3-8.2-9.8-15.7
		c-2.4-31.6-5.4-63.2-8.1-94.1C127.1,321.6,173.4,367.8,220.5,415z"/>
	<path class="st0" d="M273.1,333.6c46.9-46.8,93-92.8,139.4-139.1c1.3,22.6,1.9,45.7-5.9,67.7c-6.7,18.9-15.6,37.1-24.1,55.4
		c-1.4,3.1-5.5,6.6-8.6,6.9C340.5,327.8,307.1,330.6,273.1,333.6z"/>
	<path class="st0" d="M140.5,83c-46.9,46.8-93,92.9-139.8,139.6c-1.1-23-2-45.9,5.7-67.5c6.8-19.2,15.6-37.8,24.3-56.3
		c1.6-3.4,6.6-6.9,10.4-7.3c31.7-3.3,63.4-5.9,95.2-8.7C137.6,82.6,138.8,82.9,140.5,83z"/>
	<path class="st0" d="M341.2,251.7c0-68.3,0-133.5,0-200.1c2.8,2,4.9,3.2,6.7,4.9c30.6,28.7,50.7,63.4,60.8,104
		c1.5,6,0.5,10.4-3.6,15.3C384.2,200.2,363.8,224.9,341.2,251.7z"/>
	<path class="st0" d="M71.6,364.9c-25.1-21.4-42.9-46.1-55.4-74.7c-17-38.9-16.8-38.9,10-71.3c14.6-17.5,29.3-34.9,45.3-54
		C71.6,232.4,71.6,297.7,71.6,364.9z"/>
	<path class="st0" d="M616.5,56.6c10.6,0,20.7,0,31.7,0c0,70.5,0,140.8,0,211.7c-10.5,0-20.7,0-31.7,0
		C616.5,198,616.5,127.9,616.5,56.6z"/>
	<path class="st0" d="M173,324.2c-0.4-15.4-1.4-29.1,15.1-38.6c16.2-9.3,30.5-22,47.7-34.7c1.8,25.5,3.5,49.1,5.3,73.3
		C217.6,324.2,195.5,324.2,173,324.2z"/>
	<path class="st0" d="M183.9,193.8c-0.6-3.4-1.8-6.9-1.6-10.2c0.7-13.2,1.8-26.4,2.7-39.2c-4.1-2.8-7.9-5.4-13.9-9.6
		c6.7-0.7,10.2-1.1,15.6-1.7c-2.3-17.6-0.8-34.3,22-40.8c5.1,4.5,13.8,9,17.1,16c3.2,6.7,0.7,16.1,0.7,24.7c5,0.6,8.8,1,15.4,1.8
		c-5.3,3.9-8.7,6.4-13.3,9.8c1.5,7.4,1,16-7.2,21.9l0.4-0.3c-12.8,9.4-25.5,18.8-38.3,28.2C183.5,194.2,183.9,193.8,183.9,193.8z
		 M191.9,110.4c0,5.8,0,10.5,0,15.5c10.2,0,19.6,0,29.6,0c0-5.4,0-10.1,0-15.5C211.5,110.4,202,110.4,191.9,110.4z"/>
	<path class="st0" d="M1052.6,404.6c0-30.5,0-60.2,0-90.7c9,0,17.9-0.8,26.6,0.2c9.5,1.1,14.6,8.2,14.9,17.3
		c0.6,18.5,0.8,37.1-0.1,55.6c-0.6,11.9-7.9,17.3-20,17.6C1067,404.8,1060.1,404.6,1052.6,404.6z M1063.3,323.9c0,24,0,47.2,0,70.4
		c18,2.1,21.1-0.7,21.2-18c0.1-11.5,0.1-23.1,0-34.6C1084.4,324.4,1081.1,321.6,1063.3,323.9z"/>
	<path class="st0" d="M1608.3,359.7c0,3.2,0,5.8,0,9c-69.3,0-138.2,0-207.9,0c-0.2-2.7-0.4-5.5-0.7-9
		C1469.4,359.7,1538.3,359.7,1608.3,359.7z"/>
	<path class="st0" d="M512,368.8c0-3.2,0-6,0-9.3c69.4,0,138.3,0,207.8,0c0,3.2,0,6,0,9.3C650.4,368.8,581.4,368.8,512,368.8z"/>
	<path class="st0" d="M1228.1,358.9c0-8.6-0.3-17.2,0.1-25.8c0.5-12.9,7.5-19.9,19.6-20.4c12.5-0.4,21.1,5.8,21.6,18.2
		c0.9,18.8,0.9,37.8-0.1,56.6c-0.6,12.4-9.3,18.4-21.9,17.9c-11.7-0.5-18.5-7.4-19.3-19.7c0-0.7-0.1-1.3-0.1-2
		C1228.1,375.5,1228.1,367.2,1228.1,358.9z M1238.3,358.9c0,8.6-0.1,17.2,0,25.7c0.1,6.9,3.4,11.4,10.8,11.3c7.1-0.1,10-4.7,10.1-11
		c0.3-17.1,0.2-34.3,0-51.4c-0.1-6.8-3.5-11.7-10.8-11.4c-7.3,0.3-10.2,5.3-10.2,12.1C1238.3,342.4,1238.3,350.6,1238.3,358.9z"/>
	<path class="st0" d="M989.7,314.6c0,24.1,0.4,48-0.2,71.7c-0.3,12.7-7.5,19-19.5,19.1c-12.6,0.2-20.3-6.1-20.7-19
		c-0.6-23.8-0.2-47.6-0.2-72.3c2.9-0.3,5.7-0.6,8.9-1c0.5,2,1.1,3.6,1.1,5.1c0.1,21.2,0.1,42.4,0.1,63.6c0,6.3,0.7,12.2,8.3,13.8
		c7.7,1.7,12.5-3,12.7-13.5c0.3-20.2,0.2-40.4,0.1-60.6C980.4,316,981,311.4,989.7,314.6z"/>
	<path class="st0" d="M1370.8,336.6c-0.8,0.3-1.7,0.9-2.6,1c-1.6,0.2-3.3,0-5.5,0c-0.6-2.3-1.2-4.5-1.6-6.6
		c-1.1-6.1-5.2-10.6-10.9-8.6c-3.9,1.3-9.1,7.2-8.9,10.7c0.5,6,4,12.3,7.7,17.3c3.7,4.9,9.4,8.3,14,12.6c6.9,6.7,9.5,15,8.1,24.5
		c-1.9,12.6-9.2,18.5-21.9,17.9c-11.6-0.6-18.3-7.6-18.9-20.1c-0.1-2.2,0.2-4.5,0.3-7.1c6.3-1.9,9.6-1.1,9.5,6.4
		c-0.2,7.5,3.8,12,11.8,11.2c7.8-0.9,10.1-7.1,8.5-13.1c-1.6-6-5.4-11.7-9.4-16.6c-4.6-5.6-11.2-9.5-15.5-15.2
		c-6.9-9.3-7-19.9-1.4-30c4.3-7.7,12-8.7,20-7.9C1365.8,314.1,1370.9,321.4,1370.8,336.6z"/>
	<path class="st0" d="M757.1,375.2c0.5,4.9,0.3,6.4,0.8,7.5c2.3,4.3,4.1,9.3,7.5,12.5c1.6,1.4,8.8,0.1,9.6-1.8
		c2.1-4.7,4.5-11.5,2.5-15.4c-3.4-6.8-9.5-12.5-15.3-17.6c-10.2-9-16.3-19.1-12.6-33.2c2.9-11.1,11.2-16.1,23.7-14.2
		c9.5,1.5,16.8,9.8,15.9,19.7c-0.2,2.3-4.1,4.3-7.8,7.8c-1.1-4.5-1.6-5.9-1.8-7.5c-0.9-6.7-3.9-11.7-11.4-10.9
		c-8.2,0.9-10.5,7.6-8.7,14c1.7,6,5.9,11.5,10,16.4c4.4,5.3,10.6,9.1,14.9,14.5c6.7,8.3,7.1,21.5,1.7,30c-4.9,7.9-12.6,9.1-21,8.2
		c-11.2-1.2-19.6-13-16.7-23.9C749,379.2,753,378,757.1,375.2z"/>
	<path class="st0" d="M863.6,323.4c-6-0.3-10.6-0.5-16.2-0.7c-0.2-2.8-0.4-5.5-0.6-8.8c14.7,0,28.5,0,42.2,0
		c1.3,8.1,1.3,8.1-15.1,10c0,26.4,0,53.1,0,80.2c-3.9,0-6.7,0-10.3,0C863.6,377.2,863.6,350.9,863.6,323.4z"/>
	<path class="st0" d="M220.2,238.8c4.5-2.6,8-5.5,12.5-8.1c5.2,13.2,4.5,15.8-6.3,23.8c-16.7,12.4-33.4,24.7-51.1,37.8
		c-0.8-12.2-0.6-21.5,10.7-28.4C197.9,256.6,209.1,247.5,220.2,238.8C220.2,238.8,220.2,238.8,220.2,238.8z"/>
	<path class="st0" d="M208,224.1c7.7-5.3,15.5-10.7,24.1-16.6c2.8,10.9,6.1,19.1-5.8,25.3c-2.1,1.8-5.4,3.8-7.1,5.6
		c0,0,0.3-0.3,0.3-0.3c-9.7,6.6-19.4,13.1-29,19.7c-4,2.8-7.9,5.7-13,9.5c-0.8-11-0.6-17.8,8.5-26.4c4.3-4.1,6-5,9-7.6
		C199.3,230.2,203.6,227.2,208,224.1z"/>
	<path class="st0" d="M206.3,222.8c-4.3,3.1-21.6,15.7-26.7,18.4c-2.6-14.2-1.2-17.7,9.8-26.1c8.8-6.8,17.3-13.8,26-20.7
		c0,0-0.3,0.3-0.3,0.3c5-2.9,9.9-5.7,15.3-8.8c3.2,10.9,3,19.4-8.1,25.4C217.8,214.3,212.9,218.7,206.3,222.8z"/>
	<path class="st0" d="M221.4,166.4c2.4-0.7,4.9-1.5,7.3-2.2c4.1,10.8,3.5,20.5-8.5,26.7c-2.1,1.1-3.4,1.9-5.1,3.8
		c0,0,0.3-0.3,0.3-0.3c-8.2,5.4-16.3,10.8-24.5,16.3c-3.2,2.1-6.2,4.5-9.4,6.7c-0.9-0.4-1.7-0.8-2.6-1.3c1.6-7.4,3.2-14.8,4.9-22.2
		c0,0-0.4,0.4-0.4,0.4c12.8-9.4,25.5-18.8,38.3-28.2L221.4,166.4z"/>
	<path class="st0" d="M1165.9,404.1c-3.2,0.2-5.7,0.3-9.1,0.5c0-30.1,0-59.8,0-90.3c2.7,0,5.6,0,9.1,0
		C1165.9,344,1165.9,373.4,1165.9,404.1z"/>
	<path class="st0" d="M221.8,166c-12.8,9.4-25.5,18.8-38.3,28.2C196.2,184.8,209,175.4,221.8,166z"/>
</g>
</svg>
