<?xml version="1.0" encoding="UTF-8"?>
<svg id="wUMrm" data-name="Layer 2" xmlns="http://www.w3.org/2000/svg" viewBox="0 0 259.74 353.12">
  <defs>
    <style>
      .cls-1 {
        fill: #fff;
        stroke-width: 0px;
      }
    </style>
  </defs>
  <g id="Layer_1-2" data-name="Layer 1">
    <g>
      <path class="cls-1" d="m222.28,225.99c.86-2.25.81-4.59,1.19-6.86.82-4.91,5.88-6.54,9.42-6.55.41,0,.83.12.93.6.09.43-.24.63-.55.83-1.42.91-2.69,1.98-3.63,3.42-.38.59-.72,1.13-.74,1.84,0,.23-.02.51-.14.69-1.55,2.21-.83,4.62.27,6.43,3.15,5.22.76,9.84-2.71,12.87-1.46,1.27-2.93,2.59-4.8,3.28-4.36,1.62-8.77,1.85-13.27.57-4.85-1.38-8.75-.09-11.85,3.89-.07.09-.14.19-.21.29-1.65,2.08-1.58,2.01.27,3.83,1.72,1.7,3.3,3.56,4.87,5.41.48.56.43,1.42.76,2.11.99,2.05,1.9,4.16,2.31,6.38.31,1.69.22,3.48.15,5.22-.13,3.24-.36,6.56-2.1,9.35-1.31,2.1-.4,3.3.74,4.91,1.82,2.56,3.53,5.22,4.99,8,1.33,2.53,2.19,5.29,2.81,8.1.12.56.02,1.23.64,1.6.08.05.14.2.14.31-.11,4.35.24,8.7-.63,13.04-.39,1.98-.79,3.85-1.78,5.59-.08.14-.23.34-.18.43.75,1.42-.71,1.65-1.2,2.44-.91,1.49-1.94,2.94-2.46,4.64-.19.63-.46,1.14-.87,1.65-.65.8-1.56,1.55-1.29,2.81.07.32-.23.53-.51.56-.93.12-1.26.81-1.67,1.52-.69,1.19-1.77,2.11-2.88,2.81-2.14,1.34-3.85,3.23-6.05,4.48-1.86,1.05-3.6,2.28-5.58,3.16-3.53,1.57-7.14,2.96-10.87,3.85-3.9.92-7.64,2.57-11.72,2.73-.63.02-1.27.15-1.8.58-.62.49-1.31.2-1.97.14-4.11-.39-8.22-.78-12.35-.97-1.07-.05-2.14-.16-3.19.3-.64.28-1.19-.33-1.84-.36-5.22-.25-10.44-.63-15.67-.46-1.39.05-2.78-.27-4.18-.3-2.18-.04-4.36.21-6.53-.27-3.76-.82-7.63-.81-11.41-1.64-3.68-.8-7.42-1.4-11.19-1.85-2.64-.31-5.32-.88-7.96-1.49-3.13-.71-6.1-1.94-9.28-2.54-2.42-.46-4.73-1.64-7.02-2.68-2.71-1.23-5.37-2.57-7.87-4.24-1.42-.95-2.77-2.14-4.33-2.73-1.4-.54-2.49-1.42-3.72-2.14-1.31-.77-2.51-1.63-3.64-2.68-1.74-1.6-3.7-2.97-5.56-4.45-2.38-1.88-4.51-4.01-6.65-6.15-2.07-2.07-3.73-4.45-5.66-6.62-2.25-2.54-3.9-5.54-6.01-8.19-1.32-1.66-2.51-3.43-3.55-5.24-2.6-4.47-4.94-9.1-6.88-13.91-.08-.21-.16-.5-.08-.69.67-1.61-.19-3.07-.3-4.6-.12-1.6-1.04-2.9-1.01-4.53.08-3.79-.16-7.58-.14-11.38.01-1.91.16-3.83.59-5.71.53-2.33.4-4.78,1.11-7.08.94-3.04,1.57-6.16,2.89-9.1.96-2.13,1.43-4.47,2.43-6.62.41-.88.9-1.71,1.46-2.46,1.24-1.66,2.45-3.34,3.66-5,2.81-3.85,6.33-7.04,9.45-10.59,1.37-1.55,2.99-2.78,4.82-3.76,1.02-.54,1.73-1.5,2.68-2.19,1.6-1.15,3.54-1.66,5.08-2.9.66-.53.88-1.11.88-1.95-.03-3.51-.06-7.02-.19-10.52-.14-3.95.43-7.86.21-11.81-.11-1.93.15-3.89.25-5.83.09-1.88-.16-3.73-.28-5.6-.09-1.4-.12-2.84.2-4.23.13-.58.52-1.04,1.12-.61,2.64,1.86,5.59,1.32,8.47,1.12,6.23-.45,11.33-3.24,15.59-7.71,1.78-1.87,3.83-3.52,4.9-5.99.19-.44.58-.41,1.02-.36,2.89.32,5.78.64,8.68.88.7.06,1.43-.15,2.13-.28.72-.14,2.07.01.75-1.33-.12-.13,0-.46-.05-.7-.07-.39-.05-.88-.28-1.14-.59-.69-1.54-1.12-1.29-2.3.04-.21-.36-.39-.65-.44-.24-.04-.55-.09-.58-.35-.14-1.46-1.56-1.82-2.28-2.74-1.76-2.27-3.93-4.15-5.67-6.43-1.99-2.63-4.16-5.12-6.22-7.71-1.6-2.01-2.51-4.33-3.59-6.57-.88-1.81-1.58-3.72-2.25-5.63-.6-1.71-.43-3.56-.82-5.31-1.08-4.88-.33-9.67.75-14.4.72-3.16,1.76-6.27,2.86-9.33.92-2.56,2.57-4.76,4-7.06,1.75-2.81,3.69-5.5,5.77-8.07,3.4-4.19,7.2-7.91,11.93-10.68,2.57-1.51,4.96-3.35,7.57-4.82.93-.52,1.96-.88,2.94-1.31.59-.25,1.19-.45,1.62-.98.14-.17.4-.38.59-.36,2.27.2,4.36-.76,6.28-1.55,4.34-1.78,8.89-1.77,13.37-2.34,1.85-.24,3.69.55,5.54.84,1.8.28,3.52.96,5.36,1.04.63.03.99.61,1.57.81,2.04.69,4.16,1.1,6.22,1.71,1.86.55,3.59,1.54,5.41,2.24,3.59,1.37,6.78,3.49,10.16,5.27,1.48.78,2.83,1.82,4.35,2.51,2.89,1.3,5.51,2.97,7.91,5.02.21.18.43.4.74.23.35-.2.47-.53.45-.92-.25-4.12.33-8.22.3-12.34-.03-3.83.22-7.66.03-11.49-.05-.93.21-1.98-1.01-2.43-.18-.07-.3-.28-.22-.5.09-.27.35-.31.58-.33.91-.08,1.84-.11,2.75-.24,4.87-.68,9.74-1.12,14.68-.9,3.12.14,6.24.38,9.28.92,2.66.47,5.01,1.85,7.08,3.74,2.8,2.55,3.67,5.85,3.27,9.29-.5,4.31-3.31,6.9-7.47,8.28-2.52.83-5.1.88-7.64,1.34-1.41.26-1.53.3-.97,1.66,1.16,2.8,2.41,5.55,3.34,8.45,1.3,4.06,2.76,8.06,4.25,12.06,1.15,3.11,2.05,6.29,2.89,9.48.3,1.15.52,2.38,2.19,2.33.44-.01.98.38.9.95-.09.63-.7.56-1.17.53-1-.06-1.99-.16-2.98-.27-.39-.04-.84-.12-.95-.59-.11-.51.26-.65.67-.8.93-.34.61-1.16.46-1.74-1.3-4.98-3.08-9.8-4.69-14.69-.81-2.46-1.74-4.88-2.48-7.37-.77-2.59-1.94-5.06-3.13-7.49-1.22-2.49-1.26-2.44-4.08-2.07-.82.11-1.68.09-2.51.04-2.38-.12-2.33.23-2.21,2.29.21,3.67.17,7.33.13,10.99-.01,1.52-.29,3.09-.51,4.63-.09.63-.07,1.2.31,1.71,1.64,2.16,2.94,4.5,4.18,6.92,1.33,2.59,2.55,5.22,3.75,7.87,1.13,2.51,1.95,5.15,2.75,7.78,1.1,3.59,2.54,7.05,3.94,10.53.74,1.84.81,3.74.52,5.65-.73,4.73-1.91,9.38-2.75,14.09-.61,3.45-1.98,6.72-3.44,9.89-2.01,4.35-4.61,8.37-7.72,12.03-1.2,1.41-1.99,3.08-3.02,4.6-.67,1,.22,1.54.94,1.79,1.62.55,3.27,1.07,4.82,1.8,2.2,1.05,4.55,1.09,6.89,1.22.8.04,1.08.37,1.16,1.17.62,6.2.3,12.43.45,18.64.13,5.39-.53,10.77-.09,16.15.22,2.71-.4,5.32-.54,7.98-.26,5.01-.6,10.02-.63,15.04,0,1.56.19,1.69,1.63,1.12,3.88-1.53,7.63-1.07,11.33.68,2.29,1.08,4.68,1.55,7.21.85,2.73-.75,5.13-1.92,6.52-4.59.41-.78.53-1.58.56-2.42.01-.28,0-.62-.26-.76-.42-.22-.34.48-.87.42Zm-2.11,12.34c.41.05.59.37.77.68.17.3.39.56.76.38.46-.22.25-.61.13-.93-.08-.22-.23-.41-.35-.62-1.07-1.84-3.21-2.24-4.72-3.5-.16-.13-.5-.17-.59.14-.07.28.17.45.41.49.68.13,1.15.49,1.48,1.09-.84.22-.83.21-.43.9.52.9,1,1.81,1.76,2.56.21.21.25.64.67.52.4-.11.54-.47.46-.86-.06-.31-.21-.6-.32-.89l-.02.03Zm-6.17-.07c.33.41.55.87.75,1.35.27.63.66.96,1.2.22.19-.26.34-.65.72-.33.36.31.06.56-.2.77-.19.16-.38.34-.19.59.16.2.36.01.54-.05.83-.27,1.14-2.5.42-3.32-.63-.72-1.31-1.39-2-2.04-.32-.3-.67-.67-1.2-.46-.04.37.21.47.36.65.26.32.89.65.55,1.05-.43.51-.69-.21-1.01-.42-.17-.11-.34-.26-.52-.08-.19.18-.03.37.03.55.19.52.38,1.05.57,1.57-.66-.37-.97-.77-1.42-1.75-.23-.5-.65-.94-1.21-.72-.56.22-.27.74-.08,1.13.29.58.41,1.2.55,1.82.12.52.21,1.06.68,1.49.5.46.93.27,1.41.08.57-.23.29-.65.23-1.02-.05-.35-.13-.7-.2-1.06Zm-100.09-118.05h0c-.13-1.01,1.05-.73,1.4-1.3-1.01-.58-2.03.31-3.07-.08,1.03-1.31,2.63-.03,3.64-1.14-1.33.18-2.62-.24-3.92,0-.8.14-1.68.24-2.01,1.24-.11.32-.52.43-.83.37-1.15-.24-2.07.43-3.09.69-.42.1-.81.36-1.31.11.5-.5.63-.86-.3-.79-.6.05-1.18.09-1.75.35-1.11.51-2.24.97-3.36,1.44.58-.67,1.19-1.23,2.01-1.58,1.34-.58,2.72-1.15,3.74-2.26.48-.52,1.06-1.01,1.69-1.07,1.6-.15,2.46-1.31,3.5-2.26.21-.19.69-.31.41-.71-.19-.26-.52,0-.76.1-.87.41-1.7.87-2.4,1.55-.2.19-.54.36-.74.08-.25-.34.14-.46.35-.61,1.12-.76,2.22-1.54,3.38-2.24.28-.17.81-.07.62-.6-.16-.43-.52-.71-1.06-.49-.99.42-2.05.68-2.96,1.28-.3.2-.61.56-1.1.19,1.17-1.03,2.49-1.9,3.43-3.37-.47,0-.71.03-.94,0-.22-.03-.65.27-.61-.24.03-.33-.27-.76.17-.98.29-.15.53.06.69.31.16.25.36.49.67.36,1.02-.44,2.06-.88,2.62-1.94-.83.37-1.99-.08-2.46,1.47-.05-1.52-.04-1.51-1.05-1.07-.24.1-.51.49-.81.06,1.59-1.63,3.02-3.45,5.39-4.14-1.06.5-2.17-.02-3.18.39-1.3.53-2.59.53-3.8-.3.7-.32,1.56-.08,2.15-.68.26-.26.89-.19.81-.73-.06-.42-.54-.4-.88-.49-.23-.06-.51-.17-.38-.47.1-.25.39-.27.63-.21.23.06.44.2.67.26.94.25,1.83.08,2.64-.44.15-.09.28-.31.29-.48.02-.24-.22-.31-.42-.33-1.32-.15-2.22-1.18-3.39-1.64-.23-.09-.63-.14-.47-.54.13-.33.46-.23.74-.18.54.11,1.04.23,1.54.57.62.43,1.48,1.27,2.14.29.66-.98,1.71.45,2.12-.5.32-.74.72-.8,1.39-.65.35.08.76.05.9-.38.13-.38-.19-.58-.45-.76-.31-.22-.73-.36-.64-.87.78-.33,1.28.94,2.22.36-.55-.47-1.4-.59-1.22-1.53.48.14.92.29,1.38.39.31.07.68.16.88-.16.24-.37-.16-.55-.33-.8-.29-.41-.58-.81-1.01-1.43,1.02.24,2.02-.43,2.5.29.47.69,1.18,1.05,1.62,1.69.34.5.78.65,1.34.59.22-.03.36-.15.33-.4-.07-.57-.2-1.11-.77-1.41-.07-.04-.15-.07-.22-.08-.38-.09-.6-.28-.35-.67.23-.35.56-.45.92-.19.12.09.18.26.29.38.33.36.73.81,1.17.27.46-.57-.1-.82-.52-1.06-.08-.04-.09-.19-.14-.3.53-.4.99-.61,1.42.08.6.97,1.87.7,2.64,1.4.24.22.52-.13.75-.39.35-.41.9-.68,1.38-.36.27.18.42.65.82.54.44-.12.46-.61.57-.99.09-.33.13-.68.25-1.28.07.78.08,1.29.16,1.8.24,1.69.41,1.85,2.22,2.07.24.03.37.13.43.33.33,1.06,1.43,1.42,2.04,2.24.19.26.86,1.02.93-.22.02-.38.4-.38.6-.07.24.37.71.63.51,1.25-.28.86.19,1.44.99,1.6.91.18.8-.71,1-1.2.42-1.06.77-2.15,1.15-3.23-.05,1.18-.32,2.29-.64,3.38-.5,1.7-.51,1.7,1.06,2.48.14.07.27.18.36.3.54.74,1.1.91,1.7-.09.25,1.72.25,1.73,1.78,2.21.29.09.31.31.44.49.81,1.17,2.2,1.86,2.79,3.24.05.13.35.23.52.22.66-.06.68.18.56.77-.22,1.14.37,1.82,1.46,1.72.57-.05.5.29.44.58-.24,1.14.14,1.71,1.37,1.52.04.59-.52,1.38,0,1.62.93.45.74,1.2.88,1.9.14.67,1.11,1.03,1.04,1.52-.21,1.56,1.32,2.63.99,4.19-.17.81.82,1.26.75,2.19-.1,1.35.38,1.55,1.62.92.14-.07.3-.11.44-.18,1.92-.96,4.07-1.35,5.89-2.56.46-.3,1-.39,1.6-.18-1.94.89-2.99,2.83-4.86,3.85-1.32.71-2.52,1.78-3.42,3.07-.27.39-.38.68.09.99.7.45.32.68-.2.81-.5.12-1.04.1-1.52.27-.39.14-.9.39-.78.92.11.48.65.4,1.03.37.86-.05,1.72-.23,2.57.29-.42.19-.77.04-1.11-.01-2.02-.28-3.81.59-5.33,1.59-.72.47-1.27,1.11-2.2,1.17-.2.01-.41.1-.38.36.03.24.25.29.46.3.63.04,1.31-.21,2.09.41-1.28.17-2.38-.4-3.53.21.94.7,2.1.13,2.82.8-2.08.82-4.54-.19-6.56,1.2.18.53.73.4.96.81-.4.03-.76.03-1.12.08-1.14.14-2.28.27-3.4.64-1.15.38-1.53,1.64-2.66,2.05-.42.15.32.3.38.57-2.06.36-4.1.71-5.88,1.93-.75.51-1.34,1.27-2.26,1.52-.31.08-.73.18-.65.55.1.44.54.18.82.15,1.47-.16,2.94-.34,4.67-.54-1.05.86-2,1.01-3.01,1.14-2.6.32-5.17.78-6.64,3.37-.29.52-.58,1.06-.99,1.49-1.46,1.57-2.04,3.5-1.43,5.43.57,1.82.97,3.79,2.23,5.35.01.02.08,0,.31-.02-.25-.76-.49-1.5-.73-2.23-.55-1.68-1.01-3.35.15-5,.29-.4.48-.73,1.02-.52.45.17.78.43.65.98-.11.48-.03.95.01,1.43.2,2.12,1.17,4.17.59,6.37-.05.18-.02.41.43.51-.05-1.46.36-2.79,1.01-4.05.05-.11,0-.4-.08-.43-1.35-.45-.95-1.55-.96-2.51-.01-.74.04-1.23.87-.49.28.25.68.33.99.05.26-.25.07-.56-.12-.74-.95-.97-.51-2.09-.37-3.17.05-.42.15-.94.7-1,.58-.07.67.44.83.85.09.25.06.58.41.67.32-.21.3-.57.3-.86,0-1.4,1.05-1.75,2.06-2.13.5-.18.75.21.56.57-.34.65-.74,1.35-1.3,1.78-1.31,1.02-1.57,1.55-1.14,3.13.11.38.24.79.21,1.17-.21,2.97.17,5.89.46,8.83.5,5.04.95,10.09,1.38,15.14.19,2.18.46,4.37.23,6.57-.14,1.33-.55,1.61-1.81,1.32-2.05-.47-3.28-2.18-3.13-4.3.1-1.34-.15-2.65-.37-4.27-.23.41-.36.54-.37.67-.07,1.87-.31,3.78.09,5.61.41,1.86,1.62,3.36,3.3,4.21,1.61.81,3.33,1.41,5,2.12,2.39,1.03,4.87,1.06,7.23-.37.53-.32,1.11-1.2,1.85-.15.19.27.63.05.85-.18.91-.94,2.37-.85,3.3-1.77.21-.21.73-.25.99.06.23.27-.2.47-.24.73-.05.28-.48.48-.14.92.72-.18,1.36-.46,1.9-1.08.94-1.08,1.93-2.12,3.03-3.04.39-.33.79-.46,1.17-.09.47.45-.09.7-.29.98-.44.62-1.32.87-1.52,1.75,1.33-.05,2.97-1.29,2.71-2.36-.31-1.3.58-1.48,1.13-2.1.27.38-.26.84.24,1.02.28.1.51-.16.7-.38,1.36-1.54,2.73-3.07,4.09-4.61.26-.29.43-.89.69-.92,1.53-.15,1.81-1.43,2.3-2.45.56-1.14.95-2.37,1.41-3.55.09-.23.23-.5.5-.37.25.12.21.43.08.64-.48.75-.5,1.7-1.07,2.39-.24.29-.46.63-.2.97.32.43.54-.42.88-.16.13.34-.46.54-.13.87.06.06.23.04.33,0,.66-.25.92-1.16.48-1.65-.19-.21-.02-.39.1-.53.57-.68,1.09-1.38,1.33-2.25.08-.3.24-.4.53-.27.87.4,1.02-.26,1.39-.82.73-1.12,1.49-2.27,3.11-2.49-.63-.68-.33-1.29,0-1.97.5-1.05,1.57-1.67,1.98-2.76.35-.93.82-1.77,1.54-2.52-.47.85.78,1.47.22,2.32-.15.23-.28.6.02.75.36.19.69-.19.72-.44.16-1.33,1.13-2.16,1.83-3.14.32-.45-.05-1.09.39-1.45,1.46-1.22,2.44-2.64,2.04-4.72,1.13.79,1.33,1.54.81,2.71-.14.3-.33.67.01.85.36.19.53-.23.71-.48.53-.74.66-2.04.48-2.39-.71-1.35.29-2.38.18-3.69.82,1.19,1.12,1.16,1.78.04.46-.79.87-1.62,1.24-2.43.75-1.66,2.37-3.08,1.64-5.11.51-.4.72.64,1.21.01.59-.74.48-1.44.07-2.2,1.38-.14,1.86-1.79,1.04-3.62.9.54,1.04-.08,1.27-.64.75-1.82.26-3.9,1.4-5.71.79-1.25,0-2.78-.3-4.18.36,0,.78.44.94-.15.3-1.11.73-2.21.26-3.39-.32-.79-.8.19-1.18-.12.41-1.41-.32-2.41-1.24-3.26-1.59-1.46-3.43-2.56-5.46-3.36.53.06,1.05.2,1.56.35,2.11.59,3.55,2.25,5.31,3.4.27.17.51.43.86.23.34-.2.27-.55.23-.86-.24-1.95-.81-3.84-1.18-5.76-.28-1.48-.65-3.06-1.76-4.26-.09-.1-.17-.31-.13-.43.55-1.64-.39-2.83-1.19-4.06-.23-.35-.38-.59-.2-1.07.19-.5.14-1.22-.56-1.3-1.17-.14-.77-.87-.65-1.46.05-.23.45-.4.28-.72-.74-1.4-.61-3.4-2.67-3.93-.38-.1-.6-.48-.68-.91.4-.22.69.43,1.12.14-.03-.18-.02-.36-.09-.49-.77-1.5-1.74-2.86-2.93-4.06-.39-.39-.61-.73-.51-1.52.13-1.01-.72-2.07-1.78-2.63-.42-.22-1.01-1.29-1.28.15-.03.19-.25.24-.38.12-.57-.54-1.87-.66-1.8-1.3.07-.66,1.07.14,1.67-.01.11-.03.24.03.36.02.65-.05.89-.35.52-.94-.94-1.51-1.79-3.09-2.86-4.5-.86-1.14-1.33-2.9-3.33-2.7-.07,0-.15-.16-.32-.34,1.37-.21.79-.71.29-1.28-.65-.74-1.66-1.01-2.27-1.72-.9-1.05-2.32-1.46-2.91-2.93-.81-2-3.35-2.14-4.64-3.84-.5-.66-1.45-1.68-2.74-1.28-.23.07-.25-.03-.18-.25.18-.63-.38-.7-.74-.88-.39-.19-.97-.2-1.19-.5-.74-1.01-1.74-1.01-2.8-.96-.59.03-1.19.07-1.78.11.1-.16.2-.21.31-.24.47-.13,1.24.07,1.32-.55.08-.65-.61-.97-1.17-1.17-1.55-.56-2.77-1.69-4.25-2.39-2.19-1.03-4.17-2.74-7.04-1.96.73-.85.37-1.18-.32-1.43-1.09-.38-2.51-.31-3.29-.86-1.61-1.13-3.05-.56-4.6-.34.63-1.17.54-1.53-.81-1.57-1.15-.04-2.07-1.07-3.29-.64-.12.04-.35-.16-.49-.28-.81-.73-1.83-.63-2.81-.78-1.29-.19-1.94.38-2.38,1.45-.03.07-.09.14-.16.18-.13.07-.29.2-.41.17-.23-.06-.25-.3-.19-.49.07-.23.17-.45.3-.65.45-.71.35-1.05-.57-1.14-1.71-.16-3.38-.29-4.45,1.45-.1.17-.15.37-.22.56-.08-.08-.16-.16-.23-.23.52-1.5.47-1.47-1.16-1.48-1.39-.01-2.73.71-4.15.19-.35-.13-.8,0-1.16.21-1.12.65-2.68.02-3.62,1.22-.03.04-.17.02-.22-.01-.96-.58-1.81,0-2.61.35-1.21.53-2.32,1.14-3.64,1.54-2.15.64-4.45,1.22-6.27,2.74-.31.26-.36.46.02.6.98.38.7,1.14.69,1.87-.41-.01-.43-.3-.54-.49-.24-.43-.5-.88-1.04-.88-.66,0-.79.6-1,1.05-.44.94-.26,1.96-.32,3.19-.42-.99-.19-1.77-.15-2.54.04-.81-.28-1.21-1.06-.78-1.41.78-2.57,1.81-3.14,3.4-.24-.32-.33-.92-.95-.63-1.43.67-2.8,1.42-3.21,3.14-.07.29.03.75-.52.37-.38-.27-.56.13-.82.28-.95.57-1.46,1.58-2.25,2.28-.6.53,0,.76.05,1.01-1.37.37-2.38,1.21-3.4,1.98-.39.3-.95.65-.95,1.18,0,.75-.48.94-.98,1.26-1.12.74-1.19,1.33-.39,2.38.1.13.24.33.08.39-.95.38-.12,1.12-.32,1.69-.53-.25-.61-.76-.81-1.17-.32-.67-.71-.75-1.08-.09-.62,1.11-1.81,1.98-1.57,3.49.02.1,0,.29-.04.31-1.41.42-.25,1.04-.11,1.56.11.37.63.54.59,1.07-.55-.15-.78-.55-1.05-.88-.56-.69-.95-.53-1.31.2-.51,1.04-.76,2.08-.18,3.21-1.11-.32-1.67-.03-1.35.66.5,1.08-.23,2.5,1.07,3.32-.4-.22-.68-.5-.99-.75-.36-.28-.7-.29-1.04.1-1.05,1.2-1.06,2.66.05,3.82.48.49.62,1.26.24,1.55-.43.34-.72-.42-.98-.78-.25-.36-.47-.72-.92-.29-.87.82-.82,2.81.06,3.56.29.24.83.43.49.91-.32.44-.61-.07-.91-.2-.45-.19-1.08-.67-1.19.21-.19,1.49-.87,3.09.59,4.47-.59-.23-1.16-.3-1.18.44-.04,1.36-.54,2.81.79,4.08-.52.09-1.11.05-1.04.63.19,1.51.06,3.11,1.09,4.39.23.28.35.32,0,.59-.69.51-.4,1,.12,1.46.12.11.58,0,.33.38-.89,1.34.33,2.19.74,3.22.09.22.53.3.37.66-.58,1.3.57,2.19.78,3.3.26,1.31,1.12,1.99,2.52,2.25-.53.24-1.22.02-1.2.63.03.58.37,1.41.97,1.33,1.33-.17,1.58.47,1.59,1.53,0,.23.15.45.24.67.12.3.21.64.62.64.42,0,.46-.38.58-.66.12-.26,0-.78.46-.68.49.11.25.57.23.91-.03.46-.23,1.08.32,1.28.53.2.54-.43.72-.75.13-.24.31-.38.58-.25.32.16.2.39.03.58-.55.59-.2,1.3-.26,1.96-.03.31-.1.69.32.8.38.11.57-.23.77-.46.2-.24.39-.5.56-.78.17-.29.3-.62.86-.64-.9,1.27-.8,2.49-.31,3.74.18.45-.18,1.26.41,1.36.7.11.2-.89.8-1.22.16.96.31,1.88.48,2.8.05.28.22.58.58.39.24-.13.27-.42.06-.61-.91-.79-.03-1.44.16-2.14.06-.2.12-.54.45-.42.25.09.28.38.25.62-.05.55-.12,1.11-.16,1.66-.02.23-.04.53.27.57.28.04.39-.24.47-.46.28-.71.47-1.44.29-2.22-.07-.29,0-.57.28-.73.09-.05.26-.04.33.01.26.22.14.5.07.77-.24.97-.48,1.94-.46,2.95,0,.33.12.66.45.78.4.15.53-.24.73-.47.52-.6.56-1.43,1.09-2.11-.73,1.31.64,2.27.44,3.47-.03.19.02.43.25.49.3.08.42-.19.51-.39.18-.44.31-.91.49-1.35.14-.36.45-.49.78-.3.4.23.03.46-.07.69-.24.55-.99,1.11-.36,1.69.53.49.28.82.1,1.24-.19.44-.43.86-.59,1.31-.14.42.18.54.52.61.29.06.6.13.66-.26.19-1.19.95-2.27.52-3.59-.23-.7.25-1.22,1.02-1.52-.61,1.46.33,2.82.1,4.24-.04.24-.08.51.23.59.26.08.47-.09.61-.29.15-.22.24-.48.41-.83.64,1.04,1.11.25,1.77,0,1.08-.41,2.03-.92,2.89-1.67,1.24-1.08,2.73-1.73,4.3-2.18-1.35.78-2.89,1.37-3.92,2.47-1,1.06-2.58,1.6-3.07,3.2,2.3-.99,4.57-1.97,6.78-3.41.05.73-.28.87-.56.96-1.89.57-2.74,2.6-4.56,3.26-.19.07-.33.34-.45.55-.2.34-.46.75-.08,1.09.38.34.77-.01,1.08-.21.25-.16.43-.46.62-.71.19-.26.34-.66.68-.59,1.08.2,1.65-.63,2.42-1.12.13,1.02.63.72,1.2.39.3-.17.5-.79.98-.35.84.77,1.77.26,2.65.2,1.6-.11,2.77-1.18,4.04-2.01.24-.16.49-.37.75-.14.27.24.07.5-.07.75-1.06,1.98-3.51,1.83-4.94,3.23-.02.02-.08,0-.12-.02-.96-.44-1.3.24-1.6.92-.26.58-.76.9-1.23.56-1.15-.81-1.31.2-1.67.81-.16.27-.23.58-.46.82-.27.29-.4.62-.09.96.3.33.68.46,1.07.2.52-.35,1.15-.32,1.7-.54.23-.09.49-.16.58.17.06.22-.1.41-.3.45-.91.2-1.33,1.03-2.01,1.57,1.17-.29,2.39-.43,3.35-1.25.65-.56,1.41-.82,2.2-.62.78.2,1.5.12,2.24-.06.43-.11.85-.24,1.29-.11,2.2.68,4.49.62,6.74.81,1.52.13,3.1-.22,4.64-.44.85-.12,1.18-.92,1.19-1.59.01-.68-.76-.66-1.31-.72-.51-.06-1.02-.12-1.53-.18.93-.2,1.85-.18,2.77-.21.66-.02,1.8-1.13,1.63-1.62-.27-.77-1.01-.48-1.56-.49-.7-.02-1.4.1-2.22.17,1.92-.98,4.39.15,6.02-2.12-1.98-.08-3.7.36-5.44.34,1.54-.44,3.12-.69,4.62-1.2,1.46-.49,3.08-.76,4.28-1.97-4.71-1.81-9.25.73-13.86.12,1.56.16,3.04-.35,4.51-.62,3.61-.67,7.29-.84,10.88-1.61.46-.1.93-.15.95-.71.02-.64-.52-.75-1-.79-.91-.08-1.83-.1-3-.16,1.04-.35,1.85-.2,2.64-.27.42-.04.99.16,1.18-.34.22-.55-.33-.8-.68-1.13-.81-.78-1.89-1.01-3.08-1.43.94-.17,1.65-.09,2.31.21.71.32.87.06.73-.61-.28-1.32-1.05-2.29-2.07-3.14-1.17-.98-2.41-1.6-3.96-1.48-2.14.17-4.29.37-6.43.54-.29.02-.65.18-.82-.24.18-.39.55-.3.84-.31,2.86-.15,5.73-.28,8.59-.42.4-.02,1,.17.81-.6-.27-1.07-1.49-2.15-2.57-2.19-3.03-.1-6.06-.15-9.03.65-.36.1-.76.23-1.15-.12.11-.08.19-.19.28-.2,3.12-.29,6.12-1.59,9.34-1.09.32.05.7.09.63-.42-.12-.87-1.9-2.23-2.77-2.06-.81.16-1.59.03-2.39.02.62-.17,1.24-.3,1.87-.42.51-.1.72-.32.41-.82-.3-.48-.72-1.13-1.2-1.09-1.39.11-2.16-1.17-3.41-1.26.17-.09.33-.1.48-.12.3-.04.71.12.87-.23.19-.41-.21-.65-.45-.89-1.17-1.21-2.79-1.07-3.65.25-1.21-.91-2.35-.19-3.51.12Zm93.58,195.2l-.03-.03c-.04.84.41,1.53.69,2.27.25.64.71.56,1.09.08.58-.74,1.04-1.52.83-2.53-.08-.4-.2-.86.12-1.14,1.01-.89.86-2.07.93-3.2.02-.37.01-.76-.47-.84-.47-.08-.6.26-.72.63-.11.32-.21.88-.62.69-.54-.25-.06-.69.09-1.01.1-.2.31-.36.49-.5.75-.6.88-1.32.65-2.25-.17-.68-.76-1.19-.82-1.92.46-.05.54.26.69.48.14.2.3.42.57.33.27-.09.3-.37.25-.61-.29-1.42-.17-2.98-1.42-4.07-.25-.21-.53-.54-.38-.95.78-2.08-.02-3.8-1.19-5.44-.14-.19-.38-.39-.22-.63.43-.63.03-1.09-.31-1.5-1.32-1.63-1.84-3.69-2.92-5.43-.81-1.31-1.39-2.94-3.17-3.4-.17-.05-.55-.12-.3-.46.53-.73-.15-1.09-.47-1.53-.66-.92-2.03-1.25-2.19-2.61-.01-.12-.22-.22-.34-.33-1.32-1.27-2.79-2.22-4.79-1.96.17-.39.39-.35.57-.39.27-.05.62.03.73-.29.13-.38-.27-.54-.44-.78-.49-.67-1.24-.61-2.11-.59.79-1.07.27-1.61-.55-2.1-.78-.48-1.59-.09-2.47-.09.95-.99.83-1.48-.37-1.92-.39-.15-.79-.11-1.14-.52-.85-.98-1.16-.95-1.7.19-1.54,3.26-3.54,6.23-5.44,9.27-.6.96-1.03,2.04-1.77,3.1.86-.04,1.1-.6,1.55-.84.17-.09.38-.21.55-.02.17.19.01.38-.12.52-.56.62-1.13,1.24-1.69,1.86-.26.29-.77.61-.48.97.38.46.75-.14,1.12-.3.45-.19.75-.81,1.45-.55-.3.62-.96.76-1.24,1.21-.79,1.26-3.28,1.49-2.32,3.8-.64.99-.72,2.21-1.9,3.04-2.11,1.47-3.82,3.43-5.05,5.88.72-.05.99-.79,1.82-.75-.27,1.02-.83,1.82-1.31,2.64-.25.43-.55.84-1.22.81-.47-.02-1.62,1.44-1.42,1.69.53.65.95-.18,1.45-.17.07,0,.14.04.31.08-.66.56-.98,1.11.44,1.42-.63.16-.94.21-1.24.32-.35.14-.9.21-.74.74.13.42.6.31.94.2,1.68-.54,2.81.7,4.48,1.2-.95.17-1.51-.11-2.11-.14-.46-.02-1.03-.21-1.36.2-.44.54.54.64.5,1.32-1.16-1.1-2.64-1.11-3.86-1.77-.48-.26-.84-.04-1.19.25-.18.15-.43.31-.28.58.22.41.62.21.97.25.39.05.77.2,1.14.33.2.07.34.24.24.47-.13.29-.36.29-.58.1-.26-.22-.45-.6-.95-.29.34.79,1.44.95,1.67,1.92-.71-.11-1.2-.38-1.61-.86-1.13-1.31-1.77-1.53-3.28-1.22-.15.03-.35-.2-.53-.21-.83-.06-1.71-.36-2.54.39.96.58,1.1,1.47,1.46,2.48-1.41-1.11-2.22-3.05-4.37-2.05-.05.02-.14-.07-.22-.09-.39-.13-.82-.24-1.13.08-.41.43.19.76.24,1.17-.71-.41-1.6-.45-2.13-.1-.76.51-.92.16-1.25-.37-.28-.44-.68-.91-1.24-.8-1.23.26-2.43.03-3.64,0-.62-.02-1.21-.08-.75.98-.43-.18-.7-.41-.93-.37-.67.1-1.2-.89-1.74-.42-.67.58.64.97.38,1.71-.62-.54-1.34-1.11-2.04-.39-.35.35-.4.83-1.05.47-.44-.24-1.01-.25-1.08-.94-.06-.61-.4-.77-1.06-.8-1.12-.04-1.52.42-1.38,1.49-.58-.16-.68-.53-.8-.92-.21-.68-.72-.71-1.03-.18-.43.74-.94.66-1.61.49-.87-.23-1.78-.35-1.62,1.23-.27-1.78-1.6-1.85-2.69-1.77-1.45.11-.25,1.61-.96,2.36-.13-.68-.2-1.27-.36-1.83-.37-1.34-2.79-1.57-3.43-.32-.75-.44-1.29-1.27-2.22-1.31-.81-.04-1.57-.72-2.49.19-.49.48-1.25.7-1.39,1.81-.31-.93-.66-1.57-.38-2.25.21-.52-.08-.66-.46-.74-.43-.1-.87-.07-1.3.04-.76.21-1.5.42-2.25-.17-.44-.34-1-.15-1.44.2-.32.25-.63.53-.98.83-.04-.19-.06-.26-.07-.34-.03-.6.89-1.99-.93-1.11-.19.09-.25-.09-.33-.24-.59-1.08-1.69-1-2.62-.95-.93.05-.55,1.07-.74,1.66-.04.11-.08.14-.22.01-.08-.33-.13-.73-.27-1.1-.19-.49-.44-.92-1.08-.98-.68-.07-.75.36-.9.85-.16.53-1.42.62-1.81.17-.48-.56-2.32-.92-3.03-.75-1.01.24-1.4,1.34-2.4,1.68-.03-.61.37-.88.64-1.19.42-.48.93-.87,1.37-1.33.36-.38.35-.8-.21-.87-1.34-.15-2.65-.85-4.05-.31-.23.09-.44.4-.78.09.04-.38.71-.67.27-1.14-.38-.4-.93-.41-1.35-.22-.79.36-1.63-.37-2.4.21-.21.16-.23-.19-.34-.33-.66-.93-1.39-1.73-2.72-1.44-.4.09-.83.06-1.33.09,1.02-1.05,1-1-.27-1.46-1.07-.39-2.11-.78-3.25-.15,1.02-1.09,1.02-1.12-.23-1.65-.62-.27-1.22-.64-1.86-.81-1.89-.52-3.33-2.47-5.68-1.67.82-.69.54-1.06-.16-1.4-.32-.15-.63-.35-.88-.6-.6-.6-1.11-.89-1.94-.25-.49.38-1.24.44-1.94.66.15-.49.58-.55.79-.81.3-.36,1.21-.37.9-1.04-.3-.66-1.02-.46-1.61-.28-.27.08-.54.16-.8.24-.47.15-.78,0-.9-.5.24-.36,1.17-.09.91-.82-.22-.61-.76-.9-1.45-.48-.81.5-1.3-.43-1.37-.71-.24-1-.97-1.03-1.69-1.19-.15-.03-.44-.1-.44-.12.17-1.04-1.4-1.21-1.16-2.33.08-.36-.34-.58-.78-.69.17,1.62-1.15.86-1.82,1.16-.21.1-.5.1-.61-.19-.13-.37.15-.44.42-.57.73-.36.76-1.21.06-1.61-.26-.15-.58-.21-.9-.33.39-.42,1.23.01,1.25-.52.02-.59-.71-.77-1.22-.95-.45-.15-.93-.22-1.4-.26-.58-.04-1.16-.01-1.89-.01.98-.84,1.79-1.57,3.01-1.6-.78-.61-1.55-.84-2.42-.83-1.07.01-1.07-.03-1.27-1.17.48-.14.56.33.83.52.55.39,1.15.17,1.73.02.26-.07.38-.31.24-.57-.33-.64-.62-1.32-1.51-1.34-.67-.02-1.36-.03-2.17-.31.61-.16,1.13-.31,1.11-.93-.02-.61-.66-.61-.98-.92-1.08-1.02-2.27-1.82-3.77-2.06,0,0,0-.07,0-.31,1.31.48,3.05-.24,3.63,1.77.09.3.42.34.72.26.16-.05.35-.18.21-.33-.34-.39-.07-1.09-.7-1.31-.83-.29-1.29-1.01-2-1.63.95.07,1.17-.18.74-1.01-.4-.76-.84-1.44-1.52-1.96-.19-.15-.43-.3-.21-.56.2-.24.42-.1.63.05.35.26.58.75,1.58.58-1.21-.6-1.16-1.66-1.76-2.36-.59-.69-.72-1.37.13-1.97.33-.23.32-.49.19-.83-.17-.45-.49-.97-.38-1.36.34-1.27-.14-2.25-.83-3.22-.25-.35-.29-.96.13-1.04,1.25-.22.82-1.11.75-1.75-.22-2.08-1.17-3.84-2.79-5.32.6-.11.93.68,1.31.25.38-.43-.04-.87-.28-1.29-.35-.63-.65-1.35-.5-2.06.19-.89,0-1.68-.37-2.43-.72-1.49-.81-3.14-1.03-4.71-.3-2.13-.61-4.26-.8-6.41-.27-3.13-.79-6.23-.63-9.4.21-4.21.34-8.43.5-12.64.01-.38-.08-.72-.42-.93-.37-.22-.7-.1-.96.21-.22.26-.57.25-.82.38-1.39.73-3.16.89-3.93,2.57-.07.14-.31.24-.49.29-.6.17-1.38.19-.93,1.18-.61.24-1.36.18-1.79.82-.04.07-.13.13-.13.2-.03.69-.52.89-1.06,1.11-.49.2-.87.59-1.06,1.09-.14.35-.29.63-.66.79-1.49.61-2.17,2.29-3.77,2.84-.34.12-.81.38-1.21.61-.69.4-.67,1.5-1.06,1.65-1.12.41-1.33,1.54-2,2.07-1.35,1.07-1.52,2.86-2.85,3.84-.28.21-.59.64-.4,1.06.22.48.69.24,1.07.22.34-.02.69-.14,1.07.07-.13.07-.22.16-.33.18-2.13.45-3.79,1.39-4.13,3.8-.02.18-.18.37-.33.49-1,.8-1.3,1.98-1.71,3.1-.19.51-.31,1.05-.47,1.57-.4,1.33-1.45,2.29-1.82,3.66-.15.57.3,1.11-.18,1.64-1.08,1.19-1.21,2.86-1.94,4.24-.29.55-.87,1.35.03,2.03.21.16-.04.34-.22.42-.59.23-.7.77-.72,1.28-.08,1.44-.41,2.92.55,4.24.1.14.01.32-.15.4-2.02.92-.86,2.88-1.34,4.3-.14.4.14.99-.13,1.56-.44.97.02,1.87,1.07,2.18.53.16.44.51.41.84-.03.3.08.86-.48.72-.4-.1-.52,0-.58.32-.05.28-.1.65.23.72.83.19.62.71.4,1.19-.58,1.26.52,2.33.35,3.54,0,.06.07.16.13.19.54.31.54.61.02.94-.13.08-.24.22-.32.35-.37.63-.47,1.41-.03,1.91.46.53.61-.37.96-.51.27-.11.58-.17.81-.02.34.23.04.5-.07.72-.72,1.45-1.66,2.86-.78,4.58.16.31.02.77.38.97.51.28.45-.6.95-.5.1.44.04.86-.13,1.27-.11.26-.23.57.06.76.24.16.44-.06.6-.25.15-.18.3-.45.56-.2.2.19.11.48-.02.67-.29.42-.61.83-.95,1.22-.35.41-.25.76.24.7,1.12-.12.81.49.78,1.15-.05,1.05-.2,2.17.65,3.25.22-.55.36-.91.5-1.24.63,1.23.9,2.6,1.76,3.73.5.65.86.61,1.26-.04.13-.22.02-.58.39-.68.18.29-.07.54-.07.8-.01,1.2-.71,2.43.11,3.6.33.48.8.92,1.36.81.63-.12.19-.74.27-1.12.02-.09.14-.15.12-.13,1.08,1.11.76,2.45.71,3.78-.02.63.5,1.21.04,1.95-.19.32.32.96.81,1.02.6.07.58-.51.61-.95,0-.12-.02-.24-.02-.36,0-.25,0-.49.31-.57.21-.05.39.05.53.2.23.25.02.39-.13.59-.66.9-.28,1.76.24,2.52.26.39.78.6,1.28.5.49-.1.42-.61.54-.97.2-.6.03-1.22.16-1.83.16.61.19,1.23.15,1.84-.06.81.09,1.45,1.02,1.6.43.07.54.29.56.74.06,1.51-.88,3.4,1.45,4.12.03,0,.04.07.06.1.65.55,1.12,1.11,1.04,2.09-.06.7.67,1.04,1.28.96.68-.09.42-.73.38-1.18-.03-.33-.25-.69.14-.94.78.43,1.1.96.71,1.86-.24.55-.01,1.09.71,1.03.39-.04.69.28,1.14.04.76-.41.57.71,1.14.85.37.09-.16.25-.25.41-.33.59.27,2.75.84,2.74.53-.01.91-.11,1.03.56.03.18.28.28.5.22.24-.07.29-.29.24-.48-.18-.73,0-1.59-.56-2.17-.62-.64-.45-1.13.07-1.71.32.49.39.97.49,1.49.23,1.17.16,2.49,1.29,3.32.24.18.16.41.16.65,0,1.4.11,1.48,1.61,1.4-.01-.62-.37-1.23-.09-1.92.52.37.42.85.47,1.26.13.95.72,1.69,1.58,1.7.84,0,1.65-.35,2.52.05.25.12.69-.11.96.23.11.14.12.31,0,.43-.28.25-.58.15-.9.04-.65-.24-.88.2-.76.66.23.84.31,1.88,1.52,2.01-.7.99-.33,2.02.96,2.72.21.11.42.32.64.18.25-.15.05-.42.06-.63.06-1.23-.79-1.75-1.68-2.26q.36-1.14,2.81-.25c-.76,1.16.21,2.87,1.67,2.97.49.03.91.01.8-.68-.07-.47.12-.76.75-.79-.49,1.27.11,1.69,1.37,1.52-.32.52-1.12.42-.84,1.24.4,1.15,1.33,1.11,2.22,1.21.7.07.44-.49.48-.84.03-.2.03-.44.27-.47.34-.05.33.26.4.48.55,1.65,1.19,3.25,2.29,4.62.26.32.51.68.98.48.45-.19.29-.59.19-.94-.04-.15-.1-.31.14-.51.46.47.66,1.04,1.69,1.13,1.31.12.91-.42.88-.97-.02-.35-.21-.69-.28-1.04-.14-.68.12-1.66-1.16-1.41-.05,0-.2-.16-.19-.25.01-.18.19-.31.33-.24.62.28,1.21-.08,1.89-.14-.18.4-.42.69-.41.97.04,1.91.57,3.66,1.79,5.17.17.21.38.41.5.65.76,1.52,1,1.56,2.02.44.19-.2.49-.3.37-.62-.17-.48-.43-.09-.66-.03-.37.1-.67-.06-.93-.31.16-.57.76-.39,1.07-.68.69-.61,1.01-.38.94.47-.08,1.1.48,1.62,1.5,1.75.93.13,1.55.57,1.71,1.55.05.32-.06.87.49.75.55-.12.33-.63.28-1.01-.04-.31-.28-.47-.47-.67-.21-.22-.06-.62.09-.55.61.29,1.25-.31,1.62-.09,1.05.62,2.11,1.36,2.48,2.63.24.83.57,1.4,1.55,1.25.19-.03.45-.07.56.03.48.44,1.01,1.07,1.63.61.68-.51-.5-.96-.3-1.55l-.03.03c.64.32,1.08.94,1.8,1.17.31.1.56.55.95.22.33-.28.4-.67.35-1.09-.09-.66-.17-1.33-.25-1.99.34.6.6,1.18.95,1.71,1.11,1.66,1.88,1.92,3.7,1.18.3-.12.67-.14.77.04.44.77,1.37.85,1.89,1.37.81.81,1.61.39,1.98-.07.56-.7,1.25-.7,2.09-1.09-.59,1.7.65,2.07,1.57,2.51.74.36.61-.73,1.06-.97.23.57.81.97.52,1.73-.16.42.35.6.71.58,1.37-.07,2.81.08,3.95-.95.15-.14.32-.27.52-.12.17.11.12.29.04.43-.61,1.04.41,1.17.89,1.6.36.32.65.07.95-.17.33-.27.42-.57.2-.94-.22-.38-.44-.76-.94-.86-.29-.06-.36-.25-.29-.54.09-.4.35-.49.72-.44.2.03.41-.14.47.29.15,1.02,1.15,1.45,1.76,2.15.31.36.83.18,1.21-.11.37-.28.63-.62.42-1.13-.08-.21-.31-.39-.14-.67.35-.13.67-.02.8.29.42,1.03,1.11.66,1.77.38.25-.11.42-.39.67-.48.56-.19,1.36-.98,1.41.47.01.33.28.56.53.77,1.34,1.09,2.8.47,3.42-1.55.49.55,1.03.93,1.37,1.59.62,1.2,1.41,1.4,2.44.76.27-.17.22.08.31.14.69.44,1.05.14,1.12-.56.03-.29.02-.52.35-.34.68.38,1.31.05,2.09-.18-.27.75-.42,1.54.62,1.28,1.45-.36,2.85-.94,3.74-2.41.29.37.7.54,1.11.83-.97.05-1.19.87-1.67,1.41-.22.24-.81.27-.59.74.21.43.88.61,1.14.36.73-.69,1.19-.18,1.72.2.4.28.85.4,1.14-.09.34-.56-.2-.63-.54-.8-.29-.14-.68-.56-.45-.69.63-.35,1.5.21,2.14-.44.04-.04.37.27.21.55-.02.03-.04.07-.07.1-.32.38-.14.67.19.9.37.27.67.08.94-.21.16-.17.23-.48.56-.52.07.56-.83.98-.12,1.44.49.32,1.08.25,1.57-.12.19-.14.41-.28.52-.48.18-.34.25-.92.77-.63.38.21.18.71,0,1.09-.04.09,0,.22,0,.62.57-.53,1.44-.16,1.67-.63.6-1.25,1.56-1.51,2.77-1.43.1,0,.21-.13.31.03-.12.29-.54.6-.1.92.43.32.7.61.39,1.19-.15.28.19.39.43.41.62.06,1.17.05,1.5-.67.28-.63.51-1.13-.18-1.67-.38-.3-.74-.64-1.29-.85.56-.31.9-.13,1.23.13.34.26.71.33,1.12.17.32-.12.57-.68.91-.4.47.39-.27.51-.33.81-.02.11-.04.24,0,.33.53.95,1.27,1.65,2.33,1.95.39.11.86.19,1.12-.17.31-.44-.59-.36-.4-.94.64-.1,1.34-.3,1.82-.96.18-.24.73-.14.98.11.16.16.2.53.16.78-.08.49-.41.07-.62.09-.58.07-1.15.32-1.06.88.09.59.77.39,1.23.39.29,0,.54-.16.7-.4.25-.37.59-.42.94-.24,1.24.63,2-.14,2.61-.99.58-.81,1.26-.61,1.68-.14.92,1.03,2.19.75,3.28,1.14.27.1.83-.21.45-.45-.82-.52-.9-1.75-1.99-1.93-.2-.03-.41-.08-.44-.32,0-.09.09-.23.17-.27.25-.11.45,0,.63.19.78.82,2.21.93,2.5,2.31.05.26.49.28.76.22.87-.2,1.77-.32,2.6-.55,1.42-.4,2.04-2.23,3.72-2.35.07,0,.12-.2.19-.29.14-.18.29-.47.56-.31.27.15.14.41.02.63-.45.78.06.87.65.94.43.05.76-.18,1.14-.3.54-.17,1.44,0,1.44-.74,0-.63-.93-.56-1.43-.83-.22-.11-.69.04-.61-.36.09-.4.52-.3.81-.18.44.17.85.42,1.29.61.45.19,1.2-.02,1.17-.23-.16-.96.95-1.3.89-2.17-.05-.59.39-.92.93-1.16.11.79-.37,1.28-.63,1.86-.47,1.09,1.17.35,1.01,1.17-.11.03-.23.09-.34.09-.53,0-.83.23-.81.78.03.68.51.56.94.54.5-.02,1.2.18,1.37-.39.21-.71-.7-.57-1.02-.91-.05-.06-.13-.09-.19-.14.98.01,1.98.25,2.95-.09.28-.1.71-.22.7-.57,0-.49-.45-.3-.74-.31-.25,0-.53-.06-.56-.34-.04-.35.31-.26.51-.33.37-.13.76-.25,1.11-.43.4-.2.61-.56.44-.99-.16-.4-.52-.42-.91-.36-.34.05-.72.38-1.1-.14.21-.09.35-.15.49-.2.75-.23,1.86.24,2.03-1.1.03-.2.32-.17.49-.01.91.87,1.97.1,2.96.22.47.06.95-.56.53-1.26-.21-.34-.44-.64-.8-.87,1.16-.06,2.26-.42,3.38.24.49.28,1.36.07,1.64-.51.53-1.11.19-2.81,2.14-2.88.06,0,.15-.1.17-.16.11-.59.41-.3.79-.29.83.02,1.83.52,2.32-.95.18-.55.51-1.44,1.08-1.99.37.36-.16,1.11.55,1.08.5-.02.65-.57.7-1,.19-1.5,1.06-2.82,1.07-4.37,0-.51.55-.63.94-.82.15-.07.34-.09.41.09.21.55-.31.59-.56.85-.35.37-.22.91-.13,1.36.06.28.34.28.6.19.71-.25,1.2-1.93.91-2.63-.26-.62-.71-1.36-.26-2,.42-.59.96-1.1,1.75-1.36,1.55-.51,1.75-1.09,1.15-2.69-.28-.74-.1-1.39.38-1.94.77-.87.87-1.88.06-2.74-.58-.62-.26-.87.26-1.17Zm-130.62-57.61c-2.42-.28-4.94-.01-7.45-.1-.88-.03-1.31-.49-1.43-1.31-.11-.74.19-1.32.9-1.49,2.37-.57,4.39-1.88,6.54-2.9,4.11-1.95,8.13-4.05,11.85-6.71.71-.51,1.46-.97,2.24-1.36,1.99-.99,3.62-1.72,3.45-4.78-.17-3.12-.02-6.36.15-9.54.04-.75-.24-1.05-1-1.15-2.45-.32-4.92-.17-7.37-.18-2.71-.01-5.44.32-8.13.05-5.03-.5-10.05-.09-15.07-.05-.4,0-.9.03-.92.55-.04.83-.22,1.72.12,2.49.54,1.24.62,2.56.62,3.84,0,5.52,1.65,10.69,3.13,15.9.67,2.38,1.92,4.51,2.65,6.88,1.86,6,5.01,11.44,7.83,17.01,1.18,2.34,2.72,4.51,4.06,6.79,2.19,3.71,4.85,7.09,7.54,10.43,1.87,2.32,4.04,4.4,6.29,6.38,1.32,1.16,2.75,2.21,4.31,2.95,2.52,1.2,5.45.8,8.03,1.87.07.03.16.01.24.02,1.25.08,2.44.42,3.62.77,1.3.38,2.56.95,3.93,1.03,2.24.13,4.44.54,6.63.99.77.16,1.01-.11,1.08-.82.41-4.22.23-8.45.16-12.68-.03-1.98-.44-3.97-.29-5.95.21-2.78.25-5.57.36-8.36.02-.6-.78-1.01-.48-1.37.85-1.02.4-2.12.45-3.2.23-4.42-.47-8.84-.04-13.26.06-.57-.19-1.18-.29-1.76-.16-.9-.69-1.15-1.61-1.18-2.44-.07-4.86.2-7.28.15-2.94-.06-5.87-.09-8.81-.08-2.79,0-5.58.26-8.38.04-1.94-.16-3.89-.39-5.86-.23-3.89.3-7.79.4-11.79.32Zm47.37-53.02c-.74.5-1.66.08-1.69.83-.08,1.9-.93,3.71-.52,5.68.24,1.15.73,1.58,1.9,1.6,2.22.03,4.44-.08,6.66.06,5.67.34,11.35.43,17.03.14.51-.03.84.22,1.09.6.37.54.42,1.19.58,1.81.3,1.21-.25,2.32-.26,3.49-.04,2.84.37,5.66.12,8.5-.08.87.56.95,1.21.9,1.87-.14,3.74-.4,5.61-.41,4.16-.01,8.31.06,12.47.19,2.35.07,4.72-.08,7.04.09,2.34.17,4.67.34,7.02.38,1.04.02,1.6-.42,1.53-1.5-.13-1.96.11-3.93.08-5.9-.04-2.5.15-5.06.25-7.59.29-7.78.11-15.57.57-23.34.13-2.25-.63-4.4-.43-6.67.11-1.19-.52-2.29-2.16-2.62-2.79-.56-5.4-1.78-7.88-3.21-.79-.46-1.48-.25-1.99.46-1.04,1.43-2.42,2.54-3.69,3.7-2.74,2.49-5.4,5.08-8.42,7.27-1.02.74-2.03,1.46-3.26,1.62-1.63.22-3.03,1-4.48,1.62-2.34,1.01-4.82,1.37-7.25,1.98-.26.07-.58.06-.83-.03-3-1.05-6.26-.78-9.27-2.03-2.68-1.12-4.68-2.78-6.14-5.22-.36-.6-.58-1.22-.54-1.93.16-3.19-.09-6.37-.28-9.56-.17-2.75-.75-5.44-1.35-8.12-.14-.64-.42-1.13-1.16-1.15-.72-.02-1.44-.04-2.15-.02-1.11.03-1.58.68-1.23,1.7.15.44.2.89.04,1.29-.46,1.08-.4,2.19-.34,3.31.16,2.86.18,5.74.13,8.58-.06,3.58-.08,7.16-.13,10.75,0,.48.06.97.57,1.24.21.11.49.42.22.52-.96.34-.5,1.07-.6,1.66-.44,2.49-.48,4.95.13,7.44.24.96.36,1.82,1.83,1.9Zm-33.37,94.53c-1.46-1.6-1.92-3.43-3.27-4.73-1.63-1.57-3.26-3.18-4.56-5.04-1.87-2.67-3.7-5.37-5.34-8.19-.99-1.7-2.18-3.28-2.92-5.13-.07-.18-.18-.37-.33-.5-1.56-1.33-2.26-3.29-3.09-5-2.13-4.39-4.14-8.86-5.71-13.51-1.31-3.87-2.99-7.61-4.29-11.49-.18-.53-.5-.83-1.06-.33-.24.22-.56.4-.83.05-.24-.31-.05-.59.14-.87.2-.29.41-.6.55-.92.12-.28.3-.62.01-.89-.29-.27-.59-.11-.87.09-.22.16-.43.4-.71.06-.2-.24-.61-.48-.59-.68.05-.45.51-.67.92-.84.46-.2,1.22-.19,1.13-.85-.2-1.44.19-2.96-.61-4.32-.08-.14-.32-.47-.04-.44.99.12.58-.57.55-.92-.31-4.04-.69-8.07-.5-12.13.12-2.47-.21-4.91-.04-7.4.18-2.64.52-5.33-.08-7.99-.14-.61-.35-1.32-.17-1.88.61-1.92.63-3.91.67-5.87.06-2.82.16-5.64.02-8.47-.12-2.55-.37-5.16.3-7.71.14-.52,0-1.03-.54-1.34-.26-.15-.52-.46-.11-.61,1.32-.5.82-1.56.74-2.42-.12-1.33.11-1.58,1.48-1.57,1.07,0,2.16-.06,3.21-.28,2.82-.6,5.45-1.72,7.99-3.11,3.35-1.83,6.43-3.99,8.99-6.85.77-.86,1.22-1.96,2.03-2.81.3-.32.55-.54,1.01-.47.78.12,1.5-.11,2.23-.33.34-.1.75-.31,1.02,0,.7.82,1.7.57,2.56.77,1.11.26,1.83-.29,2.41-1.16.14-.2.37-.3.64-.21.17.06.28.21.22.37-.52,1.34.49,1.15,1.19,1.15,5.03-.04,10.03.79,15.06.39,1-.08,2.15.47,2.85-.78.08-.15.43-.2.66-.2.39,0,.69.19.28.56-.99.91.05.75.43.74,1.27-.03,2.59-.24,3.8-.11,2.09.24,4.14.27,6.19-.07.64-.11,1.53.81,1.84-.17.18-.58-.29-1.37-.46-2.07-.02-.08-.07-.15-.08-.22-.46-1.95-1.76-3.56-2.19-5.53-.12-.54-.65-.9-1.08-.76-.86.29-1.63-.13-2.42-.08-3.67.19-7.32-.19-10.98-.39-2.35-.13-4.7.08-7.05-.02-1.2-.05-2.38.22-3.55.17-2.18-.1-4.35-.16-6.53-.16-1.7,0-3.43.27-5.11-.1-2.02-.44-4.05-.34-6.09-.38-.54,0-.94.16-1.19.63-1.01,1.95-2.71,3.33-4.16,4.9-1.24,1.35-2.42,2.9-4.08,3.66-2.88,1.3-5.26,3.54-8.6,4.02-3.54.51-7.02,1.24-10.59.38-1.25-.3-1.46-.12-1.46,1.21,0,1.32.56,2.69.35,3.9-.38,2.18.45,4.36-.21,6.5-.06.21-.05.56.08.69,1.11,1.13.39,2.48.21,3.57-.9,5.3-.78,10.65-.92,15.98-.07,2.65.34,5.32.15,7.99-.3,4.14-.2,8.3-.24,12.44-.03,3.07-.26,6.2.27,9.18.8,4.47,1.52,8.97,2.28,13.45.68,3.97,1.89,7.79,2.65,11.73.41,2.14,1.38,4.16,1.98,6.27,1.1,3.81,3.55,7.02,4.61,10.86,1.05,3.79,3.27,7.08,5.07,10.55,1.03,1.98,2.46,3.64,4.06,5.07,2.28,2.04,4.76,3.87,7.41,5.44,3.67,2.18,7.68,3.62,11.52,5.43.13.06.3.03.88.08Zm49.33,8.3c1.73-.24,3.39.09,5.04.14,1.15.03,1.85-.25,1.96-1.49.04-.41-.01-.98.54-1.09.91-.17,1.57-.75,2.31-1.21.87-.54,1.22.31,1.75.59.66.35.89,1.13,1.34,1.7.02.02-.12.19-.21.27-.23.2-.63.34-.38.74.22.34.63.34.98.3,1.58-.21,3.14-.43,4.42-1.59,1.08-.98,2.58-1.59,3.44-2.71,1.06-1.38,2.34-2.51,3.52-3.75,1.58-1.66,3.79-2.83,4.06-5.46.01-.1.12-.2.2-.29.85-.89,1.61-1.9,2.58-2.65,2.07-1.61,3.39-3.79,4.81-5.9.1-.16.19-.36-.03-.52-.51-.11-.87.54-1.56.27.62-.52,1.08-1.07,1.85-1.15.47-.05.92-.24,1.09-.65.49-1.2,1.32-2.18,2-3.25,1.18-1.88,1.92-3.99,3.2-5.81,1.96-2.79,2.81-6.14,4.47-9.1,1.35-2.39,1.99-5.1,2.84-7.7,1.13-3.45,2.27-6.88,2.85-10.48.59-3.67.62-7.39,1-11.08.31-3.02.19-6.09.69-9.07,1.1-6.56,1.24-13.2,1.42-19.8.18-6.24.3-12.52-.05-18.78-.13-2.26.14-4.55-.05-6.81-.1-1.18-.05-2.34,0-3.5.03-.89.28-1.68-1.07-1.37-.01-.58.87-.29.68-.87-.18-.53-.74-.36-1.13-.51-.04-.01-.08-.01-.12-.02-.33-.04-.8.27-.95-.19-.13-.38.36-.45.6-.63.25-.2.44-.51.16-.69-.37-.24-.58-.86-1.17-.67-.36.12-.33.4-.14.67.1.14.13.3-.01.42-.2.16-.36.03-.53-.09-1.1-.74-2.12-1.69-3.63-1.38-.22.04-.28-.22-.36-.41-.24-.58-.74-.5-1.09-.26-.55.38-.15.65.22.87.25.14.33.36.18.6-.12.19-.38.26-.53.12-.46-.46-1.24-.78-1.3-1.43-.1-.98-.69-1.1-1.39-1.05-.54.04-.72-.12-.98-.59-.65-1.19-2.18-1.24-3.05-.18-.1.12-.21.24-.34.33-1.9,1.3-2.65,3.65-4.61,4.93-.86.56-.54,1.24.28,1.77,2.13,1.38,4.38,2.46,6.84,3.1,2.44.64,2.54.78,2.82,3.28.22,1.99-.03,3.99.05,5.98.08,2.26-.77,4.59.47,6.78.03.06.04.19,0,.22-1.03,1-.33,2.21-.37,3.31-.22,5.94-.13,11.87-.53,17.82-.33,4.97-.39,9.97-1.03,14.91-.51,3.88-.33,7.79-1.13,11.66-.83,4.01-1.28,8.11-2.77,11.97-.29.74-.56,1.5-.74,2.27-.57,2.56-1.99,4.77-2.97,7.15-1.06,2.57-2.59,4.94-3.88,7.41-.26.51-.55.98-.97,1.35-2.14,1.88-3.78,4.2-5.48,6.44-1.45,1.91-3.01,3.71-4.55,5.53-3.3,3.89-6.82,7.58-10.44,11.17-2.35,2.33-4.75,4.61-7.42,6.57-1.38,1.02-2.32,2.5-3.72,3.53Zm-24.61-82.06c-.48-.44-.95-.85-1.4-1.28-1.08-1.02-2.12-1.72-3.83-1.18-1.54.49-2.8-1.16-2.37-2.75.31-1.15,1.18-2.03,1.45-3.24.19-.86,1.16-.41,1.78-.56.56-.13.6.32.8.66.47.77.47,1.8,1.27,2.4.61.45,1.06.66,1.35-.37.47-1.67,1.47-2.97,3.09-3.74.26-.12.73-.2.63-.6-.11-.42-.58-.33-.93-.34-3.62-.04-7.23.11-10.85.35-3.34.22-6.69.39-10.04.21-.7-.04-.92.29-1.04.86-.36,1.85-.54,3.72-.53,5.6.03,4.19.41,8.37-.07,12.56-.21,1.86-.05,3.75-.27,5.62-.09.75.11,1.35,1.06,1.37,2.79.06,5.58.07,8.36.26,2.36.16,4.7-.07,7.05-.04,3.07.04,6.14.16,9.2-.05,3.23-.22,6.46-.46,9.68-.07,5.25.64,10.52.62,15.79.66,1.1,0,1.64-.32,1.66-1.46.06-2.95.3-5.91.03-8.86-.14-1.52-.05-3.04,0-4.54.13-3.48-.24-6.94-.4-10.4-.03-.73-.3-1.4-1.2-1.34-1.9.14-3.8-.38-5.69-.02-.92.17-1.83.13-2.74.02-1.65-.21-1.93.11-1.5,1.76.08.3.2.61.37.88.75,1.22.39,2.74-.85,3.43-.43.24-.9.36-1.39.28-.45-.07-.72-.31-.62-.83.11-.58.31-.59.8-.28.39.25.82-.2,1.26-.2.35,0,.62-.19.62-.59,0-.39-.26-.59-.6-.64-1.13-.15-.99-.8-.66-1.55.1-.22.2-.44.25-.67.08-.43-.06-.79-.45-1.02-.36-.21-.69-.1-1,.14-.34.28-.66.57-.75,1.05-.18.96-.76,1.59-1.58,2.13-.62.41-1.34.82-1.83,1.58.67.12.92-.29,1.29-.41.8-.25,1.33.4,1.69.82.33.38-.45.5-.74.67-1.58.94-3.19,1.82-3.59,3.96-.54-.66-.98-1.21-1.43-1.75-.16-.2-.26-.45-.12-.67.58-.92.14-2.3,1.39-2.93.28-.14.43-.55.27-.96-1.22-2.93-3.81-4.89-7.05-4.22-.9.18-1.8.36-2.69.57-1.51.36-2.09,1.62-2.66,2.86-.11.24-.07.52.16.64.59.32.35.91.53,1.37.43,1.1-.96,2.22.05,3.29.02.02-.05.14-.09.21-.3.45-.61.91-.93,1.37Zm40.41-101.09c.24-2.32-.31-4.21-1.03-6.01-1.07-2.65-2.31-5.23-3.82-7.68-1.53-2.49-3.17-4.83-5.39-6.77-1.85-1.6-3.99-2.71-6.01-4.03-1.4-.91-2.89-1.69-4.27-2.63-1.31-.9-3.1-.51-4.39-1.51-.03-.02-.08-.01-.12-.02-1.11-.11-2.24-.4-3.33-.29-.93.1-1.81.7-2.75,0-.09-.06-.3.05-.46.07-2.09.36-3.87,1.47-5.65,2.5-.81.47-1.67.93-2.33,1.65-.9.98-1,2.23-1.26,3.43-.78,3.6-.88,7.1,1.53,10.22,1.02,1.32,1.78,3.08,3.11,3.86,1.69.99,2.69,2.6,4.25,3.66,1.85,1.25,3.21,3.07,4.33,5.02.24.41.42.89.75,1.22,1.97,1.98,2.92,4.63,4.61,6.79.11.14.12.38.13.57.06,1.94,1.1,3.64,1.32,5.55.08.7.72,1.06,1.46.58,2.46-1.56,5.04-2.91,7.69-4.12,1.23-.56,2.46-1.17,3.58-1.92.63-.42,1.03-1.09,1.83-1.4,1.81-.69,3.31-1.89,4.45-3.46,1.2-1.66,1.78-3.55,1.77-5.29Zm-7.1,120.11c-.41-.74-.81-.82-1.27-.82-3.27-.03-6.54,0-9.81-.13-2.39-.1-4.81.21-7.16-.1-2.94-.39-5.85-.68-8.82-.54-2.66.12-5.34-.08-8,0-2.99.09-5.98.05-8.95.03-3.3-.02-6.61.01-9.91-.14-.61-.03-1.25,0-1.75.34-1.38.91-2.97,1.34-4.41,2.1-1.32.69-2.36,1.79-3.64,2.46-2.97,1.55-5.87,3.22-8.82,4.78-1.8.96-3.6,1.91-5.62,2.98.89.31,1.51.09,2.13.19,3.16.53,6.36.34,9.55.32,2.23-.01,4.46-.2,6.69-.24,3.55-.06,7.09.48,10.65.19,4.5-.36,9.01-.29,13.52-.36,4.82-.07,9.65.31,14.47.44,1.63.04,3.27-.07,4.91-.12.31,0,.75.01.77-.38.03-.52-.46-.43-.8-.47-.63-.07-1.27-.23-1.9-.19-4.91.34-9.82-.08-14.73-.04-1.24,0-2.47.08-3.71.12-.38.01-.96-.21-.78-.49.69-1.02,1.39-2.47,2.37-2.76,1.66-.49,3.56-.35,5.34-.22,3.4.26,6.77.26,10.14-.39.79-.15,1.84-.22,2.14.61.58,1.57,2.47,2.02,2.88,3.67.06.25.41.23.64.21,3.16-.33,6.28.41,9.44.41,2.94,0,5.89.55,8.83.5,4.91-.08,9.81-.43,14.72-.67.26-.01.61.09.69-.29.05-.27-.19-.44-.39-.55-1.63-.92-3.19-2-4.91-2.72-3.62-1.52-6.83-3.74-10.18-5.73-.71-.42-1.19-1.19-2.02-1.47-.34-.12-.69-.59-1-.01-.25.46.12.74.44.98.99.74,1.98,1.48,2.97,2.2.89.65,2,1.01,2.57,2.07.13.24.42.4.23.72-.18.3-.48.18-.75.22-1.67.27-3.32-.1-4.98-.16-3.55-.12-7.12.04-10.63-.47-3.51-.51-7.02-.48-10.49-.26-6.69.42-13.36.35-20.05.04-4.73-.22-9.47-.32-14.21-.46-.87-.02-1.73.14-2.62-.02-1.93-.35-3.88,0-5.82-.06-.27,0-.56.16-.75-.15-.21-.35,0-.6.24-.83.23-.22.43-.48.68-.67,2.11-1.53,4.7-2.3,6.65-4.11.17-.16.53-.14.8-.14,2.99,0,6.01-.06,8.95.18,4.24.34,8.45,0,12.67.19,1.53.07,3-.48,4.52-.25,3.6.54,7.22.69,10.86.54,1.51-.06,3.05-.2,4.52.03,4.24.66,8.42-.42,12.87-.11Zm41.85-199.73c-1.2,0-2.4-.06-3.59.01-1.52.09-2.21.83-2.27,2.34-.07,1.51-.04,3.03.04,4.55.13,2.46.14,4.93.14,7.39,0,1.99-.04,3.98-.11,5.97-.03.99.4,1.44,1.35,1.62,1.11.2,2.21.31,3.33.29,2.48-.05,4.93-.57,7.37-.63,2.9-.07,5.42-1.14,8.02-2.09.48-.18.91-.45,1.33-.78,1.85-1.5,3.12-3.38,3.32-5.74.2-2.33-.57-4.57-1.32-6.76-.08-.24-.32-.47-.55-.62-.8-.54-1.43-1.26-2.13-1.92-1.73-1.63-3.82-2.71-6.13-3-2.92-.36-5.85-.8-8.81-.63Zm-8.84,32.59c.54-.45.38-.95.45-1.41.05-.31,0-.74.4-.78,1.13-.1,1.04-1.11,1.07-1.7.12-2.78.04-5.57.09-8.36.06-3.15-.28-6.29-.34-9.43-.06-3.03-.02-6.07-.03-9.1,0-.93-.43-1.36-1.43-1.26-1.9.18-3.81.29-5.72.41-.75.05-1.1.48-1.05,1.17.12,1.59-.33,3.17-.03,4.77.2,1.09.2,2.22.2,3.34,0,5.23-1.15,10.46.11,15.68.09.38-.03.95.36,1.08.54.17.41-.57.72-.77.05-.04.15-.02.28-.03,0,.82-.01,1.63,0,2.45.03,1.84.04,1.84.36,2.28.29-.36.15-.74.08-1.13-.24-1.29.25-1.74,1.44-1.37.07.02.18.03.23,0,.96-.61.69.24.78.65.21.97-.19,2.05.58,3.07.55-1.75.72-3.43.77-5.14.14.02.29.05.43.07.09,1.84.17,3.68.26,5.52Zm-90.91,170.57c-.72.29-1.36-.08-1.99.07-.35.08-.77.2-.78.62,0,.52.47.42.81.45,1.07.12,2.14-.07,3.22,0,2.9.2,5.81.35,8.71.31,1.78-.03,3.57-.05,5.34,0,1.82.06,3.65.29,5.47.14,3.53-.29,7.07-.6,10.59-1.01,1.51-.18,2.97.04,4.44.17.24.02.52.01.61.28.27.8.88.61,1.48.58,2.34-.13,4.7-.39,7.04-.28,4.01.19,7.94,1.31,12.01,1.04,1.82-.12,3.66.04,5.49.06.31,0,.72.1.84-.28.13-.42-.27-.64-.57-.81-.74-.43-1.58-.36-2.33-.13-1.64.5-3.23.29-4.92-.12.37-.22,1.04-.23.86-.7-.21-.57-.91-.54-1.53-.69.77-.47.54-.88-.02-1.28-1.13-.8-2.38-.51-3.59-.36-.47.06-.31.49-.17.87.2.56.96.54,1.19,1.22-.83-.05-1.39-.32-1.71-.98-.42-.85-1.15-1.2-2.02-1.28-.87-.08-1.75-.09-2.63-.14-.25-.01-.53-.02-.59.26-.03.16.1.36.18.54.31.66,1.21.68,1.64,1.47-1.07-.17-1.78-.7-2.34-1.33-.85-.96-1.93-.98-3.04-1.01-.74-.02-.73.32-.54.92.14.44.84.49.72,1.21-.35-.22-.76-.32-.85-.55-.35-.85-1.19-.9-1.84-1.2-.81-.38-1.35.06-1.25.89.03.23.21.51-.03.66-.29.2-.52-.1-.72-.26-.22-.17-.39-.39-.59-.59-1.23-1.22-2.51-1.01-3.17.63-.25-1.23-1.14-1.39-2.08-1.47-1.19-.1-.76,1.07-1.42,2.01.29-2.39-1.35-2.01-2.41-2.36-.6-.2-.98.26-1.17.78-.19.53-.23,1.08.04,1.63.23.47-.02.72-.48.64-.5-.09-1.08-.05-1.53-.58.65-.2,1.37-.05,1.47-.92.07-.69-.2-1.19-.77-1.49-.92-.48-.99.69-1.71.89.07-1.01-.59-1.15-1.39-1.09-.79.07-1.13.87-1.93,1.24.07-1.34-.8-1.47-1.59-1.16-.73.28-1.31.93-1.96,1.42-.36-.58.69-1.09.05-1.42-.68-.35-1.4-.02-1.95.54-.2.2-.37.44-.61.57-.47.26-.52,1.01-1.39,1.05.35-.54.61-.98.91-1.38.19-.25.53-.44.39-.8-.16-.41-.58-.35-.93-.38-.48-.05-.81.14-1.11.54-.49.64-1.26.76-1.99.92.04-.18.12-.27.22-.32.32-.15.79-.24.7-.68-.1-.52-.63-.39-1-.39-1.28,0-2.52.05-3.64.91-.56.43-1.3.73-2.07.62.35-.55,1.02-.43,1.4-.86.17-.2.58-.27.49-.6-.09-.35-.5-.33-.71-.22-1.01.53-2.76-.42-3.09,1.52-.01.09-.35.15-.54.18-.44.05-.87.06-1.31.09-.36.03-.76.07-.88.48-.13.42.39.42.58.73Zm110.65,19.28c.01-.06.03-.12.04-.18.25.08.5.18.76.24.45.1.98.37,1.24-.27.21-.53-.05-.94-.49-1.22-.3-.19-.63-.33-.96-.47-1.85-.77-3.8-.68-5.76-.77,1.97-.03,3.83-1.39,5.88-.4.27.13.56.16.77-.09.18-.21.1-.46-.04-.67-.44-.7-.26-1.82-1.36-2.1-.22-.06-.26-.13-.08-.39.65-.96-.12-1.48-.75-1.99-.16-.13-.6-.06-.56-.33.15-.99-.58-1.08-1.25-1.23.2-.36.78.02.81-.52-1.21-.72-2.42-1.41-3.95-.94,1.05-.79,2.16-.39,3.27-.31-1.23-2.59-2.28-2.82-5.84-1.3.55-.76,1.26-1.11,1.94-1.49.31-.17.82-.32.59-.73-.43-.76-1.37-.82-2.08-1.18-.29-.15-.59.3-.53.63.12.7-.21,1.25-.48,1.82-.68,1.45-.49,3.09-1.38,4.8,1.38-.67,2.08-1.83,3.49-1.77-.13.16-.19.26-.28.32-.89.67-1.78,1.34-2.68,2-.6.44-.67,1.19-.26,1.56.55.51.6-.25.77-.6.04-.07.22-.15.28-.11.21.1.23.3.17.51-.07.27-.49.51-.06.82.59.43.63.49,0,.89-.73.46-.73,1.1-.55,1.78.22.81.89.15,1.37.28-.29.2-.54.33-.73.53-.18.19-.51.39-.34.69.18.34.49.1.74.02q.73-.22,1.53-.06c-.33.48-1.92.13-.91,1.48-.42.29-.83-.08-1.21.1-.25.12-.57.24-.46.59.1.31.39.24.6.13.39-.18.77-.21,1.16-.04.33.15.94-.16.99.4.04.45-.48.55-.84.72-.78.37-1.59.75-.87,1.79-.33.31-.69-.13-1.01.26.67.48,1.35,1.04,2.14.48.91-.64,1.76-.5,2.72-.22,2.24.66,4.12,2.04,6.19,3.05.87-2,.61-3.57-.75-4.47.3-.29,1,.11,1.04-.53.03-.48-.5-.58-.81-.8-.38-.27-.82-.46-1.23-.69Zm1.02-28.6c.45.1.76.17,1.07.23.44.08.82.19.5.77-.17.3-.27.62.11.82.33.17.78.25,1-.06.5-.69,1.34-.56,1.96-.93.61-.37,1-.25.99.54,0,.31.07.58.44.57.42,0,.49-.34.52-.68.01-.2.04-.41-.02-.6-.49-1.72-.88-3.5-2.53-4.58-.3-.2-.55-.45-.69-.81-.32-.83-1.12-1.09-1.82-1.45-.27-.14-.68-.21-.87.12-.2.36.14.58.4.76.19.14.44.19.63.33,1.08.83,1.91,1.89,2.75,2.94.13.16.14.41-.05.54-.23.15-.4-.05-.43-.23-.21-1.13-1.25-1.52-1.98-2.14-1.01-.87-2.09-1.65-3.07-2.56-.19-.18-.54-.35-.74-.04-.2.31.11.54.35.65,1.23.56,1.55,1.92,2.46,2.76.19.18.54.51.11.8-.34.24-.59-.04-.81-.29-1.2-1.38-2.5-2.55-4.47-2.65-.45-.02-.93-.44-1.3.1-.37.53.36.75.49,1.18-.43-.06-.78-.11-1.31-.18.32.6,1.16,1.28.59,1.32-2.02.15-.36,1.03-.33,1.45.03.46.42,1.12,1,.98.7-.18.06-.82.18-1.24.02-.06.11-.1.23-.21.37.53,1.31.54.88,1.72-.23.65.62,1.52,1.17,2.1.56.59.63-.43,1.02-.58.11-.04.24-.05.35-.03,1.12.2,1.26-.5,1.21-1.42Zm-5.98,38.08c.41.47.82.94,1.24,1.41.08.09.17.17.27.23.2.13.42.27.66.13.08-.04.15-.25.12-.29-.74-.78.22-1.07.52-1.34.42-.37,1.07-.59,1.64-.65.44-.05.47.56.66.9.21.36.56.8.87.27.4-.68.83-1.42.21-2.33-.48-.7-1.27-.91-1.77-1.48-1.39-1.57-3.29-2.15-5.16-2.78-.35-.12-.75,0-.8.48-.05.41.16.67.58.77.29.07.66-.06.84.36-.18.55-1.48.46-1,1.29.55.96,1.41.11,2.13.04.07.43-.49.92-.05,1.2.29.18.8.22,1.22-.11.84-.65,1.2-.47,1.46.7-.51-.28-.92-.21-1.41.15-.64.47-1.06,1.52-2.24,1.06Zm-71.08-61.94c.03.42.23.59.43.69,1.63.82,2.51,2.17,2.91,3.92.15.67.57.37,1.01.17,1.56-.71,1.88-2.26,2.57-3.57.39-.74.23-1.01-.56-1.05-2.09-.11-4.19-.26-6.35-.15Zm95.8,19.76c-.62-.18-1.08-.55-1.67-.46-.3.05-.72.15-.84.37-.21.38.28.47.49.67,1.09,1.09,2.64,1.73,3.33,3.17.6,1.23,1.35.61,2.02.32.86-.37.24-1.01.1-1.53-.1-.34-.2-.75-.44-.97-.89-.79-.93-2.27-2.2-2.74-.37-.13-.75-.22-1.12-.34-.24-.07-.51-.13-.67.08-.28.35.16.46.29.65.2.28.46.52.7.78Zm2.18-3.2c.2.76,1.13.9,1.54,1.79-.93-.55-1.53-1.26-2.78-1.03,1.02.81,1.98,1.31,2.65,2.23.65.89,1.32,1.77,2.02,2.97,0-.65-.01-1,0-1.35.01-.26.08-.48.43-.4.23.05.52.42.66-.08.08-.31-.19-.49-.38-.7-.36-.41-.99-.65-.93-1.4.76.1.85,1.06,1.6,1.02-.1-1.83-1.43-3.21-3.28-3.41-.2.3.44.38.17.71-.58.04-.99-.71-1.69-.37Zm-105.98-75.91c1.03.07,1.92-.49,2.91-.6.23-.03.48-.21.43-.48-.04-.28-.34-.37-.56-.34-1.93.26-3.82-.89-5.81-.07-1.05.43-2.23.96-3.44.3-.08-.05-.24,0-.35.05-.26.09-.6.14-.59.49,0,.31.33.28.55.33,1.03.24,2.03.24,3.03-.2.73-.33,1.8-.67,2.24-.13.51.62.99.62,1.58.67Zm93.81,84.79c.08-.39.24-.73.08-1.09-1.03-2.26-1.72-4.73-3.88-6.3-.29-.21-.56-.46-.95-.44-.36.02-.61.24-.27.5.97.75,1.39,1.96,2.27,2.72.49.42.47.97.76,1.32.82.98-.53,2.97,1.56,3.31.19.03.11.35.09.54-.01.18.05.33.25.32.19-.01.27-.17.24-.34-.03-.19-.11-.38-.15-.54Zm-100.42-19.22c.44.39.86.9,1.49,1.04.23.05.49.13.69-.03.29-.23-.07-.42-.07-.61,0-.97-1.02-1.54-.92-2.59.05-.57-1.61-1.06-2.07-.65-.99.85-.25,1.97-.36,2.95-.08.69.77.53,1.16.82.23-.36-.31-.56.08-.92Zm10.7,128.82c.41,0,.78.11.97-.21.22-.36-.12-.58-.3-.81-.25-.31-.52-.59-.76-.9-.31-.41-.72-.53-1.15-.3-.45.25-.87.61-.86,1.2.01.57.52.65.92.78.41.13.85.18,1.18.25Zm-11.81-234.52c2.64-.19,4.76-1.87,4.52-3.5-1.46,1.13-2.85,2.21-4.52,3.5Zm38.04,130.39c-.39.28-1.27-.09-1.3.64-.03.69.65,1.06,1.34,1.04.65-.02,1.59,0,1.57-.83-.02-.65-.94-.67-1.61-.86Zm76.63-16.02c1.28.36,2.5.88,3.72,1.39.18.08.4.16.5-.08.09-.21-.08-.37-.2-.52-.77-.99-2.53-1.4-4.03-.79Zm-163.4,104.2c-.26-.48-.47-1.06-.84-1.5-.35-.42-.69.02-1.02.22-.29.18-.53,0-.75-.18-.21-.16-.46-.43-.68-.06-.15.24.04.48.25.6.83.47,1.66.94,2.51,1.36.29.14.55.02.54-.43Zm148.29-14.22c0-.41-.11-.62-.5-.54-.63.13-1.61,1.64-1.46,2.27.1.42.28.71.72.33.65-.57.85-1.42,1.25-2.06Zm-60.16-70.92c.57-.05,1.09-.07,1.6-.14.27-.04.79.11.71-.36-.07-.4-.44-.88-.94-.67-.65.27-1.29.33-1.97.26-.27-.02-.62-.02-.63.35-.01.34.34.41.6.48.23.06.47.06.64.08Zm37.49,95.61c.46-.03.85-.1,1.04-.52.1-.21.01-.44-.19-.49-.76-.18-1.52-.5-2.32-.22-.23.08-.38.28-.41.54-.02.24.11.44.32.4.59-.13,1.07.22,1.56.29Zm-75.38-190.89c-.04-.14-.09-.28-.13-.41-1.54.09-2.86.73-4.08,1.61.04.11.09.21.13.32,1.36-.51,2.72-1.01,4.08-1.52Zm39.9,153.03c-.08-.41-.21-.82-.64-.75-.69.11-1.23.55-1.46,1.23-.11.32.18.57.48.5.65-.14,1.33-.28,1.63-.98Zm-34.6,41.35c-.4-.26-.81-.65-1.3-.81-.5-.16-.88.29-1.18.65-.28.34.04.59.25.82.4.43.68.2.96-.17.2-.27.49-.19.77-.13.2.04.4.03.5-.37Zm107.5-119.56c.62-1.62,2.16-1.13,3.52-1.42-.84-.5-1.57-.35-2.26-.37-1.32-.05-1.62.4-1.26,1.79Zm-145.73,113.41c.38-.02.58-.3.5-.71-.13-.68-.63-.99-1.28-1.04-.43-.03-.5.28-.47.65.06.72.49,1.04,1.25,1.1Zm80.97-217.95c-.69.76-1.38,1.08-1.98,1.5-.24.17-.46.38-.29.69.17.32.48.2.74.12.94-.31,1.37-1.01,1.54-2.31Zm37.99,213.71c-.13-.45-.51-.42-.85-.4-.54.02-1.08.07-1,.83.04.38.15.77.64.64.55-.14.98-.48,1.21-1.06ZM114,109.83c-.05-.32-.11-.69-.46-.58-.65.21-1.21.61-1.44,1.28-.11.31.2.53.51.48.71-.11,1.25-.45,1.4-1.19Zm-9.32,37.26c-.55.32-1.21.61-1.59,1.25-.11.19-.06.42.18.47.79.16,1.23-.36,1.64-.91.07-.09.17-.17.21-.28.16-.36-.01-.51-.45-.54Zm-7.92,199.49c.54,0,.77-.31.79-.75.02-.52-.33-.76-.78-.63-.47.13-1.24.13-1.22.73.01.64.8.47,1.22.65Zm86.9-182.37c1.07-.86,1.78-1.58,1.62-3.04-.9.88-1.47,1.66-1.62,3.04ZM49.55,324.89c0-.29.05-.75-.3-1.08-.31-.29-.75-.4-1.06-.07-.28.3-.02.59.27.76.24.15.51.26.48.6-.03.33-.27.84.26.85.6,0,.36-.55.36-1.06Zm148.35-84.17c.3-.05.41-.28.41-.58,0-.37-1.15-1.33-1.5-1.27-.28.04-.51.32-.38.47.44.5.96.92,1.47,1.39Zm-158.54,76.86c.42-1.28.41-1.27-.67-2.02-.19-.13-.33-.39-.57-.15-.24.24-.16.59.08.71.57.27.75.84,1.15,1.45Zm188.25-89.49c-.32.02-.57.04-.64.33-.06.25,1.24,1.27,1.59,1.27.24,0,.43-.09.38-.32-.15-.76-.78-1.02-1.33-1.28Zm-171.67,35.77c.05.92.36,1.75.76,2.56.09.18.23.36.46.27.23-.09.25-.33.16-.5-.4-.8-.57-1.72-1.38-2.32Zm55.02-147.77c-.76.18-1.33.29-1.88.46-.33.11-.77.36-.66.71.15.48.59.17.88.05.55-.24,1.24-.28,1.66-1.22Zm9.82-22.15c.01-.2-1.54-1.9-1.72-1.9-.31,0-.51.24-.34.45.46.58.99,1.11,1.53,1.62.2.19.45.12.54-.18Zm71.34,246.71c-.54.15-1.17.3-1.21,1.12,0,.2.02.48.3.32.55-.33,1.36-.37,1.52-1.15.06-.29-.29-.29-.61-.29Zm-148.5-19.5c-.08-.5-.2-1.02-.84-1.12-.27-.04-.7-.02-.68.3.03.6.51.95,1.04,1.17.27.11.47.02.48-.35Zm121.33-19.27c.96-.32,1.49-.87,2.01-1.41.13-.14.09-.38-.05-.54-.17-.18-.43-.15-.51.01-.35.64-1.1.97-1.44,1.95Zm27.83-30.42c-.32-.47-.88-.57-1.37-.76-.23-.09-.56.09-.5.33.16.66.85.54,1.32.74.2.09.47.05.55-.31Zm-100.98,72.65c-.36.01-.58.22-.54.52.08.56.51.75,1.02.79.25.02.53-.05.45-.37-.12-.48-.48-.79-.93-.94Zm53.68-151.29c.32-.06.78.05.82-.45.03-.34-.18-.66-.56-.62-.39.04-.84.21-.92.63-.1.48.37.37.65.44Zm80.21,30.73c-.51-.53-1.13-.48-1.74-.31-.21.05-.29.32-.12.49.52.52,1.1.28,1.66.06.06-.02.1-.11.2-.23Zm-80.12,127.02c-.13-.42-.45-.64-.86-.72-.34-.06-.74.03-.77.38-.05.64.59.51.95.64.25.09.56.06.69-.3Zm-49.3-202.13c-.8.18-.94.76-.99,1.4-.01.16.12.35.28.31.69-.18.6-.82.73-1.32.03-.1,0-.22-.02-.38Zm105.39,129.85c-.15-.34-.04-.95-.7-.98-.35-.02-.5.23-.43.54.1.48.36.9.86,1,.32.06.3-.26.27-.56Zm-68.82-182.61c.34-.04.62-.19.58-.57-.04-.38-.28-.65-.67-.69-.35-.03-.45.26-.48.54-.04.41.14.67.57.72Zm35.85,201.7c.64-.51,1.53-.77,1.99-1.87-1.08.4-1.6,1.06-1.99,1.87Zm-56.6-189.06c-.78-.1-1.31.16-1.73.67-.05.06,0,.29.04.3.65.14,1.08-.29,1.55-.63.05-.04.06-.14.14-.35Zm14.79,240.95c-.11-.34-.41-.41-.73-.39-.31.02-.74.05-.71.45.04.47.53.38.85.41.29.03.55-.05.59-.47Zm1.8.29c.8-.02,1.32.27,1.73-.26.13-.17.08-.45-.11-.52-.61-.22-1.02.1-1.61.77Zm-103.15-50.85c-.38.09-.55.34-.49.7.05.33.18.66.58.64.34-.02.4-.35.39-.64-.01-.33-.06-.64-.47-.7ZM127.67,92.66c-.23.02-.49.08-.45.3.08.49.52.66.92.82.22.09.41-.07.39-.3-.05-.51-.43-.72-.85-.83Zm-12.07,127.13c-.27.23-.27.55-.19.84.08.31-.05.84.44.81.37-.02.31-.49.31-.79,0-.36-.12-.69-.56-.86Zm79.81-46.91c-.3.01-.53.17-.45.43.12.39.43.66.85.71.2.02.4-.13.36-.37-.07-.43-.37-.67-.76-.77Zm31.87,42.93c.56-.1,1.02.61,1.61.17.06-.04.06-.28.02-.3-.53-.28-1.07-.35-1.63.13Zm-170.88,114.89c.31-.01.54-.16.57-.47.03-.42-.29-.52-.61-.53-.32-.01-.53.17-.5.5.03.31.24.47.55.51Z"/>
      <path class="cls-1" d="m3.93,48.84c3.15-.56,6.71-.14,10.25-.5.45-.05.81-.04.93.47.12.5-.24.62-.61.69-.66.12-.83.54-.75,1.14.05.36.03.72.11,1.07,1.4,6.13,2.46,12.33,4.06,18.41,1.31,4.97,2.38,10.01,3.69,14.98,1.07,4.08,1.81,8.25,3.22,12.25.12.33.08.83.47.91.49.1.62-.43.8-.75,1.5-2.58,2.69-5.33,4.34-7.82,1.7-2.57,2.96-5.38,4.49-8.05.36-.64,1.04-1.64-.6-1.7-.21,0-.38-.18-.38-.4,0-.23.19-.38.39-.37,1.43.08,2.83-.49,4.27-.23.28.05.58.08.65.42.07.36-.19.5-.47.58-.53.15-.46.37-.19.77,2.63,3.91,4.87,8.04,7.17,12.15.89,1.59,1.58,3.29,2.38,4.94.17.35.24.88.71.88.48,0,.72-.47.93-.84.55-1,.62-2.15.84-3.23,1.08-5.12,2.78-10.07,4.01-15.15.55-2.3,1.83-4.32,2.5-6.59,1.06-3.64,2.27-7.23,3.4-10.85.74-2.36,1.46-4.73,2.19-7.09.36-1.18.73-2.36,1.08-3.54.23-.79.06-1.29-.91-1.08-.12.02-.24.05-.36.06-.36.03-.79.11-.9-.35-.12-.52.36-.71.72-.79.7-.16,1.41-.27,2.13-.31.91-.05,1.83-.02,2.75-.02.28,0,.6-.01.64.37.04.35-.26.57-.51.55-2.37-.18-2.29,1.6-2.79,3.16-1.13,3.53-2.04,7.13-3.36,10.61-1.14,3.01-1.91,6.17-2.91,9.23-1.22,3.71-2.57,7.39-3.46,11.19-1.24,5.25-2.91,10.38-4.2,15.61-.22.87.13,1.08.91,1.01.35-.03.83-.09.91.34.08.46-.43.5-.75.61-2.18.74-2.35.69-3.49-1.29-1.63-2.83-2.9-5.88-4.94-8.46-2.44-3.09-3.55-6.93-5.75-10.15-.73-1.07-.84-1.16-1.46-.03-1.83,3.36-3.71,6.68-5.17,10.24-1.16,2.85-2.81,5.46-4.33,8.13-.39.69-1,1.33.39,1.57.35.06.54.38.43.74-.12.4-.49.34-.81.33-2.51-.1-5.03-.19-7.54-.3-.6-.03-1.19-.06-1.76.22-.55.27-1.1.1-1.62-.14-.32-.15-.81-.19-.85-.58-.05-.5.47-.42.79-.53.85-.29.6-.95.43-1.5-.76-2.4-1.7-4.75-2.3-7.18-1.07-4.29-2.69-8.42-3.4-12.8-.51-3.12-1.3-6.16-2.27-9.17-.71-2.21-.84-4.54-1.42-6.79-.79-3.09-1.71-6.15-2.9-9.1-.52-1.29-.52-2.74-1.36-3.94-.4-.57-.7-1.01-1.48-.89-.4.06-.87-.11-.89-.6-.02-.49.48-.46.81-.52.91-.15,1.83-.19,3.13,0Zm15.28,31.19c.13-1-.35-1.75-.54-2.55-.9-3.84-1.61-7.73-2.62-11.55-1.16-4.35-2.18-8.73-3.14-13.13-.53-2.43-1.19-3.13-3.68-3.14-1.36,0-2.71.06-4.07.04-1.77-.02-1.89.15-1.37,1.81,1.29,4.15,2.64,8.29,3.81,12.47,1.62,5.79,3.11,11.63,4.65,17.45.17.65.41,1.26.76,1.87q1.09-1.35.45-2.38c-.08.21-.16.41-.33.85-.06-.49-.1-.68-.11-.88-.02-.43-.42-.97.32-1.19.84-.24.74.47.92.91.57,1.4,1.2,2.79,1.4,4.33.24-.68-.11-1.33.08-1.98.07-.24.14-.49.4-.55.31-.07.38.21.51.41.22.35.22.86.74.99.33-.27-.14-.75.38-1.03.74,1.27.77,2.81,1.56,4.06.06-3.09-.95-6.01-1.31-9.04.64.62.47,1.6,1.22,2.24Z"/>
      <path class="cls-1" d="m257.61,59.43c0-2.79-.02-5.59.01-8.38.01-.95.35-1.89.22-2.86-.04-.3.01-.68-.39-.8-.32-.09-.51.17-.69.38-2.9,3.16-6.59,5.37-9.82,8.13-1.15.98-2.26,2.02-3.35,3.06-.5.47-.82.55-1.36-.03-3.65-3.92-7.72-7.37-11.96-10.63-.26-.2-.55-.41-.87-.31-.41.13-.26.54-.27.83-.06,3.31-.09,6.62-.15,9.93-.08,4.43-.27,8.86-.22,13.29.04,3.91.08,7.85-.23,11.72-.37,4.54.22,9,.23,13.5,0,.32.04.64.07.95q.21,1.96,2.12,2.15c.31.03.68-.02.76.41.09.5-.32.54-.65.7-.79.37-1.62.27-2.45.33-4.09.25-8.21-.4-12.27.5-.39.09-.63-.08-.73-.44-.13-.5.2-.87.57-.9,1.15-.07,1.18-.92,1.25-1.7.23-2.43.11-4.87.08-7.3-.03-3.23-.11-6.46-.1-9.69.03-5.27.02-10.54-.05-15.81-.05-3.95.19-7.89.34-11.83.09-2.37-.43-4.76-.71-7.13-.05-.48-.39-.77-.86-.89-.36-.1-.73-.23-.62-.71.11-.44.51-.42.87-.47,2.2-.27,4.39.03,6.58.08,1.42.03,2.8-.18,4.15-.44,1.49-.3,2.4.58,3.17,1.38,3.74,3.88,8.07,7.1,11.78,11,.45.47.88.44,1.36.05,3.47-2.86,7.03-5.63,10.38-8.62,1.37-1.22,2.92-2.39,3.77-4.14.14-.28.37-.56.75-.47.56.13.61.62.6,1.05-.06,2.23-.09,4.47-.24,6.7-.18,2.51-.43,5.02-.17,7.53.18,1.69-.07,3.35-.17,5.02-.37,6.09-1.02,12.17-1.25,18.27-.1,2.54-.2,5.1-.22,7.65-.02,2.55-.03,5.11-.08,7.66-.02,1.1.25,1.81,1.56,1.61.58-.09.96.25,1.23.76.31.59.09.92-.49,1.07-1.72.43-3.48.38-5.22.47-.32.02-.71-.02-.7-.45.01-.54-.04-1.15.58-1.47.11-.05.23-.08.34-.1,1.96-.44,1.87-.44,1.89-2.58.03-3.99.28-7.98.27-11.97-.03-7.6,1.23-15.12,1.23-22.71,0-1.12,0-2.23,0-3.35.04,0,.08,0,.12,0Zm-31.68,32.79c.61-.29.42-.65.47-.94.6-3.3.26-6.69,1.03-9.99.71-3.04.67-6.21.36-9.3-.46-4.43-.42-8.85-.32-13.27.08-3.43.37-6.85.16-10.29-.05-.9-.38-1.34-1.27-1.36-2.04-.05-4.07-.11-6.11-.15-1.1-.02-1.67.39-1.64,1.63.1,3.55-.15,7.1.12,10.65.36,4.71-.08,9.41-.25,14.11-.12,3.23.47,6.42.13,9.63-.05.53.17,1.05.7,1.09.68.06.16-.76.55-.99.62,1.93-.14,4.01.76,5.94.22-2.64.45-5.29.7-8.2.96,1.81.23,3.54.68,5.14.43-.15.24-.86.76-.7.42.14.28.59.3.95.09,1.32-.11,2.62-.37,3.91-.1.47.02.92.59.99.63.07.55-.47.59-.83.1-1.11.14-2.23.24-3.34.24-2.75.41-5.51,1.43-8.04,1.45,4.35-.13,8.85.38,13.37Z"/>
      <path class="cls-1" d="m128.7,1.82c3.46-.17,6.93-.34,10.39-.53.92-.05,1.24.42.91,1.16-.36.79,0,1.13.52,1.59,2.06,1.87,4.02,3.85,6.13,5.65,1.21,1.03,2.42,2.07,3.62,3.12,1.02.89,1.81.87,3-.14,2.77-2.35,5.48-4.76,8.19-7.17,1.6-1.42,3.16-2.9,4.74-4.35.09-.08.18-.16.25-.25.29-.37.4-1.23,1.05-.78.52.36,1.17.9,1.05,1.74-.34,2.22,0,4.45-.1,6.68-.22,4.66-.42,9.34-.34,14,.06,3.43-.08,6.87.13,10.3.2,3.35-.68,6.67-.33,10.03.1,1-.1,2.08,1.45,2.04.35,0,.55.31.49.69-.05.34-.3.51-.6.44-.99-.25-1.89.12-2.81.37-.48.13-.91.03-1.11-.44-.26-.61.24-.74.66-.89.7-.26.97-.79.96-1.5,0-.92.13-1.87-.06-2.75-.68-3.2.03-6.36.09-9.54.05-2.47.17-4.94.19-7.41.02-3.75-.1-7.5.09-11.25.16-2.99.01-5.99-.03-8.98-.02-1.13-.34-1.32-1.29-.66-.98.67-1.91,1.45-2.76,2.27-3.23,3.15-6.88,5.82-10.04,9.05-.9.92-1.46.8-2.46,0-1.62-1.29-3.17-2.65-4.73-4.01-2.13-1.86-4.05-3.96-6.41-5.55-.32-.21-.59-.67-1.03-.4-.36.22-.11.67-.13,1.01-.12,1.91-.18,3.82-.38,5.72-.75,7.04-.68,14.12-.97,21.18-.13,3.25-.17,6.5-.49,9.75-.12,1.21.13,2.46.22,3.69.04.5.44.61.83.73.49.15.98.32,1.48.48.39.13.61.39.52.81-.09.46-.43.51-.83.45-4.05-.53-8.11.03-12.17-.1-.39-.01-.79.11-1.19.12-.4.02-.85.01-1.01-.46-.17-.49.06-.94.52-1.06.9-.24.97-.88,1.03-1.64.42-5.37.72-10.74.42-16.14-.24-4.22.23-8.45.63-12.66.28-2.94.28-5.9.23-8.85-.01-.72.07-1.43.11-2.15.05-.89.13-1.74-.96-2.17-.35-.14-.86-.51-.73-.98.15-.54.68-.18,1.05-.19.68-.02,1.36,0,2.03,0,0-.01,0-.03,0-.04Zm4.03,28.3c-.11.98.67,1.83.35,2.81-.09.27-.29.72.21.75.3.02.32-.4.32-.68,0-1.45.37-2.84.76-4.22.08-.27-.06-.77.45-.63.38.1.35.58.22.83-.71,1.39.39,2.73.06,4.1-.03.13.04.33.25.35.19.02.31-.1.34-.26.06-.27.09-.55.12-.83.62-5.88.79-11.78,1.02-17.68.13-3.45-.27-6.92.21-10.37.11-.77-.37-1.04-1.03-1.19-1.95-.45-3.89.07-5.84-.05-.9-.05-1.12.55-1.36,1.34-.45,1.47.23,2.83.14,4.26-.33,5.21-1.63,10.35-1.46,15.59.08,2.44-.44,4.99.79,7.33.13.25.03.63,0,.94-.04.37-.38.89.15,1.03.56.15.95-.4.89-.87-.27-1.93,1.3-3.46,1.1-5.39-.05-.5-.07-1.1.05-1.65.06-.28.13-.63.47-.6.35.04.35.41.3.68-.16.76-.24,1.55.06,2.25,1.1,2.56.49,5.19.29,7.77-.19,2.38-.38,4.06,0,5.21.45-3.74.86-7.26,1.13-10.8Z"/>
      <path class="cls-1" d="m119.55,15.4c0-3.88-.44-7.72-.82-11.58-.08-.82-.26-1.4-1.3-1.2-.52.1-.99-.18-1-.76-.01-.65.54-.57.97-.57,1.24,0,2.44-.43,3.69-.3.26.03.63-.08.68.3.04.27-.26.41-.47.47-2,.58-1.79,2.11-1.66,3.67.33,4.02.51,8.04.56,12.08.09,7.48-1.34,14.69-3.91,21.68-.77,2.09-2.28,3.7-4.06,5.06-2.27,1.74-4.89,2.8-7.51,3.79-1.54.58-3.24.35-4.87.2-3.44-.31-6.18-2.04-8.77-4.19-1.73-1.43-3.53-2.77-4.74-4.67-1.88-2.95-2.91-6.22-3.01-9.71-.04-1.52-.37-2.99-.42-4.5-.13-3.6.24-7.16.4-10.74.14-3.19.36-6.38.24-9.58-.03-.78-.21-1.33-1.13-1.34-.33,0-.66-.17-.64-.57.03-.47.42-.57.79-.53,3.07.29,6.14-.23,9.22.07,1.06.1,2.15.06,3.22.05.48,0,.98.04.95.61-.03.53-.58.5-.95.44-1.17-.19-1.46.48-1.56,1.44-.32,3.19-.06,6.39-.05,9.58.01,5.54.41,11.07.19,16.63-.15,3.82.2,7.66.21,11.49,0,2.18,1.37,2.99,3.07,3.69,1.9.78,3.87.66,5.76.28,2.25-.45,4.52-.87,6.67-1.86,3.65-1.69,6.03-4.29,7.22-8.19,1.65-5.42,2.67-10.93,3.03-16.56.1-1.55.02-3.11.02-4.67Zm-27.84,17.52c.53-.5.35-1.02.32-1.52-.04-.8-.13-1.6.1-2.38.46-1.59.67-3.21.59-4.85-.09-1.99-.39-3.99-.31-5.98.17-4.51-.54-9.01,0-13.52.08-.66-.18-1.06-.94-1.06-1.8-.02-3.59-.14-5.39-.03-1.17.07-1.58.55-1.48,1.63.22,2.6-.18,5.18-.22,7.77-.08,4.58-.91,9.16.3,13.7.19-.33-.11-.87.42-1.14,1.22,1.44.62,3.28,1.05,4.93.53-.44.06-1.17.69-1.57,0,.69-.01,1.28,0,1.87,0,.23.02.55.31.57.41.04.38-.35.39-.6.04-1.83.86-3.54.78-5.39,1.35,3.77-.35,7.66.38,11.45.39-.59.37-1.22.4-1.85.08-2.05.37-3.06,1.23-4.42.12-.19.09-.46.12-.7.16-1.19.56-2.33.64-3.55.73,2.18.41,4.44.64,6.63Z"/>
      <path class="cls-1" d="m207.49,315.41c.91-.72.9-2.21,2.3-2.6-.47.72-.5,1.56-.73,2.32-.24.8-.99.56-1.6.24,0,0,.02.03.02.03Z"/>
      <path class="cls-1" d="m79.83,302.37c1-1.1,2.24-1.81,3.51-2.46.26-.13.57-.02.71.28.12.25-.08.4-.28.4-1.47-.01-2.38.99-3.37,1.84-.12.11-.27.17-.57-.06Z"/>
      <path class="cls-1" d="m76.71,338.03c-.37-.63-.41-1.29-.87-1.75-.22-.22-.06-.53.19-.7.19-.14.43-.28.65-.14.28.17.1.43,0,.62-.33.62.25,1.21.02,1.97Z"/>
      <path class="cls-1" d="m39.58,311.01c.06.85-.24,1.78.9,2.34-.55.22-.94.49-1.31.11-.3-.3-.15-.67.05-.98.29-.44.18-.98.35-1.47Z"/>
      <path class="cls-1" d="m168.38,348.97c-.26-1.01.09-1.52.55-2.19.24.49.65.94.56,1.24-.11.36-.81.3-1.11.94Z"/>
      <path class="cls-1" d="m84.07,342.28c-.79-.15-1.32-.68-1.85-1.22-.22-.23-.25-.5-.1-.77.05-.09.18-.18.28-.18.37,0,.43.28.47.57.11.74.84,1.03,1.17,1.62,0,0,.03-.03.03-.03Z"/>
      <path class="cls-1" d="m17.6,259.35c-.2.49-.74.69-.78,1.21-.02.36-.16.52-.52.3-.3-.19-.31-.43-.1-.7.35-.43.75-.78,1.4-.81Z"/>
      <path class="cls-1" d="m50.23,276.92c.58-.36,1.18-.6,2.06-.33-.75.58-1.42.39-2.06.33Z"/>
      <path class="cls-1" d="m146.77,181.39c-.09,1.96-.15,3.9-.92,5.75-.15.37-.2.84-.64.95-1.61.39-3.18,1.11-4.9.78-.23-.04-.5-.14-.71-.08-1.36.39-2.08-.62-2.32-1.5-.57-2.12-1.71-4.08-1.69-6.38.03-5-.91-9.91-1.38-14.87-.34-3.61-.48-7.24-.29-10.87.12-2.37,1.38-4.18,3.08-5.73.61-.55,1.06-.49,1.62.09.99,1.02,1.69,2.18,2.13,3.54,1.24,3.83,2.54,7.64,3.79,11.46.62,1.9.63,3.94,1.18,5.85,1.06,3.63.71,7.35,1.03,11.02Z"/>
      <path class="cls-1" d="m152.61,179.46c0,.8-.03,1.6,0,2.39.07,1.41-1.33,3.74-2.57,4.43-.88.49-1.27.2-1.64-.63-.87-2-1.02-4.12-.83-6.2.26-2.86-.48-5.54-.95-8.28-.3-1.77-.52-3.58-1.12-5.25-1.05-2.93-1.38-5.97-1.79-8.99-.24-1.8.22-3.64.09-5.48-.05-.74.83-.98,1.67-.41,1.19.79,1.94,2,2.62,3.22,1.47,2.6,2.05,5.49,2.76,8.36,1.22,4.92,1.25,9.95,1.73,14.94.06.63,0,1.28,0,1.91,0,0,0,0,0,0Z"/>
      <path class="cls-1" d="m160.95,165.22c0-2.35,0-4.69,0-7.04,0-.25-.03-.48.21-.63.27-.17.56-.15.78.04.27.23.59.47.72.78,1.13,2.73,3.15,4.98,4.22,7.75.41,1.05.72,2.11.84,3.22.07.65-.05,1.31-.41,1.84-1.07,1.58-2.1,3.18-3.81,4.21-.55.33-.79.33-1.09-.26-.75-1.46-1.38-2.9-1.22-4.65.16-1.74.03-3.5.03-5.25-.09,0-.18,0-.27,0Z"/>
      <path class="cls-1" d="m153.33,176.42c.14-3.61.11-6.43-.71-9.19-.2-.68-.2-1.42-.26-2.13-.24-2.83-.75-5.61-1.57-8.34-.13-.42-.54-1.06.15-1.38.63-.3,1.01.25,1.43.61.42.37.49.91.68,1.38,1.1,2.77,2.33,5.49,2.75,8.48.5,3.55.22,7.08-.15,10.61-.16,1.5-.05,3.04-.56,4.5-.15.41-.2.92-.8.87-.54-.05-.69-.46-.72-.95-.09-1.75-.19-3.5-.24-4.47Z"/>
      <path class="cls-1" d="m156.46,161.8c.07-2.55-.91-4.45-1.77-6.37-.28-.63-.42-1.29-.53-1.96-.07-.45-.03-.94.5-1.08.48-.13.72.26.88.63.8,1.88,1.19,3.87,1.5,5.88.14.9.28,1.79-.59,2.9Z"/>
      <path class="cls-1" d="m157.45,170.7c-.07-.67.2-1.79-.12-2.89-.08-.28-.04-.6.29-.7.43-.13.57.24.62.54.39,2.26.16,4.53.06,6.8,0,.2-.09.42-.34.39-.24-.03-.28-.27-.29-.47-.07-1.08-.13-2.15-.23-3.67Z"/>
      <path class="cls-1" d="m142.58,155.24c-.79-.77-.94-1.71-1.24-2.49-.24-.63-.3-1.33-.72-1.93-.24-.35-.08-.64.37-.59.62.08,1.26.12,1.72.67.26.32.59.54.04.91-.41.28-.14.73-.12,1.11.04.72.29,1.45-.05,2.32Z"/>
      <path class="cls-1" d="m135.6,187.01c-.04-.34-.25-.8.26-.88.4-.07.41.39.52.68.12.29.29.57.42.85.17.37.38.81-.19.97-.47.12-.86-.11-.93-.66-.04-.31-.05-.63-.07-.95Z"/>
      <path class="cls-1" d="m113.91,120.21c-.65-.18-1.23-.06-1.78.34-.3.21-.75.32-.94-.08-.23-.51.35-.49.61-.64.8-.48,1.5-.31,2.1.38,0,0,0,0,0,0Z"/>
      <path class="cls-1" d="m146.97,100.14c.09.78.3,1.36-.17,1.84-.14.15-.44.04-.51-.13-.25-.63,0-1.12.68-1.71Z"/>
      <path class="cls-1" d="m159.15,164.42c-.04.32-.22.52-.55.51-.38,0-.61-.22-.57-.61.04-.33.29-.46.6-.45.33.01.49.22.51.55Z"/>
      <path class="cls-1" d="m150.41,152.62c.38.08.54.4.64.73.09.28-.09.46-.36.46-.43,0-.61-.31-.65-.68-.03-.25.04-.47.37-.51Z"/>
      <path class="cls-1" d="m159.75,120.68c-.47.57-.83,1.25-1.54,1.67q.08-.85,1.54-1.67Z"/>
      <path class="cls-1" d="m63.88,261.22c0,1.43-1.03,2.93-2.07,2.99-.66.04-2.43-1.99-2.44-2.8-.01-.79,1.36-2.35,2.1-2.39.77-.04,2.4,1.46,2.4,2.2Zm-1.15.01c-.1-.41.08-1.1-.65-1.03-.78.09-.9.82-.97,1.46-.05.44.12.83.64.81.78-.02.98-.55.98-1.25Z"/>
      <path class="cls-1" d="m56.07,177.09c-1.34,0-2-.59-2-1.77,0-1.85,1.14-3.31,2.53-3.26,1.05.04,2.01,1.19,2.01,2.41,0,1.38-1.21,2.63-2.54,2.62Zm1.97-2.97c.03-.6-.26-.87-.87-.84-.84.04-1.5.82-1.42,1.74.05.55.37.89.91.91.71.02,1.39-.91,1.37-1.81Z"/>
      <path class="cls-1" d="m71.7,283.81c-.97.01-1.97-.82-2.01-1.68-.05-1.27,1.32-2.67,2.65-2.7.53-.02,1.96,1.26,1.98,1.76.04,1.39-1.17,2.61-2.62,2.62Zm.15-1.12c.68.05,1.07-.26,1.12-.94.05-.74-.4-.94-1.04-1-.83-.08-1.06.48-1.12,1.09-.06.7.5.81,1.04.85Z"/>
      <path class="cls-1" d="m109.32,158.26c1.52.12,2.63,1.37,2.41,2.74-.17,1.02-1.01,1.38-1.94,1.44-.94.06-2-.87-2.06-1.77-.03-.39,0-.8.07-1.19.17-.88.42-1.7,1.52-1.22Zm1.36,1.75c-.09-.49-.39-.81-.82-.77-.63.06-.96.54-1.03,1.13-.04.35.25.63.62.56.54-.1,1.08-.3,1.23-.92Z"/>
      <path class="cls-1" d="m56.84,234.96c-.03,1.32-.76,2.22-1.81,2.22-1.27,0-2.41-.87-2.42-1.86-.01-1.03,1.63-2.68,2.61-2.61.79.06,1.65,1.25,1.63,2.24Zm-.91-.08c-.04-.46-.17-1.01-.83-1.01-.77,0-1.09.59-1.17,1.26-.07.57.31.88.87.9.72.03,1.1-.34,1.14-1.15Z"/>
      <path class="cls-1" d="m84.92,159.91c-.03,1.25-.91,2.13-2.12,2.12-1.21-.01-2.28-1.06-2.25-2.19.03-.98,1.37-2.12,2.43-2.06.81.04,1.96,1.32,1.94,2.14Zm-2.05-1.05c-.73.1-.99.64-.99,1.26,0,.56.45.84.99.79.74-.06,1.18-.51,1.15-1.26-.03-.7-.65-.68-1.15-.8Z"/>
      <path class="cls-1" d="m56.32,205.65c-.03,1.34-.88,2.2-2.15,2.17-.98-.03-1.77-1.04-1.71-2.18.04-.88,1.18-2.1,1.97-2.11.84-.01,1.92,1.2,1.9,2.13Zm-2.13,1.1c.67-.1,1.09-.51,1.2-1.15.09-.55-.33-.77-.8-.81-.7-.06-1.01.38-1.05,1.01-.03.46.08.88.65.95Z"/>
      <path class="cls-1" d="m106.6,162.05c.22.03.36.21.29.32-.28.39-.08,1.05-.66,1.24-.25.08-.59.07-.76-.17-.25-.34.12-.46.3-.63.28-.26.57-.52.84-.76Z"/>
      <path class="cls-1" d="m168.1,290.44c-1.35,0-2.66-1.16-2.8-2.47-.13-1.25.96-2.74,2.22-3.02.61-.13,1.1.16,1.5.55.59.58.96,1.36,1.69,1.82.11.07.17.27.17.42,0,.72-2.06,2.71-2.78,2.7Zm.16-4.16c-.54.1-.54.59-.62,1-.06.32.05.6.43.53.53-.09.63-.57.72-1,.07-.34-.15-.51-.53-.54Z"/>
      <path class="cls-1" d="m189.66,174.89c.27.04.43.12.5.07,1.39-.9,1.53.67,2.13,1.16.47.38-.24,3.03-.78,3.44-1.47,1.1-2.33.7-3.73-1.13-.83-1.08-.01-1.76.23-2.53.22-.68.87-1.26,1.64-1.02Zm1.34,1.78c-.07-.38-.27-.72-.53-.6-.6.27-1.51.19-1.62,1.12-.05.43.28.7.67.65.73-.08,1.06-.72,1.48-1.17Z"/>
      <path class="cls-1" d="m190.56,211.32c-.88-.05-1.85-.33-2.06-1.21-.23-.96-.92-2.18.45-2.99.2-.11.3-.37.48-.52.94-.74,1.54-.56,2.15.46.51.85,1.21,1.56.89,2.7-.28,1.01-.72,1.69-1.92,1.55Zm-.31-3.04c-.48.04-.96.53-.87.92.09.38.19.86.71.8.62-.07.67-.61.67-1.1,0-.31-.05-.66-.51-.63Z"/>
      <path class="cls-1" d="m182.54,261.07c.96-.02,2.08,1.33,2.11,2.54.03,1.13-1.44,2.43-2.77,2.45-.9.01-1.87-.89-1.91-1.77-.06-1.52,1.27-3.19,2.57-3.21Zm1,2.44c.02-.79-.44-1-1.01-.99-.88,0-1.3.55-1.34,1.37-.03.62.35.99.97.95.85-.06,1.22-.65,1.37-1.32Z"/>
      <path class="cls-1" d="m190.37,239.99c-.1-.86-.42-1.04-1.19-.99-1.32.09-2.25-1.68-1.62-2.87.91-1.73,1.28-1.92,2.93-1.79.55.04.73.3.74.72.02,1.13.44,2.29-.28,3.37-.26.39-.06.96-.57,1.56Zm-.49-2.24c.27.05.54-.23.58-.74.05-.56-.25-.93-.79-1.02-.64-.11-.96.26-1.07.84-.15.84.55.69,1.28.92Z"/>
      <path class="cls-1" d="m158.96,302.33c-.47.36-.59.74-.59,1.17,0,.52-.29.89-.65,1.21-.24.21-.59.35-.86.13-.29-.24.04-.48.14-.72.35-.84.69-1.69,1.95-1.79Z"/>
      <path class="cls-1" d="m159.85,301.31c.36-.79.61-1.35.88-1.9.1-.21.31-.49.51-.41.25.1.51.37.61.62.09.24-.25.34-.43.48-.45.35-.9.69-1.57,1.2Z"/>
      <path class="cls-1" d="m162.92,298.84c.36-.46.72-.92,1.07-1.38.15-.19.31-.43.55-.19.24.25-.06.39-.2.56-.38.45-.75.89-1.41,1.01Z"/>
      <path class="cls-1" d="m154.03,303.99c.48-.39.67-1.27,1.67-1.07-.36.75-1.07.82-1.67,1.07Z"/>
      <path class="cls-1" d="m128.08,226.76c.39.16.65.53,1.1.62.53.1.71.48.54,1-.11.33-.12.67.11.91,1.43,1.48,2.65,3.33,5.17,2.92.58-.09,1.19.05,1.79.04.41-.01.94-.09.96.41.02.5-.58.51-.94.47-2.19-.23-4.5.22-6.5-1.12-.11-.08-.28-.07-.49,0,1.2.91,1.73,2.62,3.56,2.75.69.05.46.45.18.82-.2.26-.8.53-.15.91.44.25.95.35,1.25-.21.32-.61.85-.8,1.46-.92.95-.18,1.79-.47,1.87-1.65.01-.21.14-.4.37-.41.31,0,.35.25.4.49.18.88-.72,2.11-1.79,2.23-.68.08-1.2.34-1.7.76-1.3,1.12-3.28.45-3.55-1.24-.1-.63-.38-1-.9-1.29-.7-.39-1.35-.85-2.04-1.26-1.32-.79-1.76-.78-3.15.1,0-.64-.37-1.13-.5-1.69-.26-1.12.19-1.68,1.3-1.45.84.18,1.46-.19,2.16-.44.36-.13.67-.35.7-.74.03-.48-.33-.69-.72-.84-.56-.2-1.11-.41-.48-1.15Z"/>
      <path class="cls-1" d="m118.49,233.27c-.7-1.87-1.45-.3-1.94-.04-1.63.83-2.88,2.13-3.84,3.75-.85,1.44-2.62,1.62-3.76.46-.55-.56-1.31-.56-1.94-.87-1.08-.54-1.24-1.17-.35-2.05-.2,1.24.26,1.61,1.41,1.58.82-.02,1.76.09,2.43.81.34.37.78.42,1.18.1.45-.35.21-.68-.09-1-.35-.38-.11-.65.22-.88.52-.37,1.04-.73,1.56-1.1.62-.43.95-.85-.11-1.17.4-.38.74-.66,1.03-.99.21-.24,1.11-.55-.04-.82-.16-.04-.22-.87-.16-1.32.05-.37.46-.22.71-.16.55.14,1.04.12,1.61-.04,1.11-.31,1.89.93,3.03.82.2-.02.14.39.04.62-.31.71-.61,1.43-.98,2.28Z"/>
      <path class="cls-1" d="m120.66,226.03c-.04.69-.29,1.31-.76,1.83-.12.13-.46.29-.49.25-.65-.77-1.78-.68-2.43-1.39-.42-.46-.25-1.03.07-1.43.3-.37.68-.83,1.3-.36.39.29.85.38,1.36.24.7-.19.93.23.95.86Z"/>
      <path class="cls-1" d="m123.62,227.47c-.05-.35-.1-.71-.16-1.06-.06-.32-.02-.59.35-.61.7-.03,1.42-.06,2.12,0,.49.04,1.17.07,1.14.77-.03.7-.38,1.3-1.2,1.42-.83.11-1.55-.23-2.28-.55l.03.03Z"/>
      <path class="cls-1" d="m123.59,227.44c-.07.33-.2.57-.57.68-.39.12-.36.43-.26.78.3.98-.04,1.35-1.03,1.18-.25-.04-.44-.1-.48-.41-.21-1.72.78-2.65,2.36-2.2,0,0-.03-.03-.03-.03Z"/>
      <path class="cls-1" d="m119.68,233.99c1.53-.57,2.98-.07,3.92-1.21.45,1.07.43,1.12-.72,1.35-.97.2-1.92-.02-3.2-.14Z"/>
      <path class="cls-1" d="m107.16,234.15c.37-.54.67-.47.92-.39.81.24,1.56.22,2.26-.3.17-.13.44-.3.58.04.09.22-.1.41-.3.44-1.1.16-2.21.42-3.47.22Z"/>
      <path class="cls-1" d="m116.15,227.77c-.66-.33-1.32.37-1.6-.28-.14-.34.47-.95.85-.98.65-.05.41.68.74,1.26Z"/>
      <path class="cls-1" d="m122.77,224.7c.03.46-.21.55-.51.53-.39-.03-.82-.06-.86-.58-.03-.34.09-.66.48-.67.52-.02.64.48.9.72Z"/>
      <path class="cls-1" d="m201.35,270.3c.33-.17.57.04.81.13.31.11.75.12.77.61,0,.18-.13.28-.29.33-.45.13-.78-.03-1-.43-.11-.2-.19-.42-.29-.63Z"/>
      <path class="cls-1" d="m202.06,238.06c-.7-1.3-2.3-1.43-3.21-2.46,1.41.37,2.57,1.06,3.21,2.46Z"/>
      <path class="cls-1" d="m205.01,238.59c-.6-.26-.62-.94-.94-1.4-.11-.16.15-.37.36-.29.52.19,1.04.44,1.16,1.04.07.34-.22.55-.58.65Z"/>
      <path class="cls-1" d="m220.19,238.3c-.3-.47-.79-.6-1.28-.8-.27-.11-.59-.42-.36-.76.22-.32.5-.04.71.13.46.38.97.74.91,1.45,0,0,.02-.03.02-.03Z"/>
    </g>
  </g>
</svg>