<svg id="Layer_1" data-name="Layer 1" xmlns="http://www.w3.org/2000/svg" xmlns:xlink="http://www.w3.org/1999/xlink" viewBox="0 0 2012.84 2012.84"><defs><style>.cls-1{fill:#fff;}.cls-2{fill:url(#linear-gradient);}.cls-3{fill:url(#linear-gradient-2);}.cls-4{fill:none;stroke-miterlimit:10;stroke-width:4px;stroke:url(#linear-gradient-3);}.cls-5{opacity:0.47;}.cls-6{opacity:0.3;}.cls-7{opacity:0.62;}.cls-8{clip-path:url(#clip-path);}.cls-9{clip-path:url(#clip-path-2);}.cls-10{clip-path:url(#clip-path-3);}.cls-11{clip-path:url(#clip-path-4);}.cls-12{clip-path:url(#clip-path-5);}.cls-13{clip-path:url(#clip-path-6);}.cls-14{clip-path:url(#clip-path-7);}.cls-15{clip-path:url(#clip-path-8);}.cls-16{clip-path:url(#clip-path-9);}.cls-17{clip-path:url(#clip-path-10);}.cls-18{clip-path:url(#clip-path-11);}.cls-19{clip-path:url(#clip-path-12);}.cls-20{clip-path:url(#clip-path-13);}.cls-21{clip-path:url(#clip-path-14);}.cls-22{clip-path:url(#clip-path-15);}.cls-23{opacity:0.64;}.cls-24{clip-path:url(#clip-path-16);}.cls-25{clip-path:url(#clip-path-17);}.cls-26{clip-path:url(#clip-path-18);}.cls-27{clip-path:url(#clip-path-19);}.cls-28{clip-path:url(#clip-path-20);}</style><linearGradient id="linear-gradient" x1="379.34" y1="1006.42" x2="1633.49" y2="1006.42" gradientUnits="userSpaceOnUse"><stop offset="0" stop-color="#074972"/><stop offset="1" stop-color="#106489"/></linearGradient><linearGradient id="linear-gradient-2" x1="490.14" y1="1010.16" x2="1534.1" y2="1010.16" gradientUnits="userSpaceOnUse"><stop offset="0" stop-color="#074972"/><stop offset="0.38" stop-color="#094e77"/><stop offset="0.85" stop-color="#0e5d83"/><stop offset="1" stop-color="#106489"/></linearGradient><linearGradient id="linear-gradient-3" x1="488.14" y1="1010.16" x2="1536.1" y2="1010.16" gradientUnits="userSpaceOnUse"><stop offset="0" stop-color="#fff"/><stop offset="1" stop-color="#bcbec0"/></linearGradient><clipPath id="clip-path"><rect id="SVGID" class="cls-1" x="1282.01" y="1513.33" width="15.35" height="15.35"/></clipPath><clipPath id="clip-path-2"><rect id="SVGID-2" data-name="SVGID" class="cls-1" x="1291.67" y="1508.36" width="10.4" height="10.4"/></clipPath><clipPath id="clip-path-3"><rect id="SVGID-3" data-name="SVGID" class="cls-1" x="1275.98" y="1496.46" width="9.58" height="9.59"/></clipPath><clipPath id="clip-path-4"><rect id="SVGID-4" data-name="SVGID" class="cls-1" x="1267.77" y="1527.27" width="4.96" height="4.96"/></clipPath><clipPath id="clip-path-5"><rect id="SVGID-5" data-name="SVGID" class="cls-1" x="1317.01" y="1497.99" width="8.06" height="8.06"/></clipPath><clipPath id="clip-path-6"><rect id="SVGID-6" data-name="SVGID" class="cls-1" x="976.05" y="541.32" width="15.93" height="15.93"/></clipPath><clipPath id="clip-path-7"><rect id="SVGID-7" data-name="SVGID" class="cls-1" x="986.08" y="536.16" width="10.79" height="10.8"/></clipPath><clipPath id="clip-path-8"><rect id="SVGID-8" data-name="SVGID" class="cls-1" x="969.79" y="523.8" width="9.95" height="9.95"/></clipPath><clipPath id="clip-path-9"><rect id="SVGID-9" data-name="SVGID" class="cls-1" x="961.27" y="555.79" width="5.15" height="5.15"/></clipPath><clipPath id="clip-path-10"><rect id="SVGID-10" data-name="SVGID" class="cls-1" x="1012.39" y="525.39" width="8.36" height="8.37"/></clipPath><clipPath id="clip-path-11"><rect id="SVGID-11" data-name="SVGID" class="cls-1" x="488.85" y="1289.25" width="14.22" height="14.22"/></clipPath><clipPath id="clip-path-12"><rect id="SVGID-12" data-name="SVGID" class="cls-1" x="498.04" y="1298.2" width="9.64" height="9.63"/></clipPath><clipPath id="clip-path-13"><rect id="SVGID-13" data-name="SVGID" class="cls-1" x="509.82" y="1283.67" width="8.88" height="8.88"/></clipPath><clipPath id="clip-path-14"><rect id="SVGID-14" data-name="SVGID" class="cls-1" x="485.56" y="1276.05" width="4.6" height="4.6"/></clipPath><clipPath id="clip-path-15"><rect id="SVGID-15" data-name="SVGID" class="cls-1" x="509.82" y="1321.69" width="7.47" height="7.47"/></clipPath><clipPath id="clip-path-16"><rect id="SVGID-16" data-name="SVGID" class="cls-1" x="634.37" y="784.47" width="12.34" height="12.34"/></clipPath><clipPath id="clip-path-17"><rect id="SVGID-17" data-name="SVGID" class="cls-1" x="642.14" y="780.47" width="8.36" height="8.36"/></clipPath><clipPath id="clip-path-18"><rect id="SVGID-18" data-name="SVGID" class="cls-1" x="629.52" y="770.9" width="7.71" height="7.71"/></clipPath><clipPath id="clip-path-19"><rect id="SVGID-19" data-name="SVGID" class="cls-1" x="622.92" y="795.68" width="3.99" height="3.99"/></clipPath><clipPath id="clip-path-20"><rect id="SVGID-20" data-name="SVGID" class="cls-1" x="662.52" y="772.13" width="6.48" height="6.48"/></clipPath></defs><title>SEI logo</title><path class="cls-2" d="M1633.49,1006.42c0,54.08-52.32,100.57-65.66,150.45-13.79,51.61,7.88,118-18.27,163.14-26.52,45.84-95.06,60.09-132.26,97.29S1365.85,1523,1320,1549.57c-45.18,26.14-111.53,4.47-163.14,18.26-49.88,13.34-96.37,65.66-150.45,65.66S905.85,1581.17,856,1567.83c-51.61-13.79-118,7.88-163.15-18.27C647,1523,632.73,1454.5,595.53,1417.3S489.79,1365.85,463.27,1320c-26.14-45.18-4.47-111.53-18.27-163.14-13.33-49.88-65.66-96.37-65.66-150.45S431.67,905.85,445,856c13.8-51.61-7.87-118,18.27-163.15,26.52-45.84,95.06-60.09,132.26-97.29S647,489.79,692.82,463.27C738,437.13,804.36,458.8,856,445c49.88-13.33,96.36-65.66,150.45-65.66S1107,431.67,1156.87,445c51.61,13.8,118-7.87,163.14,18.27,45.84,26.52,60.09,95.06,97.29,132.26S1523,647,1549.57,692.82C1575.71,738,1554,804.36,1567.83,856,1581.17,905.85,1633.49,952.33,1633.49,1006.42Z"/><path class="cls-3" d="M1534.1,1010.16c0,44.67-51.09,82-62.11,123.24-11.39,42.63,13.84,100.47-7.76,137.8-21.91,37.86-84.82,44.8-115.54,75.53s-37.67,93.64-75.53,115.54c-37.33,21.6-95.17-3.63-137.8,7.76-41.2,11-78.57,62.11-123.24,62.11s-82-51.09-123.24-62.11c-42.64-11.39-100.48,13.84-137.8-7.76-37.87-21.9-44.8-84.81-75.53-115.54S581.91,1309.06,560,1271.2c-21.59-37.33,3.64-95.17-7.76-137.8-11-41.2-62.1-78.57-62.1-123.24s51.09-82,62.1-123.24c11.4-42.63-13.83-100.48,7.77-137.8,21.9-37.86,84.81-44.8,115.54-75.53S713.21,580,751.08,558.05c37.32-21.6,95.16,3.63,137.8-7.77,41.2-11,78.56-62.1,123.24-62.1s82,51.09,123.24,62.1c42.63,11.4,100.47-13.83,137.8,7.77,37.86,21.9,44.8,84.81,75.53,115.54s93.64,37.67,115.54,75.53c21.6,37.33-3.63,95.17,7.76,137.8C1483,928.12,1534.1,965.48,1534.1,1010.16Z"/><path class="cls-4" d="M1534.1,1010.16c0,44.67-51.09,82-62.11,123.24-11.39,42.63,13.84,100.47-7.76,137.8-21.91,37.86-84.82,44.8-115.54,75.53s-37.67,93.64-75.53,115.54c-37.33,21.6-95.17-3.63-137.8,7.76-41.2,11-78.57,62.11-123.24,62.11s-82-51.09-123.24-62.11c-42.64-11.39-100.48,13.84-137.8-7.76-37.87-21.9-44.8-84.81-75.53-115.54S581.91,1309.06,560,1271.2c-21.59-37.33,3.64-95.17-7.76-137.8-11-41.2-62.1-78.57-62.1-123.24s51.09-82,62.1-123.24c11.4-42.63-13.83-100.48,7.77-137.8,21.9-37.86,84.81-44.8,115.54-75.53S713.21,580,751.08,558.05c37.32-21.6,95.16,3.63,137.8-7.77,41.2-11,78.56-62.1,123.24-62.1s82,51.09,123.24,62.1c42.63,11.4,100.47-13.83,137.8,7.77,37.86,21.9,44.8,84.81,75.53,115.54s93.64,37.67,115.54,75.53c21.6,37.33-3.63,95.17,7.76,137.8C1483,928.12,1534.1,965.48,1534.1,1010.16Z"/><path class="cls-1" d="M926.53,933.31a15.06,15.06,0,0,0-6,1.26L799,805.83h18.07l81.76,86.67a15.26,15.26,0,1,0,8.21-7l-75.15-79.66H850l39.55,41.92a15.28,15.28,0,1,0,8.23-7L854.67,795H783L718.86,863v47.82l-20.81-22.06a15.24,15.24,0,1,0-7.58,7.69L884,1101.51v63.86H872.53v-56.28L712.44,939.37a15.16,15.16,0,1,0-13.11,7.56,15.28,15.28,0,0,0,4.71-.75l157.7,167.18v18.39L721.61,983.21a15.17,15.17,0,1,0-7.9,7.33l148,156.93v17.9H778v-23.72a15.16,15.16,0,1,0-10.79,0v23.68H750.43V1118a15.17,15.17,0,1,0-10.79,0v47.37H724.06v-71.94a15.16,15.16,0,1,0-10.78,0v78.62l90.24,54.62H867l50.22-53.13v-98l-126.45-134V869.76l26.9-28.48,95.13,100.85a15.16,15.16,0,1,0,13.76-8.82ZM912.17,891a8.77,8.77,0,1,1-8.77,8.76A8.76,8.76,0,0,1,912.17,891Zm-9.3-44.72a8.77,8.77,0,1,1-8.76,8.77A8.77,8.77,0,0,1,902.87,846.27Zm-218.7,45.12a8.76,8.76,0,1,1,8.76-8.76A8.77,8.77,0,0,1,684.17,891.39Zm15.16,49.14a8.77,8.77,0,1,1,8.77-8.76A8.76,8.76,0,0,1,699.33,940.53Zm8.7,44.72a8.77,8.77,0,1,1,8.77-8.76A8.76,8.76,0,0,1,708,985.25Zm1.88,94a8.76,8.76,0,1,1,8.76,8.77A8.76,8.76,0,0,1,709.91,1079.27Zm38.65-137-18.92-20.06v-55l56.29-59.59,9.14,9.69Q771.82,842,748.56,866.59Zm15.26,185.24a8.76,8.76,0,1,1,8.76,8.76A8.77,8.77,0,0,1,763.82,1127.51Zm-27.55-23.67a8.77,8.77,0,1,1,8.77,8.77A8.77,8.77,0,0,1,736.27,1103.84Zm126.05,112.05H806.53l-24-14.53h93.52Zm23.93-25.32H764.71l-23.82-14.41h159ZM780,865.47V945.8l126.44,134v85.53H894.73v-68.15L759.35,953.7V870.88l43.13-45.67,7.75,8.21Zm146.57,91.77a8.77,8.77,0,1,1,8.77-8.77A8.77,8.77,0,0,1,926.53,957.24Z"/><path class="cls-1" d="M1152.41,1064.87a15.16,15.16,0,0,0-13.83,21.37l-93.3,93.31-23.86-23.86V1041.06h31.85a15.15,15.15,0,1,0,.24-10.79h-32.09v-15.1h61.41a15.15,15.15,0,1,0,.28-10.79h-61.69V990h93.17a15.17,15.17,0,1,0,0-10.79h-93.17V952.09l22.75-24.79-8-7.29-86.74,94.52v147.69l56.56,56.56h0l7.62,7.62h71.82l42.15-42.14a15.14,15.14,0,1,0-7.54-7.72L1081,1215.63h-18.15l73-73a15.14,15.14,0,1,0-7.43-7.82l-80.86,80.86h-23.17l4.93-4.93,7.63-7.63,109.2-109.2a15.16,15.16,0,1,0,6.2-29Zm-84.86-37.64a8.77,8.77,0,1,1-8.77,8.76A8.76,8.76,0,0,1,1067.55,1027.23Zm29.58-25.83a8.76,8.76,0,1,1-8.76,8.76A8.76,8.76,0,0,1,1097.13,1001.4Zm31.62-25.59a8.77,8.77,0,1,1-8.76,8.77A8.77,8.77,0,0,1,1128.75,975.81Zm5.25,186a8.77,8.77,0,1,1-8.76,8.77A8.77,8.77,0,0,1,1134,1161.76Zm8.48-41.59a8.77,8.77,0,1,1-8.77,8.76A8.76,8.76,0,0,1,1142.48,1120.17Zm-128.81,91-53.4-53.41v-139l18.58-20.24v161.67h0l42.9,42.91Zm15.71-15.72-39.75-39.75v-169l21-22.88v196.31l27,27Zm123-106.64a8.77,8.77,0,1,1,8.77-8.76A8.76,8.76,0,0,1,1152.41,1088.8Z"/><path class="cls-1" d="M1153.44,835.93a15.15,15.15,0,0,0-14.16,9.78H966.91l12.69-13.82h119.17a15.17,15.17,0,1,0,0-10.79H989.49l14.11-15.37h53.95a15.16,15.16,0,1,0,.09-10.79H998.86l-50,54.51q.15,64,.16,127.9v12.38l8-8.67,49-53.38h.13v-.14l20.23-22-7.95-7.29-12,13V856.49h132.91a15.16,15.16,0,1,0,14.16-20.56Zm-40.51-18.2a8.77,8.77,0,1,1-8.76,8.76A8.77,8.77,0,0,1,1112.93,817.73Zm-41.18-26a8.76,8.76,0,1,1-8.76,8.76A8.77,8.77,0,0,1,1071.75,791.69ZM971.87,948.83l-12.25,13.35V856.49h12.25Zm23.39-25.48-12.6,13.72V856.49h12.6Zm158.18-63.49a8.76,8.76,0,1,1,8.76-8.76A8.77,8.77,0,0,1,1153.44,859.86Z"/><path class="cls-1" d="M1332.25,1139.89a11.58,11.58,0,0,0-11.58,11.58,11.26,11.26,0,0,0,.25,2.41l-29.71,27.92-13.12-13.06,28.85-27.11a11.58,11.58,0,1,0-6.53-10.41,10.84,10.84,0,0,0,.13,1.62l-30.09,28.29-4.15-4.13V954.86a15.17,15.17,0,1,0-10.78,0V1161l7.06,7.53-7.71,7.24-20.3-20.22V973.85a15.17,15.17,0,1,0-10.78-.49V1160l23.22,23.14-9.28,8.72-33.54-33.42V993.83a15.17,15.17,0,1,0-10.79,0v169.11l64.86,64.61,69.57-65.37a11.58,11.58,0,1,0,4.42-22.29ZM1312,1126a5.18,5.18,0,1,1-5.17,5.18A5.18,5.18,0,0,1,1312,1126Zm-90.93-166.59a8.76,8.76,0,1,1,8.76,8.77A8.76,8.76,0,0,1,1221.06,959.45Zm-31,20.22a8.77,8.77,0,1,1,8.76,8.76A8.77,8.77,0,0,1,1190,979.67Zm70.88-30.21a8.77,8.77,0,1,1,8.76-8.76A8.77,8.77,0,0,1,1260.91,949.46Zm-2.42,263.09-13.11-13.06,9.27-8.72,13.12,13.07Zm17.14-16.11-13.11-13.06,7.71-7.25,13.11,13.07Zm56.62-39.79a5.18,5.18,0,1,1,5.17-5.18A5.17,5.17,0,0,1,1332.25,1156.65Z"/><path class="cls-1" d="M1192.78,932l7.84-7.62L1266.86,860V794.46h-35.73v53.66H1216.8V824.55a15.17,15.17,0,1,0-10.79,0v23.57h-13.45v10.79h.22Zm49.14-126.79h14.15v50.18l-14.15,13.77Zm-39.28,5.14a8.77,8.77,0,1,1,8.76,8.76A8.76,8.76,0,0,1,1202.64,810.39Zm.93,48.52h27.56v20.78l-27.56,26.81Z"/><g class="cls-5"><g class="cls-6"><rect class="cls-1" x="1550.88" y="967.63" width="14.02" height="14.02"/><rect id="SVGID-21" data-name="SVGID" class="cls-1" x="1550.88" y="967.63" width="14.02" height="14.02"/></g><g class="cls-6"><rect class="cls-1" x="1558.94" y="975.6" width="9.91" height="9.91"/><rect id="SVGID-22" data-name="SVGID" class="cls-1" x="1558.94" y="975.6" width="9.91" height="9.91"/></g><g class="cls-6"><rect class="cls-1" x="1583.46" y="975.6" width="6.05" height="6.05"/><rect id="SVGID-23" data-name="SVGID" class="cls-1" x="1583.46" y="975.6" width="6.05" height="6.05"/></g><g class="cls-6"><rect class="cls-1" x="1567.05" y="998.02" width="8.25" height="8.25"/><rect id="SVGID-24" data-name="SVGID" class="cls-1" x="1567.05" y="998.02" width="8.25" height="8.25"/></g></g><g class="cls-7"><g class="cls-6"><rect id="SVGID-25" data-name="SVGID" class="cls-1" x="1282.01" y="1513.33" width="15.35" height="15.35"/><g class="cls-8"><rect class="cls-1" x="1282.01" y="1513.33" width="15.34" height="15.34"/></g></g><g class="cls-6"><rect id="SVGID-26" data-name="SVGID" class="cls-1" x="1291.67" y="1508.36" width="10.4" height="10.4"/><g class="cls-9"><rect class="cls-1" x="1291.67" y="1508.36" width="10.4" height="10.4"/></g></g><g class="cls-6"><rect id="SVGID-27" data-name="SVGID" class="cls-1" x="1275.98" y="1496.46" width="9.58" height="9.59"/><g class="cls-10"><rect class="cls-1" x="1275.98" y="1496.46" width="9.59" height="9.59"/></g></g><g class="cls-6"><rect id="SVGID-28" data-name="SVGID" class="cls-1" x="1267.77" y="1527.27" width="4.96" height="4.96"/><g class="cls-11"><rect class="cls-1" x="1267.77" y="1527.27" width="4.96" height="4.96"/></g></g><g class="cls-6"><rect id="SVGID-29" data-name="SVGID" class="cls-1" x="1317.01" y="1497.99" width="8.06" height="8.06"/><g class="cls-12"><rect class="cls-1" x="1317.01" y="1497.99" width="8.06" height="8.06"/></g></g></g><g class="cls-7"><g class="cls-6"><rect id="SVGID-30" data-name="SVGID" class="cls-1" x="976.05" y="541.32" width="15.93" height="15.93"/><g class="cls-13"><rect class="cls-1" x="976.05" y="541.32" width="15.93" height="15.93"/></g></g><g class="cls-6"><rect id="SVGID-31" data-name="SVGID" class="cls-1" x="986.08" y="536.16" width="10.79" height="10.8"/><g class="cls-14"><rect class="cls-1" x="986.08" y="536.16" width="10.79" height="10.79"/></g></g><g class="cls-6"><rect id="SVGID-32" data-name="SVGID" class="cls-1" x="969.79" y="523.8" width="9.95" height="9.95"/><g class="cls-15"><rect class="cls-1" x="969.79" y="523.8" width="9.95" height="9.95"/></g></g><g class="cls-6"><rect id="SVGID-33" data-name="SVGID" class="cls-1" x="961.27" y="555.79" width="5.15" height="5.15"/><g class="cls-16"><rect class="cls-1" x="961.27" y="555.79" width="5.15" height="5.15"/></g></g><g class="cls-6"><rect id="SVGID-34" data-name="SVGID" class="cls-1" x="1012.39" y="525.39" width="8.36" height="8.37"/><g class="cls-17"><rect class="cls-1" x="1012.39" y="525.39" width="8.36" height="8.36"/></g></g></g><g class="cls-7"><g class="cls-6"><rect id="SVGID-35" data-name="SVGID" class="cls-1" x="488.85" y="1289.25" width="14.22" height="14.22"/><g class="cls-18"><rect class="cls-1" x="488.85" y="1289.25" width="14.22" height="14.22"/></g></g><g class="cls-6"><rect id="SVGID-36" data-name="SVGID" class="cls-1" x="498.04" y="1298.2" width="9.64" height="9.63"/><g class="cls-19"><rect class="cls-1" x="498.04" y="1298.2" width="9.63" height="9.63"/></g></g><g class="cls-6"><rect id="SVGID-37" data-name="SVGID" class="cls-1" x="509.82" y="1283.67" width="8.88" height="8.88"/><g class="cls-20"><rect class="cls-1" x="509.83" y="1283.67" width="8.88" height="8.88"/></g></g><g class="cls-6"><rect id="SVGID-38" data-name="SVGID" class="cls-1" x="485.56" y="1276.05" width="4.6" height="4.6"/><g class="cls-21"><rect class="cls-1" x="485.56" y="1276.05" width="4.6" height="4.6"/></g></g><g class="cls-6"><rect id="SVGID-39" data-name="SVGID" class="cls-1" x="509.82" y="1321.69" width="7.47" height="7.47"/><g class="cls-22"><rect class="cls-1" x="509.83" y="1321.69" width="7.47" height="7.47"/></g></g></g><g class="cls-23"><g class="cls-6"><rect id="SVGID-40" data-name="SVGID" class="cls-1" x="634.37" y="784.47" width="12.34" height="12.34"/><g class="cls-24"><rect class="cls-1" x="634.37" y="784.47" width="12.34" height="12.34"/></g></g><g class="cls-6"><rect id="SVGID-41" data-name="SVGID" class="cls-1" x="642.14" y="780.47" width="8.36" height="8.36"/><g class="cls-25"><rect class="cls-1" x="642.14" y="780.47" width="8.36" height="8.36"/></g></g><g class="cls-6"><rect id="SVGID-42" data-name="SVGID" class="cls-1" x="629.52" y="770.9" width="7.71" height="7.71"/><g class="cls-26"><rect class="cls-1" x="629.52" y="770.9" width="7.71" height="7.71"/></g></g><g class="cls-6"><rect id="SVGID-43" data-name="SVGID" class="cls-1" x="622.92" y="795.68" width="3.99" height="3.99"/><g class="cls-27"><rect class="cls-1" x="622.92" y="795.68" width="3.99" height="3.99"/></g></g><g class="cls-6"><rect id="SVGID-44" data-name="SVGID" class="cls-1" x="662.52" y="772.13" width="6.48" height="6.48"/><g class="cls-28"><rect class="cls-1" x="662.52" y="772.13" width="6.48" height="6.48"/></g></g></g></svg>