<svg xmlns="http://www.w3.org/2000/svg" viewBox="0 0 668.33 176.79"><defs><style>.cls-1{fill:#fff;}</style></defs><g id="Layer_2" data-name="Layer 2"><g id="Layer_1-2" data-name="Layer 1"><polygon class="cls-1" points="389.13 19.79 427.78 34.81 389.13 49.28 389.13 69.8 455.27 43.05 455.27 26.75 389.13 0 389.13 19.79"/><path class="cls-1" d="M35.36,96C16.85,96,3.3,104.24,2.2,121.47H22.71v-.37c.37-5.68,5.69-9.9,11.55-9.34,7.87,0,11.54,4.58,11.54,12.27v3.66H36.46C16.31,127.69,0,133.92,0,153.16v.73c0,15.58,11.54,22.54,25.46,22.54a24.9,24.9,0,0,0,21.26-10.26v9H67.6V123.48C67.05,103.69,53.5,96,35.36,96M31,161.22c-7.33,0-10.63-3.66-10.63-9v-.73c0-7,5.32-9.89,15.94-9.89h8.61V149c.37,8.06-6.59,12.27-13.92,12.27"/><path class="cls-1" d="M116.52,160.31c-10.26,0-15.57-7-15.57-22.54v-2.38c0-15.21,6.23-22.54,15.57-22.54,7.33,0,11.54,5,12.64,12.28h20.52C148,105,133.19,96,116,96c-20.52,0-36.83,13.92-36.83,40.12v.73c0,26.2,15.58,39.4,36.83,39.4,20.88,0,32.79-12.65,34.44-29.87h-19.6c-1.47,8.61-6.78,13.93-14.29,13.93"/><path class="cls-1" d="M196.58,160.31c-10.26,0-15.57-7-15.57-22.54v-2.38c0-15.21,6.23-22.54,15.57-22.54,7.33,0,11.54,5,12.64,12.28h20.52C228.09,105,213.25,96,196,96c-20.52,0-36.83,13.92-36.83,40.12v.73c0,26.2,15.58,39.4,36.83,39.4,20.89,0,32.79-12.65,34.08-29.87H210.87c-1.28,8.61-7,13.93-14.29,13.93"/><path class="cls-1" d="M277.37,160.67c-9.34,0-15.2-5.31-15.94-19.24h50v-9C311.45,107,295.51,96,276.27,96c-20.88,0-36.82,14.29-36.82,40.12v1.65c0,25.83,15.2,39,37.37,39,20.15,0,32.43-11,34.44-25.83H291.11a12.42,12.42,0,0,1-13.74,9.71m-1.28-50c8.61,0,13.92,4.94,14.29,16.48H261.62c1.64-12.27,7.87-15.93,14.47-16.48"/><polygon class="cls-1" points="261.8 127.14 261.8 127.14 261.25 127.14 261.8 127.14"/><path class="cls-1" d="M369.52,96a25.09,25.09,0,0,0-23.45,13.19V97.65H324.82v77.13h21.25v-49.1a13.17,13.17,0,0,1,13.56-12.28c7.88,0,11.54,4,11.54,13.19v48.19H393V123.11C393,104.25,383.45,96,369.52,96"/><path class="cls-1" d="M433.09,150.05V113.59h14.85V97.65H433.09V74.2l-21.25,9v14.3H402.5V113.4h9v39c0,15.57,7.88,23.44,24.55,23.44a40.5,40.5,0,0,0,12.27-1.64V157.37a25.81,25.81,0,0,1-7.33,1.29c-4.94,0-7.88-2.75-7.88-8.61"/><path class="cls-1" d="M507.29,145.65v2a13.15,13.15,0,0,1-13.56,12.28c-7.87,0-11-4-11-13.19V97.46h-21.8v52c0,17.95,10.26,26.56,24.19,26.56a24.29,24.29,0,0,0,22.53-13.19v11.54h21.8V97.28h-21.8Z"/><path class="cls-1" d="M566.29,111.57V97.28H545v77.13h21.25V134.47c0-12.64,8.61-17.22,23.45-17.22V96c-10.63,0-20.16,6-23.45,15.57"/><path class="cls-1" d="M668.33,132.09c0-25.46-15.94-36.09-35.17-36.09-20.89,0-36.83,14.29-36.83,40.12v1.65c0,25.84,15.21,39,37.37,39,20.16,0,32.07-11,34.45-25.83H648a13.79,13.79,0,0,1-14.29,10.26c-9.34,0-15.2-5.31-15.93-19.24h50v-9.89Zm-50-5h0c1.65-12.64,7.87-16.48,14.84-16.48,8.61,0,13.92,4.94,14.29,16.48Z"/></g></g></svg>