<svg xmlns="http://www.w3.org/2000/svg" viewBox="0 0 455.67 57.82"><defs><style>.cls-1{fill:#fff;}</style></defs><g id="Layer_2" data-name="Layer 2"><g id="Layer_1-2" data-name="Layer 1"><path id="Magnets" class="cls-1" d="M21.58,28.91A10.79,10.79,0,1,1,10.79,18.12,10.79,10.79,0,0,1,21.58,28.91Zm423.3-10.79a10.79,10.79,0,1,0,10.79,10.79A10.79,10.79,0,0,0,444.88,18.12Z"/><path id="Wordmark" class="cls-1" d="M107.92,57.82h-15l-4.21-15H69.3l-4.13,15H50.51L67.84,0H90.59ZM72.54,31H85.41L80.8,14.25H77.24ZM164.45,0c13.68,0,21.62,7,21.62,19,0,12.23-7.94,19.35-21.62,19.35H151.81V57.82H136.75V0ZM162.5,25.51c5.92,0,8.18-2.11,8.18-6.24s-2.26-6.15-8.18-6.15H151.81V25.51ZM263.64,13.28H246.31V57.82H231.25V13.28H214V0h49.64Zm50.24,44.54H298.82V0h15.06ZM348.92,0h15.77l10.93,43.57h3.56L390,0h15.44L389.37,57.82H365.12Z"/></g></g></svg>