<svg xmlns="http://www.w3.org/2000/svg" viewBox="0 0 560.2 252.67"><defs><style>.cls-1,.cls-2{fill:#fff;}.cls-2{fill-rule:evenodd;}</style></defs><g id="SLOGAN"><g id="slogan-2" data-name="slogan"><g id="claim-portuguese"><path class="cls-1" d="M208,164.67v-1.85H222.1v1.85h-5.92V182H214v-17.3Z"/><path class="cls-1" d="M234.37,179.75a5.93,5.93,0,0,1-5.33,2.46c-4.44,0-6.93-2.92-6.93-7.2s2.59-7.29,6.37-7.29,6,2.63,6,7v.73H224.41c.05,2,.51,3.13,1.47,4a4.32,4.32,0,0,0,3.11.94,4.1,4.1,0,0,0,3.75-1.93Zm-2.17-6.14c-.29-2.86-1.36-4-3.69-4s-3.51,1.31-4,4Z"/><path class="cls-1" d="M249.61,179.26a5.84,5.84,0,0,1-5.49,3c-3.91,0-6.59-3-6.59-7.23s2.6-7.26,6.46-7.26a5.91,5.91,0,0,1,5.27,2.79l-1.84,1.15c-1-1.56-1.88-2.09-3.41-2.09-2.62,0-4.17,2-4.17,5.46s1.52,5.33,4.34,5.33a4,4,0,0,0,3.69-2.09Z"/><path class="cls-1" d="M255.59,168v2.14a4.45,4.45,0,0,1,4.25-2.38c3,0,4.64,2,4.64,5.57V182h-2.23v-8.84c0-2.41-.91-3.48-3-3.48a3.48,3.48,0,0,0-3.69,3.75V182h-2.23V168Z"/><path class="cls-1" d="M281.89,175c0,4.23-2.76,7.26-6.64,7.26s-6.59-3.05-6.59-7.23,2.76-7.26,6.67-7.26S281.89,170.77,281.89,175ZM271,175c0,3.29,1.66,5.35,4.29,5.35s4.34-2.09,4.34-5.38-1.69-5.41-4.26-5.41S271,171.6,271,175Z"/><path class="cls-1" d="M292.1,181.54a4.44,4.44,0,0,1-2.47.64c-2,0-3.4-.91-3.4-3.69V161.8h2.22v16.87c0,1.32.7,1.66,1.53,1.66a2.1,2.1,0,0,0,1.39-.45Z"/><path class="cls-1" d="M306.85,175c0,4.23-2.75,7.26-6.64,7.26s-6.59-3.05-6.59-7.23,2.76-7.26,6.67-7.26S306.85,170.77,306.85,175Zm-10.92.06c0,3.29,1.66,5.35,4.28,5.35s4.34-2.09,4.34-5.38-1.69-5.41-4.26-5.41S295.93,171.6,295.93,175Z"/><path class="cls-1" d="M317.41,178.92c3.16,0,4.93,1.36,4.93,3.77,0,2.76-2.55,4.5-6.62,4.5-3.77,0-6.18-1.5-6.18-3.86,0-1.25.77-2.25,2.38-3a2.35,2.35,0,0,1-1.37-2.24,2.66,2.66,0,0,1,1.53-2.39,4.18,4.18,0,0,1-1.71-3.43c0-2.7,2.08-4.55,5.14-4.55a6.24,6.24,0,0,1,2.78.59l4-.56v2h-2.09a4.06,4.06,0,0,1,.91,2.67c0,2.76-2,4.45-5.3,4.45a6.13,6.13,0,0,1-2.55-.48,1.64,1.64,0,0,0-.72,1.31c0,.91.51,1.21,2.06,1.21Zm-3.05,1.92a8.85,8.85,0,0,1-.89-.05c-1.23.62-1.77,1.34-1.77,2.33,0,1.53,1.37,2.3,4.07,2.3,2.9,0,4.4-.91,4.4-2.62,0-1.31-.94-2-2.79-2Zm-1.77-8.57c0,1.75,1.23,2.84,3.24,2.84s3.08-1,3.08-2.78-1.23-2.84-3.19-2.84S312.59,170.53,312.59,172.27Z"/><path class="cls-1" d="M328.71,163.6a1.47,1.47,0,1,1-1.47-1.48A1.49,1.49,0,0,1,328.71,163.6Zm-.32,4.36v14h-2.22V168Z"/><path class="cls-1" d="M345.16,182.05a7.51,7.51,0,0,1-.78,0,2.73,2.73,0,0,1-2.89-2,5.29,5.29,0,0,1-4.31,2.14c-2.6,0-4.42-1.61-4.42-3.86,0-2.06,1.36-3.53,3.86-4.2a18.76,18.76,0,0,1,4.73-.54v-.88c0-2.17-.85-3.16-2.75-3.16a5.66,5.66,0,0,0-4,1.74l-1.31-1.45a7.28,7.28,0,0,1,5.33-2.14c3.21,0,5,1.77,5,5V179c0,1,.37,1.31,1.58,1.34Zm-3.81-6.86c-4.49.16-6.37,1.05-6.37,3.06,0,1.39.91,2.17,2.57,2.17,2.22,0,3.8-1.29,3.8-3.08Z"/><path class="cls-1" d="M359.6,168v2.31a5.3,5.3,0,0,1,4.66-2.55c3.59,0,6,2.84,6,7.18s-2.36,7.31-6,7.31a5.19,5.19,0,0,1-4.63-2.49v7.12h-2.23V168Zm-.08,7c0,3.43,1.58,5.38,4.34,5.38s4.07-1.77,4.07-5.33-1.5-5.46-4.05-5.46C361.15,169.57,359.52,171.6,359.52,175Z"/><path class="cls-1" d="M385.79,182.05a7.41,7.41,0,0,1-.78,0,2.73,2.73,0,0,1-2.89-2,5.29,5.29,0,0,1-4.31,2.14c-2.6,0-4.42-1.61-4.42-3.86,0-2.06,1.37-3.53,3.86-4.2a18.85,18.85,0,0,1,4.74-.54v-.88c0-2.17-.86-3.16-2.76-3.16a5.68,5.68,0,0,0-4,1.74l-1.31-1.45a7.31,7.31,0,0,1,5.33-2.14c3.21,0,5,1.77,5,5V179c0,1,.38,1.31,1.58,1.34Zm-3.8-6.86c-4.5.16-6.37,1.05-6.37,3.06,0,1.39.91,2.17,2.57,2.17,2.22,0,3.8-1.29,3.8-3.08Z"/><path class="cls-1" d="M391.61,168v2.25a4.06,4.06,0,0,1,3.75-2.49,4.5,4.5,0,0,1,2.27.56l-.91,1.88a3,3,0,0,0-1.63-.43c-2.17,0-3.48,1.74-3.48,4.55V182h-2.23V168Z"/><path class="cls-1" d="M411.77,182.05a7.33,7.33,0,0,1-.77,0,2.73,2.73,0,0,1-2.89-2,5.3,5.3,0,0,1-4.31,2.14c-2.6,0-4.42-1.61-4.42-3.86,0-2.06,1.36-3.53,3.85-4.2a18.85,18.85,0,0,1,4.74-.54v-.88c0-2.17-.85-3.16-2.76-3.16a5.64,5.64,0,0,0-4,1.74l-1.31-1.45a7.27,7.27,0,0,1,5.32-2.14c3.22,0,5,1.77,5,5V179c0,1,.38,1.31,1.58,1.34Zm-3.8-6.86c-4.5.16-6.37,1.05-6.37,3.06,0,1.39.91,2.17,2.57,2.17,2.22,0,3.8-1.29,3.8-3.08Z"/><path class="cls-1" d="M435.21,182.05a7.33,7.33,0,0,1-.77,0,2.75,2.75,0,0,1-2.9-2,5.29,5.29,0,0,1-4.31,2.14c-2.59,0-4.42-1.61-4.42-3.86,0-2.06,1.37-3.53,3.86-4.2a18.85,18.85,0,0,1,4.74-.54v-.88c0-2.17-.86-3.16-2.76-3.16a5.64,5.64,0,0,0-4,1.74l-1.32-1.45a7.31,7.31,0,0,1,5.33-2.14c3.21,0,5,1.77,5,5V179c0,1,.38,1.31,1.58,1.34Zm-3.8-6.86c-4.5.16-6.37,1.05-6.37,3.06,0,1.39.91,2.17,2.57,2.17,2.22,0,3.8-1.29,3.8-3.08Z"/><path class="cls-1" d="M447.64,168l3.75,11.76L455.06,168h2.3l-4.71,14H450l-4.8-14Z"/><path class="cls-1" d="M463.18,163.6a1.48,1.48,0,1,1-1.47-1.48A1.49,1.49,0,0,1,463.18,163.6Zm-.32,4.36v14h-2.22V168Z"/><path class="cls-1" d="M477.86,179.72a5.24,5.24,0,0,1-4.64,2.49c-3.64,0-6-2.87-6-7.31s2.39-7.18,6-7.18a5.3,5.3,0,0,1,4.66,2.55V161.8h2.22V182h-2.22ZM469.53,175c0,3.54,1.34,5.33,4,5.33s4.4-2,4.4-5.38-1.64-5.41-4.31-5.41S469.53,171.55,469.53,175Z"/><path class="cls-1" d="M496.55,182.05a7.33,7.33,0,0,1-.77,0,2.75,2.75,0,0,1-2.9-2,5.29,5.29,0,0,1-4.31,2.14c-2.6,0-4.42-1.61-4.42-3.86,0-2.06,1.37-3.53,3.86-4.2a18.85,18.85,0,0,1,4.74-.54v-.88c0-2.17-.86-3.16-2.76-3.16a5.68,5.68,0,0,0-4,1.74l-1.31-1.45a7.31,7.31,0,0,1,5.33-2.14c3.21,0,5,1.77,5,5V179c0,1,.38,1.31,1.58,1.34Zm-3.8-6.86c-4.5.16-6.37,1.05-6.37,3.06,0,1.39.91,2.17,2.57,2.17,2.22,0,3.8-1.29,3.8-3.08Z"/></g></g></g><g id="BOSCH"><path class="cls-2" d="M248.8,110.3a13.77,13.77,0,0,0,8.8-13c0-11.7-8.3-17.5-19.7-17.5H208v63.6h32.5c10,0,19.8-7,19.8-17.7C260.3,113,248.8,110.4,248.8,110.3ZM223.6,93h11.6a5.67,5.67,0,0,1,6,6,5.93,5.93,0,0,1-6.3,5.8H223.6V93Zm11.7,37.1H223.6V117.6H235c5.7,0,8.4,2.5,8.4,6.2C243.4,128.4,240,130.1,235.3,130.1Z"/><path class="cls-2" d="M294.7,78.2c-18.4,0-29.2,14.7-29.2,33.3s10.8,33.3,29.2,33.3,29.2-14.6,29.2-33.3S313.2,78.2,294.7,78.2Zm0,51.4c-9,0-13.5-8.1-13.5-18.1s4.5-18,13.5-18,13.6,8.1,13.6,18C308.3,121.6,303.7,129.6,294.7,129.6Z"/><path class="cls-2" d="M357.8,104.8l-2.2-.5c-5.4-1.1-9.7-2.5-9.7-6.4,0-4.2,4.1-5.9,7.7-5.9a17.89,17.89,0,0,1,13,5.9l9.9-9.8c-4.5-5.1-11.8-10-23.2-10-13.4,0-23.6,7.5-23.6,20,0,11.4,8.2,17,18.2,19.1l2.2.5c8.3,1.7,11.4,3,11.4,7,0,3.8-3.4,6.3-8.6,6.3-6.2,0-11.8-2.7-16.1-8.2l-10.1,10c5.6,6.7,12.7,11.9,26.4,11.9,11.9,0,24.6-6.8,24.6-20.7C377.9,109.5,366.9,106.7,357.8,104.8Z"/><path class="cls-2" d="M413.3,129.6c-7,0-14.3-5.8-14.3-18.5,0-11.3,6.8-17.6,13.9-17.6,5.6,0,8.9,2.6,11.5,7.1l12.8-8.5c-6.4-9.7-14-13.8-24.5-13.8-19.2,0-29.6,14.9-29.6,32.9,0,18.9,11.5,33.7,29.4,33.7,12.6,0,18.6-4.4,25.1-13.8l-12.9-8.7C422.1,126.6,419.3,129.6,413.3,129.6Z"/><polygon class="cls-2" points="479.9 79.8 479.9 103.2 460.6 103.2 460.6 79.8 443.9 79.8 443.9 143.4 460.6 143.4 460.6 118.3 479.9 118.3 479.9 143.4 496.6 143.4 496.6 79.8 479.9 79.8"/></g><g id="ANKER_flach" data-name="ANKER flach"><g id="anker"><path class="cls-1" d="M111.8,63.6A48.2,48.2,0,1,0,160,111.8,48.23,48.23,0,0,0,111.8,63.6Zm0,91.9a43.7,43.7,0,1,1,43.7-43.7A43.74,43.74,0,0,1,111.8,155.5Z"/><path class="cls-1" d="M131.7,81.7h-3.3V98.2H95.3V81.7H91.9a36.06,36.06,0,0,0,0,60.2h3.4V125.4h33.1v16.5h3.3a36.06,36.06,0,0,0,0-60.2Zm-41,53.7a31.57,31.57,0,0,1,0-47.2Zm37.7-14.6H95.3V102.7h33.1Zm4.5,14.5v-10h0V98.2h0v-10a31.66,31.66,0,0,1,0,47.1Z"/></g></g></svg>