<svg xmlns="http://www.w3.org/2000/svg" viewBox="0 0 441.9 69.37"><defs><style>.cls-1{fill:#fff;}</style></defs><g id="Layer_2" data-name="Layer 2"><g id="Layer_1-2" data-name="Layer 1"><path class="cls-1" d="M50.62,23.83c-4.8-5.36-9.42-7.94-15.24-7.94C24.94,15.89,18,23.83,18,35c0,10.16,6.84,18.38,17.37,18.38,5.82,0,10.44-2.58,15.24-7.94V65.12a38.05,38.05,0,0,1-17.09,4.16C14,69.28,0,54.59,0,34.64S14,0,33.53,0A38.19,38.19,0,0,1,50.62,4.16Z"/><path class="cls-1" d="M263.46,59.21a35.52,35.52,0,0,1-25,10.16,35,35,0,0,1-24.94-10.16,34.34,34.34,0,0,1,0-49.14,36.28,36.28,0,0,1,50,0,34.36,34.36,0,0,1,0,49.14Zm4-24.48a29,29,0,1,0-57.92,0,29,29,0,1,0,57.92,0Z"/><path class="cls-1" d="M316.12,5.36c-17.28,0-28.83,12.19-28.83,29.28,0,17.65,12.11,29.19,28,29.19a34,34,0,0,0,21.34-7.66l-.09,7a40.29,40.29,0,0,1-21,6.18c-19.86,0-34.73-13.94-34.73-34.73C280.83,14.32,296,.09,315.56.09,324,.09,331.17,2.4,337.08,7l-.18,6.65C330.43,8.13,323.88,5.36,316.12,5.36Z"/><path class="cls-1" d="M353.4,1.57V44.71c0,12.93,5.82,19.31,18.11,19.31s18-6.38,18-19.31V1.57h6v41.2c0,17.83-7.85,26.6-24,26.6s-24-8.77-24-26.6V1.57Z"/><path class="cls-1" d="M409.38,53.76A13.44,13.44,0,0,0,422.87,64c8.31,0,13.3-5.08,13.3-13.95,0-8.13-4.8-11.18-12.56-15.24-10.44-5.45-16.54-9.7-16.54-18.94S414,0,424.16,0c6.65,0,11.55,2.86,14.6,8.41l-4.62,2.77c-1.85-3.79-5.55-5.82-10.35-5.82-6.56,0-10.62,4.15-10.62,10.62,0,8,6,9.89,14.59,14.6,9.7,5.26,14.14,9.51,14.14,19.49,0,11.82-7.39,19.3-19.31,19.3-8.68,0-14.87-4.34-18.38-12.83Z"/><polygon class="cls-1" points="80.18 41.66 101.79 41.66 101.79 27.53 80.18 27.53 80.18 16.07 99.63 16.07 103.08 1.57 62.63 1.57 62.63 67.62 103.09 67.62 103.09 52.84 80.18 52.84 80.18 41.66"/><polygon class="cls-1" points="155.37 52.2 155.37 52.19 133.01 52.19 133.01 1.57 115 1.57 115 67.62 151.7 67.62 155.37 52.2"/><polygon class="cls-1" points="171.34 7.2 196.69 7.2 198.03 1.57 165.34 1.57 165.34 67.62 171.34 67.62 171.34 33.53 194.59 33.53 194.59 27.9 171.34 27.9 171.34 7.2"/></g></g></svg>