<svg xmlns="http://www.w3.org/2000/svg" viewBox="0 0 693.42 88.8"><defs><style>.cls-1{fill:#fff;}</style></defs><g id="Layer_2" data-name="Layer 2"><g id="Layer_1-2" data-name="Layer 1"><path class="cls-1" d="M417.9,86.44H402.32V63.8c0-4.95.1-9.91,0-14.87-.24-8.71-5.32-12.78-13.89-11.28-5.17.91-8,4.58-8,10.8-.06,11,0,22.08,0,33.12v4.89H364.43V25.39H376c.58,1.75,1.25,3.63,2.17,6.4,1.83-.9,3.43-1.58,4.92-2.47,2.4-1.4,4.57-3.67,7.14-4.27,8.63-2,17.1-2.29,24,5,2,2.08,4.37,1.64,6.32-.31,8.17-8.24,17.8-6.84,27.17-3.39,5.16,1.91,7.47,7.47,7.61,12.51.48,15.79.18,31.61.18,47.62H440.1V68.24c0-6.72.06-13.43,0-20.15C440,41,436.74,37.63,430,37.53c-7.59-.1-11.94,3.51-12,10.48-.16,11.2,0,22.4,0,33.6C417.9,83.19,417.9,84.76,417.9,86.44Z"/><path class="cls-1" d="M60.91,36.45H45.81c-.42-2.33-.82-4.64-1.28-6.91C43.22,23.2,38.89,18.79,33.65,18.4c-7.59-.56-12.87,2.39-14.73,9.4A70.06,70.06,0,0,0,19,65.15c1.66,5.92,6.86,9.07,13.24,8.85,6.07-.22,10.64-3.75,12.15-9.65.66-2.61,1-5.3,1.48-8.25H61.31C62.63,74,52.54,88.39,33.71,88.63c-7.65.1-14.81-.72-21.37-5.42-7.57-5.4-9.66-13.38-11-21.53C-.81,48-.67,34.3,3.85,21c3.21-9.43,10-15.25,19.62-16.8a50.43,50.43,0,0,1,17.2.29C52,6.64,60.14,17,60.87,28.78,61,31.15,60.91,33.56,60.91,36.45Z"/><path class="cls-1" d="M76.52,0h15V31.17c1.63-.84,3.68-1.24,4.62-2.49,4.7-6.24,22.24-6.34,27.62-1,2.36,2.35,5.07,5.78,5.17,8.79.51,16.56.25,33.13.25,50h-15.1V81.77c0-11,.14-22.08,0-33.1-.14-8.17-3.63-11.34-11.54-11.12-6.2.18-9.67,3-9.89,9.31-.4,11.18-.26,22.38-.32,33.56,0,1.89,0,3.78,0,5.94H76.56C76.52,57.64,76.52,28.92,76.52,0Z"/><path class="cls-1" d="M307.61,61.17V86.36H292V0h15.49V46.52c4.54,1.07,7.67.81,10.22-3.33,3.25-5.28,7.34-10,11-15.07,1.5-2.09,3.13-3.27,6-3.11,4.47.28,9,.08,14.59.08C342,35,335.19,44.3,328.3,53.73l21.78,33c-6.24,0-11.6.14-16.94-.1-1.1,0-2.49-1.26-3.19-2.3-4.17-6.23-8.45-12.39-12.14-18.87C315.5,61.32,312.81,59.45,307.61,61.17Z"/><path class="cls-1" d="M667.67,88.45c-2.32-.36-3.87-1.87-5.27-3.31C653,75.3,646.66,67.08,646.66,67.08c-2.43-3-4.11-2.65-6.4,0-5.38,6.28-11,12.34-16.34,18.66-2.29,2.71-5.14,3.85-8,2.41-2.14-1.08-4.71-3.63-4.87-5.7a11.23,11.23,0,0,1,3.13-7.93c5.66-5.38,11.86-10.19,18-15.07,3.55-2.83,3.79-4,.3-7-5.88-5.15-11.88-10.21-17.84-15.29-3.69-3.15-4.72-6.72-2.81-10a7,7,0,0,1,11.38-1.33C628.76,31.73,634,38,639.38,44.11c3.89,4.46,4.21,4.28,8.28-.16q16.68-18.18,33.66-36.08c2.51-2.65,5.78-2.79,8.75-.85s4.3,5.38,2.59,8.33c-2,3.48-5.06,6.45-8,9.24-10.09,9.53-20.35,18.88-30.58,28.28-2.63,2.4-1.91,4.09.62,6.16,6.42,5.26,12.7,10.69,18.91,16.21,2.5,2.23,3.73,5,2.28,8.57a7.64,7.64,0,0,1-1.78,2.69A7.92,7.92,0,0,1,667.67,88.45Z"/><path class="cls-1" d="M484.79,44H471.93c-.7-8.77,3.87-16.19,12.26-18a71.7,71.7,0,0,1,20.37-1.66c11.86,1,17.62,7.3,18.09,19.56.5,14,.12,28.1.12,42.45H510.64c-.5-1.52-1.14-3.41-2.14-6.44-2.21,1.26-4.64,2-6.15,3.65-6.18,6.63-23,4.74-27.87.51-6.45-5.58-7.31-12.67-5.3-20.08,1.93-7.1,7.44-11,14.67-12,5.06-.66,10.22-.66,15.33-.88,2.53-.1,5.06,0,7.51,0,1.28-8.35-.58-13.15-5.38-14.47C492.82,34.34,488,36.49,484.79,44ZM507,60.61c-5.4,0-10.52-.24-15.59.08-4.56.28-7.17,3.66-7,8.15.2,4.32,2.71,6.75,7.41,7.15C502.6,76.87,507.73,71.85,507,60.61Z"/><path class="cls-1" d="M203.31,58.77H162.12c.06,9.67,3.47,15.45,9.84,17,7.5,1.78,13.5-.89,16.67-7.51h13.83c-.36,5.4-2.09,10-6.24,13.25-11.4,9-30.53,9.11-41.32-.47-3.46-3-6-8-7.17-12.54a46.46,46.46,0,0,1,.6-27.32c2.91-8.47,8.09-15,17.64-16.07a83.87,83.87,0,0,1,18.53-.32c12.64,1.4,17.26,10.35,18.7,21.85C203.71,50.38,203.31,54.25,203.31,58.77ZM163,47.89h25.51c-.32-9.13-3.63-12.55-14.05-12.22C166.9,35.91,163.43,39.66,163,47.89Z"/><path class="cls-1" d="M259.58,62.72h15.56c-.62,18.85-13,25.71-29.31,25.21a41.63,41.63,0,0,1-11.68-2.23c-9-3-13.36-10-15.23-18.72a49.2,49.2,0,0,1,.68-24.63C222.89,31.11,229.84,25,241.5,24.2a55.9,55.9,0,0,1,15.23.85c11.7,2.41,17.83,10.51,17.83,22.74H259.68s-.34-.14-.4-.36c-2-8.17-4.57-10.54-11.72-10.66-7-.12-11.2,2.87-12.62,10.48a51.93,51.93,0,0,0-.36,16.13c.94,7.41,6.36,11.6,13.08,11.4C254.87,74.58,258.06,71.43,259.58,62.72Z"/><path class="cls-1" d="M590.91,73.18v13.3H538.62V73.36h16.56V37.77H540.73V25.31h26c.54,1.74,1.08,3.53,1.91,6.18,1.7-.6,3.87-.7,4.83-1.85,4.2-4.89,9.64-5.82,15.6-5.72,3,.06,6.08,0,9.45,0V37.53c-4.61,0-9.49,0-14.39,0-9,0-12.66,3.49-12.82,12.26-.14,7.19,0,14.4,0,21.58a9.63,9.63,0,0,0,.42,1.77C578,73.18,584.36,73.18,590.91,73.18Z"/></g></g></svg>