<svg xmlns="http://www.w3.org/2000/svg" xmlns:xlink="http://www.w3.org/1999/xlink" viewBox="0 0 584.13 118.54"><defs><style>.cls-1{fill:none;}.cls-2{fill:#fff;}.cls-3{clip-path:url(#clip-path);}</style><clipPath id="clip-path" transform="translate(10.06 6.22)"><path class="cls-1" d="M90.64,13.1C80.29,22,74.13,35,74.13,50.17h0c0,13.36-8.92,23.41-20.06,23.41s-20.9-9.91-20.9-23.26,9.61-23,20.9-23,12.08,3.15,15.72,8.43L69.45,18,79.75,6.15A60.27,60.27,0,0,0,53.63.48C22.57.48,0,21.24,0,50.17s22.57,50.27,53.63,50.27,27.6-4.83,37-13c10.4-9,16.61-22.08,16.61-37.31s9.62-23,20.9-23,20.06,9.61,20.06,23-8.92,23.26-20.06,23.26-9-1.72-12.57-4.68a24.23,24.23,0,0,1-2-1.92L102.77,78.07l-.44,16.76c.64.29,1.33.59,2,.88a60.38,60.38,0,0,0,23.41,4.54c31.05,0,53.63-21.3,53.63-50.28S158.81.34,127.76.34,100.11,5.07,90.64,13.1"/></clipPath></defs><g id="Layer_2" data-name="Layer 2"><g id="Layer_1-2" data-name="Layer 1"><path class="cls-2" d="M287.11,50.17c0,29.67-21.29,48.89-54.31,48.89H190.46V1.42h43.62c32.18,0,53.08,19.08,53.08,48.75h-.05Zm-33,.29c0-14.49-8.23-23.95-20.75-23.95h-10.6V74h12.13c11.68,0,19.22-9.16,19.22-23.56Z" transform="translate(10.06 6.22)"/><path class="cls-2" d="M335.71,24.69c-3.6,0-6,1.13-6,4,0,12.27,50.57,4.58,50.57,40s-19.08,31.35-41.11,31.35-35.93-5.72-48.89-15.58l12-24.25c10,8.38,27.31,15.19,37.22,15.19s7.79-1.53,7.79-5c0-12.67-50.58-4.34-50.58-38.6S313.19,0,338.52,0,370,4.63,381,11.62l-11.68,24.5c-9.91-5.42-25.09-11.43-33.57-11.43h-.05Z" transform="translate(10.06 6.22)"/><path class="cls-2" d="M471.26,1.42v24.5H421v12h45.69V62.39H421V74.52h51.56V99H388.7V1.42h82.56Z" transform="translate(10.06 6.22)"/><path class="cls-2" d="M533.26,27.35c-11.68,0-20.2,9.31-20.2,22.28s8.47,22.57,20.2,22.57S549,67.86,555.4,61.06L574.08,81c-10.85,11.83-27.46,19.52-42.49,19.52-30,0-51.66-21.29-51.66-50.42S502.16.48,532.82.48s31.2,7,41.26,17.85L555.4,40.46c-5.87-7.94-14.64-13.11-22.14-13.11Z" transform="translate(10.06 6.22)"/><g class="cls-3"><rect class="cls-2" width="193.56" height="118.54"/></g></g></g></svg>