<svg xmlns="http://www.w3.org/2000/svg" viewBox="0 0 636.92 115.8"><defs><style>.cls-1{fill:#fff;}</style></defs><g id="Layer_2" data-name="Layer 2"><g id="Layer_1-2" data-name="Layer 1"><path class="cls-1" d="M636.92,89.52H550.74V86.7h86.18ZM593.79,73.11l8.11-7.76,3.35,3.35-8.73,7.41a19.17,19.17,0,0,0-1.68,3.18H588.4c.36-2.38,3.71-5.38,5.39-6.18ZM566.71,23.55c-.27.09-6.71,1.85-6.71,1.85a30.39,30.39,0,0,0-4.32,2c-1.32.88-2.82,2.38-2.91,3.18l5.74,1.31a28.11,28.11,0,0,1,2.73-2.73l1.32-.62,4.76-4.84a.56.56,0,0,0-.61-.18Zm39,15.79A100.88,100.88,0,0,1,595.9,27c1.94-3.71,3.36-13.49,2.47-17.28-.35-1.15-3.53-5.39-4.06-6C593.52,2.91,591,0,589.73,0a1.09,1.09,0,0,0-.62.17l.35,3.27c-3.44,2.21-7.93,5.2-12,8.2,0,1.15.09,2.91.17,3.53a6.34,6.34,0,0,0,2.12,1.23c1.59-.26,6.53-1.5,7.85-1.32l-4.85,7.32-5.56,4-7-2.21a1.11,1.11,0,0,0-1.15.36L564,30.07a1.44,1.44,0,0,0-.44,1.16l-.17,6.26s-.09,1-.09,2c0,4.5,2,6.62,2,6.62l3.35-4.86a15,15,0,0,1-1.41-3.52c0-.18.08-5.38.08-5.38L570.59,30l8.64,6.08a47.9,47.9,0,0,0,4.68,7.06c1.5,1.85,9,6.87,12.61,9a52.2,52.2,0,0,0,1.76,6.79l10.59,10.85-6.26,7.85c-2.21,1.4-4.33,4-4.15,6.34h7.23l.8-4.14,8.64-9.62c.44-.53.44-.79.18-1.58l-2.47-8.29c1.23-1.41,3.88-4.94,3.88-9.17,0-7.68-8.38-9.62-11-11.82Zm13.59,12.79a29.85,29.85,0,0,0-1.94-5.47s.35-.36,1.06.09,5.2,3.52,5.2,3.52c2.29,3.36,3.7,17.11,3.79,22.06a28.5,28.5,0,0,1-7.06-4.51Z"/><path class="cls-1" d="M395.41,49.12c0-5.29-1.67-9.43-6.26-9.43s-6.43,4.14-6.43,9.43V84h5.37v5.56H358.63V84h5.47V36h-5.47V30.61h23.2v9h.27a16.73,16.73,0,0,1,15.52-10.15c8.65,0,13.94,5.3,15.61,12.26a52.58,52.58,0,0,1,.8,9.53V84h7.05v5.56H395.41Zm-119,0c0-5.29-1.67-9.43-6.26-9.43s-6.44,4.14-6.44,9.43V84h5.38v5.56H239.65V84h5.47V36h-5.47V30.61h23.2v9h.26a16.75,16.75,0,0,1,15.53-10.15c8.64,0,13.93,5.3,15.61,12.26a52.52,52.52,0,0,1,.79,9.53V84h7.06v5.56H276.43ZM446,36V79.55c0,3,1.94,3.71,3.8,3.71a11.32,11.32,0,0,0,3.44-.62V88s-3.53,2.2-11.38,2.2c-9.17,0-14.56-4.49-14.56-14V36h-6.26V32c7-5.55,15.09-11.9,21.52-17.28H446V30.61h9V36ZM78.41,0s14.2,14.2,20.73,21.52v5.55c-6.08-6.43-18.7-11.82-30.43-11.82-26.55,0-43.22,20-43.22,44.81s15.79,44.72,43.22,44.72A42.25,42.25,0,0,0,99.4,91.72V97C91.11,108.4,75.94,115.8,57.07,115.8,23.29,115.8,0,91.29,0,60.06S25.84,4.41,57.07,4.41A63.87,63.87,0,0,1,78.41,7.94ZM350.08,73.82c-2.65,3.09-6.79,5.46-13,5.46-5.39,0-13.68-3-14-16.66h31.49c.09-1.06.17-3.18.17-4.24,0-16.57-6.79-28.93-24.52-28.93s-26.9,13.68-26.9,30.7,9.09,30.43,26.9,30.43c11.47,0,18.71-5.38,22.94-13.85Zm-27-16.94c0-15.52,1.23-21.34,6.53-21.34s6.44,5.65,6.61,21.34Zm-260,3c0-18,1.68-25.94,7.77-25.94s7.76,7.94,7.76,25.94-1.68,25.92-7.76,25.92-7.77-7.93-7.77-25.92m-21.87.17c0,17.82,10.94,32.28,29.64,32.28s29.63-14.46,29.63-32.28S89.52,27.78,70.83,27.78,41.19,42.24,41.19,60.06m101-10.94c0-5.29-1.67-9.43-6.26-9.43s-6.44,4.14-6.44,9.43V84h5.38v5.56H105.4V84h5.47V36H105.4V30.61h23.2v9h.26a16.76,16.76,0,0,1,15.53-10.15c8.64,0,13.94,5.3,15.61,12.26a52.52,52.52,0,0,1,.79,9.53V84h7.06v5.56H142.18ZM208.91,15c0,5.2,4.68,8.64,11.38,8.64s11.38-3.44,11.38-8.64S227,6.35,220.29,6.35,208.91,9.79,208.91,15M192.82,36V79.55c0,3,1.93,3.71,3.79,3.71a11.32,11.32,0,0,0,3.44-.62V88s-3.53,2.2-11.38,2.2c-9.18,0-14.56-4.49-14.56-14V36h-6.26V32c7-5.55,15.09-11.9,21.52-17.28h3.45V30.61h7.23V36ZM536.89,84h7.24v5.56H518.28V14.2h-6.43V8.82h25ZM487.15,60.32c-.53-.52-1.68-1.23-4.06-1.23-5.56,0-6.79,5.47-6.79,11.11s1.68,10.06,6.44,10.06a5.8,5.8,0,0,0,4.41-1.76Zm.79,22.14h-.26c-3.44,4.85-8,8.12-15.09,8.12-9.61,0-15.61-8.21-15.61-18,0-11.81,8.38-19.31,21.79-19.31a23.26,23.26,0,0,1,8.38,1.24V50.8c0-7.14-4.41-10.94-10.85-10.94a17,17,0,0,0-13.5,6.89l-3.26-4c5.91-9.18,15-13.33,23.46-13.33,14.29,0,22.76,8.47,22.76,21.35V84h6v5.56H487.94ZM205.47,89.52V84h5.38V36h-5.38V30.61h24V84h5.47v5.56Z"/></g></g></svg>