<svg xmlns="http://www.w3.org/2000/svg" xmlns:xlink="http://www.w3.org/1999/xlink" viewBox="0 0 694.58 201.74"><defs><style>.cls-1{fill:none;}.cls-2{fill:#fff;}.cls-3{clip-path:url(#clip-path);}</style><clipPath id="clip-path" transform="translate(8.25 8.15)"><path class="cls-1" d="M111.15,183.39A92.66,92.66,0,0,1,37,92.62,55.58,55.58,0,1,1,111.15,145a55.6,55.6,0,0,0,74.1-52.4h0a92.58,92.58,0,1,0-73,90.51l-1.13.24Z"/></clipPath></defs><g id="Layer_2" data-name="Layer 2"><g id="Layer_1-2" data-name="Layer 1"><g id="b"><g id="c"><path class="cls-2" d="M365.63,49.3h0C358.76,48.82,353.68,53,353.68,60V80.87H342.57V39.19h11.68a13.24,13.24,0,0,1-.93,6l.12-.24a11.62,11.62,0,0,1,2.3-3.13h0a2.62,2.62,0,0,1,.3-.28,10.43,10.43,0,0,1,2.48-1.71l.08,0,.23-.1.2-.1h0c2.67-1.16,6-1.37,10.05-.29L367.8,49.6l-.59-.11a1.7,1.7,0,0,1-.22,0l-.54-.08a.51.51,0,0,1-.17,0l-.64-.05Z" transform="translate(8.25 8.15)"/><rect class="cls-2" x="442.09" y="47.32" width="11.11" height="41.68"/><rect class="cls-2" x="442.09" y="31.93" width="11.11" height="8.33"/><rect class="cls-2" x="385.65" y="31.93" width="11.11" height="8.33"/><rect class="cls-2" x="563.43" y="31.93" width="11.11" height="57.07"/><path class="cls-2" d="M423.57,48.82V39.19H409.9V23.8H398.79V63.12c0,5.9.94,9.58,3.07,12.4,2.82,3.76,7.7,6,14.37,6a29,29,0,0,0,7.13-.91l-2.2-9.29a23.68,23.68,0,0,1-4.25.36c-2.73,0-4.53-.76-5.63-2-.95-1.1-1.37-2.65-1.37-5.21V48.82h13.66Z" transform="translate(8.25 8.15)"/><path class="cls-2" d="M532.51,39.17v2.42a21.48,21.48,0,1,0,0,36.84v2.41h11.11V39.16H532.51Zm-11,32.07A11.22,11.22,0,1,1,532.68,60,11.21,11.21,0,0,1,521.46,71.24Z" transform="translate(8.25 8.15)"/><path class="cls-2" d="M485.27,66.62a11.23,11.23,0,1,1,0-13.19l8.31-6a21.49,21.49,0,1,0,0,25.25Z" transform="translate(8.25 8.15)"/><rect class="cls-2" x="385.65" y="47.32" width="11.11" height="41.68"/><path class="cls-2" d="M324,62.94a18.06,18.06,0,1,1,0-21.23l9-6.54a29.19,29.19,0,1,0,0,34.31Z" transform="translate(8.25 8.15)"/><path class="cls-2" d="M360.22,140.22c0-11.49-8.08-21.1-19.49-21.1-12.24,0-20.08,10-20.08,21.52,0,12.93,9.28,21.44,21.61,21.44,6.38,0,12.93-2.64,16.92-7.4l-6.3-6.3a14.57,14.57,0,0,1-10.38,4.76,10.84,10.84,0,0,1-11.14-9.78H360a17,17,0,0,0,.26-3.14Zm-28.33-4.93c.51-3.75,4.25-7.23,8.84-7.23a8.18,8.18,0,0,1,8.18,7.23Z" transform="translate(8.25 8.15)"/><path class="cls-2" d="M397.18,147.19a11.22,11.22,0,1,1,0-13.19l8.31-6a21.48,21.48,0,1,0,0,25.24Z" transform="translate(8.25 8.15)"/><path class="cls-2" d="M448,125.63a18.18,18.18,0,0,0-14-6.5,17.86,17.86,0,0,0-11,3.72V104.39H411.91v57.07H423V134a13,13,0,0,1,9.48-4.54,8.48,8.48,0,0,1,6.08,2.25c1.5,1.49,2.42,3.59,2.42,7.59v22.17h11.15V139.82c0-6.92-1.5-11-4.17-14.18Z" transform="translate(8.25 8.15)"/><polygon class="cls-2" points="288.43 112.52 288.43 123.63 303.84 123.63 303.84 169.59 315.1 169.59 315.1 123.63 335.46 123.63 330.51 112.52 288.43 112.52"/><polygon class="cls-2" points="519.71 127.91 509.58 151.7 506.17 144.02 500.48 131.25 498.99 127.91 487.85 127.91 495.05 144.02 489.63 156.81 469.91 112.52 458.8 112.52 484.26 169.59 495.37 169.59 500.74 156.81 506.38 169.59 513.16 169.59 530.85 127.91 519.71 127.91"/><path class="cls-2" d="M598.86,129.93a.86.86,0,0,1,.17,0c.18,0,.37,0,.54.08a1.7,1.7,0,0,1,.22,0l.59.11,1.28-10.35c-4-1.07-7.37-.86-10,.31h0l-.21.1-.23.11-.08,0a10.64,10.64,0,0,0-2.48,1.71l-.29.27h0a11.86,11.86,0,0,0-2.31,3.14l-.12.24a12.93,12.93,0,0,0,.93-6H575.15v41.68h11.11V140.61c0-7,5.1-11.18,11.92-10.71h0l.63.07Z" transform="translate(8.25 8.15)"/><path class="cls-2" d="M545.67,119.12a21.48,21.48,0,1,0,21.48,21.48A21.47,21.47,0,0,0,545.67,119.12Zm0,32.7a11.22,11.22,0,1,1,11.22-11.22A11.22,11.22,0,0,1,545.67,151.82Z" transform="translate(8.25 8.15)"/><path class="cls-2" d="M658.68,148.64A17.43,17.43,0,0,0,670,152.72c3,0,5.28-1.44,5.28-3.49,0-6.22-20-4-20-17.28,0-7.91,7.66-12.85,15.81-12.85,5.36,0,11.24,2,14,4.17l-5.19,8a13.88,13.88,0,0,0-7.92-2.81c-3,0-5.61,1.19-5.61,3.32,0,5.35,20,3.24,20,17.53,0,7.92-7.74,12.76-16.42,12.76a28.52,28.52,0,0,1-16.59-5.53l5.35-7.92Z" transform="translate(8.25 8.15)"/><polygon class="cls-2" points="638.69 147.31 658.1 127.91 643.6 127.91 632.06 139.45 627.77 143.73 627.77 112.52 616.66 112.52 616.66 169.59 627.77 169.59 627.77 151.22 644.57 169.59 659.08 169.59 638.69 147.31"/><path class="cls-2" d="M129.68,0a92,92,0,0,0-18.53,1.86,92.66,92.66,0,0,1,74.1,90.77,55.57,55.57,0,0,1-55.57,55.57h-1.81l-.82,0c-.21,0-.42,0-.62,0s-.44,0-.65,0l-.73-.05c-.16,0-.32,0-.49,0l-.86-.08a.44.44,0,0,1-.16,0A55.58,55.58,0,0,1,111.15,40.25,55.6,55.6,0,0,0,37,92.66c0,.75,0,1.51,0,2.25,0,.24,0,.49,0,.74,0,.5,0,1,0,1.51,0,.29,0,.58.06.87l.08,1.37.06.9.13,1.34c0,.3.05.59.09.89s.09.9.15,1.35c0,.28.07.56.11.85l.2,1.45c0,.25.07.49.11.73.1.68.21,1.35.33,2a.58.58,0,0,0,0,.14c.12.71.27,1.43.41,2.13.05.23.09.46.14.7l.31,1.43c.07.27.14.55.19.82.11.44.2.87.31,1.28s.15.58.23.87.22.83.34,1.24.16.56.24.86.24.84.38,1.26.16.55.26.82c.13.44.28.87.43,1.32l.24.73c.2.58.4,1.14.61,1.72,0,.1.06.21.1.3.25.66.5,1.32.76,2l.27.68.53,1.29c.1.27.22.53.33.8s.34.78.52,1.16.24.55.37.82L46,132.4c.13.27.25.55.39.82s.36.74.55,1.11l.41.79.6,1.15c.14.24.26.48.39.73l.79,1.4.24.45c.34.59.69,1.18,1.05,1.78l.42.67c.23.38.46.74.7,1.12s.32.51.49.75.43.68.66,1l.52.78c.22.33.45.64.66,1s.37.53.56.78l.68.93c.19.26.38.52.57.76s.49.63.73,1l.55.71.87,1.08c.14.19.29.36.44.55.43.53.86,1,1.31,1.55l.58.66.81.91c.21.24.43.47.66.71s.51.56.77.83l.68.71.77.78.72.72c.25.25.51.51.78.75l.73.7.81.76.73.67.89.8.82.73c.46.39.9.78,1.37,1.16l.77.62c.29.23.57.46.87.68s.55.44.82.64.55.43.83.63l.85.64.84.6c.28.21.58.42.88.62s.56.39.83.58l.89.61.87.57.9.58.89.55,1.46.89c.37.23.75.46,1.13.67l.94.53.89.5,1,.52c.3.17.6.31.89.48l1,.5.89.44,1,.49.89.41,1,.48.91.39,1,.44c.31.14.63.26,1,.39.73.3,1.47.58,2.21.87l.65.24,1.08.39.92.32,1.09.37.94.31c.37.12.73.23,1.1.33l.94.29L105,182l1,.25,1.12.3,1,.24,1.12.27,1,.22,1.11.24,1.17-.24-1.13.24A92.69,92.69,0,1,0,129.68,0Z" transform="translate(8.25 8.15)"/><g class="cls-3"><path class="cls-2" d="M80.71,19.63,55.88,0,57.5-2,83.92,18.84,72.75,43.5l-2.38-1.08,10.31-22.8Zm12,18.1,1.73,2,20.23-18L99.05-8.15,96.73-6.93l14.69,28L92.71,37.73ZM21.81,71.34l16,19.27,2-1.67L22.51,68.09-7.85,82.68-6.72,85ZM77.58,39.82l2.21,1.4L94.28,18.35,71-6l-1.89,1.8L91,18.68,77.59,39.82Zm7.5-1.58,2,1.7,17.54-20.63L85-8,82.83-6.53l18.44,25.71L85.07,38.26ZM63.62,46l2.51.74,7.62-26-29.06-17L43.37,6,70.68,22Zm-33.2,6.62,10,22.93,2.4-1L32,49.71l-33.2,5.65.45,2.57,31.19-5.31Zm-5,9L38.6,83l2.22-1.38-14.2-23L-5.49,68.79l.8,2.49Zm26.45-5.86h2.61l.16-27.06L22.05,20.42,21.4,23l30.65,7.84Zm-4.72,6,2.58-.35-3.6-26.83L12.7,30.94l-.28,2.6L43.87,37,47.2,61.84ZM36.6,44.37l6.76,24.1,2.52-.71L38.57,41.7l-33.66,1L5,45.28l31.62-.91Zm91.47,8.86,27.07-.79,7.2-32.9L159.79,19,153,49.9l-25,.71.08,2.62Zm5.42,2.71-.28,2.6,26.9,3L171.82,30l-2.46-.9-11,29.67L133.48,56Zm4.71,6-.65,2.53,26.23,6.72,16-29.64-2.3-1.24-15,27.85L138.2,62ZM142,68.61,141,71l25,10.3L186,54.2l-2.11-1.55L165.17,78.13,142,68.61ZM100.37,38.26l1.44,2.17,22.54-15L113-6.27l-2.47.88,10.64,29.78L100.34,38.26Zm64.41,70.62L147.5,90.77l-1.89,1.81,18.7,19.59L193.57,95.5l-1.3-2.26-27.49,15.65ZM144.87,75.72,143.55,78l23.36,13.69,23.54-24.08-1.87-1.83L166.46,88.38l-21.6-12.65Zm-37-35.86L109,42.22,133.4,30.5l-6.81-33L124-2l6.4,31L107.86,39.86Zm38.86,43.3-1.62,2L166.33,102,193,81.44l-1.59-2.07-25,19.33L146.72,83.16ZM115.06,42.51l.79,2.49,25.8-8.21L139.51,3.18l-2.61.16,2,31.57-23.86,7.6Zm7.18,6.19,26.69-4.54,2.55-33.57-2.6-.21-2.4,31.55L121.8,46.12l.43,2.58ZM57.43,50.52l2.59.37L64,24.11,32.78,11.3l-1,2.41,29.27,12L57.41,50.5Zm67.42,86.56-2.55-.55L116.51,163l30.18,14.94,1.16-2.34-28.34-14,5.35-24.45Zm-6.5,4-2.46-.9-9.41,25.38,27.81,19,1.47-2.16-26.12-17.85,8.71-23.47Zm12.38-9-2.61-.2-2.05,27,32,10.59.82-2.48-30-10,1.9-25ZM104,146.33l-2.11-1.55-16,21.8,21.5,25.94,2-1.68L89.15,166.49Zm7.36-2.1L109,143,96.19,166.81l24.89,22.69,1.77-1.93L99.47,166.26Zm40.59-7.39-8.42-23.58-2.46.88,9.1,25.5,33.51-3.32-.26-2.6-31.48,3.12Zm5.58-8.69L145.91,106l-2.32,1.22,12.57,24,32.73-7.95-.62-2.54Zm4.32-9.37L147.25,98.44,145.12,100l15.77,22,31.3-12.43-1-2.43-29.4,11.68Zm-26,7.7-2.6.16,1.73,27,33.13,6,.47-2.58-31.12-5.68-1.59-25Zm4.29-6.34-2.56.53,5.46,26.51,33.65,1.37.11-2.61-31.61-1.3-5.06-24.51ZM96.41,147.38l-1.88-1.82L75.61,164.93,93.29,193.6l2.23-1.38-16.6-26.93,17.5-17.9Zm-7.66,0-1.59-2.06L65.71,161.85l13.52,30.86,2.4-1.06-12.69-29,19.82-15.29ZM45.08,120l.82-2.48L20.2,109l-18,28.45,2.22,1.41,16.92-26.73Zm-7-21.72,1.77-1.93-20-18.23L-8.25,96.76l1.44,2.17L19.53,81.4,38,98.25Zm11.29,28.07.47-2.57L23.19,118.9,9.32,149.59l2.39,1.08,13-28.82,24.62,4.51ZM41.74,113.1l1.16-2.34-24.26-12L-3.2,124.4l2,1.7L19.28,102,41.71,113.1Zm-2.36-7.28,1.47-2.16L18.5,88.38-6.69,110.76l1.74,1.95,23.64-21,20.66,14.12Zm15.09,26.23.11-2.62-27.06-1.1L18,160.65l2.51.74L29.45,131l25,1Zm19.34,12.12-1-2.43-25.16,10,4.49,33.37,2.59-.35-4.22-31.35,23.26-9.24Zm7.36,2.12L79.87,144,56.34,157.41l9.09,32.44,2.52-.7-8.53-30.47L81.17,146.3Zm-15-7.8-26.31,6.4-.2,33.67H42.3l.19-31.62L66.82,141Zm-6.12-4.12L33.13,137l-4.88,33.32,2.59.38,4.59-31.3L60.33,137Z" transform="translate(8.25 8.15)"/></g></g></g></g></g></svg>