<svg xmlns="http://www.w3.org/2000/svg" viewBox="0 0 546.26 222.14"><defs><style>.cls-1{fill:#010101;}.cls-2{fill:#86bd40;}.cls-3{fill:#fff;}</style></defs><g id="Layer_2" data-name="Layer 2"><g id="Layer_1-2" data-name="Layer 1"><rect class="cls-1" width="546.26" height="222.14"/><path class="cls-2" d="M451.82,138.29a10.59,10.59,0,1,1,10.59,10.59,10.6,10.6,0,0,1-10.59-10.59"/><path class="cls-3" d="M134,109.53q0,18.33-9.86,28.26T96.4,147.71H73.25V74.45H98q17.24,0,26.6,9T134,109.53m-20.06.7q0-10.07-3.89-14.94c-2.6-3.23-6.53-4.86-11.82-4.86H92.58v41h4.31q8.81,0,12.92-5.23t4.11-16"/><rect class="cls-3" x="198.09" y="74.14" width="18.42" height="73.57"/><path class="cls-3" d="M276.94,120.27q0,13.39-7,20.91t-19.71,7.5q-12.15,0-19.33-7.67t-7.19-20.74q0-13.36,7.05-20.77t19.76-7.4a27.57,27.57,0,0,1,13.89,3.43,23.08,23.08,0,0,1,9.3,9.81,32.36,32.36,0,0,1,3.27,14.93m-34.57,0q0,7,1.84,10.73a6.37,6.37,0,0,0,6.17,3.69,6.17,6.17,0,0,0,6.05-3.69q1.77-3.69,1.77-10.73t-1.79-10.56a7,7,0,0,0-12.2,0c-1.22,2.37-1.84,5.89-1.84,10.59"/><rect class="cls-3" x="284.25" y="93.06" width="18.42" height="54.65"/><rect class="cls-3" x="284.25" y="74.14" width="18.42" height="12.31"/><path class="cls-3" d="M340,133.77a26.9,26.9,0,0,0,8.9-1.88v13.75A35.29,35.29,0,0,1,341.8,148a38.79,38.79,0,0,1-7.89.71q-9.27,0-13.38-4.66t-4.09-14.3V107.2H310V93.07h6.45V79.12L335,75.89V93.07h11.75V107.2H335v21.27q0,5.29,5,5.3"/><path class="cls-3" d="M382.62,133.77a27,27,0,0,0,8.9-1.88v13.75a35.29,35.29,0,0,1-7.09,2.33,38.86,38.86,0,0,1-7.89.71q-9.27,0-13.37-4.66t-4.1-14.3V107.2h-6.46V93.07h6.46V78.9l18.56-3V93.07h11.75V107.2H377.63v21.27q0,5.29,5,5.3"/><path class="cls-3" d="M440.73,98.54q-6.56-6.44-18.62-6.44-12.67,0-19.5,7.4t-6.83,21.25q0,13.41,7.37,20.67t20.7,7.26a60.31,60.31,0,0,0,11-.88,32.07,32.07,0,0,0,8.9-3.1l-2.83-12.32a39.53,39.53,0,0,1-5.95,2,40.12,40.12,0,0,1-8.93.94q-5.32,0-8.4-2.61a9.44,9.44,0,0,1-3.28-7.18H447.3v-8.39q0-12.11-6.57-18.55m-26,15.07q.38-4.48,2.57-6.58a7.55,7.55,0,0,1,5.44-2.1,7.12,7.12,0,0,1,5.62,2.37,9.47,9.47,0,0,1,2.19,6.31Z"/><path class="cls-3" d="M184.4,98.54q-6.57-6.44-18.63-6.44-12.68,0-19.5,7.4t-6.83,21.25q0,13.41,7.38,20.67t20.7,7.26a60.39,60.39,0,0,0,11-.88,32,32,0,0,0,8.89-3.1l-2.83-12.32a39.16,39.16,0,0,1-5.95,2,40,40,0,0,1-8.92.94q-5.32,0-8.41-2.61a9.39,9.39,0,0,1-3.27-7.18H191v-8.39q0-12.11-6.57-18.55m-26,15.07q.38-4.48,2.57-6.58a7.55,7.55,0,0,1,5.44-2.1,7.15,7.15,0,0,1,5.63,2.37,9.47,9.47,0,0,1,2.19,6.31Z"/></g></g></svg>