<svg xmlns="http://www.w3.org/2000/svg" viewBox="0 0 451.38 123.61"><defs><style>.cls-1{isolation:isolate;}.cls-2,.cls-3{fill:#fff;}.cls-3{mix-blend-mode:multiply;}</style></defs><g class="cls-1"><g id="Layer_2" data-name="Layer 2"><g id="Layer_1-2" data-name="Layer 1"><path class="cls-2" d="M260.5,46.46a9.36,9.36,0,0,1-9.39,9.34h-6a1.26,1.26,0,0,1-1.26-1.26V38.39a1.27,1.27,0,0,1,1.26-1.27h6A9.37,9.37,0,0,1,260.5,46.46Zm-2.53,0a6.89,6.89,0,0,0-6.86-6.91h-4.7V53.37h4.7A6.88,6.88,0,0,0,258,46.46Z"/><path class="cls-2" d="M263.49,39A1.49,1.49,0,1,1,265,40.5,1.5,1.5,0,0,1,263.49,39Zm.25,15.58v-11a1.24,1.24,0,1,1,2.47,0v11a1.24,1.24,0,0,1-2.47,0Z"/><path class="cls-2" d="M283.44,43.43V54.88c0,4.38-2.77,6.95-7,7a12.82,12.82,0,0,1-5.51-1.33,1.23,1.23,0,0,1,1-2.26,10.49,10.49,0,0,0,4.52,1.13c2.79,0,4.58-1.46,4.58-4.52V53.62a6.37,6.37,0,0,1-5,2.46,7,7,0,0,1,0-14,6.33,6.33,0,0,1,5,2.47V43.43a1.24,1.24,0,0,1,2.48,0ZM281,49.06a4.55,4.55,0,1,0-4.55,4.68A4.62,4.62,0,0,0,281,49.06Z"/><path class="cls-2" d="M286.71,39a1.48,1.48,0,1,1,1.48,1.51A1.49,1.49,0,0,1,286.71,39ZM287,54.57v-11a1.24,1.24,0,1,1,2.47,0v11a1.24,1.24,0,0,1-2.47,0Z"/><path class="cls-2" d="M302.73,54.64a1.16,1.16,0,0,1-.85,1.12,6.15,6.15,0,0,1-4.95-.38A4.13,4.13,0,0,1,295,51.66V44.79h-1.76a1.17,1.17,0,0,1,0-2.34H295V39.68a1.24,1.24,0,1,1,2.47,0v2.77h3.19a1.17,1.17,0,1,1,0,2.34h-3.19V51.4a2.12,2.12,0,0,0,.86,2,3.87,3.87,0,0,0,2.9.13A1.18,1.18,0,0,1,302.73,54.64Z"/><path class="cls-2" d="M318.93,43.54v11a1.24,1.24,0,0,1-2.48,0v-1a6.35,6.35,0,0,1-5,2.46,7,7,0,0,1,0-14,6.33,6.33,0,0,1,5,2.47v-1a1.24,1.24,0,0,1,2.48,0Zm-2.42,5.52A4.55,4.55,0,1,0,312,53.74,4.62,4.62,0,0,0,316.51,49.06Z"/><path class="cls-2" d="M322.25,54.57V37.81a1.24,1.24,0,1,1,2.47,0V54.57a1.24,1.24,0,0,1-2.47,0Z"/><path class="cls-2" d="M259.4,71.3a1.22,1.22,0,0,1-1.21,1.22h-5.7v15a1.27,1.27,0,1,1-2.53,0v-15h-5.69a1.22,1.22,0,0,1,0-2.44h13.92A1.22,1.22,0,0,1,259.4,71.3Z"/><path class="cls-2" d="M269.61,76.26a1.26,1.26,0,0,1-1.09,1.25,4.64,4.64,0,0,0-4.15,4.87v5.16a1.24,1.24,0,0,1-2.47,0v-11a1.24,1.24,0,1,1,2.47,0v.6a5.56,5.56,0,0,1,4-2.1A1.26,1.26,0,0,1,269.61,76.26Z"/><path class="cls-2" d="M285.74,76.51v11a1.24,1.24,0,1,1-2.47,0v-1a6.34,6.34,0,0,1-5,2.46,7,7,0,0,1,0-14,6.34,6.34,0,0,1,5,2.46v-.95a1.24,1.24,0,1,1,2.47,0ZM283.33,82a4.55,4.55,0,1,0-4.55,4.68A4.62,4.62,0,0,0,283.33,82Z"/><path class="cls-2" d="M302.28,81v6.51a1.24,1.24,0,0,1-2.47,0V81.6a4.14,4.14,0,1,0-8.27,0v5.93a1.24,1.24,0,1,1-2.47,0v-11a1.24,1.24,0,1,1,2.47,0v.76A6,6,0,0,1,302.28,81Z"/><path class="cls-2" d="M306.21,87.69a1.13,1.13,0,0,1,.93-2,8.88,8.88,0,0,0,3.93,1c1.56,0,3.07-.56,3.06-1.61,0-1.23-1.53-1.52-2.94-1.77-2.5-.45-5.28-1.29-5.29-4.25s3-4,5.39-4a9.71,9.71,0,0,1,4.6,1.34,1.11,1.11,0,0,1,.67,1,1.13,1.13,0,0,1-1.13,1.13,1,1,0,0,1-.43-.09,7.88,7.88,0,0,0-3.69-1.06c-1.67,0-2.75.66-2.75,1.63,0,1.3,1.44,1.62,2.63,1.86,3,.59,5.59,1.29,5.6,4.1,0,3-3.42,4.1-5.66,4.11A11.46,11.46,0,0,1,306.21,87.69Z"/><path class="cls-2" d="M330.15,71.18a1.16,1.16,0,0,1-1.51,1.1,4.24,4.24,0,0,0-3.38,0,2.12,2.12,0,0,0-.86,2V75.5h3.07a1.17,1.17,0,1,1,0,2.34H324.4v9.7a1.24,1.24,0,0,1-2.47,0v-9.7H320.7a1.17,1.17,0,0,1,0-2.34h1.23V74a4.12,4.12,0,0,1,1.89-3.72,6.41,6.41,0,0,1,5.57-.17A1.16,1.16,0,0,1,330.15,71.18Z"/><path class="cls-2" d="M330.46,82a7,7,0,1,1,7,7A7,7,0,0,1,330.46,82ZM342,82a4.55,4.55,0,1,0-4.55,4.69A4.62,4.62,0,0,0,342,82Z"/><path class="cls-2" d="M355.26,76.26a1.26,1.26,0,0,1-1.09,1.25A4.64,4.64,0,0,0,350,82.37v5.17a1.24,1.24,0,0,1-2.47,0v-11a1.24,1.24,0,1,1,2.47,0v.6a5.56,5.56,0,0,1,4-2.1A1.26,1.26,0,0,1,355.26,76.26Z"/><path class="cls-2" d="M382.55,81v6.5a1.24,1.24,0,1,1-2.47,0V81.6a4.14,4.14,0,1,0-8.28,0v5.92a1.24,1.24,0,1,1-2.47,0V81.6a4.14,4.14,0,1,0-8.27,0v5.93a1.24,1.24,0,1,1-2.47,0v-11a1.24,1.24,0,1,1,2.47,0v.76a6,6,0,0,1,9.84.58A6.73,6.73,0,0,1,376.42,75,6,6,0,0,1,382.55,81Z"/><path class="cls-2" d="M399.57,76.51v11a1.24,1.24,0,1,1-2.47,0v-1a6.37,6.37,0,0,1-5,2.46,7,7,0,0,1,0-14,6.34,6.34,0,0,1,5,2.46v-.95a1.24,1.24,0,1,1,2.47,0ZM397.16,82a4.55,4.55,0,1,0-4.55,4.68A4.62,4.62,0,0,0,397.16,82Z"/><path class="cls-2" d="M412.69,87.6a1.17,1.17,0,0,1-.85,1.13,6.15,6.15,0,0,1-4.95-.39A4.13,4.13,0,0,1,405,84.62V77.75h-1.76a1.17,1.17,0,0,1,0-2.34H405V72.64a1.24,1.24,0,1,1,2.47,0v2.77h3.19a1.17,1.17,0,1,1,0,2.34h-3.19v6.61a2.12,2.12,0,0,0,.86,2,3.87,3.87,0,0,0,2.9.13A1.18,1.18,0,0,1,412.69,87.6Z"/><path class="cls-2" d="M415.12,72a1.49,1.49,0,1,1,1.48,1.5A1.5,1.5,0,0,1,415.12,72Zm.25,15.57v-11a1.24,1.24,0,1,1,2.47,0v11a1.24,1.24,0,1,1-2.47,0Z"/><path class="cls-2" d="M421.08,82a7,7,0,1,1,7,7A7,7,0,0,1,421.08,82Zm11.57,0a4.55,4.55,0,1,0-4.55,4.69A4.61,4.61,0,0,0,432.65,82Z"/><path class="cls-2" d="M451.38,81v6.5a1.24,1.24,0,1,1-2.47,0V81.6a4.14,4.14,0,1,0-8.27,0v5.93a1.24,1.24,0,1,1-2.47,0v-11a1.24,1.24,0,1,1,2.47,0v.76A6,6,0,0,1,451.38,81Z"/><path class="cls-2" d="M243.25,112.39a9.63,9.63,0,0,1,9.61-9.62,9.53,9.53,0,0,1,6.86,2.89,1.65,1.65,0,0,1-1.18,2.81,1.62,1.62,0,0,1-1.19-.52,6.14,6.14,0,0,0-4.49-2,6.4,6.4,0,0,0,0,12.8,6.14,6.14,0,0,0,4.49-2,1.62,1.62,0,0,1,1.19-.52,1.65,1.65,0,0,1,1.65,1.65,1.62,1.62,0,0,1-.47,1.15,9.49,9.49,0,0,1-6.86,2.89A9.62,9.62,0,0,1,243.25,112.39Z"/><path class="cls-2" d="M262.53,114.9a7.15,7.15,0,1,1,7.14,7.1A7.1,7.1,0,0,1,262.53,114.9Zm11,0a3.85,3.85,0,1,0-3.85,4A3.91,3.91,0,0,0,273.52,114.91Z"/><path class="cls-2" d="M294.26,120.12a1.61,1.61,0,0,1-1.61,1.61H281.38a1.68,1.68,0,0,1-1.68-1.68V104.72a1.68,1.68,0,0,1,3.35,0v13.8h9.6A1.6,1.6,0,0,1,294.26,120.12Z"/><path class="cls-2" d="M310,109.75v10.33a1.65,1.65,0,1,1-3.29,0v0a6.13,6.13,0,0,1-4.45,1.94c-3.58,0-6.46-3.16-6.46-7.07s2.88-7.1,6.46-7.1a6.14,6.14,0,0,1,4.45,2v0a1.65,1.65,0,1,1,3.29,0Zm-3.21,5.17a3.85,3.85,0,1,0-3.85,4A3.92,3.92,0,0,0,306.76,114.92Z"/><path class="cls-2" d="M327.33,114.93c0,3.91-2.88,7.07-6.45,7.07a6.15,6.15,0,0,1-4.45-1.94v0a1.65,1.65,0,0,1-3.3,0V104.15a1.65,1.65,0,0,1,3.3,0v5.63a6.12,6.12,0,0,1,4.45-2C324.45,107.83,327.33,111,327.33,114.93Zm-3.29,0a3.85,3.85,0,1,0-3.85,4A3.92,3.92,0,0,0,324,114.92Z"/><path class="cls-2" d="M146.42,106.22c-6.9,2.42-13.11,2.22-17-.57a9.37,9.37,0,0,1-3.86-8V52.16h24c4.09,0,6.47-3.31,6.47-7.4s-2.38-7.4-6.47-7.4h-24V18.21a7.84,7.84,0,0,0-15.67,0V37.36H88.45V7.84a7.84,7.84,0,1,0-15.67,0V49.33A40.71,40.71,0,0,0,41.83,34.82C18.73,34.82,0,54.69,0,79.21s18.73,44.4,41.83,44.4a40.74,40.74,0,0,0,31-14.5V114a7.83,7.83,0,0,0,7.83,7.83A7.92,7.92,0,0,0,88.45,114V52.16h21.39V97.63a25.08,25.08,0,0,0,10.48,20.81,29.3,29.3,0,0,0,17.15,5.1A42.82,42.82,0,0,0,151.61,121a7.83,7.83,0,1,0-5.19-14.78Zm-102,2.59c-15.86,0-28.72-13.25-28.72-29.6S28.53,49.62,44.39,49.62,73.12,62.87,73.12,79.21,60.26,108.81,44.39,108.81Z"/><path class="cls-3" d="M88.3,8.05A7.7,7.7,0,1,1,80.6.35,7.7,7.7,0,0,1,88.3,8.05Z"/><path class="cls-2" d="M179.36,67.55v0L154.7,39.76A7.93,7.93,0,0,0,143.61,39,7.65,7.65,0,0,0,142.87,50l26.57,29.39-26.57,29.4a7.65,7.65,0,0,0,.74,11,8.1,8.1,0,0,0,10.89-.52l24.86-28v0l9-11.8Z"/><path class="cls-2" d="M189.28,79.37,215.85,50A7.66,7.66,0,0,0,215.12,39a7.94,7.94,0,0,0-11.1.73L179.37,67.58l9,11.79-9,11.8L204,119a7.92,7.92,0,0,0,11.1.73,7.66,7.66,0,0,0,.73-11Z"/><path class="cls-3" d="M217.82,44.8a7.7,7.7,0,1,1-7.7-7.7A7.7,7.7,0,0,1,217.82,44.8Z"/><path class="cls-3" d="M217.81,113.94a7.7,7.7,0,1,1-7.69-7.7A7.7,7.7,0,0,1,217.81,113.94Z"/><path class="cls-3" d="M156.31,44.81a7.7,7.7,0,1,1-7.7-7.7A7.7,7.7,0,0,1,156.31,44.81Z"/><path class="cls-3" d="M156.31,113.87a7.7,7.7,0,1,1-7.7-7.7A7.7,7.7,0,0,1,156.31,113.87Z"/></g></g></g></svg>