<svg xmlns="http://www.w3.org/2000/svg" viewBox="0 0 454.58 129.4"><defs><style>.cls-1,.cls-2{fill:#fff;}.cls-2{fill-rule:evenodd;}</style></defs><g id="Layer_2" data-name="Layer 2"><g id="Layer_1-2" data-name="Layer 1"><path class="cls-1" d="M0,65.87A65.88,65.88,0,1,1,83.33,129.4l0-12.2c1.3-32.82-26.43-45.64-26.43-45.64,12.82-34.32,45.63-30.91,45.63-30.91s-.28-.84-5.36-3.1-16,1.13-29.43,1.13-16.06-3.4-24.36-3.1C13.62,36.64,3.9,70.65.49,73.91A64.65,64.65,0,0,1,0,65.87Z"/><path class="cls-2" d="M453.73,80.68l-12.2-16,12.2-16a3.62,3.62,0,0,0,.46-3.92,4.26,4.26,0,0,0-3-2.22,3.62,3.62,0,0,0-3.64,1.49L436.73,58.4l-11-14.33a3.62,3.62,0,0,0-3.64-1.49,4.18,4.18,0,0,0-2.93,2.22,3.62,3.62,0,0,0,.51,3.92l12.12,16-12.2,16a3.62,3.62,0,0,0-.46,3.92,4.26,4.26,0,0,0,3,2.22,3.62,3.62,0,0,0,3.64-1.49l11-14.33,10.86,14.33a3.62,3.62,0,0,0,3.64,1.49,4.26,4.26,0,0,0,3-2.22A3.62,3.62,0,0,0,453.73,80.68Zm-41.11-5.59v-32h-7.71v32a12.42,12.42,0,0,1-4.44,3,18.7,18.7,0,0,1-13,0,13,13,0,0,1-4.51-3v-32H375.3v32A9,9,0,0,0,378.53,82a18.85,18.85,0,0,0,7.38,3.76,29,29,0,0,0,16.11,0A18.85,18.85,0,0,0,409.4,82,9,9,0,0,0,412.62,75.09ZM369.2,82.41a3.74,3.74,0,0,0-1.13-2.68,3.92,3.92,0,0,0-2.73-1.1,17.3,17.3,0,0,1-6.52-1.17,13,13,0,0,1-4.5-3V50.77H369.2V43.13H354.32V30.22a3.87,3.87,0,0,0-1.1-2.72,3.71,3.71,0,0,0-2.68-1.14,3.82,3.82,0,0,0-3.86,3.86V43.13h-1.26A3.88,3.88,0,0,0,341.56,47a3.77,3.77,0,0,0,1.13,2.69,4,4,0,0,0,2.73,1.09h1.26V74.46a9,9,0,0,0,3.23,6.91,18.74,18.74,0,0,0,7.37,3.76,30.62,30.62,0,0,0,8.06,1.14,3.81,3.81,0,0,0,3.86-3.86ZM328,75.09a12.42,12.42,0,0,1-4.44,3,18.7,18.7,0,0,1-13,0,13,13,0,0,1-4.51-3V54.31a12.53,12.53,0,0,1,4.51-3,19.16,19.16,0,0,1,13,0,12,12,0,0,1,4.44,3Zm7.71,0V54.31a9,9,0,0,0-3.23-6.91,18.87,18.87,0,0,0-7.37-3.76,29.06,29.06,0,0,0-16.12,0,18.94,18.94,0,0,0-7.37,3.76,9,9,0,0,0-3.23,6.91V75.09A9,9,0,0,0,301.63,82,18.81,18.81,0,0,0,309,85.76a29.06,29.06,0,0,0,16.12,0A18.74,18.74,0,0,0,332.49,82,9,9,0,0,0,335.72,75.09ZM295.64,48.88c.57-1.94.1-3.36-1.39-4.28a13.31,13.31,0,0,0-5.35-1.76A36.2,36.2,0,0,0,284,42.5a35,35,0,0,0-8.13,1,19,19,0,0,0-7.34,3.33,8.05,8.05,0,0,0-3.19,6.42V86.27H273V53.37a20.63,20.63,0,0,1,4.71-2.3,20.14,20.14,0,0,1,6.31-.93,21.1,21.1,0,0,1,6.77,1.1,3.92,3.92,0,0,0,3-.15A3.57,3.57,0,0,0,295.64,48.88ZM256.9,75.09v-32h-7.72v32a12.42,12.42,0,0,1-4.44,3,18.7,18.7,0,0,1-13,0,13,13,0,0,1-4.5-3v-32h-7.64v32A9,9,0,0,0,222.81,82a18.74,18.74,0,0,0,7.37,3.76,29.06,29.06,0,0,0,16.12,0A18.74,18.74,0,0,0,253.67,82,9,9,0,0,0,256.9,75.09ZM204.49,54.31v6.53h-22V54.31a12.48,12.48,0,0,1,4.5-3,17.72,17.72,0,0,1,6.52-1.14,17.53,17.53,0,0,1,6.5,1.14A12,12,0,0,1,204.49,54.31Zm7.72,14.25V54.31A9,9,0,0,0,209,47.4a18.87,18.87,0,0,0-7.37-3.76,29.06,29.06,0,0,0-16.12,0,18.87,18.87,0,0,0-7.37,3.76,9,9,0,0,0-3.23,6.91V75.09A9,9,0,0,0,178.12,82a18.74,18.74,0,0,0,7.37,3.76,30.62,30.62,0,0,0,8.06,1.14,46,46,0,0,0,7.74-.56,34.64,34.64,0,0,0,6.51-1.8,3.66,3.66,0,0,0,2.55-3,4.18,4.18,0,0,0-1.19-3.45,3.58,3.58,0,0,0-3.8-.79,42.92,42.92,0,0,1-4.55,1.28,35.47,35.47,0,0,1-7.26.68A17.3,17.3,0,0,1,187,78.09a13,13,0,0,1-4.5-3V68.56Z"/></g></g></svg>