<svg xmlns="http://www.w3.org/2000/svg" viewBox="0 0 451.38 215.38"><defs><style>.cls-1{fill:#fff;}</style></defs><g id="Layer_2" data-name="Layer 2"><g id="Layer_1-2" data-name="Layer 1"><path class="cls-1" d="M198,163.79a6.36,6.36,0,0,0-4-6,6.16,6.16,0,0,0,3.1-5.39c0-4.51-3.08-7.1-8.46-7.1H177V172.5h11.5C194.47,172.5,198,169.25,198,163.79Zm-9.49,4.1h-6.45v-7.76h6.45c2.75,0,4.14,1.3,4.14,3.86S191.16,167.89,188.53,167.89Zm0-12.2h-6.41v-5.82h6.14c2.42,0,3.6,1,3.6,2.93C191.82,154.12,191.24,155.69,188.49,155.69Zm13,8.16V152.59h4.92v11c0,3.32,1.17,4.86,3.66,4.86s3.7-1.62,3.7-4.83v-11h4.92V172.5h-4.92v-1.59a6.13,6.13,0,0,1-4.75,2C202.47,172.93,201.49,167.24,201.49,163.85Zm75,8.65H271.6V152.59h4.92v1.69a6.46,6.46,0,0,1,5-2.11c4.77,0,7.3,3.14,7.3,9.08V172.5h-4.92v-11c0-3.32-1.14-4.87-3.59-4.87s-3.77,1.67-3.77,4.83ZM228,162V172.5h-4.92V152.59H228Zm4.38-15.19,4.92-2.46V172.5h-4.92ZM253,154a6,6,0,0,0-4.42-1.83c-4.81,0-7.8,3.9-7.8,10.18,0,6.62,2.88,10.58,7.7,10.58a6.21,6.21,0,0,0,4.52-2v1.52h4.91V144.32L253,146.78Zm-3.46,14.4c-1.71,0-3.75-1.07-3.75-6.17,0-4.59,2-5.55,3.69-5.55a4.18,4.18,0,0,1,3.52,1.94v7.82A4.08,4.08,0,0,1,249.51,168.4Zm110.71-16.23a6.69,6.69,0,0,0-4.41,1.85v-9.19l-4.92,2.45V172.5h4.92V171a6.12,6.12,0,0,0,4.51,1.92c4.9,0,7.72-3.86,7.72-10.58C368,156.07,365,152.17,360.22,152.17Zm-.92,4.51c1.8,0,3.72,1.46,3.72,5.55s-1.19,6.17-3.61,6.17a4.77,4.77,0,0,1-3.6-1.87V158.7A4.1,4.1,0,0,1,359.3,156.68Zm-55-2.69a6.19,6.19,0,0,0-4.41-1.83c-4.82,0-7.81,3.9-7.81,10.18,0,6.62,2.88,10.58,7.71,10.58a6.17,6.17,0,0,0,4.51-1.92v.46c0,2.18,0,5.17-6.36,5.28h-.22l1.74,3.87h.1c6.5-.11,9.66-3.37,9.66-10V152.59h-4.92Zm0,4.62v7.82a4.12,4.12,0,0,1-3.48,2c-1.7,0-3.73-1.07-3.73-6.17,0-4.59,2-5.55,3.69-5.55A4.15,4.15,0,0,1,304.32,158.61Zm20.19-1.13a9.68,9.68,0,0,1,5.09-1.37c2.33,0,3.56,1,3.56,2.86v1.34a10.11,10.11,0,0,0-4.23-.94c-3.66,0-7.94,1.71-7.94,6.53,0,5.19,4,7,7.38,7a6.7,6.7,0,0,0,4.79-2.05v1.62h4.91V159.08c0-4.33-3-6.91-8-6.91a14.56,14.56,0,0,0-7.44,1.92Zm1.4,8.42c0-1.77,1.27-2.83,3.39-2.83a7.23,7.23,0,0,1,3.86,1v2.73a4.62,4.62,0,0,1-3.86,2.1C327.21,168.88,325.91,167.74,325.91,165.9Zm57.92.82a5.67,5.67,0,0,1-3.93,1.68,4.21,4.21,0,0,1-4.42-4.34h12.21c0-.41.05-1,.05-1.49,0-6.32-3.27-10.4-8.34-10.4s-8.93,4.37-8.93,10.4c0,6.29,3.71,10.36,9.43,10.36a9.28,9.28,0,0,0,7-3.13Zm-8.28-6.26c.12-2.44,1.63-4.12,3.7-4.12,2.6,0,3.64,2.1,3.76,4.12Zm55.73,6.26a5.67,5.67,0,0,1-3.93,1.68,4.2,4.2,0,0,1-4.41-4.34h12.2c0-.41.06-1,.06-1.49,0-6.32-3.28-10.4-8.35-10.4s-8.93,4.37-8.93,10.4c0,6.29,3.71,10.36,9.43,10.36a9.34,9.34,0,0,0,7-3.13ZM423,160.46c.12-2.44,1.63-4.12,3.7-4.12,2.6,0,3.64,2.1,3.76,4.12Zm-11.86,5.13c0,1.77.67,2.68,2.13,2.68a6.51,6.51,0,0,0,3-.9l-.58,4.64a9,9,0,0,1-4.14.92c-3.91,0-5.3-3.29-5.3-6.11v-9.61h-3.06v-4.62h3.06v-5.1l4.91-2.46v7.56h4.48v4.62h-4.48ZM401.61,172a9,9,0,0,1-4.13.92c-3.92,0-5.31-3.29-5.31-6.11v-9.61h-3.08v-4.62h3.08v-5.1l4.91-2.46v7.56h4.2v4.62h-4.2v8.38c0,1.77.67,2.68,2.13,2.68a6.51,6.51,0,0,0,3-.9Zm48.48-13.84a5.83,5.83,0,0,0-3.26-1.08c-2.42,0-3.55,1.47-3.55,4.63V172.5h-4.92V152.59h4.92v1.73a5.33,5.33,0,0,1,4.4-2.15,6.39,6.39,0,0,1,3.7,1.2ZM228,147.68v2.07h-4.91v-4.91H228Zm34.25,4.91h4.92V172.5h-4.92Zm4.91-5.3v2.46h-4.91v-4.91h4.91Zm135.07,41.48a6,6,0,0,0-4.41-1.82c-4.82,0-7.81,3.89-7.81,10.18,0,6.62,2.88,10.57,7.71,10.57a6.17,6.17,0,0,0,4.51-1.94v1.52h4.92V179.09l-4.92,2.46Zm-3.46,14.4c-1.71,0-3.74-1.07-3.74-6.16,0-4.59,2-5.56,3.68-5.56a4.17,4.17,0,0,1,3.52,1.94v7.82A4.07,4.07,0,0,1,398.79,203.17ZM235.21,192.94a5.83,5.83,0,0,0-3.26-1.08c-2.42,0-3.55,1.47-3.55,4.63v10.79h-4.92V187.37h4.92v1.72a5.34,5.34,0,0,1,4.39-2.14,6.32,6.32,0,0,1,3.71,1.2Zm-38.7-5.58h4.86l-5.62,19.92h-4.23L189.31,199c-.37-1.45-.82-3.2-1.08-4.33-.19.81-.75,3.27-1.11,4.49l-2.18,8.11h-4.25l-5.63-19.92h5.07l1.83,7.45c.28,1.16.75,3.38,1,4.87.28-1.47.82-3.62,1.18-5l2.08-7.34h4.18l2.08,7.34c.35,1.31.88,3.47,1.18,5,.22-1.28.63-3.14,1.05-5Zm14.89-.44c-5.24,0-9.05,4.37-9.05,10.4s3.81,10.4,9.05,10.4,9-4.37,9-10.4S216.64,186.92,211.4,186.92Zm0,16.16c-2.45,0-4-2.26-4-5.76s1.58-5.76,4-5.76,4,2.26,4,5.76S213.85,203.08,211.4,203.08ZM378,192.94a5.81,5.81,0,0,0-3.26-1.08c-2.42,0-3.55,1.47-3.55,4.63v10.79h-4.91V187.37h4.91v1.72a5.36,5.36,0,0,1,4.4-2.14,6.35,6.35,0,0,1,3.71,1.2Zm-38.69-5.58h4.86l-5.62,19.92h-4.23L332.14,199c-.37-1.45-.81-3.2-1.08-4.33-.18.81-.74,3.27-1.1,4.49l-2.19,8.11h-4.25l0-.11-5.59-19.81H323l1.83,7.45c.28,1.16.75,3.38,1,4.87.27-1.47.81-3.62,1.18-5l2.07-7.34h4.18l2.08,7.34c.35,1.31.89,3.47,1.18,5,.23-1.28.64-3.14,1.06-5Zm14.85-.42c-5.25,0-9.05,4.36-9.05,10.39s3.8,10.4,9.05,10.4,9.05-4.37,9.05-10.4S359.44,186.94,354.2,186.94Zm0,16.15c-2.45,0-4-2.27-4-5.76s1.59-5.76,4-5.76,4,2.26,4,5.76S356.65,203.09,354.2,203.09Zm-104.35-9.16,6.07,13.35h-5.44L246.29,198l-2.6,3.27v6H238.8v-25.7l4.89-2.46V195c.61-.88,1.34-1.82,1.87-2.49l3.92-5.12h5.68Zm23.35,13.35h-4.92V187.37h4.92v1.69a6.45,6.45,0,0,1,5-2.11c4.77,0,7.29,3.14,7.29,9.08v11.25h-4.91v-11c0-3.32-1.14-4.86-3.59-4.86s-3.78,1.67-3.78,4.83ZM301,188.76a6.22,6.22,0,0,0-4.41-1.82c-4.82,0-7.82,3.89-7.82,10.18,0,6.62,2.89,10.58,7.71,10.58a6.18,6.18,0,0,0,4.52-1.93v.47c0,2.18,0,5.16-6.36,5.28h-.22l1.74,3.86h.1c6.49-.1,9.65-3.36,9.65-10V187.36H301Zm0,4.62v7.82a4.15,4.15,0,0,1-3.49,2c-1.69,0-3.72-1.07-3.72-6.17,0-4.59,2-5.55,3.69-5.55A4.18,4.18,0,0,1,301,193.38Zm-42.06-6h4.92v19.91H259Zm4.92-5.3v2.45H259v-4.91h4.92Zm117.8-.49,4.92-2.46v28.16h-4.92ZM32.52,166.77H69.6V145.24H32.52V128.32h41L59.93,104.74H1.77V207.28h82V183.69H32.52Zm105.87-62L121,138.2,103.6,104.74h-34l35.82,62v40.51h30.66V166.77l35.87-62ZM202.71,0,0,74,202.71,38.17Z"/></g></g></svg>