<svg xmlns="http://www.w3.org/2000/svg" viewBox="0 0 265.64 181.82"><defs><style>.cls-1,.cls-2{fill:#fff;}.cls-2{fill-rule:evenodd;}</style></defs><g id="Layer_2" data-name="Layer 2"><g id="Layer_1-2" data-name="Layer 1"><rect class="cls-1" x="194.71" y="0.33" width="8.7" height="46.94" transform="matrix(0.97, -0.26, 0.26, 0.97, 0.57, 51.95)"/><polygon class="cls-2" points="142.35 35.74 174.61 61.18 180 54.35 147.73 28.91 142.35 35.74"/><polygon class="cls-2" points="242.79 12.03 230.46 41.39 238.48 44.77 250.8 15.39 242.79 12.03"/><path class="cls-2" d="M222.63,142.93a2.08,2.08,0,0,0-1-1.32,2.13,2.13,0,0,0-1.64-.17,40.15,40.15,0,0,1-11.5,1.86c-5.29,0-5.71-1-5.71-6.43V92.18h17.84a2.06,2.06,0,0,0,2-1.83l.84-7a2,2,0,0,0-.5-1.62,2.11,2.11,0,0,0-1.56-.69H202.79V66a2.08,2.08,0,0,0-.71-1.55,2,2,0,0,0-1.64-.5l-8.07,1.12a2.06,2.06,0,0,0-1.8,2.05v70.56c0,11.69,5.2,16.69,17.39,16.69a43.91,43.91,0,0,0,14.95-2.79,2.07,2.07,0,0,0,1.25-2.43Z"/><path class="cls-2" d="M160.57,79.68c-6.63,0-15.46,2.43-22.72,5.25l-1.83.74-1.21.51c-3.32,1.35-7.77,3.24-10.06,4.48a2.73,2.73,0,0,0-1.47,2.13v58.14a2.09,2.09,0,0,0,2.08,2.09h8.06a2.08,2.08,0,0,0,2.07-2.09V98.35c8.36-4.16,19.13-7,24-7,4,0,5.29,1.2,5.29,4.75v54.83a2.09,2.09,0,0,0,2.08,2.09h8.08a2.09,2.09,0,0,0,2.07-2.09V97.07c0-11.53-5.53-17.39-16.41-17.39"/><path class="cls-2" d="M78.7,52.29l-8.08,1.12a2.05,2.05,0,0,0-1.78,2v95.48A2.07,2.07,0,0,0,70.9,153H79A2.06,2.06,0,0,0,81,150.93V54.34a2.09,2.09,0,0,0-.7-1.55,2,2,0,0,0-1.64-.5"/><path class="cls-2" d="M106.78,81.08H98.71a2.07,2.07,0,0,0-2.06,2.07v67.78A2.06,2.06,0,0,0,98.71,153h8.07a2.07,2.07,0,0,0,2.09-2.07V83.15a2.08,2.08,0,0,0-2.09-2.07"/><path class="cls-2" d="M28.55,79.7C10.07,79.69,0,92.52,0,106.39v21.3c0,17.22,10.07,26.71,28.37,26.71,6.45,0,11.84-1.21,16.16-3.49v3.64c0,6.9-.6,7.43-10.69,16.4l-1.56,1.39a2.09,2.09,0,0,0-.16,2.95l5.3,5.84a2.09,2.09,0,0,0,1.43.68,2.11,2.11,0,0,0,1.5-.53l1.91-1.75c12.27-11.14,14.48-13.14,14.48-23.73V106.09C56.71,87.9,48.28,79.7,28.55,79.7Zm16,48.6c0,10.55-4.83,15-16.16,15s-16.15-4.49-16.15-15V106.44c0-7.2,4.82-15,16.15-15S44.53,93.8,44.53,107.7Z"/><path class="cls-2" d="M265.58,149.18l-1.53-6.25a2.1,2.1,0,0,0-1-1.32,2.08,2.08,0,0,0-1.62-.17,40.28,40.28,0,0,1-11.49,1.85c-5.31,0-5.73-1-5.73-6.42V92.18H262a2.07,2.07,0,0,0,2.06-1.82l.83-7a2.06,2.06,0,0,0-.51-1.62,2,2,0,0,0-1.55-.69H244.2V66a2,2,0,0,0-.71-1.55,2,2,0,0,0-1.65-.5l-8.07,1.13a2,2,0,0,0-1.78,2v70.56c0,11.69,5.19,16.68,17.38,16.68a43.65,43.65,0,0,0,14.94-2.78,2.07,2.07,0,0,0,1.27-2.43"/></g></g></svg>