<svg xmlns="http://www.w3.org/2000/svg" viewBox="0 0 458.21 84.07"><defs><style>.cls-1{fill:#fff;}</style></defs><g id="Layer_2" data-name="Layer 2"><g id="Layer_1-2" data-name="Layer 1"><path class="cls-1" d="M.45,6.26v6.26H16.1V0H.45Z"/><path class="cls-1" d="M38.28.72c-5.23,1.16-7.65,2.86-9.62,6.79-1.52,3-1.83,7.74-1.83,27.68V53.66H43.38V35.86c0-17.57,0-17.79,1-19.76,1.75-3.45,3-3.8,13.51-3.8,10.15,0,11.67.4,13.41,3.35.85,1.48.9,2.42,1,19.77l.14,18.24H88.58l-.13-21.6-.13-21.55-1.48-3C85.1,4,83.44,2.55,79.51,1.21,76.87.31,75.71.27,59,.13,44.63,0,40.78.18,38.28.72Z"/><path class="cls-1" d="M111.57.49c-4.92.81-8.77,3.27-10.47,6.62-1.56,3-1.83,6-1.83,19.72,0,16.68.45,19.23,4.12,22.63,3.89,3.66,7,4.16,26.74,4.2,8.63,0,16.68-.22,18.29-.49,4.15-.67,7-2,9-4.34,3.13-3.58,3.31-4.87,3.31-22s-.18-18.42-3.31-22c-2.06-2.33-4.88-3.67-9-4.34C145.06-.09,114.88-.09,111.57.49Zm29.51,12.7c3.09,1.52,3.36,2.6,3.36,13.42-.05,14.71-.09,14.75-14.09,14.75-8,0-9.12-.09-10.69-.89-3.49-1.75-3.62-2.19-3.75-13.1-.09-8.59,0-9.89.67-11.23,1.79-3.49,4.07-4.07,14.89-3.93C138.18,12.34,139.56,12.48,141.08,13.19Z"/><path class="cls-1" d="M168.14.4c0,.49,5.81,22.67,7.82,29.83,3,10.86,4.65,14,9.79,18.87,4.25,4.11,5.5,4.56,12.84,4.56,7.15,0,9.21-.54,12.25-3.22a35.77,35.77,0,0,0,6.84-9.12c1.07-2.1,3.18-9.26,7.92-27,1.87-7,3.48-13.1,3.62-13.55C229.44,0,229,0,221.3.09l-8.18.13-4.34,17.31c-4.47,17.8-5.32,20.26-7.82,22.22a4.3,4.3,0,0,1-2.24.94c-1.43,0-3.93-2.32-5.05-4.6-.49-1-2.64-8.81-4.74-17.31s-4-16.19-4.29-17.13L184.19,0h-8C171.71,0,168.14.18,168.14.4Z"/><path class="cls-1" d="M252.56.45c-4.25,1.29-10.46,8.18-12.88,14.35-.89,2.24-9.48,34-10.1,37.34l-.27,1.52h16.05L247.55,45l2.19-8.59h20.08L272.1,45l2.24,8.63h8.18c7.6,0,8.18,0,8-.8-.13-.41-1.88-6.8-3.84-14.18-7.11-26.43-8.05-28.8-13.6-34.39C269.33.49,267.76,0,259.85,0A43.33,43.33,0,0,0,252.56.45Zm9.61,13.41c1.57,1.25,2.73,3.27,3.85,6.67.54,1.56.94,2.95.94,3s-3.22.13-7.11.13h-7.11l.58-2c1.07-3.45,2.28-5.77,3.8-7.29C258.87,12.74,260.48,12.57,262.17,13.86Z"/><path class="cls-1" d="M301.84,26.83V53.66h15.65V34.88h10.06l9.17,9.39,9.16,9.43,8.72-.13,8.68-.13-8.9-9.17-8.94-9.17,3.8-.27c4.47-.35,6.53-1.16,9.17-3.57,3.17-3,4-5.32,4.15-12.79.18-7.25-.35-9.93-2.59-13.06C358.18,3,354.34,1.12,349.55.49,347.49.18,337,0,323.93,0H301.84Zm39.8-14.26a7,7,0,0,1,4.92,4,2.41,2.41,0,0,1-.27,2.68c-2,3.4-4.7,3.94-19.28,4h-9.52V12.07h11.09A114,114,0,0,1,341.64,12.57Z"/><path class="cls-1" d="M372,26.83V53.66h16.1V0H372Z"/><path class="cls-1" d="M420.47.63c-3.62,1.16-8.81,6.48-11.71,11.85-1.34,2.5-4,11.67-9.39,32.55l-2.19,8.63h16l.45-1.7c.22-.89,1.07-4.16,1.83-7.24s1.61-6.35,1.83-7.29l.45-1.66h20l.4,1.66c.27.94,1.3,5,2.37,8.94l1.92,7.29h8c7.42,0,8,0,7.78-.8-.14-.41-2.37-8.68-5-18.34S448,15.79,447.39,14.35C445.34,9.08,441,3.62,437.29,1.57,435,.27,434.6.22,428.61.13,424.32,0,421.77.22,420.47.63Zm9.17,12.79c2,1.25,4.11,5,5.28,9.61l.26,1.12h-14.8l.67-2.37c1.17-4,2.82-7,4.57-8.14C427.58,12.3,427.76,12.3,429.64,13.42Z"/><path class="cls-1" d="M.31,17.71C.13,17.89,0,26.07,0,35.86v17.8H16l.31-13.1c.14-7.16.23-15.29.14-18l-.14-4.92-7.87-.13A67.51,67.51,0,0,0,.31,17.71Z"/><path class="cls-1" d="M288.29,62.25a7.06,7.06,0,0,1-3.22.13,5.72,5.72,0,0,0-3.76.45c-1.74.89-1.87,1.79-.13,1.29A17.62,17.62,0,0,1,286.1,64c1.74.27,4.16-1.07,3.4-1.79C289.27,61.93,288.78,61.93,288.29,62.25Z"/><path class="cls-1" d="M214.91,65.78c-4.92,1.21-7.38,5.81-5.23,9.79,2.77,5.23,13.23,4.56,15.42-.94a6.4,6.4,0,0,0-.44-6C223.14,66.32,218.4,64.93,214.91,65.78Zm5.54,2a4.61,4.61,0,0,1,2.69,4.38c0,3.58-2.82,6-6.53,5.54-5.32-.58-7.2-6.39-3.09-9.61C215,66.9,218.49,66.72,220.45,67.75Z"/><path class="cls-1" d="M300.27,65.91c-4,1.3-5.59,3.22-5.59,6.89a5,5,0,0,0,1,3.44c3,3.8,10.69,3.85,14.17.05.85-.9,1.17-1.79,1.3-3.76.18-2.32,0-2.73-1.07-4.07A9.56,9.56,0,0,0,300.27,65.91Zm6.09,1.93a6.15,6.15,0,0,1,2.63,4.6c0,4.2-5.72,6.84-9.43,4.34-4.88-3.27-2.64-9.7,3.31-9.7A7.9,7.9,0,0,1,306.36,67.84Z"/><path class="cls-1" d="M443.81,65.91c-4,1.25-5.58,3.22-5.58,6.89,0,2.68,1.11,4.29,3.75,5.5,4.07,1.83,9.62.58,11.81-2.73.89-1.3,1-2,.85-4-.14-2.19-.36-2.64-1.84-3.89a9.18,9.18,0,0,0-3.89-1.92C446.23,65.2,446.1,65.2,443.81,65.91Zm6.67,2.55a5.07,5.07,0,0,1-.72,8.45c-3.8,2.28-9.3-.27-9.3-4.33,0-3.49,2.24-5.46,6.13-5.5A4.56,4.56,0,0,1,450.48,68.46Z"/><path class="cls-1" d="M73.34,72.17V78.7h1.25c1.21,0,1.21,0,1.07-2.68l-.18-2.68h2.33c3,0,3.8.49,5.14,3.13,1,2,1.3,2.23,2.5,2.23H86.8l-1.26-2.28a11.07,11.07,0,0,0-2.46-3.22l-1.2-.89,1.43-.94c1.83-1.21,2.14-3.27.71-4.56-.76-.72-1.74-.9-5.81-1l-4.87-.18Zm8.4-4.38c2.33,1.61.58,3.71-3.44,4.07l-2.73.27v-5h2.6A6.88,6.88,0,0,1,81.74,67.79Z"/><path class="cls-1" d="M90.46,72.22V78.7H96c4.6,0,5.5-.09,5.5-.67s-.76-.67-4.21-.67H93.06l-.27-2c-.45-2.9-.18-3.08,3.4-2.77,3,.31,3.08.27,3.08-.63s-.18-1-3.22-.8l-3.26.13-.14-2.14-.13-2.1h4c3.31,0,4.07-.14,4.07-.68s-.85-.67-5-.67h-5Z"/><path class="cls-1" d="M105.13,72.22v6.44l1.56.31a16.81,16.81,0,0,0,8.86-1.3c3.84-2.1,4.87-6.79,2.1-9.61-1.7-1.7-4.07-2.33-8.68-2.33h-3.84Zm7.51-4.7c4,1.12,5.46,5.37,2.82,8-2.15,2.15-6.84,3-7.69,1.39a22.87,22.87,0,0,1-.45-5.37V67.08h1.92A13.21,13.21,0,0,1,112.64,67.52Z"/><path class="cls-1" d="M123.42,72.22V78.7H129c4.65,0,5.59-.09,5.59-.67s-.81-.67-4.47-.67h-4.48v-5l3.27.18c2.64.09,3.22,0,3.22-.54s-.63-.67-3.22-.53l-3.27.09V67.08h4c3.26,0,4-.14,4-.68s-.85-.67-5.14-.67h-5.14Z"/><path class="cls-1" d="M144.21,72.17V78.7l1.52.27a16.71,16.71,0,0,0,8.68-1.25c3.57-2,4.87-5.68,3-8.72-1.38-2.33-3.17-3-8.49-3.18l-4.7-.18Zm8.59-4.25c5.36,2.46,3.53,8.9-2.77,9.66a6.27,6.27,0,0,1-2.91,0,27.69,27.69,0,0,1-.58-5.46l-.27-5h2.32A13,13,0,0,1,152.8,67.92Z"/><path class="cls-1" d="M162.32,72.22V78.7h5.59c4.65,0,5.59-.09,5.59-.67s-.8-.67-4.47-.67h-4.47v-5l3.35.31c3.22.31,3.36.27,3.36-.67s-.14-1-3.36-.67l-3.35.31V67.08h4c3.27,0,4-.14,4-.68s-.85-.67-5.15-.67h-5.14Z"/><path class="cls-1" d="M183.34,72.22V78.7h2.23v-13h-2.23Z"/><path class="cls-1" d="M191.16,72.22l0,6.48h1.07c1,0,1,0,.9-5.14a25.55,25.55,0,0,1,.09-5.1c.13,0,2.32,2.33,4.87,5.14,3.4,3.72,5,5.1,5.72,5.1,1,0,1,0,1-6.48V65.73h-2.32l.13,5.06.18,5.09-2-2.28c-5.28-6-7.29-7.87-8.45-7.87h-1.17Z"/><path class="cls-1" d="M227.47,66.49c.14.45,1.7,3.36,3.4,6.49,2,3.75,3.36,5.72,3.85,5.72.67,0,7.65-11.31,7.65-12.47,0-.27-.45-.5-1-.5-.85,0-1.43.9-3.71,5.41l-2.69,5.42-2.64-5.42c-2.41-5-2.72-5.41-3.89-5.41C227.43,65.73,227.25,65.87,227.47,66.49Z"/><path class="cls-1" d="M248.49,68.73c-.89,1.7-2.55,4.61-3.62,6.48l-2,3.49h1.43c1.29,0,1.52-.18,2.14-1.92l.72-1.88,4.11-.13,4.12-.14.89,2.06c.76,1.74,1.08,2,2.19,2,.76,0,1.34-.13,1.34-.31s-1.52-3.09-3.39-6.49c-3.27-5.94-3.45-6.17-4.83-6.17S250,66,248.49,68.73ZM254.44,73c0,.22-1.39.36-3.13.36a10.48,10.48,0,0,1-3.13-.23c0-.09.76-1.52,1.65-3.17l1.61-3,1.48,2.86C253.72,71.37,254.39,72.8,254.44,73Z"/><path class="cls-1" d="M265.75,66.85c-5.68,2.64-5.59,9,.18,11.45,1.34.58,1.83,1,1.66,1.47s.13.85.67,1.17c1.07.58,1.25,1.7.26,2-.84.36-.4,1.08.68,1.08a1.92,1.92,0,0,0,.89-3.71c-2-.76-1.65-1.21.8-1.21,2.64,0,4.12-.4,4.12-1.07,0-.36-1-.54-3.22-.5-3.8,0-5.86-.94-7.25-3.31-.8-1.38-.8-1.65-.22-3.3.94-2.73,2.55-3.67,6.22-3.67,2.55,0,3.13-.14,3.31-.81C274.16,65.24,268.75,65.42,265.75,66.85Z"/><path class="cls-1" d="M279.7,71.86c-1.92,3.4-3.57,6.31-3.66,6.48s.4.36,1.16.36c1.16,0,1.48-.27,2.24-2l.89-2.06,4.11.14,4.12.13.71,1.88c.63,1.74.81,1.92,2.19,1.92H293l-2.72-5.1c-4.39-8.18-4.12-7.87-5.68-7.87C283.28,65.73,283,66.05,279.7,71.86Zm6.13-2c.81,1.56,1.52,3,1.61,3.13s-1.25.36-3,.36a10.65,10.65,0,0,1-3.17-.23,61.58,61.58,0,0,1,3-6A24,24,0,0,1,285.83,69.85Z"/><path class="cls-1" d="M321.51,72.22V78.7h5.59c4.65,0,5.59-.09,5.59-.67s-.8-.67-4.47-.67h-4.47v-5l3.35.31c3.22.31,3.36.27,3.36-.67s-.14-1-3.36-.67l-3.35.31V67.08h4c3.27,0,4-.14,4-.68s-.85-.67-5.14-.67h-5.15Z"/><path class="cls-1" d="M337.43,67.16c-.13.81-.53,3.4-.94,5.77-.89,5.73-.89,5.77.45,5.77.9,0,1.12-.22,1.12-1.12,0-.58.22-3.08.49-5.59l.54-4.47,2.68,5.59c2.24,4.61,2.86,5.59,3.58,5.5s1.7-1.74,3.67-5.59c3.21-6.17,3-6.26,3.62,1.52L353,78.7h1.3c1.2,0,1.29-.09,1.07-1.25-.13-.67-.49-3.58-.76-6.48L354,65.73h-1.7c-1.34,0-1.74.18-2,1a44,44,0,0,1-2.5,5.18l-2.24,4.16-2.19-4.6a45.38,45.38,0,0,1-2.19-5.19c0-.31-.67-.54-1.79-.54C337.79,65.73,337.66,65.82,337.43,67.16Z"/><path class="cls-1" d="M369,69.85c-1.21,2.28-2.86,5.23-3.62,6.48L364,78.7h1.34c1.2,0,1.47-.27,2.23-2l.85-2h8.14l.89,2c.77,1.74,1.08,2,2.2,2,.76,0,1.34-.13,1.34-.27s-1.52-3-3.4-6.48c-3.31-6-3.44-6.22-4.88-6.22S371.11,66,369,69.85Zm6.66,3.22c0,.18-1.38.27-3.13.27a10.08,10.08,0,0,1-3.13-.27A25.45,25.45,0,0,1,371,69.94l1.61-2.86L374.1,70A26.17,26.17,0,0,1,375.62,73.07Z"/><path class="cls-1" d="M381.43,66.05c0,.13,1.53,3.08,3.4,6.48,2.28,4.16,3.63,6.17,4.12,6.17.71,0,7.69-11.36,7.69-12.52,0-.27-.49-.45-1.12-.36-.89.09-1.52,1-3.67,5.46l-2.63,5.32-2.64-5.46c-2.46-5-2.78-5.41-3.89-5.41C382,65.73,381.43,65.87,381.43,66.05Z"/><path class="cls-1" d="M399.77,72.22v6.53l5.45-.14c3.85-.09,5.5-.31,5.64-.71s-.94-.54-4.34-.54H402v-5l3.13.31c3,.27,3.13.22,3.13-.67s-.13-.94-3.13-.67l-3.13.31V67.08h4c3.26,0,4-.14,4-.68s-.85-.67-5.14-.67h-5.14Z"/><path class="cls-1" d="M414.53,72.22V78.7h2.23v-13h-2.23Z"/><path class="cls-1" d="M422.13,72.17V78.7h2.59L424.5,76l-.27-2.68h2.59c2.24,0,2.69.13,3.8,1.34a10.63,10.63,0,0,1,1.79,2.68c.45,1.07.85,1.34,1.84,1.34h1.29l-1.07-2.19A14.71,14.71,0,0,0,432,73.16c-.76-.63-1.11-1.17-.8-1.17,1,0,2.59-2,2.59-3.22,0-2.19-1.38-2.81-6.75-3l-4.87-.18Zm8.4-4.38c2.33,1.61.59,3.71-3.44,4.07l-2.73.27v-5H427A6.86,6.86,0,0,1,430.53,67.79Z"/></g></g></svg>