<svg xmlns="http://www.w3.org/2000/svg" viewBox="0 0 408.96 94.71"><defs><style>.cls-1{fill:#fff;}</style></defs><g id="Layer_2" data-name="Layer 2"><g id="Layer_1-2" data-name="Layer 1"><path class="cls-1" d="M131.43,87.16a6.32,6.32,0,0,1-6.5-6.5V31.4a6.5,6.5,0,1,1,13,0V80.66a6.32,6.32,0,0,1-6.5,6.5Zm0-86.9A7.69,7.69,0,0,1,139,7.87a7.61,7.61,0,1,1-15.22,0A7.68,7.68,0,0,1,131.43.26Zm46.91,87.45a36,36,0,0,1-22-7,7,7,0,0,1-2.77-5.4c0-2.77,2.21-4.57,5-4.57a8,8,0,0,1,5.12,1.94A26.08,26.08,0,0,0,179.31,78c7.47,0,11.48-2.77,11.48-7.06,0-4.7-3.87-6.5-13.57-9.13C160.19,57.27,154,51.46,154,41.5c0-10.38,9.55-17.16,24.48-17.16a40.66,40.66,0,0,1,17.14,3.88C199.32,30,202,32.22,202,35c0,2.5-1.38,4.85-5,4.85-1.8,0-3.6-.83-5.68-1.94a27.16,27.16,0,0,0-13.15-3.18c-6.93,0-11.64,1.8-11.64,6.64s4.16,6.22,14.12,9.13c14.95,4.29,22.7,8.31,22.7,19.53,0,10.24-8.58,17.72-25,17.72m62.65,0a36,36,0,0,1-22-7,7,7,0,0,1-2.77-5.4c0-2.77,2.22-4.57,5-4.57a8,8,0,0,1,5.12,1.94,26,26,0,0,0,15.62,5.4c7.48,0,11.49-2.77,11.49-7.07,0-4.7-3.87-6.5-13.56-9.13-17-4.55-23.26-10.36-23.26-20.33,0-10.36,9.55-17.15,24.49-17.15a41,41,0,0,1,17.17,3.88c3.74,1.8,6.37,4,6.37,6.79,0,2.49-1.39,4.84-5,4.84-1.8,0-3.6-.83-5.66-1.94a27.22,27.22,0,0,0-13.14-3.17c-6.91,0-11.61,1.8-11.61,6.64s4.15,6.24,14.11,9.14c15,4.3,22.7,8.31,22.7,19.52,0,10.25-8.58,17.71-25,17.71m37.61-28.94V31.45a6.51,6.51,0,1,1,13,0V60.37c0,8.72,6.78,15.49,15.92,15.49s16.05-6.79,16.05-15.51V31.41a6.51,6.51,0,0,1,13,0V58.8c0,16.19-12.3,28.91-29.05,28.91S278.59,75,278.59,58.8m72.39,0V31.4a6.5,6.5,0,0,1,13,0V60.29c0,8.72,6.79,15.51,15.91,15.51S396,69,396,60.29V31.38a6.51,6.51,0,1,1,13,0v27.4c0,16.18-12.3,28.91-29.06,28.91S351,75,351,58.78"/><path class="cls-1" d="M47.58,59.38A12.2,12.2,0,1,1,59.89,47.31,12.2,12.2,0,0,1,47.58,59.38Zm.34-36.29A24.09,24.09,0,1,0,71.76,47.41,24.1,24.1,0,0,0,47.92,23.09Z"/><path class="cls-1" d="M14.82,46.69a32.88,32.88,0,1,1,32.57,33.2,32.88,32.88,0,0,1-32.57-33.2ZM47.35,0H3.93A3.94,3.94,0,0,0,0,3.93V47.35A47.36,47.36,0,1,0,47.35,0Z"/></g></g></svg>