<svg xmlns="http://www.w3.org/2000/svg" xmlns:xlink="http://www.w3.org/1999/xlink" viewBox="0 0 412.92 299.35"><defs><style>.cls-1{clip-path:url(#clip-path);}.cls-2{fill:none;}.cls-3{fill:url(#linear-gradient);}.cls-4{clip-path:url(#clip-path-2);}.cls-5{fill:url(#linear-gradient-2);}.cls-6{clip-path:url(#clip-path-3);}.cls-7{fill:url(#linear-gradient-3);}.cls-8{clip-path:url(#clip-path-4);}.cls-9{fill:url(#linear-gradient-4);}.cls-10{clip-path:url(#clip-path-5);}.cls-11{fill:url(#linear-gradient-5);}.cls-12{fill:#fff;}.cls-13{isolation:isolate;}.cls-14{clip-path:url(#clip-path-6);}.cls-15{opacity:0.99;}.cls-16{clip-path:url(#clip-path-7);}.cls-17{clip-path:url(#clip-path-8);}.cls-18{clip-path:url(#clip-path-9);}.cls-19{clip-path:url(#clip-path-10);}.cls-20{clip-path:url(#clip-path-12);}.cls-21{opacity:0.4;}.cls-22{clip-path:url(#clip-path-13);}.cls-23{mask:url(#mask);}.cls-24{clip-path:url(#clip-path-14);}.cls-25{clip-path:url(#clip-path-15);}.cls-26{fill:url(#linear-gradient-6);}.cls-27{clip-path:url(#clip-path-16);}.cls-28{mix-blend-mode:multiply;opacity:0.5;}.cls-29{clip-path:url(#clip-path-17);}.cls-30{mask:url(#mask-2);}.cls-31{clip-path:url(#clip-path-18);}.cls-32{clip-path:url(#clip-path-19);}.cls-33{clip-path:url(#clip-path-20);}.cls-34{opacity:0.45;}.cls-35{clip-path:url(#clip-path-21);}.cls-36{mask:url(#mask-3);}.cls-37{clip-path:url(#clip-path-22);}.cls-38{clip-path:url(#clip-path-23);}.cls-39{fill:url(#linear-gradient-7);}.cls-40{clip-path:url(#clip-path-24);}.cls-41{clip-path:url(#clip-path-25);}.cls-42{mask:url(#mask-4);}.cls-43{clip-path:url(#clip-path-26);}.cls-44{clip-path:url(#clip-path-27);}.cls-45{fill:url(#linear-gradient-8);}.cls-46{clip-path:url(#clip-path-28);}.cls-47{mask:url(#mask-5);}.cls-48{clip-path:url(#clip-path-31);}.cls-49{clip-path:url(#clip-path-33);}</style><clipPath id="clip-path"><path class="cls-2" d="M152.48,42.6a25.38,25.38,0,0,1,17-42.46c-.9-.08-1.81-.14-2.69-.14a25.5,25.5,0,0,0-18.87,42.6L185.6,79.78l2.18-2.23c-35.3-34.93-35.3-34.95-35.3-34.95"/></clipPath><linearGradient id="linear-gradient" x1="2525.25" y1="1678.36" x2="2527.63" y2="1678.36" gradientTransform="matrix(-3.42, 21.75, 21.75, 3.42, -27702.74, -60644.26)" gradientUnits="userSpaceOnUse"><stop offset="0"/><stop offset="0.5" stop-color="#fff"/><stop offset="1"/></linearGradient><clipPath id="clip-path-2"><path class="cls-2" d="M271.57,79.81a25.06,25.06,0,0,0-1.88-9.58c3.88,16.62-11.31,26-21.83,33.27-10.73,7.45-81,56.1-81,56.1a25,25,0,0,0,13.71-4l79.83-54.71a25.33,25.33,0,0,0,11.19-21"/></clipPath><linearGradient id="linear-gradient-2" x1="2550.31" y1="1863.73" x2="2552.69" y2="1863.73" gradientTransform="matrix(36.57, -24.67, -24.67, -36.57, -47117.26, 131218.46)" gradientUnits="userSpaceOnUse"><stop offset="0" stop-color="#fff"/><stop offset="0.14" stop-color="#fff"/><stop offset="0.49" stop-color="gray"/><stop offset="1"/></linearGradient><clipPath id="clip-path-3"><path class="cls-2" d="M261.07,59.29,183.48,6.07s57.2,38.63,74.84,60.32S243.86,112.16,225.21,125l35.17-24.1a25.34,25.34,0,0,0,.69-41.56"/></clipPath><linearGradient id="linear-gradient-3" x1="2473.09" y1="1778.71" x2="2475.46" y2="1778.71" gradientTransform="matrix(19.38, 19.38, 19.38, -19.38, -82219.69, -13420.15)" gradientUnits="userSpaceOnUse"><stop offset="0" stop-color="#fff"/><stop offset="0.12" stop-color="#fbfbfb"/><stop offset="0.25" stop-color="#eee"/><stop offset="0.37" stop-color="#dadada"/><stop offset="0.5" stop-color="#bcbcbc"/><stop offset="0.63" stop-color="#979797"/><stop offset="0.76" stop-color="#696969"/><stop offset="0.89" stop-color="#343434"/><stop offset="1"/></linearGradient><clipPath id="clip-path-4"><path class="cls-2" d="M141.41,135.16C142.9,131.38,176,106,195.1,87.51,208.8,74.21,213,61,212.39,49.41c-.93-18.29-19.71-36-27.6-42.26-.67-.53-2.74-2.06-2.74-2.06l1.3,1c7.18,6,19.25,19.57,20.12,36.54C204,53.43,200.06,65.58,187.42,78c-.61.6-1.24,1.18-1.82,1.79l-36.44,36a25.75,25.75,0,0,0-7.77,18.42c0,.34,0,.67,0,1"/></clipPath><linearGradient id="linear-gradient-4" x1="2592.05" y1="1871.73" x2="2594.43" y2="1871.73" gradientTransform="matrix(14.52, -39.89, -39.89, -14.52, 37200.6, 130701.75)" xlink:href="#linear-gradient"/><clipPath id="clip-path-5"><path class="cls-2" d="M152.91,135.14c-.15-9.58,8.43-17.94,13.93-22.63l-7-7.28c-9.32,9.19-10.48,10.29-10.48,10.29a25.87,25.87,0,0,0-8,18.63,25.46,25.46,0,0,0,25.45,25.45,25,25,0,0,0,13.71-4l1.76-1.21-2.68-3.6c-15.07,8-26.5-2.39-26.72-15.61"/></clipPath><linearGradient id="linear-gradient-5" x1="2457.05" y1="1772.66" x2="2459.42" y2="1772.66" gradientTransform="matrix(16.74, 16.74, 16.74, -16.74, -70668.36, -11338.72)" gradientUnits="userSpaceOnUse"><stop offset="0" stop-color="#fff"/><stop offset="0.27" stop-color="#fff"/><stop offset="0.49" stop-color="gray"/><stop offset="0.76"/><stop offset="1"/></linearGradient><clipPath id="clip-path-6" transform="translate(0 0)"><rect class="cls-2" x="141.39" y="0.04" width="62.13" height="79.74"/></clipPath><clipPath id="clip-path-7" transform="translate(0 0)"><rect class="cls-2" x="141.39" y="0.04" width="62.13" height="79.74"/></clipPath><clipPath id="clip-path-8" transform="translate(0 0)"><path class="cls-2" d="M187.42,78c-.61.6-1.21,1.21-1.82,1.79L148,42.64A25.5,25.5,0,0,1,166.84,0a25.27,25.27,0,0,1,13.71,4l1.5,1,1.3,1c7.18,6,19.25,19.57,20.12,36.54C204,53.43,200.06,65.58,187.42,78"/></clipPath><clipPath id="clip-path-9" transform="translate(0 0)"><rect class="cls-2" x="141.39" y="5.09" width="130.18" height="154.51"/></clipPath><clipPath id="clip-path-10" transform="translate(0 0)"><rect class="cls-2" x="141.39" y="5.09" width="130.18" height="154.51"/></clipPath><clipPath id="clip-path-12" transform="translate(0 0)"><rect class="cls-2" x="141.35" width="46.43" height="79.78"/></clipPath><clipPath id="clip-path-13" transform="translate(0 0)"><rect class="cls-2" x="141.35" width="46.43" height="79.78"/></clipPath><mask id="mask" x="129.12" y="-7.12" width="70.88" height="94.01" maskUnits="userSpaceOnUse"><g transform="translate(0 0)"><g class="cls-1"><path class="cls-3" d="M152.48,42.6a25.38,25.38,0,0,1,17-42.46c-.9-.08-1.81-.14-2.69-.14a25.5,25.5,0,0,0-18.87,42.6L185.6,79.78l2.18-2.23c-35.3-34.93-35.3-34.95-35.3-34.95"/></g></g></mask><clipPath id="clip-path-14" transform="translate(0 0)"><rect class="cls-2" x="129.12" y="-7.12" width="70.88" height="94.01"/></clipPath><clipPath id="clip-path-15" transform="translate(0 0)"><path class="cls-2" d="M152.48,42.6a25.38,25.38,0,0,1,17-42.46c-.9-.08-1.81-.14-2.69-.14a25.5,25.5,0,0,0-18.87,42.6L185.6,79.78l2.18-2.23c-35.3-34.93-35.3-34.95-35.3-34.95"/></clipPath><linearGradient id="linear-gradient-6" x1="2525.25" y1="1678.36" x2="2527.63" y2="1678.36" gradientTransform="matrix(-3.42, 21.75, 21.75, 3.42, -27702.74, -60644.26)" gradientUnits="userSpaceOnUse"><stop offset="0" stop-color="#fff"/><stop offset="0.5" stop-color="#fff"/><stop offset="1" stop-color="#fff"/></linearGradient><clipPath id="clip-path-16" transform="translate(0 0)"><rect class="cls-2" x="166.84" y="70.23" width="104.73" height="89.38"/></clipPath><clipPath id="clip-path-17" transform="translate(0 0)"><rect class="cls-2" x="166.84" y="70.23" width="104.73" height="89.38"/></clipPath><mask id="mask-2" x="125.41" y="20.75" width="189.6" height="188.33" maskUnits="userSpaceOnUse"><g transform="translate(0 0)"><g class="cls-4"><path class="cls-5" d="M271.57,79.81a25.06,25.06,0,0,0-1.88-9.58c3.88,16.62-11.31,26-21.83,33.27-10.73,7.45-81,56.1-81,56.1a25,25,0,0,0,13.71-4l79.83-54.71a25.33,25.33,0,0,0,11.19-21"/></g></g></mask><clipPath id="clip-path-18" transform="translate(0 0)"><rect class="cls-2" x="125.41" y="20.75" width="189.6" height="188.33"/></clipPath><clipPath id="clip-path-19" transform="translate(0 0)"><path class="cls-2" d="M271.57,79.81a25.06,25.06,0,0,0-1.88-9.58c3.88,16.62-11.31,26-21.83,33.27-10.73,7.45-81,56.1-81,56.1a25,25,0,0,0,13.71-4l79.83-54.71a25.33,25.33,0,0,0,11.19-21"/></clipPath><clipPath id="clip-path-20" transform="translate(0 0)"><rect class="cls-2" x="183.48" y="6.07" width="88.09" height="118.88"/></clipPath><clipPath id="clip-path-21" transform="translate(0 0)"><rect class="cls-2" x="183.48" y="6.07" width="88.09" height="118.88"/></clipPath><mask id="mask-3" x="124.04" y="-40.17" width="211.36" height="211.36" maskUnits="userSpaceOnUse"><g transform="translate(0 0)"><g class="cls-6"><path class="cls-7" d="M261.07,59.29,183.48,6.07s57.2,38.63,74.84,60.32S243.86,112.16,225.21,125l35.17-24.1a25.34,25.34,0,0,0,.69-41.56"/></g></g></mask><clipPath id="clip-path-22" transform="translate(0 0)"><rect class="cls-2" x="124.04" y="-40.17" width="211.36" height="211.36"/></clipPath><clipPath id="clip-path-23" transform="translate(0 0)"><path class="cls-2" d="M261.07,59.29,183.48,6.07s57.2,38.63,74.84,60.32S243.86,112.16,225.21,125l35.17-24.1a25.34,25.34,0,0,0,.69-41.56"/></clipPath><linearGradient id="linear-gradient-7" x1="2473.09" y1="1778.71" x2="2475.46" y2="1778.71" gradientTransform="matrix(19.38, 19.38, 19.38, -19.38, -82219.69, -13420.15)" gradientUnits="userSpaceOnUse"><stop offset="0" stop-color="#fff"/><stop offset="1" stop-color="#fff"/></linearGradient><clipPath id="clip-path-24" transform="translate(0 0)"><rect class="cls-2" x="141.39" y="5.09" width="71.06" height="130.07"/></clipPath><clipPath id="clip-path-25" transform="translate(0 0)"><rect class="cls-2" x="141.39" y="5.09" width="71.06" height="130.07"/></clipPath><mask id="mask-4" x="99.58" y="-17.92" width="155.2" height="176.09" maskUnits="userSpaceOnUse"><g transform="translate(0 0)"><g class="cls-8"><path class="cls-9" d="M141.41,135.16C142.9,131.38,176,106,195.1,87.51,208.8,74.21,213,61,212.39,49.41c-.93-18.29-19.71-36-27.6-42.26-.67-.53-2.74-2.06-2.74-2.06l1.3,1c7.18,6,19.25,19.57,20.12,36.54C204,53.43,200.06,65.58,187.42,78c-.61.6-1.24,1.18-1.82,1.79l-36.44,36a25.75,25.75,0,0,0-7.77,18.42c0,.34,0,.67,0,1"/></g></g></mask><clipPath id="clip-path-26" transform="translate(0 0)"><rect class="cls-2" x="99.58" y="-17.92" width="155.2" height="176.09"/></clipPath><clipPath id="clip-path-27" transform="translate(0 0)"><path class="cls-2" d="M141.41,135.16C142.9,131.38,176,106,195.1,87.51,208.8,74.21,213,61,212.39,49.41c-.93-18.29-19.71-36-27.6-42.26-.67-.53-2.74-2.06-2.74-2.06l1.3,1c7.18,6,19.25,19.57,20.12,36.54C204,53.43,200.06,65.58,187.42,78c-.61.6-1.24,1.18-1.82,1.79l-36.44,36a25.75,25.75,0,0,0-7.77,18.42c0,.34,0,.67,0,1"/></clipPath><linearGradient id="linear-gradient-8" x1="2592.05" y1="1871.73" x2="2594.43" y2="1871.73" gradientTransform="matrix(14.52, -39.89, -39.89, -14.52, 37200.6, 130701.75)" xlink:href="#linear-gradient-6"/><clipPath id="clip-path-28" transform="translate(0 0)"><rect class="cls-2" x="141.39" y="105.23" width="40.92" height="54.37"/></clipPath><mask id="mask-5" x="114.11" y="84.68" width="95.48" height="95.48" maskUnits="userSpaceOnUse"><g transform="translate(0 0)"><g class="cls-10"><polyline class="cls-11" points="163.63 159.62 163.63 159.38 161.97 159.38 161.97 159.15 161.02 159.15 161.02 158.91 160.07 158.91 160.07 158.67 159.12 158.67 159.12 158.44 158.41 158.44 158.41 158.2 157.69 158.2 157.69 157.96 157.22 157.96 157.22 157.72 156.5 157.72 156.5 157.49 156.03 157.49 156.03 157.25 155.55 157.25 155.55 157.01 155.08 157.01 155.08 156.77 154.6 156.77 154.6 156.53 154.13 156.53 154.13 156.3 153.89 156.3 153.89 156.06 153.42 156.06 153.42 155.82 152.94 155.82 152.94 155.59 152.7 155.59 152.7 155.35 152.23 155.35 152.23 155.11 151.99 155.11 151.99 154.87 151.75 154.87 151.75 154.63 151.28 154.63 151.28 154.4 151.04 154.4 151.04 154.16 150.8 154.16 150.8 153.92 150.33 153.92 150.33 153.69 150.09 153.69 150.09 153.45 149.85 153.45 149.85 153.21 149.62 153.21 149.62 152.97 149.38 152.97 149.38 152.74 149.14 152.74 149.14 152.5 148.9 152.5 148.9 152.26 148.67 152.26 148.67 152.02 148.43 152.02 148.43 151.78 148.19 151.78 148.19 151.55 147.95 151.55 147.95 151.31 147.72 151.31 147.72 151.07 147.48 151.07 147.48 150.84 147.24 150.84 147.24 150.6 147 150.6 147 150.12 146.77 150.12 146.77 149.88 146.53 149.88 146.53 149.65 146.29 149.65 146.29 149.17 146.05 149.17 146.05 148.93 145.82 148.93 145.82 148.7 145.58 148.7 145.58 148.22 145.34 148.22 145.34 147.75 145.1 147.75 145.1 147.51 144.87 147.51 144.87 147.03 144.63 147.03 144.63 146.56 144.39 146.56 144.39 146.32 144.15 146.32 144.15 145.85 143.92 145.85 143.92 145.37 143.68 145.37 143.68 144.66 143.44 144.66 143.44 144.18 143.2 144.18 143.2 143.71 142.97 143.71 142.97 143 142.73 143 142.73 142.28 142.49 142.28 142.49 141.57 142.25 141.57 142.25 140.86 142.02 140.86 142.02 139.91 141.78 139.91 141.78 138.48 141.54 138.48 141.54 137.06 141.3 137.06 141.3 131.36 141.54 131.36 141.54 129.93 141.78 129.93 141.78 128.51 142.02 128.51 142.02 127.56 142.25 127.56 142.25 126.61 142.49 126.61 142.49 125.89 142.73 125.89 142.73 125.18 142.97 125.18 142.97 124.71 143.2 124.71 143.2 123.99 143.44 123.99 143.44 123.52 143.68 123.52 143.68 123.04 143.92 123.04 143.92 122.57 144.15 122.57 144.15 122.09 144.39 122.09 144.39 121.62 144.63 121.62 144.63 121.14 144.87 121.14 144.87 120.67 145.1 120.67 145.1 120.43 145.34 120.43 145.34 119.96 145.58 119.96 145.58 119.72 145.82 119.72 145.82 119.24 146.05 119.24 146.05 119.01 146.29 119.01 146.29 118.53 146.53 118.53 146.53 118.29 146.77 118.29 146.77 118.06 147 118.06 147 117.82 147.24 117.82 147.24 117.34 147.48 117.34 147.48 117.11 147.72 117.11 147.72 116.87 147.95 116.87 147.95 116.63 148.19 116.63 148.19 116.39 148.43 116.39 148.43 116.16 148.67 116.16 148.67 115.92 148.9 115.92 148.9 115.68 149.14 115.68 149.14 115.44 149.38 115.44 149.38 115.21 149.62 115.21 149.62 114.97 149.85 114.97 149.85 114.73 150.09 114.73 150.09 114.49 150.33 114.49 150.33 114.26 150.57 114.26 150.57 114.02 150.8 114.02 150.8 113.78 151.04 113.78 151.04 113.54 151.28 113.54 151.28 113.31 151.52 113.31 151.52 113.07 151.75 113.07 151.75 112.83 151.99 112.83 151.99 112.59 152.23 112.59 152.23 112.36 152.47 112.36 152.47 112.12 152.7 112.12 152.7 111.88 152.94 111.88 152.94 111.64 153.18 111.64 153.18 111.41 153.42 111.41 153.42 111.17 153.65 111.17 153.65 110.93 153.89 110.93 153.89 110.69 154.13 110.69 154.13 110.46 154.37 110.46 154.37 110.22 154.6 110.22 154.6 109.98 154.84 109.98 154.84 109.74 155.08 109.74 155.08 109.51 155.32 109.51 155.32 109.27 155.55 109.27 155.55 109.03 155.79 109.03 155.79 108.79 156.03 108.79 156.03 108.56 156.27 108.56 156.27 108.32 156.5 108.32 156.5 108.08 156.74 108.08 156.74 107.84 156.98 107.84 156.98 107.61 157.22 107.61 157.22 107.37 157.46 107.37 157.46 107.13 157.69 107.13 157.69 106.89 157.93 106.89 157.93 106.66 158.17 106.66 158.17 106.42 158.41 106.42 158.41 106.18 158.64 106.18 158.64 105.94 158.88 105.94 158.88 105.7 159.12 105.7 159.12 105.47 159.59 105.47 159.59 105.23 160.31 105.23 160.31 105.7 160.54 105.7 160.54 105.94 160.78 105.94 160.78 106.18 161.02 106.18 161.02 106.42 161.25 106.42 161.25 106.66 161.49 106.66 161.49 106.89 161.73 106.89 161.73 107.13 161.97 107.13 161.97 107.37 162.21 107.37 162.21 107.61 162.44 107.61 162.44 107.84 162.68 107.84 162.68 108.08 162.92 108.08 162.92 108.32 163.16 108.32 163.16 108.56 163.39 108.56 163.39 108.79 163.63 108.79 163.63 109.03 163.87 109.03 163.87 109.27 164.1 109.27 164.1 109.51 164.34 109.51 164.34 109.74 164.58 109.74 164.58 109.98 164.82 109.98 164.82 110.22 165.06 110.22 165.06 110.46 165.29 110.46 165.29 110.69 165.53 110.69 165.53 110.93 165.77 110.93 165.77 111.17 166 111.17 166 111.41 166.24 111.41 166.24 111.88 166.48 111.88 166.48 112.12 166.72 112.12 166.72 112.36 166.96 112.36 166.96 112.83 166.48 112.83 166.48 113.07 166.24 113.07 166.24 113.31 166 113.31 166 113.54 165.77 113.54 165.77 113.78 165.53 113.78 165.53 114.02 165.29 114.02 165.29 114.26 165.06 114.26 165.06 114.49 164.82 114.49 164.82 114.73 164.58 114.73 164.58 114.97 164.1 114.97 164.1 115.21 163.87 115.21 163.87 115.44 163.63 115.44 163.63 115.68 163.39 115.68 163.39 115.92 163.16 115.92 163.16 116.16 162.92 116.16 162.92 116.39 162.68 116.39 162.68 116.63 162.44 116.63 162.44 116.87 162.21 116.87 162.21 117.11 161.97 117.11 161.97 117.34 161.73 117.34 161.73 117.58 161.49 117.58 161.49 118.06 161.25 118.06 161.25 118.29 161.02 118.29 161.02 118.53 160.78 118.53 160.78 118.77 160.54 118.77 160.54 119.01 160.31 119.01 160.31 119.24 160.07 119.24 160.07 119.48 159.83 119.48 159.83 119.72 159.59 119.72 159.59 120.19 159.35 120.19 159.35 120.43 159.12 120.43 159.12 120.67 158.88 120.67 158.88 120.91 158.64 120.91 158.64 121.38 158.41 121.38 158.41 121.62 158.17 121.62 158.17 121.86 157.93 121.86 157.93 122.09 157.69 122.09 157.69 122.57 157.46 122.57 157.46 123.04 157.22 123.04 157.22 123.28 156.98 123.28 156.98 123.76 156.74 123.76 156.74 123.99 156.5 123.99 156.5 124.47 156.27 124.47 156.27 124.71 156.03 124.71 156.03 125.18 155.79 125.18 155.79 125.66 155.55 125.66 155.55 126.13 155.32 126.13 155.32 126.61 155.08 126.61 155.08 127.08 154.84 127.08 154.84 127.56 154.6 127.56 154.6 128.03 154.37 128.03 154.37 128.75 154.13 128.75 154.13 129.46 153.89 129.46 153.89 130.41 153.65 130.41 153.65 131.12 153.42 131.12 153.42 132.31 153.18 132.31 153.18 133.97 152.94 133.97 152.94 135.87 153.18 135.87 153.18 138.01 153.42 138.01 153.42 139.43 153.65 139.43 153.65 140.38 153.89 140.38 153.89 141.1 154.13 141.1 154.13 142.05 154.37 142.05 154.37 142.52 154.6 142.52 154.6 143 154.84 143 154.84 143.71 155.08 143.71 155.08 144.18 155.32 144.18 155.32 144.66 155.55 144.66 155.55 145.13 155.79 145.13 155.79 145.37 156.03 145.37 156.03 145.85 156.27 145.85 156.27 146.32 156.5 146.32 156.5 146.56 156.74 146.56 156.74 146.8 156.98 146.8 156.98 147.27 157.22 147.27 157.22 147.51 157.46 147.51 157.46 147.75 157.69 147.75 157.69 147.98 157.93 147.98 157.93 148.46 158.17 148.46 158.17 148.7 158.41 148.7 158.41 148.93 158.64 148.93 158.64 149.17 158.88 149.17 158.88 149.41 159.12 149.41 159.12 149.65 159.59 149.65 159.59 149.88 159.83 149.88 159.83 150.12 160.07 150.12 160.07 150.36 160.31 150.36 160.31 150.6 160.78 150.6 160.78 150.84 161.02 150.84 161.02 151.07 161.49 151.07 161.49 151.31 161.97 151.31 161.97 151.55 162.21 151.55 162.21 151.78 162.68 151.78 162.68 152.02 163.39 152.02 163.39 152.26 163.87 152.26 163.87 152.5 164.58 152.5 164.58 152.74 165.29 152.74 165.29 152.97 166.24 152.97 166.24 153.21 167.91 153.21 167.91 153.45 170.99 153.45 170.99 153.21 172.66 153.21 172.66 152.97 173.84 152.97 173.84 152.74 174.56 152.74 174.56 152.5 175.27 152.5 175.27 152.26 175.98 152.26 175.98 152.02 176.69 152.02 176.69 151.78 177.41 151.78 177.41 151.55 177.88 151.55 177.88 151.31 178.36 151.31 178.36 151.07 178.83 151.07 178.83 150.84 179.31 150.84 179.31 150.6 179.78 150.6 179.78 150.84 180.02 150.84 180.02 151.07 180.26 151.07 180.26 151.55 180.49 151.55 180.49 151.78 180.73 151.78 180.73 152.02 180.97 152.02 180.97 152.5 181.21 152.5 181.21 152.74 181.44 152.74 181.44 152.97 181.68 152.97 181.68 153.45 181.92 153.45 181.92 153.69 182.16 153.69 182.16 153.92 182.4 153.92 182.4 154.63 181.92 154.63 181.92 154.87 181.68 154.87 181.68 155.11 181.44 155.11 181.44 155.35 180.97 155.35 180.97 155.59 180.73 155.59 180.73 155.82 180.26 155.82 180.26 156.06 179.78 156.06 179.78 156.3 179.54 156.3 179.54 156.53 179.07 156.53 179.07 156.77 178.59 156.77 178.59 157.01 178.12 157.01 178.12 157.25 177.64 157.25 177.64 157.49 176.93 157.49 176.93 157.72 176.46 157.72 176.46 157.96 175.74 157.96 175.74 158.2 175.03 158.2 175.03 158.44 174.56 158.44 174.56 158.67 173.61 158.67 173.61 158.91 172.66 158.91 172.66 159.15 171.47 159.15 171.47 159.38 170.04 159.38 170.04 159.62"/></g></g></mask><clipPath id="clip-path-31" transform="translate(0 0)"><rect class="cls-2" x="114.11" y="84.68" width="95.48" height="95.48"/></clipPath><clipPath id="clip-path-33" transform="translate(0 0)"><path class="cls-12" d="M152.91,135.14c-.15-9.58,8.43-17.94,13.93-22.63l-7-7.28c-9.32,9.19-10.48,10.29-10.48,10.29a25.87,25.87,0,0,0-8,18.63,25.46,25.46,0,0,0,25.45,25.45,25,25,0,0,0,13.71-4l1.76-1.21-2.68-3.6c-15.07,8-26.5-2.39-26.72-15.61"/></clipPath></defs><g id="Layer_2" data-name="Layer 2"><g id="Layer_1-2" data-name="Layer 1"><g class="cls-13"><path class="cls-12" d="M109.47,229.44l-6-1.46c-7.09-1.77-9.61-3-9.61-6.35,0-3.19,3.27-5.32,8.14-5.32,5.52,0,9,2.14,10.5,6.54a1.43,1.43,0,0,0,1.66.91l12.06-2.55a1.43,1.43,0,0,0,1.11-1.77c-2.68-10.08-11.6-15.64-25.11-15.64-15.26,0-25.13,7.44-25.13,18.95,0,5.32,1.6,9.13,5,12s8.76,4.63,13.46,5.9l7,1.8c7.08,1.78,9.6,3,9.6,6.35,0,4.34-4.78,5.89-9.26,5.89-6.29,0-10.11-2.45-12.37-7.93a1.45,1.45,0,0,0-1.66-.87l-12.35,2.76a1.51,1.51,0,0,0-.93.67,1.42,1.42,0,0,0-.16,1.1C78.3,261.11,87.82,267,102.27,267c16.86,0,26.93-7.26,26.93-19.4,0-11-7.55-15.08-19.73-18.15" transform="translate(0 0)"/><path class="cls-12" d="M233.44,217.65a11.63,11.63,0,0,1,8.37,3.1,3.69,3.69,0,0,0,3.76.75l11.15-3.92a1.43,1.43,0,0,0,.68-2.16c-5-7.38-13.65-11.73-24-11.73-18.66,0-31.2,12.81-31.2,31.87S214.31,267,233,267c10.36,0,18.86-4,24-11a1.42,1.42,0,0,0-.62-2.19l-11-4.12a3.64,3.64,0,0,0-3.64.74,12.32,12.32,0,0,1-8.28,2.79c-8.83,0-14.09-6.61-14.09-17.69,0-11.38,5.13-17.91,14.09-17.91" transform="translate(0 0)"/><path class="cls-12" d="M290.83,194.64H274.06v12.08a.33.33,0,0,1-.33.33H264.4v13h9.66v26.31a49.11,49.11,0,0,0,1,11.33,10.44,10.44,0,0,0,10.15,7.85h13.55a1.41,1.41,0,0,0,1.41-1.41v-2.28c-6.39-2.53-9.33-3.74-9.33-20.2V220h8a3.79,3.79,0,0,0,3.78-3.77v-9.22H290.83" transform="translate(0 0)"/><path class="cls-12" d="M339.2,203.69c-18.7,0-31.76,13.06-31.76,31.76,0,18.86,12.72,31.54,31.65,31.54,18.63,0,31.64-13,31.64-31.54s-13-31.76-31.53-31.76m14.42,31.87c0,11.24-5.29,17.69-14.53,17.69s-14.77-6.49-14.77-17.8c0-11,5.66-17.91,14.77-17.91s14.53,6.91,14.53,18" transform="translate(0 0)"/><path class="cls-12" d="M0,265.51H12.71a2.82,2.82,0,0,0,2.82-2.82V205.37H0" transform="translate(0 0)"/><path class="cls-12" d="M22.4,218.31H38.67v47.2H51.38a2.83,2.83,0,0,0,2.83-2.82V218.31H66.55a3.77,3.77,0,0,0,3.77-3.77v-9.17H22.4" transform="translate(0 0)"/><path class="cls-12" d="M412.92,205.37h-8A11,11,0,0,0,394,215.79V205.37H377.48v60.14H391.2a2.82,2.82,0,0,0,2.83-2.83v-31.3a13.51,13.51,0,0,1,13.49-13h1.63a3.77,3.77,0,0,0,3.77-3.77" transform="translate(0 0)"/><polyline class="cls-12" points="4.87 285.2 0 285.2 0 283.03 12.18 283.03 12.18 285.2 7.35 285.2 7.35 299.05 4.87 299.05"/><polyline class="cls-12" points="27.71 283.03 30.15 283.03 30.15 289.68 37.92 289.68 37.92 283.03 40.35 283.03 40.35 299.05 37.92 299.05 37.92 291.81 30.15 291.81 30.15 299.05 27.71 299.05"/><polyline class="cls-12" points="57.53 283.03 67.96 283.03 67.96 285.18 59.93 285.18 59.93 289.74 67.39 289.74 67.39 291.89 59.93 291.89 59.93 296.89 68.13 296.89 68.13 299.05 57.53 299.05"/><path class="cls-12" d="M103,283h3.14l5.39,9.06c.79,1.32,1.65,2.83,2.29,4h0c0-1.23,0-2.37,0-4v-9h2.39v16h-3.1l-5.52-9.24c-.88-1.47-1.61-2.74-2.24-3.86h0c0,1,.07,2.52.07,3.68v9.42H103" transform="translate(0 0)"/><polyline class="cls-12" points="133.35 283.03 143.77 283.03 143.77 285.18 135.74 285.18 135.74 289.74 143.2 289.74 143.2 291.89 135.74 291.89 135.74 296.89 143.95 296.89 143.95 299.05 133.35 299.05"/><polyline class="cls-12" points="163.89 290.84 158.63 283.03 161.5 283.03 165.39 289.04 169.29 283.03 172.08 283.03 166.83 290.8 172.47 299.05 169.51 299.05 165.3 292.57 161.06 299.05 158.28 299.05"/><polyline class="cls-12" points="190.9 285.2 186.03 285.2 186.03 283.03 198.21 283.03 198.21 285.2 193.38 285.2 193.38 299.05 190.9 299.05"/><path class="cls-12" d="M231.59,283h5.51c5.37,0,7.92,3,7.92,7.88,0,4.56-2.24,8.14-7.79,8.14h-5.64m5.22-2.09c3.51,0,5.69-1.75,5.69-5.86,0-2.35-.6-4.06-2.09-5-1.25-.77-2.72-.95-5.11-.95h-1.25V297Z" transform="translate(0 0)"/><rect class="cls-12" x="261.28" y="283.03" width="2.46" height="16.02"/><path class="cls-12" d="M280,291.1c0-4.85,3.16-8.38,8-8.38,3.44,0,5.9,1.71,6.78,4.37l-2.44.52a4.47,4.47,0,0,0-4.32-2.76c-3.4,0-5.44,2.61-5.44,6.23s2.13,6.26,5.46,6.26c2.92,0,4.46-1.81,4.63-4.7h-5.37v-2.15h7.61v8.56h-2.35v-.49c0-.46,0-.92,0-1.18h0a6.14,6.14,0,0,1-4.8,2c-4.72,0-7.71-3.37-7.71-8.25" transform="translate(0 0)"/><rect class="cls-12" x="311.33" y="283.03" width="2.46" height="16.02"/><polyline class="cls-12" points="334.2 285.2 329.32 285.2 329.32 283.03 341.5 283.03 341.5 285.2 336.68 285.2 336.68 299.05 334.2 299.05"/><path class="cls-12" d="M359.85,283h2.68l6.36,16h-2.63l-1.69-4.42H357.7L356,299.05h-2.53m10.31-6.54-1.27-3.45c-.5-1.38-1-2.83-1.36-3.82h0c-.33,1-.81,2.44-1.36,3.86l-1.3,3.41Z" transform="translate(0 0)"/><polyline class="cls-12" points="384.12 283.03 386.57 283.03 386.57 296.88 394.03 296.88 394.03 299.05 384.12 299.05"/><path class="cls-12" d="M165.72,203.65a31.65,31.65,0,1,0,0,63.29h1.51a34,34,0,0,0,27.9-14.31,1.42,1.42,0,0,0-.7-2.13l-10.83-4a4.18,4.18,0,0,0-4.25,1.12,16.52,16.52,0,0,1-11.95,5.24h-1.68c-6.79,0-12.83-5.43-14.59-13h42.53a3.78,3.78,0,0,0,3.78-3.68c0-.3,0-.59,0-.89a31.72,31.72,0,0,0-31.73-31.65m13.59,23.95H152.13c2.53-6,7.79-9.89,13.59-9.89s11.07,3.86,13.59,9.89" transform="translate(0 0)"/><g class="cls-14"><g class="cls-15"><g class="cls-16"><g class="cls-17"><path class="cls-12" d="M187.42,78c-.61.6-1.21,1.21-1.82,1.79L148,42.64A25.5,25.5,0,0,1,166.84,0a25.27,25.27,0,0,1,13.71,4l1.5,1,1.3,1c7.18,6,19.25,19.57,20.12,36.54C204,53.43,200.06,65.58,187.42,78" transform="translate(0 0)"/></g></g></g></g><g class="cls-18"><g class="cls-15"><g class="cls-19"><g class="cls-18"><path class="cls-12" d="M261.07,59.29l-79-54.2,1.3,1c7.19,6,19.25,19.57,20.12,36.54C204,53.43,200,65.54,187.42,78c-.59.58-1.17,1.14-1.82,1.79-10,9.86-27.33,27-36.36,35.87a25.75,25.75,0,0,0-7.85,18.5,25.45,25.45,0,0,0,25.45,25.45,25,25,0,0,0,13.71-4l79.83-54.71a25.34,25.34,0,0,0,.69-41.56" transform="translate(0 0)"/></g></g></g></g><g class="cls-20"><g class="cls-21"><g class="cls-22"><g class="cls-23"><g class="cls-24"><g class="cls-25"><path class="cls-26" d="M152.48,42.6a25.38,25.38,0,0,1,17-42.46c-.9-.08-1.81-.14-2.69-.14a25.5,25.5,0,0,0-18.87,42.6L185.6,79.78l2.18-2.23c-35.3-34.93-35.3-34.95-35.3-34.95" transform="translate(0 0)"/></g></g></g></g></g></g><g class="cls-27"><g class="cls-28"><g class="cls-29"><g class="cls-30"><g class="cls-31"><g class="cls-32"><path class="cls-12" d="M271.57,79.81a25.06,25.06,0,0,0-1.88-9.58c3.88,16.62-11.31,26-21.83,33.27-10.73,7.45-81,56.1-81,56.1a25,25,0,0,0,13.71-4l79.83-54.71a25.33,25.33,0,0,0,11.19-21" transform="translate(0 0)"/></g></g></g></g></g></g><g class="cls-33"><g class="cls-34"><g class="cls-35"><g class="cls-36"><g class="cls-37"><g class="cls-38"><path class="cls-39" d="M261.07,59.29,183.48,6.07s57.2,38.63,74.84,60.32S243.86,112.16,225.21,125l35.17-24.1a25.34,25.34,0,0,0,.69-41.56" transform="translate(0 0)"/></g></g></g></g></g></g><g class="cls-40"><g class="cls-21"><g class="cls-41"><g class="cls-42"><g class="cls-43"><g class="cls-44"><path class="cls-45" d="M141.41,135.16C142.9,131.38,176,106,195.1,87.51,208.8,74.21,213,61,212.39,49.41c-.93-18.29-19.71-36-27.6-42.26-.67-.53-2.74-2.06-2.74-2.06l1.3,1c7.18,6,19.25,19.57,20.12,36.54C204,53.43,200.06,65.58,187.42,78c-.61.6-1.24,1.18-1.82,1.79l-36.44,36a25.75,25.75,0,0,0-7.77,18.42c0,.34,0,.67,0,1" transform="translate(0 0)"/></g></g></g></g></g></g><g class="cls-46"><g class="cls-28"><g class="cls-46"><g class="cls-47"><g class="cls-48"><g class="cls-46"><path class="cls-12" d="M152.91,135.14c-.15-9.58,8.43-17.94,13.93-22.63l-7-7.28c-9.32,9.19-10.48,10.29-10.48,10.29a25.87,25.87,0,0,0-8,18.63,25.46,25.46,0,0,0,25.45,25.45,25,25,0,0,0,13.71-4l1.76-1.21-2.68-3.6c-15.07,8-26.5-2.39-26.72-15.61" transform="translate(0 0)"/><g class="cls-49"><polyline class="cls-12" points="163.63 159.62 163.63 159.38 161.97 159.38 161.97 159.15 161.02 159.15 161.02 158.91 160.07 158.91 160.07 158.67 159.12 158.67 159.12 158.44 158.41 158.44 158.41 158.2 157.69 158.2 157.69 157.96 157.22 157.96 157.22 157.72 156.5 157.72 156.5 157.49 156.03 157.49 156.03 157.25 155.55 157.25 155.55 157.01 155.08 157.01 155.08 156.77 154.6 156.77 154.6 156.53 154.13 156.53 154.13 156.3 153.89 156.3 153.89 156.06 153.42 156.06 153.42 155.82 152.94 155.82 152.94 155.59 152.7 155.59 152.7 155.35 152.23 155.35 152.23 155.11 151.99 155.11 151.99 154.87 151.75 154.87 151.75 154.63 151.28 154.63 151.28 154.4 151.04 154.4 151.04 154.16 150.8 154.16 150.8 153.92 150.33 153.92 150.33 153.69 150.09 153.69 150.09 153.45 149.85 153.45 149.85 153.21 149.62 153.21 149.62 152.97 149.38 152.97 149.38 152.74 149.14 152.74 149.14 152.5 148.9 152.5 148.9 152.26 148.67 152.26 148.67 152.02 148.43 152.02 148.43 151.78 148.19 151.78 148.19 151.55 147.95 151.55 147.95 151.31 147.72 151.31 147.72 151.07 147.48 151.07 147.48 150.83 147.24 150.83 147.24 150.6 147 150.6 147 150.12 146.77 150.12 146.77 149.88 146.53 149.88 146.53 149.65 146.29 149.65 146.29 149.17 146.05 149.17 146.05 148.93 145.82 148.93 145.82 148.7 145.58 148.7 145.58 148.22 145.34 148.22 145.34 147.75 145.1 147.75 145.1 147.51 144.87 147.51 144.87 147.03 144.63 147.03 144.63 146.56 144.39 146.56 144.39 146.32 144.15 146.32 144.15 145.85 143.92 145.85 143.92 145.37 143.68 145.37 143.68 144.66 143.44 144.66 143.44 144.18 143.2 144.18 143.2 143.71 142.97 143.71 142.97 143 142.73 143 142.73 142.28 142.49 142.28 142.49 141.57 142.25 141.57 142.25 140.86 142.02 140.86 142.02 139.91 141.78 139.91 141.78 138.48 141.54 138.48 141.54 137.06 141.3 137.06 141.3 131.36 141.54 131.36 141.54 129.93 141.78 129.93 141.78 128.51 142.02 128.51 142.02 127.56 142.25 127.56 142.25 126.61 142.49 126.61 142.49 125.89 142.73 125.89 142.73 125.18 142.97 125.18 142.97 124.71 143.2 124.71 143.2 123.99 143.44 123.99 143.44 123.52 143.68 123.52 143.68 123.04 143.92 123.04 143.92 122.57 144.15 122.57 144.15 122.09 144.39 122.09 144.39 121.62 144.63 121.62 144.63 121.14 144.87 121.14 144.87 120.67 145.1 120.67 145.1 120.43 145.34 120.43 145.34 119.96 145.58 119.96 145.58 119.72 145.82 119.72 145.82 119.24 146.05 119.24 146.05 119.01 146.29 119.01 146.29 118.53 146.53 118.53 146.53 118.29 146.77 118.29 146.77 118.06 147 118.06 147 117.82 147.24 117.82 147.24 117.34 147.48 117.34 147.48 117.11 147.72 117.11 147.72 116.87 147.95 116.87 147.95 116.63 148.19 116.63 148.19 116.39 148.43 116.39 148.43 116.16 148.67 116.16 148.67 115.92 148.9 115.92 148.9 115.68 149.14 115.68 149.14 115.44 149.38 115.44 149.38 115.21 149.62 115.21 149.62 114.97 149.85 114.97 149.85 114.73 150.09 114.73 150.09 114.49 150.33 114.49 150.33 114.26 150.57 114.26 150.57 114.02 150.8 114.02 150.8 113.78 151.04 113.78 151.04 113.54 151.28 113.54 151.28 113.31 151.52 113.31 151.52 113.07 151.75 113.07 151.75 112.83 151.99 112.83 151.99 112.59 152.23 112.59 152.23 112.36 152.47 112.36 152.47 112.12 152.7 112.12 152.7 111.88 152.94 111.88 152.94 111.64 153.18 111.64 153.18 111.41 153.42 111.41 153.42 111.17 153.65 111.17 153.65 110.93 153.89 110.93 153.89 110.69 154.13 110.69 154.13 110.45 154.37 110.45 154.37 110.22 154.6 110.22 154.6 109.98 154.84 109.98 154.84 109.74 155.08 109.74 155.08 109.5 155.32 109.5 155.32 109.27 155.55 109.27 155.55 109.03 155.79 109.03 155.79 108.79 156.03 108.79 156.03 108.56 156.27 108.56 156.27 108.32 156.5 108.32 156.5 108.08 156.74 108.08 156.74 107.84 156.98 107.84 156.98 107.61 157.22 107.61 157.22 107.37 157.46 107.37 157.46 107.13 157.69 107.13 157.69 106.89 157.93 106.89 157.93 106.66 158.17 106.66 158.17 106.42 158.41 106.42 158.41 106.18 158.64 106.18 158.64 105.94 158.88 105.94 158.88 105.7 159.12 105.7 159.12 105.47 159.59 105.47 159.59 105.23 160.31 105.23 160.31 105.7 160.54 105.7 160.54 105.94 160.78 105.94 160.78 106.18 161.02 106.18 161.02 106.42 161.25 106.42 161.25 106.66 161.49 106.66 161.49 106.89 161.73 106.89 161.73 107.13 161.97 107.13 161.97 107.37 162.21 107.37 162.21 107.61 162.44 107.61 162.44 107.84 162.68 107.84 162.68 108.08 162.92 108.08 162.92 108.32 163.16 108.32 163.16 108.56 163.39 108.56 163.39 108.79 163.63 108.79 163.63 109.03 163.87 109.03 163.87 109.27 164.1 109.27 164.1 109.5 164.34 109.5 164.34 109.74 164.58 109.74 164.58 109.98 164.82 109.98 164.82 110.22 165.06 110.22 165.06 110.45 165.29 110.45 165.29 110.69 165.53 110.69 165.53 110.93 165.77 110.93 165.77 111.17 166 111.17 166 111.41 166.24 111.41 166.24 111.88 166.48 111.88 166.48 112.12 166.72 112.12 166.72 112.36 166.96 112.36 166.96 112.83 166.48 112.83 166.48 113.07 166.24 113.07 166.24 113.31 166 113.31 166 113.54 165.77 113.54 165.77 113.78 165.53 113.78 165.53 114.02 165.29 114.02 165.29 114.26 165.06 114.26 165.06 114.49 164.82 114.49 164.82 114.73 164.58 114.73 164.58 114.97 164.1 114.97 164.1 115.21 163.87 115.21 163.87 115.44 163.63 115.44 163.63 115.68 163.39 115.68 163.39 115.92 163.16 115.92 163.16 116.16 162.92 116.16 162.92 116.39 162.68 116.39 162.68 116.63 162.44 116.63 162.44 116.87 162.21 116.87 162.21 117.11 161.97 117.11 161.97 117.34 161.73 117.34 161.73 117.58 161.49 117.58 161.49 118.06 161.25 118.06 161.25 118.29 161.02 118.29 161.02 118.53 160.78 118.53 160.78 118.77 160.54 118.77 160.54 119.01 160.31 119.01 160.31 119.24 160.07 119.24 160.07 119.48 159.83 119.48 159.83 119.72 159.59 119.72 159.59 120.19 159.35 120.19 159.35 120.43 159.12 120.43 159.12 120.67 158.88 120.67 158.88 120.91 158.64 120.91 158.64 121.38 158.41 121.38 158.41 121.62 158.17 121.62 158.17 121.86 157.93 121.86 157.93 122.09 157.69 122.09 157.69 122.57 157.46 122.57 157.46 123.04 157.22 123.04 157.22 123.28 156.98 123.28 156.98 123.76 156.74 123.76 156.74 123.99 156.5 123.99 156.5 124.47 156.27 124.47 156.27 124.71 156.03 124.71 156.03 125.18 155.79 125.18 155.79 125.66 155.55 125.66 155.55 126.13 155.32 126.13 155.32 126.61 155.08 126.61 155.08 127.08 154.84 127.08 154.84 127.56 154.6 127.56 154.6 128.03 154.37 128.03 154.37 128.75 154.13 128.75 154.13 129.46 153.89 129.46 153.89 130.41 153.65 130.41 153.65 131.12 153.42 131.12 153.42 132.31 153.18 132.31 153.18 133.97 152.94 133.97 152.94 135.87 153.18 135.87 153.18 138.01 153.42 138.01 153.42 139.43 153.65 139.43 153.65 140.38 153.89 140.38 153.89 141.1 154.13 141.1 154.13 142.05 154.37 142.05 154.37 142.52 154.6 142.52 154.6 143 154.84 143 154.84 143.71 155.08 143.71 155.08 144.18 155.32 144.18 155.32 144.66 155.55 144.66 155.55 145.13 155.79 145.13 155.79 145.37 156.03 145.37 156.03 145.85 156.27 145.85 156.27 146.32 156.5 146.32 156.5 146.56 156.74 146.56 156.74 146.8 156.98 146.8 156.98 147.27 157.22 147.27 157.22 147.51 157.46 147.51 157.46 147.75 157.69 147.75 157.69 147.98 157.93 147.98 157.93 148.46 158.17 148.46 158.17 148.7 158.41 148.7 158.41 148.93 158.64 148.93 158.64 149.17 158.88 149.17 158.88 149.41 159.12 149.41 159.12 149.65 159.59 149.65 159.59 149.88 159.83 149.88 159.83 150.12 160.07 150.12 160.07 150.36 160.31 150.36 160.31 150.6 160.78 150.6 160.78 150.83 161.02 150.83 161.02 151.07 161.49 151.07 161.49 151.31 161.97 151.31 161.97 151.55 162.21 151.55 162.21 151.78 162.68 151.78 162.68 152.02 163.39 152.02 163.39 152.26 163.87 152.26 163.87 152.5 164.58 152.5 164.58 152.74 165.29 152.74 165.29 152.97 166.24 152.97 166.24 153.21 167.91 153.21 167.91 153.45 170.99 153.45 170.99 153.21 172.66 153.21 172.66 152.97 173.84 152.97 173.84 152.74 174.56 152.74 174.56 152.5 175.27 152.5 175.27 152.26 175.98 152.26 175.98 152.02 176.69 152.02 176.69 151.78 177.41 151.78 177.41 151.55 177.88 151.55 177.88 151.31 178.36 151.31 178.36 151.07 178.83 151.07 178.83 150.83 179.31 150.83 179.31 150.6 179.78 150.6 179.78 150.83 180.02 150.83 180.02 151.07 180.26 151.07 180.26 151.55 180.49 151.55 180.49 151.78 180.73 151.78 180.73 152.02 180.97 152.02 180.97 152.5 181.21 152.5 181.21 152.74 181.44 152.74 181.44 152.97 181.68 152.97 181.68 153.45 181.92 153.45 181.92 153.69 182.16 153.69 182.16 153.92 182.4 153.92 182.4 154.63 181.92 154.63 181.92 154.87 181.68 154.87 181.68 155.11 181.44 155.11 181.44 155.35 180.97 155.35 180.97 155.59 180.73 155.59 180.73 155.82 180.26 155.82 180.26 156.06 179.78 156.06 179.78 156.3 179.54 156.3 179.54 156.53 179.07 156.53 179.07 156.77 178.59 156.77 178.59 157.01 178.12 157.01 178.12 157.25 177.64 157.25 177.64 157.49 176.93 157.49 176.93 157.72 176.46 157.72 176.46 157.96 175.74 157.96 175.74 158.2 175.03 158.2 175.03 158.44 174.56 158.44 174.56 158.67 173.61 158.67 173.61 158.91 172.66 158.91 172.66 159.15 171.47 159.15 171.47 159.38 170.04 159.38 170.04 159.62"/></g></g></g></g></g></g></g></g></g></g></svg>