<svg xmlns="http://www.w3.org/2000/svg" viewBox="0 0 320.09 128.56"><defs><style>.cls-1{fill:#fff;}</style></defs><g id="Layer_2" data-name="Layer 2"><g id="Layer_1-2" data-name="Layer 1"><path class="cls-1" d="M317.58,97.87H301l2.74-11H270.37l-2.74,11h-16.1V95.61c.25-1.24.47-2.54.78-3.93C255.24,79.82,263,68.1,276.49,68.1c5.33,0,10.62,2,9.9,9.41h19.82c.78-3.44,2.1-9.3-1.64-14.69-4.23-5.85-12.74-8.2-23.78-8.2-7.85,0-19.34,1.26-29.26,7.73V2.53h66Zm-39,16.11a63.38,63.38,0,0,1-11.11,1.14c-9.52,0-16.14-4.43-16.28-14.75H282ZM240.55,59.52l0,13.67a54.82,54.82,0,0,0-8.8,18.9,37.22,37.22,0,0,0-1.05,5.78H221l8.3-39.36-27.92,0-25,39.39h-1.82V2.53h66ZM203.68,97.87h-9.93l15-23.65ZM163.6,58.41H147.08L135.75,97.87H118.23c8.93-3.3,14.36-9.61,16-19,1.38-7.27.72-12.05-2.24-15.64-4.44-5.33-13.36-4.87-21.29-4.87l-13.1,0V2.53h66ZM153,97.87l7-24.68.24,24.68Zm-48-9.39h0c-.64,0-1.28.09-2,.09-1,0-1.71,0-2.42,0l-4.23,0,2-7.22.92-3.59,2.22-8.4c1,0,1.94,0,2.86,0h3.27c5.58,0,9.12.31,10.4,2.11,1,1.35.86,3.68-.3,7.22-2,6.11-4.52,9.2-12.64,9.82M86.64,61.91l-1,3.43L76.17,96.76l-.38,1.11H44.71l-2.42-5.12,33.5-34.24H54.27L28.06,86.73l8.49-28.22H20.68v-56h66ZM249,0V64.15a44.08,44.08,0,0,0-5.93,5.71V0H172V58.41h-5.88V0H95.08V58.51H89.21V0H18.13V66.68L0,127.15H16l8-26.78h2.3l13.23,26.78H58.76L45.93,100.37H75.05L67,127.15H84.4l8-26.71h3.82v-.07H135l-7.69,26.7h17.57l7.46-26.7h7.9l.22,26.7h14.74l16.91-26.7h11.08l-5.71,26.7h17.3l5.61-26.7h10c-.4,8.27,1.72,15.79,7.2,20.85,6.71,6.16,17,7.34,24.62,7.34a146.76,146.76,0,0,0,32.13-4l6-24.24h19.75V0Z"/></g></g></svg>