<svg xmlns="http://www.w3.org/2000/svg" viewBox="0 0 477.18 205.71"><defs><style>.cls-1{fill:#fff;}</style></defs><g id="Layer_2" data-name="Layer 2"><g id="Layer_1-2" data-name="Layer 1"><path class="cls-1" d="M21.72,49.59a2.56,2.56,0,0,1,.78-2.07c1.43-1.49,2.92-2.92,4.35-4.41a.94.94,0,0,1,.71-.26c-.2,1-1.43,1.49-1.56,2.66,1.49-.59,2-1.11,2.92-3-.58-.19-.91.39-1.43.39,0-1,1-1.56,1.62-2.14a12.67,12.67,0,0,1,3.18-1.82,10.92,10.92,0,0,0-2.92,3.18c1.17-.65,2.21-.78,3-1.68.45-.52,1-1.75,2.2-1.17,1.1-.91,2.85-1,3.37-2.79.2-.58,1-.78,1.69-.71a1,1,0,0,0,1.1-.71c.39-.91,1.36-1.11,2.2-1.37l.26.26c-.13.13-.19.33-.39.46s-.58.45-.9.71c.25-.45.71,0,1-.26-.13.2-.26.45-.39.65a98.22,98.22,0,0,0-7.91,11.86,30.88,30.88,0,0,0-1.88,3.31c-.71,1.68-1.49,3.37-2.2,5a87.8,87.8,0,0,0-4.8,14.91A90.82,90.82,0,0,0,23.8,83.75c-.2,2.34-.26,4.67-.33,7-.71-.38.13-1.1-.45-1.62a11.13,11.13,0,0,0-1,3.12,5.68,5.68,0,0,1-1.23,3c-.06.07-.26,0-.13.33.59.84.07,1.68,0,2.59a30.56,30.56,0,0,0-.52,5.25c.39-.91,1.43-.84,1.3-1.75s.45-1.69,0-2.53A1.27,1.27,0,0,1,21.53,98,2.23,2.23,0,0,0,22,96.46c0-.39.2-.71.65-.32.72.71.78,0,1-.46,0,.26.13.52.13.78.33,3.31.59,6.55,1.24,9.79a91.08,91.08,0,0,0,3.82,14.32,88,88,0,0,0,20.42,32.29A75.71,75.71,0,0,0,58.74,161a61,61,0,0,1,6.16,4.41,2.71,2.71,0,0,0,1,.46c2.53,1,5.19,1.75,7.65,2.85a16.62,16.62,0,0,0,5.83,1.3,63.41,63.41,0,0,0,9.14.13c2.66-.13,5.25-.39,7.91-.46.46,0,1-.19,1.36.13a2.29,2.29,0,0,0,2.21.2,10,10,0,0,1,2.46-.33,2.83,2.83,0,0,0,2.72-1.17.87.87,0,0,1,.65-.38c.85,0,1.62-.33,2.4-.39,1,0,2-.07,2.4-1.24,0-.12.26-.19.39-.25,1.23-.07,2.27-.78,3.37-1,1.88-.39,3.56-.84,4.73-2.46a1.31,1.31,0,0,1,.58-.45c1.24-.33,1.82-1.49,2.53-2.34s1.17-1.23,2.14-1c.39.06.78,0,.91-.39.39-1.24,1.49-1.82,2.33-2.66.46-.46.78-1.17,1.43-1.36.84-.2,1.23-.85,1.75-1.36a9.73,9.73,0,0,1,1.82-1.56c.45-.26.9-.58,1.36-.91.9-.78,1.55-1.75,2.72-2.2a1,1,0,0,0,.58-.84c.39-.26.91-.33,1.17-.72,1-1.36,2.46-2.4,3.31-3.89s2.52-2.46,2.91-4.28c2-1.62,2.34-4.08,3.11-6.35.33-1,.13-2.27,1.56-2.66.19,0,.32-.38.39-.64a4.41,4.41,0,0,1,.71-2,1,1,0,0,0,.13-.72c-.65-1,.2-1.81.46-2.65a8.23,8.23,0,0,0,.38-1.3,34.56,34.56,0,0,0,.33-6.81c0-.65.39-1.16.19-1.81-.52-2.27-.26-4.61-.45-6.94-.13-1.55-.65-3.11-.33-4.73a1.31,1.31,0,0,0-.32-.84c-.45-.52-.84-1-1.3-1.5-.32.07-.13.52-.51.46a8.36,8.36,0,0,0-.52-1.43,1.56,1.56,0,0,1-.2-2.07c.39-.46.33-.52-.39-.91a1.63,1.63,0,0,1-.45-.71c-.39-.72-.13-1.56-.65-2.21a9.72,9.72,0,0,1-1.23-2.78c-.39-1.17-.19-2.73-1.82-3.25a1.78,1.78,0,0,1-.77-1.42.89.89,0,0,0-.26-.71c-1.1-.91-1.56-2.34-2.53-3.31-.71-.71-.26-1.17,0-1.75s.52.19.91-.07c.84-.64,1-.64,1.75,0,.39.33.52,1,1.23,1A2.58,2.58,0,0,0,142.88,79c-.39-.33-.91-.59-1-1.17-.13-1.69-1.23-2.79-2.27-4a1.55,1.55,0,0,0-.65-.91,40.11,40.11,0,0,0-6-6.48c-.32.32,0,1.16-.58.9s-1.36,0-1.94-.39a15.64,15.64,0,0,1-3.12-2.72A3.24,3.24,0,0,0,125.77,63c-.71-.26-1.56-.84-1.56-1.43,0-.9-.45-1-1-1.29a28.61,28.61,0,0,0-3.83-1.75c.71-.13.65-1.36,1.56-1,0,0,.19-.25.06-.38a1.48,1.48,0,0,0-.58-.52c-2.53-1.49-4.28-3.76-6.1-6-.45-.59-.51-1.49-1.29-1.75.06-.13.19-.2.26-.33a4.9,4.9,0,0,1,2.91,1.75.2.2,0,0,1-.06.13c-.13.13-.58.07-.39.46.13.19.32.45.58.26s0-.39-.13-.59V50.3a.65.65,0,0,1,.59,0c1.1.78,2.33,1.3,3.43,2.08a32.46,32.46,0,0,0,4.8,2.85c.39.2.84.26,1,.58a5.51,5.51,0,0,0,3.11,2A4.5,4.5,0,0,0,131.93,60c1,1.49,1.16,1.62,2.78,1.81a.19.19,0,0,1,.13.07c.78.65.26-.46.59-.39.39-.13.78-.33,1.23-.46-.39-.58-1-.77-1.56-1.23-.19-.19-.58-.32-.77,0s.12.46.25.65c.33.33.91.52.85,1.17-.26.39-.65.06-.78,0-.78-.65-1.88-.91-2.46-1.75a6,6,0,0,0-2.66-2.21,12.31,12.31,0,0,0-2.4-2c.26,0,.45,0,.58.13s.26.33.39.46c.78.39,1.17-.13,1-1.17.78.26,1.3,1.17,2.27,1a1.92,1.92,0,0,0,1,1.49c.2,1.3.65,1.63,2.4,1.63v-.33c-.39-1-.91-1.55-2.08-1.17a.43.43,0,0,1-.25-.13c-.33-.51,0-1.42-1-1.49a4.08,4.08,0,0,0-1.81-1.29c-.46-.2-.2.32-.39.32a6.65,6.65,0,0,1-1.17.13c-.39,0-.91-.19-.91-.65s.52-.39.85-.39c.13,0,.19-.06,0-.32-.72-.78-2.08-1-2.73-2.14a2.91,2.91,0,0,1,2.34.84c1.36,1.1,3.11,1.49,4.41,2.73.39.38,1,.25,1.1-.46.26-.19.52,0,.78-.06-.33.45.26.58.32.84s.26.26.19,0c0-1.56.91-.19,1.3-.26-.06-.19-.06-.26-.13-.26-.58-.58-.58-.58-1.23-.13-.13.07-.32-.13-.52-.13s-.52,0-.71-.26h-.33a6.75,6.75,0,0,1-2.59-2.4c.39-.32,1.36,0,1.1-1h.59a1.24,1.24,0,0,0,.45.91c.13.13.26.13.26-.13,0-.91.58-.65.78-.32a14.41,14.41,0,0,0,2.07,1.94c.78.84,1.56,1.75,2.34,2.59.26.33.51.65,1,.46a.24.24,0,0,0,0,.39.58.58,0,0,0,.33.26c.26-.26-.13-.26-.2-.39s-.13-.2-.13-.26c-.32-.46-.65-.85-1-1.3-.91-1-2.27-1.69-2.66-3.18l.32-.32c.59.65,1,1.56,2.14,1.62.2,0,.46.26.58.45.85,1.24,2.66,1.62,3,3.31,0,.13.19.19.32.32.58.46,1.17.85,1.75,1.3.26-.26.52-.45.84-.78a34.63,34.63,0,0,1-3.89-3.5,12.1,12.1,0,0,1-2.13-2.33c-.13-.26-.39-.58,0-.78.84-.45.12-.84-.13-.78-.52.2-.78-.45-1.43-.19-.91.39,0-1-.71-1h-.13c-2.21-1.49-4-3.5-6-5.18a1.75,1.75,0,0,1-.59-.91c0-.26,0-.52.33-.65a.43.43,0,0,1,.52.19,19.66,19.66,0,0,0,2.46,2.79c1.17,1.3,2.72,2.08,3.89,3.37.13.13.52.13.71.2a8.9,8.9,0,0,1,4.35,2.78c.77,1,1.94,1.5,2.59,2.6a.85.85,0,0,0,1,.26c0-.46-.33-.59-.52-.78a50.69,50.69,0,0,1-5.58-5.58c-1.49-.58-1.88-2.2-3.24-3a3.08,3.08,0,0,1-1.81-2.33h0a11,11,0,0,0,1.94,1.49c1,.78,1.69,2.14,3.24,2.14.2,0,.39.32.52.52.52.52,1,1,1.56,1.55a1.25,1.25,0,0,0,1.16.59c.72-.13,1,.19,1.24.84.25,1,1.1,1.1,1.88,1.3.32.06.71-.2.45-.52-.71-.78-1-1.88-2-2.6A14.3,14.3,0,0,1,141.52,47c-1.55-1.49-3.56-2.47-4.93-4.22-.26-.32-.77-.32-1-.64s-.65-.39-.39-1a4.82,4.82,0,0,1,1.69.91A31.69,31.69,0,0,0,141.26,45c.26.19.52.19.65,0s0-.39-.19-.52c-1.17-.78-2-2.07-3.51-2.46a.73.73,0,0,1-.64-.78c0-.39-.33-.52-.52-.71s-.26-.59,0-1.11a16.28,16.28,0,0,0,2.85,2.79c.65.58,1.23,1.36,2.2,1.43-.13.32.07.32.33.32,1.55,1,2.4,2.72,4,3.7H145c-.2-.78-.85-1.11-1.43-1.49s-1-1.24-1.36-.72.52.84,1,1.23,1,.85,1.49,1.24.91,1.62,2,.58c.13-.13.45.26.32.32-.65.39-.06.65,0,1,.26.77,1.1,1,1.56,1.68.13.2.32.2.52.07A.34.34,0,0,0,149,51c-.13-.26-.39-.52-.52-.78-.19-.58.46-.07.52-.39s0-.39-.13-.52-.52-.39-.71-.58-.26-.33.13-.39c1-.13.58-.58.13-.91a5.55,5.55,0,0,1-2-2.27c.19-.19.39,0,.58,0,0,.2.13.26.33.26.19.33.38.72,1,.52a1,1,0,0,0-.85-.65c-.12-.13-.19-.26-.32-.32-.19-.52-.65-.65-1.1-.78-.07-.39-.33-.39-.65-.26-.52-.84-.65-.84-.91-.32-1.16-.26-1.75-1.36-2.66-2,.46-.33.72.45,1,0,.2-.26.07-.59-.06-.91s-.46-.45-.26-.78a3.7,3.7,0,0,1,1.55.91,2.38,2.38,0,0,0,2.21.78c.19,0,.45-.13.39.26-.26,1,.58,1.29,1.23,1.62s1.49.52,1.81,1.23a5.19,5.19,0,0,0,1.88,2.2,16.12,16.12,0,0,1,1.62,1.43,23.19,23.19,0,0,0,3.18,2.92c.13.06.32.26.45,0l-.26-.26c0-.52-.32-1.3.72-1.3l.13-.19c-.26-.85,0-.91.52-.33s1.23.72,1.75,1.23h0c.13.2.39.46.32.65-.32.84.32,1.3.65,1.88-.13.2-.33.33-.45.13a4.45,4.45,0,0,1-.85-1.1,1.75,1.75,0,0,0-1.75-.91c.13.65,1,.91,1,1.36-.13,1.17.85,1.43,1.43,2,.39.39.84.72,1.3,1.1.26.2.52.59.39.78s-.65.2-1,0h-.33c-.06.13-.19.33-.32.13-1-1-2.27-1.55-3.18-2.59h0c.59-.26.78.32,1.24.45a.38.38,0,0,0,.51,0,1.23,1.23,0,0,0-.06-.39,8.78,8.78,0,0,0-2.2-2.14c-1-.77-2.4-1.1-3.44-1.94-.32-.26-.58,0-.91.26-1.16.78-1.42.78-2.07,0-.2-.19-.52-.52-.72-.19s.2.38.39.51a2.6,2.6,0,0,1,.13.72c.07.84,1.62,2.07,2,1.62.59-.59.85-.26,1.3,0,.26.13.52.58.91.26h0c-.13.39-.13.84.39.84s.77.32,1,.71a1.25,1.25,0,0,0,1,.72,3.12,3.12,0,0,1,2.07,1.1c.19.19.32.52.58.39.85-.33,1.17.45,1.3.84a4.12,4.12,0,0,0,1.3,1.68A16.54,16.54,0,0,1,163,60.94a9.69,9.69,0,0,0,3.5,3.17c0,.33,0,.46.32.26,0,.07-.19.26.07.26a.58.58,0,0,0-.13-.26,1.31,1.31,0,0,1-.33-.26c0-.19-.19-.39,0-.58a4.85,4.85,0,0,0,2.21,0c.19.39.19.91.78,1.17,0-.65-.59-.78-.78-1.17-.13-.13-.26-.33-.39-.46a1.53,1.53,0,0,0-2.08.2c-1.1-.78-.9-1.82-.64-2.85.58,0,.71.64,1.16.9h.39s.13-.19.07-.26a3.32,3.32,0,0,0-.85-1.55c-.51-.52-.06.71-.58.39l-.52-.33-.32-.32c0-.58-.26-.45-.59-.32a2.5,2.5,0,0,1-2.39-2c0-.19,0-.32.19-.32,1-.2.52-.78.26-1.17-.45-.65-1-1.23-1.56-1.88-.19-.19-.26-.45.07-.58s.71-.39,1.1,0c.65.77,1.82,1.16,1.88,2.4,0,.25.32.64.65.51.84-.32,1.1.33,1.49.78,1.1,1.23,2,2.59,3,3.83.64.77.84,1.94,2,2.2a22.2,22.2,0,0,0,1.36,2.14c.13.19.26.32.52.19a.42.42,0,0,0,.13-.51,5.88,5.88,0,0,0-1.69-2.08c0-.26-.13-.52.13-.78.58.33.78,1,1.23,1.49s.33,1.37,1.1,1.75c.59.33.65,1,1,1.63-.39.25-.59-.13-.85,0a2.1,2.1,0,0,0,0,.9,11.74,11.74,0,0,0,2.27,3.63.81.81,0,0,1,.26,1c-.26.58,0,1.1.65,1,1,0,1.36.65,1.56,1.36.51,2,1.75,3.82,2,6,.2,1.75,1.11,3.31,1.17,5.19,0,1.36.13,2.72,0,4.08,0,.13,0,.2.46.2a6.76,6.76,0,0,1,.51-1,5.24,5.24,0,0,1,.91,4,16.11,16.11,0,0,0,.26,6.81,12.91,12.91,0,0,0,.71,3c0-1.16-.32-2.33.26-3.37h0c.91.39,1,.58.52,1.43-.26.45-.39.71,0,1,.91.85.84,1.95,1,3,0,.46-.13.84-.58,1-.78.26-.71.85-.58,1.37a4.65,4.65,0,0,1,.13,1,13.09,13.09,0,0,0,.06,2.27c.59.06.39-.85,1-.52a.74.74,0,0,1,0,.65c-.51.71-1.55,1.36,0,2.07.07,0,.13.32.07.45a7.63,7.63,0,0,1-.52,1.62c-.26.46-.84-.19-1.23.07a3.67,3.67,0,0,0,0,1.68c.39-.25.32-.71.78-.77a3.19,3.19,0,0,0,.13,1.1c.06.32,0,.65-.39.71-.91.2-.85.84-.85,1.49v2c.46-.65,0-1.23.39-1.69.46.65,0,1.3.13,2,0,.26,0,.65.46.58.26,0,.58-.45.78,0s.06.84-.26,1c-1.17.46-1.17,1.56-1.5,2.47s.39.64.78.77a10.13,10.13,0,0,0-1.23,4,2.71,2.71,0,0,1-.84,2c.58.19,1.29.19,1,1a.84.84,0,0,0,.2.84c.25.45.12.78-.39.91s-.78.38-.39.9c.19.26.06.46-.13.65a1.61,1.61,0,0,0-.59.84,7.94,7.94,0,0,1-1.42,4.09c.26.84-.2,1.29-.91,1.75-.19.13,0,.65-.19.84-.33.52.26,1.17-.2,1.56-1,.9-.71,2.4-1.81,3.17a4.7,4.7,0,0,1,.26.52c-.78,1.17-1.75,2.34-1.88,3.83-1.62,2-2.6,4.4-4,6.54a60.22,60.22,0,0,1-7.52,9.21c-.33.26-.46.65-1,.45s-.32.07-.25.39c0,.52-.59.71-.72,1.23s-.32,0-.52,0a1.09,1.09,0,0,0-.9,0c-.39.13-1,.2-.13.78.58.45.26,1.23-.52,1.17-.59,0-1,.32-1.62.19a1.25,1.25,0,0,0-1.49,1.17c0,.39-.2.78-.59.78-1,.13-1.42,1.16-2.2,1.55-.39.2-.33.65-.45.91-.72,1.17-1.43,2.27-3,2.4-.71,0-1.23.58-1.75,1-1.23,1-2.53,1.82-3.76,2.66s-2.59,1.75-3.95,2.53a5.33,5.33,0,0,1-2.4,1c-.26,0-.58,0-.65.26a.81.81,0,0,1-1.23.52c-.65-.32-.13-.9-.13-1.42-.65.58-1.68.58-1.88,1.68h.84a1.39,1.39,0,0,1-1.62,1.1c-1.81-.26-3.17.52-4.6,1.56a8.26,8.26,0,0,1-5.44,1.23c-.52,0-1-.13-1.43.39-.2.26-.39.13-.65.07a8.27,8.27,0,0,0-2.53-.13,3.09,3.09,0,0,0-2.4,1.1c-.45.71-1.29.71-2.2.58a5.38,5.38,0,0,0-4.93,1.62,1.79,1.79,0,0,1-1.81.71c-.78-.13-1.62-.58-2.4.26-.26.33-1,.13-1.49-.13s-1.1-.45-1.56.26a.68.68,0,0,1-1.23,0,.46.46,0,0,0-.84.13c-.2.72-.91.52-1.36.85-.26.19-.59.13-.59-.2,0-1-.71-.71-1-.52a4.26,4.26,0,0,1-3.44.33c-.32-.13-.58.13-.84.26-.71.45-.65-.2-.78-.59.78-.26,1.75-.06,2.46-.65-.52-.51-1-.13-1.49-.13H89.4a6.67,6.67,0,0,0-3.37.72,2.85,2.85,0,0,1-2.4.06c-1.68-.65-3.43-.39-5.18-.52a9.07,9.07,0,0,0-2.27,0c0-.64-.46-.77-.91-.84s-1.3-.52-1.82.26c.85.84,1.82.58,2.79.52.26.26.2.91.91.52s.71-.2,1.3.65a2.26,2.26,0,0,0,2,.84c1.75,0,3.5,0,5.25-.07a7.88,7.88,0,0,1,2.52.39c.2.46-.25.65-.32,1-.19.58-.58.65-1.1.39-.13-.07-.26-.2-.39-.26-.39-.19-.91-.58-1.17,0s.39.58.78.71a3.94,3.94,0,0,0,.91.2h.45c.33.19.2,1.23.91.52.52-.59,1-1.3.45-2.08-.26-.39,0-.45.13-.52a.92.92,0,0,1,.91,0c.39.26.65.91,1.36.52,1.82,1.62,4,.46,6,.71,1.1.13,2.26-.84,3.5-1.16a6.91,6.91,0,0,1,1.16-.26c3,.13,6-.84,9-1a4.16,4.16,0,0,0,1.23-.26c4.41-1.43,9-2.47,13.48-3.7.85-.26,1.69-.52,2.47-.84a2.52,2.52,0,0,1,1.88-.32c-1.62,1.42-3.76,1.81-5.58,2.91,1.3.13,2.14-1,3.24-.84.2.39,0,.52-.13.71-.58.59-1.23.91-1.55,1.95-.2.78-1.43,1.29-2.14,1.88a.29.29,0,0,1-.45-.2c-.07-.39-.26-.32-.52-.13a5.55,5.55,0,0,1-4,1.11,1,1,0,0,0-.72.19,2.23,2.23,0,0,1-2.2.52c-.52-.13-.52,0-.45.39s-.13.26-.26.26c-1.1.06-2.08.77-3.11.58-.46-.06-1.24.39-1.43-.65,0-.26-.58-.19-.84,0-.65.33-1.43.13-2.08.52-.19.13-.52,0-.65-.39a22.42,22.42,0,0,0,5-1.23c-.46-.32-.85,0-1.24-.19h0c1.56-.33,3-.65,4.61-.91a31.78,31.78,0,0,0,6.41-2.08,2.08,2.08,0,0,0,.78-.58,119.55,119.55,0,0,1-26.19,4.6,1.81,1.81,0,0,0,1.3.26,3,3,0,0,1,1.49.13c-.39.46-.78.65-1.3.33a16.37,16.37,0,0,0,3.89.13c-.45-.39-1.1,0-1.68-.39a4.17,4.17,0,0,1,2.66-.39c.51,1.49,1.68.39,2.46.58.26,0,.26,0,.32.52,0,.26.2.39.39.32a4,4,0,0,1,1.56-.19c.32,0,.78,0,.84.45s-.26.78-.65.91c-1,.32-1.94.52-3,.78-1.23.26-2.53.45-3.76.78a7,7,0,0,1-2,.13c.2-.33.58-.2.84-.46-.26-.71-.71-1-1.29-.45-.33.32-.72.45-.85.06-.32-.71-.71-.32-1.1-.19-.65.26-.13.52,0,.78s-.19.45-.45.51a6.53,6.53,0,0,1-1.56.26,49.36,49.36,0,0,1-5.44,0c.71-.84.71-.84,1.88-.58a1.17,1.17,0,0,0,1.29-.26.7.7,0,0,0,.26-.84c-.13-.45-.51-.33-.77-.2-1.82.85-3.76-.25-5.64.39-.39.13-.26-.58-.78-.58s-.65.06-.84.78c-.13.32-.33.13-.46.19-.58.13-1-.32-1.36-.52-1.36-.84-2.85-.26-4.21-.64a7.42,7.42,0,0,1-1.62-.46,10.44,10.44,0,0,0-3-1c-1.23-.13-1.75-1.1-2.39-1.88s-1-1-2.14-.51a.65.65,0,0,1-.59,0l-1.68-.78c-.2-.07-.46-.2-.46-.39.39-1.36-.84-1.23-1.49-1.49-2.27-1-4.6-1.82-6.8-2.92a1.45,1.45,0,0,0-1-.19c-.39.06-.65.52-1.1.06s-1.17-.58-1.3-1.23a1.22,1.22,0,0,0-1.23-1,4.35,4.35,0,0,1-2.66-1.3,6.82,6.82,0,0,0-1.49-.78.31.31,0,0,0-.39.33c0,.13,0,.32.13.39a7.73,7.73,0,0,1,1,.38.94.94,0,0,1,.26,1.3c-.33.58-.59.2-.85,0s-.51,0-.84,0c-.91.13-1,.07-.65-.84a2.32,2.32,0,0,1,.26-.71,1.78,1.78,0,0,1-1.88-.72,16.27,16.27,0,0,1-3.5-3.17c-.26-.39-.84-.52-.71-1.17s-.65-.52-1-.84a8.8,8.8,0,0,0-2.53-2.4c-1.23-.59-2.21-1.49-3.37-2.08-.65-.32-1-1-1.69-1.29-.13.06-.26.13-.26.19-.19.33-.26.84-.84.71s-.26-.71-.19-1c0-.52.19-1-.46-1.3-.13,0-.32,0-.26.2s.13.13.2.25h0A3.76,3.76,0,0,1,28.53,176s.07-.13.13-.13a.76.76,0,0,0,.33-1.36c-.46-.46-1-.84-1.5-1.3-.58.71-.26,1.23.13,1.75l-.19.2a3.36,3.36,0,0,1-2.08-1.88,6.88,6.88,0,0,0-1.55-1.88,4.58,4.58,0,0,1-1.23-1.69c.19-.19.32-.06.45.07s.33.45.65.26.19-.33,0-.52-.32-.59-.65-.46,0,.65-.45.65c-.26,0-.46-.19-.46-.32.13-1.1-.84-1.69-1.16-2.6,0-.13-.2-.26-.33-.26a1.74,1.74,0,0,1-1.23-.84c-1.17-1.36-1.75-3-2.79-4.47-.13-.2-.52-.45-.19-.78a1.7,1.7,0,0,0,.26-1.81,22.88,22.88,0,0,0-3.37-5.25,9,9,0,0,1,1.23,2.78c1.43,1.1,1.49,2.79,1.88,4.35a4.43,4.43,0,0,1-1.88-1.88c-1-1.75-2.14-3.5-3.18-5.25-.52-1-.13-1.88-.52-2.79-.13-.26.26-.33.52-.2s.39,0,.46-.19-.13-.33-.33-.33c-1.29-.32-1.36-.32-1.75.85-1-.78-.65-2.21-1.42-3.11,0-.07-.07-.26,0-.33,1.1-1.16-.33-2-.46-3.11-.26.45.2.65.13,1s.13.65-.13.65-.71.2-.91-.19-.64-1-.51-1.56h0c.19-.19.71.52.64,0-.13-1.17.52-.91,1.24-.71a4.39,4.39,0,0,0-.72-2.08c-.32.07-.19,1.23-.77.39-.26-.39-.72-.32-1-.78.59-.19,1.1-.45.65-1.29a21.17,21.17,0,0,1-.91-2.79.32.32,0,0,0-.39-.32.43.43,0,0,0-.38.45v.91a4.89,4.89,0,0,1-.13,1.88,10.68,10.68,0,0,1-1-3.11c-.26-.91-.32-1.88-.64-2.86-.2-.52-.46-1.23.32-1.62.32-.19.32-.65,0-.71-1.23-.26-1-1.36-1.17-2.14s.2-1.43-.65-1.88a2.05,2.05,0,0,1-.19-1.1c.13-.58-.13-1.1-.07-1.75.33-.33.72.13,1.11-.07a.38.38,0,0,0,.19-.39c0-.19-.19-.19-.32-.19-.39,0-.59.45-1,.26-.34-2.25-.28-3.83.2-4.73-.26-.39-.65-.46-1-.65-.19-.13-.52-.2-.45-.52a.56.56,0,0,1,.52-.52c1.29,0,1-.78.84-1.55-.39,0-.32.45-.65.45a2.41,2.41,0,0,1,.2-2.4c.32-.45.32-.65-.07-1A1.38,1.38,0,0,1,.59,112c.39-2,0-4,0-6a57.22,57.22,0,0,1,.46-5.83A46.25,46.25,0,0,1,3,91.6c.84-3.11,1.69-6.23,2.4-9.4a39.11,39.11,0,0,1,1.36-4.54C7.33,76,7.85,74.29,8.5,72.6A49.69,49.69,0,0,1,12.33,65,23.77,23.77,0,0,0,14,61.26a14.63,14.63,0,0,1,1.69-2.92c.32.52-.26.91,0,1.36h.19c.19-1,1.17-1.55,1.69-2.46.13,0,.19,0,.13-.19a.07.07,0,0,0-.07-.07c-.13,0-.19,0-.13.2-.32,0-.78,0-.71-.52a.65.65,0,0,1,.06-.33c1.23-2.33,2.4-4.66,4.61-6.29-.52.65-.2,1.69-.91,2.27a5.7,5.7,0,0,0-.65.65.7.7,0,0,0-.07.84c.13.13.46.33.52.26s.52-.45.52-.64c0-1.24,1-1.75,1.56-2.53.32-.46.91-.72.78-1.43.64,0,0-1.17.84-.91,1.1.39.84-.39.84-1A3,3,0,0,0,23,49.14c-.39.26-.59.84-1.24.65Zm20,111.89h-.07c0-.13.13-.26,0-.39a.69.69,0,0,0-.26.06c.39-.38,0-.58-.19-.77H41c0,.26.2.39.33.58a.22.22,0,0,1,.13.06c.06.13.19.26.26.39ZM143.85,42.33c0,.07.07.13.13.26a1,1,0,0,1,.13-.19h-.26a.16.16,0,0,0-.13-.26h-.12C143.6,42.27,143.72,42.33,143.85,42.33ZM34.37,149.87c-.13-.06-.26-.19-.39-.25s-.13-.46-.26-.52c-1-.33-1.17-1.17-1.3-2a2.58,2.58,0,0,0-.65-1.36c-.13-.2-.32-.46-.65-.2s-.06.39,0,.59c.46.77.91,1.49,1.3,2.26A2.14,2.14,0,0,0,34,149.62c.06.13.19.32.39.25v.26c0,.13,0,.2.13.13s-.13-.26-.2-.39Zm9.2,15.95c0-.06.2-.26-.06-.26l.13.2c.25.19.51.45.77.06-.19.78.46.84,1,.91l-1-.84c-.26,0-.52-.2-.77-.07ZM28.47,46.74h-.13c-.07,0-.26-.2-.2.06.13,0,.26-.13.39-.13h0ZM53.62,170c-.13.06-.13.19,0,.19h.13c0-.13,0-.19-.2-.19-.06-.39-.32-.39-.64-.26-.13-.33-.39-.39-.78-.2a4,4,0,0,0,.84.13c.13.33.26.58.65.26Zm1.62,0c-.13.06-.13.19,0,.32h.13c.06-.13,0-.19-.13-.32s-.13-.2-.07-.33a1.05,1.05,0,0,1,1.3.71c-.19.13-.52-.19-.58.2l.19.19c.46.2.2-.32.39-.39s.58.2,1-.19c-1-.65-2-1.23-3-1.88-.19-.13-.58-.26-.58.06s-.52.39-.39.72.39.32.65.39.9-.46,1.16.26c-.13,0-.19.13-.32.19.13.2.26,0,.39,0Zm92.5,5.57h.13c.13.07.2,0,.13,0a.27.27,0,0,0-.26.13c0,.19-.13.26-.32.26s-.19.26-.26.39-.26.19,0,.26a.25.25,0,0,0,.26-.13.39.39,0,0,0,0-.52c.32.13.39,0,.32-.32Zm-13.54,3h-.26a.38.38,0,0,0,.26-.07h0Zm2.2,5c-.13.06-.32-.2-.45,0h0a.91.91,0,0,0,.38-.13v-.13c.13-.13.07-.13,0-.07a.61.61,0,0,0,.07.26ZM7.59,107a4.2,4.2,0,0,0,.85-.13c-.26,0-.59-.19-.78.2-.2,0-.33,0-.13.19a.49.49,0,0,1,.13-.26Zm33.26,64.37c.26-.26,0-.32-.13-.52a1.47,1.47,0,0,0-.26-.39,3.91,3.91,0,0,1-1-1.88,2.84,2.84,0,0,0-2.14-2.33.66.66,0,0,1-.52-.26c-.39-.78-1.17-.91-1.88-1.3-.13-.12-.26-.25-.45-.19.12-.71-.33-1.1-.72-1.56a3,3,0,0,0,.78,1.5c.13.13.19.38.45.19a.89.89,0,0,0,.33,1.17c1,.13,1,1,1.16,1.55a1.88,1.88,0,0,0,.52.85,23.76,23.76,0,0,0,3.44,2.78c0,.2.13.26.32.26.26.33.46.59,1,.33a.71.71,0,0,0-1-.33ZM23.22,150.07c0,.06-.33-.13-.2.13.07,0,.13-.13.26-.2,0,.13-.13.26-.06.46s.13.26.13.39c.19-.13.06-.26.06-.39a.4.4,0,0,1,.06-.26c1.17-.33,1.24-.26,1.63.58.13.33,0,.65.32,1a3,3,0,0,0-.71-1.81c-.59-.52-1-.45-1.17.32-.13,0-.19,0-.26-.13Zm107.6,37c.26-.39.91-.39,1-1-.39.32-1,.26-1,1a.4.4,0,0,0-.51-.13c-.13,0-.39.13-.33.19.07.26.26.2.46.13S130.7,187.08,130.82,187ZM49.66,175.93c-.06.13-.13.26.13.26,0-.06-.13-.13-.13-.26s.13-.77-.45-.77-.91,0-1-.65c0-.13-.39-.26-.65,0,.59.71,1,1.75,2.21,1.42Zm66.51,12.84c-.32.13-.51-.52-.9-.13.26.32.65-.26.9.13.46.32.07.71,0,1.1s.52.91.72.71.06-.71.39-1-.26-.33-.39-.52-.59.13-.78-.26ZM53.23,168c.13.19.26.38.45.13s-.13-.26-.26-.26a15.78,15.78,0,0,0-2.59-1.62,4.88,4.88,0,0,0,2,2.59c.39-.26-.71-1,.45-.84ZM28.4,141.51c-.26.33-.52.13-.52-.13a1.24,1.24,0,0,0-1-1c0,1,1.95,4.53,3.18,5.83a3,3,0,0,0-.72-1.88c-.38-.65-.77-1.3-1.16-2-.13-.26-.33-.58.13-.78A.69.69,0,0,1,29,142a.8.8,0,0,0,1,.65,6.2,6.2,0,0,0-.85-1.75c-.25-.33-.25-1.1-.77-1-.85.26.19.84,0,1.29v.33Zm112.28,33.26c.84-.26,1.16-1.17,2-1.49.45-.13.32-.78.13-1.11s-.59-.25-.91.13a4.1,4.1,0,0,1-2.07,1.24c-1.37.32-1.63.51-1.63,1.81a13.67,13.67,0,0,0-2.65,2.14c.65.32.9-.13,1.23-.32a2.69,2.69,0,0,1,1.42-.52,2.71,2.71,0,0,0,2.53-1.88Zm-17.05,3.69c-2.27.65-4.21,2.21-6.68,2.6-1.88.32-3.56,1.29-5.44,1.55-.26,0-.46.2-.59.52,1.24-.19,2.4-.58,3.63-.78,1.69-.32,3.18-1.36,4.87-1.68s3.17-1.43,4.79-2.08a8.54,8.54,0,0,0,2.92-1.36,5.27,5.27,0,0,1,1.49-.71A30.77,30.77,0,0,0,132,175a1.35,1.35,0,0,0,.46-.39c.38-.26.13-.52,0-.78-.2-.45-.52-.26-.72,0a24,24,0,0,1-3.82,2.59c-1.36.78-2.85,1.36-4.22,2.08ZM8.82,93.28c1,.26,1.17.39.72,1.1S8.82,95.75,9,96.26a2.27,2.27,0,0,1-.45,2.4c-.59.65,0,1.23-.13,1.88S8.57,102,8,102.68c-.06.07.13.26.26.33.39.19.26.52.2.84-.07.65-.2,1.3-.26,2.07a1.66,1.66,0,0,0,.64-1.23,24.19,24.19,0,0,0,.65-3.82c0-.65.72-1.1.59-1.69-.33-1.75.26-3.37.64-5.05.33-1.24,1.24-2.4.72-3.83,0-.13.13-.39.13-.58.58-2.34,1.23-4.73,1.81-7.07a10.62,10.62,0,0,0,.2-1.36,37.14,37.14,0,0,0-2.86,7.13c-.19.84-.51,1.36-1.49,1.17-.13-1.23,1.24-1.88,1.11-3.11-.26.26-1.11.13-.59.9.2.26,0,.46-.32.52a.51.51,0,0,0-.52.46c0,1-1.1,1.88-.07,2.85v.26c-.64.65,0,1.23.07,1.81-.07,0-.13.13-.2.13-.64.13-.58.59-.58,1.1,0,.13.13.13.26.13.45-.19.26-.58.26-.9s0-.39.26-.46Zm5.51,3.24c0,.26.13.46.13.65-.38,2.27-.84,4.54-1.23,6.87v.59c0,.26.26.45.52.58s.46-.19.52-.39c.26-.65.71-1.23.26-2a2,2,0,0,1-.07-1.49,22,22,0,0,0,.72-3c.19-1.49.78-2.85.84-4.34,0-.59-.13-1.5.13-1.75.71-.59.06-1.37.45-1.82,1-1.23.65-2.79,1.17-4.08.26-.72,0-1-.71-1.17a4.35,4.35,0,0,0-.85,2.46,1.37,1.37,0,0,1-.84,1.3,2.32,2.32,0,0,0-1.1,1.69c-.78,3-.84,6.22-1.75,9.26a.74.74,0,0,0,.19.59,2.44,2.44,0,0,0,.72-2.08c0-.71,0-1.49.84-1.81Zm8.76-15.94a14.84,14.84,0,0,0-1.56,2.85,6.75,6.75,0,0,0-1.1,2.85,7.21,7.21,0,0,1-1,2.92c-.07.19-.33.32,0,.45.84.33.45.91.26,1.23a13.2,13.2,0,0,0-.78,2c-.33.91-.33,1.82-.59,2.73-.45,2-.64,1.94-.45,3.69v.78c0,.71-.78,1.43-.19,2.2-.72,1-.26,2.08-.39,3.12-.07.71-.52,1.42-.33,2.2a1.38,1.38,0,0,0,.91-1.36,30,30,0,0,1,.84-5.9,8.62,8.62,0,0,0,.72-2.53,16.84,16.84,0,0,1,.77-6,78.06,78.06,0,0,1,2.86-10.18c.13-.39-.07-.71,0-1.1ZM30.67,154a1.86,1.86,0,0,0-.06-2.52c-1-1.11-1.3-2.6-2.21-3.76a21.67,21.67,0,0,1-2.33-4.61,33.84,33.84,0,0,0-2.34-3.5c0,.33-.26.65,0,1a13.25,13.25,0,0,1,1.56,3.18c.39.78,1.1,1.36,1.36,2.08a38.69,38.69,0,0,0,2.08,4.79c.64,1.1,1.23,2.21,1.94,3.5ZM152.48,53.55a1.18,1.18,0,0,0,.06.51,7.18,7.18,0,0,0,1.23,1.88,7,7,0,0,0,.78.52c.65.52-.26.59-.26.59.46.38.78,1,1.43,1a1.35,1.35,0,0,1,1.16.45c.65.65,1.37,1.23,2.27,2-.06-.45,0-.65-.13-.78a7.38,7.38,0,0,1-1.49-2.46,2.36,2.36,0,0,0-1.29-1.43,6.09,6.09,0,0,1-2.34-1.68c-.45-.71-.91-.65-1.49-.58ZM50.64,166.08a56.19,56.19,0,0,1-6.36-4.54c-.32-.26-.51-.26-.51.26s-.59.07-.85.46a19,19,0,0,0,1.49,1.49c.13.13.52.45.59.19.32-.84.77-.39,1-.06.72,1,1.88,1.36,2.66,2.2a1.21,1.21,0,0,0,2,0Zm-9,3.5c.84,1.36,1.16,2.72,2.52,3.44a7.51,7.51,0,0,1,2,1.16c.19.26.45.13.71,0,.46-.26.13-.51,0-.77s-.39-.46-.58-.65c-1.49-1-2.92-2.08-4.6-3.18Zm44.21,31.83a4.93,4.93,0,0,1-1.24-.65c-.64-.52-2-.26-1.88-1.68,0-.13-.9-.13-.84.13.33.71-.45.9-.45,1.49s0,1.1.58,1.1a14.52,14.52,0,0,0,3.89-.39Zm-52.9-39,.26-.26c-.58-.84-1.17-1.62-1.75-2.46a19.05,19.05,0,0,0-1.62-2.4c-.59-.65-.72-1.69-2-2,1,1.37,1.49,2.66,2.33,3.83s2,2.07,2.79,3.31ZM21,132.11c-.33,0-.52.26-.52.65a5.27,5.27,0,0,0,1.88,3.63.52.52,0,0,0,.45.07c.26-.07.2-.33.13-.52-.52-1.23-1.1-2.4-1.62-3.63,0-.13-.19-.2-.26-.26Zm-3.7,6.16a1.32,1.32,0,0,1,1.1,0c1,.2-.06.84.33,1.17.19.19.19.58.32.84a7.48,7.48,0,0,0,1.62,3.05,1.37,1.37,0,0,0-.26-1.1,9.73,9.73,0,0,1-1.1-2.86c-.26-1.62-.19-1.62-1.62-1.42-.13,0-.32-.07-.26.32Zm3.37-6.68a26,26,0,0,0-1.23-5.18.78.78,0,0,0-.32-.33.24.24,0,0,0-.39,0c-.13.13-.2.33,0,.39.71.39.45,1,.45,1.62s-.13,1.3.33,1.56C20.17,130.17,20.23,131,20.62,131.59Zm55.49,66.84a4.08,4.08,0,0,1,1.69,1.17,1.46,1.46,0,0,0,.26.06c1-.45,1.55-.06,1.75.91,0,.13.19.19.39.13s.39-.2.32-.26a.61.61,0,0,1,0-1,2.45,2.45,0,0,1-.71-.07.43.43,0,0,1-.26-.13c-.71-.84-1.88-.52-2.72-1.17C76.63,197.91,76.24,198.1,76.11,198.43ZM20.17,153.89a4.2,4.2,0,0,0-.71-2.59A6.52,6.52,0,0,0,17.58,149a10,10,0,0,1,1.23,2.53,5.33,5.33,0,0,0,1.36,2.33ZM140,59.51c-1.62-1.95-2.85-2.72-4.47-2.72a.91.91,0,0,0,.65.64,6.5,6.5,0,0,1,2.65,1.88c.33.33.72.65,1.17.26ZM16.6,116c.65,1.43,0,2.85,1,4,.26.26-.52,1.17.07,1,.84-.13-.26-.78-.07-1.1.39-1-.45-1.88-.13-2.86.13-.45-.26-.71-1-1.1Zm-4.47-8.36a41.66,41.66,0,0,0-.26,9.4C11.94,113.83,11.87,110.72,12.13,107.61ZM170.5,91a22.55,22.55,0,0,0-1.62-5.38C169.4,87.45,169.53,89.33,170.5,91Zm-24.9-6.09c.26-.19.52-.32.39-.65-.39-.84-.84-1.62-1.23-2.4-.13-.26-.26-.58-.65-.32s-.58.52-.19.91A7.08,7.08,0,0,1,145.67,85Zm22-19.64c-.06.45-.78.58-.65,1a2.29,2.29,0,0,0,.78,1.1,8.35,8.35,0,0,0,1.82.46C168.75,66.83,168.16,66.06,167.58,65.28ZM34.75,153.76c-.32-1.55-1.42-2.59-2.33-3.76A8.94,8.94,0,0,0,34.75,153.76ZM148.65,46.35a17,17,0,0,0,3.24,3.18.8.8,0,0,0-.26-1.24A6.28,6.28,0,0,0,148.65,46.35ZM8.57,95.16c-1,.33-.91,1.1-1.24,1.62.78.65.46,1.11-.19,1.62-.13.07-.13.13,0,.26a.31.31,0,0,0,.39.07,1.25,1.25,0,0,0,.65-1c.19-.78.26-1.62.39-2.53ZM40.07,156c-1,1.11-.71,1.88,1.1,2.73C40.78,157.78,40.46,156.94,40.07,156ZM10.32,149.1A6.92,6.92,0,0,0,11,147c0-.19,0-.45-.26-.52-.45,0-.32.26-.26.52s0,.52-.32.59-.39-.33-.52-.59a1.27,1.27,0,0,1-.33-.06C9.67,147.67,9.93,148.25,10.32,149.1ZM135,172.3s-.19-.19-.32-.19c-.65-.07-1,.39-1.49.65s-.26.71-.26,1.1.19.32.39.32a4,4,0,0,0,1.62-1.81ZM4.35,131.59a6.62,6.62,0,0,0-.52,2.86c0,.45.07.9.59.84s.39-.45.45-.78A8,8,0,0,0,4.35,131.59ZM144.7,59.7c-.72,1,.13,1.43.71,1.88.19.2.39.33.65.07a.58.58,0,0,0,.13-.71,3.39,3.39,0,0,0-1.43-1.3ZM93.42,204.91h.91c.71,0,.71,0,1.23-.91.13-.13.58-.13.32-.45a.61.61,0,0,0-.84,0A12.84,12.84,0,0,0,93.49,205ZM17.51,108.26c-1.23,1.68-1.23,1.75-.06,3.63C17.19,110.53,17.58,109.49,17.51,108.26Zm3.83-5.71c.77,0,1.42.39,1.49-.19,0-1,.64-1.82.52-2.92-1.5.58-.65,2.33-2,3Zm-9.66,31.7c-.2,1.49.65,2.27,1,3.18A6.11,6.11,0,0,0,11.68,134.25Zm14-1.1v-.39c0-.26-.07-.52-.39-.58s-.32.26-.32.52-.2.32-.39.39c-.72.19-.72.19-.26.9a1.17,1.17,0,0,1,1.49-.84ZM12.84,93.41c-.51,1-.58,2-1.16,2.92a.21.21,0,0,0,.19.32c.2,0,.33-.06.33-.19C12.39,95.42,12.65,94.45,12.84,93.41Zm123,91.41c-1.49-.46-1.49-.39-1.95,0a.59.59,0,0,0-.19.9c.26.39.58.33.9,0a3.48,3.48,0,0,1,1.3-.9ZM166.67,69.17c-.71-1.56-1.1-2.14-1.94-2.4A14.43,14.43,0,0,0,166.67,69.17ZM128.36,182.42a4.27,4.27,0,0,0-2.4,1.36C126.74,183.26,127.84,183.39,128.36,182.42Zm-21.78,1.49c1-.2,2.07-.07,2.92-.72C108.59,183.78,107.42,183.19,106.58,183.91Zm-85.7-78.18a2.69,2.69,0,0,1-1,1.36.4.4,0,0,0,0,.65c.2.26.46,0,.72,0a.57.57,0,0,0,.39-.58v-1.37Zm110.66,74.74q1.23.14,1.62-1.29A1.76,1.76,0,0,0,131.54,180.47ZM161.42,62.23c-.32.59.13.84.26,1.23a.5.5,0,0,0,.78.2c.19-.13.45-.26.39-.59a.5.5,0,0,0-.46-.51A1.18,1.18,0,0,1,161.42,62.23ZM7.53,86.09c.58.45,1,.26,1.16-.2a18.52,18.52,0,0,0,.39-2.07c-.58.71-.32,1.88-1.55,2.2Zm8.17,58.6-.65-2.4c0-.19-.2-.19-.33-.13s-.13.2-.13.2c.46.64.39,1.49,1.17,2.33ZM8.05,107.48c.26.65-.72,1.43.26,2.14C8.63,108.78,8.89,108.13,8.05,107.48Zm4.34-4a2.8,2.8,0,0,0-.45,2.2A2,2,0,0,0,12.39,103.53Zm125.05,67a2.23,2.23,0,0,0-1.69,1.24C136.33,171.4,137.24,171.53,137.44,170.55ZM102.89,195a3.09,3.09,0,0,0-2.08.2C101.59,195.71,102.11,195.58,102.89,195Zm-95-106.5c-.78.38-.58,1.1-.91,1.49a.35.35,0,0,0,.13.52c.2,0,.39,0,.52-.2a3.22,3.22,0,0,0,.2-1.81ZM152.15,72a1.45,1.45,0,0,0-1.55-1.36A2.68,2.68,0,0,0,152.15,72ZM18.74,54.58a3.07,3.07,0,0,0-.84,1.56C18.74,55.75,18.94,55.3,18.74,54.58Zm-5,51a2.44,2.44,0,0,0-.45,2.4C14.08,107.22,13.69,106.38,13.75,105.6Zm171.92-2.85c0,.13-.13.26-.13.32-.07.71-.39,1.43.26,2,0,0,.26,0,.26-.06a2.3,2.3,0,0,0-.13-2.21,1,1,0,0,1-.26-.06Zm-167.9,34.1a1.32,1.32,0,0,0-.58-1.3C17.19,136.13,17.19,136.52,17.77,136.85Zm10.44,1.94c0-.19-.07-.45-.33-.39s-.45,0-.39.33a.36.36,0,0,0,.33.38C28.08,139.11,28.21,139,28.21,138.79Zm-16.4-41.1c-.46.07-.52.45-.52.78,0,.13,0,.32.26.32a.49.49,0,0,0,.26-.13C11.94,98.34,12.07,98,11.81,97.69Zm13,33.9c.13-.58-.2-.84-.33-1.23C24.51,130.75,24.25,131.21,24.84,131.59ZM48,187.86a3.7,3.7,0,0,0-1-1.42C47.07,187.28,47.27,187.6,48,187.86Zm-34.81-98c.72-.46.65-.85.52-1.56C13.56,88.94,13.43,89.33,13.23,89.85Zm-6,2.72A2.05,2.05,0,0,0,7,94.51C7.07,93.74,7.14,93.22,7.2,92.57ZM95.75,200.24c-.58.13-1.55-.39-1.36,1C94.91,201,95.3,200.44,95.75,200.24ZM122,56.07c-.33-.45-.58-.71-1-.52a1,1,0,0,0-.13.26c.2.39.59.39.91.39,0,0,.06,0,.26-.13Zm.65,3c-.39-.2-.72-.33-1-.46s-.51-.19-.64.07.13.45.39.45.71.39,1.16-.13ZM32.74,155.58c-.06,0-.19.06-.19.13-.06.45.39.39.58.58s.26,0,.2,0c-.13-.26-.13-.58-.52-.65Zm-20.22-3.89a.61.61,0,0,0-.45-.58.37.37,0,0,0-.39.39c0,.25.13.38.39.32s.38.19.51-.13ZM27,136.78c.26-.32-.06-.52-.13-.78s-.26-.13-.32,0v.26c.32.07.13.65.52.65Zm-5.51-32.41c.32.13.71.39,1,0,.13-.2,0-.39-.19-.52C21.79,103.59,21.85,104.24,21.53,104.37ZM8.44,121c-.33.59-.07.91.38,1.3C8.89,121.74,9,121.29,8.44,121Zm-.2-3c-.32.39-.65.71-.52,1.17,0,.19.2.32.39.39s.33-.2.33-.39A9.57,9.57,0,0,0,8.24,118Zm63.92,77.4c.52.26.91.65,1.49.39C73.26,195.19,72.81,195.25,72.16,195.38ZM147.81,52.12a.29.29,0,0,0-.2.19c0,.2.13.26.33.26s.32,0,.26-.26-.2-.19-.39-.19ZM2.67,124.79a.43.43,0,0,0-.26.13c.13.19.19.32.32.52a.21.21,0,0,0,.2-.2C2.93,125.05,2.93,124.85,2.67,124.79Zm128,57c0-.2.38-.07.25-.39,0,0-.19-.07-.25,0s-.2.19-.2.39S130.57,181.9,130.7,181.77Zm-119.22-81c-.52.33-.45.72-.32,1.36C11.35,101.65,11.68,101.32,11.48,100.8ZM7.66,99.44c-.07-.13,0-.39-.26-.39a.47.47,0,0,0-.46.52c0,.26.07.52.39.52s.26-.32.26-.65Zm43,69.23c.06.26.32.33.52.39s.32,0,.25-.19a.45.45,0,0,0-.51-.46c-.13,0-.33,0-.33.26Zm-7.46-7.9c-.13-.07-.19-.39-.45-.26v.26c0,.19.19.19.32.19s.2-.06.07-.19Zm61.71,41.16c-.32.13-.77-.07-.77.45s.45.33.71.33.65-.07.65-.46-.33-.32-.52-.32ZM13,154c-.07-.39.45-1-.52-.9A9.31,9.31,0,0,0,13,154Zm2.2-25.47a1.55,1.55,0,0,1-.32-.26c0,.06-.13.19-.13.26s0,.32.26.26C15.11,128.81,15.18,128.68,15.24,128.55Zm145.27,43.56c.2-.07.2,0,0,0s-.45-.19-.71,0c0,0,0,.26.07.26C160.13,172.5,160.26,172.17,160.51,172.11ZM114,190.2a.82.82,0,0,0,1-.13A.9.9,0,0,0,114,190.2Zm-56.2-.46c.13-.06.45,0,.32-.32s-.26-.33-.45-.33-.39.13-.33.33S57.57,189.68,57.77,189.74Zm66-5.12h.13c.26,0,.32-.19.45-.26h0a1.21,1.21,0,0,0-.52.2.22.22,0,0,1-.06.13ZM26.13,137.1a1.21,1.21,0,0,1-.32.26.45.45,0,0,0,.26.33c.13,0,.26,0,.26-.26s-.13-.26-.13-.39Zm119-73c0-.2,0-.26-.2-.26a.43.43,0,0,0-.26.06,2,2,0,0,0,.26.33A1.43,1.43,0,0,0,145.09,64.05ZM10.9,132.63c0,.07-.13.2-.07.26a.29.29,0,0,0,.2.2c.13,0,.19,0,.19-.13s-.19-.26-.26-.33ZM7.85,111.5a2.87,2.87,0,0,0-.19.32c.06,0,.19.13.26.07.26-.07.19-.26.19-.46s0-.19-.26.07Zm19.51,43.69a.34.34,0,0,0-.06-.45c-.13-.07-.13-.65-.39-.13C26.78,154.8,27.11,155.06,27.36,155.19ZM7.4,109c.19,0,.26-.13.26-.33s0-.26-.07-.26-.26.07-.32.2,0,.26.13.32Zm96.52,93.41a.41.41,0,0,0-.65-.13c-.13,0-.32.26-.32.32.19.33.52.2.78.2s.19-.2.19-.33ZM23.41,138.21c-.13,0-.19.13-.06.19s.19.2.32.33c0-.07.06-.2.06-.26a.24.24,0,0,0-.26-.26Zm-2.79,26.7c0-.19,0-.26-.19-.32s-.26,0-.26.19.13.26.26.33.19-.13.26-.2Zm125.63-79c0-.19-.13-.26-.26-.32s-.19,0-.26.06c0,.26.07.39.26.39a.84.84,0,0,0,.2-.13Zm-5.51-25.8s-.13-.13-.19-.13-.13.13,0,.2a.06.06,0,0,0,.06.06C140.74,60.22,140.81,60.22,140.74,60.09ZM26.91,139.5c.07-.32,0-.39-.19-.45s-.26,0-.33.19.13.26.26.33.26,0,.26,0Zm120.77-2.07c.19-.2.19-.33,0-.33a.48.48,0,0,0-.39.13c-.06.13-.06.33.07.33a.28.28,0,0,0,.25-.2Zm-4.34-67.55h.13l-.2-.19c-.13,0-.19,0-.13.06S143.27,69.88,143.34,69.88ZM123.69,195.71h-.13l.13-.07h0ZM149.82,48.62s-.07-.13-.13-.07a.24.24,0,0,0-.2.07s.07.13.13.06A.26.26,0,0,0,149.82,48.62ZM126.42,186.7a.07.07,0,0,0-.07-.07.2.2,0,0,0-.13.07.06.06,0,0,0,.07.06h.06ZM149.36,51.6s-.12.07-.06.13a.23.23,0,0,0,.06.19s.13-.06.13-.12S149.49,51.67,149.36,51.6Z"/><path class="cls-1" d="M171.15,62.56c-1.17-.26-1.43-1.43-2-2.21-1-1.23-1.95-2.59-3-3.82-.39-.46-.65-1.1-1.49-.78-.33.13-.65-.26-.65-.52-.06-1.23-1.23-1.62-1.88-2.4A6.57,6.57,0,0,0,160,50.3h0a5.11,5.11,0,0,0-1.62-2c-.59-.51-1.17-1-1.69-1.55a49.19,49.19,0,0,0-6.74-6,70.7,70.7,0,0,0-8.43-5.31c-2.07-1-4.28-2-6.42-3a39.68,39.68,0,0,0-5.38-2A38.29,38.29,0,0,0,123.63,29a49.3,49.3,0,0,0-6.87-.91,2.37,2.37,0,0,0-1.49-.19c-2.86,0-5.71,0-8.56.19A62.17,62.17,0,0,0,58.93,57.5c-.32.52-.9,1-.77,1.75h0c-.26-.06-.33.13-.39.32a54.32,54.32,0,0,0-5.19,11.54,62.3,62.3,0,0,0,3,46,63.8,63.8,0,0,0,13.94,19,65.56,65.56,0,0,0,22,13.35c1.16.45,2.33.71,3.5,1a16.62,16.62,0,0,0,3.56.84c1.17.13,2.21.84,3.44.65a1.06,1.06,0,0,1,.84.32c.39.39.65,0,1,0l1.43.2a64.9,64.9,0,0,0,13.22,0l1.36-.2a2.34,2.34,0,0,0,.91.2h0a.79.79,0,0,1,.65-.33l.84-.13a7.71,7.71,0,0,0,1-.19,1.73,1.73,0,0,0,.52-.13,71.94,71.94,0,0,0,13.16-4,.92.92,0,0,1-.59.84c-1.16.46-1.81,1.43-2.72,2.21a7.32,7.32,0,0,1-1.36.91,9.62,9.62,0,0,0-1.81,1.55c-.59.52-1,1.17-1.75,1.36s-1,.84-1.43,1.36c-.84.85-1.88,1.43-2.33,2.66-.13.39-.46.46-.91.39-1-.19-1.49.32-2.14,1s-1.3,2-2.53,2.33c-.19,0-.45.26-.58.46-1.17,1.68-2.85,2.07-4.73,2.46a18.11,18.11,0,0,1-3.38,1,.51.51,0,0,0-.38.26c-.39,1.17-1.37,1.23-2.4,1.23-.78,0-1.56.46-2.4.39a.88.88,0,0,0-.65.39,3,3,0,0,1-2.72,1.17,11,11,0,0,0-2.47.32,2.22,2.22,0,0,1-2.2-.19c-.39-.33-.91-.13-1.36-.13-2.66.06-5.25.32-7.91.45A62,62,0,0,1,79,170a19.8,19.8,0,0,1-5.83-1.3c-2.53-1.1-5.13-1.88-7.65-2.85a4.64,4.64,0,0,1-1-.45c-1.94-1.62-4.08-2.92-6.15-4.41a67,67,0,0,1-9.53-8.17,87.91,87.91,0,0,1-20.42-32.28,91.53,91.53,0,0,1-3.83-14.33c-.65-3.24-.91-6.54-1.23-9.79,0-.25-.13-.51-.13-.77,0-1.62-.13-3.24-.19-4.8.13-2.33.19-4.67.32-7a101.11,101.11,0,0,1,1.94-13.16,94.19,94.19,0,0,1,4.8-14.91c.71-1.69,1.49-3.37,2.21-5.06a23.67,23.67,0,0,1,1.88-3.3,97.09,97.09,0,0,1,7.9-11.87c.13-.19.26-.45.39-.64,2.53-2.92,4.8-6.16,7.72-8.69a108.13,108.13,0,0,1,13-10.11c1.69-1,3.24-2.27,4.93-3.18a96.71,96.71,0,0,1,17.5-7.33A91.63,91.63,0,0,1,109,1.69c2.59,0,5.25,0,7.84.06,1.69,0,3.37.26,5.06.39.39,0,.71.13,1.1.13,2.85.45,5.71,1,8.56,1.55a89.3,89.3,0,0,1,12.25,3.63,48.79,48.79,0,0,1,4.8,2.14c1.49.78,3.17,1.37,4.66,2.14A88,88,0,0,1,189,46.16a84.17,84.17,0,0,1,5.64,11.92A87.6,87.6,0,0,1,200.12,80a89.17,89.17,0,0,1-.13,21.66,90.49,90.49,0,0,1-2,10.3c-.84,3.44-2.07,6.74-3.24,10.12s-2.85,6.15-4.28,9.26a53.77,53.77,0,0,1-6,10,56.2,56.2,0,0,1-6,7.59,3.9,3.9,0,0,0-.26-.52c1-.78.84-2.33,1.81-3.18.46-.39-.13-1,.2-1.55.13-.26,0-.78.19-.85.65-.39,1.17-.84.91-1.75a7.52,7.52,0,0,0,1.42-4.08,1.13,1.13,0,0,1,.59-.84c.19-.2.32-.39.13-.65-.46-.52-.13-.78.39-.91s.64-.45.39-.91a.83.83,0,0,1-.2-.84c.33-.84-.39-.84-1-1a2.93,2.93,0,0,0,.84-2,8.78,8.78,0,0,1,1.23-4c-.39-.13-1,0-.77-.78s.32-2,1.49-2.46c.32-.13.39-.65.26-1-.2-.52-.52-.07-.78,0-.52,0-.46-.33-.46-.59-.06-.65.39-1.29-.13-1.94-.38.45,0,1-.38,1.68v-1.94c0-.71-.07-1.36.84-1.49.39-.07.45-.33.39-.72s-.07-.71-.13-1.1c-.46,0-.46.52-.78.78a6.75,6.75,0,0,1,0-1.68c.39-.26,1,.38,1.23-.07a5.92,5.92,0,0,0,.52-1.62c0-.13,0-.39-.07-.45-1.55-.72-.51-1.37,0-2.08a.59.59,0,0,0,0-.65c-.58-.32-.38.59-1,.52a13.22,13.22,0,0,1-.06-2.27,2.33,2.33,0,0,0-.13-1c-.13-.58-.2-1.1.58-1.36a.83.83,0,0,0,.58-1c-.12-1.11-.06-2.21-1-3.05-.32-.32-.26-.65,0-1,.52-.84.39-1-.52-1.36-.06-1.68.33-3.5-.84-5a23.66,23.66,0,0,1,.2,3.63c0,.51-.13,1.23.64,1.36-.58,1.1-.19,2.27-.26,3.37a26.82,26.82,0,0,1-.71-3,16.08,16.08,0,0,1-.26-6.81,5.18,5.18,0,0,0-.91-4,5.73,5.73,0,0,1-.51,1c-.39,0-.46,0-.46-.19.07-1.36,0-2.72,0-4.09,0-1.88-.91-3.43-1.16-5.18-.26-2.14-1.5-4-2-6-.2-.71-.59-1.42-1.56-1.36-.71,0-.91-.45-.65-1a.8.8,0,0,0-.26-1,12.18,12.18,0,0,1-2.27-3.63.92.92,0,0,1,0-.91c.26-.06.46.26.85,0-.26-.58-.39-1.3-1-1.62-.77-.39-.58-1.23-1.1-1.75s-.65-1.1-1.23-1.49c-.32.26-.06.58-.13.78s-.19.19-.32.26Zm15.23,44a.46.46,0,0,0-.19-.32c-.13-.07-.26.06-.33.26s0,.39.26.45.19-.13.26-.39Z"/><path class="cls-1" d="M306.24,75.91c.52-.32.58-.84.84-1.3l5.25-11.08a4.66,4.66,0,0,0,.52-1.62A6.92,6.92,0,0,1,314,59.64c2.07-3.76,3.76-7.65,5.51-11.6a7.59,7.59,0,0,0,1.1-2.92c0-.33.33-.39.46-.59s.51-.51.19-1.16a2.58,2.58,0,0,1,.39-2.14c.45-.91.58-2,1.68-2.53.52-.26,0-.39-.13-.58s0-.33.13-.52a4.37,4.37,0,0,0,1-2.27c.2-.58.52-1.1.78-1.69,3.11-6.28,6.35-12.44,9.92-18.41,1.55-2.59,3-5.25,4.47-7.9a1.67,1.67,0,0,0,0-1.95,1.2,1.2,0,0,1-.32-.71c0-.65.45-1,1-.65s.91,0,1.11-.45c.32-1,.58-2.14,1-3.57.71,1.94,2.27,2.53,3.56,3.44.59-.52,0-1-.13-1.62.91.25,1.75.19,2.34.77.32.33.9.2.9,0,.13-1,.85-.58,1.37-.71a6.11,6.11,0,0,1,4.27.58c.65.33,1.43.26,2.08.85a4.48,4.48,0,0,1,1.81,3.5,65.22,65.22,0,0,1-.13,8c-.19,1.5.46,2.86.26,4.48a2.53,2.53,0,0,0-2.14-1c-.71,0-.84-.19-.9-.78a4.65,4.65,0,0,0-.13-.9c0-.2.26.12.06,0a.21.21,0,0,0-.06.12,5.09,5.09,0,0,0,.32,2.92c.2-.26.13-.71.58-.71s.26.39.39.58a2.57,2.57,0,0,1,.26,1.23,8.26,8.26,0,0,0,.46,2.53c0,.2.32.39.19.65s-.26.32-.58.32-.13.39-.2.65c-.06,1.36.72,2.53,1,3.83a2.33,2.33,0,0,0,.9,1.68,18.3,18.3,0,0,0,0-5.38c-.71.46-.13.85-.26,1.23-.58,0-.71-.51-.84-.9s.2-.39.52-.26.39-.2.39-.46a3.14,3.14,0,0,0-.07-1.55c-.38-.59-.13-1.23-.13-1.82.78.2,1.24.52,1.11,1.36-.13.65.32,1.24.32,1.82-.19,1.94,1,3.76.39,5.83h-1.17c-.32.65.13,1.17,0,1.75-.39.33-.45-.52-.84-.26s0,1-.13,1.17c-1.17.91,0,1.88-.19,2.79-.07.45-.2,1.23.77.65.26-.13.33.45.46.71s.39.32.65.26.19-.33.19-.52v-.13c-.52-.91-.32-2-.52-3-.26-1.36-.32-1.36,1.17-1.82.13,1.3.13,2.6.26,3.89a1.91,1.91,0,0,1-.78,1.88c-1,.52-1,1.3-.78,2.14a1.18,1.18,0,0,0,.26.85c0-1,1.43-.85,1.1-1.95.26,0,.26.19.33.32a13.21,13.21,0,0,0,.84,3,4.91,4.91,0,0,1,.32,2.4,5.88,5.88,0,0,0,.46,3c.58,1.1.13,2.34.65,3.5a14.27,14.27,0,0,1,.77,3.37c.13.85-.13,1.75.07,2.6,0,.26-.2.26-.39.26-.52,0-1,.19-.52.84.07.13.2.32.13.45-1,1.69-.19,3.18.39,4.73a1.78,1.78,0,0,1,.13.78c-.71,2.53.32,4.86.65,7.26.13,1,.84,1.82.78,2.85v1.3c.64.39.9-.52,1.49-.32.19,1.16-.13,2.4.32,3.5.13.39,0,.45-.32.71-.65.45-.65.65.13.91.13,0,.32.06.32.19.07,1.1.78,2.14.65,3.31,0,.58-.71.78-.71,1.23s1,.45,1,1c-.07,1.1.71,2.27-.39,3.3-.39.39-.07,1.11,0,1.62.52.2.32-.45.65-.45,0,0,.19.13.19.2.33,2.33.59,4.66.91,7,.45,3.11.39,6.28.84,9.4a4.93,4.93,0,0,0,.26,1.68c.46.84-.19,1.1-.58,1.43s-.78,0-1.3-.26a3,3,0,0,1-1.49-3c0-1.17-.06-2.33,0-3.5a12.16,12.16,0,0,0-.71-4,7.12,7.12,0,0,0-.2,3.3c.13,2,.59,4,.72,6,0,.32.06.71-.26.77-.52.13-.59-.38-.65-.71a9.83,9.83,0,0,0-.39-2.72c0-.2-.26.13,0,0a.21.21,0,0,1,.06.13c-.13.52.26,1.17-.19,1.62a.62.62,0,0,0-.06.58c.19.33.64.78.19,1s-.65,1-1.36.84a2,2,0,0,0-.58.13c-.46-.45-.13-1-.46-1.42.07-.26-.32-.07-.13-.07a.24.24,0,0,1,.07.13c-.33.84-.91,1.1-1.62.65-.07,0-.2-.2-.2-.2-1.36.72-.91-.51-1-1-.19-.72-.26-1.43-.38-2.14a1.81,1.81,0,0,0-.2,1.81,2.54,2.54,0,0,1,.13,1.23c0,.33,0,.65-.39.78s-.39-.13-.58-.32a1.17,1.17,0,0,0-.65-.39c-1.23,0-1.49-1.1-1.62-1.82-.26-1.16-.58-2.26-.78-3.43-.39.26,0,.78-.26,1L354.6,104a2,2,0,0,0,0,1.62c.52.85,0,1.75.26,2.6,0,.19-.07.26-.26.32a.27.27,0,0,1-.39-.19,2.25,2.25,0,0,1-.19-.59,32.31,32.31,0,0,0-.59-5.77v1a1.49,1.49,0,0,1-.26,1.17c-.26.26,0,.45.13.65a6.58,6.58,0,0,1,.26,2.27c0,.32-.06.64-.45.64a.65.65,0,0,1-.65-.52c-.13-.38-.06-.84-.32-1.16s-.52-1.1-1.11-.26a.26.26,0,0,1-.45-.13,22.09,22.09,0,0,1-.65-5.84v-.32c1.17-.84.52-1.94.33-2.92-.26-1.36-.65-2.72-.85-4.08-.06-.58-.38-1.17.13-1.75.33-.32,0-.84,0-1.17a15.78,15.78,0,0,1-.51-4.6c0-.58.38-1.23-.33-1.62V83.3c.33-2.27-.78-4.47-.65-6.74a17.14,17.14,0,0,0-.52-4.47,23.83,23.83,0,0,1-.51-6.42V65c-.91-3.76-1-7.65-1.75-11.41a25.17,25.17,0,0,0-.85-3.89c0-.13-.13-.32-.13-.45.26-2.4-.58-4.74-.58-7.07,0-.78-.52-1.43-.39-2.4a3.72,3.72,0,0,0-1.56,2,45.36,45.36,0,0,1-2.46,4.67c-1,1.88-1.62,3.82-2.53,5.7-.77,1.62-1.16,3.37-2,4.93-.26.45-.32,1-1,1.1a.29.29,0,0,0-.26.46c.46.77-.13,1.23-.58,1.68-.52.65-1.17,1.17-1,2.14a1.47,1.47,0,0,1-.71,1.1,3,3,0,0,0-1,1.82c-.06.65-.71,1.23-1,1.81-2.46,5-4.93,10-7.33,15.11-1.62,3.37-3.3,6.67-4.86,10.11-.65,1.43-1.42,2.85-2.14,4.28a1.32,1.32,0,0,1-1.36.91H299.82a1.21,1.21,0,0,1-1.29-.85c-1.24-2.59-2.47-5.12-3.7-7.71-1.94-4-3.95-8.1-5.9-12.12s-3.76-7.85-5.7-11.74-3.89-8-5.84-12c-2.27-4.61-4.53-9.21-6.74-13.88a1.93,1.93,0,0,0-.71-1c-.33,2.53-.65,5-.91,7.46Q267.86,55.39,266.7,65c-.65,5.57-1.36,11.08-2,16.66Q263.32,92.85,262,104c-.2,1.49-.33,3-.52,4.48-.13,1.1-.33,1.23-1.36,1.23H242.84a2.3,2.3,0,0,1-.52-.13c.26-2.14.46-4.21.78-6.29s.39-4.15.71-6.16.46-4.34.78-6.48.39-4.15.72-6.16.38-4.15.71-6.16.58-4.21.84-6.28.39-4.28.71-6.36.59-4.21.85-6.29.45-4.21.71-6.28.58-4.15.84-6.23.52-4.28.72-6.41.51-4.15.84-6.23.58-4.21.78-6.35.52-4.08.77-6.16.52-4.34.78-6.48.52-4.21.78-6.35.52-4.22.78-6.36h15.17c1,0,1.55.07,1.88,1.23a26.66,26.66,0,0,0,1.62,3.44c5.18,11,10.37,21.85,15.56,32.8,5.57,11.86,11.21,23.66,16.79,35.53a.68.68,0,0,0,.38.38Zm23.14-11.67c-.26.2-.45.39-.32.71a.88.88,0,0,0,.26.13c.32,0,.32-.32.32-.58a.37.37,0,0,0,.13-.58C329.64,63.79,329.51,64.05,329.38,64.24Zm2.4-32.41c0-.58.65-1,.59-1.62-.39,0-.65.13-.59.45a3.53,3.53,0,0,1,0,1.17.49.49,0,0,0-.58-.07c-.2.07-.39.2-.26.46s.32.13.45,0,.2-.2.33-.33Zm-5.31,9.85a20.58,20.58,0,0,1,1.94-3.76c.45-.78.78-1.62,1.17-2.4a.67.67,0,0,0-.59.39c-.64,1.36-1.23,2.73-2,4.09a4.16,4.16,0,0,0-.51,1.75c-1,.58-1,1.81-1.5,2.78-.25.52-.77,1.11-.64,1.82.77-1.49,1.1-3.24,2.07-4.6Zm28.78,61.59a.79.79,0,0,0,.19-.85c0-.84-.39-1.75-.32-2.53a40.58,40.58,0,0,0-.65-6.8c-.32-2.34-.52-4.73-.71-7.07a2.91,2.91,0,0,1,0-.78,9.85,9.85,0,0,0-.13-5.31,37,37,0,0,1-1.23-7.07,3.09,3.09,0,0,0-.2-1.36c-.91-3-1-6.29-1.42-9.4-.2-1.42-.39-2.85-.59-4.28-.26-2.52-.84-5-1.1-7.65-.13-1.55-.45-3.11-.71-4.66a13.44,13.44,0,0,0,.26,4.86,39.06,39.06,0,0,1,.84,5.31A93.41,93.41,0,0,0,350.84,65c.19.84-.26,1.56-.13,2.27a51.11,51.11,0,0,1,.78,5.31,55.38,55.38,0,0,0,.91,7.33,47.52,47.52,0,0,1,.71,5.38,10.83,10.83,0,0,1,.19,3.24,8.68,8.68,0,0,0,.33,3.89,4.64,4.64,0,0,1,.13.91c.06,1.68,1,3.3.32,5,.71,1.36.39,2.85.58,4.28a.59.59,0,0,0,.52.65Zm-3.44-9.79c.46-1.36,0-2.66-.19-4-.39-2.4-.2-4.86-.59-7.26-.19-1.1-.45-2.2-.64-3.3-.33-1.95-.26-3.89-.52-5.84s-.46-4-.59-6c-.13-1.82-.71-3.5-.9-5.25.52,10.56,2.52,21,3.5,31.57Zm-7.13-57c.39,7.46,2.27,14.72,2.72,22.11,0,.19.33.39.65.84C347.27,51.47,345.78,44,344.68,36.43Zm1.82-3.24a19.84,19.84,0,0,0,.45,4c.2,1.3.2,2.66.52,4s0,2.53.78,3.82c0-1.62-1.3-10.82-1.75-11.79Zm5.64,60.61a.71.71,0,0,0-.39.65,19.32,19.32,0,0,1,.26,3.82,2.19,2.19,0,0,0,.13.91.43.43,0,0,0,.45.39c.26,0,.32-.19.32-.39s.13-.45,0-.58a27.57,27.57,0,0,1-.84-4.73Zm11.79-13.74c-.25-1.17.91-2.4.2-3.7C363.16,77.66,363.55,78.89,363.93,80.06Zm.91,8.62c0,.78-.45,1.56-.32,2.2s.19,1.37.45,2.08a7.43,7.43,0,0,0-.19-4.28ZM322.45,50.11c1.16-.71,1-2,1.42-3.11C323.42,48,322.9,49.07,322.45,50.11Zm40.64,25.28a3.49,3.49,0,0,0,.26-3.37.36.36,0,0,0-.52-.19c-.13,0-.19.26-.19.38a15.43,15.43,0,0,0,.45,3.18Zm-3.63-28.85a8.53,8.53,0,0,0-.19-2.72A6.91,6.91,0,0,0,359.46,46.54ZM340,16l-1.68,2.78A4.3,4.3,0,0,0,340,16Zm18.35,74a9.47,9.47,0,0,0,0,3.56A8.38,8.38,0,0,0,358.36,90Zm3.18-40.78c-.33,1-.26,1.17.45,2.53a1.42,1.42,0,0,0,.26-.71c.19-.78-.91-1-.71-1.88ZM336.45,21.85c.06,0,.19.13.26.19.52-.91,1-1.81,1.55-2.72a.58.58,0,0,1-.26-.13l-1.62,2.66Zm23.47,28.32a4.58,4.58,0,0,0,.38,2.6A6.73,6.73,0,0,0,359.92,50.17Zm4.34,31.31a8.17,8.17,0,0,0,.32,2.6A6.22,6.22,0,0,0,364.26,81.48Zm-7.65-68c.19.39.13.91.58,1.17A1.19,1.19,0,0,0,356.61,13.48Zm3.44,29a3.13,3.13,0,0,0,.12-.52c0-.52-.38-.78-.77-1,0,0-.2,0-.26.13-.2.45.19.71.39,1,.06.13.19.19.45.39Zm-.91,58.15c-.13.78-.46,1.29.32,1.81C359.4,101.84,359.66,101.32,359.14,100.61Zm1.42-44.34a3.77,3.77,0,0,0,.26,1.81C361.08,57.24,360.69,56.79,360.56,56.27Zm.65,5.31c0,.13.07-.32-.06-.13-.07-.26.32-.64-.26-1C360.76,60.94,361,61.19,361.21,61.58Zm-2.53,33.91a.64.64,0,0,0,.07,1,.32.32,0,0,0,.26-.13C359.2,95.94,359,95.75,358.68,95.49ZM343.64,3c0,.07-.13.2-.19.33s-.19.39,0,.58.32.13.39,0,.13-.32.13-.52S344,3.05,343.64,3ZM361,43a1,1,0,0,0,.26,1C361.28,43.63,361.34,43.3,361,43ZM342.35,6.61c0,.65-.26,1,0,1.49A1.17,1.17,0,0,0,342.35,6.61ZM330,34.16l.2-.19c.13-.2.45-.26.38-.59,0-.06-.12-.19-.19-.19-.26,0-.26.26-.32.45a1.6,1.6,0,0,1-.07.46Zm6-11.28a2.79,2.79,0,0,0-.78,1.62A3.35,3.35,0,0,0,336.06,22.88Zm25.74,44c-.13.52-.2,1,.38,1.37A1.53,1.53,0,0,0,361.8,66.83Zm-1.37-12.12c0-.13,0-.32-.19-.39a.45.45,0,0,0-.13.26c0,.13,0,.33.19.33A1.43,1.43,0,0,1,360.43,54.71Zm4.28,32c-.26,0-.26.25-.26.45s.2.39.39.32.2-.26.2-.39a.36.36,0,0,0-.33-.38Zm-16.59-27a1.69,1.69,0,0,0,0,1.49A2.36,2.36,0,0,0,348.12,59.7ZM329.77,35h0a.06.06,0,0,0-.06-.07h0Zm6.55-12.65a.07.07,0,0,0-.07.07.2.2,0,0,0,.07.13s.06,0,.06-.13a.2.2,0,0,0-.06-.13Z"/><path class="cls-1" d="M397.19,95.36s0,.06.13.13c.32.26.65.9,1.1.39s-.19-.72-.45-1a63.46,63.46,0,0,1-4.67-5.51c-.13-.19-.52-.39-.26-.77.39-.13.45.25.71.45.59.52,1,1.23,1.88,1.43-.19.25,0,.32.2.38-.13.72.26.91.84.78-.19-.39-.32-.78-.78-.91,0-.25-.19-.25-.39-.25-.32-1-1.23-1.56-1.75-2.34-.38-.52-.71-.06-.71.52a9.93,9.93,0,0,1-3.5-3.69c-.13-.26-.26-.65-.52-.78-1.23-.72-1.42-2.21-2.2-3.24l-.39-3.37c.13-.72-.65-1.17-.58-1.88a3.69,3.69,0,0,1,1.68,1.42c.2-.32,0-.58,0-.91.13-.06.2-.19.32-.26.33.72.65,1.43,1,2.21-.13.13-.26.19-.39.32h-.13c.26.2-.07.65.32.78h0c-.13.39.39.78,0,1.23H388c0-.06-.13-.13-.19-.19a.24.24,0,0,0,0,.39,1.62,1.62,0,0,0,.84,1.29c0,.26-.19.59.26.72-.19.64.2.9.65,1.1a4.37,4.37,0,0,1,2.2,2.14c.13.19.2.45.46.52,0,.19.06.32.32.32,0,.13,0,.26.2.26,0,0,.06,0,.06-.13s0-.26-.19-.26a.43.43,0,0,0-.2-.45c-.13-.2-.19-.46-.45-.46-.52-1.36-1-2.78-2.79-2.85-.13,0-.26-.19-.32-.26a1,1,0,0,0-.26-.71,2.3,2.3,0,0,1,0-1.49s.13-.07.13,0a.31.31,0,0,1,.19.13c.2.13.2.58.46.45s0-.45,0-.71a2.18,2.18,0,0,1,.38-.33c.46.59.59,1.43,1.5,1.88a16.44,16.44,0,0,0-1.3-3c.13-.07.26-.2.39-.26.65.58.78,0,.84-.46s-.45-.77-.39-1.29c.26-1.56.2-1.88-.78-3.44-.32.78-.45.91-.84.26s-.58-.78-1-.39c-.78.91-1,.2-1.23-.39a.54.54,0,0,0-.07-.32c-.32-.33.26-1.3-.52-1.17-.58.13-.06.91,0,1.36,0,.13.13.26.2.46a4.54,4.54,0,0,0,.06.9.85.85,0,0,1-.45-.64c-.45-2-1.36-3.76-1.69-5.77a.48.48,0,0,0-.38-.46c0-.13-.13-.26-.2-.39s-.13-.38-.39-.32-.19.26-.13.39.2.45.26.71a7.64,7.64,0,0,0,.78,3.11,9.43,9.43,0,0,1,.45,2,7.55,7.55,0,0,1-1-2.66c-.13-1.3-.91-2.33-1.36-3.56a.52.52,0,0,0-.52-.33c-.39.26.07.71-.19,1-.52-.46-.26-1.23-1-1.62a8,8,0,0,0-.13,1.62A4.53,4.53,0,0,1,380,64a18.49,18.49,0,0,0-.39-4.28,3,3,0,0,1,0-1.49,3,3,0,0,0,.13-.78,56.74,56.74,0,0,1,2.79-18.73A57.69,57.69,0,0,1,392.07,21a71.66,71.66,0,0,1,6.42-6.93A38.08,38.08,0,0,1,405.1,9a54.71,54.71,0,0,1,36-7.91,53.4,53.4,0,0,1,12.58,3.18,55.65,55.65,0,0,1,7.13,3.3,52.76,52.76,0,0,1,12,9.4,56.61,56.61,0,0,1,4,4.54c-2.59,2-5.19,4-7.71,5.9-1.88,1.43-3.7,2.79-5.58,4.21-1,.85-.91.85-1.81-.13a39.77,39.77,0,0,0-3.12-3.37,33,33,0,0,0-15.75-8.68A35,35,0,0,0,428,19.12a34.5,34.5,0,0,0-20.29,12.19,37.85,37.85,0,0,0-8.75,23.6c0,.64.13,1.36.19,2s.46,1.36,0,2.07v.32a1.27,1.27,0,0,1,.33,1.75c-.39.52-.13,1.24-.71,1.69a.94.94,0,0,0-.13,1.23,1.19,1.19,0,0,1,0,1.3c-1,0-.26-1.17-1.11-1.36a8.52,8.52,0,0,0,.59,3.82c-.33.33-.46-.52-.59-.19s.13.71.39,1c.2-.32-.45-.71.2-.84.71.33.39,1.1.71,1.56.19.26.13.84.58.78s.33-.59.26-.91,0-.91-.39-1.3a1,1,0,0,1-.06-1.29,1.38,1.38,0,0,1,.84,1.49,1.49,1.49,0,0,0,.2.9,13.89,13.89,0,0,1,1.23,3.18.94.94,0,0,0,1,.91c.26,0,.39,0,.45-.2s-.38-.58.13-.52c.33,0,1,.33.72.78s.39.85.19,1.36c-.13-.13-.32-.26-.45-.39a.53.53,0,0,0-.33-.51c-.19-.13-.39-.2-.51,0s0,.32.25.39c0,.19.13.32.33.25a2.88,2.88,0,0,0,.78,2.6,6.8,6.8,0,0,1,.9,1.81c-.58-.32-.58-.91-1.1-1.1a1,1,0,0,0-.19,1.23c.39.78.39.84,0,1.75a1.22,1.22,0,0,0,.06.46h0c-.45-.33-.91-.13-1.36,0s-.52.26-.32.71c.32,1,1.36,1.49,1.94,2.46.46-1.1,0-1.94.07-2.85h0c.64.39.77,1.23,1.42,1.49.33-.26,0-.58.13-.84h.07a.86.86,0,0,1,.39.13c.13.13.19.32.38.13s0-.33-.12-.46-.2-.45-.26-.71c0-.45.26-.52.58-.32s.58,1,1.3.71a.5.5,0,0,1,.19.78c-.39.39-.13.71,0,1.1s.45,1.23-.39,1.56a.4.4,0,0,0-.13.71,10.81,10.81,0,0,0,1.95,1.88c.19-.33,0-.46-.13-.58s-1-.33-.52-.78a1.22,1.22,0,0,1,1.42,0l.78.78c.33.32.65.71,1.23.51h0c.07.52.52.85.85,1.24a1.14,1.14,0,0,1,.32.77c0,1,.39,1.3,1.43,1,.77-.2,1.29.38,2,.38.45-.71-.59-.77-.52-1.23h0c1.68.2,3,1.17,4.54,1.75a4.31,4.31,0,0,0,1.29.46c.65,0,1.43,0,1.56,1,0,.19.32.26.52.26,1-.2,1.88.45,2.85,0,.26-.13.58,0,.91.06,1.55.65,3.3.46,4.86,1.24h.45c1.82-.85,3.7-.59,5.58-.65.71,0,1.36-.46,2.2-.39-.39.58-1.17.52-1.49.91,0,.06-.32.13,0,.19,0,0,.06-.13,0-.19a7.45,7.45,0,0,0,5.25-1.82,1.25,1.25,0,0,1,.65-.32c1.3-.52,2.66-1,3.95-1.49a3.87,3.87,0,0,0,1.75-1.3c1-1.36,2.47-1.82,4-2.4a3.21,3.21,0,0,0,1.1-.71,19.54,19.54,0,0,1,5.77-4.28,16.9,16.9,0,0,0,1.62-.52,1.38,1.38,0,0,1,1.82.39A4.4,4.4,0,0,0,468,83a1.22,1.22,0,0,1,.78.45c.26.46.58.46,1,.46.91,0,.91.06.65,1,.33.32.52-.07.84-.07a.86.86,0,0,1,.65.19c.46.46-.26.85,0,1.17s1-.19,1,.59a.41.41,0,0,0,.45.45c.46,0,.65.19.39.58-.52.65,0,1,.2,1.49.39-.19.78-.32,1.1-.45.52-.26.78.26,1.17.45-.65,1,.58.85.9,1.36a35.22,35.22,0,0,1-5.83,6.68,16,16,0,0,0-1.62,2c-.71,1-1.56,2.08-3.05,1.88h0c0-.13,0-.26-.19-.26a.16.16,0,0,0-.13.26h0c-.46,0-.91,0-1,.65h0a1.69,1.69,0,0,0-1.88,1.23h0c-1.24-.19-2,.65-3,1.17a5.69,5.69,0,0,1-1.94.78c-.07-.07-.13-.2-.2-.26.13-.2.46-.2.39-.46.2-.06.46-.19.65-.26a.2.2,0,0,1,.07-.13v.2c-.26.06-.65-.13-.72.26a1.36,1.36,0,0,0-1.29.65h0a4,4,0,0,0-2.27.77c.71.13,1-.19,1.49-.32.06.13.19.19.26.32-.13.2-.2.39-.39.39-2.27.46-4.15,2-6.48,2.4h-.65c.58-.84,1.68-.78,2.53-1.62-2.27.71-4.48,1-6.42,1.88a5.37,5.37,0,0,1-2.72.13c-.13-.58.39-.32.58-.39.45-.26,1.1,0,1.56-.84-.46.39-.78.32-.91,0s.19-.39.45-.46a28.76,28.76,0,0,0,6-1.81c.07,0,.32,0,.26.39-.26.19-.58.39-1.1.78a3,3,0,0,0,1.42-.26c.85-.39.13-.33-.13-.46s-.19-.26,0-.32.46-.26.65-.39a44.75,44.75,0,0,0,4.86-1.88h.33c.13.45-.65.52-.33,1.1.52-.45,1.69-.39,1.17-1.62,0-.06.13-.32.26-.32a31.76,31.76,0,0,0,5-2.85A8.52,8.52,0,0,0,465,98.21c.19,0,.32-.13.26-.32.13,0,.26,0,.19-.2h-.13c-.13,0-.19.13,0,.26-.19-.26-.32,0-.52.13-.91.45-1.62,1.36-2.79,1.3a4.75,4.75,0,0,1-2.85,1.88c-1,.39-1.81,1.29-2.91,1.36l-.26-.26c.19-.13.38-.33.58-.46s.26-.45.13-.45c-1.43-.06.32-.84-.26-1.1.26,0,.45,0,.26-.33H457c-.07,0-.2,0-.26.07a1.55,1.55,0,0,1-.26.32c-.32.07-.58.65-.91,0,.26-1,1.23-1,1.88-1.23a8.13,8.13,0,0,0,2.66-1.68c-.26-.2-.39,0-.58,0-1.69.84-3.37,1.75-5.06,2.59-1,.52-2.07.26-2.92,1.1-.19.2-.45-.06-.26-.39.07-.13.39-.45.13-.45a3,3,0,0,0-1.16.52c.58.65-.13.84-.46,1-.78.46,0,.65.07,1,.13.65.39.39.71.19s.26-.52.58-.13a.33.33,0,0,0,.46.26c.19,0,.19-.19.13-.32.19.13.32.06.52,0v-.13a.34.34,0,0,0-.46.19h-.65c-.45-.45,0-.71.26-.78,1.17-.51,2.14-1.49,3.57-1.42-.13.32-.13.84-.71.84-.33,0-.52.13-.52.39-.13,1.36-1.1,1.94-2.14,2.59-.07-.06-.13-.19-.26-.26.13-.19.19-.45.39-.77-.91.45-1.82.64-2.66,1s-1.82.26-2.53.91h0c-2-.07-3.17,1.29-4.8,2.59H444l-1.68,1h-.13c-.13.19.13.13.13-.06s0-.13.13,0,.26.13.26.32c-.2.71-1.11.26-1.36.84.84.33,1.68-.65,2.59,0,.71-.78,1.55-.71,2.66-.45-.65.45-1.49.32-1.75,1,.26.45.58.19,1,.13-.2.38-.65.32-.91.25-1.43-.51-1.49-.58-3,0-.13,0-.33.13-.45.13-1.5-.25-2.86.59-4.41.46a8.75,8.75,0,0,1-2.6-.13c0-.52.78-.26.85-.78-.91-.26-.85-.26-1.36.52s-1.5.84-2.14,1.43c-.13.06-.2-.13-.26-.26-.07-.46-.65-.52-.85-.52-2.78.26-5.57-.78-8.36-.33-.71.13-.45-.9-1.16-.71a2.47,2.47,0,0,1-1.5-.32c-.64-.26-1.36-.78-2-.72-1.42,0-2.72-.71-4.08-.77-.58,0-1-.13-1.17-.78,0-.13-.19-.39-.26-.33-1.36.33-2.07-1-3.17-1.23-.65-.13-1.3-.45-1.17-1.36.07-.06.13-.19.2-.26.64.07,1.16.65,1.88.39-.59-.52-1.17-1-1.75-1.49h0a29.33,29.33,0,0,1,3,1.1,19.83,19.83,0,0,0,3.5,1.23c.33.07.59.13.78-.26-1.23-.39-2.4-.71-3.63-1.1-.19-.06-.78-.26-.45-.52s.19-1.29,1.16-.78c-.71-.51-.64-.45-1.23,0a1.74,1.74,0,0,1-1.62.2c-1.1-.32-2.07-1.1-3.37-1.36.45.58,1,.78,1.17,1.29h0a4.59,4.59,0,0,1-.91-.06,10.83,10.83,0,0,0-2.85-.71c-.85,0-1.82-.26-1.95-1.56,0-.58-.91-.78-1.29-1.23,0-.07.13-.13.19-.2.52-.13,1,.2,1.49.26a16.54,16.54,0,0,0-3.82-2.85,1.19,1.19,0,0,0-.85-.06c-.58.19-1-.39-.84-1.11,0-.25-.19-.45,0-.71h0Zm-3.57-10h0c-.06-.07.2-.26-.13-.26C393.49,85.11,393.56,85.18,393.62,85.31Zm5.71-.39c0,.19,0,.45.32.32,0,1.63,1.56,1.88,2.27,3,.26-.52-.13-.91.13-1.11s.65,0,.33-.64c-.46-.85-1.95-1.17-1.37-2.53,0-.13-.25-.26-.51-.2a1.21,1.21,0,0,1-.65-.32c-.26-.45-.46-1-1-1.1-.32.45.32.65.07,1L398.1,83a67.81,67.81,0,0,1-3.89-6.62h-.33c1.17,2.4,2.08,4.93,4,6.81.2.32.33.71.72.84a.64.64,0,0,0,.38.59c0,.19.07.32.33.32Zm-6.81-1.62c0,.13,0,.32.13.39a1.43,1.43,0,0,0,.2-.13c-.33.52-.07.78.52,1.1-.2-.45-.39-.78-.52-1.1-.2,0-.26-.13-.33-.26s-.19-.32-.45-.13c.19-.45.06-.71-.39-1,0,.45.26.65.39.91a.4.4,0,0,0,.45.13ZM446.91,97a1.1,1.1,0,0,0,.45-.13s-.06-.06-.06,0a1.27,1.27,0,0,0-.32.2c-.07,0-.2.13-.26.13h.13s.13-.13.13-.2ZM390,81.81l-.13-.26a.7.7,0,0,0-.06.19c0,.13.13.13.26,0a.73.73,0,0,0,.06.52h.13A.4.4,0,0,0,390,81.81Zm6.49,6c.06.13.13.46.32.26s0-.32-.13-.45a.43.43,0,0,0-.13-.26c-.13-.2-.32-.33-.52-.2s.07.33.13.46.13.13.26.13Zm4.08,5.51c-.13.07-.13.2,0,.26h.2c0-.13,0-.19-.2-.19a.64.64,0,0,0-.58-.65.23.23,0,0,0-.33-.2c-.19.13,0,.26,0,.39.2.39.39.78.91.46Zm40.91,4.61c.25,0,.51.13.58-.13,0,0,0-.2-.07-.26-.39-.13-.32.26-.45.45s-.26.07-.26.26c0,0,.2.06.26,0s.13-.26,0-.32ZM400.17,88c0,.06.07.13.13.19V88c0-.13-.13-.07-.19,0,.26-.46-.13-.59-.46-.72.07.26,0,.65.46.72Zm17.44,17.44c0-.13,0-.2-.13-.2s-.13.13-.06.2.12.12.25,0c.39.64,1,.51,1.63.58.12,0,.12.06.12.19s-.19.26-.32.39c-.45-.26-.84,0-1.3.39a39.65,39.65,0,0,0,8.56,1c-2-.78-4.21-.33-6.29-1,.26-.39.78-.06,1-.39,0-.32-.65,0-.52-.52h0a1.59,1.59,0,0,1-1.23,0,1.51,1.51,0,0,0-1.56-.58ZM400,90.37v0c-.46-.33-.65-.91-1.36-1C398.49,90.56,399.39,90.24,400,90.37Zm46.35,9.85c.26-.26.45-.58.84-.13.26.26-.32.32-.19.52s.32,0,.51-.13.52-.07.59-.39a3.48,3.48,0,0,0,2.27-1.1c-1-.65-1.88-.52-1.75,0,.26.71-.59.71-.46,1.16-.32-.06-.65.2-1,0-.19-.38.58-1-.19-1.16s-.59.71-.65,1.16v.13h0Zm-45.19-4.15c-.45-.13-.64-.78-1.36-.65a1.65,1.65,0,0,0,1.36,1.36c.2,0,.2-.26.33-.45s.45-.13.65,0c.51.26,1,.58,1.62.91.06-1-.65-1.36-1-1.95s-.32-1.29-1-1c-.45.19-.32,1-.39,1.55a.65.65,0,0,1-.06.33Zm-6.35-13.29c.07.13.2.26.33.13s0-.26-.13-.32c-.39-1.43-1.56-2.47-1.82-4a4.18,4.18,0,0,0-1.1-1.69c-.2-.19-.39-.39-.65-.19a.43.43,0,0,0,0,.65,17.74,17.74,0,0,1,2.07,3.37C393.88,81.42,394,82.26,394.79,82.78ZM422,109c.72-.46,1.49.32,2.21-.13-.13,0-.2-.13-.33-.13-2.33-.46-4.6-1-6.93-1.3-.72-.07-1.3-.39-2,.32a19.7,19.7,0,0,0,4.66.91c0,.13-.13.33.13.26,0-.06-.13-.13-.19-.19.91-.39,1.3-.39,2.46.32-.39.65-.9-.13-1.29.13.77.32,1.42,1,2.39.71-.32-.39-1.16,0-1.1-.84Zm6-.39c.13.06.26.26.39.26,1.56.19,3.05-.52,4.67-.07.65.2,1.55-.32,2.33-.58-.84,0-1.49-.78-2.33-.46a5.32,5.32,0,0,1-2.85.13,2,2,0,0,0-2.08.72Zm13.61-1a11,11,0,0,1-1.49-.45c-.58-.26-.84.13-1.23.32s-.26-.13-.26-.32c-.06-.65-.52-.45-.9-.39a1,1,0,0,0-.85,1.1c0,.52.46.52.78.52a15.36,15.36,0,0,0,4-.84ZM398.42,69.3a3.35,3.35,0,0,1-1.94-1,1.42,1.42,0,0,0,0,2.14,3.79,3.79,0,0,1,.45.58.34.34,0,0,0,.58-.13c0-.71.78-.9.85-1.62Zm-4.93,2.33c-.38-1.49-.45-3-1.29-4.28A7.57,7.57,0,0,0,393.49,71.63Zm17.44,30.73a9.19,9.19,0,0,1-.58-1c-.39-.72-.65-.72-1.36-.26-.26.19-.59.19-.65.58a2.74,2.74,0,0,0,2.53.58Zm-12.7-43.82c-.72,1.81-.59,2.33.58,3.5C399,60.87,398.42,59.9,398.23,58.54ZM443,104.37c-1.62-.72-2.66.45-3.83.19C440.17,104.56,441.4,104.43,443,104.37Zm-37.34-5.64c.84,1.16,1.94,1.23,3.24,1.62A6.4,6.4,0,0,0,405.62,98.73Zm26.64,10.63a5.18,5.18,0,0,0-2.66.32C430.44,109.36,431.48,110.4,432.26,109.36Zm15-6.55a2.32,2.32,0,0,0-2.46.59C445.87,103.78,446.52,103,447.3,102.81Zm-13.16-7.19c.65.26,1-.13,1.43-.26s.77-.46,1.23-.13c-.78.52-1.82-.59-2.66.39Zm-8.82,14.78c1.49.45,2.73,0,4,0C428.11,110.53,426.81,110,425.32,110.4ZM403,77.27c-.26.39-.71.71-.71,1s.58.32,1,.58A3.41,3.41,0,0,0,403,77.27Zm56,23.14c0-.64.78-.77,1.1-1.36C459.16,99.18,459.1,99.83,459,100.41ZM398.23,87.32a1.51,1.51,0,0,0-.46-1c-.13-.2-.26-.33-.45-.26s-.32.39-.26.65a.77.77,0,0,0,1.17.64ZM438,109.16c-1,.13-1.68.26-2.65.46A2.33,2.33,0,0,0,438,109.16Zm2-3.75h-.9c-.33,0-.65,0-.65.45,0,.13,0,.32.13.39a.72.72,0,0,0,.71-.13c.2-.2.33-.39.71-.78Zm-.32,5c-1.23-.26-1.43-.2-1.36.26C438.61,110.27,439,110.66,439.65,110.4ZM395.12,80.51a1.82,1.82,0,0,0,.71,1.62C395.57,81.55,395.37,81.16,395.12,80.51ZM443,96.33c-.13-.13-.19-.32-.45-.32.19.25-.13.32-.2.45s.13.26.26.19.39,0,.33-.32ZM391.55,70.66a.29.29,0,0,0,.19-.07V70c0-.19,0-.45-.32-.39s-.19.39-.13.59.2.32.26.51ZM405.49,98.6a.66.66,0,0,0-.65-.39c-.13,0-.13.13-.13.26.13.32.26.52.65.45.13,0,.19-.06.13-.32Zm-6.94-4.22c.13.91.58,1,1.3.78A1.41,1.41,0,0,0,398.55,94.38Zm32.8,1.17c.13.26.39.26.65.26s.39-.26.32-.39-.38-.19-.64-.19-.39.06-.33.32Zm-25.86,1.1a1.52,1.52,0,0,0-.46-.45c-.19-.13-.32-.45-.58-.19s0,.51.26.64A.52.52,0,0,0,405.49,96.65Zm55.68,6.75H461v.06h.13Zm-.78.38h.07c0-.06-.13-.13-.13-.13v.13Zm-46.73-.06h0ZM455,106.25a.06.06,0,0,0,.07.06c.06,0,0,0,.06-.06a.2.2,0,0,1-.13-.07v.07Zm-51.21-5.64h0Zm-.58-.33s0-.06-.13-.13a.19.19,0,0,0-.13.07.21.21,0,0,0,.13.06.22.22,0,0,0,.13-.06Zm16.72-8.16h-.06c0,.06.13.13.13.13v-.13Z"/><path class="cls-1" d="M263.59,190.52a20.93,20.93,0,0,0,4.47-.19,10.83,10.83,0,0,0,4.41-2.08,6.64,6.64,0,0,0,2.4-3.95,5.33,5.33,0,0,0,.51-2.21,7.7,7.7,0,0,0-2.91-5.25,16.2,16.2,0,0,0-5.19-2.2,18.76,18.76,0,0,1-4.47-1.43,4.27,4.27,0,0,0-1.75-.39,21.94,21.94,0,0,1-4-1.23c-2.4-.58-4.41-2-6.48-3.3a13.5,13.5,0,0,1-5.32-7.27,15.7,15.7,0,0,1-.19-9,16.53,16.53,0,0,1,4.66-8,18.23,18.23,0,0,1,6.68-3.95,24.42,24.42,0,0,1,11.41-1.24,20.54,20.54,0,0,1,9.72,3.83,16.21,16.21,0,0,1,6.42,12.9c0,.58-.19.84-.78.84h-8.88c-.52,0-.78-.19-.78-.71a8.33,8.33,0,0,0-1-3.31,5.12,5.12,0,0,0-3.24-3c-1.37-.39-2.53-1.23-4-1.36a9.57,9.57,0,0,0-9.47,5.12,6.08,6.08,0,0,0,2.34,8,18.87,18.87,0,0,0,5.18,2.08c.91.26,1.75.58,2.66.78,2.59.71,5.25,1.49,7.78,2.46a19.76,19.76,0,0,1,9.07,6.22,14.55,14.55,0,0,1,2.73,11.93,18.16,18.16,0,0,1-.72,3.11,15.68,15.68,0,0,1-3.82,6,19.45,19.45,0,0,1-3.57,2.92,23.86,23.86,0,0,1-15.17,3,19.57,19.57,0,0,1-2.72-.32,21.57,21.57,0,0,1-9.2-4.54,15.79,15.79,0,0,1-5.06-6.87,23.77,23.77,0,0,1-1-5.19c-.13-1-.06-1.1.91-1.1h8.56c.78,0,.91.26,1,1a8.29,8.29,0,0,0,4.15,6,7.81,7.81,0,0,0,4.09,1.62c.26,0,.45.13.71.13Z"/><path class="cls-1" d="M411.39,163.88v-4.22c0-.58.19-.84.77-.84h8.43c.58,0,.84.2.78.84v37.6c0,2,0,1.69-1.62,1.69h-7.33c-.84,0-1.1-.26-1-1.1,0-1.56,0-3-.13-4.67a22.52,22.52,0,0,1-3.05,3,14.41,14.41,0,0,1-5.9,3.11,20.56,20.56,0,0,1-7.71.39,17.93,17.93,0,0,1-9-4.15,20.86,20.86,0,0,1-4.74-5.9,18.51,18.51,0,0,1-2-5.12,34.35,34.35,0,0,1-.45-4.47,33.31,33.31,0,0,1,.39-6.68,17.4,17.4,0,0,1,1.43-4.34,20.83,20.83,0,0,1,4.6-6.55,17.15,17.15,0,0,1,8.75-4.28,17.94,17.94,0,0,1,6.16-.39c4.41.59,8.36,2.08,11.21,5.71,0,.06.13.06.46.26Zm-11.67,26.77a11.77,11.77,0,0,0,0-23.53c-6.29-.2-11.28,5.18-11.28,11.73a11.54,11.54,0,0,0,11.34,11.8Z"/><path class="cls-1" d="M443.6,158a22.15,22.15,0,0,1,11.93,1.49,18.48,18.48,0,0,1,10.63,11.28,25.53,25.53,0,0,1,1.23,10.63c0,.78-.32,1-1,1H438.09c-2.07,0-2.13.13-1.23,2.14,1.88,4.27,5.38,6.09,9.79,6.35a14,14,0,0,0,8.75-2.33,10.81,10.81,0,0,0,2.6-2.14.72.72,0,0,1,1.16-.13c1.69,1.36,3.44,2.59,5.19,3.95.84.65.84.84.19,1.62a18.35,18.35,0,0,1-4.66,4.34,22.61,22.61,0,0,1-9.86,3.57,25.06,25.06,0,0,1-7.58-.26A19.69,19.69,0,0,1,430.19,192a15.38,15.38,0,0,1-2.53-4.22,27.18,27.18,0,0,1-1.49-11.41,19.61,19.61,0,0,1,1.29-5.83,11,11,0,0,1,2.92-4.93,5.06,5.06,0,0,0,.84-1.1,3.46,3.46,0,0,1,1.43-1.43,9.25,9.25,0,0,0,1.23-.9,18.78,18.78,0,0,1,9.27-4,1.74,1.74,0,0,0,.58-.13Zm13.68,17.25a1.13,1.13,0,0,0,.13-.91,8.61,8.61,0,0,0-5.12-6.55,12.89,12.89,0,0,0-6.29-1.1c-4.41.32-8.94,3.31-9.59,8.62h20.94Z"/><path class="cls-1" d="M307.47,157.91c6.87-.58,13,1.3,18,6.23a19.33,19.33,0,0,1,4.54,7.39,21.46,21.46,0,0,1,.58,12.9A19,19,0,0,1,324,194.86a21.78,21.78,0,0,1-17,4.87c-.13,0-.33-.07-.46-.07-2.52.13-4.66-1.1-6.74-2.07a19,19,0,0,1-5.9-4.48,19.59,19.59,0,0,1-5.25-16.66c.07-.9.2-1.81.26-2.78a6.71,6.71,0,0,1,.85-2.34,20.37,20.37,0,0,1,4.4-7.19,21,21,0,0,1,8.82-5.25,18.41,18.41,0,0,1,2.07-.52v.06h0a7.11,7.11,0,0,1,.85-.26,4,4,0,0,0,.84-.13,4,4,0,0,0,.84-.06h0Zm2.4,32.67a10.79,10.79,0,0,0,9.92-6.22,12.58,12.58,0,0,0,1-8.43c-1.42-5.76-5.57-8.81-11.15-8.88a10.78,10.78,0,0,0-10.76,8.88,12.25,12.25,0,0,0,1.36,9.27,10.49,10.49,0,0,0,9.6,5.38Z"/><path class="cls-1" d="M345.72,164.46c.84-.58.84-1.36,1.3-1.94a12.61,12.61,0,0,1,4.14-3.05,15.49,15.49,0,0,1,9.66-1.56,14.14,14.14,0,0,1,9.92,5.58,20,20,0,0,1,3.11,7.58,37.2,37.2,0,0,1,.52,6v21c0,.59-.26.85-.84.85H365.1c-1.1,0-.78-.72-.78-1.3V178.4a24.81,24.81,0,0,0-.13-3.11,9.41,9.41,0,0,0-2.72-5.84,4,4,0,0,0-2.33-1.29c-1-.13-2-.91-3.18-.91A10.28,10.28,0,0,0,347,172a9.86,9.86,0,0,0-1.17,5.52v20.35c.13.84-.26,1-1,1H336.9c-.71,0-1.1-.2-1-1V160.51c0-1.95-.26-1.69,1.75-1.69h6.87c1.36,0,1.36,0,1.36,1.36v4.35Z"/><path class="cls-1" d="M363.87,58.67a1.78,1.78,0,0,1,.84,1.42,20.29,20.29,0,0,0,.46,3.44c0,.32,0,.52-.33.58a.38.38,0,0,1-.39-.39c0-.58-.71-1.1,0-1.68.07-.07,0-.33,0-.46-.32-.9-.26-1.81-.52-2.91Z"/><path class="cls-1" d="M391,90.63a15.19,15.19,0,0,0-1.69-1.82c-.58-.45-.32-1.17-.71-1.69.91.72,1.42,1.75,2.33,2.34.33.19.13.65.2,1a1.43,1.43,0,0,0-.2.13Z"/><path class="cls-1" d="M109,200.37a44.78,44.78,0,0,1-5.44.78C104.44,200.57,107,200.18,109,200.37Z"/><path class="cls-1" d="M382.67,76.23c-.58-1.1-.13-2.33-.65-3.63A6,6,0,0,1,382.67,76.23Z"/><path class="cls-1" d="M385.13,77.6a2.1,2.1,0,0,1-1.16-2c1.16.58,1.29.84,1.1,2.07h0Z"/><path class="cls-1" d="M366.07,73.45c-.51-.78-.19-1.56-.26-2C365.43,72,366.59,72.67,366.07,73.45Z"/><path class="cls-1" d="M386.17,82.46c.78.32.78,1.1,1,1.75-.46-.52-1-1-1-1.75h-.06Z"/><path class="cls-1" d="M385.78,81.87a2.68,2.68,0,0,1-1.1-2.14c1,.46,1,1.3,1.3,2l-.13.13Z"/><path class="cls-1" d="M365.1,67.16c.65.45.52,1,.46,1.81C365.36,68.26,365.23,67.81,365.1,67.16Z"/><path class="cls-1" d="M365.23,65.15a5.45,5.45,0,0,0,.07,1.1C364.91,65.93,365,65.54,365.23,65.15Z"/><path class="cls-1" d="M389.41,77.6c-.26-.65-.52-1.3-.78-2h0c.85.32.65,1.23,1,1.81a.84.84,0,0,1-.26.2Z"/><path class="cls-1" d="M412.62,86.48c.71-.13.84.64,1.36.84h0c-.45.26-1-.07-1.43.06h0a1,1,0,0,1,0-1h0Z"/><path class="cls-1" d="M458.77,105.21c-.32.58-1,.32-1.49.71-.06-.13-.19-.19-.26-.32.2-.32.72,0,.78-.52h0a4,4,0,0,0,.84-.13c.07.07.13.2.2.26Z"/><path class="cls-1" d="M363.22,61.71V60.16h.07c.06.52.13,1,.19,1.62h-.26Z"/><path class="cls-1" d="M364.52,69.1c.52.13.58.52.52.91a.2.2,0,0,1-.33.13A.69.69,0,0,1,364.52,69.1Z"/><path class="cls-1" d="M466.23,102.16c-.26.39-.46.72-1,.72-.13-.39.45-.52.26-.91h.65a.68.68,0,0,0,.13.19Z"/><path class="cls-1" d="M6.69,143.65a1.21,1.21,0,0,1-.46-1.17s.2-.06.26,0c.45.33.13.85.2,1.24h0Z"/><path class="cls-1" d="M123.37,2.4c-.39,0-.71-.13-1.1-.13A3.19,3.19,0,0,1,123.37,2.4Z"/><path class="cls-1" d="M306.63,158a4.8,4.8,0,0,0-.84.13C306.05,158,306.31,158,306.63,158Z"/><path class="cls-1" d="M394.79,95.55a1.26,1.26,0,0,0-.26-.39c0-.06-.13-.13-.19-.19h0c.06,0,.13.13.19.13.26,0,.33.19.2.39h0Z"/><path class="cls-1" d="M388.89,78.24l.65,1.24c-.13.06-.19.19-.32.25-.2-.13-.33-.32-.52-.45h0l-.2-.78c.13-.13.26-.19.39-.32Z"/><path class="cls-1" d="M263.59,190.52c-.26,0-.52-.13-.72-.13a3,3,0,0,1,.72.13h.13c0,.19,0,.19-.07,0Z"/><path class="cls-1" d="M443.6,158a2.1,2.1,0,0,0-.58.13C443.22,158,443.41,158,443.6,158Z"/><path class="cls-1" d="M415.73,89c.52-.06.84,0,.91.59h0a1.31,1.31,0,0,1-1-.59h.07Z"/><path class="cls-1" d="M414.63,88.42c.58-.19.91,0,1,.58h0c-.32-.19-.71-.38-1-.58Z"/><path class="cls-1" d="M385.78,74.87V75s-.13-.06-.13-.13v-.26C385.65,74.68,385.78,74.74,385.78,74.87Z"/><path class="cls-1" d="M394.79,95.55h.45c.13,0,.33.07.33.26s-.2,0-.33,0-.25-.13-.38-.19h0Z"/><path class="cls-1" d="M463.64,103.27c.19.13.51.06.45.45,0,0-.2.13-.26.06-.45-.06,0-.38-.13-.58h0Z"/><path class="cls-1" d="M358.42,34.94v.32c-.06,0-.13-.12-.13-.19v-.39A.49.49,0,0,0,358.42,34.94Z"/><path class="cls-1" d="M387.6,76.3a1,1,0,0,1-.07-1.23c.26.26.26.65.39,1C387.79,76.1,387.73,76.23,387.6,76.3Z"/><path class="cls-1" d="M110.79,199.85c-.19.72-.64.26-1,.13a5.19,5.19,0,0,0,1-.13Z"/><path class="cls-1" d="M391.16,90.5a.55.55,0,0,1,.52.45s-.13.13-.19.13c-.33,0-.39-.26-.52-.45A1,1,0,0,0,391.16,90.5Z"/><path class="cls-1" d="M28.66,175.74a.64.64,0,0,1-.71-.58l.19-.2a.85.85,0,0,1,.65.59s-.06.13-.13.13Z"/><path class="cls-1" d="M466.75,101.39c.26.51-.2.58-.46.77a.68.68,0,0,0-.13-.19,2.21,2.21,0,0,0,.33-.65h.32Z"/><path class="cls-1" d="M385.91,81.74a.44.44,0,0,1,.26.65h0c-.39,0-.39-.26-.45-.52l.13-.13Z"/><path class="cls-1" d="M400.43,99.51c.39-.26.52,0,.71.26,0,.06-.13.12-.19.19-.19-.13-.45-.19-.45-.52h0Z"/><path class="cls-1" d="M388.7,75.59c-.26,0-.33-.2-.26-.39,0,0,.19-.07.19,0s.2.32,0,.45h0Z"/><path class="cls-1" d="M389.73,78.24c-.06-.26-.19-.45-.25-.71.06,0,.13-.13.25-.19.33.06.33.32.39.58-.13.13-.26.19-.32.32Z"/><path class="cls-1" d="M409.77,84c-.13-.26-.59-.39-.2-.77h0c.26.25.58.45.2.77Z"/><polygon class="cls-1" points="305.01 158.3 305.01 158.37 305.01 158.3 305.01 158.3"/><polygon class="cls-1" points="307.47 157.91 307.54 157.91 307.47 157.85 307.47 157.91"/><path class="cls-1" d="M390,78.83c-.13-.2-.19-.39-.32-.59.13-.13.26-.19.32-.32.26.13.26.39.33.65-.13.06-.26.19-.39.26Z"/><path class="cls-1" d="M408.6,103.85c-.33.06-.58.13-.65-.32h0c.26,0,.58-.07.65.32Z"/><path class="cls-1" d="M389.48,79.48c.13.19.19.38.32.58a1.57,1.57,0,0,1-.39.32c-.06-.19-.19-.45-.26-.65C389.28,79.67,389.35,79.54,389.48,79.48Z"/><path class="cls-1" d="M406.52,104.37c-.25,0-.58-.2-.45-.39s.52-.13.71.13l-.26.26Z"/><path class="cls-1" d="M405.62,81.36a1,1,0,0,0-.39.12v-.19a1,1,0,0,1,.39.13h0Z"/><path class="cls-1" d="M407.17,104.69a5.64,5.64,0,0,0-.65-.32c.07-.07.13-.2.26-.26a.57.57,0,0,1,.59.32c-.07.07-.13.2-.2.26Z"/><path class="cls-1" d="M405.75,82.13c-.39-.19-.46-.45-.13-.77h0c.06.19.19.45.26.64l-.07.07Z"/><path class="cls-1" d="M397.19,95.36c-.07,0-.19.13-.26.13s-.06-.13.07-.07h.12Z"/><path class="cls-1" d="M407.37,104.43c.13.07.39.07.26.33s-.33,0-.46-.07C407.24,104.63,407.3,104.5,407.37,104.43Z"/><path class="cls-1" d="M403.87,81.16c.19,0,.26.13.32.32h0c-.39.2-.32,0-.32-.32Z"/><path class="cls-1" d="M396,95h0Z"/><path class="cls-1" d="M408.21,105.15c-.13,0-.32-.13-.26-.26s.32-.13.52,0c-.07.06-.13.19-.2.26Z"/><path class="cls-1" d="M414,87.32v.26a.32.32,0,0,1-.2-.07c0-.06.13-.13.2-.19Z"/><path class="cls-1" d="M412.62,86.48l-.26-.13s.13-.13.19-.07.13.13,0,.26h0Z"/><path class="cls-1" d="M409.57,83.24c0,.12-.13.19-.19.12a.3.3,0,0,0-.07-.19.49.49,0,0,1,.26.13h0Z"/><path class="cls-1" d="M411.78,85.44a.55.55,0,0,0,.12.26h-.06c-.19-.13-.13-.2,0-.33h0Z"/><path class="cls-1" d="M385.13,77.6c0-.13.13-.26.26-.2v.13h-.26Z"/><path class="cls-1" d="M409.7,84.08c.52-.2.39.06.33.39h0c-.07-.13-.2-.26-.26-.39h-.07Z"/><path class="cls-1" d="M42.92,33.77c.13-.06.26-.32.46-.13s-.07.26-.2.39Z"/><path class="cls-1" d="M410,84.4c0-.13.12-.19.32-.13v.13Z"/><path class="cls-1" d="M414.69,88.42a.43.43,0,0,0-.06-.26.29.29,0,0,1,.19.07.31.31,0,0,1-.13.19Z"/><path class="cls-1" d="M28,175.22l-.33-.32.2-.2a.31.31,0,0,1,.32.33Z"/><polygon class="cls-1" points="454.3 108.19 454.24 108.26 454.3 108.19 454.3 108.19"/><path class="cls-1" d="M400.5,99.51c-.13,0-.26,0-.26-.2h.13c.13,0,.19.13.06.26h0Z"/><path class="cls-1" d="M32,177.43v-.07h0Z"/><polygon class="cls-1" points="454.3 108.19 454.37 108.19 454.3 108.19 454.3 108.19"/><path class="cls-1" d="M411.52,85.11a.24.24,0,0,1-.33.13v-.13c.13-.12.26,0,.33,0Z"/><path class="cls-1" d="M411.45,85.11c.07.13.2.2.26.33h0c-.13,0-.19.19-.39,0s.07-.2.13-.33Z"/><path class="cls-1" d="M396,94.9a.24.24,0,0,0-.06-.19c.26,0,0,.19,0,.26h0Z"/><path class="cls-1" d="M124.15,178.53a1.59,1.59,0,0,1-.52-.13c1.43-.72,2.92-1.3,4.21-2.08a24.09,24.09,0,0,0,3.83-2.59c.26-.19.52-.39.71,0s.39.52,0,.78c-.19.13-.32.32-.45.39a23.36,23.36,0,0,1-3.37,1.49,5.33,5.33,0,0,0-1.5.71,9.67,9.67,0,0,1-2.91,1.36Z"/><path class="cls-1" d="M138.15,175.29c0-1.3.26-1.43,1.62-1.82a4,4,0,0,0,2.07-1.23c.26-.32.65-.45.91-.13s.33.91-.13,1.1c-.84.33-1.16,1.23-2,1.49l-2.52.59Z"/><path class="cls-1" d="M135,172.24a4.31,4.31,0,0,1-1.62,1.81c-.26,0-.39,0-.39-.32s-.19-.84.26-1.1.85-.78,1.49-.65c.13,0,.26.19.33.19Z"/><path class="cls-1" d="M171.47,62.3a4.11,4.11,0,0,1,1.69,2.07c.06.13.06.45-.13.52s-.39,0-.52-.19a9.24,9.24,0,0,1-1.36-2.14C171.28,62.49,171.34,62.36,171.47,62.3Z"/><path class="cls-1" d="M137.57,170.49c-.26.91-1.11.84-1.69,1.23A2.91,2.91,0,0,1,137.57,170.49Z"/><path class="cls-1" d="M185.6,102.75c.13,0,.26,0,.26.06A2.24,2.24,0,0,1,186,105s-.19.13-.26.06c-.65-.58-.32-1.3-.26-2,0-.13.07-.19.13-.32Z"/><path class="cls-1" d="M168.75,63.4c.19.39.71.52.78,1.17-.59-.26-.59-.78-.78-1.17Z"/><path class="cls-1" d="M115.79,33.06c-.52.13-.85-.39-1.24-.45s-1.1-.33-.77.58c.13.45-.78.84-.13,1.17.84.45,1.36,1.55,2.46,1.42s1.81.39,2.72.33c.52,0,.13.84.72,1l-1.88.39c-.46.13-.52-.2-.65-.46a.73.73,0,0,0-1-.19c-.45.19-.45.52-.45,1a6.62,6.62,0,0,0,1.56,3.89c-.2.58-.72.06-1,.45v.13c.78.45,1.62,1,2.6.39a1,1,0,0,1,.58-.13c.26,0,.71-.06.71.39s-.32.32-.58.39-.52-.07-.71.13c.19.52,1,.52.9,1.29a.44.44,0,0,0,.46.39c1.62,0,2.53,1.43,4,1.75-1.36.2-2.72.26-4,.52a15.82,15.82,0,0,1-4,0,35,35,0,0,1-4.34-.32c.84.91,1.88.45,2.65.84a4.76,4.76,0,0,0,2.47.52,16.4,16.4,0,0,1,3,.19c-.71.33-1.56.07-1.88.78-.07.2-.26.2-.52.13-1.94-.65-3.89-1.23-5.83-1.81a1.83,1.83,0,0,0-1.69.38,1,1,0,0,0-.58,1.5v.13c-.13.77,0,1.62-.85,2.07a1.81,1.81,0,0,1-2-.45,38.73,38.73,0,0,0-6.75-3.83,9,9,0,0,0-4.66-1A52.81,52.81,0,0,0,83.76,48.1c-.52.13-1,.19-1.49.26a3.78,3.78,0,0,0-2.72,1.23,2.16,2.16,0,0,1-1.75.84,2.26,2.26,0,0,0-1.36.65A16.5,16.5,0,0,1,72,53.42a3.27,3.27,0,0,1-1.36.32,2.44,2.44,0,0,0-1.88.78c-.71.71-1.88.71-2.78,1a32.36,32.36,0,0,0-4.09,2.14,17.82,17.82,0,0,1-3.56,1.75c-.13-.77.45-1.23.77-1.75A62.2,62.2,0,0,1,91.54,31.57a61.18,61.18,0,0,1,15.3-3.24,76.39,76.39,0,0,1,8.56-.2,2.89,2.89,0,0,1,1.49.2c-.78.84-1.82.13-3,.32.45.46.84.65,1.16.59,1-.13,1.88.58,2.92.06.32-.13.84-.26.91.52,0,.32.58.52,1.16.19a1.68,1.68,0,0,1,2,.13c-.39.78-1.49-.39-1.43.59,0,.45,1,.06,1.49.26,1.3.45,2.79.19,4.09.84.19.06.52.13.58,0,.78-.91,1.69.39,2.53-.2.26-.19,0,.85.58,1a14,14,0,0,1-3.3-.52c-.72-.19-1.43-.32-2.08-.52a1.25,1.25,0,0,0-1.16.2c-.59,1-1.24.52-1.69.06-.65-.64-1.49-.32-2.14-.71-.26-.13-.19.13-.26.39-.13.65-.71.91-1.43.91a16.67,16.67,0,0,0-1.87,0c-.39,0,0,.26,0,.39s-.13.19-.2.26Z"/><path class="cls-1" d="M185.21,99.18c-.84-.13-.65-.84-.65-1.36a16.81,16.81,0,0,0-.19-3.63c1.17,1.56.71,3.31.84,5.06h0Z"/><path class="cls-1" d="M118.77,152.6l1.42-.2Z"/><path class="cls-1" d="M104.05,152.4l1.49.2Z"/><path class="cls-1" d="M186.38,106.57c0,.2,0,.39-.26.39s-.26-.26-.26-.45.13-.33.33-.26.12.26.19.32Z"/><path class="cls-1" d="M121.68,152.27a1.94,1.94,0,0,1,.85-.13A4.17,4.17,0,0,0,121.68,152.27Z"/><path class="cls-1" d="M123.56,152a.71.71,0,0,1,.52-.13A1.47,1.47,0,0,0,123.56,152Z"/><path class="cls-1" d="M58.29,59.38c0,.26-.2.26-.39.32C57.9,59.51,58,59.31,58.29,59.38Z"/><path class="cls-1" d="M129.53,48.55c-.26.52.19.78.39,1.11-1.75.9-3.24-.33-4.8-.59-.26,0-.32-.26-.06-.45S125,48,125,47.71a8.88,8.88,0,0,1,2.92.91,1.94,1.94,0,0,0,1.68,0h0Zm-4,0a.28.28,0,0,0,.26.26c.13,0,.19,0,.26-.13s-.13-.19-.2-.26-.26,0-.32.13Z"/><path class="cls-1" d="M132.06,51c-.39-.26-.72-.52-1.17-.78.06-.32.45-.26.65-.32.39-.13.45-.52.13-.59-.72-.26-1.3-.78-2-1l-.2.2h0c.52-.07,0-.71.52-.91,1.1.78,2.72,1,3.57,2.27-.26.45-.46.07-.65,0s-.58-.32-.84,0,.13.52.32.71.32.46,0,.59c-.13,0-.26-.13-.39-.13h.07Z"/><path class="cls-1" d="M138.54,73.38c.19.33.45.59.65.91,0,.26.32.71,0,.84a1.28,1.28,0,0,1-1.43-.13c-.52-.45-.71-1.23-1.3-1.68-.19-.13,0-.39.07-.52s.39-.33.65-.13c.45.26.84.58,1.29.84Z"/><path class="cls-1" d="M124.8,50.24c-.65-.13-1.43,0-1.62-1-.07-.52-1.24-.45-1.37-1.29,1.24.13,1.24.06,1.43,1.36,0,.32.19.39.45.45s.72.32,1.11.45Z"/><path class="cls-1" d="M126.35,44.66c-1.23-.58-1.81-1.68-2.66-2.65A6.13,6.13,0,0,1,126.35,44.66Z"/><path class="cls-1" d="M155.13,48a2.14,2.14,0,0,1,1.5,1.1C155.91,49.14,155.59,48.49,155.13,48Z"/><path class="cls-1" d="M145.73,43.89c0,.32.26.39.46.51s.65.33.45.78A1.43,1.43,0,0,1,145.09,44c.19-.19.45,0,.64,0Z"/><path class="cls-1" d="M141.39,38.57a3,3,0,0,1-1.68-.45A1.54,1.54,0,0,1,141.39,38.57Z"/><path class="cls-1" d="M119.42,49.92c.51-.13.84.12,1.29.32A1.49,1.49,0,0,1,119.42,49.92Z"/><path class="cls-1" d="M140.29,36.82c.26-.06.71-.19.78.07s-.33.19-.59.12C140.42,37,140.35,36.89,140.29,36.82Z"/><path class="cls-1" d="M135.3,52.12c-.33-.26-1-.52-.65-1s.65.32,1,.64Z"/><path class="cls-1" d="M152.48,45.12c-.13.32-.39.32-.65.26a.24.24,0,0,1-.13-.39c.13-.2.32-.2.52-.2s.32,0,.26.26Z"/><path class="cls-1" d="M129.2,45.38c0,.13-.13.13-.19.06s-.13-.13-.19-.19.19-.13.25-.07.13.13.2.2Z"/><path class="cls-1" d="M153.06,46.74h.26c.06,0,.13.13.19.19a.31.31,0,0,1-.19-.13.43.43,0,0,1-.26-.13h0Z"/><path class="cls-1" d="M116,32.8c.32-.13.78.2.71.26-.26.39-.58.32-.9,0,.06-.06.13-.19.19-.26Z"/><path class="cls-1" d="M134,43.17h-.26c.07.13.13.07.2,0H134Z"/><path class="cls-1" d="M142.56,43.89v-.33c.19-.06.52,0,.52.13S142.75,43.82,142.56,43.89Z"/><path class="cls-1" d="M144.76,43.56c.26,0,.46,0,.33.33C144.76,44,144.57,44,144.76,43.56Z"/><path class="cls-1" d="M133,54.45c.13-.13.2-.13.33,0s.06.13.06.2a.22.22,0,0,1-.06.13c-.13,0-.2.19-.33,0S133,54.52,133,54.45Z"/><path class="cls-1" d="M142.62,43.56h-.32c0-.13.06-.26.26-.19a.69.69,0,0,0,.06.26Z"/><path class="cls-1" d="M153.12,46.74c0-.07-.06-.13-.13-.26h.2c0,.13,0,.19-.07.26Z"/><path class="cls-1" d="M141.33,56.4a1,1,0,0,1-.13.19s-.13-.06-.07-.13,0-.13.13-.19l.13.13Z"/><path class="cls-1" d="M112.93,48.94c-.06-.06-.26-.26-.19-.26.13-.19.32-.13.45,0-.06.13-.19.2-.26.33Z"/><path class="cls-1" d="M154.1,52.9c.34-.48.82-.44,1.42.13-.52.32-.9-1-1.49-.13h.07Z"/><path class="cls-1" d="M165,59.12l.32.32c0,.33.46.59.33,1s-.26.32-.46.19c-.84-.45-1-.78-.78-1.75.39-.19.39.26.65.33Z"/><path class="cls-1" d="M157.14,53.87c-.32-.26-.77-.39-.9-1.17.51.39,1.1.46.9,1.17Z"/><path class="cls-1" d="M162.91,59c.39.2.85.32.85,1-.46-.26-.91-.33-1-.84l.13-.13Z"/><path class="cls-1" d="M160.64,56.27c.13-.13.2-.13.33,0,.39,0,.39.26.26.52,0,.06-.26.13-.39.06s-.58-.26-.2-.58Z"/><path class="cls-1" d="M161.81,58.28a.53.53,0,0,1-.19-.52h.19a.4.4,0,0,1,0,.52Z"/><path class="cls-1" d="M162.78,59.12a.19.19,0,0,1-.13-.32c.13-.13.26,0,.33.13l-.13.13Z"/><path class="cls-1" d="M166.22,63.14c.13,0,.19-.2.39,0s0,.26,0,.39c-.33.13-.33-.13-.33-.33Z"/><path class="cls-1" d="M161.81,58.28c.07-.13.2-.2.26,0v.06a.49.49,0,0,1-.26-.13h0Z"/><path class="cls-1" d="M44.61,162.9a.41.41,0,0,1,.45.46.28.28,0,0,1-.26.26c-.26,0-.32-.26-.45-.52.06,0,.13-.13.19-.2Z"/><path class="cls-1" d="M44.41,163.1c-.06-.13-.32-.26,0-.39.13,0,.2.13.26.26s-.13.13-.19.19Z"/><path class="cls-1" d="M451.9,104.56c-.26.65-.78.59-1.29.46.13-.65.77-.46,1.1-.72a.8.8,0,0,0,.26.26Z"/><path class="cls-1" d="M445,106.57a.71.71,0,0,1,.52-.45c.13,0,.32-.13.39.06s-.07.39-.26.46a.92.92,0,0,1-.71,0Z"/><path class="cls-1" d="M456.5,102.62c-.06.26-.32.39-.51.52s-.33.13-.39,0,0-.39.19-.46a1.71,1.71,0,0,1,.58-.26l.26.26Z"/><path class="cls-1" d="M446.85,105.73v-.32h0c.19.06.51,0,.71.19a.89.89,0,0,1-.71.06h0Z"/><path class="cls-1" d="M446.78,105.66c0,.2.13.52-.26.39-.06,0-.19-.13-.19-.13,0-.39.39-.13.52-.26h-.07Z"/><path class="cls-1" d="M455.21,100.8c.06-.39.26-.52.65-.32C455.86,101.06,455.4,100.67,455.21,100.8Z"/><path class="cls-1" d="M455.53,102a.24.24,0,0,1-.26.26c-.13,0-.19-.07-.13-.2s.26-.32.46,0h0Z"/><path class="cls-1" d="M455.6,102c-.13-.13-.07-.26.13-.32h.13c0,.19-.13.19-.26.26h0Z"/><path class="cls-1" d="M399.52,85.24c0-.19-.06-.32-.32-.32,0-.19,0-.45-.32-.32.19-.33,0-.52-.2-.65.13-.52.45-.46.78-.2,0,.46.32.78.52,1.24.32.64-.33.06-.39.25Z"/><path class="cls-1" d="M419.36,106.18c.26.46,0,.46-.32.39C419.17,106.44,419.23,106.31,419.36,106.18Z"/><path class="cls-1" d="M401.4,96.39c-.26,0-.32-.13-.32-.32C401.27,96.07,401.6,96.07,401.4,96.39Z"/></g></g></svg>