<svg width="214" height="68" viewBox="0 0 214 68" fill="none" xmlns="http://www.w3.org/2000/svg">
<g clip-path="url(#clip0_3_71)">
<path d="M157.63 61.7458V52.6488H155.698V61.9732C155.698 63.4515 156.494 64.2475 157.971 64.2475H158.767V62.5418H158.426C157.858 62.4281 157.63 62.2007 157.63 61.7458ZM203.203 52.6488C202.521 52.6488 201.953 53.1037 201.953 53.7859C201.953 54.4682 202.408 54.9231 203.203 54.9231C203.999 54.9231 204.454 54.4682 204.454 53.7859C204.454 53.1037 203.999 52.6488 203.203 52.6488ZM151.607 57.1973H151.493C151.266 56.7425 150.471 55.9465 148.993 55.9465C147.857 55.9465 146.947 56.2876 146.266 57.0836C145.584 57.8796 145.243 58.903 145.243 60.1538C145.243 61.4047 145.584 62.4281 146.266 63.2241C146.947 64.0201 147.857 64.3612 148.993 64.3612C150.471 64.3612 151.152 63.4515 151.38 63.1104H151.493V64.1338C151.493 65.4983 150.811 66.2943 149.334 66.2943C148.311 66.2943 147.629 65.8395 147.402 65.1572H145.584C145.697 65.9532 146.038 66.6354 146.72 67.204C147.402 67.7726 148.311 68 149.334 68C151.948 68 153.425 66.5217 153.425 64.1338V56.0602H151.38V57.1973H151.607ZM149.448 62.5418C148.084 62.5418 147.288 61.6321 147.288 60.1538C147.288 58.7893 148.198 57.7659 149.448 57.7659C150.698 57.7659 151.607 58.6756 151.607 60.1538C151.607 61.5184 150.811 62.5418 149.448 62.5418ZM136.264 61.8595H136.151L134.105 56.1739H131.946L135.128 64.5886L134.901 65.1572C134.673 65.7257 134.219 66.0669 133.537 66.0669H132.741V67.8863H133.764C135.242 67.8863 136.151 67.204 136.719 65.7257L140.356 56.1739H138.196L136.264 61.8595ZM212.068 57.1973C211.727 56.7425 210.931 55.9465 209.454 55.9465C208.318 55.9465 207.408 56.4013 206.726 57.1973C206.045 57.9933 205.704 59.0167 205.704 60.2676C205.704 61.5184 206.045 62.5418 206.726 63.3378C207.408 64.1338 208.318 64.4749 209.454 64.4749C210.136 64.4749 210.818 64.2475 211.159 64.0201C211.5 63.6789 211.727 63.5652 211.954 63.2241H212.068V64.2475H214V56.1739H211.954V57.1973H212.068ZM211.5 61.9732C211.045 62.4281 210.591 62.6555 209.909 62.6555C208.659 62.6555 207.749 61.6321 207.749 60.2676C207.749 58.7893 208.659 57.7659 209.909 57.7659C211.159 57.7659 212.068 58.6756 212.068 60.2676C212.068 60.8361 211.841 61.5184 211.5 61.9732ZM128.082 55.9465C126.718 55.9465 125.922 56.7425 125.582 57.1973H125.468V52.6488H123.422V64.2475H125.354V63.2241H125.468C125.695 63.5652 126.377 64.4749 127.854 64.4749C128.991 64.4749 129.9 64.1338 130.582 63.3378C131.264 62.5418 131.605 61.5184 131.605 60.2676C131.605 59.0167 131.264 57.9933 130.582 57.1973C130.014 56.2876 129.105 55.9465 128.082 55.9465ZM127.627 62.6555C126.945 62.6555 126.491 62.4281 126.036 61.9732C125.695 61.5184 125.468 60.9498 125.468 60.2676C125.468 58.7893 126.377 57.7659 127.627 57.7659C128.309 57.7659 128.764 57.9933 129.218 58.4482C129.673 58.903 129.786 59.4716 129.786 60.1538C129.786 61.6321 128.877 62.6555 127.627 62.6555ZM202.181 64.2475H204.226V56.1739H202.181V64.2475ZM174.337 55.9465C172.973 55.9465 172.177 56.7425 171.836 57.1973H171.723V52.6488H169.677V64.2475H171.609V63.2241H171.723C171.95 63.5652 172.632 64.4749 174.109 64.4749C175.246 64.4749 176.155 64.1338 176.837 63.3378C177.519 62.5418 177.86 61.5184 177.86 60.2676C177.86 59.0167 177.519 57.9933 176.837 57.1973C176.382 56.2876 175.473 55.9465 174.337 55.9465ZM173.882 62.6555C173.2 62.6555 172.746 62.4281 172.291 61.9732C171.95 61.5184 171.723 60.9498 171.723 60.2676C171.723 58.7893 172.632 57.7659 173.882 57.7659C174.564 57.7659 175.019 57.9933 175.473 58.4482C175.928 58.903 176.041 59.4716 176.041 60.1538C176.041 61.6321 175.246 62.6555 173.882 62.6555ZM185.702 57.1973C185.361 56.7425 184.565 55.9465 183.088 55.9465C181.951 55.9465 181.042 56.4013 180.36 57.1973C179.678 57.9933 179.337 59.0167 179.337 60.2676C179.337 61.5184 179.678 62.5418 180.36 63.3378C181.042 64.1338 181.951 64.4749 183.088 64.4749C183.77 64.4749 184.451 64.2475 184.792 64.0201C185.133 63.6789 185.361 63.5652 185.588 63.2241H185.702V64.2475H187.634V56.1739H185.588V57.1973H185.702ZM185.133 61.9732C184.679 62.4281 184.224 62.6555 183.542 62.6555C182.292 62.6555 181.383 61.6321 181.383 60.2676C181.383 58.7893 182.292 57.7659 183.542 57.7659C184.792 57.7659 185.702 58.6756 185.702 60.2676C185.702 60.8361 185.474 61.5184 185.133 61.9732ZM196.839 61.8595H196.612L194.68 56.1739H192.634L195.589 64.2475H197.862L200.817 56.1739H198.657L196.839 61.8595ZM163.767 55.9465C161.153 55.9465 159.449 57.7659 159.449 60.1538C159.449 61.4047 159.903 62.4281 160.699 63.2241C161.494 64.0201 162.517 64.4749 163.767 64.4749C166.268 64.4749 168.086 62.5418 168.086 60.2676C168.086 57.7659 166.268 55.8328 163.767 55.9465ZM165.358 61.9732C164.904 62.4281 164.336 62.6555 163.654 62.6555C162.972 62.6555 162.404 62.4281 162.063 61.9732C161.608 61.5184 161.381 60.9498 161.381 60.2676C161.381 59.5853 161.608 59.0167 162.063 58.5619C162.517 58.107 163.085 57.8796 163.767 57.8796C164.449 57.8796 165.018 58.107 165.358 58.5619C165.813 59.0167 166.04 59.5853 166.04 60.2676C166.04 60.8361 165.813 61.5184 165.358 61.9732ZM191.611 61.7458V52.6488H189.566V61.9732C189.566 63.4515 190.361 64.2475 191.839 64.2475H192.634V62.5418H192.293C191.839 62.4281 191.611 62.2007 191.611 61.7458ZM211.954 17.5117C210.591 15.1237 208.659 13.3043 206.272 11.8261C203.885 10.3478 201.271 9.77926 198.43 9.77926C195.589 9.77926 192.975 10.4615 190.588 11.8261C188.202 13.1906 186.27 15.1237 184.792 17.5117C183.429 19.8997 182.633 22.515 182.633 25.3579C182.406 33.7726 189.907 41.0502 198.43 40.8227C200.589 40.8227 202.521 40.3679 204.34 39.3445C206.158 38.3211 207.408 37.0702 208.204 35.592V40.3679H214.227V25.3579C214 22.515 213.318 19.8997 211.954 17.5117ZM205.363 32.2943C203.544 34.2274 201.271 35.1371 198.43 35.1371C195.703 35.1371 193.316 34.2274 191.498 32.2943C189.566 30.3612 188.656 28.087 188.656 25.3579C188.656 22.6288 189.566 20.3545 191.498 18.4214C193.316 16.4883 195.703 15.5786 198.544 15.5786C201.271 15.5786 203.658 16.4883 205.476 18.4214C207.295 20.3545 208.204 22.6288 208.204 25.3579C208.09 28.087 207.181 30.3612 205.363 32.2943ZM23.6389 11.9398C21.2523 10.5753 18.5247 9.89298 15.6835 9.89298C12.8423 9.89298 10.2284 10.5753 7.72809 11.9398C5.34148 13.3043 3.40945 15.2375 2.04567 17.6254C0.68189 19.8997 0 22.515 0 25.3579C0 28.2007 0.681891 30.7023 2.15932 33.0903C3.5231 35.4783 5.45512 37.2977 7.84174 38.7759C10.2284 40.1405 12.9559 40.8227 15.7971 40.8227C18.6383 40.8227 21.2523 40.1405 23.7525 38.7759C26.1391 37.4114 28.0712 35.4783 29.4349 33.0903C30.7987 30.7023 31.4806 28.087 31.4806 25.3579C31.4806 22.515 30.7987 19.8997 29.4349 17.5117C27.9575 15.2375 26.0255 13.3043 23.6389 11.9398ZM22.7297 32.2943C20.9113 34.2274 18.6383 35.1371 15.7971 35.1371C13.0696 35.1371 10.683 34.2274 8.86458 32.2943C6.93255 30.3612 6.02337 28.087 6.02337 25.3579C6.02337 22.6288 6.93255 20.3545 8.86458 18.4214C10.683 16.4883 13.0696 15.5786 15.9108 15.5786C18.6383 15.5786 21.025 16.4883 22.8433 18.4214C24.6617 20.3545 25.5709 22.6288 25.5709 25.3579C25.4572 28.087 24.5481 30.3612 22.7297 32.2943ZM58.9835 11.9398C56.5969 10.5753 53.8694 9.89298 51.0281 9.89298C48.1869 9.89298 45.573 10.5753 43.0728 11.9398C40.6861 13.3043 38.7541 15.2375 37.3903 17.6254C36.0266 20.0134 35.231 22.6288 35.231 25.4716V52.0803H41.2544V37.5251C41.8226 37.9799 42.3909 38.4348 43.0728 38.7759C45.4594 40.1405 48.1869 40.8227 51.0281 40.8227C53.8694 40.8227 56.4833 40.1405 58.9835 38.7759C61.3702 37.4114 63.3022 35.4783 64.666 33.0903C66.0297 30.7023 66.7116 28.087 66.7116 25.3579C66.7116 22.515 66.0297 19.8997 64.666 17.5117C63.3022 15.2375 61.4838 13.3043 58.9835 11.9398ZM58.0743 32.2943C56.256 34.2274 53.983 35.1371 51.1418 35.1371C48.4142 35.1371 46.0276 34.2274 44.2092 32.2943C42.2772 30.3612 41.368 28.087 41.368 25.3579C41.368 22.6288 42.2772 20.3545 44.2092 18.4214C46.0276 16.4883 48.4142 15.5786 51.2554 15.5786C53.983 15.5786 56.3696 16.4883 58.188 18.4214C60.0064 20.3545 60.9156 22.6288 60.9156 25.3579C60.8019 28.087 59.8927 30.3612 58.0743 32.2943ZM172.177 40.9365H178.201V10.2341H172.177V40.9365ZM153.312 33.0903L144.333 10.2341H137.969L150.357 40.9365H156.38L168.654 10.2341H162.29L153.312 33.0903ZM137.969 25.5853C137.969 22.7425 137.287 20.0134 135.924 17.6254C134.56 15.2375 132.628 13.3043 130.127 11.8261C127.741 10.4615 125.013 9.77926 122.172 9.77926C119.331 9.77926 116.603 10.4615 114.217 11.8261C111.83 13.1906 109.898 15.1237 108.421 17.6254C107.057 20.0134 106.261 22.7425 106.261 25.5853V40.9365H112.285V25.5853C112.285 22.8562 113.194 20.4682 115.126 18.5351C117.058 16.602 119.331 15.5786 122.172 15.5786C124.9 15.5786 127.286 16.4883 129.105 18.4214C130.923 20.3545 131.832 22.7425 131.832 25.5853V40.9365H137.856L137.969 25.5853ZM175.246 0C173.541 0 172.177 1.36455 172.177 3.07023C172.177 4.77592 173.541 6.14047 175.246 6.14047C176.951 6.14047 178.201 4.77592 178.201 3.07023C178.201 1.36455 176.951 0 175.246 0ZM97.0558 13.8729C94.1009 11.2575 90.2369 9.77926 86.2592 9.77926C83.4179 9.77926 80.804 10.4615 78.4174 11.9398C76.0308 13.4181 74.0988 15.2375 72.8486 17.7391C71.4849 20.1271 70.803 22.8562 70.803 25.699C70.803 28.5418 71.4849 31.1572 72.8486 33.5452C74.2124 35.9331 76.1444 37.8662 78.5311 39.2308C80.9177 40.5953 83.5316 41.3913 86.4865 41.3913C89.555 41.3913 92.3962 40.5953 94.8964 39.0033C97.5104 37.4114 99.4424 35.2508 100.806 32.6355L93.6463 32.5217C91.7143 34.5686 89.3277 35.592 86.2592 35.592C83.7589 35.592 81.7132 34.9097 80.0085 33.4314C78.3038 31.9532 77.3946 30.1338 77.0536 27.8595H101.829C101.943 27.0635 102.056 26.1538 102.056 25.1304C101.943 20.4682 100.011 16.3746 97.0558 13.8729ZM77.1673 22.8562C77.7355 20.6957 78.872 18.99 80.4631 17.6254C82.0542 16.2609 84.0998 15.5786 86.4865 15.5786C88.6458 15.5786 90.5778 16.2609 92.2825 17.6254C93.9872 18.99 95.1237 20.6957 95.692 22.8562H77.1673Z" fill="white"/>
</g>
<defs>
<clipPath id="clip0_3_71">
<rect width="214" height="68" fill="white"/>
</clipPath>
</defs>
</svg>
