<svg xmlns="http://www.w3.org/2000/svg" viewBox="0 0 612.15 82.38"><defs><style>.cls-1{fill:#fff;}</style></defs><g id="Layer_2" data-name="Layer 2"><g id="Layer_1-2" data-name="Layer 1"><g id="g10"><g id="g12"><g id="g14"><g id="g20"><path id="path22" class="cls-1" d="M13.26,45.69c0,5.56,3.5,11.74,11.2,11.74,7.53,0,11.2-6,11.2-11.65,0-5.46-3.49-11.56-11.2-11.56-7.43,0-11.2,5.74-11.2,11.47m35.57.09c0,13.8-10.93,23.3-24.37,23.3S0,59.58,0,45.78,11,22.49,24.46,22.49,48.83,32,48.83,45.78"/></g><g id="g24"><path id="path26" class="cls-1" d="M132.24,66.43c-2,.63-7.11,2.2-10.34,2.2-13.44,0-17.83-7.62-17.83-18.37V14h13.29l0,9.34h11.4l-2.86,11.74h-8.54V51.43C117.33,56,119.84,57,123,57a6.55,6.55,0,0,0,3.88-.66Z"/></g><g id="g28"><path id="path30" class="cls-1" d="M233.05,32.64c3.95,0,8.61,2,9,8l-19.09,0c1-5.92,5.91-8.07,10.12-8.08m8.31,22a10.36,10.36,0,0,1-8.1,3.46c-4.3,0-9.68-2.05-10.32-9l32.26,0a29.31,29.31,0,0,0,.27-3.94c0-15.95-10.16-23.11-22.07-23.09-12.64,0-24.1,8-24.08,23.33,0,14.6,10.42,23.28,23.78,23.26,8,0,15.74-3.19,20.13-9.83Z"/></g><g id="g32"><path id="path34" class="cls-1" d="M75.65,57.43c-7.71,0-11.2-6.18-11.2-11.74,0-5.73,3.76-11.47,11.2-11.47,7.71,0,11.2,6.09,11.2,11.56,0,5.65-3.67,11.65-11.2,11.65m0-34.94c-13.44,0-24.46,9.49-24.46,23.29v36.6H64.36V66.6a26.38,26.38,0,0,0,11.29,2.48c13.44,0,24.37-9.5,24.37-23.3S89.09,22.49,75.65,22.49"/></g><g id="g36"><path id="path38" class="cls-1" d="M154.76,57.43c-7.71,0-11.2-6.18-11.2-11.74,0-5.73,3.77-11.47,11.2-11.47,7.71,0,10.5,6.09,10.5,11.56,0,5.65-3,11.65-10.5,11.65m10.26-34v2.25c-2.38-2-5.67-3.14-10.26-3.14-13.44,0-24.46,9.49-24.46,23.29s11,23.3,24.46,23.3c4.59,0,7.88-1.13,10.26-3.14v2.24h12.84V23.38Z"/></g><g id="g40"><path id="path42" class="cls-1" d="M211.09,23.76H199.27c-10.56,0-15.48,6.27-15.48,14.41v29.6H197V40c0-2.69,2.15-4.18,5-4.35h4.54Z"/></g><g id="g44"><path id="path46" class="cls-1" d="M267.23,42.34c.66,1.24,2.88,4.41,4.31,6.76a49.22,49.22,0,0,0,6.64-4.8A38.54,38.54,0,0,0,236.61.16a40.52,40.52,0,0,0-4.88.75,5.56,5.56,0,0,0-4.23,6.63c.65,3,3.54,4.49,6.58,4,1.26-.18,2.36-.23,3.53-.34A27.44,27.44,0,0,1,267.39,36.1a27.69,27.69,0,0,1-.16,6.24"/></g><g id="g48"><path id="path50" class="cls-1" d="M293,55.21c1.86,4.95,5.57,8.85,13.63,8.85,7.87,0,10.71-3.72,10.71-8.41,0-5.93-4.34-7-13.28-8.85C296,45.11,289,42.37,289,34.67c0-7.26,6.38-12,15.58-12,10.53,0,15.49,6.2,17,12.75l-4.87,1.77c-.8-3.37-2.39-9.83-12.13-9.83-6.37,0-10.27,2.75-10.27,7.08,0,6.38,8.59,6.73,15.05,8.15,7.79,1.68,13.28,4.78,13.28,12.83s-5.4,13.28-15.94,13.28c-11.5,0-17.08-6.29-18.76-11.69Z"/></g><g id="g52"><path id="path54" class="cls-1" d="M332.86,45.82c0,12.13,8.32,18.24,17.7,18.24,10.27,0,17.71-6.91,17.71-18.24,0-12-8.42-18.41-17.71-18.41-10.71,0-17.7,7.79-17.7,18.41m40.72,0c0,14.43-10.54,22.93-23,22.93s-23-8.5-23-22.93c0-14.16,10.53-23.1,23-23.1s23,8.94,23,23.1"/></g><path id="path56" class="cls-1" d="M386.83,67.86h-5.31v-54h5.31Z"/><g id="g58"><path id="path60" class="cls-1" d="M396.8,23.61h5.31V51.4c0,6.64,2,12.66,10.09,12.66,10.62,0,15.58-9.21,15.58-15.31V23.61h5.31V67.86h-4.43l-.88-8.23h-.18c-4.25,7.35-10.27,9.12-15.31,9.12-9.3,0-15.49-6.29-15.49-16.82Z"/></g><g id="g62"><path id="path64" class="cls-1" d="M459.09,67.33a15.94,15.94,0,0,1-6.19,1A10.87,10.87,0,0,1,442,57.6V13.87h5.3v9.74h11.77V28.3H447.32V57.6c0,4.07,3,6,6.37,6a14.4,14.4,0,0,0,5.4-1.16Z"/></g><path id="path66" class="cls-1" d="M466.66,23.61H472V67.86h-5.31Z"/><g id="g68"><path id="path70" class="cls-1" d="M484.77,45.82c0,12.13,8.32,18.24,17.7,18.24,10.27,0,17.7-6.91,17.7-18.24,0-12-8.4-18.41-17.7-18.41-10.71,0-17.7,7.79-17.7,18.41m40.72,0c0,14.43-10.54,22.93-23,22.93s-23-8.5-23-22.93c0-14.16,10.53-23.1,23-23.1s23,8.94,23,23.1"/></g><g id="g72"><path id="path74" class="cls-1" d="M570.5,67.86h-5.32V39.63c0-5.93-2-12.22-10.54-12.22a15.88,15.88,0,0,0-16,15.32V67.86h-5.31V23.61h4.43l.88,8.23h.18c4.51-7.26,10.36-9.12,15.76-9.12,9.74,0,15.94,6.28,15.94,16.82Z"/></g><g id="g76"><path id="path78" class="cls-1" d="M582.5,55.21c1.86,4.95,5.57,8.85,13.63,8.85,7.88,0,10.71-3.72,10.71-8.41,0-5.93-4.34-7-13.28-8.85-8-1.69-15-4.43-15-12.13,0-7.26,6.38-12,15.58-12,10.54,0,15.5,6.2,17,12.75l-4.87,1.77c-.8-3.37-2.39-9.83-12.13-9.83-6.37,0-10.26,2.75-10.26,7.08,0,6.38,8.58,6.73,15,8.15,7.78,1.68,13.27,4.78,13.27,12.83s-5.4,13.28-15.93,13.28c-11.51,0-17.08-6.29-18.77-11.69Z"/></g></g></g></g></g></g></svg>