<svg xmlns="http://www.w3.org/2000/svg" viewBox="0 0 451.38 76.33"><defs><style>.cls-1{fill:#fff;}</style></defs><g id="Layer_2" data-name="Layer 2"><g id="Layer_1-2" data-name="Layer 1"><path class="cls-1" d="M107.9,44.73A20.51,20.51,0,0,0,97.81,38.9a20.64,20.64,0,0,0,10-5.88c4.19-4.39,6.27-9.91,6.32-16.51h-10.8a13.7,13.7,0,0,1-3.22,9.31,10.76,10.76,0,0,1-8.47,3.66,10.9,10.9,0,0,1-8.47-3.66,13.39,13.39,0,0,1-3.3-9.31H69.05q0,10.11,6.26,16.64a20.38,20.38,0,0,0,10.08,5.79,21,21,0,0,0-9.93,5.88q-6.4,6.66-6.41,16.76H79.87s0,0,0-.08a13.82,13.82,0,0,1,3.23-9.43,10.69,10.69,0,0,1,8.47-3.72A10.8,10.8,0,0,1,100,52.11a13.72,13.72,0,0,1,3.31,9.39s0,.06,0,.08h10.8c0-.06,0-.11,0-.16Q114.16,51.31,107.9,44.73Z"/><path class="cls-1" d="M14.33,29.53A13.79,13.79,0,0,0,11,39.09a13.46,13.46,0,0,0,3.46,9.53,11.72,11.72,0,0,0,9,3.7,11.61,11.61,0,0,0,9-3.7,13.7,13.7,0,0,0,3.37-9.53,13.52,13.52,0,0,0-3.46-9.56,11.67,11.67,0,0,0-9-3.75A11.53,11.53,0,0,0,14.33,29.53ZM11.28,58V76.33H0V16.51H10.7v4.3q5.06-5.05,13.82-5,10.22,0,16.39,6.45t6.2,16.72a23.57,23.57,0,0,1-6.28,16.73Q34.55,62.37,24,62.36A19,19,0,0,1,11.28,58Z"/><path class="cls-1" d="M62.88,61.59H51.58V16.51h11.3ZM57.23,13.65a6.63,6.63,0,0,1-4.77-1.93,6.36,6.36,0,0,1-2-4.72,6.56,6.56,0,0,1,2-4.84,6.52,6.52,0,0,1,4.77-2,6.44,6.44,0,0,1,4.8,2A6.6,6.6,0,0,1,64,7,6.47,6.47,0,0,1,62,11.72,6.57,6.57,0,0,1,57.23,13.65Z"/><path class="cls-1" d="M137.33,25.28a9.6,9.6,0,0,0-6.86,2.49,9.94,9.94,0,0,0-3.08,6.45h20.39a9.7,9.7,0,0,0-3.2-6.45A10.39,10.39,0,0,0,137.33,25.28Zm22,17.43h-32.2a10.1,10.1,0,0,0,3.42,7,11.48,11.48,0,0,0,7.8,2.57c4.72,0,8.51-2.23,11.38-6.74l8.34,5.06A20.87,20.87,0,0,1,150.8,59q-4.94,3.36-12.43,3.37-10.38,0-16.73-6.27t-6.37-16.9q0-10.18,6.2-16.81c4.12-4.41,9.46-6.61,16-6.61q10.11,0,16.09,6.07t6,16.26C159.5,39.88,159.45,41.42,159.34,42.71Z"/><path class="cls-1" d="M175.79,0H164.48V61.59h11.31Z"/><path class="cls-1" d="M225.69,16a14.17,14.17,0,0,0-11.3,4.88Q210.94,16,203.68,16q-6.5,0-9.69,3.88V16.51H182.68V61.58H194V33.35a8.18,8.18,0,0,1,1.6-5.38A5.58,5.58,0,0,1,200.14,26,5.35,5.35,0,0,1,204.57,28a8.1,8.1,0,0,1,1.56,5.22V61.58h11.3V33.19A8.09,8.09,0,0,1,219,28a5.4,5.4,0,0,1,4.51-2,5.49,5.49,0,0,1,4.5,1.89,8.06,8.06,0,0,1,1.56,5.27V61.59h11.29V31.85q0-7.08-3.67-11.46C234.75,17.46,230.92,16,225.69,16Z"/><path class="cls-1" d="M281.57,20.72A13.71,13.71,0,0,0,276,17.1a22,22,0,0,0-7.71-1.34q-10.29,0-16.69,6.58T245.16,39c0,7,2.14,12.59,6.41,16.9s9.84,6.45,16.69,6.45a19.79,19.79,0,0,0,8.38-1.61,13.27,13.27,0,0,0,5.1-3.62V61.6h10.53V16.52H281.56v4.2ZM278,48.58a11.49,11.49,0,0,1-9,3.74,11.69,11.69,0,0,1-9-3.74A13.55,13.55,0,0,1,256.46,39a13.56,13.56,0,0,1,3.41-9.47,12.61,12.61,0,0,1,17.95,0,13.31,13.31,0,0,1,3.5,9.47A13.78,13.78,0,0,1,278,48.58Z"/><path class="cls-1" d="M337.71,9.43H326.4v7.08h-14V9.43H301.14v7.08h-4.21V26h4.21V50.22Q301.14,62,313.2,62c1.12,0,2.18-.05,3.16-.13a16.13,16.13,0,0,0,2.23-.3l.75-.16V51.83h-2.61a4.14,4.14,0,0,1-3.33-1.15,5.57,5.57,0,0,1-1-3.66V26h14V50.21Q326.41,62,338.47,62c1.12,0,2.18-.05,3.16-.13a16.13,16.13,0,0,0,2.23-.3l.75-.16V51.82H342a4.16,4.16,0,0,1-3.34-1.15,5.57,5.57,0,0,1-1-3.66V26h6.91V16.51H337.7V9.43Z"/><path class="cls-1" d="M369.36,15.76q-9.78,0-16,6.61T347.2,39.18q0,10.62,6.36,16.9t16.73,6.27q7.5,0,12.43-3.37A21,21,0,0,0,390,50.64l-8.35-5.06q-4.31,6.75-11.38,6.74a11.5,11.5,0,0,1-7.8-2.57,10.1,10.1,0,0,1-3.42-7h32.2c.11-1.28.16-2.83.18-4.62q0-10.2-6-16.26T369.36,15.76ZM359.3,34.21a10,10,0,0,1,3.08-6.45,9.64,9.64,0,0,1,6.87-2.49,10.4,10.4,0,0,1,7.25,2.49,9.75,9.75,0,0,1,3.2,6.45Z"/><path class="cls-1" d="M407.71,20.13V16.51H396.4V61.58h11.31V34.11a6.54,6.54,0,0,1,1.34-4.5c.9-1,2.41-1.47,4.55-1.47h2.86V16.33C412.42,16.34,409.49,17.61,407.71,20.13Z"/><path class="cls-1" d="M448.81,39.14c-1.71-2.11-4.46-3.73-8.22-4.85-.79-.22-1.85-.5-3.21-.84l-2.95-.75c-2.65-.74-4-2.14-4-4.22a3.44,3.44,0,0,1,1.23-2.74,4.82,4.82,0,0,1,3.24-1c3.33,0,5,1.82,5.15,5.47h10.36q-.07-7-4-10.61t-11.2-3.62a16.49,16.49,0,0,0-11.09,3.7,11.86,11.86,0,0,0-4.34,9.43c0,6.62,3.11,11.07,9.35,13.31q1.33.51,6.83,2a8.35,8.35,0,0,1,3.42,1.69,3.9,3.9,0,0,1,1,2.95,3.47,3.47,0,0,1-1.5,3,6.64,6.64,0,0,1-3.8,1c-3.66,0-5.48-2-5.48-6.07H418.86a14.78,14.78,0,0,0,3.58,10.87c2.56,2.87,6.74,4.31,12.51,4.31a18.44,18.44,0,0,0,11.71-3.7,12.35,12.35,0,0,0,4.72-10.28C451.38,44.27,450.53,41.25,448.81,39.14Z"/></g></g></svg>