<svg xmlns="http://www.w3.org/2000/svg" viewBox="0 0 686.32 169.84"><defs><style>.cls-1{fill:#fff;}</style></defs><g id="Layer_2" data-name="Layer 2"><g id="Layer_1-2" data-name="Layer 1"><path class="cls-1" d="M41.83,21.59A15.42,15.42,0,0,0,26.32,37.11a15.35,15.35,0,0,0,4.51,11,14.64,14.64,0,0,0,11,4.72,15.12,15.12,0,0,0,11.1-4.62,15.16,15.16,0,0,0,4.62-11.1q0-11.58,2.75-14.35C62.12,20.94,67,20,74.84,20a15,15,0,0,0,11-4.53,15,15,0,0,0,4.52-11A15.65,15.65,0,0,0,89.92,1C89,.83,88.07.72,87.15.61L85.1.38C84.21.3,83.32.24,82.43.18,81,.1,79.55,0,78.1,0l-.89,0A84.66,84.66,0,0,0,59.36,1.93a16.72,16.72,0,0,0-.24,2.58q0,11.58-2.75,14.33T41.83,21.59Z"/><path class="cls-1" d="M20,48.31a15.2,15.2,0,0,0,4.51-11.2q0-11.58,2.75-14.35C29.13,20.94,34,20,41.83,20a15.2,15.2,0,0,0,11.1-4.62,15,15,0,0,0,4.62-10.9,16.21,16.21,0,0,0-.2-2.12A85.09,85.09,0,0,0,0,49.94a15,15,0,0,0,9,2.89A15,15,0,0,0,20,48.31Z"/><path class="cls-1" d="M107.64,20a15.17,15.17,0,0,0,11.11-4.61,17.31,17.31,0,0,0,2.37-3.09A84.33,84.33,0,0,0,92.22,1.38a16.68,16.68,0,0,0-.29,3.12,15,15,0,0,0,4.51,11A15.22,15.22,0,0,0,107.64,20Z"/><path class="cls-1" d="M74.89,85.84c7.86,0,12.7.91,14.55,2.75s2.75,6.61,2.75,14.33a15.17,15.17,0,0,0,4.52,11.2,15.73,15.73,0,0,0,26.72-11.2A14.86,14.86,0,0,0,118.8,92a15.07,15.07,0,0,0-11.1-4.6q-11.78,0-14.51-2.77T90.41,70.31A15.1,15.1,0,0,0,85.9,59.13a14.93,14.93,0,0,0-11-4.54A15.77,15.77,0,0,0,59.18,70.32a14.92,14.92,0,0,0,4.62,10.9A15.15,15.15,0,0,0,74.89,85.84Z"/><path class="cls-1" d="M107.67,54.59a15.3,15.3,0,0,0-11,4.54A14.59,14.59,0,0,0,92,70.1a15.7,15.7,0,0,0,26.82,11.11,15.1,15.1,0,0,0,4.62-11.11,14.93,14.93,0,0,0-4.52-11A15.12,15.12,0,0,0,107.67,54.59Z"/><path class="cls-1" d="M16.41,133.22a15,15,0,0,0-7.46,2,85,85,0,0,0,21.44,20.46,15.84,15.84,0,0,0,1.54-6.92,15,15,0,0,0-4.51-11A15,15,0,0,0,16.41,133.22Z"/><path class="cls-1" d="M130,124.93a14.61,14.61,0,0,0-4.72,11c0,7.85-.9,12.7-2.76,14.53s-6.66,2.77-14.52,2.77a15.36,15.36,0,0,0-11,4.51,14.61,14.61,0,0,0-4.69,10.7A85,85,0,0,0,152,124.86a15,15,0,0,0-11-4.45A15.36,15.36,0,0,0,130,124.93Z"/><path class="cls-1" d="M30.84,59.13a14.86,14.86,0,0,0-4.52,11,15.4,15.4,0,0,0,4.52,11,14.66,14.66,0,0,0,11,4.7A15.76,15.76,0,0,0,57.55,70.11a14.93,14.93,0,0,0-4.52-11,15.12,15.12,0,0,0-11.2-4.53A14.87,14.87,0,0,0,30.84,59.13Z"/><path class="cls-1" d="M42.22,153.24a14.87,14.87,0,0,0-9.94,3.62,84.61,84.61,0,0,0,25.53,10.7,15.63,15.63,0,0,0-15.59-14.32Z"/><path class="cls-1" d="M140.82,87.4A15,15,0,0,0,129.92,92a15.16,15.16,0,0,0-4.62,11.1c0,7.87-.91,12.7-2.75,14.55s-6.62,2.75-14.33,2.75A15.12,15.12,0,0,0,97,125a15,15,0,0,0-4.53,11c0,7.72-.93,12.72-2.79,14.55s-6.67,2.76-14.52,2.76a15.08,15.08,0,0,0-11.1,4.61A14.86,14.86,0,0,0,59.48,168a85.46,85.46,0,0,0,31.21.72c0-7.7.93-12.48,2.76-14.31s6.9-2.76,14.77-2.76A14.93,14.93,0,0,0,119.13,147a15.1,15.1,0,0,0,4.6-11.1c0-7.86.93-12.71,2.76-14.53s6.61-2.76,14.34-2.76A15.08,15.08,0,0,0,152,114.12a14.88,14.88,0,0,0,4.53-11A15.77,15.77,0,0,0,140.82,87.4Z"/><path class="cls-1" d="M221.52,89c7.11-2.23,11.16-7.75,11.16-15.29v-.51c0-10.83-7.37-16.55-21.32-16.55-4.55,0-10,.25-13,.6-1.12.12-2.41.5-2.41,2.34V111a2.13,2.13,0,0,0,2,2.2h4A2.12,2.12,0,0,0,204,111V90.16c2.05.08,5.22.2,7.36.2h1.5l12.95,21.56c.73,1.17,1.1,1.3,2.24,1.3h5.15a1.48,1.48,0,0,0,1.68-1.47,1.92,1.92,0,0,0-.32-1Zm-10.16-5.8c-.86,0-2.55,0-4.19-.08L204,83V64.26c1.95-.15,5.4-.15,7.36-.15,9.4,0,13.24,2.62,13.24,9v.51C224.6,80.5,220.89,83.16,211.36,83.16Z"/><path class="cls-1" d="M269.66,57.06c-3.24-.31-10.37-.45-14.4-.45-11.19,0-16.4,4.58-16.4,14.41v27.8c0,9.83,5.21,14.41,16.4,14.41,1.81,0,11.05,0,14.41-.37h0a1.75,1.75,0,0,0,1.35-1.75v-3.74a1.51,1.51,0,0,0-1.54-1.61H255.33c-7.6,0-8.32-1.9-8.32-6.93V88.51h21.85a2.2,2.2,0,0,0,2.2-2.19v-2.8a2.21,2.21,0,0,0-2.2-2.2H247V71c0-5,.72-6.91,8.32-6.91h14.19a1.53,1.53,0,0,0,1.54-1.62V58.82A1.78,1.78,0,0,0,269.66,57.06Z"/><path class="cls-1" d="M313.31,56.61H278a2.13,2.13,0,0,0-2.21,2V61.9A2,2,0,0,0,278,63.8h13.6V111a2.14,2.14,0,0,0,2.06,2.2h4a2.14,2.14,0,0,0,2.05-2.2V63.8h13.61a1.94,1.94,0,0,0,2.13-1.9V58.65A2,2,0,0,0,313.31,56.61Z"/><path class="cls-1" d="M341,56.61h-4.27c-11.59,0-16.54,4.78-16.54,16V111a2.19,2.19,0,0,0,2.05,2.2h4.05a2.14,2.14,0,0,0,2.05-2.2V90h21v21a2.13,2.13,0,0,0,2.05,2.2h4.05a2.19,2.19,0,0,0,2.05-2.2V72.57C357.55,61.53,352.45,56.61,341,56.61Zm8.38,26h-21V72.57c0-7.31,2.2-8.62,8.39-8.62H341c6.18,0,8.38,1.31,8.38,8.62Z"/><path class="cls-1" d="M372.19,56.61h-4a2.06,2.06,0,0,0-2,2.12V111a2.13,2.13,0,0,0,2,2.2h4a2.14,2.14,0,0,0,2.06-2.2V58.73A2.06,2.06,0,0,0,372.19,56.61Z"/><path class="cls-1" d="M413.45,105.75H399.26c-7.6,0-8.32-1.9-8.32-6.93v-40a2.2,2.2,0,0,0-2.2-2.2H385a2.21,2.21,0,0,0-2.2,2.2v40c0,12.7,8.29,14.41,16.4,14.41a125.77,125.77,0,0,0,14.45-.67h0a1.75,1.75,0,0,0,1.35-1.75v-3.45A1.51,1.51,0,0,0,413.45,105.75Z"/><path class="cls-1" d="M448.56,57.35l-.28,0a100.15,100.15,0,0,0-12.53-.71c-5.36,0-9.87,1.77-13.05,5.1-3.84,4-5.78,10.29-5.78,18.59v9.23c0,20.62,11.8,23.7,18.83,23.7a100.52,100.52,0,0,0,12.49-.7l.32,0a2.24,2.24,0,0,0,2.14-2.07v-.89a1.58,1.58,0,0,0-1.78-1.71h-.54c-2.45.27-8,.66-12.63.66-4.18,0-7.49-1.4-9.85-4.17-2.72-3.2-4.1-8.18-4.1-14.79V80.3c0-6.6,1.38-11.58,4.1-14.78,2.36-2.77,5.67-4.17,9.85-4.17,4.38,0,9.78.34,12.72.66h.45a1.58,1.58,0,0,0,1.78-1.71v-.88A2.24,2.24,0,0,0,448.56,57.35Z"/><path class="cls-1" d="M472.18,56.61c-12.68,0-19.65,8.52-19.65,24v8.64c0,15.47,7,24,19.65,24s19.64-8.52,19.64-24V80.6C491.82,65.13,484.84,56.61,472.18,56.61Zm14.76,32.63c0,12.78-5,19.25-14.76,19.25S457.41,102,457.41,89.24V80.6c0-12.77,5-19.25,14.77-19.25s14.76,6.48,14.76,19.25Z"/><path class="cls-1" d="M516.57,56.61a137.39,137.39,0,0,0-17,1.26A2,2,0,0,0,497.8,60v51a2.1,2.1,0,0,0,2.08,2.23h.66a2.17,2.17,0,0,0,2.15-2.23V62c3.77-.38,9-.81,13.88-.81,9.25,0,12.86,4.39,12.86,15.65V111a2.13,2.13,0,0,0,2.07,2.23h.74a2.16,2.16,0,0,0,2.07-2.23V76.85C534.31,63.23,528.51,56.61,516.57,56.61Z"/><path class="cls-1" d="M559.48,82.84,554.78,80c-6.46-3.92-9.53-6.49-9.53-10.54,0-5.66,3.88-8.08,13-8.08,2.18,0,5,.26,7.39.48,1.57.14,2.8.26,3.49.26,1.64,0,2.22-1,2.22-1.86v-.95a2,2,0,0,0-2-1.93l-1.46-.14c-2.91-.28-6.21-.6-9.56-.6-12,0-18,4.29-18,12.74,0,7,5.17,10.73,11.93,14.89l4.87,3c8,5,10.7,6.65,10.7,11.58,0,3-.7,5-2.42,6.67-2.06,2-5.47,3-10.43,3a70.33,70.33,0,0,1-7.46-.48c-1.13-.11-2.29-.23-3.57-.32h-.3c-2.06,0-2.22,1.36-2.22,1.78v1a2.07,2.07,0,0,0,2.07,2l1.7.18a86.59,86.59,0,0,0,9.78.63c12,0,17.88-4.71,17.88-14.39C572.82,91.45,567.54,87.7,559.48,82.84Z"/><path class="cls-1" d="M613.16,56.61h-.67a2.09,2.09,0,0,0-2.07,2.22v48.69a97.08,97.08,0,0,1-14,1c-4.73,0-8-1.28-10-3.91s-2.78-6.23-2.78-11.74V58.83a2.13,2.13,0,0,0-2.07-2.22h-.74a2.13,2.13,0,0,0-2.07,2.22V92.92c0,13.66,5.78,20.31,17.66,20.31a90.82,90.82,0,0,0,17.11-1.72,2,2,0,0,0,1.66-2.12V58.83A2.09,2.09,0,0,0,613.16,56.61Z"/><path class="cls-1" d="M650.07,108.56H633.3c-3.41,0-4.84-.61-4.84-4.39V58.83a2.13,2.13,0,0,0-2.07-2.22h-.73a2.13,2.13,0,0,0-2.08,2.22v45.34c0,6.18,3.09,9.06,9.72,9.06h16.77a2.11,2.11,0,0,0,2.22-2.08v-.59A2.05,2.05,0,0,0,650.07,108.56Z"/><path class="cls-1" d="M684.1,56.61H649.33a2.11,2.11,0,0,0-2.23,2.07v.66a2,2,0,0,0,2.23,1.92h15V111a2.13,2.13,0,0,0,2.08,2.23h.73a2.13,2.13,0,0,0,2.07-2.23V61.26H684.1c1.35,0,2.22-.75,2.22-1.92v-.66A2.08,2.08,0,0,0,684.1,56.61Z"/></g></g></svg>