<svg xmlns="http://www.w3.org/2000/svg" viewBox="0 0 460.83 97.8"><defs><style>.cls-1{fill:#fff;}</style></defs><g id="Layer_2" data-name="Layer 2"><g id="Layer_1-2" data-name="Layer 1"><path class="cls-1" d="M450.81,27.06c-7.75-9-19.32-13.83-33.46-13.83S391.65,18,383.9,27.06c-6.37,7.44-10,17.81-10,28.45s3.66,21,10,28.45C391.65,93,403.21,97.8,417.35,97.8S443.06,93,450.81,84c6.37-7.44,10-17.8,10-28.45S457.18,34.5,450.81,27.06ZM444.7,55.51c0,12.76-7.16,27.65-27.35,27.65-12.61,0-27.34-7.24-27.34-27.65,0-12.75,7.16-27.64,27.34-27.64C430,27.87,444.7,35.11,444.7,55.51ZM349.86,15.05V71.23l-45.4-56.18H287.79V95.79h16.13V39.61l45.41,56.18H366V15.05ZM242.09,50.11V64.75h22.27A21.23,21.23,0,0,1,256,78c-4.57,3.35-10.57,5.12-17.36,5.12-25,0-27.67-19.11-27.67-27.33,0-12.9,7.11-28,27.14-28,12.38,0,20.25,4.33,23.67,13.6l15.45-5.37c-5.5-15.09-19.36-22.87-39.66-22.87-10.94,0-21.11,3.45-28.65,9.73-9.22,7.67-14.09,19.37-14.09,33.83,0,20.41,13.32,41,43.06,41,12.79,0,23.45-3.86,30.82-11.16S280,68.73,280,56V50.1H242.09ZM50,48.52,29.17,45.46c-7.27-1.24-11-3.79-11-7.59,0-7.91,10.32-10,15.78-10,13.24,0,22.18,4.37,24,12.36l15.37-4.5c-3-14-17.69-22.5-37.89-22.5-9.94,0-18.32,2.36-24.24,6.83A22.54,22.54,0,0,0,2.07,38.72C2.07,56.85,20.9,60,27.1,61l20.39,2.88c8.87,1.52,12.66,4.17,12.66,8.87,0,7.68-9.34,10.42-18.08,10.42-10.62,0-24.13-2.57-26.69-15.24L0,72.43c3.55,16,19.14,25.37,41.22,25.37S76.28,87.6,76.28,70.5c0-11.84-9.09-19.44-26.3-22Zm97.57-16.6-8,16h47.87v-16ZM163.51,0l-8,16h31.9V0ZM131.59,63.85l-8,16h63.84v-16Z"/><path class="cls-1" d="M155.54,16H83.7V95.78h31.93l8-16h-24v-16h31.93l8-16H99.66v-16h47.89Z"/></g></g></svg>