<svg xmlns="http://www.w3.org/2000/svg" viewBox="0 0 577.03 185.26"><defs><style>.cls-1{fill:#fff;}</style></defs><g id="Layer_2" data-name="Layer 2"><g id="Layer_1-2" data-name="Layer 1"><path class="cls-1" d="M226,124v-7.34a31.1,31.1,0,0,1-23,10.3c-14,0-21.08-7.43-21.08-20.6v-45A1.32,1.32,0,0,1,183.25,60h11.54a1.34,1.34,0,0,1,1.34,1.32V101c0,10.13,5.13,13.39,13.22,13.39A21.67,21.67,0,0,0,226,105.92V61.36A1.34,1.34,0,0,1,227.32,60h11.56a1.32,1.32,0,0,1,1.31,1.32V124a1.32,1.32,0,0,1-1.31,1.32H227.34A1.35,1.35,0,0,1,226,124Zm45.32-7.73v32.59a1.32,1.32,0,0,1-1.31,1.32H258.51a1.34,1.34,0,0,1-1.34-1.32V61.36A1.34,1.34,0,0,1,258.51,60h11.54a1.32,1.32,0,0,1,1.31,1.32V69a26.1,26.1,0,0,1,21.08-10.55c16.89,0,28.84,12.71,28.84,34.2s-12,34.32-28.84,34.32a26.24,26.24,0,0,1-21-10.67Zm35.27-23.65c0-12.71-7.29-21.63-18.54-21.63a21.25,21.25,0,0,0-16.75,8.65v25.82a21.33,21.33,0,0,0,16.75,8.92c11.33,0,18.63-9.07,18.63-21.76Zm73,32.7a1.32,1.32,0,0,1-1.32-1.32V84.23c0-10.31-5.15-13.25-13.13-13.25a21.77,21.77,0,0,0-16.75,8.65V124a1.33,1.33,0,0,1-1.33,1.32H335.7a1.35,1.35,0,0,1-1.34-1.32V36.49a1.34,1.34,0,0,1,1.3-1.38h11.56a1.34,1.34,0,0,1,1.34,1.32V68.82a30.91,30.91,0,0,1,23-10.41c14.05,0,21.08,7.29,21.08,20.6v45a1.32,1.32,0,0,1-1.32,1.32Zm26-32.7c0-18.79,12.72-34.2,33.52-34.2s33.52,15.41,33.52,34.2-12.71,34.32-33.52,34.32-33.43-15.59-33.43-34.32Zm52.31,0c0-11.5-6.61-21.63-18.79-21.63s-18.79,10.13-18.79,21.63,6.76,21.76,18.79,21.76,18.87-10.14,18.87-21.76ZM485.69,124V36.49A1.33,1.33,0,0,1,487,35.17h11.52a1.34,1.34,0,0,1,1.34,1.32V124a1.34,1.34,0,0,1-1.34,1.32H487a1.34,1.34,0,0,1-1.25-1.32Zm77.17,0v-7.6a26.27,26.27,0,0,1-21,10.54c-16.63,0-28.85-12.71-28.85-34.32,0-21.1,12.16-34.2,28.85-34.2a25.49,25.49,0,0,1,21,10.67V36.49a1.32,1.32,0,0,1,1.32-1.32h11.54A1.32,1.32,0,0,1,577,36.49h0V124a1.32,1.32,0,0,1-1.31,1.32H564.18a1.33,1.33,0,0,1-1.24-1.32Zm0-18.4V79.78A21.17,21.17,0,0,0,546.09,71c-11.35,0-18.54,9.06-18.54,21.63s7.17,21.76,18.54,21.76a21.22,21.22,0,0,0,16.85-8.78ZM83.37,172.38A60.76,60.76,0,0,1,66.21,175h-.8a60.2,60.2,0,0,1-17.27-2.62,5.16,5.16,0,0,0-2.92,9.89,71.56,71.56,0,0,0,20.19,3h.8a70.71,70.71,0,0,0,20.07-3,5.15,5.15,0,0,0-2.91-9.87Zm45-126.76h0v-.21a.17.17,0,0,1,0-.1,65.81,65.81,0,0,0-125.12.2.28.28,0,0,1,0,.13c-5.81,17.08-3.71,40,5.67,61.25C21.71,136,45,156.33,65.55,156.33h.6c20.6,0,43.84-20.25,56.66-49.44C132.1,85.63,134.2,62.72,128.35,45.62ZM98.1,20.69c-10.4-.43-21.75,4.12-32.34,12.9-10.61-8.78-22-13.29-32.37-12.9A55.78,55.78,0,0,1,98.1,20.69ZM74.25,144.16a20.06,20.06,0,0,1-17,0c-17.57-8.1-21.14-40.65-7.77-71a92.68,92.68,0,0,1,16.34-25.3A92.48,92.48,0,0,1,82.1,73.14C95.38,103.51,91.82,136.06,74.25,144.16Zm-56-41.35c-8.39-19.08-10.3-39.14-5.27-54,2.67-7.76,7.19-13.29,13-16,9.12-4.23,20.93-1.24,32.28,7.93A102.64,102.64,0,0,0,40.05,69c-9,20.6-11,41.6-6.86,57.93A98.81,98.81,0,0,1,18.21,102.81Zm95.08,0a99.73,99.73,0,0,1-15,24.12c4.12-16.35,2.06-37.45-6.86-57.95A103.34,103.34,0,0,0,73.26,40.8c11.33-9.17,23.13-12.16,32.26-7.93,5.85,2.69,10.3,8.24,13,16,5.09,14.71,3.11,34.88-5.36,54Z"/></g></g></svg>