<svg xmlns="http://www.w3.org/2000/svg" viewBox="0 0 519.19 128.96"><defs><style>.cls-1{fill:#fff;}</style></defs><g id="Layer_2" data-name="Layer 2"><g id="Layer_1-2" data-name="Layer 1"><path class="cls-1" d="M138,32.56a32.68,32.68,0,0,0-17.52-4.8A29.12,29.12,0,0,0,106.83,31a27.64,27.64,0,0,0-6.26,4.51V29.22h-19V129h18.9V93.3a26,26,0,0,0,6.4,4.54,30,30,0,0,0,13.66,3.06,32.32,32.32,0,0,0,17.45-4.8A34.12,34.12,0,0,0,150.08,83a38.88,38.88,0,0,0,4.43-18.61,39.59,39.59,0,0,0-4.36-18.75A33.24,33.24,0,0,0,138,32.56Zm-5.38,41.51a17.26,17.26,0,0,1-6.18,6.76,16.79,16.79,0,0,1-9.16,2.48,17.9,17.9,0,0,1-9.37-2.48,15.81,15.81,0,0,1-6.25-6.76,21.9,21.9,0,0,1-2.11-9.81,20.33,20.33,0,0,1,2.25-9.75,17.32,17.32,0,0,1,6.25-6.68,18.28,18.28,0,0,1,18.39,0,17.45,17.45,0,0,1,6.18,6.68,20.45,20.45,0,0,1,2.26,9.75A20.81,20.81,0,0,1,132.63,74.07Z"/><path class="cls-1" d="M216.44,35.91a25.59,25.59,0,0,0-6.83-5.09,28.84,28.84,0,0,0-13.38-3.06,32,32,0,0,0-17.37,4.8,33.68,33.68,0,0,0-12,13.09A39.59,39.59,0,0,0,162.5,64.4,39.31,39.31,0,0,0,166.87,83a33.75,33.75,0,0,0,12,13.09,31.69,31.69,0,0,0,17.23,4.8,29.6,29.6,0,0,0,13.59-3.06,24.86,24.86,0,0,0,6.76-5v6.62h19.2V29.22h-19.2Zm-3.78,42a16.75,16.75,0,0,1-12.94,5.38,17.25,17.25,0,0,1-9.15-2.48,17,17,0,0,1-6.33-6.69A20.67,20.67,0,0,1,182,64.26a20.45,20.45,0,0,1,2.25-9.75,17,17,0,0,1,15.48-9.16,17.51,17.51,0,0,1,9.31,2.4,17.32,17.32,0,0,1,6.25,6.76,20.72,20.72,0,0,1,2.33,9.89A19.23,19.23,0,0,1,212.66,77.93Z"/><path class="cls-1" d="M305.48,31.62a25.25,25.25,0,0,0-13.88-3.86,29.12,29.12,0,0,0-14.32,3.5,25.31,25.31,0,0,0-6,4.61V29.22h-19V99.44h19V59.17a14.88,14.88,0,0,1,1.82-7.34,12.48,12.48,0,0,1,5-5,15,15,0,0,1,7.27-1.74,13.57,13.57,0,0,1,10,3.92,13.77,13.77,0,0,1,3.93,10.18V99.44H318.5V54.81A26.29,26.29,0,0,0,315,41.65,28.18,28.18,0,0,0,305.48,31.62Z"/><path class="cls-1" d="M380.44,35.32a27,27,0,0,0-6.26-4.42,29.45,29.45,0,0,0-13.66-3.14,32,32,0,0,0-17.38,4.8A34.72,34.72,0,0,0,331,45.65,38.52,38.52,0,0,0,326.5,64.4,38.25,38.25,0,0,0,331,83,34.79,34.79,0,0,0,343.14,96.1a32,32,0,0,0,17.38,4.8,29.79,29.79,0,0,0,13.81-3.14,25.47,25.47,0,0,0,6.25-4.49v6.17h19.19V0H380.44Zm-.95,38.82a17,17,0,0,1-6.33,6.69,18.68,18.68,0,0,1-18.46.08,16.53,16.53,0,0,1-6.32-6.7,21.07,21.07,0,0,1-2.25-9.95,20.85,20.85,0,0,1,2.25-9.82,16.74,16.74,0,0,1,6.25-6.69,17.86,17.86,0,0,1,9.38-2.4,17,17,0,0,1,15.48,9.16,20.74,20.74,0,0,1,2.26,9.89A20.38,20.38,0,0,1,379.49,74.14Z"/><rect class="cls-1" x="447.85" y="29.22" width="19.34" height="70.22"/><polygon class="cls-1" points="519.19 29.22 502.46 29.22 502.46 0 483.42 0 483.42 99.44 502.46 99.44 502.46 45.93 519.19 45.93 519.19 29.22"/><polygon class="cls-1" points="48.5 63.38 21.52 29.22 0 29.22 25.96 63.38 0 99.44 21.52 99.44 48.5 63.38"/><polygon class="cls-1" points="53.27 56.26 73.43 29.22 51.04 29.22 41.82 41.65 53.27 56.26"/><polygon class="cls-1" points="53.53 70.5 42.09 85.8 51.04 99.44 73.43 99.44 53.53 70.5"/><rect class="cls-1" x="447.82" width="19.39" height="16.72"/></g></g></svg>