<svg xmlns="http://www.w3.org/2000/svg" viewBox="0 0 604.88 172.64"><defs><style>.cls-1{fill:#fff;}</style></defs><g id="Layer_2" data-name="Layer 2"><g id="Layer_1-2" data-name="Layer 1"><path class="cls-1" d="M202.52,32.24h7.86l23.28,35.31,23.39-35.31h7.76L237.15,74.63V98.21h-6.88V74.63Z"/><path class="cls-1" d="M314.6,54.36V98.21H308v-4c-5.63,3.69-10.58,5.44-16.78,5.44-13.39,0-22.32-9.61-22.32-24.06.1-14.17,8.64-23.68,22.7-23.68A106.49,106.49,0,0,1,314.6,54.36ZM275.5,75.8c0,10.77,6.4,18.14,16.49,18.14,5.34,0,10-1.45,16-5.43V58.92a96,96,0,0,0-15.52-1.26C281.32,57.66,275.5,65.13,275.5,75.8Z"/><path class="cls-1" d="M362.54,58.82a148.12,148.12,0,0,0-18.33,1V98.21h-6.6V54.65a142.31,142.31,0,0,1,24.93-2.33Z"/><path class="cls-1" d="M380.12,37.19A4.85,4.85,0,1,1,385,41.94,4.75,4.75,0,0,1,380.12,37.19Zm8.15,61h-6.6V53.39h6.6Z"/><path class="cls-1" d="M419.13,98.21h-6.59V29.33h6.59Z"/><path class="cls-1" d="M483.47,54.36V98.21h-6.6v-4c-5.62,3.69-10.57,5.44-16.78,5.44-13.39,0-22.32-9.61-22.32-24.06.1-14.17,8.64-23.68,22.71-23.68A106.33,106.33,0,0,1,483.47,54.36ZM444.37,75.8c0,10.77,6.41,18.14,16.5,18.14,5.33,0,10-1.45,16-5.43V58.92a95.83,95.83,0,0,0-15.52-1.26C450.19,57.66,444.37,65.13,444.37,75.8Z"/><path class="cls-1" d="M511.53,54a56.48,56.48,0,0,1,15.91-2c14.75,0,23.19,9.51,23.19,23.58,0,14.84-9.12,24-22.32,24a101.26,101.26,0,0,1-23.38-2.13v-68h6.6Zm.1,5.72v32.9a76,76,0,0,0,15.52,1.35c10.86,0,17-7.37,17-18.43,0-10.58-5.82-17.85-17.27-17.85A53,53,0,0,0,511.63,59.69Z"/><path class="cls-1" d="M568.11,89.68c6.4,2.81,13.39,4.46,18.82,4.46,6.79,0,11.74-2.72,11.74-7.77,0-5.72-6.6-6.79-15.43-8.63-9.7-2-14.74-5-14.74-12.42,0-8.44,6.69-13.29,17.75-13.29a55.82,55.82,0,0,1,17.27,3.11l-1.75,5.23a56.78,56.78,0,0,0-16-2.91C578.88,57.46,575,60.08,575,65c0,4.66,4.07,5.72,11.93,7.57,10.67,2.33,18,4.37,18,13.2,0,9.21-7.57,13.87-18.34,13.87a53.67,53.67,0,0,1-20-4.46Z"/><path class="cls-1" d="M228.92,149.14V130.27H232v18.87Z"/><path class="cls-1" d="M244.79,134.58a5.35,5.35,0,0,1,3.76,1.25,5.2,5.2,0,0,1,1.35,4v9.32h-3v-8.75a3.8,3.8,0,0,0-.68-2.48,2.58,2.58,0,0,0-2.12-.84,3.15,3.15,0,0,0-2.88,1.28,6.94,6.94,0,0,0-.81,3.69v7.1h-3.05V134.85h2.38l.43,1.94h.16a4.14,4.14,0,0,1,1.16-1.23,4.91,4.91,0,0,1,1.55-.73A6.61,6.61,0,0,1,244.79,134.58Z"/><path class="cls-1" d="M262.24,134.58a5.33,5.33,0,0,1,3.76,1.25,5.2,5.2,0,0,1,1.35,4v9.32h-3v-8.75a3.86,3.86,0,0,0-.68-2.48,2.59,2.59,0,0,0-2.12-.84,3.15,3.15,0,0,0-2.89,1.28,7,7,0,0,0-.8,3.69v7.1h-3V134.85h2.38l.42,1.94h.17a4.11,4.11,0,0,1,1.15-1.23,4.91,4.91,0,0,1,1.55-.73A6.67,6.67,0,0,1,262.24,134.58Z"/><path class="cls-1" d="M284.9,142a9.91,9.91,0,0,1-.47,3.16,6.43,6.43,0,0,1-1.35,2.34,5.9,5.9,0,0,1-2.15,1.44,7.58,7.58,0,0,1-2.82.49,7.17,7.17,0,0,1-2.7-.49,5.87,5.87,0,0,1-2.12-1.44,6.65,6.65,0,0,1-1.39-2.34,9.36,9.36,0,0,1-.49-3.16,8.88,8.88,0,0,1,.82-4,5.64,5.64,0,0,1,2.34-2.51,7.22,7.22,0,0,1,3.63-.87,6.84,6.84,0,0,1,3.48.87,5.94,5.94,0,0,1,2.37,2.51A8.8,8.8,0,0,1,284.9,142Zm-10.37,0a8.38,8.38,0,0,0,.38,2.67,3.51,3.51,0,0,0,1.18,1.7,3.45,3.45,0,0,0,2.07.58,3.11,3.11,0,0,0,3.23-2.28,8.1,8.1,0,0,0,.38-2.67,7.84,7.84,0,0,0-.38-2.64,3.25,3.25,0,0,0-1.18-1.67,3.46,3.46,0,0,0-2.06-.57,3.09,3.09,0,0,0-2.75,1.26A6.37,6.37,0,0,0,274.53,142Z"/><path class="cls-1" d="M292.31,149.14l-5.43-14.29h3.21l2.94,8.39c.19.54.36,1.11.52,1.73s.26,1.14.32,1.57h.1a14.87,14.87,0,0,1,.35-1.59c.18-.61.35-1.18.53-1.71l2.95-8.39H301l-5.44,14.29Z"/><path class="cls-1" d="M309.43,134.58a6.12,6.12,0,0,1,4.1,1.2,4.72,4.72,0,0,1,1.39,3.75v9.61h-2.16l-.59-2h-.11a7.62,7.62,0,0,1-1.25,1.28,4.42,4.42,0,0,1-1.48.76,7.62,7.62,0,0,1-2.06.24,5.38,5.38,0,0,1-2.29-.47,3.52,3.52,0,0,1-1.59-1.44,4.75,4.75,0,0,1-.57-2.45,3.74,3.74,0,0,1,1.65-3.32,9.49,9.49,0,0,1,5-1.22l2.47-.1v-.74a2.35,2.35,0,0,0-2.62-2.74,6.89,6.89,0,0,0-2.08.31,16.51,16.51,0,0,0-2,.75l-1-2.14a11.3,11.3,0,0,1,2.4-.91A11.09,11.09,0,0,1,309.43,134.58Zm2.46,7.74-1.83.07a5.82,5.82,0,0,0-3.19.77,2.25,2.25,0,0,0-.91,1.9,1.84,1.84,0,0,0,.63,1.55,2.68,2.68,0,0,0,1.66.48,3.83,3.83,0,0,0,2.61-.9,3.26,3.26,0,0,0,1-2.62Z"/><path class="cls-1" d="M325.14,147a6.64,6.64,0,0,0,1.18-.11,7,7,0,0,0,1.05-.27v2.3a6.42,6.42,0,0,1-1.3.38,9,9,0,0,1-1.66.15,5.66,5.66,0,0,1-2.19-.4,3.2,3.2,0,0,1-1.53-1.41,5.51,5.51,0,0,1-.57-2.74v-7.67h-1.95v-1.36l2.09-1.08,1-3.06h1.91v3.17h4.09v2.33h-4.09v7.63a2.16,2.16,0,0,0,.54,1.61A2,2,0,0,0,325.14,147Z"/><path class="cls-1" d="M332.48,129.38a2,2,0,0,1,1.2.38,1.49,1.49,0,0,1,.51,1.29,1.52,1.52,0,0,1-.51,1.29,1.91,1.91,0,0,1-1.2.38,1.94,1.94,0,0,1-1.23-.38,1.52,1.52,0,0,1-.5-1.29,1.48,1.48,0,0,1,.5-1.29A2,2,0,0,1,332.48,129.38Zm1.49,5.47v14.29h-3V134.85Z"/><path class="cls-1" d="M351.62,142a9.91,9.91,0,0,1-.46,3.16,6.31,6.31,0,0,1-1.36,2.34,5.86,5.86,0,0,1-2.14,1.44,7.67,7.67,0,0,1-2.83.49,7.17,7.17,0,0,1-2.7-.49,6,6,0,0,1-2.12-1.44,6.65,6.65,0,0,1-1.39-2.34,9.62,9.62,0,0,1-.49-3.16,9,9,0,0,1,.82-4,5.72,5.72,0,0,1,2.35-2.51,7.16,7.16,0,0,1,3.62-.87,6.87,6.87,0,0,1,3.49.87,6,6,0,0,1,2.36,2.51A8.67,8.67,0,0,1,351.62,142Zm-10.36,0a8.1,8.1,0,0,0,.38,2.67,3.11,3.11,0,0,0,3.24,2.28,3.42,3.42,0,0,0,2.06-.58,3.51,3.51,0,0,0,1.18-1.7,8.38,8.38,0,0,0,.38-2.67,8.1,8.1,0,0,0-.38-2.64,3.37,3.37,0,0,0-1.18-1.67,3.51,3.51,0,0,0-2.07-.57,3.1,3.1,0,0,0-2.75,1.26A6.37,6.37,0,0,0,341.26,142Z"/><path class="cls-1" d="M363.22,134.58a5.33,5.33,0,0,1,3.76,1.25,5.2,5.2,0,0,1,1.35,4v9.32h-3v-8.75a3.8,3.8,0,0,0-.69-2.48,2.58,2.58,0,0,0-2.12-.84,3.15,3.15,0,0,0-2.88,1.28,6.94,6.94,0,0,0-.81,3.69v7.1h-3V134.85h2.37l.43,1.94h.16a4.14,4.14,0,0,1,1.16-1.23,4.91,4.91,0,0,1,1.55-.73A6.61,6.61,0,0,1,363.22,134.58Z"/><path class="cls-1" d="M372.77,147.54a1.79,1.79,0,0,1,.56-1.49,2.09,2.09,0,0,1,1.34-.43,2.16,2.16,0,0,1,1.35.43,1.79,1.79,0,0,1,.56,1.49A1.82,1.82,0,0,1,376,149a2.07,2.07,0,0,1-1.35.46,2,2,0,0,1-1.34-.46A1.82,1.82,0,0,1,372.77,147.54Z"/><path class="cls-1" d="M404.29,139.53a10.85,10.85,0,0,1-1.19,5.32,7.54,7.54,0,0,1-3.45,3.22,12.7,12.7,0,0,1-5.45,1.07H389V130.27h5.81a11.34,11.34,0,0,1,5.06,1,7.55,7.55,0,0,1,3.29,3.11A10.21,10.21,0,0,1,404.29,139.53Zm-3.24.09a8.88,8.88,0,0,0-.73-3.82,4.73,4.73,0,0,0-2.15-2.22,7.41,7.41,0,0,0-3.46-.73h-2.65v13.7h2.2a6.78,6.78,0,0,0,5.09-1.74A7.18,7.18,0,0,0,401.05,139.62Z"/><path class="cls-1" d="M414.38,134.58a6.5,6.5,0,0,1,3.28.79,5.32,5.32,0,0,1,2.1,2.23,7.45,7.45,0,0,1,.74,3.46v1.63H411a4.67,4.67,0,0,0,1.12,3.2,3.91,3.91,0,0,0,3,1.12,10.18,10.18,0,0,0,2.45-.26,14.13,14.13,0,0,0,2.26-.78v2.46a10,10,0,0,1-2.18.74,13.57,13.57,0,0,1-2.66.23,8.11,8.11,0,0,1-3.71-.81,5.86,5.86,0,0,1-2.49-2.44,8.42,8.42,0,0,1-.89-4.05,9.33,9.33,0,0,1,.81-4.08,6,6,0,0,1,2.29-2.56A6.6,6.6,0,0,1,414.38,134.58Zm0,2.29a3.07,3.07,0,0,0-2.32.93,4.34,4.34,0,0,0-1,2.72h6.49a5.05,5.05,0,0,0-.36-1.89,2.8,2.8,0,0,0-1-1.29A3.07,3.07,0,0,0,414.38,136.87Z"/><path class="cls-1" d="M427.63,149.14h-3.06V129.06h3.06Z"/><path class="cls-1" d="M434.15,129.38a2,2,0,0,1,1.21.38,1.49,1.49,0,0,1,.51,1.29,1.52,1.52,0,0,1-.51,1.29,2.15,2.15,0,0,1-2.44,0,1.55,1.55,0,0,1-.5-1.29,1.51,1.51,0,0,1,.5-1.29A2,2,0,0,1,434.15,129.38Zm1.5,5.47v14.29h-3V134.85Z"/><path class="cls-1" d="M443.91,149.14l-5.43-14.29h3.21l2.94,8.39a17.73,17.73,0,0,1,.52,1.73c.15.62.26,1.14.32,1.57h.11a11.17,11.17,0,0,1,.35-1.59c.17-.61.34-1.18.52-1.71l2.95-8.39h3.2l-5.44,14.29Z"/><path class="cls-1" d="M461.12,134.58a6.53,6.53,0,0,1,3.28.79,5.32,5.32,0,0,1,2.1,2.23,7.58,7.58,0,0,1,.74,3.46v1.63H457.7a4.62,4.62,0,0,0,1.12,3.2,3.9,3.9,0,0,0,3,1.12,10.2,10.2,0,0,0,2.46-.26,14.13,14.13,0,0,0,2.26-.78v2.46a10,10,0,0,1-2.18.74,13.65,13.65,0,0,1-2.66.23,8.11,8.11,0,0,1-3.71-.81,5.75,5.75,0,0,1-2.49-2.44,8.42,8.42,0,0,1-.89-4.05,9.33,9.33,0,0,1,.81-4.08,5.9,5.9,0,0,1,2.29-2.56A6.6,6.6,0,0,1,461.12,134.58Zm0,2.29a3.07,3.07,0,0,0-2.32.93,4.4,4.4,0,0,0-1,2.72h6.5a5.05,5.05,0,0,0-.36-1.89,2.8,2.8,0,0,0-1-1.29A3.07,3.07,0,0,0,461.12,136.87Z"/><path class="cls-1" d="M478.56,134.58c.24,0,.51,0,.79,0a6.18,6.18,0,0,1,.74.11l-.29,2.85a4.39,4.39,0,0,0-.66-.12,4.72,4.72,0,0,0-.71-.05,4.42,4.42,0,0,0-1.54.27,3.7,3.7,0,0,0-2.2,2.14,4.9,4.9,0,0,0-.32,1.86v7.46h-3.06V134.85h2.39l.41,2.52h.14a6.48,6.48,0,0,1,1.06-1.39,5.28,5.28,0,0,1,1.45-1A4.3,4.3,0,0,1,478.56,134.58Z"/><path class="cls-1" d="M489.09,134.58a6.49,6.49,0,0,1,3.27.79,5.28,5.28,0,0,1,2.11,2.23,7.58,7.58,0,0,1,.73,3.46v1.63h-9.53a4.62,4.62,0,0,0,1.11,3.2,3.92,3.92,0,0,0,3,1.12,10.32,10.32,0,0,0,2.46-.26,13.71,13.71,0,0,0,2.25-.78v2.46a9.84,9.84,0,0,1-2.18.74,13.57,13.57,0,0,1-2.66.23,8.07,8.07,0,0,1-3.7-.81,5.75,5.75,0,0,1-2.49-2.44,8.31,8.31,0,0,1-.9-4.05,9.33,9.33,0,0,1,.82-4.08,5.88,5.88,0,0,1,2.28-2.56A6.64,6.64,0,0,1,489.09,134.58Zm0,2.29a3.05,3.05,0,0,0-2.32.93,4.34,4.34,0,0,0-1,2.72h6.49a5.05,5.05,0,0,0-.35-1.89,2.82,2.82,0,0,0-1-1.29A3,3,0,0,0,489.09,136.87Z"/><path class="cls-1" d="M504.07,149.4a5,5,0,0,1-4.08-1.86,10.66,10.66,0,0,1,0-11.07,5.13,5.13,0,0,1,4.14-1.89,5.73,5.73,0,0,1,1.89.29,4.84,4.84,0,0,1,1.4.78,5.17,5.17,0,0,1,1,1.1h.14c0-.27-.09-.65-.14-1.15s-.08-1-.08-1.4v-5.14h3.05v20.08H509l-.54-1.93h-.13a5.3,5.3,0,0,1-1,1.11,4.49,4.49,0,0,1-1.41.79A5.77,5.77,0,0,1,504.07,149.4Zm.87-2.46a3.15,3.15,0,0,0,2.74-1.13,5.83,5.83,0,0,0,.82-3.37V142a7.09,7.09,0,0,0-.77-3.67,3,3,0,0,0-2.82-1.28,2.8,2.8,0,0,0-2.49,1.31,6.66,6.66,0,0,0-.86,3.68,6.27,6.27,0,0,0,.86,3.61A2.86,2.86,0,0,0,504.94,146.94Z"/><path class="cls-1" d="M516,147.54a1.79,1.79,0,0,1,.56-1.49,2.09,2.09,0,0,1,1.34-.43,2.16,2.16,0,0,1,1.35.43,1.79,1.79,0,0,1,.56,1.49,1.82,1.82,0,0,1-.56,1.49,2.07,2.07,0,0,1-1.35.46,2,2,0,0,1-1.34-.46A1.82,1.82,0,0,1,516,147.54Z"/><path class="cls-1" d="M113.91,1.16l24.57,45.13a3,3,0,0,1,.15.31C153.22,82.71,51.68,150.47,17.06,172.27a2.21,2.21,0,0,1-2.9-3.25C38.62,138.7,108.32,48.41,109.76,2.11A2.21,2.21,0,0,1,113.91,1.16Z"/><path class="cls-1" d="M2,24.24,41.15,32.5a2.7,2.7,0,0,1,2.1,2.33c1.34,10.42,11.43,36,16,47.22a1.68,1.68,0,0,1-2.55,2C42.11,73.24-.73,40.33,0,25.7A1.66,1.66,0,0,1,2,24.24Z"/></g></g></svg>