<?xml version="1.0" encoding="utf-8"?>
<svg version="1.1" id="Layer_1" xmlns="http://www.w3.org/2000/svg" xmlns:xlink="http://www.w3.org/1999/xlink" x="0px" y="0px"
	 viewBox="0 0 559.3 549.2" style="enable-background:new 0 0 559.3 549.2;" xml:space="preserve">
<style type="text/css">
	.st0{opacity:0.2;}
	.st1{fill:#FFFFFF;}
	@keyframes bounce {
		0%, 100% {
			transform: translateY(-5%);
			animation-timing-function: cubic-bezier(0.8,0,1,1);
		}
		50% {
			transform: none;
			animation-timing-function: cubic-bezier(0,0,0.2,1);
		}
	}

	.animate-bounce {
  	animation: bounce 1s infinite;
	}
</style>
<g class="st0">
	<path class="st1" d="M559.1,193.2c-0.2-0.5-0.5-1.1-0.8-1.5c-18.7,1.7-37.5,3.4-56.2,5.2c-17.5,1.7-35,3.3-52.5,5.1
		c-2.5-10.2-4.7-19.2-6.6-26.6c-4.1-16-5.3-20-8.1-24.7c-4.5-7.1-10.7-13-18.1-17c0.1-4,0.2-7.9,0.2-11.9l49.8-4.9
		c-2.4-23-4.8-45.9-7.2-68.9L228.4,68.2l-44,132.3c4.1-0.4,6.3,0.9,7.4,1.7c5.5,4.2,4.5,15.5-0.3,22.4c-1.8,2.5-4.1,4.6-6.8,6.1
		c-1.3,0.7-2.6,1.3-4,1.8l-0.3,0.1l0.8,3.9l0.2,0.6l9.4,31.6l2.8,17.1c-0.1,0.1-0.3,0.1-0.4,0.1c-1.8,0.3-3.7-2.7-4.7-4.6
		c-0.4-0.8-0.7-1.4-0.7-1.5c-1,0-2.4,0-4.1-0.1c-1.6,0-3.2-0.2-4.7-0.6c-2-0.7-3.3-2.4-4.4-4.2c-2.5-3.9-4.1-8.3-4.9-12.8
		c-3.1-24.6-13.8-41.3-10.2-76.3c1.8-18,4.7-14.6,8-37.7c0.1-0.7,0.2-1.4,0.3-2.2c0.6-4.7,1.1-8.8,1.5-12.4
		c1.3-12.5,2.1-19.7,8-25.1c7.4-6.7,18.5-6.5,26.7-5.2c1.8-3.9,3.8-8.4,5.9-13.6c3.3-7.9,4.3-10.7,3.7-14.3
		c-0.6-5.5-4.8-9.9-10.3-10.6c-5.9-1.2-22.9-3.3-45.9-5.4l0,0h-0.3l-3.7-0.4v8l-11.9,1c0.1-9.8-6-18.7-15.1-22.3
		c0,0-15.2-7.8-29-16.4c-12.2-7.7-18.3-11.5-22.8-16.5c-3-3.7-6.7-6.9-10.9-9.2C60.1,1.2,56.2,0.1,52.2,0C46.5,0,42.4,2.7,40,4.3
		c-4.9,3.3-8.8,7.9-11.2,13.2c-2.6,5.3-4,11.2-4,17.2c0,4.5,0.8,3.8,3.7,19.8c1.4,7.5,1.8,10.6,0.7,14.7c-0.9,3-2.1,5.9-3.8,8.6
		c-2.5,4.4-4.3,6-5.7,8.1c-3.1,4.8-2.4,9.2-0.6,29.8c0.8,9,1.2,13.5,1.2,14.4c-0.5,8.9-3.4,15.2-8.9,26.5
		c-1.1,2.3-8.9,18.5-11.2,28.6c-0.4,1.8-0.5,3.6-0.1,5.4c0.9,4.5,4.4,7.4,6.2,8.7c27.9,18.2,46.5,30,54.4,34.3
		c4.3,2.2,8.2,5.1,11.6,8.4c2.6,2.5,5,5.3,7,8.4c-6.4,38.7-12.7,77.5-19.1,116.3l-40.9,77.5c-1.5,2-3.8,5.9-2.5,9.1
		c1.1,2.7,4.3,3.4,11.1,5.3c6.3,1.8,13.4,3.7,19.1,5.8c6.3,2.3,5.7,2.8,16.7,7.3c4.4,1.7,8.9,3.1,13.6,4.2
		c7.8,2.1,14.6,3.4,20.7,4.4c14.2,2.3,23.6,3.9,34.3,3.7c14.2-0.3,28.3-3.3,41.4-9c6.3,23.5,12.5,47,18.7,70.5l36.8-6.6l4.6-2.3
		c122.9-63.2,211.2-108.7,223-114c2.8-1.3,12.5-5.3,17.7-15.1c0.9-1.7,1.6-3.5,2.1-5.3c5.8-19.5,5.5-6,32.2-96.4
		c14-47.5,13.2-48.1,18.3-59.2c8-17.3,18.3-33.4,30.5-48C558.1,198.2,560,195.8,559.1,193.2z"/>
</g>
<path class="st1" d="M218.1,547c-0.5,0-0.9-0.3-1-0.8c-4.4-18.2-8.4-34-11.6-46.4v-0.1c-2.2-8.5-4.1-15.5-5.5-20.5
	c-0.8-2.8-2.2-6.7-5.7-9.2c-2.4-1.7-6.4-3.2-17.9-1.2c-5.2,0.9-10.2,2.3-15.1,4.2c-2.1,0.8-4.2,1.5-6.6,2.3
	c-14.3,4.3-24.8,4.2-31.2,3.3h-0.2c-5.8-0.8-23.5-3.3-32.6-17.6c-2.5-3.9-4.1-8.3-4.8-12.9C81,418.5,73.2,335.3,73.1,334.5
	c-0.3-5.9,1.3-11.8,4.6-16.8c6.3-9.5,16.4-11.7,19.4-12.2c19-2.3,38.3-5.1,57.2-8.4c9.7-1.7,19.6-3.5,29.3-5.5
	c9.1-2.7,18.6-4,28.1-4.1c63.7-0.7,78.6,0,78.7,0c0.3,0,29.7,1.3,42.6-3.8c6.5-2.6,13.5-3.7,20.5-3.1h0.2
	c8.4,0.6,55.5,0.2,105.1-0.2c2.5,0,5,0.4,7.3,1.2c11.1,3.7,15.5,14.5,16,15.7c2.3,6,1.3,10.3-1.2,20.9c-0.5,2-1,4.2-1.5,6.7
	c-2.1,9.5-4,19.3-5.6,29.3c-0.8,3.7-1.6,7.4-2.5,11c-2.1,9.1-2.8,11.1-4.4,13c-2,2.3-5.9,5.1-13.7,5.2l-43.4-0.1l-0.2,41.4
	c-0.1,2.5-0.8,5-1.9,7.2c-1.7,3.5-4.3,6.3-7.6,8.3c-14.2,7.9-28.6,15.7-42.8,23.3c-26.7,14.3-53.9,28.5-80.9,42.1
	c-1.5,0.8-3,1.5-4.6,2.1c-4.1,1.5-8.5,2.1-12.8,2h-0.1c-4.2-0.1-10.9,0-19.5,0.1c-5.4,0-11.6,0.1-18.4,0.2l0,0c-2.8,0-5.6-0.7-8.1-2
	c-1.5-0.8-2.9-1.9-4.1-3.2c3,11.5,6.4,25.4,10.2,40.9c0.1,0.5-0.2,1.1-0.7,1.2l0,0L218.1,547z M207.4,499.1c1.4,3,3.6,5.5,6.5,7.1
	c2.2,1.2,4.7,1.8,7.2,1.7c6.8,0,13-0.1,18.4-0.2c8.6-0.1,15.4-0.1,19.5-0.1h0.1c4.1,0.2,8.2-0.5,12.1-1.9c1.5-0.6,2.9-1.2,4.3-2
	c27-13.7,54.2-27.8,80.9-42.1c14.2-7.6,28.6-15.5,42.8-23.3c3-1.8,5.3-4.4,6.9-7.5c1-2,1.5-4.2,1.7-6.4l0.2-43.3l45.3,0.1
	c7-0.1,10.5-2.5,12.1-4.5c1.2-1.5,1.9-3.1,4-12.1c0.9-3.7,1.7-7.3,2.4-10.9c1.6-9.9,3.5-19.8,5.6-29.3c0.6-2.5,1.1-4.7,1.6-6.7
	c2.4-10.1,3.4-14.3,1.3-19.7c-0.4-1.1-4.5-11.1-14.8-14.5c-2.1-0.7-4.4-1.1-6.6-1.1c-49.6,0.5-96.7,0.8-105.2,0.2h-0.2
	c-4.7-0.4-9.4,0-13.9,1.2c-1.9,0.5-3.8,1.1-5.6,1.8c-13.4,5.4-42.4,4.1-43.6,4c-0.1,0-15-0.7-78.6,0c-9.4,0.1-18.7,1.4-27.7,4
	c-9.8,2-19.7,3.8-29.4,5.5c-18.9,3.3-38.2,6.1-57.2,8.4c-2.7,0.4-12.1,2.5-18,11.3c-3,4.6-4.5,10-4.2,15.5
	c0.1,0.8,7.9,84,12.8,113.3c0.7,4.3,2.2,8.5,4.5,12.2c8.6,13.6,25.6,16,31.2,16.7h0.2c6.1,0.9,16.4,1,30.3-3.2
	c2.4-0.7,4.5-1.5,6.5-2.2c5-1.9,10.2-3.4,15.5-4.3c12.2-2.1,16.5-0.5,19.4,1.6c4,2.9,5.6,7.3,6.4,10.3
	C203.3,483.7,205.2,490.6,207.4,499.1L207.4,499.1z"/>
<path class="st1" d="M204,549.2c-0.5,0-0.9-0.3-1-0.7l-18-64.9c-1.7-8-6.1-13.6-10.9-14.1c-1.3-0.1-2.5,0.1-3.7,0.6
	c-0.5,0.2-1.1,0-1.3-0.6c-0.2-0.5,0-1.1,0.6-1.3c1.5-0.6,3-0.9,4.6-0.7c5.7,0.5,10.8,6.8,12.7,15.6l18,64.9c0.1,0.5-0.2,1.1-0.7,1.2
	l0,0C204.2,549.1,204.1,549.2,204,549.2z"/>
<path class="st1" d="M408.9,383.3h-32.2v-12.1h13.5c0.6,0,1,0.4,1,1s-0.4,1-1,1h-11.4v8.1h30.1c0.6,0,1,0.4,1,1
	S409.4,383.3,408.9,383.3z"/>
<path class="st1" d="M495.9,360.8h-0.2l-23.1-5.8c-0.5-0.1-0.9-0.6-0.9-1.1c0.1-0.5,0.6-0.9,1.1-0.9c0.1,0,0.1,0,0.2,0.1l23.1,5.7
	c0.5,0.1,0.9,0.7,0.7,1.2l0,0C496.8,360.4,496.4,360.8,495.9,360.8z"/>
<path class="st1" d="M262.2,399c-0.1,0-0.2,0-0.3-0.1c-4.9-1.8-10-3.2-15.2-4.1c-3.2-0.6-6.3-1.3-9.4-2.1c-1.7-0.4-3.4-0.8-5.1-1.2
	c-2.5-0.5-5.2-1.2-7.7-3.5c-1.8-1.7-3-3.9-3.5-6.3c-4.9-15.5-8.7-26.2-11.4-31.9l-0.1-0.1c-2.2-4.7-3.4-9.8-3.3-15
	c0-1.1-0.1-2.3-0.2-3.6c-0.4-4-1.2-8-2.3-11.9c-1.1-4.3-2-7.1-3-9.8c-1.3-3.6-2.3-7.4-3.1-11.2c-0.6-2.7-1-5.5-1.3-8.3
	c-0.1-0.6,0.3-1,0.9-1.1c0.6-0.1,1,0.3,1.1,0.9c0.3,2.7,0.7,5.4,1.3,8.1c0.7,3.7,1.7,7.4,3,10.9c0.9,2.6,1.9,5.6,3,10
	c1.2,4,2,8.1,2.4,12.3c0.1,1.4,0.1,2.5,0.2,3.7c0,2.7,0.4,5.4,1,8c0.5,2.1,1.3,4.2,2.2,6.2l0.1,0.1c2.6,5.8,6.5,16.6,11.4,32.2
	c0.5,2,1.5,3.9,3,5.4c2,2,4.4,2.5,6.7,3c1.7,0.4,3.4,0.8,5.1,1.2c3,0.7,6.2,1.5,9.3,2.1c5.3,1,10.5,2.4,15.5,4.2
	c0.5,0.2,0.8,0.8,0.6,1.3C262.9,398.7,262.6,399,262.2,399L262.2,399z"/>
<path class="st1" d="M230.6,379.3L230.6,379.3l-9.7-0.1c-0.6,0-1-0.4-1-1s0.4-1,1-1l0,0l9.8,0.1c0.6,0,1,0.4,1,1
	S231.2,379.3,230.6,379.3L230.6,379.3z"/>
<path class="st1" d="M224.5,509.9c-0.5,0-0.9-0.3-1-0.8c-1.2-5.1,0.4-9.9,3.9-12c1.5-0.9,3.2-1.3,4.9-1.1h20.2l0.3-10.1l-22.3-0.4
	c-2.5-0.3-4.8-1.3-6.7-2.9c-2.4-2.1-2.7-4.2-3.2-7.2c-0.5-3.2-1.3-6.3-2.6-9.3c-0.4-0.9-0.7-1.7-1.1-2.4c-1.3-2.6-2.1-5.4-2.4-8.2
	c-0.1-1.8-0.1-3.6,0.2-5.3c0.1-0.6,0.6-0.9,1.1-0.9s0.9,0.6,0.9,1.1c-0.2,1.6-0.3,3.2-0.2,4.9c0.2,2.6,1,5.2,2.2,7.6
	c0.4,0.8,0.7,1.6,1.1,2.5c1.3,3.1,2.2,6.4,2.7,9.7c0.5,2.8,0.8,4.4,2.6,6.1c1.6,1.3,3.5,2.2,5.6,2.4l24.1,0.4l-0.4,14h-22.2
	c-1.3-0.1-2.6,0.2-3.8,0.8c-2.7,1.6-3.9,5.7-3,9.8c0.1,0.5-0.2,1.1-0.8,1.2C224.7,509.9,224.6,509.9,224.5,509.9z"/>
<path class="st1" d="M157.7,298.5c-0.5,0-0.9-0.3-1-0.8l-21.8-101.2c-3.3-14.6-2.1-30,3.6-43.9c3.1-7.4,7.4-14.2,12.7-20.1
	l35.9-50.9c3.5-4.4,3.1-9.6,0.5-11.8c-2.1-1.8-5.2-1.3-6.1-1.1h-0.1l-16.1,1.8c-16.9,1.9-30.2,3.3-38.2,4.5c-2.6,0.4-8.4,1.2-13.5-2
	c-4-2.5-5.7-6.2-6.8-8.4l-0.3-0.6C103,56.8,95,50.8,82.8,46.1c-0.5-0.2-0.8-0.8-0.6-1.3l0,0c0.2-0.5,0.8-0.8,1.3-0.6l0,0
	c12.7,4.8,21,11.2,24.8,18.9l0.3,0.7c1,2.2,2.5,5.4,6,7.6c4.5,2.8,9.7,2.1,12.1,1.7c8-1.2,21.4-2.6,38.3-4.5l16.1-1.7
	c1.2-0.3,5.1-0.8,7.8,1.5c3.2,2.8,4.1,9.1-0.2,14.5l-36,51c-5.2,5.8-9.4,12.4-12.4,19.6c-5.5,13.5-6.7,28.4-3.4,42.7l21.8,101.2
	c0.1,0.5-0.2,1.1-0.8,1.2C157.9,298.5,157.8,298.5,157.7,298.5z"/>
<path class="st1" d="M146.6,72.7c-0.6,0-1-0.4-1-1l-0.8-18.8c0-0.6,0.4-1,1-1s1,0.4,1,1l0.8,18.8C147.7,72.2,147.2,72.6,146.6,72.7
	L146.6,72.7z"/>
<path class="st1" d="M527.4,256L527.4,256c-7.2-0.2-14.2-0.5-21.5-1c-2.1,0-4.2-0.7-6-1.9c-1.9-1.5-3.2-3.5-3.7-5.8
	c-0.2-0.5,0.1-1.1,0.6-1.3s1.1,0.1,1.3,0.6v0.1c0.4,1.9,1.5,3.6,3,4.7c1.5,1,3.2,1.5,5,1.5c7.3,0.4,14.3,0.8,21.5,1c0.6,0,1,0.4,1,1
	s-0.4,1-1,1L527.4,256L527.4,256z"/>
<path class="st1" d="M55,156l-5.5-47.7H49l-2-21.5l-4.2-27.3L62,57.2l0.5,10.1L68,67l2.7,17l45-4.2l5.5,47.7l0.4-0.1l2.1,22.1
	L55,156z M50.3,107.2l5.5,47.7l66.8-6.3l-1.9-20.1h-0.4l-5.5-47.6l-45,4.2l-2.6-16.9l-5.6,0.3l-0.5-10l-17.3,2l4.1,26.2l2,20.6
	L50.3,107.2z M68.3,133.4l-3.5-27.6l30.3-2.9l4.6,27.5L68.3,133.4z M65.9,106.8l3.2,25.6l29.4-2.8l-4.3-25.5L65.9,106.8z"/>
<path class="st1" d="M219,340.6L204.9,299h57v12.7l-40.8-0.5l10.8,29.5L219,340.6z M206.3,300l13.4,39.7h10.8l-10.8-29.5l41.2,0.5
	V300H206.3z"/>
<path class="st1" d="M229.2,462.3c-2.4,0.2-4.8-0.7-6.6-2.4c-1.7-1.9-2.6-4.4-2.4-7V440l-2.9-0.1v-10h5.1l0.2-12.6h6.9l2.3-2.5
	l0.2-6.3h27v7.5h9.7v18.8H260c-1.3,6.1-4.5,14.6-12.3,20.9c-4.1,3.3-9.1,5.4-14.4,6.2C232,462.2,230.6,462.3,229.2,462.3z
	 M218.3,439.1l2.9,0.1V453c-0.2,2.3,0.6,4.5,2.1,6.3c2.6,2.7,6.8,2.1,9.9,1.7c5.1-0.7,9.9-2.8,13.9-6c7.7-6.3,10.8-14.7,12-20.7
	l0.1-0.4h8.5v-16.7H258v-7.5h-25l-0.2,5.8l-2.8,3h-6.3l-0.2,12.6h-5.1L218.3,439.1z"/>
<path class="st1" d="M326.4,451.1h-48.2v-17.9h48.2V451.1z M279.2,450.1h46.2v-15.9h-46.2V450.1z"/>
<path class="st1" d="M342,381.5h-63.8v-11.7h28.9v-35h22.6v-5.4h45.1v49.2h-4.4v-3.4H342V381.5z M279.2,380.5H341v-6.3h30.3v3.4h2.4
	v-47.2h-43.1v5.4H308v35h-28.9L279.2,380.5z M330.6,370.8h-12.1v-25.5h12.1V370.8z M319.5,369.8h10.1v-23.5h-10.1V369.8z
	 M365.1,364.9h-24V340h24V364.9z M342.1,363.9h22V341h-22V363.9z"/>
<path class="st1" d="M291.9,347.8h-15.1v-48.2H320V328h-13.3v-15.6h-14.9L291.9,347.8L291.9,347.8z M277.8,346.8h13.1v-35.4h16.8
	V327H319v-26.5h-41.2V346.8z"/>
<path class="st1" d="M390.4,340.2h-11.7v-26.7h11.7v8.6h2.6v-2.3h2v-10h7.2v-0.9h-2.3v-2.1h-1.5v-5.4h-10.5v-9.1h67v5.4h-10.1v2h6.8
	v21h-6.8v6.1h-40v-2.7h-5.4v11.2h-9L390.4,340.2z M379.7,339.2h9.7v-4.9h9v-11.2h7.4v2.7h38v-6h6.8v-19h-6.8v-4h10.1v-3.5h-65v7.1
	h10.5v5.4h1.5v2.1h2.3v2.9H396v10h-2v2.3h-4.6v-8.6h-9.7L379.7,339.2z"/>
<path class="st1" d="M495.8,253.3h-40.5v-14.7h40.5V253.3z M456.3,252.3h38.5v-12.7h-38.5V252.3z"/>
<path class="st1" d="M504.2,228.9h-37.8v-6.2h21.4v-1.2h5.9v-3.7h10.5V228.9z M467.3,227.9h35.8v-9.2h-8.5v3.7h-5.9v1.2h-21.4V227.9
	z"/>
<path class="st1" d="M265.4,388.4h-29.5l-0.1-0.2c-9.7-11.5-16.1-25.5-18.4-40.4l-0.1-0.6l34.5-0.1v8l-9.7,0.1v12.1h23.3V388.4z
	 M236.3,387.4h28.1v-19.2h-23.3v-14.1l9.7-0.1v-6l-32.4,0.1C220.7,362.6,226.9,376.1,236.3,387.4L236.3,387.4z"/>
<path class="st1" d="M405.3,408.2h-20v-10.6h20V408.2z M386.3,407.2h18v-8.6h-18V407.2z"/>
<path class="st1" d="M381.8,437.9h-41.5v-23.4h-3.7v-9.8h3.7v-7h41.5v9.6h2.8v9.6h5c1.2-0.9,2.6-1.4,4.1-1.4
	c3.6,0.1,6.5,3.2,6.3,6.9c-0.1,3.4-2.9,6.2-6.3,6.3c-1.5,0-2.9-0.5-4.1-1.4h-5v1.4h3.5v8.5h-6.3V437.9z M341.2,436.9h39.5V436h6.3
	v-6.5h-3.5v-3.4h6.4l0.1,0.1c1,0.9,2.3,1.3,3.6,1.3c3.1-0.1,5.5-2.7,5.4-5.8c-0.1-2.9-2.5-5.2-5.4-5.4c-1.3,0-2.6,0.5-3.6,1.3
	l-0.1,0.1h-6.4v-9.6h-2.8v-9.6h-39.5v7h-3.7v7.8h3.7V436.9z M369.6,423.4h-14.8v-8.9H352v-2.8h21.4v5.5h-3.9v6.2L369.6,423.4
	L369.6,423.4z M355.7,422.4h12.8v-6.2h3.9v-3.5H353v0.8h2.7V422.4z"/>
<path class="st1" d="M325.1,403.8h-18.2v-23.3h18.2V403.8z M307.9,402.8h16.2v-21.3h-16.2V402.8z"/>
<path class="st1" d="M319.2,434.2h-12.4v-17.6h-28.7v-13.8h41.1V434.2z M307.8,433.2h10.4v-29.4h-39.1v11.7h28.7V433.2z"/>
<path class="st1" d="M266.4,283.1h-65.1v-29.4h37.8v4.6h27.3v6.5h16.2v17.6h-16.3L266.4,283.1L266.4,283.1z M202.4,282.1h63.1v-0.8
	h16.2v-15.6h-16.2v-6.5h-27.3v-4.6h-35.8V282.1z"/>
<path class="st1" d="M189.5,254.1l-8.4-20.6l14.3-6l9.4,19.4L189.5,254.1z M182.4,234l7.7,18.7l13.4-6.3l-8.5-17.6L182.4,234z"/>
<path class="st1" d="M86.4,369.2l-1.9-15.5l41.1-5l1.9,15.5L86.4,369.2z M85.6,354.5l1.6,13.6l39.1-4.7l-1.6-13.6L85.6,354.5z"/>
<path class="st1" d="M89.6,396.8L88,381.2h0.5l40.7-4l1.5,15.6h-0.5L89.6,396.8z M89.1,382.1l1.3,13.6l39.2-3.9l-1.3-13.6
	L89.1,382.1z"/>
<path class="st1" d="M92.8,424.4l-1.3-13.8l41.2-3.8l1.3,13.8L92.8,424.4z M92.7,411.5l1.1,11.8l39.2-3.6l-1.1-11.9L92.7,411.5z"/>
<path class="st1" d="M95.2,455.4l-1-13.8h0.5l40.8-3.1l1,13.8H136L95.2,455.4z M95.2,442.5l0.9,11.8l39.3-3l-0.9-11.8L95.2,442.5z"
	/>
<path class="st1" d="M115.8,299.2l-11.6-14l12.7-10.5l11.6,14.1L115.8,299.2z M105.6,285.3l10.3,12.5l11.1-9.2L116.7,276
	L105.6,285.3z"/>
<path class="st1" d="M81.4,347.4l-2-10.9l28.7-5.2c-3.5-2.6-4.3-7.6-1.7-11.2l-19.6,1.2l-0.8-8.7l31.4-3.3l-0.2,8.5
	c3.8,2.3,5.1,7.3,2.8,11.1c-0.2,0.4-0.5,0.7-0.7,1l1.9,10.2L81.4,347.4z M80.6,337.4l1.6,8.9l37.8-6.9l-1.6-8.9l-1,0.2l1-1.1
	c2.6-2.9,2.4-7.4-0.5-10c-0.4-0.4-0.9-0.7-1.4-1l-0.3-0.1l0.2-8l-29.3,3.1l0.6,6.7l21.1-1.3l-0.9,0.9c-2.7,2.8-2.6,7.3,0.2,10
	c0.5,0.5,1,0.9,1.6,1.2l1.3,0.7L80.6,337.4z"/>
<path class="st1 animate-bounce" d="M243.8,448.6c-3.2-4.1-6.3-8-7.6-13c-0.7-3.1,0.7-6.2,3.3-7.9c2.6-1.7,6-1.7,8.6,0.1c2.6,1.7,3.8,4.8,3.2,7.9
	c-0.9,4.1-3.4,7.4-5.8,10.8C245.1,447,244.5,447.7,243.8,448.6z"/>
</svg>
