<svg xmlns="http://www.w3.org/2000/svg" viewBox="0 0 1695.5 575.33002">
  <style type="text/css" id="style55">
    .color {
      fill: #f47c58;
    }
    .white {
      fill: #fff;
    }
  </style>
  <g transform="translate(-152.25,-212.34)">
    <g>
      <path
        class="white"
        d="m 955.28,469.68 c 0,-14.99 -13.48,-23.98 -27.71,-23.98 h -24.72 c -15.36,0 -27.72,12.37 -27.72,27.72 v 65.16 c 0,15.37 12.36,28.47 27.72,28.47 h 24.72 c 15.35,0 27.71,-6.75 27.71,-23.98 h 23.97 c 0,20.98 -14.61,47.2 -50.19,47.2 h -27.72 c -28.46,0 -50.18,-22.85 -50.18,-51.31 v -64.78 c 0,-28.47 23.22,-51.69 51.68,-51.69 h 24.72 c 28.09,0 51.68,20.22 51.68,47.2 h -23.96 z"
      />
      <path
        class="color"
        d="m 1045.91,519.11 v 22.46 c 0,15.74 14.61,25.48 29.59,25.48 h 25.84 c 11.61,0 19.47,-4.5 22.84,-17.23 h 25.1 c -5.62,22.47 -23.22,40.45 -47.56,40.45 h -28.46 c -28.46,0 -51.31,-20.98 -51.31,-49.44 v -67.42 c 0,-28.46 23.23,-50.93 51.68,-50.93 h 25.47 c 28.46,0 52.06,23.22 52.06,51.69 v 44.94 z m 81.28,-46.44 c 0,-15.37 -13.11,-26.97 -28.1,-26.97 H 1074 c -15.37,0 -28.1,11.61 -28.1,26.97 v 23.59 h 81.28 v -23.59 z"
      />
      <path
        class="white"
        d="m 1283.36,590.27 h -51.69 c -22.1,0 -39.69,-17.98 -39.32,-40.45 h 23.6 c 0.38,9.74 7.49,17.23 17.98,17.23 h 49.8 c 9.75,0 16.86,-7.87 16.86,-17.6 v -15.37 c 0,-9.73 -7.11,-16.85 -16.86,-16.85 h -47.56 c -23.21,0 -39.7,-17.6 -39.7,-40.83 v -13.1 c 0,-23.6 18.73,-40.82 41.58,-40.82 H 1277 c 22.84,0 41.2,19.48 41.2,41.2 h -23.98 c 0,-9.37 -7.11,-17.98 -18.72,-17.98 h -38.21 c -9.73,0 -16.85,7.11 -16.85,16.85 v 14.24 c 0,9.73 7.12,17.22 16.85,17.22 h 48.32 c 23.22,0 38.95,17.23 38.95,40.44 v 14.99 c -0.01,23.23 -17.98,40.83 -41.2,40.83 z"
      />
      <path
        class="white"
        d="m 1368.75,385.03 v -27.72 h 27.72 v 27.72 z m 1.87,202.98 V 425.48 h 23.96 v 162.54 h -23.96 z"
      />
      <path
        class="white"
        d="m 1469.1,425.48 v 114.98 c 0,15.36 11.63,26.6 26.98,26.6 h 28.46 c 14.99,0 27.72,-8.99 27.72,-24.72 V 425.48 h 23.98 v 162.54 h -23.98 v -11.98 c -8.23,8.24 -15.73,14.24 -31.83,14.24 h -24.72 c -28.46,0 -50.56,-22.48 -50.56,-50.93 V 425.48 Z"
      />
      <path
        class="white"
        d="m 1700.18,445.7 h -25.08 c -14.61,0 -27.35,9.74 -27.35,25.48 v 116.84 h -23.96 V 425.48 h 23.96 v 11.99 c 8.25,-8.24 15.74,-14.99 31.47,-14.99 h 22.1 c 8.23,0 24.34,5.99 36.33,19.1 12.73,-13.86 22.46,-19.1 40.44,-19.1 h 19.46 c 27.72,0 50.2,22.48 50.2,50.56 v 114.97 h -23.98 V 473.04 c 0,-15.36 -10.49,-27.35 -25.46,-27.35 h -21.34 c -15.74,0 -27.72,11.24 -27.72,26.6 v 115.72 h -23.98 V 472.67 c 0.01,-14.98 -11.6,-25.84 -25.09,-26.97 z"
      />
    </g>
    <path
      class="color"
      d="m 310.58,539.93 -72.5,-41.84 v -83.72 l 158.3,91.4 v 83.72 z m 20,-285.72 72.5,-41.87 244.1,140.97 -244.13,140.92 -158.31,-91.4 72.5,-41.85 85.81,49.54 99.15,-57.21 z m -13.32,7.66 158.29,91.43 -72.5,41.85 -85.81,-49.55 -85.81,49.55 -72.5,-41.85 z m -165.01,102.96 72.5,41.85 v 99.11 l 85.83,49.54 -0.02,83.72 -158.31,-91.42 z m 0,198.18 171.62,99.11 0.04,-99.11 72.47,41.85 V 787.67 L 152.25,646.73 Z M 409.68,787.65 V 604.88 l 158.33,-91.41 v 83.7 l -85.83,49.56 v 99.06 z M 653.83,646.69 495.51,738.1 V 654.42 L 653.83,563 Z m -72.49,-57.21 v -76.02 l 65.84,38 z m 72.49,-140.95 -244.15,140.95 0.04,-83.72 244.11,-140.94 z"
    />
  </g>
</svg>
