<?xml version="1.0" encoding="UTF-8" standalone="no"?>
<svg
   width="18.06143"
   height="18.3811"
   viewBox="0 0 18.06143 18.3811"
   fill="none"
   version="1.1"
   id="svg1"
   xmlns="http://www.w3.org/2000/svg"
   xmlns:svg="http://www.w3.org/2000/svg">
  <g
     id="wheel"
     transform="translate(-2.96927,-3.25)">
    <path
       id="Vector 4"
       d="M 12,7 10,4 h 4 z"
       stroke="#000000"
       stroke-width="1.5"
       stroke-linecap="round"
       stroke-linejoin="round" />
    <path
       id="Subtract"
       fill-rule="evenodd"
       clip-rule="evenodd"
       d="m 14.9134,5.65388 c 2.7124,1.13897 4.6173,3.82026 4.6173,6.94642 0,4.1591 -3.3716,7.5308 -7.5307,7.5308 -4.15911,0 -7.53073,-3.3717 -7.53073,-7.5308 0,-3.12616 1.9049,-5.80745 4.61729,-6.94642 L 8.35584,4.48473 C 8.33108,4.44511 8.30949,4.40479 8.29094,4.364 5.15323,5.77921 2.96927,8.93473 2.96927,12.6003 c 0,4.9876 4.0432,9.0308 9.03073,9.0308 4.9875,0 9.0307,-4.0432 9.0307,-9.0308 0,-3.66558 -2.1839,-6.82109 -5.3216,-8.2363 -0.0186,0.04079 -0.0402,0.08111 -0.0649,0.12073 z"
       fill="#000000" />
    <circle
       id="Ellipse 4"
       cx="12"
       cy="12"
       r="1"
       fill="#d9d9d9" />
    <g
       id="Group 2">
      <path
         id="Vector 6"
         d="M 12,12.5 V 9"
         stroke="#000000"
         stroke-width="1.5"
         stroke-linecap="round"
         stroke-linejoin="round" />
      <path
         id="Vector 7"
         d="M 12,13 18,8"
         stroke="#000000"
         stroke-width="1.5"
         stroke-linecap="round"
         stroke-linejoin="round" />
      <path
         id="Vector 8"
         d="M 12,13 6,8"
         stroke="#000000"
         stroke-width="1.5"
         stroke-linecap="round"
         stroke-linejoin="round" />
      <path
         id="Vector 9"
         d="m 12,14 v 6"
         stroke="#000000"
         stroke-width="1.5"
         stroke-linecap="round"
         stroke-linejoin="round" />
      <path
         id="Vector 12"
         d="M 20,13 H 4"
         stroke="#000000"
         stroke-width="1.5"
         stroke-linecap="round"
         stroke-linejoin="round" />
      <path
         id="Vector 10"
         d="m 13,14 5,4"
         stroke="#000000"
         stroke-width="1.5"
         stroke-linecap="round"
         stroke-linejoin="round" />
      <path
         id="Vector 11"
         d="M 12,13 6,18"
         stroke="#000000"
         stroke-width="1.5"
         stroke-linecap="round"
         stroke-linejoin="round" />
    </g>
  </g>
</svg>
